<svg width="518" height="518" viewBox="0 0 518 518" fill="none" xmlns="http://www.w3.org/2000/svg">
<g filter="url(#filter0_d)">
<g clip-path="url(#clip0)">
<rect x="72" y="28" width="374" height="374" rx="36" fill="white"/>
<path d="M73.5393 55.5432H446.453V137.457H73.5393V55.5432Z" fill="#F5F6FD" stroke="#D3E3FF" stroke-width="1.0864"/>
<path d="M72.5432 299.543H445.457V382.457H72.5432V299.543Z" fill="#F5F6FD" stroke="#D3E3FF" stroke-width="1.0864"/>
<path d="M237.422 260.56C238.142 260.733 238.684 261.042 239.049 261.488C239.425 261.924 239.612 262.487 239.612 263.177C239.612 264.099 239.273 264.814 238.593 265.321C237.924 265.828 236.945 266.082 235.658 266.082H230.791V255.435H235.369C236.535 255.435 237.442 255.673 238.091 256.15C238.75 256.616 239.08 257.29 239.08 258.173C239.08 258.751 238.933 259.242 238.639 259.648C238.355 260.053 237.949 260.358 237.422 260.56ZM232.296 260.119H235.262C236.002 260.119 236.565 259.972 236.951 259.678C237.346 259.384 237.544 258.953 237.544 258.385C237.544 257.818 237.346 257.387 236.951 257.093C236.555 256.788 235.992 256.636 235.262 256.636H232.296V260.119ZM235.627 264.88C237.26 264.88 238.076 264.272 238.076 263.055C238.076 262.446 237.868 262 237.452 261.716C237.047 261.422 236.438 261.275 235.627 261.275H232.296V264.88H235.627ZM248.83 258.02V266.082H247.37V259.298H243.902L243.811 261.093C243.76 262.178 243.664 263.085 243.522 263.815C243.38 264.535 243.147 265.113 242.823 265.549C242.498 265.985 242.047 266.203 241.469 266.203C241.205 266.203 240.906 266.158 240.572 266.066L240.663 264.834C240.795 264.865 240.916 264.88 241.028 264.88C241.433 264.88 241.738 264.703 241.94 264.348C242.143 263.993 242.275 263.572 242.336 263.085C242.397 262.599 242.452 261.904 242.503 261.002L242.64 258.02H248.83ZM255.106 266.173C254.305 266.173 253.585 265.995 252.946 265.64C252.308 265.286 251.806 264.799 251.441 264.18C251.086 263.552 250.908 262.842 250.908 262.051C250.908 261.26 251.086 260.555 251.441 259.937C251.806 259.308 252.308 258.821 252.946 258.477C253.585 258.122 254.305 257.944 255.106 257.944C255.907 257.944 256.622 258.122 257.251 258.477C257.89 258.821 258.386 259.308 258.741 259.937C259.106 260.555 259.289 261.26 259.289 262.051C259.289 262.842 259.106 263.552 258.741 264.18C258.386 264.799 257.89 265.286 257.251 265.64C256.622 265.995 255.907 266.173 255.106 266.173ZM255.106 264.895C255.623 264.895 256.085 264.779 256.49 264.545C256.906 264.302 257.23 263.967 257.464 263.542C257.697 263.106 257.813 262.609 257.813 262.051C257.813 261.493 257.697 261.002 257.464 260.576C257.23 260.14 256.906 259.805 256.49 259.572C256.085 259.339 255.623 259.222 255.106 259.222C254.589 259.222 254.123 259.339 253.707 259.572C253.301 259.805 252.977 260.14 252.733 260.576C252.5 261.002 252.384 261.493 252.384 262.051C252.384 262.609 252.5 263.106 252.733 263.542C252.977 263.967 253.301 264.302 253.707 264.545C254.123 264.779 254.589 264.895 255.106 264.895ZM268.461 262.675H266.894V266.082H265.434V262.675H263.868L261.647 266.082H259.913L262.681 261.914L260.126 258.02H261.677L263.852 261.427H265.434V258.02H266.894V261.427H268.476L270.651 258.02H272.218L269.662 261.929L272.431 266.082H270.697L268.461 262.675ZM281.055 262.097C281.055 262.208 281.045 262.355 281.025 262.538H274.485C274.576 263.247 274.885 263.82 275.413 264.256C275.95 264.682 276.614 264.895 277.405 264.895C278.368 264.895 279.144 264.571 279.732 263.922L280.538 264.865C280.173 265.291 279.717 265.615 279.169 265.838C278.632 266.061 278.029 266.173 277.359 266.173C276.508 266.173 275.752 266 275.093 265.656C274.434 265.301 273.922 264.809 273.557 264.18C273.202 263.552 273.025 262.842 273.025 262.051C273.025 261.27 273.197 260.566 273.542 259.937C273.897 259.308 274.378 258.821 274.987 258.477C275.605 258.122 276.3 257.944 277.07 257.944C277.841 257.944 278.525 258.122 279.124 258.477C279.732 258.821 280.204 259.308 280.538 259.937C280.883 260.566 281.055 261.285 281.055 262.097ZM277.07 259.176C276.371 259.176 275.783 259.389 275.306 259.815C274.84 260.241 274.566 260.799 274.485 261.488H279.656C279.575 260.809 279.296 260.256 278.819 259.83C278.353 259.394 277.77 259.176 277.07 259.176ZM283.32 258.02H284.781V261.443H289.374V258.02H290.834V266.082H289.374V262.705H284.781V266.082H283.32V258.02ZM293.673 258.02H295.133V263.891L300.076 258.02H301.4V266.082H299.939V260.211L295.012 266.082H293.673V258.02ZM311.519 262.097C311.519 262.208 311.509 262.355 311.489 262.538H304.949C305.04 263.247 305.349 263.82 305.876 264.256C306.414 264.682 307.078 264.895 307.869 264.895C308.832 264.895 309.608 264.571 310.196 263.922L311.002 264.865C310.637 265.291 310.181 265.615 309.633 265.838C309.096 266.061 308.492 266.173 307.823 266.173C306.971 266.173 306.216 266 305.557 265.656C304.898 265.301 304.386 264.809 304.021 264.18C303.666 263.552 303.488 262.842 303.488 262.051C303.488 261.27 303.661 260.566 304.006 259.937C304.36 259.308 304.842 258.821 305.45 258.477C306.069 258.122 306.764 257.944 307.534 257.944C308.305 257.944 308.989 258.122 309.587 258.477C310.196 258.821 310.667 259.308 311.002 259.937C311.347 260.566 311.519 261.285 311.519 262.097ZM307.534 259.176C306.834 259.176 306.246 259.389 305.77 259.815C305.303 260.241 305.03 260.799 304.949 261.488H310.12C310.039 260.809 309.76 260.256 309.283 259.83C308.817 259.394 308.234 259.176 307.534 259.176ZM323.359 261.899C324.404 262.163 324.926 262.817 324.926 263.861C324.926 264.571 324.657 265.118 324.12 265.504C323.593 265.889 322.802 266.082 321.747 266.082H317.869V258.02H321.61C322.564 258.02 323.309 258.203 323.846 258.568C324.384 258.923 324.652 259.43 324.652 260.089C324.652 260.515 324.536 260.885 324.302 261.199C324.079 261.503 323.765 261.737 323.359 261.899ZM319.299 261.488H321.489C322.046 261.488 322.467 261.387 322.751 261.184C323.045 260.981 323.192 260.687 323.192 260.302C323.192 259.531 322.624 259.146 321.489 259.146H319.299V261.488ZM321.641 264.956C322.249 264.956 322.705 264.86 323.01 264.667C323.314 264.474 323.466 264.175 323.466 263.77C323.466 263.354 323.324 263.045 323.04 262.842C322.766 262.639 322.33 262.538 321.732 262.538H319.299V264.956H321.641ZM335.403 258.294C336.153 258.294 336.822 258.462 337.41 258.796C337.998 259.131 338.455 259.597 338.779 260.195C339.114 260.784 339.281 261.458 339.281 262.218C339.281 262.999 339.104 263.694 338.749 264.302C338.404 264.9 337.912 265.367 337.273 265.701C336.645 266.036 335.925 266.203 335.114 266.203C333.745 266.203 332.685 265.737 331.935 264.804C331.195 263.861 330.825 262.538 330.825 260.834C330.825 259.181 331.164 257.889 331.844 256.956C332.523 256.013 333.562 255.389 334.962 255.085L338.642 254.264L338.855 255.602L335.463 256.332C334.409 256.565 333.623 256.961 333.106 257.519C332.589 258.076 332.295 258.877 332.224 259.922C332.569 259.405 333.015 259.004 333.562 258.72C334.11 258.436 334.723 258.294 335.403 258.294ZM335.144 264.986C335.661 264.986 336.117 264.87 336.513 264.637C336.919 264.403 337.233 264.084 337.456 263.678C337.679 263.263 337.791 262.791 337.791 262.264C337.791 261.463 337.547 260.819 337.06 260.332C336.574 259.846 335.935 259.602 335.144 259.602C334.353 259.602 333.709 259.846 333.212 260.332C332.726 260.819 332.482 261.463 332.482 262.264C332.482 262.791 332.594 263.263 332.817 263.678C333.05 264.084 333.37 264.403 333.775 264.637C334.181 264.87 334.637 264.986 335.144 264.986ZM348.338 258.02L344.429 266.888C344.084 267.709 343.679 268.287 343.212 268.622C342.756 268.956 342.203 269.123 341.554 269.123C341.159 269.123 340.774 269.058 340.398 268.926C340.033 268.804 339.729 268.622 339.486 268.378L340.109 267.283C340.525 267.679 341.007 267.876 341.554 267.876C341.909 267.876 342.203 267.78 342.436 267.587C342.68 267.405 342.898 267.085 343.091 266.629L343.349 266.066L339.79 258.02H341.311L344.125 264.469L346.908 258.02H348.338ZM357.6 264.804V267.952H356.231V266.082H349.493V267.952H348.109V264.804H348.535C349.052 264.774 349.407 264.408 349.6 263.709C349.792 263.009 349.924 262.021 349.995 260.743L350.117 258.02H356.368V264.804H357.6ZM351.334 260.849C351.293 261.863 351.207 262.705 351.075 263.374C350.953 264.033 350.725 264.51 350.391 264.804H354.908V259.298H351.41L351.334 260.849ZM366.696 258.02L362.787 266.888C362.443 267.709 362.037 268.287 361.571 268.622C361.114 268.956 360.562 269.123 359.913 269.123C359.517 269.123 359.132 269.058 358.757 268.926C358.392 268.804 358.088 268.622 357.844 268.378L358.468 267.283C358.884 267.679 359.365 267.876 359.913 267.876C360.268 267.876 360.562 267.78 360.795 267.587C361.038 267.405 361.256 267.085 361.449 266.629L361.708 266.066L358.148 258.02H359.669L362.483 264.469L365.267 258.02H366.696ZM379.674 258.02V266.082H368.191V258.02H369.651V264.804H373.21V258.02H374.671V264.804H378.214V258.02H379.674ZM380.876 264.804V267.8H379.507V266.082H378.153V264.804H380.876ZM389.795 262.097C389.795 262.208 389.785 262.355 389.765 262.538H383.224C383.316 263.247 383.625 263.82 384.152 264.256C384.69 264.682 385.354 264.895 386.145 264.895C387.108 264.895 387.884 264.571 388.472 263.922L389.278 264.865C388.913 265.291 388.457 265.615 387.909 265.838C387.372 266.061 386.768 266.173 386.099 266.173C385.247 266.173 384.492 266 383.833 265.656C383.174 265.301 382.662 264.809 382.297 264.18C381.942 263.552 381.764 262.842 381.764 262.051C381.764 261.27 381.937 260.566 382.281 259.937C382.636 259.308 383.118 258.821 383.726 258.477C384.345 258.122 385.039 257.944 385.81 257.944C386.581 257.944 387.265 258.122 387.863 258.477C388.472 258.821 388.943 259.308 389.278 259.937C389.623 260.566 389.795 261.285 389.795 262.097ZM385.81 259.176C385.11 259.176 384.522 259.389 384.046 259.815C383.579 260.241 383.306 260.799 383.224 261.488H388.396C388.315 260.809 388.036 260.256 387.559 259.83C387.093 259.394 386.51 259.176 385.81 259.176ZM399.346 262.097C399.346 262.208 399.335 262.355 399.315 262.538H392.775C392.866 263.247 393.176 263.82 393.703 264.256C394.24 264.682 394.904 264.895 395.695 264.895C396.659 264.895 397.434 264.571 398.022 263.922L398.828 264.865C398.463 265.291 398.007 265.615 397.46 265.838C396.922 266.061 396.319 266.173 395.65 266.173C394.798 266.173 394.043 266 393.383 265.656C392.724 265.301 392.212 264.809 391.847 264.18C391.492 263.552 391.315 262.842 391.315 262.051C391.315 261.27 391.487 260.566 391.832 259.937C392.187 259.308 392.669 258.821 393.277 258.477C393.895 258.122 394.59 257.944 395.361 257.944C396.131 257.944 396.816 258.122 397.414 258.477C398.022 258.821 398.494 259.308 398.828 259.937C399.173 260.566 399.346 261.285 399.346 262.097ZM395.361 259.176C394.661 259.176 394.073 259.389 393.596 259.815C393.13 260.241 392.856 260.799 392.775 261.488H397.946C397.865 260.809 397.586 260.256 397.11 259.83C396.643 259.394 396.06 259.176 395.361 259.176Z" fill="#929398"/>
<path d="M97.1201 169.764C96.1315 169.764 95.2371 169.548 94.4367 169.115C93.6458 168.672 93.0244 168.07 92.5725 167.307C92.1205 166.535 91.8946 165.669 91.8946 164.708C91.8946 163.748 92.1205 162.886 92.5725 162.124C93.0244 161.352 93.6505 160.749 94.4509 160.316C95.2512 159.873 96.1456 159.652 97.1343 159.652C97.9063 159.652 98.6125 159.784 99.2527 160.048C99.893 160.302 100.439 160.683 100.891 161.192L99.973 162.081C99.2292 161.3 98.3018 160.909 97.1908 160.909C96.4564 160.909 95.7926 161.074 95.1994 161.403C94.6062 161.733 94.1402 162.19 93.8012 162.773C93.4717 163.348 93.3069 163.993 93.3069 164.708C93.3069 165.424 93.4717 166.073 93.8012 166.657C94.1402 167.232 94.6062 167.684 95.1994 168.013C95.7926 168.343 96.4564 168.507 97.1908 168.507C98.2924 168.507 99.2198 168.112 99.973 167.321L100.891 168.211C100.439 168.719 99.8883 169.105 99.2386 169.369C98.5984 169.633 97.8922 169.764 97.1201 169.764ZM107.983 163.352H105.243V169.651H103.887V163.352H101.147V162.166H107.983V163.352ZM112.244 169.736C111.5 169.736 110.832 169.571 110.239 169.242C109.645 168.912 109.179 168.46 108.84 167.886C108.511 167.302 108.346 166.643 108.346 165.909C108.346 165.174 108.511 164.52 108.84 163.946C109.179 163.362 109.645 162.91 110.239 162.59C110.832 162.26 111.5 162.095 112.244 162.095C112.988 162.095 113.652 162.26 114.235 162.59C114.829 162.91 115.29 163.362 115.619 163.946C115.958 164.52 116.128 165.174 116.128 165.909C116.128 166.643 115.958 167.302 115.619 167.886C115.29 168.46 114.829 168.912 114.235 169.242C113.652 169.571 112.988 169.736 112.244 169.736ZM112.244 168.55C112.724 168.55 113.153 168.441 113.529 168.225C113.915 167.999 114.217 167.688 114.433 167.293C114.65 166.888 114.758 166.427 114.758 165.909C114.758 165.391 114.65 164.934 114.433 164.539C114.217 164.134 113.915 163.823 113.529 163.607C113.153 163.39 112.724 163.282 112.244 163.282C111.764 163.282 111.331 163.39 110.945 163.607C110.568 163.823 110.267 164.134 110.041 164.539C109.824 164.934 109.716 165.391 109.716 165.909C109.716 166.427 109.824 166.888 110.041 167.293C110.267 167.688 110.568 167.999 110.945 168.225C111.331 168.441 111.764 168.55 112.244 168.55ZM118.086 162.166H119.442V167.618L124.032 162.166H125.26V169.651H123.904V164.2L119.329 169.651H118.086V162.166ZM136.521 162.166V169.651H135.293V164.186L132.496 168.804H131.903L129.135 164.172V169.651H127.892V162.166H129.29L132.228 167.222L135.25 162.166H136.521ZM142.366 169.736C141.622 169.736 140.954 169.571 140.361 169.242C139.767 168.912 139.301 168.46 138.962 167.886C138.633 167.302 138.468 166.643 138.468 165.909C138.468 165.174 138.633 164.52 138.962 163.946C139.301 163.362 139.767 162.91 140.361 162.59C140.954 162.26 141.622 162.095 142.366 162.095C143.11 162.095 143.774 162.26 144.358 162.59C144.951 162.91 145.412 163.362 145.742 163.946C146.081 164.52 146.25 165.174 146.25 165.909C146.25 166.643 146.081 167.302 145.742 167.886C145.412 168.46 144.951 168.912 144.358 169.242C143.774 169.571 143.11 169.736 142.366 169.736ZM142.366 168.55C142.846 168.55 143.275 168.441 143.651 168.225C144.037 167.999 144.339 167.688 144.555 167.293C144.772 166.888 144.88 166.427 144.88 165.909C144.88 165.391 144.772 164.934 144.555 164.539C144.339 164.134 144.037 163.823 143.651 163.607C143.275 163.39 142.846 163.282 142.366 163.282C141.886 163.282 141.453 163.39 141.067 163.607C140.69 163.823 140.389 164.134 140.163 164.539C139.946 164.934 139.838 165.391 139.838 165.909C139.838 166.427 139.946 166.888 140.163 167.293C140.389 167.688 140.69 167.999 141.067 168.225C141.453 168.441 141.886 168.55 142.366 168.55ZM151.47 169.736C150.708 169.736 150.025 169.571 149.422 169.242C148.829 168.912 148.363 168.46 148.024 167.886C147.685 167.302 147.516 166.643 147.516 165.909C147.516 165.174 147.685 164.52 148.024 163.946C148.363 163.362 148.829 162.91 149.422 162.59C150.025 162.26 150.708 162.095 151.47 162.095C152.148 162.095 152.751 162.232 153.278 162.505C153.815 162.778 154.229 163.174 154.521 163.691L153.49 164.355C153.255 163.997 152.963 163.729 152.614 163.55C152.266 163.371 151.88 163.282 151.456 163.282C150.967 163.282 150.524 163.39 150.129 163.607C149.743 163.823 149.437 164.134 149.211 164.539C148.994 164.934 148.886 165.391 148.886 165.909C148.886 166.436 148.994 166.902 149.211 167.307C149.437 167.702 149.743 168.008 150.129 168.225C150.524 168.441 150.967 168.55 151.456 168.55C151.88 168.55 152.266 168.46 152.614 168.281C152.963 168.103 153.255 167.834 153.49 167.476L154.521 168.126C154.229 168.644 153.815 169.044 153.278 169.327C152.751 169.6 152.148 169.736 151.47 169.736ZM161.758 163.352H159.018V169.651H157.663V163.352H154.923V162.166H161.758V163.352ZM166.605 164.708C167.556 164.718 168.281 164.934 168.78 165.358C169.279 165.782 169.528 166.379 169.528 167.152C169.528 167.961 169.255 168.587 168.709 169.03C168.173 169.463 167.401 169.675 166.393 169.665L163.145 169.651V162.166H164.501V164.694L166.605 164.708ZM166.28 168.634C166.892 168.644 167.353 168.522 167.664 168.267C167.984 168.013 168.144 167.636 168.144 167.137C168.144 166.648 167.989 166.29 167.678 166.064C167.377 165.838 166.911 165.72 166.28 165.711L164.501 165.683V168.62L166.28 168.634Z" fill="#606371"/>
<path d="M236.759 168.423V169.651H229.655V168.691L233.68 164.807C234.17 164.336 234.5 163.931 234.669 163.593C234.839 163.244 234.923 162.896 234.923 162.547C234.923 162.03 234.74 161.629 234.373 161.347C234.015 161.055 233.497 160.909 232.819 160.909C231.727 160.909 230.884 161.267 230.291 161.982L229.331 161.149C229.717 160.678 230.22 160.311 230.842 160.048C231.473 159.784 232.174 159.652 232.946 159.652C233.982 159.652 234.806 159.902 235.418 160.401C236.03 160.89 236.336 161.559 236.336 162.406C236.336 162.933 236.223 163.432 235.997 163.903C235.771 164.374 235.342 164.911 234.711 165.513L231.689 168.423H236.759ZM246.26 167.222H244.381V169.651H243.011V167.222H237.517V166.234L242.573 159.765H244.099L239.254 166.008H243.054V163.861H244.381V166.008H246.26V167.222ZM253.716 162.166V169.651H252.36V166.629C251.55 167.006 250.745 167.194 249.945 167.194C249.013 167.194 248.292 166.977 247.784 166.544C247.276 166.111 247.021 165.461 247.021 164.595V162.166H248.377V164.511C248.377 165.028 248.537 165.419 248.857 165.683C249.187 165.946 249.644 166.078 250.227 166.078C250.886 166.078 251.597 165.913 252.36 165.584V162.166H253.716ZM256.645 169.736C256.381 169.736 256.155 169.647 255.967 169.468C255.778 169.279 255.684 169.044 255.684 168.762C255.684 168.489 255.778 168.263 255.967 168.084C256.155 167.895 256.381 167.801 256.645 167.801C256.908 167.801 257.129 167.891 257.308 168.07C257.487 168.248 257.577 168.479 257.577 168.762C257.577 169.044 257.483 169.279 257.294 169.468C257.115 169.647 256.899 169.736 256.645 169.736ZM264.852 165.075C264.164 165.075 263.609 164.826 263.185 164.327C262.762 163.828 262.55 163.178 262.55 162.378C262.55 161.578 262.762 160.928 263.185 160.429C263.609 159.93 264.164 159.68 264.852 159.68C265.539 159.68 266.09 159.93 266.504 160.429C266.928 160.919 267.14 161.568 267.14 162.378C267.14 163.188 266.928 163.842 266.504 164.341C266.09 164.831 265.539 165.075 264.852 165.075ZM270.812 159.765H271.899L265.148 169.651H264.061L270.812 159.765ZM264.852 164.27C265.285 164.27 265.624 164.106 265.869 163.776C266.113 163.437 266.236 162.971 266.236 162.378C266.236 161.785 266.113 161.323 265.869 160.994C265.624 160.655 265.285 160.485 264.852 160.485C264.428 160.485 264.089 160.655 263.835 160.994C263.59 161.333 263.468 161.794 263.468 162.378C263.468 162.962 263.59 163.423 263.835 163.762C264.089 164.101 264.428 164.27 264.852 164.27ZM271.108 169.736C270.421 169.736 269.866 169.491 269.442 169.002C269.028 168.503 268.82 167.848 268.82 167.039C268.82 166.229 269.028 165.579 269.442 165.09C269.866 164.591 270.421 164.341 271.108 164.341C271.796 164.341 272.351 164.591 272.775 165.09C273.199 165.589 273.41 166.238 273.41 167.039C273.41 167.839 273.199 168.489 272.775 168.988C272.351 169.487 271.796 169.736 271.108 169.736ZM271.108 168.931C271.532 168.931 271.866 168.762 272.111 168.423C272.365 168.084 272.492 167.622 272.492 167.039C272.492 166.455 272.365 165.993 272.111 165.655C271.866 165.316 271.532 165.146 271.108 165.146C270.675 165.146 270.336 165.316 270.092 165.655C269.847 165.984 269.724 166.445 269.724 167.039C269.724 167.632 269.847 168.098 270.092 168.437C270.336 168.766 270.675 168.931 271.108 168.931Z" fill="#606371"/>
<path d="M354.346 159.765V160.726L350.349 169.651H348.852L352.764 160.994H348.244V162.759H346.889V159.765H354.346ZM363.832 168.465V171.389H362.56V169.651H356.304V171.389H355.019V168.465H355.414C355.894 168.437 356.224 168.098 356.403 167.448C356.582 166.798 356.704 165.88 356.77 164.694L356.883 162.166H362.688V168.465H363.832ZM358.013 164.793C357.975 165.735 357.895 166.516 357.773 167.137C357.66 167.749 357.448 168.192 357.137 168.465H361.332V163.352H358.083L358.013 164.793ZM365.894 169.736C365.631 169.736 365.405 169.647 365.216 169.468C365.028 169.279 364.934 169.044 364.934 168.762C364.934 168.489 365.028 168.263 365.216 168.084C365.405 167.895 365.631 167.801 365.894 167.801C366.158 167.801 366.379 167.891 366.558 168.07C366.737 168.248 366.827 168.479 366.827 168.762C366.827 169.044 366.732 169.279 366.544 169.468C366.365 169.647 366.149 169.736 365.894 169.736ZM374.102 165.075C373.414 165.075 372.859 164.826 372.435 164.327C372.011 163.828 371.8 163.178 371.8 162.378C371.8 161.578 372.011 160.928 372.435 160.429C372.859 159.93 373.414 159.68 374.102 159.68C374.789 159.68 375.34 159.93 375.754 160.429C376.178 160.919 376.39 161.568 376.39 162.378C376.39 163.188 376.178 163.842 375.754 164.341C375.34 164.831 374.789 165.075 374.102 165.075ZM380.062 159.765H381.149L374.398 169.651H373.311L380.062 159.765ZM374.102 164.27C374.535 164.27 374.874 164.106 375.118 163.776C375.363 163.437 375.486 162.971 375.486 162.378C375.486 161.785 375.363 161.323 375.118 160.994C374.874 160.655 374.535 160.485 374.102 160.485C373.678 160.485 373.339 160.655 373.085 160.994C372.84 161.333 372.718 161.794 372.718 162.378C372.718 162.962 372.84 163.423 373.085 163.762C373.339 164.101 373.678 164.27 374.102 164.27ZM380.358 169.736C379.671 169.736 379.115 169.491 378.692 169.002C378.277 168.503 378.07 167.848 378.07 167.039C378.07 166.229 378.277 165.579 378.692 165.09C379.115 164.591 379.671 164.341 380.358 164.341C381.046 164.341 381.601 164.591 382.025 165.09C382.448 165.589 382.66 166.238 382.66 167.039C382.66 167.839 382.448 168.489 382.025 168.988C381.601 169.487 381.046 169.736 380.358 169.736ZM380.358 168.931C380.782 168.931 381.116 168.762 381.361 168.423C381.615 168.084 381.742 167.622 381.742 167.039C381.742 166.455 381.615 165.993 381.361 165.655C381.116 165.316 380.782 165.146 380.358 165.146C379.925 165.146 379.586 165.316 379.341 165.655C379.097 165.984 378.974 166.445 378.974 167.039C378.974 167.632 379.097 168.098 379.341 168.437C379.586 168.766 379.925 168.931 380.358 168.931Z" fill="#606371"/>
<path d="M95.471 189.06C97.2092 189.06 98.4839 189.391 99.2951 190.051C100.118 190.7 100.529 191.592 100.529 192.728C100.529 193.447 100.355 194.096 100.008 194.675C99.6717 195.243 99.1561 195.695 98.4608 196.031C97.7771 196.355 96.9311 196.517 95.9229 196.517C95.0654 196.517 94.2368 196.39 93.4373 196.135C92.6377 195.869 91.9771 195.504 91.4557 195.04L92.2552 193.667C92.6724 194.061 93.2055 194.379 93.8544 194.623C94.5034 194.855 95.1871 194.97 95.9056 194.97C96.821 194.97 97.5279 194.779 98.0262 194.397C98.5361 194.003 98.791 193.47 98.791 192.798C98.791 192.068 98.5129 191.517 97.9567 191.146C97.4004 190.764 96.4502 190.573 95.106 190.573H92.3422L92.9853 184.211H99.8514V185.723H94.4454L94.1152 189.06H95.471ZM109.415 189.999C110.111 190.266 110.644 190.648 111.015 191.146C111.385 191.645 111.571 192.241 111.571 192.937C111.571 193.667 111.374 194.304 110.98 194.849C110.586 195.382 110.024 195.793 109.294 196.083C108.564 196.373 107.706 196.517 106.721 196.517C105.748 196.517 104.896 196.373 104.166 196.083C103.448 195.793 102.891 195.382 102.497 194.849C102.103 194.304 101.906 193.667 101.906 192.937C101.906 192.241 102.086 191.645 102.445 191.146C102.816 190.648 103.349 190.266 104.044 189.999C103.488 189.733 103.065 189.379 102.775 188.939C102.486 188.498 102.341 187.977 102.341 187.374C102.341 186.702 102.52 186.117 102.88 185.619C103.251 185.12 103.766 184.738 104.427 184.471C105.087 184.205 105.852 184.072 106.721 184.072C107.602 184.072 108.373 184.205 109.033 184.471C109.705 184.738 110.221 185.12 110.58 185.619C110.951 186.117 111.136 186.702 111.136 187.374C111.136 187.965 110.986 188.487 110.684 188.939C110.395 189.379 109.972 189.733 109.415 189.999ZM106.721 185.48C105.898 185.48 105.249 185.659 104.774 186.019C104.299 186.366 104.062 186.841 104.062 187.444C104.062 188.046 104.293 188.522 104.757 188.869C105.232 189.217 105.887 189.391 106.721 189.391C107.567 189.391 108.228 189.217 108.703 188.869C109.19 188.522 109.433 188.046 109.433 187.444C109.433 186.841 109.184 186.366 108.685 186.019C108.199 185.659 107.544 185.48 106.721 185.48ZM106.721 195.11C107.683 195.11 108.442 194.913 108.998 194.519C109.555 194.113 109.833 193.568 109.833 192.885C109.833 192.212 109.555 191.685 108.998 191.303C108.442 190.909 107.683 190.712 106.721 190.712C105.759 190.712 105.006 190.909 104.461 191.303C103.917 191.685 103.645 192.212 103.645 192.885C103.645 193.568 103.917 194.113 104.461 194.519C105.006 194.913 105.759 195.11 106.721 195.11ZM120.602 189.999C121.297 190.266 121.83 190.648 122.201 191.146C122.572 191.645 122.757 192.241 122.757 192.937C122.757 193.667 122.56 194.304 122.166 194.849C121.772 195.382 121.21 195.793 120.48 196.083C119.75 196.373 118.893 196.517 117.908 196.517C116.934 196.517 116.083 196.373 115.353 196.083C114.634 195.793 114.078 195.382 113.684 194.849C113.29 194.304 113.093 193.667 113.093 192.937C113.093 192.241 113.272 191.645 113.632 191.146C114.002 190.648 114.536 190.266 115.231 189.999C114.675 189.733 114.252 189.379 113.962 188.939C113.672 188.498 113.527 187.977 113.527 187.374C113.527 186.702 113.707 186.117 114.066 185.619C114.437 185.12 114.953 184.738 115.613 184.471C116.274 184.205 117.039 184.072 117.908 184.072C118.788 184.072 119.559 184.205 120.22 184.471C120.892 184.738 121.407 185.12 121.767 185.619C122.137 186.117 122.323 186.702 122.323 187.374C122.323 187.965 122.172 188.487 121.871 188.939C121.581 189.379 121.158 189.733 120.602 189.999ZM117.908 185.48C117.085 185.48 116.436 185.659 115.961 186.019C115.486 186.366 115.248 186.841 115.248 187.444C115.248 188.046 115.48 188.522 115.944 188.869C116.419 189.217 117.073 189.391 117.908 189.391C118.754 189.391 119.414 189.217 119.889 188.869C120.376 188.522 120.619 188.046 120.619 187.444C120.619 186.841 120.37 186.366 119.872 186.019C119.385 185.659 118.73 185.48 117.908 185.48ZM117.908 195.11C118.87 195.11 119.629 194.913 120.185 194.519C120.741 194.113 121.019 193.568 121.019 192.885C121.019 192.212 120.741 191.685 120.185 191.303C119.629 190.909 118.87 190.712 117.908 190.712C116.946 190.712 116.193 190.909 115.648 191.303C115.103 191.685 114.831 192.212 114.831 192.885C114.831 193.568 115.103 194.113 115.648 194.519C116.193 194.913 116.946 195.11 117.908 195.11ZM129.598 188.991C130.398 188.991 131.111 189.142 131.736 189.443C132.374 189.744 132.872 190.179 133.231 190.747C133.591 191.303 133.77 191.946 133.77 192.676C133.77 193.441 133.579 194.113 133.197 194.692C132.826 195.272 132.31 195.724 131.649 196.048C131.001 196.361 130.27 196.517 129.459 196.517C127.825 196.517 126.562 195.99 125.67 194.936C124.789 193.881 124.349 192.386 124.349 190.451C124.349 189.095 124.586 187.942 125.062 186.992C125.548 186.03 126.22 185.306 127.078 184.819C127.947 184.321 128.955 184.072 130.102 184.072C130.693 184.072 131.25 184.135 131.771 184.263C132.293 184.379 132.745 184.553 133.127 184.784L132.466 186.14C131.887 185.758 131.111 185.567 130.137 185.567C128.874 185.567 127.883 185.961 127.165 186.749C126.446 187.525 126.087 188.661 126.087 190.156C126.087 190.341 126.093 190.486 126.104 190.59C126.452 190.069 126.927 189.675 127.53 189.408C128.144 189.13 128.834 188.991 129.598 188.991ZM129.39 195.11C130.189 195.11 130.838 194.895 131.337 194.466C131.835 194.038 132.084 193.464 132.084 192.745C132.084 192.027 131.829 191.459 131.319 191.042C130.821 190.613 130.149 190.399 129.303 190.399C128.758 190.399 128.271 190.503 127.843 190.712C127.426 190.92 127.095 191.204 126.852 191.563C126.62 191.923 126.504 192.323 126.504 192.763C126.504 193.192 126.614 193.586 126.835 193.945C127.066 194.293 127.397 194.576 127.825 194.797C128.266 195.005 128.787 195.11 129.39 195.11ZM138.849 184.211V196.378H137.128V185.723H134.382V184.211H138.849ZM142.658 196.483C142.333 196.483 142.055 196.373 141.823 196.152C141.592 195.921 141.476 195.631 141.476 195.283C141.476 194.947 141.592 194.669 141.823 194.449C142.055 194.217 142.333 194.101 142.658 194.101C142.982 194.101 143.255 194.211 143.475 194.432C143.695 194.652 143.805 194.936 143.805 195.283C143.805 195.631 143.689 195.921 143.457 196.152C143.237 196.373 142.971 196.483 142.658 196.483ZM149 184.211V196.378H147.279V185.723H144.533V184.211H149ZM155.434 184.211V196.378H153.713V185.723H150.966V184.211H155.434ZM172.011 193.058C172.011 193.974 171.663 194.75 170.968 195.388C170.284 196.025 169.287 196.396 167.978 196.5V198.464H166.866V196.5C166.02 196.454 165.214 196.297 164.449 196.031C163.696 195.753 163.094 195.405 162.642 194.988L163.285 193.632C163.702 194.014 164.229 194.333 164.867 194.588C165.504 194.831 166.17 194.976 166.866 195.023V190.99C166.054 190.793 165.376 190.578 164.832 190.347C164.299 190.115 163.847 189.773 163.476 189.321C163.117 188.869 162.937 188.278 162.937 187.548C162.937 186.633 163.267 185.856 163.928 185.219C164.6 184.582 165.579 184.211 166.866 184.106V182.125H167.978V184.089C168.639 184.112 169.276 184.217 169.89 184.402C170.516 184.587 171.055 184.837 171.507 185.149L170.933 186.54C169.994 185.949 169.009 185.625 167.978 185.567V189.617C168.824 189.825 169.519 190.045 170.064 190.277C170.609 190.497 171.066 190.833 171.437 191.285C171.82 191.726 172.011 192.317 172.011 193.058ZM164.641 187.479C164.641 187.977 164.832 188.365 165.214 188.643C165.597 188.921 166.147 189.153 166.866 189.339V185.584C166.124 185.677 165.568 185.897 165.197 186.244C164.826 186.581 164.641 186.992 164.641 187.479ZM167.978 195.005C168.754 194.936 169.334 194.739 169.716 194.414C170.11 194.078 170.307 193.661 170.307 193.163C170.307 192.653 170.104 192.265 169.699 191.998C169.305 191.72 168.731 191.477 167.978 191.268V195.005Z" fill="#373943"/>
<path d="M234.118 234.831H232.056V239.181H230.672V229.295H232.056V233.588H234.147L237.254 229.295H238.765L235.234 234.083L238.934 239.181H237.324L234.118 234.831ZM243.265 239.266C242.522 239.266 241.853 239.101 241.26 238.772C240.667 238.442 240.201 237.99 239.862 237.416C239.532 236.832 239.367 236.173 239.367 235.439C239.367 234.704 239.532 234.05 239.862 233.475C240.201 232.892 240.667 232.44 241.26 232.12C241.853 231.79 242.522 231.625 243.265 231.625C244.009 231.625 244.673 231.79 245.257 232.12C245.85 232.44 246.311 232.892 246.641 233.475C246.98 234.05 247.149 234.704 247.149 235.439C247.149 236.173 246.98 236.832 246.641 237.416C246.311 237.99 245.85 238.442 245.257 238.772C244.673 239.101 244.009 239.266 243.265 239.266ZM243.265 238.08C243.746 238.08 244.174 237.971 244.551 237.755C244.937 237.529 245.238 237.218 245.454 236.823C245.671 236.418 245.779 235.956 245.779 235.439C245.779 234.921 245.671 234.464 245.454 234.069C245.238 233.664 244.937 233.353 244.551 233.136C244.174 232.92 243.746 232.812 243.265 232.812C242.785 232.812 242.352 232.92 241.966 233.136C241.589 233.353 241.288 233.664 241.062 234.069C240.846 234.464 240.737 234.921 240.737 235.439C240.737 235.956 240.846 236.418 241.062 236.823C241.288 237.218 241.589 237.529 241.966 237.755C242.352 237.971 242.785 238.08 243.265 238.08ZM257.736 231.696V239.181H256.508V233.715L253.711 238.334H253.118L250.35 233.701V239.181H249.107V231.696H250.505L253.443 236.752L256.465 231.696H257.736ZM269.005 231.696V239.181H267.776V233.715L264.979 238.334H264.386L261.618 233.701V239.181H260.375V231.696H261.774L264.711 236.752L267.734 231.696H269.005ZM278.409 235.481C278.409 235.584 278.399 235.721 278.38 235.89H272.307C272.392 236.55 272.679 237.082 273.169 237.486C273.668 237.882 274.285 238.08 275.019 238.08C275.913 238.08 276.634 237.778 277.18 237.176L277.928 238.051C277.589 238.447 277.166 238.748 276.657 238.955C276.158 239.162 275.598 239.266 274.977 239.266C274.186 239.266 273.484 239.106 272.872 238.786C272.26 238.456 271.785 238 271.446 237.416C271.116 236.832 270.951 236.173 270.951 235.439C270.951 234.714 271.112 234.059 271.432 233.475C271.761 232.892 272.208 232.44 272.773 232.12C273.348 231.79 273.993 231.625 274.708 231.625C275.424 231.625 276.059 231.79 276.615 232.12C277.18 232.44 277.618 232.892 277.928 233.475C278.248 234.059 278.409 234.728 278.409 235.481ZM274.708 232.769C274.059 232.769 273.513 232.967 273.07 233.362C272.637 233.758 272.383 234.276 272.307 234.916H277.109C277.034 234.285 276.775 233.772 276.332 233.377C275.899 232.972 275.358 232.769 274.708 232.769ZM280.512 231.696H281.868V234.874H286.133V231.696H287.489V239.181H286.133V236.046H281.868V239.181H280.512V231.696ZM295.704 232.882H292.964V239.181H291.608V232.882H288.868V231.696H295.704V232.882ZM299.759 231.625C300.795 231.625 301.586 231.879 302.132 232.388C302.688 232.896 302.965 233.654 302.965 234.662V239.181H301.68V238.193C301.454 238.541 301.129 238.809 300.706 238.998C300.291 239.176 299.797 239.266 299.223 239.266C298.385 239.266 297.712 239.063 297.203 238.659C296.704 238.254 296.455 237.722 296.455 237.063C296.455 236.404 296.695 235.876 297.175 235.481C297.655 235.076 298.418 234.874 299.463 234.874H301.61V234.605C301.61 234.021 301.44 233.574 301.101 233.264C300.762 232.953 300.263 232.797 299.604 232.797C299.162 232.797 298.728 232.873 298.305 233.023C297.881 233.165 297.523 233.358 297.231 233.602L296.666 232.586C297.052 232.275 297.514 232.04 298.05 231.879C298.587 231.71 299.157 231.625 299.759 231.625ZM299.449 238.221C299.967 238.221 300.414 238.108 300.79 237.882C301.167 237.646 301.44 237.317 301.61 236.893V235.848H299.519C298.371 235.848 297.796 236.234 297.796 237.006C297.796 237.383 297.942 237.679 298.234 237.896C298.526 238.112 298.931 238.221 299.449 238.221ZM309.375 231.625C310.1 231.625 310.75 231.785 311.324 232.105C311.899 232.426 312.346 232.873 312.666 233.447C312.996 234.021 313.16 234.685 313.16 235.439C313.16 236.192 312.996 236.86 312.666 237.444C312.346 238.018 311.899 238.466 311.324 238.786C310.75 239.106 310.1 239.266 309.375 239.266C308.839 239.266 308.344 239.162 307.892 238.955C307.45 238.748 307.073 238.447 306.763 238.051V241.921H305.407V231.696H306.706V232.882C307.007 232.468 307.389 232.157 307.85 231.95C308.311 231.734 308.82 231.625 309.375 231.625ZM309.262 238.08C309.743 238.08 310.171 237.971 310.548 237.755C310.934 237.529 311.235 237.218 311.452 236.823C311.678 236.418 311.79 235.956 311.79 235.439C311.79 234.921 311.678 234.464 311.452 234.069C311.235 233.664 310.934 233.353 310.548 233.136C310.171 232.92 309.743 232.812 309.262 232.812C308.792 232.812 308.363 232.925 307.977 233.151C307.601 233.367 307.299 233.673 307.073 234.069C306.857 234.464 306.749 234.921 306.749 235.439C306.749 235.956 306.857 236.418 307.073 236.823C307.29 237.218 307.591 237.529 307.977 237.755C308.363 237.971 308.792 238.08 309.262 238.08ZM315.13 231.696H316.486V237.147L321.076 231.696H322.305V239.181H320.949V233.73L316.373 239.181H315.13V231.696ZM324.937 231.696H326.292V237.147L330.882 231.696H332.111V239.181H330.755V233.73L326.179 239.181H324.937V231.696ZM328.439 230.721C327.742 230.721 327.201 230.557 326.815 230.227C326.429 229.888 326.231 229.403 326.222 228.772H327.14C327.149 229.121 327.267 229.403 327.493 229.62C327.728 229.827 328.039 229.93 328.425 229.93C328.811 229.93 329.122 229.827 329.357 229.62C329.592 229.403 329.715 229.121 329.724 228.772H330.671C330.661 229.403 330.459 229.888 330.063 230.227C329.668 230.557 329.126 230.721 328.439 230.721Z" fill="#606371"/>
<path d="M99.9471 234.054C100.616 234.214 101.119 234.502 101.458 234.916C101.807 235.321 101.981 235.843 101.981 236.484C101.981 237.34 101.665 238.004 101.035 238.475C100.413 238.946 99.5046 239.181 98.3089 239.181H93.7894V229.295H98.0405C99.1233 229.295 99.966 229.516 100.569 229.959C101.181 230.392 101.487 231.018 101.487 231.837C101.487 232.374 101.35 232.83 101.077 233.207C100.813 233.584 100.437 233.866 99.9471 234.054ZM95.1876 233.645H97.9416C98.629 233.645 99.1515 233.508 99.5093 233.235C99.8765 232.962 100.06 232.562 100.06 232.035C100.06 231.508 99.8765 231.107 99.5093 230.834C99.1421 230.552 98.6196 230.411 97.9416 230.411H95.1876V233.645ZM98.2806 238.065C99.7965 238.065 100.554 237.5 100.554 236.371C100.554 235.806 100.361 235.391 99.9754 235.128C99.5988 234.855 99.0338 234.718 98.2806 234.718H95.1876V238.065H98.2806ZM107.32 239.266C106.577 239.266 105.908 239.101 105.315 238.772C104.722 238.442 104.256 237.99 103.917 237.416C103.587 236.832 103.422 236.173 103.422 235.439C103.422 234.704 103.587 234.05 103.917 233.475C104.256 232.892 104.722 232.44 105.315 232.12C105.908 231.79 106.577 231.625 107.32 231.625C108.064 231.625 108.728 231.79 109.312 232.12C109.905 232.44 110.366 232.892 110.696 233.475C111.035 234.05 111.204 234.704 111.204 235.439C111.204 236.173 111.035 236.832 110.696 237.416C110.366 237.99 109.905 238.442 109.312 238.772C108.728 239.101 108.064 239.266 107.32 239.266ZM107.32 238.08C107.801 238.08 108.229 237.971 108.606 237.755C108.992 237.529 109.293 237.218 109.51 236.823C109.726 236.418 109.834 235.956 109.834 235.439C109.834 234.921 109.726 234.464 109.51 234.069C109.293 233.664 108.992 233.353 108.606 233.136C108.229 232.92 107.801 232.812 107.32 232.812C106.84 232.812 106.407 232.92 106.021 233.136C105.644 233.353 105.343 233.664 105.117 234.069C104.901 234.464 104.792 234.921 104.792 235.439C104.792 235.956 104.901 236.418 105.117 236.823C105.343 237.218 105.644 237.529 106.021 237.755C106.407 237.971 106.84 238.08 107.32 238.08ZM122.053 235.297C123.023 235.542 123.508 236.149 123.508 237.119C123.508 237.778 123.259 238.287 122.76 238.644C122.27 239.002 121.536 239.181 120.556 239.181H116.955V231.696H120.429C121.314 231.696 122.006 231.865 122.505 232.204C123.004 232.534 123.254 233.005 123.254 233.617C123.254 234.012 123.146 234.356 122.929 234.648C122.722 234.93 122.43 235.147 122.053 235.297ZM118.283 234.916H120.316C120.834 234.916 121.225 234.822 121.489 234.633C121.762 234.445 121.898 234.172 121.898 233.814C121.898 233.099 121.371 232.741 120.316 232.741H118.283V234.916ZM120.458 238.136C121.022 238.136 121.446 238.047 121.729 237.868C122.011 237.689 122.152 237.411 122.152 237.034C122.152 236.648 122.021 236.361 121.757 236.173C121.503 235.985 121.098 235.89 120.542 235.89H118.283V238.136H120.458ZM132.056 231.696V239.181H130.701V232.882H127.48L127.396 234.549C127.349 235.556 127.259 236.399 127.127 237.077C126.996 237.745 126.779 238.282 126.478 238.687C126.176 239.092 125.757 239.294 125.221 239.294C124.976 239.294 124.698 239.252 124.387 239.167L124.472 238.023C124.595 238.051 124.708 238.065 124.811 238.065C125.188 238.065 125.47 237.901 125.659 237.571C125.847 237.242 125.969 236.851 126.026 236.399C126.082 235.947 126.134 235.302 126.181 234.464L126.308 231.696H132.056ZM137.347 231.625C138.383 231.625 139.174 231.879 139.72 232.388C140.275 232.896 140.553 233.654 140.553 234.662V239.181H139.268V238.193C139.042 238.541 138.717 238.809 138.294 238.998C137.879 239.176 137.385 239.266 136.811 239.266C135.973 239.266 135.299 239.063 134.791 238.659C134.292 238.254 134.042 237.722 134.042 237.063C134.042 236.404 134.283 235.876 134.763 235.481C135.243 235.076 136.006 234.874 137.051 234.874H139.197V234.605C139.197 234.021 139.028 233.574 138.689 233.264C138.35 232.953 137.851 232.797 137.192 232.797C136.749 232.797 136.316 232.873 135.893 233.023C135.469 233.165 135.111 233.358 134.819 233.602L134.254 232.586C134.64 232.275 135.102 232.04 135.638 231.879C136.175 231.71 136.745 231.625 137.347 231.625ZM137.037 238.221C137.554 238.221 138.002 238.108 138.378 237.882C138.755 237.646 139.028 237.317 139.197 236.893V235.848H137.107C135.958 235.848 135.384 236.234 135.384 237.006C135.384 237.383 135.53 237.679 135.822 237.896C136.114 238.112 136.519 238.221 137.037 238.221ZM150.607 237.995V240.918H149.336V239.181H143.079V240.918H141.794V237.995H142.19C142.67 237.967 142.999 237.628 143.178 236.978C143.357 236.328 143.48 235.41 143.545 234.224L143.658 231.696H149.463V237.995H150.607ZM144.788 234.323C144.751 235.264 144.671 236.046 144.548 236.667C144.435 237.279 144.223 237.722 143.913 237.995H148.107V232.882H144.859L144.788 234.323ZM159.138 235.481C159.138 235.584 159.129 235.721 159.11 235.89H153.037C153.122 236.55 153.409 237.082 153.899 237.486C154.398 237.882 155.014 238.08 155.749 238.08C156.643 238.08 157.364 237.778 157.91 237.176L158.658 238.051C158.319 238.447 157.896 238.748 157.387 238.955C156.888 239.162 156.328 239.266 155.706 239.266C154.916 239.266 154.214 239.106 153.602 238.786C152.99 238.456 152.515 238 152.176 237.416C151.846 236.832 151.681 236.173 151.681 235.439C151.681 234.714 151.841 234.059 152.161 233.475C152.491 232.892 152.938 232.44 153.503 232.12C154.078 231.79 154.722 231.625 155.438 231.625C156.154 231.625 156.789 231.79 157.345 232.12C157.91 232.44 158.347 232.892 158.658 233.475C158.978 234.059 159.138 234.728 159.138 235.481ZM155.438 232.769C154.788 232.769 154.242 232.967 153.8 233.362C153.367 233.758 153.112 234.276 153.037 234.916H157.839C157.764 234.285 157.505 233.772 157.062 233.377C156.629 232.972 156.088 232.769 155.438 232.769ZM161.242 231.696H162.598V234.874H166.863V231.696H168.219V239.181H166.863V236.046H162.598V239.181H161.242V231.696ZM170.855 231.696H172.211V237.147L176.801 231.696H178.029V239.181H176.674V233.73L172.098 239.181H170.855V231.696ZM180.661 231.696H182.017V237.147L186.607 231.696H187.836V239.181H186.48V233.73L181.904 239.181H180.661V231.696Z" fill="#606371"/>
<path d="M230.124 190.886H234.799V192.328H230.124V190.886ZM240.088 184.211V196.378H238.367V185.723H235.621V184.211H240.088ZM243.897 196.483C243.572 196.483 243.294 196.373 243.062 196.152C242.83 195.921 242.715 195.631 242.715 195.283C242.715 194.947 242.83 194.669 243.062 194.449C243.294 194.217 243.572 194.101 243.897 194.101C244.221 194.101 244.493 194.211 244.714 194.432C244.934 194.652 245.044 194.936 245.044 195.283C245.044 195.631 244.928 195.921 244.696 196.152C244.476 196.373 244.209 196.483 243.897 196.483ZM250.164 189.06C251.902 189.06 253.177 189.391 253.988 190.051C254.811 190.7 255.222 191.592 255.222 192.728C255.222 193.447 255.048 194.096 254.701 194.675C254.365 195.243 253.849 195.695 253.154 196.031C252.47 196.355 251.624 196.517 250.616 196.517C249.758 196.517 248.93 196.39 248.13 196.135C247.331 195.869 246.67 195.504 246.149 195.04L246.948 193.667C247.365 194.061 247.899 194.379 248.547 194.623C249.196 194.855 249.88 194.97 250.599 194.97C251.514 194.97 252.221 194.779 252.719 194.397C253.229 194.003 253.484 193.47 253.484 192.798C253.484 192.068 253.206 191.517 252.65 191.146C252.093 190.764 251.143 190.573 249.799 190.573H247.035L247.678 184.211H254.544V185.723H249.138L248.808 189.06H250.164ZM261.918 188.991C262.718 188.991 263.431 189.142 264.056 189.443C264.694 189.744 265.192 190.179 265.551 190.747C265.91 191.303 266.09 191.946 266.09 192.676C266.09 193.441 265.899 194.113 265.516 194.692C265.146 195.272 264.63 195.724 263.969 196.048C263.321 196.361 262.59 196.517 261.779 196.517C260.145 196.517 258.882 195.99 257.99 194.936C257.109 193.881 256.669 192.386 256.669 190.451C256.669 189.095 256.906 187.942 257.382 186.992C257.868 186.03 258.54 185.306 259.398 184.819C260.267 184.321 261.275 184.072 262.422 184.072C263.013 184.072 263.57 184.135 264.091 184.263C264.613 184.379 265.065 184.553 265.447 184.784L264.786 186.14C264.207 185.758 263.431 185.567 262.457 185.567C261.194 185.567 260.203 185.961 259.485 186.749C258.766 187.525 258.407 188.661 258.407 190.156C258.407 190.341 258.413 190.486 258.424 190.59C258.772 190.069 259.247 189.675 259.85 189.408C260.464 189.13 261.154 188.991 261.918 188.991ZM261.71 195.11C262.509 195.11 263.158 194.895 263.657 194.466C264.155 194.038 264.404 193.464 264.404 192.745C264.404 192.027 264.149 191.459 263.639 191.042C263.141 190.613 262.469 190.399 261.623 190.399C261.078 190.399 260.591 190.503 260.163 190.712C259.746 190.92 259.415 191.204 259.172 191.563C258.94 191.923 258.824 192.323 258.824 192.763C258.824 193.192 258.934 193.586 259.155 193.945C259.386 194.293 259.717 194.576 260.145 194.797C260.586 195.005 261.107 195.11 261.71 195.11ZM269.7 190.747C268.854 190.747 268.17 190.439 267.649 189.825C267.127 189.211 266.866 188.411 266.866 187.426C266.866 186.441 267.127 185.642 267.649 185.028C268.17 184.414 268.854 184.106 269.7 184.106C270.546 184.106 271.224 184.414 271.733 185.028C272.255 185.63 272.516 186.43 272.516 187.426C272.516 188.423 272.255 189.228 271.733 189.843C271.224 190.445 270.546 190.747 269.7 190.747ZM277.035 184.211H278.373L270.065 196.378H268.726L277.035 184.211ZM269.7 189.756C270.233 189.756 270.65 189.553 270.951 189.147C271.252 188.73 271.403 188.157 271.403 187.426C271.403 186.696 271.252 186.129 270.951 185.723C270.65 185.306 270.233 185.097 269.7 185.097C269.178 185.097 268.761 185.306 268.448 185.723C268.147 186.14 267.996 186.708 267.996 187.426C267.996 188.145 268.147 188.713 268.448 189.13C268.761 189.547 269.178 189.756 269.7 189.756ZM277.4 196.483C276.554 196.483 275.87 196.181 275.349 195.579C274.839 194.965 274.584 194.159 274.584 193.163C274.584 192.166 274.839 191.366 275.349 190.764C275.87 190.15 276.554 189.843 277.4 189.843C278.246 189.843 278.93 190.15 279.451 190.764C279.973 191.378 280.233 192.178 280.233 193.163C280.233 194.148 279.973 194.947 279.451 195.561C278.93 196.176 278.246 196.483 277.4 196.483ZM277.4 195.492C277.922 195.492 278.333 195.283 278.634 194.866C278.947 194.449 279.104 193.881 279.104 193.163C279.104 192.444 278.947 191.876 278.634 191.459C278.333 191.042 277.922 190.833 277.4 190.833C276.867 190.833 276.45 191.042 276.149 191.459C275.847 191.865 275.697 192.433 275.697 193.163C275.697 193.893 275.847 194.466 276.149 194.884C276.45 195.289 276.867 195.492 277.4 195.492Z" fill="#DE4355"/>
<path d="M355.417 190.99H352.253V194.101H350.793V190.99H347.629V189.617H350.793V186.488H352.253V189.617H355.417V190.99ZM360.883 184.211V196.378H359.162V185.723H356.415V184.211H360.883ZM368.794 188.991C369.593 188.991 370.306 189.142 370.932 189.443C371.569 189.744 372.067 190.179 372.427 190.747C372.786 191.303 372.966 191.946 372.966 192.676C372.966 193.441 372.774 194.113 372.392 194.692C372.021 195.272 371.505 195.724 370.845 196.048C370.196 196.361 369.466 196.517 368.655 196.517C367.021 196.517 365.758 195.99 364.865 194.936C363.985 193.881 363.544 192.386 363.544 190.451C363.544 189.095 363.782 187.942 364.257 186.992C364.744 186.03 365.416 185.306 366.273 184.819C367.142 184.321 368.151 184.072 369.298 184.072C369.889 184.072 370.445 184.135 370.967 184.263C371.488 184.379 371.94 184.553 372.322 184.784L371.662 186.14C371.082 185.758 370.306 185.567 369.333 185.567C368.069 185.567 367.079 185.961 366.36 186.749C365.642 187.525 365.283 188.661 365.283 190.156C365.283 190.341 365.288 190.486 365.3 190.59C365.648 190.069 366.123 189.675 366.725 189.408C367.339 189.13 368.029 188.991 368.794 188.991ZM368.585 195.11C369.385 195.11 370.034 194.895 370.532 194.466C371.03 194.038 371.279 193.464 371.279 192.745C371.279 192.027 371.024 191.459 370.515 191.042C370.016 190.613 369.344 190.399 368.498 190.399C367.954 190.399 367.467 190.503 367.038 190.712C366.621 190.92 366.291 191.204 366.047 191.563C365.816 191.923 365.7 192.323 365.7 192.763C365.7 193.192 365.81 193.586 366.03 193.945C366.262 194.293 366.592 194.576 367.021 194.797C367.461 195.005 367.983 195.11 368.585 195.11ZM375.589 196.483C375.265 196.483 374.987 196.373 374.755 196.152C374.523 195.921 374.407 195.631 374.407 195.283C374.407 194.947 374.523 194.669 374.755 194.449C374.987 194.217 375.265 194.101 375.589 194.101C375.914 194.101 376.186 194.211 376.406 194.432C376.627 194.652 376.737 194.936 376.737 195.283C376.737 195.631 376.621 195.921 376.389 196.152C376.169 196.373 375.902 196.483 375.589 196.483ZM383.426 188.991C384.226 188.991 384.938 189.142 385.564 189.443C386.202 189.744 386.7 190.179 387.059 190.747C387.418 191.303 387.598 191.946 387.598 192.676C387.598 193.441 387.407 194.113 387.024 194.692C386.654 195.272 386.138 195.724 385.477 196.048C384.828 196.361 384.098 196.517 383.287 196.517C381.653 196.517 380.39 195.99 379.498 194.936C378.617 193.881 378.177 192.386 378.177 190.451C378.177 189.095 378.414 187.942 378.889 186.992C379.376 186.03 380.048 185.306 380.906 184.819C381.775 184.321 382.783 184.072 383.93 184.072C384.521 184.072 385.078 184.135 385.599 184.263C386.12 184.379 386.572 184.553 386.955 184.784L386.294 186.14C385.715 185.758 384.938 185.567 383.965 185.567C382.702 185.567 381.711 185.961 380.993 186.749C380.274 187.525 379.915 188.661 379.915 190.156C379.915 190.341 379.921 190.486 379.932 190.59C380.28 190.069 380.755 189.675 381.358 189.408C381.972 189.13 382.661 188.991 383.426 188.991ZM383.218 195.11C384.017 195.11 384.666 194.895 385.164 194.466C385.663 194.038 385.912 193.464 385.912 192.745C385.912 192.027 385.657 191.459 385.147 191.042C384.649 190.613 383.977 190.399 383.131 190.399C382.586 190.399 382.099 190.503 381.671 190.712C381.253 190.92 380.923 191.204 380.68 191.563C380.448 191.923 380.332 192.323 380.332 192.763C380.332 193.192 380.442 193.586 380.662 193.945C380.894 194.293 381.224 194.576 381.653 194.797C382.094 195.005 382.615 195.11 383.218 195.11ZM393.563 189.321C394.757 189.437 395.667 189.808 396.292 190.434C396.918 191.048 397.231 191.836 397.231 192.798C397.231 193.493 397.057 194.125 396.71 194.692C396.362 195.249 395.84 195.695 395.145 196.031C394.461 196.355 393.621 196.517 392.625 196.517C391.756 196.517 390.921 196.39 390.122 196.135C389.322 195.869 388.667 195.504 388.157 195.04L388.957 193.667C389.374 194.061 389.907 194.379 390.556 194.623C391.205 194.855 391.895 194.97 392.625 194.97C393.529 194.97 394.23 194.779 394.728 194.397C395.238 194.014 395.493 193.487 395.493 192.815C395.493 192.143 395.244 191.621 394.745 191.251C394.247 190.88 393.494 190.694 392.486 190.694H391.512V189.478L394.572 185.723H388.714V184.211H396.744V185.393L393.563 189.321ZM401.325 190.747C400.479 190.747 399.795 190.439 399.274 189.825C398.752 189.211 398.491 188.411 398.491 187.426C398.491 186.441 398.752 185.642 399.274 185.028C399.795 184.414 400.479 184.106 401.325 184.106C402.171 184.106 402.849 184.414 403.358 185.028C403.88 185.63 404.141 186.43 404.141 187.426C404.141 188.423 403.88 189.228 403.358 189.843C402.849 190.445 402.171 190.747 401.325 190.747ZM408.66 184.211H409.998L401.69 196.378H400.351L408.66 184.211ZM401.325 189.756C401.858 189.756 402.275 189.553 402.576 189.147C402.877 188.73 403.028 188.157 403.028 187.426C403.028 186.696 402.877 186.129 402.576 185.723C402.275 185.306 401.858 185.097 401.325 185.097C400.803 185.097 400.386 185.306 400.073 185.723C399.772 186.14 399.621 186.708 399.621 187.426C399.621 188.145 399.772 188.713 400.073 189.13C400.386 189.547 400.803 189.756 401.325 189.756ZM409.025 196.483C408.179 196.483 407.495 196.181 406.974 195.579C406.464 194.965 406.209 194.159 406.209 193.163C406.209 192.166 406.464 191.366 406.974 190.764C407.495 190.15 408.179 189.843 409.025 189.843C409.871 189.843 410.555 190.15 411.076 190.764C411.598 191.378 411.858 192.178 411.858 193.163C411.858 194.148 411.598 194.947 411.076 195.561C410.555 196.176 409.871 196.483 409.025 196.483ZM409.025 195.492C409.547 195.492 409.958 195.283 410.259 194.866C410.572 194.449 410.729 193.881 410.729 193.163C410.729 192.444 410.572 191.876 410.259 191.459C409.958 191.042 409.547 190.833 409.025 190.833C408.492 190.833 408.075 191.042 407.774 191.459C407.472 191.865 407.322 192.433 407.322 193.163C407.322 193.893 407.472 194.466 407.774 194.884C408.075 195.289 408.492 195.492 409.025 195.492Z" fill="#199F27"/>
<path d="M103.861 263.144H101.706V265.908H99.5158V263.144H92.841V261.58L98.8379 253.741H101.254L95.6048 261.232H99.5854V258.781H101.706V261.232H103.861V263.144ZM109.823 258.764C110.947 258.903 111.804 259.286 112.395 259.911C112.986 260.537 113.282 261.319 113.282 262.258C113.282 262.965 113.102 263.608 112.743 264.187C112.384 264.767 111.839 265.23 111.109 265.578C110.39 265.914 109.51 266.082 108.467 266.082C107.598 266.082 106.758 265.96 105.946 265.717C105.147 265.462 104.463 265.114 103.895 264.674L104.869 262.918C105.309 263.289 105.842 263.585 106.468 263.805C107.105 264.014 107.76 264.118 108.432 264.118C109.232 264.118 109.857 263.956 110.309 263.631C110.773 263.295 111.005 262.843 111.005 262.275C111.005 261.707 110.784 261.267 110.344 260.954C109.915 260.63 109.255 260.468 108.363 260.468H107.25V258.92L110.014 255.635H104.486V253.741H112.778V255.253L109.823 258.764ZM123.768 253.741V255.253L119.04 265.908H116.624L121.195 255.653H116.415V257.721H114.312V253.741H123.768ZM130.354 258.399C131.153 258.399 131.872 258.555 132.509 258.868C133.146 259.17 133.645 259.604 134.004 260.172C134.363 260.74 134.543 261.395 134.543 262.136C134.543 262.924 134.346 263.62 133.952 264.222C133.558 264.813 133.025 265.271 132.353 265.595C131.68 265.92 130.927 266.082 130.093 266.082C128.424 266.082 127.126 265.561 126.199 264.518C125.284 263.475 124.826 261.98 124.826 260.033C124.826 258.666 125.075 257.501 125.573 256.539C126.072 255.566 126.767 254.83 127.659 254.332C128.563 253.822 129.606 253.567 130.788 253.567C131.414 253.567 131.999 253.636 132.544 253.775C133.1 253.903 133.581 254.094 133.986 254.349L133.152 256.052C132.55 255.658 131.779 255.461 130.84 255.461C129.67 255.461 128.754 255.821 128.094 256.539C127.433 257.258 127.103 258.295 127.103 259.651V259.668C127.462 259.251 127.92 258.938 128.476 258.729C129.033 258.509 129.658 258.399 130.354 258.399ZM129.971 264.309C130.678 264.309 131.252 264.124 131.692 263.753C132.132 263.37 132.353 262.866 132.353 262.241C132.353 261.603 132.132 261.099 131.692 260.728C131.252 260.357 130.661 260.172 129.919 260.172C129.189 260.172 128.592 260.369 128.129 260.763C127.677 261.157 127.451 261.655 127.451 262.258C127.451 262.849 127.671 263.341 128.111 263.735C128.563 264.118 129.183 264.309 129.971 264.309ZM137.249 266.03C136.855 266.03 136.519 265.897 136.241 265.63C135.963 265.352 135.824 265.004 135.824 264.587C135.824 264.158 135.957 263.811 136.224 263.544C136.502 263.278 136.844 263.144 137.249 263.144C137.655 263.144 137.991 263.278 138.258 263.544C138.536 263.811 138.675 264.158 138.675 264.587C138.675 265.004 138.536 265.352 138.258 265.63C137.98 265.897 137.643 266.03 137.249 266.03ZM149.12 263.996V265.908H140.151V264.396L144.983 259.807C145.528 259.286 145.893 258.834 146.078 258.451C146.275 258.057 146.374 257.669 146.374 257.287C146.374 256.719 146.182 256.284 145.8 255.983C145.418 255.682 144.856 255.531 144.114 255.531C142.874 255.531 141.924 255.954 141.263 256.8L139.681 255.583C140.157 254.946 140.794 254.453 141.593 254.106C142.405 253.746 143.309 253.567 144.305 253.567C145.626 253.567 146.681 253.88 147.469 254.505C148.257 255.131 148.651 255.983 148.651 257.061C148.651 257.721 148.512 258.341 148.234 258.92C147.955 259.5 147.422 260.16 146.634 260.902L143.384 263.996H149.12ZM161.016 263.144H158.861V265.908H156.671V263.144H149.996V261.58L155.993 253.741H158.409L152.76 261.232H156.74V258.781H158.861V261.232H161.016V263.144ZM176.332 262.466C176.332 263.405 175.984 264.205 175.289 264.865C174.605 265.514 173.608 265.908 172.299 266.047V267.994H170.873V266.065C170.016 266.007 169.205 265.85 168.44 265.595C167.675 265.34 167.067 265.016 166.615 264.622L167.397 262.866C167.826 263.214 168.347 263.509 168.961 263.753C169.576 263.985 170.213 264.129 170.873 264.187V260.711C170.051 260.514 169.361 260.299 168.805 260.068C168.26 259.824 167.803 259.477 167.432 259.025C167.061 258.561 166.875 257.953 166.875 257.2C166.875 256.261 167.217 255.461 167.901 254.801C168.585 254.14 169.576 253.746 170.873 253.619V251.655H172.299V253.584C172.948 253.619 173.579 253.729 174.193 253.914C174.819 254.1 175.364 254.343 175.827 254.644L175.115 256.4C174.234 255.89 173.295 255.577 172.299 255.461V258.973C173.133 259.17 173.823 259.384 174.367 259.616C174.924 259.848 175.387 260.195 175.758 260.659C176.14 261.111 176.332 261.713 176.332 262.466ZM169.118 257.095C169.118 257.478 169.268 257.785 169.57 258.017C169.871 258.248 170.306 258.445 170.873 258.608V255.514C170.282 255.606 169.842 255.792 169.552 256.07C169.263 256.348 169.118 256.69 169.118 257.095ZM172.299 264.153C172.913 264.06 173.365 263.88 173.655 263.614C173.956 263.347 174.107 263.017 174.107 262.623C174.107 262.229 173.95 261.916 173.637 261.684C173.324 261.441 172.878 261.238 172.299 261.076V264.153Z" fill="#24252E"/>
<circle cx="138.964" cy="95.8985" r="17.3824" fill="#F7931A"/>
<path d="M146.629 93.423C146.975 91.1101 145.214 89.8667 142.806 89.0372L143.587 85.904L141.68 85.4287L140.919 88.4793C140.418 88.3544 139.903 88.2365 139.391 88.1197L140.157 85.049L138.251 84.5737L137.47 87.7058C137.055 87.6113 136.647 87.5179 136.252 87.4196L136.254 87.4098L133.624 86.753L133.116 88.7901C133.116 88.7901 134.531 89.1143 134.502 89.1344C135.274 89.3273 135.414 89.8384 135.39 90.2437L134.5 93.813C134.554 93.8266 134.623 93.8462 134.699 93.8766C134.635 93.8608 134.567 93.8434 134.497 93.8266L133.25 98.8268C133.156 99.0614 132.916 99.4134 132.376 99.2798C132.395 99.3075 130.99 98.9338 130.99 98.9338L130.043 101.117L132.525 101.736C132.987 101.851 133.439 101.972 133.884 102.087L133.095 105.256L135 105.731L135.782 102.595C136.302 102.737 136.807 102.867 137.302 102.99L136.523 106.111L138.43 106.586L139.219 103.423C142.471 104.038 144.917 103.79 145.946 100.849C146.776 98.4802 145.905 97.114 144.194 96.2232C145.44 95.9358 146.379 95.1162 146.629 93.423V93.423ZM142.271 99.5335C141.682 101.902 137.694 100.621 136.402 100.3L137.449 96.1021C138.742 96.4247 142.887 97.0635 142.271 99.5335ZM142.861 93.3888C142.324 95.5431 139.005 94.4486 137.928 94.1802L138.878 90.3724C139.954 90.6407 143.421 91.1416 142.861 93.3888V93.3888Z" fill="white"/>
<path d="M179.395 95.553C180.102 95.75 180.658 96.1092 181.064 96.6307C181.469 97.1406 181.672 97.7895 181.672 98.5775C181.672 99.6321 181.272 100.443 180.473 101.011C179.685 101.579 178.532 101.863 177.014 101.863H171.208V89.6951H176.666C178.057 89.6951 179.129 89.9732 179.882 90.5295C180.647 91.0857 181.029 91.8563 181.029 92.8413C181.029 93.4787 180.878 94.0291 180.577 94.4927C180.287 94.9562 179.893 95.3096 179.395 95.553ZM172.946 91.1031V94.9967H176.51C177.402 94.9967 178.086 94.8345 178.561 94.51C179.047 94.174 179.291 93.6873 179.291 93.0499C179.291 92.4126 179.047 91.9316 178.561 91.6072C178.086 91.2711 177.402 91.1031 176.51 91.1031H172.946ZM176.944 100.455C177.929 100.455 178.671 100.293 179.169 99.9681C179.667 99.6436 179.917 99.1338 179.917 98.4385C179.917 97.0826 178.926 96.4047 176.944 96.4047H172.946V100.455H176.944ZM184.12 92.6501H185.789V101.863H184.12V92.6501ZM184.955 90.8771C184.63 90.8771 184.358 90.7728 184.138 90.5642C183.929 90.3556 183.825 90.1007 183.825 89.7994C183.825 89.4981 183.929 89.2432 184.138 89.0346C184.358 88.8144 184.63 88.7043 184.955 88.7043C185.279 88.7043 185.546 88.8086 185.754 89.0172C185.974 89.2142 186.084 89.4633 186.084 89.7646C186.084 90.0775 185.974 90.3441 185.754 90.5642C185.546 90.7728 185.279 90.8771 184.955 90.8771ZM194.155 101.324C193.912 101.533 193.61 101.695 193.251 101.811C192.892 101.915 192.521 101.967 192.139 101.967C191.212 101.967 190.493 101.718 189.983 101.22C189.473 100.721 189.218 100.009 189.218 99.0816V94.0233H187.654V92.6501H189.218V90.6338H190.887V92.6501H193.529V94.0233H190.887V99.0121C190.887 99.5104 191.009 99.8928 191.252 100.159C191.507 100.426 191.866 100.559 192.33 100.559C192.84 100.559 193.274 100.414 193.634 100.125L194.155 101.324ZM199.882 101.967C198.944 101.967 198.103 101.764 197.362 101.359C196.632 100.953 196.058 100.397 195.641 99.69C195.224 98.9715 195.015 98.1603 195.015 97.2565C195.015 96.3526 195.224 95.5472 195.641 94.8403C196.058 94.1218 196.632 93.5656 197.362 93.1716C198.103 92.766 198.944 92.5632 199.882 92.5632C200.717 92.5632 201.458 92.7312 202.107 93.0673C202.768 93.4034 203.278 93.8901 203.637 94.5274L202.368 95.3444C202.078 94.904 201.719 94.5738 201.29 94.3536C200.861 94.1334 200.386 94.0233 199.865 94.0233C199.262 94.0233 198.718 94.1566 198.231 94.4231C197.756 94.6897 197.379 95.0721 197.101 95.5704C196.835 96.0571 196.701 96.6191 196.701 97.2565C196.701 97.9054 196.835 98.479 197.101 98.9773C197.379 99.464 197.756 99.8406 198.231 100.107C198.718 100.374 199.262 100.507 199.865 100.507C200.386 100.507 200.861 100.397 201.29 100.177C201.719 99.9565 202.078 99.6263 202.368 99.1859L203.637 99.9855C203.278 100.623 202.768 101.115 202.107 101.463C201.458 101.799 200.717 101.967 199.882 101.967ZM209.607 101.967C208.692 101.967 207.869 101.764 207.139 101.359C206.409 100.953 205.835 100.397 205.418 99.69C205.013 98.9715 204.81 98.1603 204.81 97.2565C204.81 96.3526 205.013 95.5472 205.418 94.8403C205.835 94.1218 206.409 93.5656 207.139 93.1716C207.869 92.766 208.692 92.5632 209.607 92.5632C210.523 92.5632 211.34 92.766 212.058 93.1716C212.788 93.5656 213.356 94.1218 213.762 94.8403C214.179 95.5472 214.387 96.3526 214.387 97.2565C214.387 98.1603 214.179 98.9715 213.762 99.69C213.356 100.397 212.788 100.953 212.058 101.359C211.34 101.764 210.523 101.967 209.607 101.967ZM209.607 100.507C210.198 100.507 210.726 100.374 211.189 100.107C211.664 99.8291 212.035 99.4466 212.302 98.9599C212.568 98.4616 212.701 97.8938 212.701 97.2565C212.701 96.6191 212.568 96.0571 212.302 95.5704C212.035 95.0721 211.664 94.6897 211.189 94.4231C210.726 94.1566 210.198 94.0233 209.607 94.0233C209.016 94.0233 208.483 94.1566 208.008 94.4231C207.545 94.6897 207.174 95.0721 206.896 95.5704C206.629 96.0571 206.496 96.6191 206.496 97.2565C206.496 97.8938 206.629 98.4616 206.896 98.9599C207.174 99.4466 207.545 99.8291 208.008 100.107C208.483 100.374 209.016 100.507 209.607 100.507ZM216.695 92.6501H218.364V101.863H216.695V92.6501ZM217.53 90.8771C217.205 90.8771 216.933 90.7728 216.713 90.5642C216.504 90.3556 216.4 90.1007 216.4 89.7994C216.4 89.4981 216.504 89.2432 216.713 89.0346C216.933 88.8144 217.205 88.7043 217.53 88.7043C217.854 88.7043 218.121 88.8086 218.329 89.0172C218.549 89.2142 218.659 89.4633 218.659 89.7646C218.659 90.0775 218.549 90.3441 218.329 90.5642C218.121 90.7728 217.854 90.8771 217.53 90.8771ZM226.469 92.5632C227.64 92.5632 228.567 92.9051 229.251 93.5888C229.946 94.2609 230.293 95.2517 230.293 96.5612V101.863H228.625V96.7524C228.625 95.8601 228.41 95.188 227.982 94.736C227.553 94.2841 226.939 94.0581 226.139 94.0581C225.235 94.0581 224.522 94.3246 224.001 94.8577C223.48 95.3792 223.219 96.1324 223.219 97.1174V101.863H221.55V92.6501H223.149V94.0407C223.485 93.5656 223.937 93.2006 224.505 92.9456C225.085 92.6907 225.739 92.5632 226.469 92.5632Z" fill="#373943"/>
<path d="M246.48 95.553C247.187 95.75 247.743 96.1092 248.149 96.6307C248.555 97.1406 248.757 97.7895 248.757 98.5775C248.757 99.6321 248.358 100.443 247.558 101.011C246.77 101.579 245.617 101.863 244.099 101.863H238.293V89.6951H243.751C245.142 89.6951 246.214 89.9732 246.967 90.5295C247.732 91.0857 248.114 91.8563 248.114 92.8413C248.114 93.4787 247.964 94.0291 247.662 94.4927C247.373 94.9562 246.979 95.3096 246.48 95.553ZM240.031 91.1031V94.9967H243.595C244.487 94.9967 245.171 94.8345 245.646 94.51C246.133 94.174 246.376 93.6873 246.376 93.0499C246.376 92.4126 246.133 91.9316 245.646 91.6072C245.171 91.2711 244.487 91.1031 243.595 91.1031H240.031ZM244.029 100.455C245.014 100.455 245.756 100.293 246.254 99.9681C246.753 99.6436 247.002 99.1338 247.002 98.4385C247.002 97.0826 246.011 96.4047 244.029 96.4047H240.031V100.455H244.029ZM253.695 91.2074H249.523V89.6951H259.588V91.2074H255.416V101.863H253.695V91.2074ZM266.752 102.002C265.535 102.002 264.434 101.735 263.449 101.202C262.476 100.658 261.711 99.916 261.155 98.9773C260.599 98.0271 260.32 96.961 260.32 95.779C260.32 94.5969 260.599 93.5366 261.155 92.598C261.711 91.6477 262.482 90.9061 263.467 90.373C264.452 89.8284 265.553 89.5561 266.769 89.5561C267.72 89.5561 268.589 89.7183 269.377 90.0428C270.165 90.3556 270.837 90.825 271.393 91.4507L270.263 92.5458C269.348 91.584 268.206 91.1031 266.839 91.1031C265.935 91.1031 265.118 91.3059 264.388 91.7115C263.658 92.1171 263.084 92.6791 262.667 93.3976C262.261 94.1044 262.059 94.8982 262.059 95.779C262.059 96.6597 262.261 97.4593 262.667 98.1777C263.084 98.8846 263.658 99.4408 264.388 99.8464C265.118 100.252 265.935 100.455 266.839 100.455C268.195 100.455 269.336 99.9681 270.263 98.9947L271.393 100.09C270.837 100.716 270.159 101.191 269.359 101.515C268.571 101.84 267.702 102.002 266.752 102.002Z" fill="#929398"/>
<circle cx="138.964" cy="341.425" r="17.3824" fill="#111A44"/>
<path d="M138.934 330.018L133.595 337.364L131.359 348.224L138.934 352.832L146.508 348.224L144.227 337.319L138.934 330.018ZM132.591 347.722L134.28 339.463L138.112 351.099L132.591 347.722ZM134.827 337.592L138.934 331.934L143.04 337.592L138.934 350.003L134.827 337.592ZM139.709 351.099L143.542 339.463L145.231 347.722L139.709 351.099Z" fill="white"/>
<path d="M180.038 345.876V347.389H171.208V335.221H179.795V336.733H172.946V340.47H179.047V341.948H172.946V345.876H180.038ZM187.586 346.85C187.342 347.058 187.041 347.221 186.682 347.337C186.323 347.441 185.952 347.493 185.569 347.493C184.642 347.493 183.924 347.244 183.414 346.746C182.904 346.247 182.649 345.535 182.649 344.607V339.549H181.085V338.176H182.649V336.16H184.318V338.176H186.96V339.549H184.318V344.538C184.318 345.036 184.44 345.419 184.683 345.685C184.938 345.952 185.297 346.085 185.761 346.085C186.27 346.085 186.705 345.94 187.064 345.65L187.586 346.85ZM194.522 338.089C195.693 338.089 196.62 338.431 197.304 339.115C197.999 339.787 198.347 340.778 198.347 342.087V347.389H196.678V342.278C196.678 341.386 196.463 340.714 196.035 340.262C195.606 339.81 194.992 339.584 194.192 339.584C193.288 339.584 192.576 339.851 192.054 340.384C191.533 340.905 191.272 341.658 191.272 342.643V347.389H189.603V334.491H191.272V339.48C191.62 339.039 192.071 338.697 192.628 338.454C193.196 338.211 193.827 338.089 194.522 338.089ZM209.812 342.834C209.812 342.962 209.8 343.13 209.777 343.339H202.303C202.407 344.15 202.76 344.804 203.363 345.303C203.977 345.789 204.736 346.033 205.64 346.033C206.741 346.033 207.627 345.662 208.3 344.92L209.221 345.998C208.804 346.485 208.282 346.856 207.656 347.111C207.042 347.365 206.353 347.493 205.588 347.493C204.614 347.493 203.751 347.296 202.998 346.902C202.245 346.496 201.659 345.934 201.242 345.216C200.837 344.497 200.634 343.686 200.634 342.782C200.634 341.89 200.831 341.085 201.225 340.366C201.631 339.648 202.181 339.091 202.876 338.697C203.583 338.292 204.377 338.089 205.258 338.089C206.138 338.089 206.921 338.292 207.604 338.697C208.3 339.091 208.838 339.648 209.221 340.366C209.615 341.085 209.812 341.907 209.812 342.834ZM205.258 339.497C204.458 339.497 203.786 339.74 203.241 340.227C202.708 340.714 202.395 341.351 202.303 342.139H208.213C208.12 341.363 207.801 340.731 207.257 340.245C206.724 339.746 206.057 339.497 205.258 339.497ZM213.728 339.723C214.018 339.19 214.447 338.784 215.014 338.506C215.582 338.228 216.272 338.089 217.083 338.089V339.706C216.99 339.694 216.863 339.688 216.701 339.688C215.797 339.688 215.084 339.961 214.563 340.505C214.053 341.038 213.798 341.803 213.798 342.8V347.389H212.129V338.176H213.728V339.723ZM227.381 342.834C227.381 342.962 227.369 343.13 227.346 343.339H219.872C219.976 344.15 220.329 344.804 220.932 345.303C221.546 345.789 222.305 346.033 223.209 346.033C224.31 346.033 225.197 345.662 225.869 344.92L226.79 345.998C226.373 346.485 225.851 346.856 225.226 347.111C224.611 347.365 223.922 347.493 223.157 347.493C222.184 347.493 221.32 347.296 220.567 346.902C219.814 346.496 219.229 345.934 218.811 345.216C218.406 344.497 218.203 343.686 218.203 342.782C218.203 341.89 218.4 341.085 218.794 340.366C219.2 339.648 219.75 339.091 220.445 338.697C221.152 338.292 221.946 338.089 222.827 338.089C223.707 338.089 224.49 338.292 225.173 338.697C225.869 339.091 226.408 339.648 226.79 340.366C227.184 341.085 227.381 341.907 227.381 342.834ZM222.827 339.497C222.027 339.497 221.355 339.74 220.81 340.227C220.277 340.714 219.964 341.351 219.872 342.139H225.782C225.689 341.363 225.37 340.731 224.826 340.245C224.293 339.746 223.626 339.497 222.827 339.497ZM238.285 338.176V347.389H236.703V345.998C236.367 346.473 235.921 346.844 235.365 347.111C234.82 347.365 234.223 347.493 233.574 347.493C232.346 347.493 231.378 347.157 230.672 346.485C229.965 345.801 229.611 344.799 229.611 343.478V338.176H231.28V343.286C231.28 344.179 231.494 344.857 231.923 345.32C232.352 345.772 232.966 345.998 233.766 345.998C234.646 345.998 235.342 345.732 235.851 345.198C236.361 344.665 236.616 343.912 236.616 342.939V338.176H238.285ZM252.986 338.089C254.145 338.089 255.061 338.425 255.733 339.097C256.416 339.769 256.758 340.766 256.758 342.087V347.389H255.09V342.278C255.09 341.386 254.881 340.714 254.464 340.262C254.058 339.81 253.473 339.584 252.708 339.584C251.862 339.584 251.19 339.851 250.692 340.384C250.194 340.905 249.944 341.658 249.944 342.643V347.389H248.276V342.278C248.276 341.386 248.067 340.714 247.65 340.262C247.244 339.81 246.659 339.584 245.894 339.584C245.048 339.584 244.376 339.851 243.878 340.384C243.38 340.905 243.13 341.658 243.13 342.643V347.389H241.462V338.176H243.061V339.549C243.397 339.074 243.837 338.715 244.382 338.472C244.927 338.217 245.547 338.089 246.242 338.089C246.96 338.089 247.598 338.234 248.154 338.524C248.71 338.813 249.139 339.236 249.44 339.793C249.788 339.26 250.269 338.842 250.883 338.541C251.509 338.24 252.21 338.089 252.986 338.089Z" fill="#373943"/>
<path d="M273.57 345.876V347.389H264.74V335.221H273.327V336.733H266.478V340.47H272.58V341.948H266.478V345.876H273.57ZM278.801 336.733H274.629V335.221H284.694V336.733H280.522V347.389H278.801V336.733ZM297.051 335.221V347.389H295.313V341.965H288.325V347.389H286.587V335.221H288.325V340.453H295.313V335.221H297.051Z" fill="#929398"/>
<path d="M99.2247 99.9633C99.2945 100.05 99.3878 100.121 99.4967 100.17C99.6056 100.219 99.7268 100.245 99.8499 100.245C99.9729 100.245 100.094 100.219 100.203 100.17C100.312 100.121 100.405 100.05 100.475 99.9633L107.32 91.49C107.399 91.3922 107.446 91.2777 107.454 91.159C107.463 91.0402 107.433 90.9217 107.369 90.8163C107.304 90.7108 107.208 90.6226 107.089 90.5611C106.97 90.4995 106.834 90.4671 106.695 90.4673H93.005C92.8665 90.4678 92.7307 90.5006 92.6123 90.5623C92.4939 90.624 92.3974 90.7121 92.3331 90.8173C92.2688 90.9225 92.2392 91.0407 92.2474 91.1592C92.2557 91.2777 92.3014 91.3921 92.3798 91.49L99.2247 99.9633Z" fill="#8C9BEA"/>
<path d="M99.2247 344.756C99.2945 344.843 99.3878 344.914 99.4967 344.963C99.6056 345.012 99.7268 345.038 99.8499 345.038C99.9729 345.038 100.094 345.012 100.203 344.963C100.312 344.914 100.405 344.843 100.475 344.756L107.32 336.283C107.399 336.185 107.446 336.071 107.454 335.952C107.463 335.833 107.433 335.715 107.369 335.609C107.304 335.504 107.208 335.416 107.089 335.354C106.97 335.292 106.834 335.26 106.695 335.26H93.005C92.8665 335.261 92.7307 335.294 92.6123 335.355C92.4939 335.417 92.3974 335.505 92.3331 335.61C92.2688 335.715 92.2392 335.834 92.2474 335.952C92.2557 336.071 92.3014 336.185 92.3798 336.283L99.2247 344.756Z" fill="#8C9BEA"/>
</g>
<rect x="72.5" y="28.5" width="373" height="373" rx="35.5" stroke="#D3E3FF"/>
</g>
<defs>
<filter id="filter0_d" x="0" y="0" width="518" height="518" filterUnits="userSpaceOnUse" color-interpolation-filters="sRGB">
<feFlood flood-opacity="0" result="BackgroundImageFix"/>
<feColorMatrix in="SourceAlpha" type="matrix" values="0 0 0 0 0 0 0 0 0 0 0 0 0 0 0 0 0 0 127 0"/>
<feMorphology radius="17" operator="erode" in="SourceAlpha" result="effect1_dropShadow"/>
<feOffset dy="44"/>
<feGaussianBlur stdDeviation="44.5"/>
<feColorMatrix type="matrix" values="0 0 0 0 0.243137 0 0 0 0 0.329412 0 0 0 0 0.847059 0 0 0 0.06 0"/>
<feBlend mode="normal" in2="BackgroundImageFix" result="effect1_dropShadow"/>
<feBlend mode="normal" in="SourceGraphic" in2="effect1_dropShadow" result="shape"/>
</filter>
<clipPath id="clip0">
<rect x="72" y="28" width="374" height="374" rx="36" fill="white"/>
</clipPath>
</defs>
</svg>
