<svg width="70" height="70" viewBox="0 0 70 70" fill="none" xmlns="http://www.w3.org/2000/svg">
<rect width="70" height="70" rx="15" fill="#DBEBEF"/>
<path d="M39.425 32.975C39.425 35.375 37.55 37.325 35.225 37.325C32.9 37.325 31.025 35.375 31.025 32.975C31.025 30.575 32.9 28.625 35.225 28.625C35.45 28.625 35.6 28.625 35.75 28.7L38.15 26.3C37.25 25.85 36.275 25.625 35.225 25.625C31.25 25.625 28.025 28.925 28.025 32.975C28.025 37.025 31.25 40.325 35.225 40.325C39.2 40.325 42.425 37.025 42.425 32.975C42.425 31.925 42.2 30.95 41.825 30.125L39.35 32.6C39.425 32.675 39.425 32.825 39.425 32.975ZM42.8 42.65C45.65 40.4 47.525 36.95 47.525 32.975C47.525 31.625 47.3 30.35 46.925 29.15L46.25 29.825C45.725 30.35 45.125 30.575 44.45 30.575C44.375 30.575 44.3 30.575 44.225 30.575C44.45 31.325 44.525 32.15 44.525 32.975C44.525 38.075 40.4 42.2 35.3 42.2C30.2 42.2 26.075 38.075 26.075 32.975C26 27.875 30.2 23.75 35.3 23.75C36.275 23.75 37.175 23.9 38.075 24.2C38.075 23.525 38.375 22.925 38.825 22.4L39.65 21.575C38.3 21.05 36.8 20.75 35.3 20.75C28.55 20.75 23 26.225 23 32.975C23 37.175 25.1 40.85 28.325 43.1L26.375 48.5C26.15 49.1 26.45 49.7 27.05 49.925C27.2 50 27.35 50 27.425 50C27.875 50 28.325 49.7 28.475 49.25L30.35 44.225C31.625 44.825 33.05 45.125 34.55 45.2V48.875C34.55 49.475 35.075 50 35.675 50C36.275 50 36.8 49.475 36.8 48.875V45.125C38.225 44.975 39.65 44.525 40.85 43.85L42.875 49.25C43.025 49.7 43.475 50 43.925 50C44.075 50 44.225 50 44.3 49.925C44.9 49.7 45.2 49.025 44.975 48.5L42.8 42.65Z" fill="#199F27"/>
<path d="M47.3 24.7251L45.1999 23.9001C44.9749 23.8251 44.9 23.6751 44.8249 23.5251L44 21.4251C43.925 21.1251 43.6249 20.9751 43.3249 20.9751C43.1749 20.9751 42.95 21.0501 42.8 21.2001L40.1 23.7501C39.875 23.9751 39.875 24.2751 39.95 24.5001L40.625 26.3001L36.125 30.8001C35.825 30.6501 35.525 30.6501 35.225 30.6501C33.875 30.6501 32.825 31.7001 32.825 33.0501C32.825 34.4001 33.875 35.4501 35.225 35.4501C36.575 35.4501 37.625 34.4001 37.625 33.0501C37.625 32.7501 37.55 32.4501 37.475 32.1501L41.8249 27.8001L44.15 28.7001C44.225 28.7001 44.3 28.7751 44.375 28.7751C44.525 28.7751 44.75 28.7001 44.9 28.5501L47.525 25.9251C47.9 25.5501 47.75 24.9501 47.3 24.7251Z" fill="#199F27"/>
</svg>
