<svg width="70" height="70" viewBox="0 0 70 70" fill="none" xmlns="http://www.w3.org/2000/svg">
<rect width="70" height="70" rx="15" fill="#D1DDFA"/>
<path d="M25.475 39.2C25.025 39.65 25.025 40.325 25.475 40.775C25.7 41 26 41.075 26.3 41.075C26.6 41.075 26.9 41 27.125 40.775L31.4749 36.425L29.9 34.85L25.475 39.2ZM46.1749 27.5L42.7999 27.95C42.2749 28.025 42.0499 28.7 42.4249 29.075L43.0249 29.675L39.4249 32.75L36.4249 29.75C35.9749 29.3 35.2999 29.3 34.8499 29.75L34.0999 30.5L38.5999 35.075C39.0499 35.525 39.6499 35.525 40.0999 35.15L44.5999 31.25L45.3499 32C45.7249 32.375 46.3999 32.15 46.4749 31.625L46.9249 28.25C46.9999 27.875 46.6249 27.5 46.1749 27.5Z" fill="#3E54D8"/>
<path d="M48.875 44H23V38.825C23 38.825 23 38.825 23.075 38.825L29.75 32.15L39.425 41.825C39.65 42.05 39.95 42.125 40.25 42.125C40.475 42.125 40.775 42.05 41 41.825L45.875 37.7C46.325 37.325 46.4 36.575 46.025 36.125C45.65 35.675 44.9 35.6 44.45 35.975L40.325 39.5L30.575 29.75C30.125 29.3 29.45 29.3 29 29.75L23 35.675V25.625C23 25.025 22.475 24.5 21.875 24.5C21.275 24.5 20.75 25.025 20.75 25.625V45.125C20.75 45.725 21.275 46.25 21.875 46.25H48.875C49.475 46.25 50 45.725 50 45.125C50 44.525 49.475 44 48.875 44Z" fill="#3E54D8"/>
</svg>
