<svg width="518" height="518" viewBox="0 0 518 518" fill="none" xmlns="http://www.w3.org/2000/svg">
<g filter="url(#filter0_d)">
<g clip-path="url(#clip0)">
<rect x="72" y="28" width="374" height="374" rx="36" fill="#EFF4FC"/>
<path opacity="0.9" d="M111.168 169L111.136 155.592L104.544 166.632H102.24L95.648 155.848V169H90.784V146.6H95.072L103.456 160.52L111.712 146.6H116L116.032 169H111.168ZM129.277 169.256C127.463 169.256 125.831 168.883 124.381 168.136C122.951 167.368 121.831 166.312 121.021 164.968C120.21 163.624 119.805 162.099 119.805 160.392C119.805 158.685 120.21 157.16 121.021 155.816C121.831 154.472 122.951 153.427 124.381 152.68C125.831 151.912 127.463 151.528 129.277 151.528C131.09 151.528 132.711 151.912 134.141 152.68C135.57 153.427 136.69 154.472 137.501 155.816C138.311 157.16 138.717 158.685 138.717 160.392C138.717 162.099 138.311 163.624 137.501 164.968C136.69 166.312 135.57 167.368 134.141 168.136C132.711 168.883 131.09 169.256 129.277 169.256ZM129.277 165.16C130.557 165.16 131.602 164.733 132.413 163.88C133.245 163.005 133.661 161.843 133.661 160.392C133.661 158.941 133.245 157.789 132.413 156.936C131.602 156.061 130.557 155.624 129.277 155.624C127.997 155.624 126.941 156.061 126.109 156.936C125.277 157.789 124.861 158.941 124.861 160.392C124.861 161.843 125.277 163.005 126.109 163.88C126.941 164.733 127.997 165.16 129.277 165.16ZM142.15 151.784H147.11V162.024L155.494 151.784H160.07V169H155.11V158.76L146.758 169H142.15V151.784ZM150.79 149.928C147.035 149.928 145.147 148.275 145.126 144.968H148.39C148.411 145.715 148.614 146.301 148.998 146.728C149.403 147.133 149.99 147.336 150.758 147.336C151.526 147.336 152.113 147.133 152.518 146.728C152.945 146.301 153.158 145.715 153.158 144.968H156.486C156.465 148.275 154.566 149.928 150.79 149.928ZM191.051 151.784V169H186.059V155.88H178.891V169H173.931V151.784H191.051ZM203.902 169.256C202.088 169.256 200.456 168.883 199.006 168.136C197.576 167.368 196.456 166.312 195.646 164.968C194.835 163.624 194.43 162.099 194.43 160.392C194.43 158.685 194.835 157.16 195.646 155.816C196.456 154.472 197.576 153.427 199.006 152.68C200.456 151.912 202.088 151.528 203.902 151.528C205.715 151.528 207.336 151.912 208.766 152.68C210.195 153.427 211.315 154.472 212.126 155.816C212.936 157.16 213.342 158.685 213.342 160.392C213.342 162.099 212.936 163.624 212.126 164.968C211.315 166.312 210.195 167.368 208.766 168.136C207.336 168.883 205.715 169.256 203.902 169.256ZM203.902 165.16C205.182 165.16 206.227 164.733 207.038 163.88C207.87 163.005 208.286 161.843 208.286 160.392C208.286 158.941 207.87 157.789 207.038 156.936C206.227 156.061 205.182 155.624 203.902 155.624C202.622 155.624 201.566 156.061 200.734 156.936C199.902 157.789 199.486 158.941 199.486 160.392C199.486 161.843 199.902 163.005 200.734 163.88C201.566 164.733 202.622 165.16 203.902 165.16ZM226.919 151.528C228.519 151.528 229.97 151.901 231.271 152.648C232.594 153.373 233.628 154.408 234.375 155.752C235.122 157.075 235.495 158.621 235.495 160.392C235.495 162.163 235.122 163.72 234.375 165.064C233.628 166.387 232.594 167.421 231.271 168.168C229.97 168.893 228.519 169.256 226.919 169.256C224.722 169.256 222.994 168.563 221.735 167.176V175.208H216.743V151.784H221.511V153.768C222.748 152.275 224.551 151.528 226.919 151.528ZM226.055 165.16C227.335 165.16 228.38 164.733 229.191 163.88C230.023 163.005 230.439 161.843 230.439 160.392C230.439 158.941 230.023 157.789 229.191 156.936C228.38 156.061 227.335 155.624 226.055 155.624C224.775 155.624 223.719 156.061 222.887 156.936C222.076 157.789 221.671 158.941 221.671 160.392C221.671 161.843 222.076 163.005 222.887 163.88C223.719 164.733 224.775 165.16 226.055 165.16ZM252.833 155.88H247.009V169H242.049V155.88H236.225V151.784H252.833V155.88ZM278.551 160.328C278.551 162.995 277.655 165.107 275.863 166.664C274.092 168.2 271.554 169.085 268.247 169.32V175.208H263.671V169.32C260.364 169.085 257.815 168.211 256.023 166.696C254.252 165.16 253.367 163.037 253.367 160.328C253.367 157.661 254.242 155.592 255.991 154.12C257.762 152.648 260.322 151.795 263.671 151.56V145.256H268.247V151.56C271.554 151.795 274.092 152.659 275.863 154.152C277.655 155.645 278.551 157.704 278.551 160.328ZM258.199 160.328C258.199 161.864 258.636 163.048 259.511 163.88C260.386 164.712 261.772 165.235 263.671 165.448V155.432C261.772 155.624 260.386 156.125 259.511 156.936C258.636 157.725 258.199 158.856 258.199 160.328ZM268.247 165.448C270.146 165.235 271.532 164.712 272.407 163.88C273.303 163.048 273.751 161.864 273.751 160.328C273.751 158.856 273.303 157.725 272.407 156.936C271.532 156.125 270.146 155.624 268.247 155.432V165.448ZM298.667 160.456C298.667 160.52 298.635 160.968 298.571 161.8H285.547C285.782 162.867 286.337 163.709 287.211 164.328C288.086 164.947 289.174 165.256 290.475 165.256C291.371 165.256 292.161 165.128 292.843 164.872C293.547 164.595 294.198 164.168 294.795 163.592L297.451 166.472C295.83 168.328 293.462 169.256 290.347 169.256C288.406 169.256 286.689 168.883 285.195 168.136C283.702 167.368 282.55 166.312 281.739 164.968C280.929 163.624 280.523 162.099 280.523 160.392C280.523 158.707 280.918 157.192 281.707 155.848C282.518 154.483 283.617 153.427 285.003 152.68C286.411 151.912 287.979 151.528 289.707 151.528C291.393 151.528 292.918 151.891 294.283 152.616C295.649 153.341 296.715 154.387 297.483 155.752C298.273 157.096 298.667 158.664 298.667 160.456ZM289.739 155.304C288.609 155.304 287.659 155.624 286.891 156.264C286.123 156.904 285.654 157.779 285.483 158.888H293.963C293.793 157.8 293.323 156.936 292.555 156.296C291.787 155.635 290.849 155.304 289.739 155.304ZM318.85 151.784V169H313.858V155.88H308.418L308.258 158.92C308.172 161.181 307.959 163.059 307.618 164.552C307.276 166.045 306.722 167.219 305.954 168.072C305.186 168.925 304.119 169.352 302.754 169.352C302.028 169.352 301.164 169.224 300.162 168.968L300.418 164.872C300.759 164.915 301.004 164.936 301.154 164.936C301.9 164.936 302.455 164.669 302.818 164.136C303.202 163.581 303.458 162.888 303.586 162.056C303.714 161.203 303.81 160.083 303.874 158.696L304.13 151.784H318.85ZM332.962 157.288C335.202 157.309 336.919 157.821 338.114 158.824C339.309 159.805 339.906 161.203 339.906 163.016C339.906 164.915 339.234 166.397 337.89 167.464C336.567 168.509 334.701 169.032 332.29 169.032L323.65 169V151.784H328.61V157.288H332.962ZM331.842 165.48C332.802 165.501 333.538 165.299 334.05 164.872C334.562 164.445 334.818 163.805 334.818 162.952C334.818 162.12 334.562 161.512 334.05 161.128C333.559 160.744 332.823 160.541 331.842 160.52L328.61 160.488V165.48H331.842Z" fill="#24252E"/>
<path d="M96.4133 216.418H93.0533V225H91.6813V216.418H88.3353V215.2H96.4133V216.418ZM103.831 221.332C103.831 221.435 103.822 221.57 103.803 221.738H97.7832C97.8672 222.391 98.1519 222.919 98.6372 223.32C99.1319 223.712 99.7432 223.908 100.471 223.908C101.358 223.908 102.072 223.609 102.613 223.012L103.355 223.88C103.019 224.272 102.599 224.571 102.095 224.776C101.601 224.981 101.045 225.084 100.429 225.084C99.6452 225.084 98.9499 224.925 98.3432 224.608C97.7366 224.281 97.2652 223.829 96.9292 223.25C96.6026 222.671 96.4392 222.018 96.4392 221.29C96.4392 220.571 96.5979 219.923 96.9152 219.344C97.2419 218.765 97.6852 218.317 98.2452 218C98.8146 217.673 99.4539 217.51 100.163 217.51C100.873 217.51 101.503 217.673 102.053 218C102.613 218.317 103.047 218.765 103.355 219.344C103.673 219.923 103.831 220.585 103.831 221.332ZM100.163 218.644C99.5192 218.644 98.9779 218.84 98.5392 219.232C98.1099 219.624 97.8579 220.137 97.7832 220.772H102.543C102.469 220.147 102.212 219.638 101.773 219.246C101.344 218.845 100.807 218.644 100.163 218.644ZM108.8 221.864H107.26V225H105.916V217.58H107.26V220.716H108.828L111.236 217.58H112.678L109.864 221.15L112.874 225H111.292L108.8 221.864ZM120.482 217.58L116.884 225.742C116.566 226.498 116.193 227.03 115.764 227.338C115.344 227.646 114.835 227.8 114.238 227.8C113.874 227.8 113.519 227.739 113.174 227.618C112.838 227.506 112.558 227.338 112.334 227.114L112.908 226.106C113.29 226.47 113.734 226.652 114.238 226.652C114.564 226.652 114.835 226.563 115.05 226.386C115.274 226.218 115.474 225.924 115.652 225.504L115.89 224.986L112.614 217.58H114.014L116.604 223.516L119.166 217.58H120.482ZM132.428 217.58V225H121.858V217.58H123.202V223.824H126.478V217.58H127.822V223.824H131.084V217.58H132.428ZM133.534 223.824V226.582H132.274V225H131.028V223.824H133.534ZM135.037 217.58H136.381V222.984L140.931 217.58H142.149V225H140.805V219.596L136.269 225H135.037V217.58ZM144.758 217.58H146.102V222.984L150.652 217.58H151.87V225H150.526V219.596L145.99 225H144.758V217.58ZM148.23 216.614C147.539 216.614 147.003 216.451 146.62 216.124C146.237 215.788 146.041 215.307 146.032 214.682H146.942C146.951 215.027 147.068 215.307 147.292 215.522C147.525 215.727 147.833 215.83 148.216 215.83C148.599 215.83 148.907 215.727 149.14 215.522C149.373 215.307 149.495 215.027 149.504 214.682H150.442C150.433 215.307 150.232 215.788 149.84 216.124C149.448 216.451 148.911 216.614 148.23 216.614ZM161.473 225.084C160.717 225.084 160.04 224.921 159.443 224.594C158.855 224.267 158.393 223.819 158.057 223.25C157.721 222.671 157.553 222.018 157.553 221.29C157.553 220.562 157.721 219.913 158.057 219.344C158.393 218.765 158.855 218.317 159.443 218C160.04 217.673 160.717 217.51 161.473 217.51C162.145 217.51 162.742 217.645 163.265 217.916C163.797 218.187 164.207 218.579 164.497 219.092L163.475 219.75C163.241 219.395 162.952 219.129 162.607 218.952C162.261 218.775 161.879 218.686 161.459 218.686C160.973 218.686 160.535 218.793 160.143 219.008C159.76 219.223 159.457 219.531 159.233 219.932C159.018 220.324 158.911 220.777 158.911 221.29C158.911 221.813 159.018 222.275 159.233 222.676C159.457 223.068 159.76 223.371 160.143 223.586C160.535 223.801 160.973 223.908 161.459 223.908C161.879 223.908 162.261 223.819 162.607 223.642C162.952 223.465 163.241 223.199 163.475 222.844L164.497 223.488C164.207 224.001 163.797 224.398 163.265 224.678C162.742 224.949 162.145 225.084 161.473 225.084ZM172.159 217.58V225H170.815V222.004C170.012 222.377 169.214 222.564 168.421 222.564C167.497 222.564 166.783 222.349 166.279 221.92C165.775 221.491 165.523 220.847 165.523 219.988V217.58H166.867V219.904C166.867 220.417 167.025 220.805 167.343 221.066C167.669 221.327 168.122 221.458 168.701 221.458C169.354 221.458 170.059 221.295 170.815 220.968V217.58H172.159ZM181.474 221.332C181.474 221.435 181.464 221.57 181.446 221.738H175.426C175.51 222.391 175.794 222.919 176.28 223.32C176.774 223.712 177.386 223.908 178.114 223.908C179 223.908 179.714 223.609 180.256 223.012L180.998 223.88C180.662 224.272 180.242 224.571 179.738 224.776C179.243 224.981 178.688 225.084 178.072 225.084C177.288 225.084 176.592 224.925 175.986 224.608C175.379 224.281 174.908 223.829 174.572 223.25C174.245 222.671 174.082 222.018 174.082 221.29C174.082 220.571 174.24 219.923 174.558 219.344C174.884 218.765 175.328 218.317 175.888 218C176.457 217.673 177.096 217.51 177.806 217.51C178.515 217.51 179.145 217.673 179.696 218C180.256 218.317 180.69 218.765 180.998 219.344C181.315 219.923 181.474 220.585 181.474 221.332ZM177.806 218.644C177.162 218.644 176.62 218.84 176.182 219.232C175.752 219.624 175.5 220.137 175.426 220.772H180.186C180.111 220.147 179.854 219.638 179.416 219.246C178.986 218.845 178.45 218.644 177.806 218.644ZM176.49 216.264C176.294 216.264 176.126 216.199 175.986 216.068C175.846 215.928 175.776 215.755 175.776 215.55C175.776 215.345 175.846 215.172 175.986 215.032C176.126 214.892 176.294 214.822 176.49 214.822C176.686 214.822 176.854 214.892 176.994 215.032C177.134 215.172 177.204 215.345 177.204 215.55C177.204 215.755 177.134 215.928 176.994 216.068C176.854 216.199 176.686 216.264 176.49 216.264ZM179.094 216.264C178.898 216.264 178.73 216.199 178.59 216.068C178.45 215.928 178.38 215.755 178.38 215.55C178.38 215.345 178.45 215.172 178.59 215.032C178.73 214.892 178.898 214.822 179.094 214.822C179.29 214.822 179.458 214.892 179.598 215.032C179.738 215.172 179.808 215.345 179.808 215.55C179.808 215.755 179.738 215.928 179.598 216.068C179.458 216.199 179.29 216.264 179.094 216.264ZM188.774 218.756H186.058V225H184.714V218.756H181.998V217.58H188.774V218.756Z" fill="#373943"/>
<path d="M119.5 272.75C119.5 275.483 118.5 277.833 116.5 279.8C114.5 281.733 111.617 282.933 107.85 283.4V289H102.85V283.55C100.383 283.417 98.0333 282.983 95.8 282.25C93.5667 281.517 91.7667 280.617 90.4 279.55L93.15 273.45C94.4167 274.383 95.9 275.167 97.6 275.8C99.3 276.433 101.05 276.833 102.85 277V268.65C100.483 268.083 98.4833 267.45 96.85 266.75C95.2167 266.05 93.85 265.033 92.75 263.7C91.65 262.333 91.1 260.533 91.1 258.3C91.1 255.533 92.1 253.167 94.1 251.2C96.1333 249.2 99.05 247.983 102.85 247.55V242H107.85V247.45C111.95 247.783 115.333 248.8 118 250.5L115.5 256.65C113 255.217 110.45 254.35 107.85 254.05V262.55C110.183 263.083 112.15 263.7 113.75 264.4C115.383 265.067 116.75 266.083 117.85 267.45C118.95 268.783 119.5 270.55 119.5 272.75ZM99.15 257.9C99.15 258.733 99.4667 259.417 100.1 259.95C100.733 260.483 101.65 260.933 102.85 261.3V254.2C101.583 254.5 100.65 254.983 100.05 255.65C99.45 256.283 99.15 257.033 99.15 257.9ZM107.85 276.8C109.05 276.533 109.95 276.1 110.55 275.5C111.15 274.9 111.45 274.183 111.45 273.35C111.45 272.517 111.133 271.833 110.5 271.3C109.9 270.767 109.017 270.3 107.85 269.9V276.8ZM163.145 276.4V283H136.695V277.75L150.195 265C151.628 263.633 152.595 262.467 153.095 261.5C153.595 260.5 153.845 259.517 153.845 258.55C153.845 257.15 153.362 256.083 152.395 255.35C151.462 254.583 150.078 254.2 148.245 254.2C146.712 254.2 145.328 254.5 144.095 255.1C142.862 255.667 141.828 256.533 140.995 257.7L135.095 253.9C136.462 251.867 138.345 250.283 140.745 249.15C143.145 247.983 145.895 247.4 148.995 247.4C151.595 247.4 153.862 247.833 155.795 248.7C157.762 249.533 159.278 250.733 160.345 252.3C161.445 253.833 161.995 255.65 161.995 257.75C161.995 259.65 161.595 261.433 160.795 263.1C159.995 264.767 158.445 266.667 156.145 268.8L148.095 276.4H163.145ZM182.837 262.25C185.904 262.75 188.254 263.9 189.887 265.7C191.52 267.467 192.337 269.667 192.337 272.3C192.337 274.333 191.804 276.217 190.737 277.95C189.67 279.65 188.037 281.017 185.837 282.05C183.67 283.083 181.004 283.6 177.837 283.6C175.37 283.6 172.937 283.283 170.537 282.65C168.17 281.983 166.154 281.05 164.487 279.85L167.637 273.65C168.97 274.65 170.504 275.433 172.237 276C174.004 276.533 175.804 276.8 177.637 276.8C179.67 276.8 181.27 276.417 182.437 275.65C183.604 274.85 184.187 273.733 184.187 272.3C184.187 269.433 182.004 268 177.637 268H173.937V262.65L181.137 254.5H166.237V248H190.737V253.25L182.837 262.25ZM222.237 261.15C227.17 261.15 230.804 262.133 233.137 264.1C235.504 266.067 236.687 268.7 236.687 272C236.687 274.133 236.154 276.083 235.087 277.85C234.02 279.583 232.387 280.983 230.187 282.05C228.02 283.083 225.337 283.6 222.137 283.6C219.67 283.6 217.237 283.283 214.837 282.65C212.47 281.983 210.454 281.05 208.787 279.85L211.987 273.65C213.32 274.65 214.854 275.433 216.587 276C218.32 276.533 220.104 276.8 221.937 276.8C223.97 276.8 225.57 276.4 226.737 275.6C227.904 274.8 228.487 273.683 228.487 272.25C228.487 270.75 227.87 269.617 226.637 268.85C225.437 268.083 223.337 267.7 220.337 267.7H211.387L213.187 248H234.537V254.5H219.937L219.387 261.15H222.237ZM254.973 283.6C252.073 283.6 249.49 282.883 247.223 281.45C244.957 280.017 243.173 277.95 241.873 275.25C240.607 272.517 239.973 269.267 239.973 265.5C239.973 261.733 240.607 258.5 241.873 255.8C243.173 253.067 244.957 250.983 247.223 249.55C249.49 248.117 252.073 247.4 254.973 247.4C257.873 247.4 260.457 248.117 262.723 249.55C264.99 250.983 266.757 253.067 268.023 255.8C269.323 258.5 269.973 261.733 269.973 265.5C269.973 269.267 269.323 272.517 268.023 275.25C266.757 277.95 264.99 280.017 262.723 281.45C260.457 282.883 257.873 283.6 254.973 283.6ZM254.973 276.75C257.107 276.75 258.773 275.833 259.973 274C261.207 272.167 261.823 269.333 261.823 265.5C261.823 261.667 261.207 258.833 259.973 257C258.773 255.167 257.107 254.25 254.973 254.25C252.873 254.25 251.207 255.167 249.973 257C248.773 258.833 248.173 261.667 248.173 265.5C248.173 269.333 248.773 272.167 249.973 274C251.207 275.833 252.873 276.75 254.973 276.75ZM285.909 261.15C290.842 261.15 294.476 262.133 296.809 264.1C299.176 266.067 300.359 268.7 300.359 272C300.359 274.133 299.826 276.083 298.759 277.85C297.692 279.583 296.059 280.983 293.859 282.05C291.692 283.083 289.009 283.6 285.809 283.6C283.342 283.6 280.909 283.283 278.509 282.65C276.142 281.983 274.126 281.05 272.459 279.85L275.659 273.65C276.992 274.65 278.526 275.433 280.259 276C281.992 276.533 283.776 276.8 285.609 276.8C287.642 276.8 289.242 276.4 290.409 275.6C291.576 274.8 292.159 273.683 292.159 272.25C292.159 270.75 291.542 269.617 290.309 268.85C289.109 268.083 287.009 267.7 284.009 267.7H275.059L276.859 248H298.209V254.5H283.609L283.059 261.15H285.909Z" fill="#24252E"/>
<path d="M94.3979 338.112C93.4086 338.112 92.5172 337.897 91.7239 337.468C90.9306 337.029 90.3052 336.427 89.8479 335.662C89.3999 334.897 89.1759 334.043 89.1759 333.1C89.1759 332.157 89.3999 331.303 89.8479 330.538C90.3052 329.773 90.9306 329.175 91.7239 328.746C92.5172 328.307 93.4086 328.088 94.3979 328.088C95.3779 328.088 96.2646 328.307 97.0579 328.746C97.8512 329.175 98.4719 329.773 98.9199 330.538C99.3679 331.294 99.5919 332.148 99.5919 333.1C99.5919 334.052 99.3679 334.911 98.9199 335.676C98.4719 336.432 97.8512 337.029 97.0579 337.468C96.2646 337.897 95.3779 338.112 94.3979 338.112ZM94.3979 336.866C95.1166 336.866 95.7606 336.703 96.3299 336.376C96.9086 336.049 97.3612 335.601 97.6879 335.032C98.0239 334.453 98.1919 333.809 98.1919 333.1C98.1919 332.391 98.0239 331.751 97.6879 331.182C97.3612 330.603 96.9086 330.151 96.3299 329.824C95.7606 329.497 95.1166 329.334 94.3979 329.334C93.6792 329.334 93.0259 329.497 92.4379 329.824C91.8592 330.151 91.4019 330.603 91.0659 331.182C90.7392 331.751 90.5759 332.391 90.5759 333.1C90.5759 333.809 90.7392 334.453 91.0659 335.032C91.4019 335.601 91.8592 336.049 92.4379 336.376C93.0259 336.703 93.6792 336.866 94.3979 336.866ZM105.411 330.832C106.102 330.832 106.718 330.986 107.259 331.294C107.8 331.602 108.22 332.031 108.519 332.582C108.827 333.123 108.981 333.744 108.981 334.444C108.981 335.163 108.818 335.802 108.491 336.362C108.174 336.913 107.721 337.342 107.133 337.65C106.554 337.958 105.892 338.112 105.145 338.112C103.885 338.112 102.91 337.683 102.219 336.824C101.538 335.956 101.197 334.738 101.197 333.17C101.197 331.649 101.51 330.459 102.135 329.6C102.76 328.732 103.717 328.158 105.005 327.878L108.393 327.122L108.589 328.354L105.467 329.026C104.496 329.241 103.773 329.605 103.297 330.118C102.821 330.631 102.55 331.369 102.485 332.33C102.802 331.854 103.213 331.485 103.717 331.224C104.221 330.963 104.786 330.832 105.411 330.832ZM105.173 336.992C105.649 336.992 106.069 336.885 106.433 336.67C106.806 336.455 107.096 336.161 107.301 335.788C107.506 335.405 107.609 334.971 107.609 334.486C107.609 333.749 107.385 333.156 106.937 332.708C106.489 332.26 105.901 332.036 105.173 332.036C104.445 332.036 103.852 332.26 103.395 332.708C102.947 333.156 102.723 333.749 102.723 334.486C102.723 334.971 102.826 335.405 103.031 335.788C103.246 336.161 103.54 336.455 103.913 336.67C104.286 336.885 104.706 336.992 105.173 336.992ZM121.471 330.58V338H110.901V330.58H112.245V336.824H115.521V330.58H116.865V336.824H120.127V330.58H121.471ZM122.577 336.824V339.582H121.317V338H120.071V336.824H122.577ZM124.08 330.58H125.424V335.984L129.974 330.58H131.192V338H129.848V332.596L125.312 338H124.08V330.58ZM133.801 330.58H135.145V335.984L139.695 330.58H140.913V338H139.569V332.596L135.033 338H133.801V330.58ZM137.273 329.614C136.582 329.614 136.046 329.451 135.663 329.124C135.28 328.788 135.084 328.307 135.075 327.682H135.985C135.994 328.027 136.111 328.307 136.335 328.522C136.568 328.727 136.876 328.83 137.259 328.83C137.642 328.83 137.95 328.727 138.183 328.522C138.416 328.307 138.538 328.027 138.547 327.682H139.485C139.476 328.307 139.275 328.788 138.883 329.124C138.491 329.451 137.954 329.614 137.273 329.614ZM154.827 336.824V339.722H153.567V338H147.365V339.722H146.091V336.824H146.483C146.959 336.796 147.286 336.46 147.463 335.816C147.641 335.172 147.762 334.262 147.827 333.086L147.939 330.58H153.693V336.824H154.827ZM149.059 333.184C149.022 334.117 148.943 334.892 148.821 335.508C148.709 336.115 148.499 336.553 148.191 336.824H152.349V331.756H149.129L149.059 333.184ZM159.756 338.084C159.019 338.084 158.356 337.921 157.768 337.594C157.18 337.267 156.718 336.819 156.382 336.25C156.056 335.671 155.892 335.018 155.892 334.29C155.892 333.562 156.056 332.913 156.382 332.344C156.718 331.765 157.18 331.317 157.768 331C158.356 330.673 159.019 330.51 159.756 330.51C160.494 330.51 161.152 330.673 161.73 331C162.318 331.317 162.776 331.765 163.102 332.344C163.438 332.913 163.606 333.562 163.606 334.29C163.606 335.018 163.438 335.671 163.102 336.25C162.776 336.819 162.318 337.267 161.73 337.594C161.152 337.921 160.494 338.084 159.756 338.084ZM159.756 336.908C160.232 336.908 160.657 336.801 161.03 336.586C161.413 336.362 161.712 336.054 161.926 335.662C162.141 335.261 162.248 334.803 162.248 334.29C162.248 333.777 162.141 333.324 161.926 332.932C161.712 332.531 161.413 332.223 161.03 332.008C160.657 331.793 160.232 331.686 159.756 331.686C159.28 331.686 158.851 331.793 158.468 332.008C158.095 332.223 157.796 332.531 157.572 332.932C157.358 333.324 157.25 333.777 157.25 334.29C157.25 334.803 157.358 335.261 157.572 335.662C157.796 336.054 158.095 336.362 158.468 336.586C158.851 336.801 159.28 336.908 159.756 336.908ZM169.935 338L167.793 335.158L165.623 338H164.125L167.051 334.206L164.265 330.58H165.763L167.807 333.254L169.837 330.58H171.307L168.507 334.206L171.461 338H169.935ZM175.807 338.084C175.07 338.084 174.407 337.921 173.819 337.594C173.231 337.267 172.769 336.819 172.433 336.25C172.106 335.671 171.943 335.018 171.943 334.29C171.943 333.562 172.106 332.913 172.433 332.344C172.769 331.765 173.231 331.317 173.819 331C174.407 330.673 175.07 330.51 175.807 330.51C176.544 330.51 177.202 330.673 177.781 331C178.369 331.317 178.826 331.765 179.153 332.344C179.489 332.913 179.657 333.562 179.657 334.29C179.657 335.018 179.489 335.671 179.153 336.25C178.826 336.819 178.369 337.267 177.781 337.594C177.202 337.921 176.544 338.084 175.807 338.084ZM175.807 336.908C176.283 336.908 176.708 336.801 177.081 336.586C177.464 336.362 177.762 336.054 177.977 335.662C178.192 335.261 178.299 334.803 178.299 334.29C178.299 333.777 178.192 333.324 177.977 332.932C177.762 332.531 177.464 332.223 177.081 332.008C176.708 331.793 176.283 331.686 175.807 331.686C175.331 331.686 174.902 331.793 174.519 332.008C174.146 332.223 173.847 332.531 173.623 332.932C173.408 333.324 173.301 333.777 173.301 334.29C173.301 334.803 173.408 335.261 173.623 335.662C173.847 336.054 174.146 336.362 174.519 336.586C174.902 336.801 175.331 336.908 175.807 336.908ZM189.089 336.824V339.722H187.829V338H181.627V339.722H180.353V336.824H180.745C181.221 336.796 181.548 336.46 181.725 335.816C181.903 335.172 182.024 334.262 182.089 333.086L182.201 330.58H187.955V336.824H189.089ZM183.321 333.184C183.284 334.117 183.205 334.892 183.083 335.508C182.971 336.115 182.761 336.553 182.453 336.824H186.611V331.756H183.391L183.321 333.184Z" fill="#373943"/>
<path d="M100.912 367.064H96.736V371.144H93.64V367.064H89.488V364.136H93.64V360.056H96.736V364.136H100.912V367.064ZM110.682 364.04C112.154 364.28 113.282 364.832 114.066 365.696C114.85 366.544 115.242 367.6 115.242 368.864C115.242 369.84 114.986 370.744 114.474 371.576C113.962 372.392 113.178 373.048 112.122 373.544C111.082 374.04 109.802 374.288 108.282 374.288C107.098 374.288 105.93 374.136 104.778 373.832C103.642 373.512 102.674 373.064 101.874 372.488L103.386 369.512C104.026 369.992 104.762 370.368 105.594 370.64C106.442 370.896 107.306 371.024 108.186 371.024C109.162 371.024 109.93 370.84 110.49 370.472C111.05 370.088 111.33 369.552 111.33 368.864C111.33 367.488 110.282 366.8 108.186 366.8H106.41V364.232L109.866 360.32H102.714V357.2H114.474V359.72L110.682 364.04ZM129.594 363.512C131.962 363.512 133.706 363.984 134.826 364.928C135.962 365.872 136.53 367.136 136.53 368.72C136.53 369.744 136.274 370.68 135.762 371.528C135.25 372.36 134.466 373.032 133.41 373.544C132.37 374.04 131.082 374.288 129.546 374.288C128.362 374.288 127.194 374.136 126.042 373.832C124.906 373.512 123.938 373.064 123.138 372.488L124.674 369.512C125.314 369.992 126.05 370.368 126.882 370.64C127.714 370.896 128.57 371.024 129.45 371.024C130.426 371.024 131.194 370.832 131.754 370.448C132.314 370.064 132.594 369.528 132.594 368.84C132.594 368.12 132.298 367.576 131.706 367.208C131.13 366.84 130.122 366.656 128.682 366.656H124.386L125.25 357.2H135.498V360.32H128.49L128.226 363.512H129.594ZM143.751 363.512C146.119 363.512 147.863 363.984 148.983 364.928C150.119 365.872 150.687 367.136 150.687 368.72C150.687 369.744 150.431 370.68 149.919 371.528C149.407 372.36 148.623 373.032 147.567 373.544C146.527 374.04 145.239 374.288 143.703 374.288C142.519 374.288 141.351 374.136 140.199 373.832C139.063 373.512 138.095 373.064 137.295 372.488L138.831 369.512C139.471 369.992 140.207 370.368 141.039 370.64C141.871 370.896 142.727 371.024 143.607 371.024C144.583 371.024 145.351 370.832 145.911 370.448C146.471 370.064 146.751 369.528 146.751 368.84C146.751 368.12 146.455 367.576 145.863 367.208C145.287 366.84 144.279 366.656 142.839 366.656H138.543L139.407 357.2H149.655V360.32H142.647L142.383 363.512H143.751ZM159.995 364.04C161.467 364.28 162.595 364.832 163.379 365.696C164.163 366.544 164.555 367.6 164.555 368.864C164.555 369.84 164.299 370.744 163.787 371.576C163.275 372.392 162.491 373.048 161.435 373.544C160.395 374.04 159.115 374.288 157.595 374.288C156.411 374.288 155.243 374.136 154.091 373.832C152.955 373.512 151.987 373.064 151.187 372.488L152.699 369.512C153.339 369.992 154.075 370.368 154.907 370.64C155.755 370.896 156.619 371.024 157.499 371.024C158.475 371.024 159.243 370.84 159.803 370.472C160.363 370.088 160.643 369.552 160.643 368.864C160.643 367.488 159.595 366.8 157.499 366.8H155.723V364.232L159.179 360.32H152.027V357.2H163.787V359.72L159.995 364.04ZM168.582 369.536C169.254 369.536 169.806 369.752 170.238 370.184C170.67 370.6 170.886 371.152 170.886 371.84C170.886 372.16 170.846 372.48 170.766 372.8C170.686 373.12 170.51 373.6 170.238 374.24L168.87 377.696H166.494L167.55 373.88C167.15 373.72 166.83 373.464 166.59 373.112C166.366 372.744 166.254 372.32 166.254 371.84C166.254 371.152 166.47 370.6 166.902 370.184C167.35 369.752 167.91 369.536 168.582 369.536ZM185.418 370.832V374H172.722V371.48L179.202 365.36C179.89 364.704 180.354 364.144 180.594 363.68C180.834 363.2 180.954 362.728 180.954 362.264C180.954 361.592 180.722 361.08 180.258 360.728C179.81 360.36 179.146 360.176 178.266 360.176C177.53 360.176 176.866 360.32 176.274 360.608C175.682 360.88 175.186 361.296 174.786 361.856L171.954 360.032C172.61 359.056 173.514 358.296 174.666 357.752C175.818 357.192 177.138 356.912 178.626 356.912C179.874 356.912 180.962 357.12 181.89 357.536C182.834 357.936 183.562 358.512 184.074 359.264C184.602 360 184.866 360.872 184.866 361.88C184.866 362.792 184.674 363.648 184.29 364.448C183.906 365.248 183.162 366.16 182.058 367.184L178.194 370.832H185.418ZM192.926 356.912C195.278 356.912 197.118 357.632 198.446 359.072C199.774 360.496 200.438 362.552 200.438 365.24C200.438 367.144 200.078 368.776 199.358 370.136C198.654 371.496 197.654 372.528 196.358 373.232C195.062 373.936 193.566 374.288 191.87 374.288C190.974 374.288 190.118 374.192 189.302 374C188.486 373.792 187.79 373.504 187.214 373.136L188.654 370.28C189.47 370.84 190.518 371.12 191.798 371.12C193.222 371.12 194.35 370.704 195.182 369.872C196.014 369.024 196.462 367.808 196.526 366.224C195.518 367.232 194.126 367.736 192.35 367.736C191.278 367.736 190.302 367.52 189.422 367.088C188.542 366.656 187.846 366.048 187.334 365.264C186.822 364.464 186.566 363.544 186.566 362.504C186.566 361.384 186.846 360.4 187.406 359.552C187.966 358.704 188.726 358.056 189.686 357.608C190.662 357.144 191.742 356.912 192.926 356.912ZM193.214 364.832C194.062 364.832 194.75 364.6 195.278 364.136C195.822 363.656 196.094 363.048 196.094 362.312C196.094 361.576 195.83 360.976 195.302 360.512C194.79 360.048 194.078 359.816 193.166 359.816C192.334 359.816 191.654 360.04 191.126 360.488C190.614 360.936 190.358 361.544 190.358 362.312C190.358 363.08 190.614 363.696 191.126 364.16C191.654 364.608 192.35 364.832 193.214 364.832ZM212.916 378.656C211.956 377.2 211.212 375.512 210.684 373.592C210.172 371.672 209.916 369.616 209.916 367.424C209.916 365.232 210.172 363.176 210.684 361.256C211.212 359.32 211.956 357.632 212.916 356.192H216.492C215.484 357.968 214.748 359.776 214.284 361.616C213.82 363.44 213.588 365.376 213.588 367.424C213.588 369.472 213.82 371.416 214.284 373.256C214.748 375.08 215.484 376.88 216.492 378.656H212.916ZM229.654 367.064H225.478V371.144H222.382V367.064H218.23V364.136H222.382V360.056H225.478V364.136H229.654V367.064ZM240.227 363.464C241.299 363.464 242.275 363.68 243.155 364.112C244.035 364.544 244.731 365.16 245.243 365.96C245.755 366.744 246.011 367.656 246.011 368.696C246.011 369.816 245.731 370.8 245.171 371.648C244.611 372.496 243.843 373.152 242.867 373.616C241.907 374.064 240.835 374.288 239.651 374.288C237.299 374.288 235.459 373.568 234.131 372.128C232.803 370.688 232.139 368.632 232.139 365.96C232.139 364.056 232.499 362.424 233.219 361.064C233.939 359.704 234.939 358.672 236.219 357.968C237.515 357.264 239.011 356.912 240.707 356.912C241.603 356.912 242.459 357.016 243.275 357.224C244.107 357.416 244.811 357.696 245.387 358.064L243.947 360.92C243.115 360.36 242.067 360.08 240.803 360.08C239.379 360.08 238.251 360.496 237.419 361.328C236.587 362.16 236.139 363.368 236.075 364.952C237.067 363.96 238.451 363.464 240.227 363.464ZM239.435 371.384C240.267 371.384 240.939 371.16 241.451 370.712C241.979 370.264 242.243 369.656 242.243 368.888C242.243 368.12 241.979 367.512 241.451 367.064C240.939 366.6 240.251 366.368 239.387 366.368C238.539 366.368 237.843 366.608 237.299 367.088C236.755 367.552 236.483 368.152 236.483 368.888C236.483 369.624 236.747 370.224 237.275 370.688C237.803 371.152 238.523 371.384 239.435 371.384ZM249.887 369.536C250.559 369.536 251.111 369.752 251.543 370.184C251.975 370.6 252.191 371.152 252.191 371.84C252.191 372.16 252.151 372.48 252.071 372.8C251.991 373.12 251.815 373.6 251.543 374.24L250.175 377.696H247.799L248.855 373.88C248.455 373.72 248.135 373.464 247.895 373.112C247.671 372.744 247.559 372.32 247.559 371.84C247.559 371.152 247.775 370.6 248.207 370.184C248.655 369.752 249.215 369.536 249.887 369.536ZM265.666 365.168C266.498 365.584 267.13 366.128 267.562 366.8C268.01 367.472 268.234 368.248 268.234 369.128C268.234 370.168 267.938 371.08 267.346 371.864C266.754 372.632 265.922 373.232 264.85 373.664C263.778 374.08 262.538 374.288 261.13 374.288C259.722 374.288 258.482 374.08 257.41 373.664C256.354 373.232 255.53 372.632 254.938 371.864C254.362 371.08 254.074 370.168 254.074 369.128C254.074 368.248 254.29 367.472 254.722 366.8C255.17 366.128 255.802 365.584 256.618 365.168C255.994 364.784 255.514 364.304 255.178 363.728C254.842 363.136 254.674 362.464 254.674 361.712C254.674 360.736 254.946 359.888 255.49 359.168C256.034 358.448 256.794 357.896 257.77 357.512C258.746 357.112 259.866 356.912 261.13 356.912C262.41 356.912 263.538 357.112 264.514 357.512C265.506 357.896 266.274 358.448 266.818 359.168C267.362 359.888 267.634 360.736 267.634 361.712C267.634 362.464 267.466 363.136 267.13 363.728C266.794 364.304 266.306 364.784 265.666 365.168ZM261.13 359.768C260.346 359.768 259.714 359.96 259.234 360.344C258.77 360.712 258.538 361.224 258.538 361.88C258.538 362.52 258.77 363.024 259.234 363.392C259.698 363.76 260.33 363.944 261.13 363.944C261.93 363.944 262.57 363.76 263.05 363.392C263.53 363.024 263.77 362.52 263.77 361.88C263.77 361.224 263.53 360.712 263.05 360.344C262.57 359.96 261.93 359.768 261.13 359.768ZM261.13 371.432C262.106 371.432 262.874 371.216 263.434 370.784C264.01 370.336 264.298 369.744 264.298 369.008C264.298 368.272 264.01 367.688 263.434 367.256C262.874 366.824 262.106 366.608 261.13 366.608C260.17 366.608 259.41 366.824 258.85 367.256C258.29 367.688 258.01 368.272 258.01 369.008C258.01 369.76 258.29 370.352 258.85 370.784C259.41 371.216 260.17 371.432 261.13 371.432ZM277.862 364.04C279.334 364.28 280.462 364.832 281.246 365.696C282.03 366.544 282.422 367.6 282.422 368.864C282.422 369.84 282.166 370.744 281.654 371.576C281.142 372.392 280.358 373.048 279.302 373.544C278.262 374.04 276.982 374.288 275.462 374.288C274.278 374.288 273.11 374.136 271.958 373.832C270.822 373.512 269.854 373.064 269.054 372.488L270.566 369.512C271.206 369.992 271.942 370.368 272.774 370.64C273.622 370.896 274.486 371.024 275.366 371.024C276.342 371.024 277.11 370.84 277.67 370.472C278.23 370.088 278.51 369.552 278.51 368.864C278.51 367.488 277.462 366.8 275.366 366.8H273.59V364.232L277.046 360.32H269.894V357.2H281.654V359.72L277.862 364.04ZM287.871 366.272C286.639 366.272 285.631 365.856 284.847 365.024C284.079 364.176 283.695 363.048 283.695 361.64C283.695 360.232 284.079 359.112 284.847 358.28C285.631 357.432 286.639 357.008 287.871 357.008C289.103 357.008 290.103 357.432 290.871 358.28C291.639 359.112 292.023 360.232 292.023 361.64C292.023 363.048 291.639 364.176 290.871 365.024C290.103 365.856 289.103 366.272 287.871 366.272ZM297.879 357.2H300.735L289.263 374H286.407L297.879 357.2ZM287.871 364.304C288.415 364.304 288.839 364.08 289.143 363.632C289.463 363.184 289.623 362.52 289.623 361.64C289.623 360.76 289.463 360.096 289.143 359.648C288.839 359.2 288.415 358.976 287.871 358.976C287.343 358.976 286.919 359.208 286.599 359.672C286.279 360.12 286.119 360.776 286.119 361.64C286.119 362.504 286.279 363.168 286.599 363.632C286.919 364.08 287.343 364.304 287.871 364.304ZM299.271 374.192C298.471 374.192 297.751 374.008 297.111 373.64C296.487 373.256 295.999 372.712 295.647 372.008C295.295 371.304 295.119 370.488 295.119 369.56C295.119 368.632 295.295 367.816 295.647 367.112C295.999 366.408 296.487 365.872 297.111 365.504C297.751 365.12 298.471 364.928 299.271 364.928C300.503 364.928 301.503 365.352 302.271 366.2C303.055 367.032 303.447 368.152 303.447 369.56C303.447 370.968 303.055 372.096 302.271 372.944C301.503 373.776 300.503 374.192 299.271 374.192ZM299.271 372.224C299.815 372.224 300.239 372 300.543 371.552C300.863 371.088 301.023 370.424 301.023 369.56C301.023 368.696 300.863 368.04 300.543 367.592C300.239 367.128 299.815 366.896 299.271 366.896C298.743 366.896 298.319 367.12 297.999 367.568C297.679 368.016 297.519 368.68 297.519 369.56C297.519 370.44 297.679 371.104 297.999 371.552C298.319 372 298.743 372.224 299.271 372.224ZM303.865 378.656C304.873 376.88 305.609 375.08 306.073 373.256C306.553 371.416 306.793 369.472 306.793 367.424C306.793 365.376 306.553 363.44 306.073 361.616C305.609 359.776 304.873 357.968 303.865 356.192H307.441C308.417 357.616 309.161 359.296 309.673 361.232C310.201 363.152 310.465 365.216 310.465 367.424C310.465 369.632 310.209 371.696 309.697 373.616C309.185 375.52 308.433 377.2 307.441 378.656H303.865Z" fill="#199F27"/>
<g filter="url(#filter1_d)">
<rect x="72" y="28" width="375" height="70" fill="white"/>
</g>
<rect x="72" y="28" width="375" height="70" fill="#EAF1FE"/>
<rect opacity="0.86" x="72" y="28" width="375" height="70" fill="url(#paint0_linear)"/>
<g clip-path="url(#clip1)">
<path d="M427.115 53.3092C424.473 50.5507 420.816 48.994 416.996 49.001C409.276 48.9913 403.01 55.2417 403 62.9618C402.995 66.7791 404.552 70.4322 407.308 73.0731C407.316 73.081 407.319 73.093 407.327 73.1001C407.408 73.178 407.496 73.244 407.578 73.319C407.803 73.5189 408.028 73.7259 408.265 73.9188C408.392 74.0188 408.524 74.1187 408.654 74.2107C408.878 74.3776 409.102 74.5446 409.335 74.6986C409.494 74.7985 409.658 74.8985 409.821 74.9985C410.037 75.1284 410.252 75.2593 410.475 75.3783C410.664 75.4783 410.857 75.5642 411.049 75.6552C411.259 75.7552 411.466 75.8551 411.681 75.9451C411.896 76.035 412.112 76.105 412.329 76.183C412.547 76.261 412.735 76.333 412.944 76.3969C413.18 76.4679 413.422 76.5229 413.662 76.5818C413.862 76.6308 414.056 76.6868 414.262 76.7268C414.538 76.7818 414.818 76.8168 415.098 76.8548C415.271 76.8788 415.439 76.9128 415.614 76.9298C416.072 76.9748 416.534 76.9998 417 76.9998C417.466 76.9998 417.928 76.9748 418.385 76.9298C418.56 76.9128 418.729 76.8788 418.902 76.8548C419.182 76.8168 419.462 76.7818 419.738 76.7268C419.938 76.6868 420.138 76.6268 420.338 76.5818C420.578 76.5229 420.82 76.4679 421.056 76.3969C421.264 76.333 421.466 76.255 421.67 76.183C421.874 76.111 422.106 76.0331 422.319 75.9451C422.532 75.8571 422.741 75.7541 422.951 75.6552C423.143 75.5642 423.336 75.4782 423.525 75.3783C423.748 75.2593 423.963 75.1284 424.178 74.9985C424.341 74.8985 424.505 74.8075 424.664 74.6986C424.898 74.5446 425.122 74.3777 425.346 74.2107C425.476 74.1107 425.608 74.0207 425.735 73.9188C425.972 73.7289 426.197 73.5269 426.422 73.319C426.504 73.244 426.592 73.1781 426.673 73.1001C426.681 73.0931 426.684 73.0811 426.692 73.0731C432.266 67.7324 432.456 58.8837 427.115 53.3092ZM424.868 72.0264C424.687 72.1864 424.499 72.3383 424.309 72.4853C424.197 72.5712 424.085 72.6562 423.97 72.7382C423.789 72.8692 423.605 72.9931 423.418 73.1121C423.282 73.199 423.143 73.283 423.003 73.365C422.827 73.465 422.648 73.5649 422.467 73.6649C422.307 73.7468 422.144 73.8239 421.98 73.8998C421.816 73.9758 421.635 74.0568 421.459 74.1277C421.282 74.1987 421.094 74.2657 420.909 74.3277C420.74 74.3856 420.571 74.4456 420.4 74.4966C420.2 74.5566 419.991 74.6055 419.784 74.6556C419.622 74.6935 419.462 74.7365 419.298 74.7686C419.061 74.8145 418.819 74.8465 418.576 74.8795C418.439 74.8975 418.302 74.9225 418.163 74.9365C417.779 74.9734 417.39 74.9955 416.997 74.9955C416.604 74.9955 416.215 74.9735 415.831 74.9365C415.692 74.9225 415.555 74.8975 415.417 74.8795C415.175 74.8465 414.933 74.8145 414.696 74.7686C414.532 74.7366 414.372 74.6936 414.21 74.6556C414.003 74.6056 413.797 74.5556 413.594 74.4966C413.423 74.4456 413.254 74.3856 413.085 74.3277C412.9 74.2637 412.715 74.1987 412.535 74.1277C412.355 74.0568 412.186 73.9788 412.014 73.8998C411.842 73.8209 411.687 73.7469 411.527 73.6649C411.346 73.5709 411.167 73.4719 410.991 73.365C410.851 73.283 410.712 73.199 410.576 73.1121C410.389 72.9931 410.205 72.8692 410.024 72.7382C409.909 72.6562 409.797 72.5712 409.685 72.4853C409.495 72.3383 409.307 72.1854 409.125 72.0264C409.082 71.9934 409.041 71.9514 408.999 71.9134C409.043 68.5127 411.228 65.51 414.45 64.4208C416.061 65.1872 417.931 65.1872 419.542 64.4208C422.764 65.51 424.949 68.5127 424.993 71.9134C424.951 71.9514 424.911 71.9894 424.868 72.0264ZM413.51 57.0162C414.592 55.0912 417.03 54.4082 418.955 55.4906C420.88 56.573 421.563 59.0109 420.481 60.9359C420.122 61.5746 419.594 62.1024 418.955 62.4615C418.95 62.4615 418.944 62.4615 418.938 62.4675C418.673 62.6151 418.393 62.7337 418.103 62.8214C418.051 62.8364 418.003 62.8564 417.948 62.8694C417.848 62.8954 417.743 62.9134 417.64 62.9314C417.446 62.9653 417.25 62.985 417.053 62.9903H416.939C416.742 62.985 416.546 62.9653 416.352 62.9314C416.252 62.9134 416.146 62.8954 416.044 62.8694C415.991 62.8564 415.944 62.8364 415.889 62.8214C415.599 62.7337 415.319 62.6151 415.054 62.4675L415.036 62.4615C413.111 61.3791 412.428 58.9412 413.51 57.0162ZM426.767 69.9311C426.125 66.939 424.155 64.4023 421.415 63.0404C423.655 60.6002 423.492 56.8059 421.052 54.5657C418.612 52.3255 414.818 52.4878 412.577 54.928C410.471 57.2222 410.471 60.7464 412.577 63.0404C409.837 64.4023 407.867 66.939 407.225 69.9311C403.392 64.5316 404.662 57.0468 410.061 53.2134C415.461 49.3801 422.945 50.6498 426.779 56.0493C428.22 58.0791 428.993 60.5071 428.992 62.9964C428.992 65.4835 428.214 67.9083 426.767 69.9311Z" fill="#3E54D8"/>
</g>
<rect x="88.5" y="43.5" width="39" height="39" rx="7.5" fill="white"/>
<line x1="96" y1="67" x2="112" y2="67" stroke="#3E54D8" stroke-width="2" stroke-linecap="round"/>
<line x1="96" y1="59" x2="120" y2="59" stroke="#3E54D8" stroke-width="2" stroke-linecap="round"/>
<rect x="88.5" y="43.5" width="39" height="39" rx="7.5" stroke="#E6EEFF"/>
<line x1="72" y1="97.5" x2="447" y2="97.5" stroke="white" stroke-opacity="0.3"/>
<g opacity="0.9">
<path d="M179.61 56.523C180.651 56.8528 181.467 57.4082 182.057 58.1893C182.647 58.953 182.942 59.899 182.942 61.0272C182.942 62.624 182.317 63.8564 181.068 64.7242C179.835 65.5747 178.03 66 175.652 66H166.227V47.775H175.132C177.353 47.775 179.054 48.2002 180.235 49.0507C181.432 49.9012 182.031 51.0555 182.031 52.5135C182.031 53.3987 181.814 54.1885 181.38 54.8827C180.964 55.577 180.373 56.1238 179.61 56.523ZM170.419 50.9514V55.2472H174.611C175.652 55.2472 176.442 55.065 176.98 54.7005C177.518 54.336 177.787 53.7979 177.787 53.0863C177.787 52.3746 177.518 51.8452 176.98 51.4981C176.442 51.1336 175.652 50.9514 174.611 50.9514H170.419ZM175.34 62.8236C176.451 62.8236 177.284 62.6414 177.839 62.2769C178.412 61.9124 178.698 61.3483 178.698 60.5846C178.698 59.0745 177.579 58.3195 175.34 58.3195H170.419V62.8236H175.34ZM199.57 59.0485C199.57 59.1005 199.544 59.465 199.492 60.142H188.895C189.086 61.0098 189.538 61.6954 190.249 62.1988C190.961 62.7021 191.846 62.9538 192.905 62.9538C193.634 62.9538 194.276 62.8497 194.831 62.6414C195.404 62.4157 195.934 62.0686 196.42 61.6L198.581 63.9432C197.261 65.4532 195.335 66.2083 192.801 66.2083C191.221 66.2083 189.824 65.9045 188.609 65.297C187.394 64.6722 186.457 63.813 185.797 62.7195C185.137 61.626 184.808 60.385 184.808 58.9964C184.808 57.6252 185.129 56.3928 185.771 55.2993C186.431 54.1885 187.324 53.3293 188.453 52.7218C189.598 52.0969 190.874 51.7845 192.28 51.7845C193.651 51.7845 194.892 52.0796 196.003 52.6697C197.114 53.2599 197.982 54.1104 198.607 55.2212C199.249 56.3147 199.57 57.5905 199.57 59.0485ZM192.306 54.8567C191.386 54.8567 190.614 55.1171 189.989 55.6378C189.364 56.1585 188.982 56.8701 188.843 57.7727H195.743C195.604 56.8875 195.222 56.1845 194.597 55.6638C193.972 55.1257 193.209 54.8567 192.306 54.8567ZM207.542 51.7845C209.712 51.7845 211.378 52.3052 212.541 53.3466C213.704 54.3707 214.286 55.9242 214.286 58.007V66H210.484V64.2556C209.721 65.5574 208.297 66.2083 206.215 66.2083C205.138 66.2083 204.201 66.026 203.403 65.6615C202.622 65.297 202.023 64.7937 201.606 64.1515C201.19 63.5092 200.981 62.7802 200.981 61.9645C200.981 60.6627 201.467 59.6386 202.439 58.8922C203.429 58.1459 204.947 57.7727 206.996 57.7727H210.224C210.224 56.8875 209.955 56.2106 209.417 55.7419C208.879 55.2559 208.072 55.0129 206.996 55.0129C206.249 55.0129 205.512 55.1344 204.783 55.3774C204.071 55.6031 203.463 55.9155 202.96 56.3147L201.502 53.4768C202.266 52.9387 203.177 52.5222 204.236 52.2271C205.312 51.932 206.414 51.7845 207.542 51.7845ZM207.23 63.4745C207.924 63.4745 208.54 63.3183 209.078 63.0059C209.617 62.6761 209.998 62.1988 210.224 61.5739V60.142H207.438C205.772 60.142 204.939 60.6887 204.939 61.7822C204.939 62.3029 205.138 62.7195 205.538 63.0319C205.954 63.327 206.518 63.4745 207.23 63.4745ZM226.996 65.3231C226.597 65.6181 226.102 65.8438 225.512 66C224.939 66.1389 224.332 66.2083 223.689 66.2083C222.023 66.2083 220.73 65.783 219.81 64.9325C218.908 64.082 218.456 62.8323 218.456 61.1834V55.4295H216.295V52.3052H218.456V48.8945H222.518V52.3052H226.007V55.4295H222.518V61.1313C222.518 61.7215 222.665 62.1814 222.96 62.5112C223.273 62.8236 223.707 62.9799 224.262 62.9799C224.904 62.9799 225.451 62.8063 225.902 62.4591L226.996 65.3231Z" fill="#3E54D8"/>
<path d="M246.147 66L246.121 55.065L240.758 64.0734H238.857L233.52 55.2993V66H229.562V47.775H233.051L239.872 59.1005L246.59 47.775H250.052L250.104 66H246.147ZM259.792 51.7845C261.961 51.7845 263.628 52.3052 264.791 53.3466C265.954 54.3707 266.535 55.9242 266.535 58.007V66H262.734V64.2556C261.97 65.5574 260.547 66.2083 258.464 66.2083C257.388 66.2083 256.451 66.026 255.652 65.6615C254.871 65.297 254.272 64.7937 253.856 64.1515C253.439 63.5092 253.231 62.7802 253.231 61.9645C253.231 60.6627 253.717 59.6386 254.689 58.8922C255.678 58.1459 257.197 57.7727 259.245 57.7727H262.473C262.473 56.8875 262.204 56.2106 261.666 55.7419C261.128 55.2559 260.321 55.0129 259.245 55.0129C258.499 55.0129 257.761 55.1344 257.032 55.3774C256.32 55.6031 255.713 55.9155 255.209 56.3147L253.751 53.4768C254.515 52.9387 255.426 52.5222 256.485 52.2271C257.561 51.932 258.664 51.7845 259.792 51.7845ZM259.479 63.4745C260.174 63.4745 260.79 63.3183 261.328 63.0059C261.866 62.6761 262.248 62.1988 262.473 61.5739V60.142H259.688C258.021 60.142 257.188 60.6887 257.188 61.7822C257.188 62.3029 257.388 62.7195 257.787 63.0319C258.204 63.327 258.768 63.4745 259.479 63.4745ZM274.09 53.8413C274.576 53.1644 275.227 52.6524 276.043 52.3052C276.876 51.9581 277.831 51.7845 278.907 51.7845V55.5336C278.456 55.4989 278.152 55.4816 277.996 55.4816C276.833 55.4816 275.921 55.8114 275.262 56.4709C274.602 57.1131 274.273 58.0851 274.273 59.3869V66H270.211V51.9928H274.09V53.8413ZM287.336 60.5065L285.383 62.4331V66H281.322V46.6815H285.383V57.6165L291.32 51.9928H296.162L290.33 57.9289L296.683 66H291.762L287.336 60.5065ZM311.62 59.0485C311.62 59.1005 311.594 59.465 311.542 60.142H300.946C301.136 61.0098 301.588 61.6954 302.299 62.1988C303.011 62.7021 303.896 62.9538 304.955 62.9538C305.684 62.9538 306.326 62.8497 306.882 62.6414C307.454 62.4157 307.984 62.0686 308.47 61.6L310.631 63.9432C309.312 65.4532 307.385 66.2083 304.851 66.2083C303.271 66.2083 301.874 65.9045 300.659 65.297C299.444 64.6722 298.507 63.813 297.847 62.7195C297.188 61.626 296.858 60.385 296.858 58.9964C296.858 57.6252 297.179 56.3928 297.821 55.2993C298.481 54.1885 299.375 53.3293 300.503 52.7218C301.648 52.0969 302.924 51.7845 304.33 51.7845C305.701 51.7845 306.942 52.0796 308.053 52.6697C309.164 53.2599 310.032 54.1104 310.657 55.2212C311.299 56.3147 311.62 57.5905 311.62 59.0485ZM304.356 54.8567C303.436 54.8567 302.664 55.1171 302.039 55.6378C301.414 56.1585 301.032 56.8701 300.893 57.7727H307.793C307.654 56.8875 307.272 56.1845 306.647 55.6638C306.022 55.1257 305.259 54.8567 304.356 54.8567ZM323.359 65.3231C322.959 65.6181 322.465 65.8438 321.875 66C321.302 66.1389 320.694 66.2083 320.052 66.2083C318.386 66.2083 317.093 65.783 316.173 64.9325C315.27 64.082 314.819 62.8323 314.819 61.1834V55.4295H312.658V52.3052H314.819V48.8945H318.88V52.3052H322.369V55.4295H318.88V61.1313C318.88 61.7215 319.028 62.1814 319.323 62.5112C319.635 62.8236 320.069 62.9799 320.625 62.9799C321.267 62.9799 321.814 62.8063 322.265 62.4591L323.359 65.3231Z" fill="#ED6373"/>
</g>
<path d="M170.645 76.0054V81.0679H170.117V76.4682H166.914V81.0679H166.386V76.0054H170.645ZM175.196 77.2638V81.0679H174.682V77.7194H172.86L172.809 78.6596C172.771 79.4503 172.679 80.0578 172.534 80.4821C172.39 80.9064 172.132 81.1185 171.76 81.1185C171.659 81.1185 171.536 81.0992 171.392 81.0606L171.428 80.6195C171.515 80.6388 171.575 80.6484 171.609 80.6484C171.806 80.6484 171.956 80.5568 172.057 80.3736C172.158 80.1904 172.226 79.9638 172.259 79.6938C172.293 79.4238 172.322 79.067 172.346 78.6234L172.411 77.2638H175.196ZM177.82 77.2348C178.316 77.2348 178.697 77.3602 178.962 77.6109C179.228 77.8568 179.36 78.2232 179.36 78.7102V81.0679H178.868V80.4748C178.753 80.6725 178.582 80.8268 178.355 80.9377C178.133 81.0486 177.868 81.104 177.559 81.104C177.135 81.104 176.798 81.0028 176.547 80.8003C176.296 80.5978 176.171 80.3302 176.171 79.9975C176.171 79.6745 176.287 79.4141 176.518 79.2164C176.754 79.0188 177.128 78.9199 177.639 78.9199H178.847V78.6885C178.847 78.3606 178.755 78.1123 178.572 77.9436C178.389 77.77 178.121 77.6832 177.769 77.6832C177.528 77.6832 177.297 77.7242 177.075 77.8062C176.853 77.8833 176.663 77.9918 176.504 78.1316L176.272 77.7483C176.465 77.5844 176.696 77.459 176.966 77.3722C177.236 77.2806 177.521 77.2348 177.82 77.2348ZM177.639 80.699C177.928 80.699 178.177 80.6339 178.384 80.5038C178.591 80.3688 178.746 80.1759 178.847 79.9252V79.3032H177.653C177.003 79.3032 176.677 79.5298 176.677 79.983C176.677 80.2048 176.762 80.3808 176.93 80.511C177.099 80.6364 177.335 80.699 177.639 80.699ZM183.258 77.7194H181.819V81.0679H181.306V77.7194H179.867V77.2638H183.258V77.7194ZM188.272 79.1586C188.272 79.7516 188.077 80.2169 187.686 80.5544C187.296 80.8919 186.744 81.0751 186.03 81.104V82.4709H185.531V81.1113C184.822 81.0823 184.273 80.8991 183.882 80.5616C183.496 80.2193 183.304 79.7516 183.304 79.1586C183.304 78.5704 183.496 78.1099 183.882 77.7772C184.273 77.4446 184.822 77.2638 185.531 77.2348V75.7016H186.03V77.2348C186.744 77.2686 187.296 77.4518 187.686 77.7845C188.077 78.1172 188.272 78.5752 188.272 79.1586ZM183.81 79.1586C183.81 79.6118 183.954 79.9662 184.244 80.2217C184.538 80.4772 184.967 80.6219 185.531 80.6556V77.6905C184.972 77.7194 184.545 77.8616 184.251 78.1172C183.957 78.3679 183.81 78.715 183.81 79.1586ZM186.03 80.6556C186.594 80.6267 187.023 80.4845 187.317 80.2289C187.616 79.9734 187.766 79.6166 187.766 79.1586C187.766 78.7102 187.616 78.3606 187.317 78.1099C187.023 77.8592 186.594 77.7194 186.03 77.6905V80.6556ZM190.783 81.104C190.416 81.104 190.086 81.0221 189.792 80.8581C189.498 80.6894 189.266 80.458 189.098 80.1639C188.929 79.8697 188.845 79.5371 188.845 79.1658C188.845 78.7946 188.929 78.4619 189.098 78.1678C189.266 77.8737 189.498 77.6447 189.792 77.4807C190.086 77.3168 190.416 77.2348 190.783 77.2348C191.149 77.2348 191.479 77.3168 191.774 77.4807C192.068 77.6447 192.297 77.8737 192.461 78.1678C192.629 78.4619 192.714 78.7946 192.714 79.1658C192.714 79.5371 192.629 79.8697 192.461 80.1639C192.297 80.458 192.068 80.6894 191.774 80.8581C191.479 81.0221 191.149 81.104 190.783 81.104ZM190.783 80.6484C191.053 80.6484 191.294 80.5881 191.506 80.4676C191.723 80.3422 191.892 80.1663 192.012 79.9397C192.133 79.713 192.193 79.4551 192.193 79.1658C192.193 78.8765 192.133 78.6186 192.012 78.392C191.892 78.1654 191.723 77.9918 191.506 77.8713C191.294 77.7459 191.053 77.6832 190.783 77.6832C190.513 77.6832 190.269 77.7459 190.052 77.8713C189.84 77.9918 189.671 78.1654 189.546 78.392C189.426 78.6186 189.365 78.8765 189.365 79.1658C189.365 79.4551 189.426 79.713 189.546 79.9397C189.671 80.1663 189.84 80.3422 190.052 80.4676C190.269 80.5881 190.513 80.6484 190.783 80.6484ZM195.626 77.2348C195.983 77.2348 196.306 77.3168 196.596 77.4807C196.885 77.6398 197.111 77.8664 197.275 78.1605C197.439 78.4547 197.521 78.7897 197.521 79.1658C197.521 79.5467 197.439 79.8842 197.275 80.1783C197.111 80.4724 196.885 80.7014 196.596 80.8654C196.311 81.0245 195.988 81.104 195.626 81.104C195.318 81.104 195.038 81.0414 194.787 80.916C194.542 80.7858 194.339 80.5978 194.18 80.3519V82.4709H193.667V77.2638H194.158V78.0159C194.313 77.7652 194.515 77.5723 194.766 77.4373C195.021 77.3023 195.308 77.2348 195.626 77.2348ZM195.59 80.6484C195.855 80.6484 196.097 80.5881 196.313 80.4676C196.53 80.3422 196.699 80.1663 196.82 79.9397C196.945 79.713 197.008 79.4551 197.008 79.1658C197.008 78.8765 196.945 78.621 196.82 78.3992C196.699 78.1726 196.53 77.9966 196.313 77.8713C196.097 77.7459 195.855 77.6832 195.59 77.6832C195.32 77.6832 195.077 77.7459 194.86 77.8713C194.648 77.9966 194.479 78.1726 194.354 78.3992C194.233 78.621 194.173 78.8765 194.173 79.1658C194.173 79.4551 194.233 79.713 194.354 79.9397C194.479 80.1663 194.648 80.3422 194.86 80.4676C195.077 80.5881 195.32 80.6484 195.59 80.6484ZM202.732 77.2638V81.0679H202.262V78.0593L200.722 80.605H200.49L198.95 78.0521V81.0679H198.48V77.2638H199.001L200.613 80.0047L202.255 77.2638H202.732ZM205.358 77.2348C205.855 77.2348 206.235 77.3602 206.501 77.6109C206.766 77.8568 206.898 78.2232 206.898 78.7102V81.0679H206.407V80.4748C206.291 80.6725 206.12 80.8268 205.893 80.9377C205.671 81.0486 205.406 81.104 205.098 81.104C204.673 81.104 204.336 81.0028 204.085 80.8003C203.834 80.5978 203.709 80.3302 203.709 79.9975C203.709 79.6745 203.825 79.4141 204.056 79.2164C204.292 79.0188 204.666 78.9199 205.177 78.9199H206.385V78.6885C206.385 78.3606 206.293 78.1123 206.11 77.9436C205.927 77.77 205.659 77.6832 205.307 77.6832C205.066 77.6832 204.835 77.7242 204.613 77.8062C204.391 77.8833 204.201 77.9918 204.042 78.1316L203.81 77.7483C204.003 77.5844 204.235 77.459 204.505 77.3722C204.775 77.2806 205.059 77.2348 205.358 77.2348ZM205.177 80.699C205.466 80.699 205.715 80.6339 205.922 80.5038C206.129 80.3688 206.284 80.1759 206.385 79.9252V79.3032H205.192C204.541 79.3032 204.215 79.5298 204.215 79.983C204.215 80.2048 204.3 80.3808 204.468 80.511C204.637 80.6364 204.873 80.699 205.177 80.699ZM207.824 78.8838H209.719V79.3322H207.824V78.8838ZM214.151 77.2638V81.0679H213.638V77.7194H211.251V81.0679H210.737V77.2638H214.151ZM217.035 81.104C216.669 81.104 216.339 81.0221 216.045 80.8581C215.751 80.6894 215.519 80.458 215.35 80.1639C215.182 79.8697 215.097 79.5371 215.097 79.1658C215.097 78.7946 215.182 78.4619 215.35 78.1678C215.519 77.8737 215.751 77.6447 216.045 77.4807C216.339 77.3168 216.669 77.2348 217.035 77.2348C217.402 77.2348 217.732 77.3168 218.026 77.4807C218.32 77.6447 218.549 77.8737 218.713 78.1678C218.882 78.4619 218.966 78.7946 218.966 79.1658C218.966 79.5371 218.882 79.8697 218.713 80.1639C218.549 80.458 218.32 80.6894 218.026 80.8581C217.732 81.0221 217.402 81.104 217.035 81.104ZM217.035 80.6484C217.305 80.6484 217.547 80.5881 217.759 80.4676C217.976 80.3422 218.144 80.1663 218.265 79.9397C218.385 79.713 218.446 79.4551 218.446 79.1658C218.446 78.8765 218.385 78.6186 218.265 78.392C218.144 78.1654 217.976 77.9918 217.759 77.8713C217.547 77.7459 217.305 77.6832 217.035 77.6832C216.765 77.6832 216.522 77.7459 216.305 77.8713C216.093 77.9918 215.924 78.1654 215.799 78.392C215.678 78.6186 215.618 78.8765 215.618 79.1658C215.618 79.4551 215.678 79.713 215.799 79.9397C215.924 80.1663 216.093 80.3422 216.305 80.4676C216.522 80.5881 216.765 80.6484 217.035 80.6484ZM224.172 77.2638V81.0679H223.702V78.0593L222.161 80.605H221.93L220.389 78.0521V81.0679H219.919V77.2638H220.44L222.053 80.0047L223.694 77.2638H224.172ZM227.058 81.104C226.691 81.104 226.361 81.0221 226.067 80.8581C225.773 80.6894 225.541 80.458 225.373 80.1639C225.204 79.8697 225.119 79.5371 225.119 79.1658C225.119 78.7946 225.204 78.4619 225.373 78.1678C225.541 77.8737 225.773 77.6447 226.067 77.4807C226.361 77.3168 226.691 77.2348 227.058 77.2348C227.424 77.2348 227.754 77.3168 228.048 77.4807C228.343 77.6447 228.572 77.8737 228.735 78.1678C228.904 78.4619 228.989 78.7946 228.989 79.1658C228.989 79.5371 228.904 79.8697 228.735 80.1639C228.572 80.458 228.343 80.6894 228.048 80.8581C227.754 81.0221 227.424 81.104 227.058 81.104ZM227.058 80.6484C227.328 80.6484 227.569 80.5881 227.781 80.4676C227.998 80.3422 228.167 80.1663 228.287 79.9397C228.408 79.713 228.468 79.4551 228.468 79.1658C228.468 78.8765 228.408 78.6186 228.287 78.392C228.167 78.1654 227.998 77.9918 227.781 77.8713C227.569 77.7459 227.328 77.6832 227.058 77.6832C226.788 77.6832 226.544 77.7459 226.327 77.8713C226.115 77.9918 225.946 78.1654 225.821 78.392C225.7 78.6186 225.64 78.8765 225.64 79.1658C225.64 79.4551 225.7 79.713 225.821 79.9397C225.946 80.1663 226.115 80.3422 226.327 80.4676C226.544 80.5881 226.788 80.6484 227.058 80.6484ZM235.192 77.2638V81.0679H229.941V77.2638H230.455V80.6195H232.321V77.2638H232.834V80.6195H234.678V77.2638H235.192ZM235.778 80.6195V81.8996H235.293V81.0679H234.649V80.6195H235.778ZM236.513 77.2638H237.027V78.9489H239.421V77.2638H239.934V81.0679H239.421V79.39H237.027V81.0679H236.513V77.2638ZM241.249 77.2638H241.762V80.2868L244.301 77.2638H244.757V81.0679H244.243V78.0448L241.712 81.0679H241.249V77.2638ZM247.465 79.3755H246.597V81.0679H246.083V77.2638H246.597V78.9344H247.472L248.81 77.2638H249.367L247.87 79.108L249.475 81.0679H248.868L247.465 79.3755ZM251.889 77.2638H252.403V78.9489H254.797V77.2638H255.31V81.0679H254.797V79.39H252.403V81.0679H251.889V77.2638ZM257.934 77.2348C258.43 77.2348 258.811 77.3602 259.077 77.6109C259.342 77.8568 259.474 78.2232 259.474 78.7102V81.0679H258.983V80.4748C258.867 80.6725 258.696 80.8268 258.469 80.9377C258.247 81.0486 257.982 81.104 257.674 81.104C257.249 81.104 256.912 81.0028 256.661 80.8003C256.41 80.5978 256.285 80.3302 256.285 79.9975C256.285 79.6745 256.401 79.4141 256.632 79.2164C256.868 79.0188 257.242 78.9199 257.753 78.9199H258.961V78.6885C258.961 78.3606 258.869 78.1123 258.686 77.9436C258.503 77.77 258.235 77.6832 257.883 77.6832C257.642 77.6832 257.411 77.7242 257.189 77.8062C256.967 77.8833 256.777 77.9918 256.618 78.1316L256.386 77.7483C256.579 77.5844 256.81 77.459 257.08 77.3722C257.35 77.2806 257.635 77.2348 257.934 77.2348ZM257.753 80.699C258.042 80.699 258.291 80.6339 258.498 80.5038C258.705 80.3688 258.86 80.1759 258.961 79.9252V79.3032H257.768C257.117 79.3032 256.791 79.5298 256.791 79.983C256.791 80.2048 256.876 80.3808 257.044 80.511C257.213 80.6364 257.449 80.699 257.753 80.699ZM267.985 78.5294C267.985 79.1996 267.746 79.7275 267.269 80.1132C266.796 80.4941 266.133 80.6966 265.28 80.7207V81.2414H264.781V80.7207C263.927 80.6918 263.262 80.4869 262.785 80.106C262.312 79.7251 262.076 79.1996 262.076 78.5294C262.076 77.8592 262.312 77.3337 262.785 76.9528C263.262 76.5719 263.927 76.367 264.781 76.338V75.8318H265.28V76.338C266.128 76.367 266.791 76.5743 267.269 76.96C267.746 77.3409 267.985 77.864 267.985 78.5294ZM265.28 80.294C265.979 80.2651 266.519 80.0988 266.9 79.795C267.281 79.4913 267.471 79.0694 267.471 78.5294C267.471 77.9894 267.278 77.5675 266.893 77.2638C266.512 76.96 265.974 76.7961 265.28 76.772V80.294ZM262.589 78.5294C262.589 79.0694 262.78 79.4913 263.161 79.795C263.546 80.0939 264.086 80.2603 264.781 80.294V76.772C264.077 76.8009 263.534 76.9672 263.154 77.271C262.777 77.5699 262.589 77.9894 262.589 78.5294ZM270.501 81.104C270.135 81.104 269.805 81.0221 269.511 80.8581C269.216 80.6894 268.985 80.458 268.816 80.1639C268.647 79.8697 268.563 79.5371 268.563 79.1658C268.563 78.7946 268.647 78.4619 268.816 78.1678C268.985 77.8737 269.216 77.6447 269.511 77.4807C269.805 77.3168 270.135 77.2348 270.501 77.2348C270.868 77.2348 271.198 77.3168 271.492 77.4807C271.786 77.6447 272.015 77.8737 272.179 78.1678C272.348 78.4619 272.432 78.7946 272.432 79.1658C272.432 79.5371 272.348 79.8697 272.179 80.1639C272.015 80.458 271.786 80.6894 271.492 80.8581C271.198 81.0221 270.868 81.104 270.501 81.104ZM270.501 80.6484C270.771 80.6484 271.012 80.5881 271.225 80.4676C271.441 80.3422 271.61 80.1663 271.731 79.9397C271.851 79.713 271.912 79.4551 271.912 79.1658C271.912 78.8765 271.851 78.6186 271.731 78.392C271.61 78.1654 271.441 77.9918 271.225 77.8713C271.012 77.7459 270.771 77.6832 270.501 77.6832C270.231 77.6832 269.988 77.7459 269.771 77.8713C269.559 77.9918 269.39 78.1654 269.265 78.392C269.144 78.6186 269.084 78.8765 269.084 79.1658C269.084 79.4551 269.144 79.713 269.265 79.9397C269.39 80.1663 269.559 80.3422 269.771 80.4676C269.988 80.5881 270.231 80.6484 270.501 80.6484ZM273.385 77.2638H273.899V78.9489H276.292V77.2638H276.806V81.0679H276.292V79.39H273.899V81.0679H273.385V77.2638ZM281.831 80.6195V81.9864H281.346V81.0679H277.94V81.9864H277.455V80.6195H277.672C277.928 80.605 278.101 80.417 278.193 80.0554C278.285 79.6938 278.347 79.1875 278.381 78.5366L278.432 77.2638H281.238V80.6195H281.831ZM278.851 78.5655C278.827 79.1055 278.781 79.5515 278.714 79.9035C278.646 80.2506 278.526 80.4893 278.352 80.6195H280.724V77.7194H278.895L278.851 78.5655ZM284.256 81.104C283.89 81.104 283.56 81.0221 283.265 80.8581C282.971 80.6894 282.74 80.458 282.571 80.1639C282.402 79.8697 282.318 79.5371 282.318 79.1658C282.318 78.7946 282.402 78.4619 282.571 78.1678C282.74 77.8737 282.971 77.6447 283.265 77.4807C283.56 77.3168 283.89 77.2348 284.256 77.2348C284.623 77.2348 284.953 77.3168 285.247 77.4807C285.541 77.6447 285.77 77.8737 285.934 78.1678C286.103 78.4619 286.187 78.7946 286.187 79.1658C286.187 79.5371 286.103 79.8697 285.934 80.1639C285.77 80.458 285.541 80.6894 285.247 80.8581C284.953 81.0221 284.623 81.104 284.256 81.104ZM284.256 80.6484C284.526 80.6484 284.767 80.5881 284.979 80.4676C285.196 80.3422 285.365 80.1663 285.486 79.9397C285.606 79.713 285.666 79.4551 285.666 79.1658C285.666 78.8765 285.606 78.6186 285.486 78.392C285.365 78.1654 285.196 77.9918 284.979 77.8713C284.767 77.7459 284.526 77.6832 284.256 77.6832C283.986 77.6832 283.743 77.7459 283.526 77.8713C283.314 77.9918 283.145 78.1654 283.02 78.392C282.899 78.6186 282.839 78.8765 282.839 79.1658C282.839 79.4551 282.899 79.713 283.02 79.9397C283.145 80.1663 283.314 80.3422 283.526 80.4676C283.743 80.5881 283.986 80.6484 284.256 80.6484ZM289.563 79.1007C290.079 79.2213 290.337 79.5322 290.337 80.0337C290.337 80.3664 290.214 80.6219 289.968 80.8003C289.722 80.9787 289.355 81.0679 288.868 81.0679H287.14V77.2638H288.818C289.252 77.2638 289.592 77.3481 289.838 77.5169C290.083 77.6856 290.206 77.9267 290.206 78.2401C290.206 78.4474 290.149 78.6258 290.033 78.7753C289.922 78.9199 289.765 79.0284 289.563 79.1007ZM287.639 78.9561H288.782C289.076 78.9561 289.3 78.9006 289.454 78.7897C289.613 78.6789 289.693 78.5173 289.693 78.3052C289.693 78.093 289.613 77.9339 289.454 77.8279C289.3 77.7218 289.076 77.6688 288.782 77.6688H287.639V78.9561ZM288.847 80.6629C289.175 80.6629 289.421 80.6098 289.584 80.5038C289.748 80.3977 289.83 80.2314 289.83 80.0047C289.83 79.7781 289.756 79.6118 289.606 79.5057C289.457 79.3948 289.22 79.3394 288.897 79.3394H287.639V80.6629H288.847ZM292.965 81.104C292.598 81.104 292.268 81.0221 291.974 80.8581C291.68 80.6894 291.448 80.458 291.28 80.1639C291.111 79.8697 291.027 79.5371 291.027 79.1658C291.027 78.7946 291.111 78.4619 291.28 78.1678C291.448 77.8737 291.68 77.6447 291.974 77.4807C292.268 77.3168 292.598 77.2348 292.965 77.2348C293.331 77.2348 293.661 77.3168 293.956 77.4807C294.25 77.6447 294.479 77.8737 294.643 78.1678C294.811 78.4619 294.896 78.7946 294.896 79.1658C294.896 79.5371 294.811 79.8697 294.643 80.1639C294.479 80.458 294.25 80.6894 293.956 80.8581C293.661 81.0221 293.331 81.104 292.965 81.104ZM292.965 80.6484C293.235 80.6484 293.476 80.5881 293.688 80.4676C293.905 80.3422 294.074 80.1663 294.194 79.9397C294.315 79.713 294.375 79.4551 294.375 79.1658C294.375 78.8765 294.315 78.6186 294.194 78.392C294.074 78.1654 293.905 77.9918 293.688 77.8713C293.476 77.7459 293.235 77.6832 292.965 77.6832C292.695 77.6832 292.451 77.7459 292.234 77.8713C292.022 77.9918 291.853 78.1654 291.728 78.392C291.608 78.6186 291.547 78.8765 291.547 79.1658C291.547 79.4551 291.608 79.713 291.728 79.9397C291.853 80.1663 292.022 80.3422 292.234 80.4676C292.451 80.5881 292.695 80.6484 292.965 80.6484ZM300.101 77.2638V81.0679H299.631V78.0593L298.09 80.605H297.859L296.319 78.0521V81.0679H295.849V77.2638H296.369L297.982 80.0047L299.624 77.2638H300.101ZM305.126 77.2348C305.482 77.2348 305.805 77.3168 306.095 77.4807C306.384 77.6398 306.611 77.8664 306.775 78.1605C306.938 78.4547 307.02 78.7897 307.02 79.1658C307.02 79.5467 306.938 79.8842 306.775 80.1783C306.611 80.4724 306.384 80.7014 306.095 80.8654C305.81 81.0245 305.487 81.104 305.126 81.104C304.817 81.104 304.537 81.0414 304.287 80.916C304.041 80.7858 303.838 80.5978 303.679 80.3519V82.4709H303.166V77.2638H303.657V78.0159C303.812 77.7652 304.014 77.5723 304.265 77.4373C304.52 77.3023 304.807 77.2348 305.126 77.2348ZM305.089 80.6484C305.355 80.6484 305.596 80.5881 305.813 80.4676C306.03 80.3422 306.198 80.1663 306.319 79.9397C306.444 79.713 306.507 79.4551 306.507 79.1658C306.507 78.8765 306.444 78.621 306.319 78.3992C306.198 78.1726 306.03 77.9966 305.813 77.8713C305.596 77.7459 305.355 77.6832 305.089 77.6832C304.819 77.6832 304.576 77.7459 304.359 77.8713C304.147 77.9966 303.978 78.1726 303.853 78.3992C303.732 78.621 303.672 78.8765 303.672 79.1658C303.672 79.4551 303.732 79.713 303.853 79.9397C303.978 80.1663 304.147 80.3422 304.359 80.4676C304.576 80.5881 304.819 80.6484 305.089 80.6484ZM309.577 78.6089C310.055 78.6138 310.419 78.7198 310.669 78.9272C310.92 79.1345 311.045 79.4334 311.045 79.8239C311.045 80.2289 310.91 80.5399 310.64 80.7569C310.37 80.9739 309.985 81.0799 309.483 81.0751L307.979 81.0679V77.2638H308.492V78.5945L309.577 78.6089ZM311.682 77.2638H312.195V81.0679H311.682V77.2638ZM309.454 80.6846C309.806 80.6894 310.072 80.6195 310.25 80.4748C310.433 80.3254 310.525 80.1084 310.525 79.8239C310.525 79.5443 310.436 79.337 310.257 79.202C310.079 79.067 309.811 78.9971 309.454 78.9922L308.492 78.9778V80.6701L309.454 80.6846ZM313.513 77.2638H314.026V78.9489H316.42V77.2638H316.934V81.0679H316.42V79.39H314.026V81.0679H313.513V77.2638ZM319.63 79.3755H318.762V81.0679H318.248V77.2638H318.762V78.9344H319.637L320.975 77.2638H321.532L320.035 79.108L321.64 81.0679H321.033L319.63 79.3755ZM325.499 79.3249H322.316C322.345 79.7203 322.497 80.0409 322.772 80.2868C323.047 80.5279 323.394 80.6484 323.814 80.6484C324.05 80.6484 324.267 80.6074 324.464 80.5255C324.662 80.4387 324.833 80.3133 324.978 80.1494L325.267 80.4821C325.098 80.6846 324.886 80.8389 324.631 80.9449C324.38 81.051 324.103 81.104 323.799 81.104C323.409 81.104 323.061 81.0221 322.758 80.8581C322.459 80.6894 322.225 80.458 322.056 80.1639C321.887 79.8697 321.803 79.5371 321.803 79.1658C321.803 78.7946 321.883 78.4619 322.042 78.1678C322.206 77.8737 322.427 77.6447 322.707 77.4807C322.991 77.3168 323.31 77.2348 323.662 77.2348C324.014 77.2348 324.329 77.3168 324.609 77.4807C324.889 77.6447 325.108 77.8737 325.267 78.1678C325.426 78.4571 325.506 78.7897 325.506 79.1658L325.499 79.3249ZM323.662 77.676C323.295 77.676 322.987 77.7941 322.736 78.0304C322.49 78.2618 322.35 78.5655 322.316 78.9416H325.014C324.98 78.5655 324.838 78.2618 324.587 78.0304C324.341 77.7941 324.033 77.676 323.662 77.676Z" fill="#373943"/>
<circle cx="375" cy="47" r="3" fill="#199F27"/>
<path d="M367.147 62.3749C367.145 61.3372 367.349 60.3094 367.747 59.3509C368.144 58.3923 368.728 57.522 369.463 56.7899C370.199 56.0579 371.072 55.4787 372.033 55.0857C372.993 54.6927 374.022 54.4937 375.059 54.5002C379.39 54.5323 382.853 58.1315 382.853 62.4738V63.2499C382.853 67.1673 383.673 69.4404 384.395 70.6829C384.472 70.8156 384.514 70.9665 384.514 71.1204C384.515 71.2742 384.476 71.4256 384.399 71.5591C384.323 71.6927 384.213 71.8038 384.08 71.8812C383.947 71.9586 383.796 71.9995 383.642 71.9999H366.357C366.203 71.9995 366.052 71.9586 365.919 71.8812C365.786 71.8038 365.676 71.6926 365.6 71.559C365.523 71.4254 365.484 71.2741 365.484 71.1202C365.485 70.9663 365.527 70.8154 365.604 70.6827C366.327 69.4402 367.147 67.1671 367.147 63.2499L367.147 62.3749Z" stroke="#8C9BEA" stroke-width="1.75" stroke-linecap="round" stroke-linejoin="round"/>
<path d="M371.5 72V72.875C371.5 73.8033 371.869 74.6935 372.525 75.3499C373.182 76.0063 374.072 76.375 375 76.375C375.928 76.375 376.818 76.0063 377.475 75.3499C378.131 74.6935 378.5 73.8033 378.5 72.875V72" stroke="#8C9BEA" stroke-width="1.75" stroke-linecap="round" stroke-linejoin="round"/>
</g>
<rect x="72.5" y="28.5" width="373" height="373" rx="35.5" stroke="#D3E3FF"/>
</g>
<defs>
<filter id="filter0_d" x="0" y="0" width="518" height="518" filterUnits="userSpaceOnUse" color-interpolation-filters="sRGB">
<feFlood flood-opacity="0" result="BackgroundImageFix"/>
<feColorMatrix in="SourceAlpha" type="matrix" values="0 0 0 0 0 0 0 0 0 0 0 0 0 0 0 0 0 0 127 0"/>
<feMorphology radius="17" operator="erode" in="SourceAlpha" result="effect1_dropShadow"/>
<feOffset dy="44"/>
<feGaussianBlur stdDeviation="44.5"/>
<feColorMatrix type="matrix" values="0 0 0 0 0.243137 0 0 0 0 0.329412 0 0 0 0 0.847059 0 0 0 0.06 0"/>
<feBlend mode="normal" in2="BackgroundImageFix" result="effect1_dropShadow"/>
<feBlend mode="normal" in="SourceGraphic" in2="effect1_dropShadow" result="shape"/>
</filter>
<filter id="filter1_d" x="65" y="28" width="389" height="87" filterUnits="userSpaceOnUse" color-interpolation-filters="sRGB">
<feFlood flood-opacity="0" result="BackgroundImageFix"/>
<feColorMatrix in="SourceAlpha" type="matrix" values="0 0 0 0 0 0 0 0 0 0 0 0 0 0 0 0 0 0 127 0"/>
<feMorphology radius="13" operator="erode" in="SourceAlpha" result="effect1_dropShadow"/>
<feOffset dy="10"/>
<feGaussianBlur stdDeviation="10"/>
<feColorMatrix type="matrix" values="0 0 0 0 0.243137 0 0 0 0 0.329412 0 0 0 0 0.847059 0 0 0 0.21 0"/>
<feBlend mode="normal" in2="BackgroundImageFix" result="effect1_dropShadow"/>
<feBlend mode="normal" in="SourceGraphic" in2="effect1_dropShadow" result="shape"/>
</filter>
<linearGradient id="paint0_linear" x1="259.5" y1="-21.6087" x2="259.5" y2="98" gradientUnits="userSpaceOnUse">
<stop stop-color="white"/>
<stop offset="1" stop-color="white" stop-opacity="0"/>
</linearGradient>
<clipPath id="clip0">
<rect x="72" y="28" width="374" height="374" rx="36" fill="white"/>
</clipPath>
<clipPath id="clip1">
<rect width="28" height="28" fill="white" transform="translate(403 49)"/>
</clipPath>
</defs>
</svg>
