<svg width="70" height="70" viewBox="0 0 70 70" fill="none" xmlns="http://www.w3.org/2000/svg">
<rect width="70" height="70" rx="15" fill="#E0DCEF"/>
<path d="M23 24.6499H42.5H45.5V23.1499C45.5 22.3249 44.825 21.6499 44 21.6499H21.5C20.675 21.6499 20 22.3249 20 23.1499V40.3999C20 41.2249 20.675 41.8999 21.5 41.8999H30.35L29.825 44.8999H27.05C26.45 44.8999 25.925 45.4249 25.925 46.0249C25.925 46.6249 26.45 47.1499 27.05 47.1499H34.55V38.8999H23V24.6499ZM47.75 26.5999H39.5C37.85 26.5999 36.5 27.9499 36.5 29.5999V46.0999C36.5 47.7499 37.85 49.0999 39.5 49.0999H47.75C49.4 49.0999 50.75 47.7499 50.75 46.0999V29.5999C50.75 27.8749 49.4 26.5999 47.75 26.5999ZM44.15 47.1499H43.025C42.425 47.1499 41.9 46.6249 41.9 46.0249C41.9 45.4249 42.425 44.8999 43.025 44.8999H44.15C44.75 44.8999 45.275 45.4249 45.275 46.0249C45.275 46.6999 44.825 47.1499 44.15 47.1499ZM48.35 42.5749C48.35 43.0249 48.05 43.3249 47.6 43.3249H39.65C39.2 43.3249 38.9 43.0249 38.9 42.5749V30.4999C38.9 30.0499 39.2 29.7499 39.65 29.7499H47.6C48.05 29.7499 48.35 30.0499 48.35 30.4999V42.5749Z" fill="#DE4355"/>
</svg>
