<svg width="518" height="518" viewBox="0 0 518 518" fill="none" xmlns="http://www.w3.org/2000/svg">
<g filter="url(#filter0_d)">
<g clip-path="url(#clip0)">
<rect x="72" y="28" width="374" height="374" rx="36" fill="white"/>
<path d="M73.0389 122.873H446.959V189.567H73.0389V122.873Z" fill="#F5F6FD" stroke="#D3E3FF" stroke-width="1.09333"/>
<path d="M73.0389 339.353H446.959V406.047H73.0389V339.353Z" fill="#F5F6FD" stroke="#D3E3FF" stroke-width="1.09333"/>
<path d="M99.6232 160.176V162.1H90.5966V160.578L95.4598 155.96C96.0079 155.435 96.3753 154.98 96.5619 154.595C96.7601 154.199 96.8593 153.808 96.8593 153.423C96.8593 152.852 96.6668 152.415 96.282 152.111C95.8971 151.808 95.3315 151.657 94.5851 151.657C93.3373 151.657 92.381 152.082 91.7162 152.934L90.1243 151.709C90.6025 151.068 91.2439 150.572 92.0486 150.222C92.8649 149.861 93.7746 149.68 94.7775 149.68C96.107 149.68 97.1683 149.995 97.9613 150.624C98.7544 151.254 99.1509 152.111 99.1509 153.196C99.1509 153.861 99.0109 154.485 98.731 155.068C98.4511 155.651 97.9147 156.316 97.1217 157.062L93.8504 160.176H99.6232ZM105.993 162.275C105.013 162.275 104.138 162.03 103.369 161.54C102.599 161.039 101.992 160.316 101.549 159.371C101.106 158.415 100.884 157.284 100.884 155.977C100.884 154.671 101.106 153.546 101.549 152.601C101.992 151.645 102.599 150.922 103.369 150.432C104.138 149.931 105.013 149.68 105.993 149.68C106.972 149.68 107.847 149.931 108.617 150.432C109.398 150.922 110.01 151.645 110.453 152.601C110.897 153.546 111.118 154.671 111.118 155.977C111.118 157.284 110.897 158.415 110.453 159.371C110.01 160.316 109.398 161.039 108.617 161.54C107.847 162.03 106.972 162.275 105.993 162.275ZM105.993 160.298C106.867 160.298 107.555 159.937 108.057 159.214C108.57 158.491 108.826 157.412 108.826 155.977C108.826 154.543 108.57 153.464 108.057 152.741C107.555 152.018 106.867 151.657 105.993 151.657C105.13 151.657 104.441 152.018 103.928 152.741C103.427 153.464 103.176 154.543 103.176 155.977C103.176 157.412 103.427 158.491 103.928 159.214C104.441 159.937 105.13 160.298 105.993 160.298ZM113.814 162.223C113.418 162.223 113.08 162.088 112.8 161.82C112.52 161.54 112.38 161.19 112.38 160.771C112.38 160.339 112.514 159.989 112.782 159.721C113.062 159.453 113.406 159.319 113.814 159.319C114.223 159.319 114.561 159.453 114.829 159.721C115.109 159.989 115.249 160.339 115.249 160.771C115.249 161.19 115.109 161.54 114.829 161.82C114.549 162.088 114.211 162.223 113.814 162.223ZM120.698 149.855V162.1H118.424V151.762H115.835V149.855H120.698ZM127.36 149.855V162.1H125.086V151.762H122.497V149.855H127.36ZM131.154 162.223C130.757 162.223 130.419 162.088 130.139 161.82C129.859 161.54 129.72 161.19 129.72 160.771C129.72 160.339 129.854 159.989 130.122 159.721C130.402 159.453 130.746 159.319 131.154 159.319C131.562 159.319 131.9 159.453 132.169 159.721C132.448 159.989 132.588 160.339 132.588 160.771C132.588 161.19 132.448 161.54 132.169 161.82C131.889 162.088 131.55 162.223 131.154 162.223ZM143.1 160.176V162.1H134.074V160.578L138.937 155.96C139.485 155.435 139.852 154.98 140.039 154.595C140.237 154.199 140.336 153.808 140.336 153.423C140.336 152.852 140.144 152.415 139.759 152.111C139.374 151.808 138.809 151.657 138.062 151.657C136.814 151.657 135.858 152.082 135.193 152.934L133.601 151.709C134.08 151.068 134.721 150.572 135.526 150.222C136.342 149.861 137.252 149.68 138.255 149.68C139.584 149.68 140.645 149.995 141.438 150.624C142.231 151.254 142.628 152.111 142.628 153.196C142.628 153.861 142.488 154.485 142.208 155.068C141.928 155.651 141.392 156.316 140.599 157.062L137.327 160.176H143.1ZM149.47 162.275C148.49 162.275 147.615 162.03 146.846 161.54C146.076 161.039 145.469 160.316 145.026 159.371C144.583 158.415 144.362 157.284 144.362 155.977C144.362 154.671 144.583 153.546 145.026 152.601C145.469 151.645 146.076 150.922 146.846 150.432C147.615 149.931 148.49 149.68 149.47 149.68C150.449 149.68 151.324 149.931 152.094 150.432C152.875 150.922 153.487 151.645 153.93 152.601C154.374 153.546 154.595 154.671 154.595 155.977C154.595 157.284 154.374 158.415 153.93 159.371C153.487 160.316 152.875 161.039 152.094 161.54C151.324 162.03 150.449 162.275 149.47 162.275ZM149.47 160.298C150.344 160.298 151.032 159.937 151.534 159.214C152.047 158.491 152.304 157.412 152.304 155.977C152.304 154.543 152.047 153.464 151.534 152.741C151.032 152.018 150.344 151.657 149.47 151.657C148.607 151.657 147.919 152.018 147.405 152.741C146.904 153.464 146.653 154.543 146.653 155.977C146.653 157.412 146.904 158.491 147.405 159.214C147.919 159.937 148.607 160.298 149.47 160.298ZM164.916 160.176V162.1H155.889V160.578L160.752 155.96C161.3 155.435 161.668 154.98 161.854 154.595C162.053 154.199 162.152 153.808 162.152 153.423C162.152 152.852 161.959 152.415 161.574 152.111C161.19 151.808 160.624 151.657 159.878 151.657C158.63 151.657 157.673 152.082 157.009 152.934L155.417 151.709C155.895 151.068 156.536 150.572 157.341 150.222C158.157 149.861 159.067 149.68 160.07 149.68C161.4 149.68 162.461 149.995 163.254 150.624C164.047 151.254 164.443 152.111 164.443 153.196C164.443 153.861 164.303 154.485 164.024 155.068C163.744 155.651 163.207 156.316 162.414 157.062L159.143 160.176H164.916ZM170.462 149.855V162.1H168.188V151.762H165.598V149.855H170.462Z" fill="#373943"/>
<path d="M94.9875 366.335V378.58H92.7133V368.242H90.1243V366.335H94.9875ZM101.545 366.16C103.224 366.16 104.525 366.685 105.446 367.734C106.379 368.784 106.845 370.288 106.845 372.247C106.845 373.624 106.595 374.802 106.093 375.781C105.592 376.749 104.886 377.49 103.977 378.003C103.079 378.504 102.035 378.755 100.845 378.755C100.216 378.755 99.6207 378.691 99.061 378.563C98.5128 378.423 98.0347 378.224 97.6265 377.968L98.4662 376.253C99.0726 376.65 99.8482 376.848 100.793 376.848C101.971 376.848 102.892 376.487 103.557 375.764C104.221 375.041 104.554 373.997 104.554 372.632V372.615C104.192 373.035 103.732 373.355 103.172 373.577C102.612 373.787 101.982 373.892 101.283 373.892C100.478 373.892 99.7549 373.74 99.1134 373.437C98.472 373.122 97.9705 372.679 97.609 372.108C97.2475 371.536 97.0667 370.877 97.0667 370.131C97.0667 369.338 97.265 368.644 97.6615 368.049C98.058 367.443 98.5945 366.976 99.2709 366.65C99.9473 366.323 100.705 366.16 101.545 366.16ZM101.72 372.108C102.455 372.108 103.049 371.909 103.504 371.513C103.971 371.116 104.204 370.615 104.204 370.008C104.204 369.414 103.977 368.924 103.522 368.539C103.079 368.142 102.46 367.944 101.667 367.944C100.956 367.944 100.379 368.137 99.9356 368.521C99.4925 368.895 99.2709 369.396 99.2709 370.026C99.2709 370.667 99.4925 371.175 99.9356 371.548C100.379 371.921 100.974 372.108 101.72 372.108ZM109.544 378.703C109.147 378.703 108.809 378.568 108.529 378.3C108.249 378.02 108.109 377.67 108.109 377.251C108.109 376.819 108.243 376.469 108.511 376.201C108.791 375.933 109.135 375.799 109.544 375.799C109.952 375.799 110.29 375.933 110.558 376.201C110.838 376.469 110.978 376.819 110.978 377.251C110.978 377.67 110.838 378.02 110.558 378.3C110.278 378.568 109.94 378.703 109.544 378.703ZM116.427 366.335V378.58H114.153V368.242H111.564V366.335H116.427ZM123.09 366.335V378.58H120.815V368.242H118.226V366.335H123.09ZM126.883 378.703C126.487 378.703 126.148 378.568 125.869 378.3C125.589 378.02 125.449 377.67 125.449 377.251C125.449 376.819 125.583 376.469 125.851 376.201C126.131 375.933 126.475 375.799 126.883 375.799C127.291 375.799 127.63 375.933 127.898 376.201C128.178 376.469 128.318 376.819 128.318 377.251C128.318 377.67 128.178 378.02 127.898 378.3C127.618 378.568 127.28 378.703 126.883 378.703ZM138.829 376.656V378.58H129.803V377.058L134.666 372.44C135.214 371.915 135.582 371.46 135.768 371.075C135.966 370.679 136.066 370.288 136.066 369.903C136.066 369.332 135.873 368.895 135.488 368.591C135.103 368.288 134.538 368.137 133.791 368.137C132.544 368.137 131.587 368.562 130.922 369.414L129.331 368.189C129.809 367.548 130.45 367.052 131.255 366.702C132.071 366.341 132.981 366.16 133.984 366.16C135.313 366.16 136.375 366.475 137.168 367.104C137.961 367.734 138.357 368.591 138.357 369.676C138.357 370.341 138.217 370.965 137.937 371.548C137.657 372.131 137.121 372.796 136.328 373.542L133.057 376.656H138.829ZM145.199 378.755C144.219 378.755 143.345 378.51 142.575 378.02C141.805 377.519 141.199 376.796 140.755 375.851C140.312 374.895 140.091 373.764 140.091 372.457C140.091 371.151 140.312 370.026 140.755 369.081C141.199 368.125 141.805 367.402 142.575 366.912C143.345 366.411 144.219 366.16 145.199 366.16C146.178 366.16 147.053 366.411 147.823 366.912C148.604 367.402 149.216 368.125 149.66 369.081C150.103 370.026 150.324 371.151 150.324 372.457C150.324 373.764 150.103 374.895 149.66 375.851C149.216 376.796 148.604 377.519 147.823 378.02C147.053 378.51 146.178 378.755 145.199 378.755ZM145.199 376.778C146.073 376.778 146.762 376.417 147.263 375.694C147.776 374.971 148.033 373.892 148.033 372.457C148.033 371.023 147.776 369.944 147.263 369.221C146.762 368.498 146.073 368.137 145.199 368.137C144.336 368.137 143.648 368.498 143.135 369.221C142.633 369.944 142.382 371.023 142.382 372.457C142.382 373.892 142.633 374.971 143.135 375.694C143.648 376.417 144.336 376.778 145.199 376.778ZM160.645 376.656V378.58H151.618V377.058L156.481 372.44C157.03 371.915 157.397 371.46 157.584 371.075C157.782 370.679 157.881 370.288 157.881 369.903C157.881 369.332 157.688 368.895 157.304 368.591C156.919 368.288 156.353 368.137 155.607 368.137C154.359 368.137 153.403 368.562 152.738 369.414L151.146 368.189C151.624 367.548 152.266 367.052 153.07 366.702C153.887 366.341 154.796 366.16 155.799 366.16C157.129 366.16 158.19 366.475 158.983 367.104C159.776 367.734 160.173 368.591 160.173 369.676C160.173 370.341 160.033 370.965 159.753 371.548C159.473 372.131 158.936 372.796 158.143 373.542L154.872 376.656H160.645ZM166.191 366.335V378.58H163.917V368.242H161.328V366.335H166.191Z" fill="#373943"/>
<path d="M100.758 221.607L100.744 214.358L97.1479 220.399H96.4941L92.8981 214.401V221.607H91.5336V211.658H92.6991L96.8494 218.651L100.943 211.658H102.108L102.123 221.607H100.758ZM108.219 221.692C107.47 221.692 106.797 221.526 106.2 221.195C105.603 220.863 105.134 220.408 104.793 219.83C104.461 219.243 104.296 218.579 104.296 217.84C104.296 217.101 104.461 216.443 104.793 215.865C105.134 215.277 105.603 214.822 106.2 214.5C106.797 214.169 107.47 214.003 108.219 214.003C108.967 214.003 109.635 214.169 110.223 214.5C110.82 214.822 111.284 215.277 111.616 215.865C111.957 216.443 112.127 217.101 112.127 217.84C112.127 218.579 111.957 219.243 111.616 219.83C111.284 220.408 110.82 220.863 110.223 221.195C109.635 221.526 108.967 221.692 108.219 221.692ZM108.219 220.498C108.702 220.498 109.133 220.389 109.512 220.171C109.9 219.944 110.204 219.631 110.422 219.233C110.64 218.826 110.749 218.362 110.749 217.84C110.749 217.319 110.64 216.86 110.422 216.462C110.204 216.054 109.9 215.742 109.512 215.524C109.133 215.306 108.702 215.197 108.219 215.197C107.735 215.197 107.299 215.306 106.911 215.524C106.532 215.742 106.229 216.054 106.001 216.462C105.783 216.86 105.674 217.319 105.674 217.84C105.674 218.362 105.783 218.826 106.001 219.233C106.229 219.631 106.532 219.944 106.911 220.171C107.299 220.389 107.735 220.498 108.219 220.498ZM114.098 214.074H115.462V217.272H119.754V214.074H121.119V221.607H119.754V218.452H115.462V221.607H114.098V214.074ZM130.58 217.883C130.58 217.987 130.571 218.125 130.552 218.295H124.44C124.525 218.959 124.814 219.494 125.307 219.901C125.809 220.299 126.43 220.498 127.169 220.498C128.069 220.498 128.794 220.195 129.344 219.589L130.097 220.47C129.756 220.868 129.329 221.171 128.818 221.38C128.316 221.588 127.752 221.692 127.126 221.692C126.33 221.692 125.624 221.531 125.009 221.209C124.393 220.877 123.914 220.418 123.573 219.83C123.241 219.243 123.076 218.579 123.076 217.84C123.076 217.111 123.237 216.452 123.559 215.865C123.89 215.277 124.341 214.822 124.909 214.5C125.487 214.169 126.136 214.003 126.856 214.003C127.576 214.003 128.216 214.169 128.775 214.5C129.344 214.822 129.784 215.277 130.097 215.865C130.419 216.452 130.58 217.125 130.58 217.883ZM126.856 215.154C126.203 215.154 125.653 215.353 125.208 215.751C124.772 216.149 124.516 216.67 124.44 217.315H129.273C129.197 216.68 128.936 216.163 128.491 215.765C128.055 215.358 127.51 215.154 126.856 215.154ZM137.992 215.268H135.235V221.607H133.87V215.268H131.113V214.074H137.992V215.268ZM142.074 214.003C143.116 214.003 143.912 214.259 144.461 214.77C145.02 215.282 145.3 216.045 145.3 217.059V221.607H144.007V220.612C143.779 220.963 143.452 221.233 143.026 221.422C142.609 221.602 142.111 221.692 141.533 221.692C140.69 221.692 140.013 221.488 139.501 221.081C138.999 220.674 138.748 220.138 138.748 219.475C138.748 218.812 138.989 218.281 139.473 217.883C139.956 217.476 140.723 217.272 141.775 217.272H143.936V217.002C143.936 216.414 143.765 215.964 143.424 215.652C143.083 215.339 142.581 215.183 141.917 215.183C141.472 215.183 141.036 215.258 140.61 215.41C140.183 215.552 139.823 215.746 139.529 215.993L138.961 214.969C139.349 214.657 139.814 214.42 140.354 214.259C140.894 214.088 141.467 214.003 142.074 214.003ZM141.761 220.64C142.282 220.64 142.732 220.527 143.111 220.299C143.49 220.062 143.765 219.731 143.936 219.304V218.253H141.832C140.676 218.253 140.098 218.641 140.098 219.418C140.098 219.797 140.245 220.096 140.539 220.314C140.832 220.531 141.24 220.64 141.761 220.64Z" fill="#606371"/>
<path d="M278.547 220.37V223.867H277.225V221.607H268.655V211.658H270.062V220.37H275.605V211.658H277.012V220.37H278.547ZM286.853 217.883C286.853 217.987 286.844 218.125 286.825 218.295H280.713C280.798 218.959 281.087 219.494 281.58 219.901C282.082 220.299 282.703 220.498 283.442 220.498C284.342 220.498 285.067 220.195 285.617 219.589L286.37 220.47C286.029 220.868 285.602 221.171 285.091 221.38C284.589 221.588 284.025 221.692 283.399 221.692C282.603 221.692 281.898 221.531 281.282 221.209C280.666 220.877 280.187 220.418 279.846 219.83C279.514 219.243 279.349 218.579 279.349 217.84C279.349 217.111 279.51 216.452 279.832 215.865C280.163 215.277 280.614 214.822 281.182 214.5C281.76 214.169 282.409 214.003 283.129 214.003C283.849 214.003 284.489 214.169 285.048 214.5C285.617 214.822 286.057 215.277 286.37 215.865C286.692 216.452 286.853 217.125 286.853 217.883ZM283.129 215.154C282.476 215.154 281.926 215.353 281.481 215.751C281.045 216.149 280.789 216.67 280.713 217.315H285.546C285.47 216.68 285.209 216.163 284.764 215.765C284.328 215.358 283.783 215.154 283.129 215.154ZM288.97 214.074H290.334V217.272H294.627V214.074H295.991V221.607H294.627V218.452H290.334V221.607H288.97V214.074ZM301.331 214.003C302.373 214.003 303.169 214.259 303.719 214.77C304.278 215.282 304.557 216.045 304.557 217.059V221.607H303.264V220.612C303.036 220.963 302.71 221.233 302.283 221.422C301.866 221.602 301.369 221.692 300.791 221.692C299.947 221.692 299.27 221.488 298.758 221.081C298.256 220.674 298.005 220.138 298.005 219.475C298.005 218.812 298.247 218.281 298.73 217.883C299.213 217.476 299.981 217.272 301.032 217.272H303.193V217.002C303.193 216.414 303.022 215.964 302.681 215.652C302.34 215.339 301.838 215.183 301.174 215.183C300.729 215.183 300.293 215.258 299.867 215.41C299.44 215.552 299.08 215.746 298.787 215.993L298.218 214.969C298.607 214.657 299.071 214.42 299.611 214.259C300.151 214.088 300.724 214.003 301.331 214.003ZM301.018 220.64C301.539 220.64 301.989 220.527 302.368 220.299C302.747 220.062 303.022 219.731 303.193 219.304V218.253H301.089C299.933 218.253 299.355 218.641 299.355 219.418C299.355 219.797 299.502 220.096 299.796 220.314C300.09 220.531 300.497 220.64 301.018 220.64Z" fill="#606371"/>
<path d="M276.552 246.952V248.474H267.753V247.284L272.738 242.473C273.345 241.89 273.753 241.389 273.963 240.969C274.173 240.537 274.278 240.106 274.278 239.674C274.278 239.033 274.05 238.537 273.595 238.188C273.152 237.826 272.511 237.645 271.671 237.645C270.318 237.645 269.275 238.088 268.54 238.975L267.35 237.943C267.829 237.36 268.452 236.905 269.222 236.578C270.004 236.252 270.872 236.088 271.829 236.088C273.112 236.088 274.132 236.397 274.89 237.015C275.648 237.622 276.027 238.45 276.027 239.5C276.027 240.153 275.887 240.771 275.607 241.354C275.327 241.937 274.797 242.602 274.015 243.348L270.272 246.952H276.552ZM286.597 246.952V248.474H277.798V247.284L282.783 242.473C283.39 241.89 283.798 241.389 284.008 240.969C284.218 240.537 284.323 240.106 284.323 239.674C284.323 239.033 284.095 238.537 283.64 238.188C283.197 237.826 282.556 237.645 281.716 237.645C280.363 237.645 279.32 238.088 278.585 238.975L277.395 237.943C277.874 237.36 278.497 236.905 279.267 236.578C280.049 236.252 280.917 236.088 281.874 236.088C283.157 236.088 284.177 236.397 284.935 237.015C285.693 237.622 286.072 238.45 286.072 239.5C286.072 240.153 285.932 240.771 285.652 241.354C285.372 241.937 284.842 242.602 284.06 243.348L280.317 246.952H286.597ZM296.642 246.952V248.474H287.843V247.284L292.828 242.473C293.435 241.89 293.843 241.389 294.053 240.969C294.263 240.537 294.368 240.106 294.368 239.674C294.368 239.033 294.14 238.537 293.685 238.188C293.242 237.826 292.601 237.645 291.761 237.645C290.408 237.645 289.365 238.088 288.63 238.975L287.44 237.943C287.919 237.36 288.542 236.905 289.312 236.578C290.094 236.252 290.962 236.088 291.919 236.088C293.202 236.088 294.222 236.397 294.98 237.015C295.738 237.622 296.117 238.45 296.117 239.5C296.117 240.153 295.977 240.771 295.697 241.354C295.417 241.937 294.887 242.602 294.105 243.348L290.362 246.952H296.642ZM302.768 241.371C303.97 241.488 304.885 241.861 305.515 242.491C306.145 243.109 306.459 243.902 306.459 244.87C306.459 245.57 306.285 246.205 305.935 246.777C305.585 247.337 305.06 247.786 304.36 248.124C303.672 248.45 302.827 248.614 301.824 248.614C300.949 248.614 300.109 248.485 299.305 248.229C298.5 247.96 297.841 247.593 297.328 247.127L298.133 245.745C298.552 246.141 299.089 246.462 299.742 246.707C300.395 246.94 301.089 247.057 301.824 247.057C302.733 247.057 303.439 246.864 303.94 246.479C304.454 246.095 304.71 245.564 304.71 244.887C304.71 244.211 304.459 243.686 303.958 243.313C303.456 242.94 302.698 242.753 301.684 242.753H300.704V241.529L303.783 237.75H297.888V236.228H305.97V237.418L302.768 241.371ZM309.246 248.579C308.919 248.579 308.639 248.468 308.406 248.246C308.173 248.013 308.056 247.721 308.056 247.372C308.056 247.033 308.173 246.753 308.406 246.532C308.639 246.299 308.919 246.182 309.246 246.182C309.572 246.182 309.846 246.293 310.068 246.514C310.289 246.736 310.4 247.022 310.4 247.372C310.4 247.721 310.283 248.013 310.05 248.246C309.829 248.468 309.56 248.579 309.246 248.579ZM316.913 241.371C318.115 241.488 319.03 241.861 319.66 242.491C320.29 243.109 320.604 243.902 320.604 244.87C320.604 245.57 320.43 246.205 320.08 246.777C319.73 247.337 319.205 247.786 318.505 248.124C317.817 248.45 316.972 248.614 315.969 248.614C315.094 248.614 314.254 248.485 313.45 248.229C312.645 247.96 311.986 247.593 311.473 247.127L312.278 245.745C312.697 246.141 313.234 246.462 313.887 246.707C314.54 246.94 315.234 247.057 315.969 247.057C316.878 247.057 317.584 246.864 318.085 246.479C318.599 246.095 318.855 245.564 318.855 244.887C318.855 244.211 318.604 243.686 318.103 243.313C317.601 242.94 316.843 242.753 315.829 242.753H314.849V241.529L317.928 237.75H312.033V236.228H320.115V237.418L316.913 241.371ZM326.032 236.228V248.474H324.3V237.75H321.536V236.228H326.032ZM342.715 245.132C342.715 246.054 342.365 246.835 341.665 247.477C340.977 248.118 339.974 248.491 338.656 248.596V250.573H337.537V248.596C336.686 248.549 335.875 248.392 335.105 248.124C334.347 247.844 333.741 247.494 333.286 247.074L333.933 245.71C334.353 246.095 334.884 246.415 335.525 246.672C336.167 246.917 336.837 247.063 337.537 247.109V243.051C336.721 242.852 336.038 242.637 335.49 242.403C334.954 242.17 334.499 241.826 334.126 241.371C333.764 240.917 333.583 240.322 333.583 239.587C333.583 238.666 333.916 237.884 334.581 237.243C335.257 236.601 336.242 236.228 337.537 236.123V234.129H338.656V236.106C339.321 236.129 339.963 236.234 340.581 236.421C341.211 236.607 341.753 236.858 342.208 237.173L341.63 238.572C340.686 237.978 339.694 237.651 338.656 237.593V241.669C339.508 241.879 340.208 242.1 340.756 242.333C341.304 242.555 341.764 242.893 342.138 243.348C342.523 243.791 342.715 244.386 342.715 245.132ZM335.298 239.517C335.298 240.019 335.49 240.409 335.875 240.689C336.26 240.969 336.814 241.202 337.537 241.389V237.61C336.791 237.704 336.231 237.925 335.858 238.275C335.484 238.613 335.298 239.027 335.298 239.517ZM338.656 247.092C339.438 247.022 340.021 246.823 340.406 246.497C340.802 246.159 341.001 245.739 341.001 245.237C341.001 244.724 340.797 244.334 340.388 244.065C339.992 243.785 339.415 243.541 338.656 243.331V247.092Z" fill="#373943"/>
<rect x="267.105" y="140.913" width="82" height="30.6133" rx="8.74667" fill="#199F27"/>
<path d="M286.057 151.337V161.287H284.237V152.901H279.078V161.287H277.259V151.337H286.057ZM292.046 161.386C291.278 161.386 290.587 161.22 289.971 160.889C289.355 160.557 288.872 160.097 288.521 159.51C288.18 158.913 288.009 158.24 288.009 157.492C288.009 156.743 288.18 156.075 288.521 155.488C288.872 154.9 289.355 154.441 289.971 154.109C290.587 153.777 291.278 153.611 292.046 153.611C292.823 153.611 293.519 153.777 294.135 154.109C294.751 154.441 295.23 154.9 295.571 155.488C295.921 156.075 296.097 156.743 296.097 157.492C296.097 158.24 295.921 158.913 295.571 159.51C295.23 160.097 294.751 160.557 294.135 160.889C293.519 161.22 292.823 161.386 292.046 161.386ZM292.046 159.865C292.7 159.865 293.24 159.647 293.666 159.211C294.093 158.776 294.306 158.202 294.306 157.492C294.306 156.781 294.093 156.208 293.666 155.772C293.24 155.336 292.7 155.118 292.046 155.118C291.392 155.118 290.852 155.336 290.426 155.772C290.009 156.208 289.8 156.781 289.8 157.492C289.8 158.202 290.009 158.776 290.426 159.211C290.852 159.647 291.392 159.865 292.046 159.865ZM301.007 158.245H299.629V161.287H297.852V153.697H299.629V156.767H301.05L303.296 153.697H305.2L302.443 157.35L305.385 161.287H303.296L301.007 158.245ZM313.371 153.697L309.818 161.898C309.486 162.722 309.084 163.3 308.61 163.632C308.136 163.973 307.563 164.144 306.89 164.144C306.511 164.144 306.137 164.082 305.767 163.959C305.398 163.836 305.094 163.665 304.858 163.447L305.568 162.139C305.739 162.301 305.938 162.428 306.165 162.523C306.402 162.618 306.639 162.665 306.876 162.665C307.189 162.665 307.444 162.585 307.643 162.424C307.852 162.263 308.041 161.993 308.212 161.614L308.34 161.315L305.028 153.697H306.876L309.264 159.311L311.666 153.697H313.371ZM321.883 153.697V161.287H320.12V155.203H316.382V161.287H314.605V153.697H321.883ZM327.435 158.245H326.056V161.287H324.28V153.697H326.056V156.767H327.478L329.724 153.697H331.628L328.871 157.35L331.813 161.287H329.724L327.435 158.245ZM335.756 153.611C336.874 153.611 337.727 153.881 338.314 154.422C338.911 154.952 339.209 155.758 339.209 156.838V161.287H337.532V160.363C337.314 160.694 337.002 160.95 336.594 161.13C336.196 161.301 335.713 161.386 335.144 161.386C334.576 161.386 334.078 161.291 333.652 161.102C333.226 160.903 332.894 160.633 332.657 160.292C332.43 159.941 332.316 159.548 332.316 159.112C332.316 158.43 332.567 157.885 333.069 157.477C333.581 157.061 334.382 156.852 335.471 156.852H337.433V156.738C337.433 156.208 337.272 155.8 336.95 155.516C336.637 155.232 336.168 155.09 335.542 155.09C335.116 155.09 334.694 155.156 334.277 155.289C333.87 155.421 333.524 155.606 333.24 155.843L332.543 154.55C332.941 154.246 333.42 154.014 333.979 153.853C334.538 153.692 335.13 153.611 335.756 153.611ZM335.514 160.093C335.959 160.093 336.353 159.993 336.694 159.794C337.044 159.586 337.291 159.292 337.433 158.913V158.032H335.599C334.576 158.032 334.064 158.368 334.064 159.041C334.064 159.363 334.192 159.619 334.448 159.808C334.704 159.998 335.059 160.093 335.514 160.093Z" fill="white"/>
<rect x="266.012" y="356.3" width="101.68" height="31.7067" rx="8.74667" fill="#DE4355"/>
<path d="M290.123 366.959V377.673H288.164V368.642H282.607V377.673H280.648V366.959H290.123ZM297.461 369.408C298.257 369.408 298.966 369.581 299.588 369.928C300.221 370.275 300.716 370.765 301.073 371.398C301.43 372.03 301.609 372.76 301.609 373.586C301.609 374.413 301.43 375.148 301.073 375.791C300.716 376.423 300.221 376.913 299.588 377.26C298.966 377.607 298.257 377.78 297.461 377.78C296.359 377.78 295.486 377.413 294.843 376.678V380.643H292.93V369.5H294.751V370.571C295.068 370.183 295.456 369.892 295.915 369.699C296.384 369.505 296.9 369.408 297.461 369.408ZM297.246 376.143C297.951 376.143 298.527 375.908 298.976 375.439C299.435 374.969 299.665 374.352 299.665 373.586C299.665 372.821 299.435 372.204 298.976 371.734C298.527 371.265 297.951 371.03 297.246 371.03C296.787 371.03 296.374 371.137 296.007 371.352C295.639 371.556 295.348 371.852 295.134 372.239C294.92 372.627 294.813 373.076 294.813 373.586C294.813 374.097 294.92 374.546 295.134 374.933C295.348 375.321 295.639 375.622 296.007 375.837C296.374 376.041 296.787 376.143 297.246 376.143ZM307.156 377.78C306.33 377.78 305.585 377.602 304.921 377.245C304.258 376.888 303.738 376.393 303.36 375.76C302.993 375.117 302.809 374.393 302.809 373.586C302.809 372.78 302.993 372.061 303.36 371.428C303.738 370.796 304.258 370.301 304.921 369.943C305.585 369.586 306.33 369.408 307.156 369.408C307.993 369.408 308.743 369.586 309.406 369.943C310.069 370.301 310.585 370.796 310.952 371.428C311.33 372.061 311.518 372.78 311.518 373.586C311.518 374.393 311.33 375.117 310.952 375.76C310.585 376.393 310.069 376.888 309.406 377.245C308.743 377.602 307.993 377.78 307.156 377.78ZM307.156 376.143C307.86 376.143 308.442 375.908 308.901 375.439C309.36 374.969 309.59 374.352 309.59 373.586C309.59 372.821 309.36 372.204 308.901 371.734C308.442 371.265 307.86 371.03 307.156 371.03C306.452 371.03 305.87 371.265 305.411 371.734C304.962 372.204 304.738 372.821 304.738 373.586C304.738 374.352 304.962 374.969 305.411 375.439C305.87 375.908 306.452 376.143 307.156 376.143ZM322.044 376.051V379.495H320.253V377.673H313.947V379.495H312.171V376.051H312.554C313.074 376.03 313.426 375.699 313.61 375.056C313.804 374.403 313.931 373.484 313.992 372.301L314.1 369.5H320.835V376.051H322.044ZM315.737 372.438C315.697 373.377 315.62 374.143 315.508 374.734C315.396 375.326 315.191 375.765 314.896 376.051H318.921V371.122H315.783L315.737 372.438ZM326.799 369.408C328.003 369.408 328.921 369.699 329.554 370.28C330.197 370.852 330.518 371.719 330.518 372.882V377.673H328.712V376.678C328.477 377.036 328.14 377.311 327.702 377.505C327.273 377.689 326.753 377.78 326.14 377.78C325.528 377.78 324.992 377.678 324.533 377.474C324.074 377.26 323.717 376.969 323.462 376.602C323.217 376.224 323.094 375.801 323.094 375.331C323.094 374.597 323.365 374.01 323.906 373.571C324.457 373.122 325.319 372.898 326.492 372.898H328.605V372.775C328.605 372.204 328.431 371.765 328.084 371.459C327.748 371.153 327.242 371 326.569 371C326.11 371 325.656 371.071 325.207 371.214C324.768 371.357 324.395 371.556 324.089 371.811L323.339 370.418C323.768 370.091 324.283 369.841 324.885 369.668C325.487 369.494 326.125 369.408 326.799 369.408ZM326.538 376.388C327.018 376.388 327.441 376.28 327.809 376.066C328.186 375.842 328.452 375.525 328.605 375.117V374.168H326.63C325.528 374.168 324.977 374.53 324.977 375.255C324.977 375.602 325.115 375.877 325.39 376.081C325.666 376.286 326.049 376.388 326.538 376.388ZM340.646 374.398H339.269V377.673H337.371V374.398H335.993L334.003 377.673H331.738L334.416 373.449L331.937 369.5H333.973L335.962 372.806H337.371V369.5H339.269V372.806H340.662L342.667 369.5H344.703L342.223 373.449L344.917 377.673H342.636L340.646 374.398ZM349.235 369.408C350.44 369.408 351.358 369.699 351.991 370.28C352.634 370.852 352.955 371.719 352.955 372.882V377.673H351.149V376.678C350.914 377.036 350.577 377.311 350.139 377.505C349.71 377.689 349.19 377.78 348.577 377.78C347.965 377.78 347.429 377.678 346.97 377.474C346.511 377.26 346.154 376.969 345.899 376.602C345.654 376.224 345.531 375.801 345.531 375.331C345.531 374.597 345.802 374.01 346.342 373.571C346.894 373.122 347.756 372.898 348.929 372.898H351.042V372.775C351.042 372.204 350.868 371.765 350.521 371.459C350.184 371.153 349.679 371 349.006 371C348.547 371 348.093 371.071 347.644 371.214C347.205 371.357 346.832 371.556 346.526 371.811L345.776 370.418C346.205 370.091 346.72 369.841 347.322 369.668C347.924 369.494 348.562 369.408 349.235 369.408ZM348.975 376.388C349.455 376.388 349.878 376.28 350.246 376.066C350.623 375.842 350.889 375.525 351.042 375.117V374.168H349.067C347.965 374.168 347.414 374.53 347.414 375.255C347.414 375.602 347.552 375.877 347.827 376.081C348.103 376.286 348.485 376.388 348.975 376.388Z" fill="white"/>
<path d="M106.045 301.907H101.465C101.247 301.907 101.038 301.82 100.885 301.666C100.731 301.513 100.645 301.304 100.645 301.087V296.506C100.645 296.399 100.666 296.292 100.707 296.192C100.748 296.093 100.809 296.003 100.885 295.926L113.185 283.626C113.338 283.473 113.547 283.386 113.765 283.386C113.982 283.386 114.191 283.473 114.344 283.626L118.925 288.207C119.078 288.361 119.165 288.569 119.165 288.787C119.165 289.004 119.078 289.213 118.925 289.366L106.625 301.666C106.549 301.743 106.458 301.803 106.359 301.844C106.259 301.885 106.153 301.907 106.045 301.907Z" stroke="#3E54D8" stroke-width="1.64" stroke-linecap="round" stroke-linejoin="round"/>
<path d="M110.484 286.327L116.224 292.067" stroke="#3E54D8" stroke-width="1.64" stroke-linecap="round" stroke-linejoin="round"/>
<path d="M106.331 301.854L100.695 296.219" stroke="#3E54D8" stroke-width="1.64" stroke-linecap="round" stroke-linejoin="round"/>
<rect x="90.531" y="273.753" width="38.2667" height="38.2667" rx="4.92" stroke="#D3E3FF" stroke-width="1.09333"/>
<path d="M175.54 285.507L157.5 285.507" stroke="#3E54D8" stroke-width="1.64" stroke-linecap="round" stroke-linejoin="round"/>
<path d="M164.059 290.426V296.986" stroke="#3E54D8" stroke-width="1.64" stroke-linecap="round" stroke-linejoin="round"/>
<path d="M168.98 290.426V296.986" stroke="#3E54D8" stroke-width="1.64" stroke-linecap="round" stroke-linejoin="round"/>
<path d="M173.897 285.507V301.087C173.897 301.304 173.81 301.513 173.657 301.667C173.503 301.82 173.294 301.907 173.077 301.907H159.957C159.739 301.907 159.531 301.82 159.377 301.667C159.223 301.513 159.137 301.304 159.137 301.087V285.507" stroke="#3E54D8" stroke-width="1.64" stroke-linecap="round" stroke-linejoin="round"/>
<path d="M170.618 285.507V283.867C170.618 283.432 170.445 283.014 170.138 282.707C169.83 282.399 169.413 282.227 168.978 282.227H164.058C163.623 282.227 163.206 282.399 162.898 282.707C162.591 283.014 162.418 283.432 162.418 283.867V285.507" stroke="#3E54D8" stroke-width="1.64" stroke-linecap="round" stroke-linejoin="round"/>
<rect x="147.387" y="273.753" width="38.2667" height="38.2667" rx="4.92" stroke="#D3E3FF" stroke-width="1.09333"/>
<path d="M72.4922 87.3398L447.506 87.3398" stroke="#D3E3FF" stroke-width="2.18667"/>
<path d="M216.411 50.3611V62.6064H214.662V57.1485H207.629V62.6064H205.88V50.3611H207.629V55.6266H214.662V50.3611H216.411ZM223.921 62.7114C223 62.7114 222.172 62.5073 221.437 62.0991C220.702 61.691 220.125 61.1312 219.705 60.4198C219.297 59.6967 219.093 58.8804 219.093 57.9707C219.093 57.0611 219.297 56.2505 219.705 55.5391C220.125 54.8161 220.702 54.2563 221.437 53.8598C222.172 53.4516 223 53.2475 223.921 53.2475C224.842 53.2475 225.665 53.4516 226.388 53.8598C227.122 54.2563 227.694 54.8161 228.102 55.5391C228.522 56.2505 228.732 57.0611 228.732 57.9707C228.732 58.8804 228.522 59.6967 228.102 60.4198C227.694 61.1312 227.122 61.691 226.388 62.0991C225.665 62.5073 224.842 62.7114 223.921 62.7114ZM223.921 61.242C224.516 61.242 225.047 61.1078 225.513 60.8396C225.991 60.5597 226.364 60.1749 226.633 59.6851C226.901 59.1836 227.035 58.6121 227.035 57.9707C227.035 57.3293 226.901 56.7637 226.633 56.2739C226.364 55.7724 225.991 55.3875 225.513 55.1193C225.047 54.8511 224.516 54.717 223.921 54.717C223.326 54.717 222.79 54.8511 222.312 55.1193C221.845 55.3875 221.472 55.7724 221.192 56.2739C220.924 56.7637 220.79 57.3293 220.79 57.9707C220.79 58.6121 220.924 59.1836 221.192 59.6851C221.472 60.1749 221.845 60.5597 222.312 60.8396C222.79 61.1078 223.326 61.242 223.921 61.242ZM237.472 57.7958C238.673 58.099 239.274 58.8512 239.274 60.0524C239.274 60.8688 238.965 61.4985 238.347 61.9417C237.74 62.3849 236.831 62.6064 235.618 62.6064H231.157V53.335H235.46C236.556 53.335 237.414 53.5449 238.032 53.9647C238.65 54.3729 238.959 54.956 238.959 55.7141C238.959 56.2039 238.825 56.6296 238.557 56.9911C238.3 57.341 237.938 57.6092 237.472 57.7958ZM232.801 57.3235H235.32C235.962 57.3235 236.446 57.2068 236.772 56.9736C237.11 56.7403 237.279 56.4021 237.279 55.959C237.279 55.0726 236.626 54.6295 235.32 54.6295H232.801V57.3235ZM235.495 61.3119C236.195 61.3119 236.72 61.2011 237.07 60.9796C237.419 60.758 237.594 60.4139 237.594 59.9475C237.594 59.4693 237.431 59.1136 237.105 58.8804C236.79 58.6471 236.288 58.5305 235.6 58.5305H232.801V61.3119H235.495ZM245.873 62.7114C244.952 62.7114 244.124 62.5073 243.389 62.0991C242.654 61.691 242.077 61.1312 241.657 60.4198C241.249 59.6967 241.045 58.8804 241.045 57.9707C241.045 57.0611 241.249 56.2505 241.657 55.5391C242.077 54.8161 242.654 54.2563 243.389 53.8598C244.124 53.4516 244.952 53.2475 245.873 53.2475C246.795 53.2475 247.617 53.4516 248.34 53.8598C249.075 54.2563 249.646 54.8161 250.054 55.5391C250.474 56.2505 250.684 57.0611 250.684 57.9707C250.684 58.8804 250.474 59.6967 250.054 60.4198C249.646 61.1312 249.075 61.691 248.34 62.0991C247.617 62.5073 246.795 62.7114 245.873 62.7114ZM245.873 61.242C246.468 61.242 246.999 61.1078 247.465 60.8396C247.943 60.5597 248.316 60.1749 248.585 59.6851C248.853 59.1836 248.987 58.6121 248.987 57.9707C248.987 57.3293 248.853 56.7637 248.585 56.2739C248.316 55.7724 247.943 55.3875 247.465 55.1193C246.999 54.8511 246.468 54.717 245.873 54.717C245.278 54.717 244.742 54.8511 244.264 55.1193C243.797 55.3875 243.424 55.7724 243.144 56.2739C242.876 56.7637 242.742 57.3293 242.742 57.9707C242.742 58.6121 242.876 59.1836 243.144 59.6851C243.424 60.1749 243.797 60.5597 244.264 60.8396C244.742 61.1078 245.278 61.242 245.873 61.242ZM257.15 62.7114C256.205 62.7114 255.36 62.5073 254.613 62.0991C253.879 61.691 253.301 61.1312 252.881 60.4198C252.462 59.6967 252.252 58.8804 252.252 57.9707C252.252 57.0611 252.462 56.2505 252.881 55.5391C253.301 54.8161 253.879 54.2563 254.613 53.8598C255.36 53.4516 256.205 53.2475 257.15 53.2475C257.99 53.2475 258.736 53.4166 259.389 53.7548C260.054 54.093 260.567 54.5828 260.928 55.2243L259.651 56.0464C259.36 55.6033 258.998 55.2709 258.567 55.0493C258.135 54.8277 257.657 54.717 257.132 54.717C256.526 54.717 255.978 54.8511 255.488 55.1193C255.01 55.3875 254.631 55.7724 254.351 56.2739C254.083 56.7637 253.949 57.3293 253.949 57.9707C253.949 58.6238 254.083 59.2011 254.351 59.7026C254.631 60.1924 255.01 60.5714 255.488 60.8396C255.978 61.1078 256.526 61.242 257.132 61.242C257.657 61.242 258.135 61.1312 258.567 60.9096C258.998 60.688 259.36 60.3556 259.651 59.9125L260.928 60.7172C260.567 61.3586 260.054 61.8542 259.389 62.2041C258.736 62.5423 257.99 62.7114 257.15 62.7114ZM269.893 54.8044H266.499V62.6064H264.82V54.8044H261.426V53.335H269.893V54.8044ZM271.61 53.335H273.29V60.0874L278.975 53.335H280.497V62.6064H278.817V55.854L273.15 62.6064H271.61V53.335Z" fill="#24252E"/>
<path d="M91.8443 50.3611H94.0835V59.0553L100.661 50.3611H102.778V62.6064H100.539V53.9298L93.961 62.6064H91.8443V50.3611ZM110.217 62.7289C109.249 62.7289 108.38 62.5248 107.61 62.1166C106.841 61.7085 106.24 61.1428 105.809 60.4198C105.377 59.6851 105.161 58.857 105.161 57.9357C105.161 57.0144 105.377 56.1922 105.809 55.4692C106.24 54.7461 106.835 54.1805 107.593 53.7723C108.363 53.3641 109.237 53.16 110.217 53.16C111.138 53.16 111.943 53.3466 112.631 53.7198C113.331 54.093 113.856 54.6295 114.205 55.3292L112.526 56.3088C112.258 55.8773 111.92 55.5566 111.511 55.3467C111.115 55.1251 110.678 55.0143 110.199 55.0143C109.383 55.0143 108.707 55.2826 108.17 55.819C107.634 56.3438 107.366 57.0494 107.366 57.9357C107.366 58.8221 107.628 59.5334 108.153 60.0699C108.689 60.5947 109.371 60.8571 110.199 60.8571C110.678 60.8571 111.115 60.7522 111.511 60.5422C111.92 60.3206 112.258 59.9941 112.526 59.5626L114.205 60.5422C113.844 61.242 113.313 61.7843 112.614 62.1691C111.926 62.5423 111.127 62.7289 110.217 62.7289ZM123.445 55.1193H120.174V62.6064H117.987V55.1193H114.698V53.265H123.445V55.1193ZM128.785 62.7289C127.84 62.7289 126.989 62.5248 126.23 62.1166C125.472 61.7085 124.878 61.1428 124.446 60.4198C124.026 59.6851 123.816 58.857 123.816 57.9357C123.816 57.0144 124.026 56.1922 124.446 55.4692C124.878 54.7461 125.472 54.1805 126.23 53.7723C126.989 53.3641 127.84 53.16 128.785 53.16C129.741 53.16 130.598 53.3641 131.356 53.7723C132.114 54.1805 132.703 54.7461 133.123 55.4692C133.554 56.1922 133.77 57.0144 133.77 57.9357C133.77 58.857 133.554 59.6851 133.123 60.4198C132.703 61.1428 132.114 61.7085 131.356 62.1166C130.598 62.5248 129.741 62.7289 128.785 62.7289ZM128.785 60.8571C129.589 60.8571 130.254 60.5889 130.779 60.0524C131.304 59.516 131.566 58.8104 131.566 57.9357C131.566 57.0611 131.304 56.3555 130.779 55.819C130.254 55.2826 129.589 55.0143 128.785 55.0143C127.98 55.0143 127.315 55.2826 126.79 55.819C126.277 56.3555 126.021 57.0611 126.021 57.9357C126.021 58.8104 126.277 59.516 126.79 60.0524C127.315 60.5889 127.98 60.8571 128.785 60.8571ZM141.108 53.16C142.018 53.16 142.828 53.3583 143.54 53.7548C144.263 54.1513 144.829 54.7111 145.237 55.4342C145.645 56.1572 145.849 56.9911 145.849 57.9357C145.849 58.8804 145.645 59.72 145.237 60.4548C144.829 61.1778 144.263 61.7376 143.54 62.1341C142.828 62.5306 142.018 62.7289 141.108 62.7289C139.849 62.7289 138.852 62.3091 138.117 61.4694V66.0002H135.93V53.265H138.012V54.4895C138.374 54.0464 138.817 53.714 139.341 53.4924C139.878 53.2708 140.467 53.16 141.108 53.16ZM140.863 60.8571C141.668 60.8571 142.327 60.5889 142.84 60.0524C143.365 59.516 143.627 58.8104 143.627 57.9357C143.627 57.0611 143.365 56.3555 142.84 55.819C142.327 55.2826 141.668 55.0143 140.863 55.0143C140.339 55.0143 139.866 55.1368 139.446 55.3817C139.027 55.6149 138.694 55.9531 138.449 56.3963C138.204 56.8395 138.082 57.3526 138.082 57.9357C138.082 58.5188 138.204 59.032 138.449 59.4751C138.694 59.9183 139.027 60.2623 139.446 60.5072C139.866 60.7405 140.339 60.8571 140.863 60.8571ZM148.025 53.265H150.212V59.4227L155.372 53.265H157.367V62.6064H155.18V56.4488L150.037 62.6064H148.025V53.265ZM168.198 53.265V62.6064H166.238V59.79H163.772L161.865 62.6064H159.521L161.725 59.4926C161.049 59.2594 160.53 58.9037 160.168 58.4255C159.818 57.9357 159.643 57.3351 159.643 56.6237C159.643 55.5508 160.022 54.7228 160.781 54.1397C161.539 53.5566 162.582 53.265 163.912 53.265H168.198ZM163.982 55.1018C162.571 55.1018 161.865 55.6324 161.865 56.6937C161.865 57.7433 162.547 58.2681 163.912 58.2681H166.238V55.1018H163.982Z" fill="#3E54D8"/>
<path d="M91.0781 76.9531L169.798 76.9531" stroke="#3E54D8" stroke-width="3.28" stroke-linecap="round"/>
<path d="M100.305 242.106C100.982 242.328 101.518 242.701 101.915 243.226C102.311 243.739 102.51 244.38 102.51 245.15C102.51 246.211 102.101 247.033 101.285 247.616C100.469 248.188 99.2792 248.474 97.7164 248.474H91.6287V236.228H97.3666C98.8127 236.228 99.9264 236.514 100.708 237.085C101.489 237.645 101.88 238.421 101.88 239.412C101.88 240.019 101.74 240.555 101.46 241.021C101.18 241.488 100.795 241.849 100.305 242.106ZM93.9029 238.013V241.389H97.1217C97.9147 241.389 98.5211 241.249 98.941 240.969C99.3725 240.677 99.5882 240.258 99.5882 239.709C99.5882 239.15 99.3725 238.73 98.941 238.45C98.5211 238.158 97.9147 238.013 97.1217 238.013H93.9029ZM97.5765 246.689C99.3375 246.689 100.218 246.1 100.218 244.922C100.218 243.745 99.3375 243.156 97.5765 243.156H93.9029V246.689H97.5765ZM104.727 239.132H106.913V248.474H104.727V239.132ZM105.829 237.593C105.432 237.593 105.1 237.47 104.832 237.225C104.563 236.969 104.429 236.654 104.429 236.281C104.429 235.908 104.563 235.599 104.832 235.354C105.1 235.097 105.432 234.969 105.829 234.969C106.225 234.969 106.558 235.091 106.826 235.336C107.094 235.569 107.228 235.867 107.228 236.228C107.228 236.613 107.094 236.94 106.826 237.208C106.569 237.464 106.237 237.593 105.829 237.593ZM115.399 247.966C115.142 248.176 114.827 248.334 114.454 248.439C114.093 248.544 113.708 248.596 113.3 248.596C112.273 248.596 111.48 248.328 110.92 247.791C110.361 247.255 110.081 246.474 110.081 245.447V240.951H108.541V239.202H110.081V237.068H112.267V239.202H114.769V240.951H112.267V245.395C112.267 245.85 112.378 246.199 112.6 246.444C112.821 246.678 113.142 246.794 113.562 246.794C114.052 246.794 114.46 246.666 114.787 246.409L115.399 247.966ZM121.176 248.596C120.208 248.596 119.339 248.392 118.569 247.984C117.8 247.576 117.199 247.01 116.768 246.287C116.336 245.552 116.12 244.724 116.12 243.803C116.12 242.882 116.336 242.059 116.768 241.336C117.199 240.613 117.794 240.048 118.552 239.639C119.322 239.231 120.196 239.027 121.176 239.027C122.097 239.027 122.902 239.214 123.59 239.587C124.29 239.96 124.815 240.497 125.164 241.196L123.485 242.176C123.217 241.745 122.879 241.424 122.47 241.214C122.074 240.992 121.637 240.882 121.158 240.882C120.342 240.882 119.666 241.15 119.129 241.686C118.593 242.211 118.325 242.917 118.325 243.803C118.325 244.689 118.587 245.401 119.112 245.937C119.648 246.462 120.33 246.724 121.158 246.724C121.637 246.724 122.074 246.619 122.47 246.409C122.879 246.188 123.217 245.861 123.485 245.43L125.164 246.409C124.803 247.109 124.272 247.651 123.573 248.036C122.884 248.409 122.086 248.596 121.176 248.596ZM131.116 248.596C130.172 248.596 129.32 248.392 128.562 247.984C127.804 247.576 127.21 247.01 126.778 246.287C126.358 245.552 126.148 244.724 126.148 243.803C126.148 242.882 126.358 242.059 126.778 241.336C127.21 240.613 127.804 240.048 128.562 239.639C129.32 239.231 130.172 239.027 131.116 239.027C132.073 239.027 132.93 239.231 133.688 239.639C134.446 240.048 135.035 240.613 135.455 241.336C135.886 242.059 136.102 242.882 136.102 243.803C136.102 244.724 135.886 245.552 135.455 246.287C135.035 247.01 134.446 247.576 133.688 247.984C132.93 248.392 132.073 248.596 131.116 248.596ZM131.116 246.724C131.921 246.724 132.586 246.456 133.111 245.92C133.635 245.383 133.898 244.678 133.898 243.803C133.898 242.928 133.635 242.223 133.111 241.686C132.586 241.15 131.921 240.882 131.116 240.882C130.312 240.882 129.647 241.15 129.122 241.686C128.609 242.223 128.352 242.928 128.352 243.803C128.352 244.678 128.609 245.383 129.122 245.92C129.647 246.456 130.312 246.724 131.116 246.724ZM138.193 239.132H140.38V248.474H138.193V239.132ZM139.295 237.593C138.899 237.593 138.566 237.47 138.298 237.225C138.03 236.969 137.896 236.654 137.896 236.281C137.896 235.908 138.03 235.599 138.298 235.354C138.566 235.097 138.899 234.969 139.295 234.969C139.692 234.969 140.024 235.091 140.292 235.336C140.56 235.569 140.695 235.867 140.695 236.228C140.695 236.613 140.56 236.94 140.292 237.208C140.036 237.464 139.703 237.593 139.295 237.593ZM148.55 239.027C149.728 239.027 150.673 239.371 151.384 240.059C152.095 240.747 152.451 241.768 152.451 243.121V248.474H150.264V243.401C150.264 242.584 150.072 241.972 149.687 241.564C149.302 241.144 148.754 240.934 148.043 240.934C147.238 240.934 146.603 241.179 146.136 241.669C145.67 242.147 145.436 242.841 145.436 243.75V248.474H143.25V239.132H145.331V240.339C145.693 239.908 146.148 239.581 146.696 239.36C147.244 239.138 147.862 239.027 148.55 239.027Z" fill="#24252E"/>
<path d="M168.565 242.124C169.276 242.322 169.836 242.683 170.244 243.208C170.652 243.721 170.856 244.374 170.856 245.167C170.856 246.229 170.454 247.045 169.649 247.616C168.856 248.188 167.696 248.474 166.168 248.474H160.325V236.228H165.818C167.218 236.228 168.296 236.508 169.055 237.068C169.824 237.628 170.209 238.403 170.209 239.395C170.209 240.036 170.057 240.59 169.754 241.056C169.463 241.523 169.066 241.879 168.565 242.124ZM162.075 237.645V241.564H165.661C166.559 241.564 167.247 241.4 167.725 241.074C168.215 240.736 168.46 240.246 168.46 239.605C168.46 238.963 168.215 238.479 167.725 238.153C167.247 237.814 166.559 237.645 165.661 237.645H162.075ZM166.098 247.057C167.089 247.057 167.836 246.893 168.337 246.567C168.839 246.24 169.09 245.727 169.09 245.027C169.09 243.663 168.092 242.981 166.098 242.981H162.075V247.057H166.098ZM175.826 237.75H171.627V236.228H181.756V237.75H177.558V248.474H175.826V237.75ZM188.966 248.614C187.741 248.614 186.633 248.345 185.642 247.809C184.662 247.261 183.893 246.514 183.333 245.57C182.773 244.613 182.493 243.541 182.493 242.351C182.493 241.161 182.773 240.094 183.333 239.15C183.893 238.193 184.668 237.447 185.66 236.911C186.651 236.362 187.759 236.088 188.983 236.088C189.94 236.088 190.814 236.252 191.607 236.578C192.4 236.893 193.077 237.365 193.636 237.995L192.499 239.097C191.578 238.129 190.429 237.645 189.053 237.645C188.144 237.645 187.321 237.849 186.587 238.258C185.852 238.666 185.275 239.231 184.855 239.954C184.447 240.666 184.243 241.465 184.243 242.351C184.243 243.237 184.447 244.042 184.855 244.765C185.275 245.476 185.852 246.036 186.587 246.444C187.321 246.853 188.144 247.057 189.053 247.057C190.418 247.057 191.566 246.567 192.499 245.587L193.636 246.689C193.077 247.319 192.394 247.797 191.59 248.124C190.797 248.45 189.922 248.614 188.966 248.614Z" fill="#929398"/>
</g>
<rect x="72.5" y="28.5" width="373" height="373" rx="35.5" stroke="#D3E3FF"/>
</g>
<defs>
<filter id="filter0_d" x="0" y="0" width="518" height="518" filterUnits="userSpaceOnUse" color-interpolation-filters="sRGB">
<feFlood flood-opacity="0" result="BackgroundImageFix"/>
<feColorMatrix in="SourceAlpha" type="matrix" values="0 0 0 0 0 0 0 0 0 0 0 0 0 0 0 0 0 0 127 0"/>
<feMorphology radius="17" operator="erode" in="SourceAlpha" result="effect1_dropShadow"/>
<feOffset dy="44"/>
<feGaussianBlur stdDeviation="44.5"/>
<feColorMatrix type="matrix" values="0 0 0 0 0.243137 0 0 0 0 0.329412 0 0 0 0 0.847059 0 0 0 0.06 0"/>
<feBlend mode="normal" in2="BackgroundImageFix" result="effect1_dropShadow"/>
<feBlend mode="normal" in="SourceGraphic" in2="effect1_dropShadow" result="shape"/>
</filter>
<clipPath id="clip0">
<rect x="72" y="28" width="374" height="374" rx="36" fill="white"/>
</clipPath>
</defs>
</svg>
