<svg width="569" height="487" viewBox="0 0 569 487" fill="none" xmlns="http://www.w3.org/2000/svg">
<circle cx="91" cy="133" r="74" fill="#F3B63F"/>
<g filter="url(#filter0_d)">
<path d="M63.1738 108.592C63.1738 95.5627 73.7365 85 86.7663 85H482.408C495.438 85 506 95.5627 506 108.592V422.5C506 435.479 495.479 446 482.5 446H86.6739C73.6952 446 63.1738 435.479 63.1738 422.5V108.592Z" fill="#FAFCFF"/>
<path d="M128.837 118.006H130.03C130.632 118.001 131.108 117.845 131.457 117.538C131.812 117.232 131.989 116.788 131.989 116.208C131.989 115.649 131.842 115.216 131.546 114.909C131.256 114.598 130.809 114.442 130.207 114.442C129.681 114.442 129.248 114.595 128.909 114.901C128.57 115.202 128.401 115.598 128.401 116.087H126.442C126.442 115.485 126.6 114.936 126.917 114.442C127.24 113.947 127.686 113.563 128.256 113.289C128.831 113.009 129.474 112.869 130.183 112.869C131.355 112.869 132.274 113.165 132.941 113.756C133.613 114.342 133.949 115.159 133.949 116.208C133.949 116.735 133.78 117.232 133.441 117.7C133.108 118.162 132.675 118.511 132.143 118.748C132.788 118.968 133.277 119.315 133.61 119.788C133.949 120.261 134.118 120.826 134.118 121.481C134.118 122.535 133.755 123.374 133.03 123.997C132.309 124.621 131.361 124.933 130.183 124.933C129.054 124.933 128.13 124.632 127.409 124.03C126.689 123.428 126.329 122.627 126.329 121.627H128.288C128.288 122.143 128.46 122.562 128.804 122.885C129.154 123.207 129.621 123.368 130.207 123.368C130.815 123.368 131.293 123.207 131.643 122.885C131.992 122.562 132.167 122.094 132.167 121.481C132.167 120.863 131.984 120.387 131.619 120.054C131.253 119.721 130.71 119.554 129.99 119.554H128.837V118.006ZM137.263 122.707C137.629 122.707 137.911 122.812 138.11 123.022C138.309 123.226 138.408 123.484 138.408 123.796C138.408 124.102 138.309 124.358 138.11 124.562C137.911 124.761 137.629 124.86 137.263 124.86C136.914 124.86 136.637 124.761 136.433 124.562C136.228 124.363 136.126 124.108 136.126 123.796C136.126 123.484 136.226 123.226 136.425 123.022C136.624 122.812 136.903 122.707 137.263 122.707ZM137.263 115.861C137.629 115.861 137.911 115.966 138.11 116.175C138.309 116.38 138.408 116.638 138.408 116.95C138.408 117.256 138.309 117.511 138.11 117.716C137.911 117.915 137.629 118.014 137.263 118.014C136.914 118.014 136.637 117.915 136.433 117.716C136.228 117.517 136.126 117.261 136.126 116.95C136.126 116.638 136.226 116.38 136.425 116.175C136.624 115.966 136.903 115.861 137.263 115.861ZM140.868 118.949L141.505 113.031H147.811V114.724H143.134L142.811 117.53C143.354 117.218 143.967 117.062 144.65 117.062C145.768 117.062 146.636 117.42 147.254 118.135C147.878 118.85 148.19 119.812 148.19 121.022C148.19 122.215 147.846 123.167 147.158 123.876C146.469 124.581 145.526 124.933 144.327 124.933C143.252 124.933 142.36 124.629 141.65 124.022C140.946 123.409 140.564 122.602 140.505 121.602H142.4C142.475 122.172 142.679 122.61 143.013 122.917C143.346 123.218 143.781 123.368 144.319 123.368C144.921 123.368 145.389 123.153 145.722 122.723C146.061 122.293 146.23 121.707 146.23 120.965C146.23 120.25 146.045 119.686 145.674 119.272C145.303 118.853 144.792 118.643 144.142 118.643C143.787 118.643 143.486 118.691 143.239 118.788C142.991 118.88 142.722 119.062 142.432 119.336L140.868 118.949ZM157.382 119.828C157.382 121.516 157.065 122.79 156.431 123.651C155.802 124.505 154.842 124.933 153.552 124.933C152.283 124.933 151.327 124.516 150.681 123.683C150.042 122.844 149.714 121.605 149.698 119.965V117.933C149.698 116.245 150.012 114.979 150.641 114.135C151.275 113.291 152.24 112.869 153.536 112.869C154.821 112.869 155.778 113.281 156.407 114.103C157.041 114.926 157.366 116.157 157.382 117.796V119.828ZM155.423 117.635C155.423 116.533 155.272 115.727 154.971 115.216C154.67 114.7 154.192 114.442 153.536 114.442C152.896 114.442 152.426 114.686 152.125 115.176C151.824 115.659 151.665 116.417 151.649 117.45V120.111C151.649 121.207 151.802 122.024 152.109 122.562C152.415 123.1 152.896 123.368 153.552 123.368C154.181 123.368 154.646 123.121 154.947 122.627C155.248 122.127 155.407 121.347 155.423 120.288V117.635Z" fill="black" fill-opacity="0.8"/>
<mask id="mask0" mask-type="alpha" maskUnits="userSpaceOnUse" x="412" y="109" width="21" height="17">
<path fill-rule="evenodd" clip-rule="evenodd" d="M412.34 109.771L422.563 125.107L432.787 109.771H412.34Z" fill="white"/>
</mask>
<g mask="url(#mask0)">
<g opacity="0.3">
<path fill-rule="evenodd" clip-rule="evenodd" d="M422.564 109.771C414.13 109.771 407.229 116.672 407.229 125.107C407.229 133.541 414.13 140.442 422.564 140.442C430.998 140.442 437.899 133.541 437.899 125.107C437.899 116.672 430.998 109.771 422.564 109.771ZM422.564 136.608C416.174 136.608 411.062 131.497 411.062 125.107C411.062 118.717 416.174 113.606 422.564 113.606C428.953 113.606 434.065 118.717 434.065 125.107C434.065 131.497 428.953 136.608 422.564 136.608Z" fill="black"/>
</g>
<g opacity="0.9">
<path fill-rule="evenodd" clip-rule="evenodd" d="M422.563 113.605C416.174 113.605 411.062 118.717 411.062 125.107C411.062 131.496 416.174 136.608 422.563 136.608C428.953 136.608 434.065 131.496 434.065 125.107C434.065 118.717 428.953 113.605 422.563 113.605ZM422.56 132.775C418.343 132.775 414.892 129.324 414.892 125.107C414.892 120.89 418.343 117.44 422.56 117.44C426.777 117.44 430.227 120.89 430.227 125.107C430.227 129.324 426.777 132.775 422.56 132.775Z" fill="black"/>
<path fill-rule="evenodd" clip-rule="evenodd" d="M422.56 117.439C418.343 117.439 414.892 120.89 414.892 125.107C414.892 129.324 418.343 132.775 422.56 132.775C426.777 132.775 430.227 129.324 430.227 125.107C430.227 120.89 426.777 117.439 422.56 117.439ZM422.564 128.94C420.391 128.94 418.73 127.279 418.73 125.107C418.73 122.934 420.391 121.273 422.564 121.273C424.736 121.273 426.397 122.934 426.397 125.107C426.397 127.279 424.736 128.94 422.564 128.94Z" fill="black"/>
<path fill-rule="evenodd" clip-rule="evenodd" d="M422.564 128.941C424.681 128.941 426.397 127.225 426.397 125.107C426.397 122.99 424.681 121.273 422.564 121.273C420.446 121.273 418.73 122.99 418.73 125.107C418.73 127.225 420.446 128.941 422.564 128.941Z" fill="black"/>
</g>
</g>
<mask id="mask1" mask-type="alpha" maskUnits="userSpaceOnUse" x="445" y="109" width="16" height="17">
<path fill-rule="evenodd" clip-rule="evenodd" d="M460.901 125.107V109.771L445.566 125.107H460.901Z" fill="white"/>
</mask>
<g mask="url(#mask1)">
<g opacity="0.3">
<path fill-rule="evenodd" clip-rule="evenodd" d="M457.066 109.773V125.109H460.9V109.773H457.066Z" fill="black"/>
<path fill-rule="evenodd" clip-rule="evenodd" d="M453.231 109.775V125.11H457.065V109.775H453.231Z" fill="black"/>
</g>
<g opacity="0.9">
<path fill-rule="evenodd" clip-rule="evenodd" d="M449.398 109.771V125.107H453.232V109.771H449.398Z" fill="black"/>
<path fill-rule="evenodd" clip-rule="evenodd" d="M445.566 109.771V125.107H449.4V109.771H445.566Z" fill="black"/>
</g>
</g>
<mask id="mask2" mask-type="alpha" maskUnits="userSpaceOnUse" x="478" y="108" width="12" height="18">
<path fill-rule="evenodd" clip-rule="evenodd" d="M487.738 109.87H486.46V108.592H481.348V109.87H480.07C479.303 109.87 478.792 110.381 478.792 111.148V123.927C478.792 124.694 479.303 125.205 480.07 125.205H487.738C488.504 125.205 489.016 124.694 489.016 123.927V111.148C489.016 110.381 488.504 109.87 487.738 109.87Z" fill="white"/>
</mask>
<g mask="url(#mask2)">
<g opacity="0.9">
<path fill-rule="evenodd" clip-rule="evenodd" d="M478.791 121.371V125.205H489.014V121.371H478.791Z" fill="black"/>
<path fill-rule="evenodd" clip-rule="evenodd" d="M478.792 117.537V121.371H489.015V117.537H478.792Z" fill="black"/>
</g>
<g opacity="0.3">
<path fill-rule="evenodd" clip-rule="evenodd" d="M478.791 113.703V117.537H489.014V113.703H478.791Z" fill="black"/>
<path fill-rule="evenodd" clip-rule="evenodd" d="M478.791 109.869V113.703H489.014V109.869H478.791Z" fill="black"/>
<path fill-rule="evenodd" clip-rule="evenodd" d="M481.344 108.592V109.87H486.456V108.592H481.344Z" fill="black"/>
</g>
</g>
<circle cx="98.5597" cy="119.208" r="10.6166" fill="black"/>
<path d="M110.356 167.574H96.0001L102.594 160.98L100.919 159.316L91.4822 168.753L100.919 178.19L102.582 176.527L96.0001 169.933H110.356V167.574Z" fill="black" fill-opacity="0.5"/>
<path d="M183.102 224.963V206.513H189.425C191.512 206.513 193.1 206.931 194.19 207.767C195.28 208.604 195.825 209.85 195.825 211.506C195.825 212.35 195.597 213.111 195.14 213.786C194.684 214.462 194.017 214.986 193.138 215.358C194.135 215.628 194.904 216.139 195.444 216.891C195.994 217.634 196.268 218.53 196.268 219.577C196.268 221.309 195.711 222.64 194.595 223.569C193.489 224.498 191.901 224.963 189.831 224.963H183.102ZM186.308 216.638V222.403H189.869C190.874 222.403 191.66 222.154 192.226 221.656C192.792 221.157 193.075 220.464 193.075 219.577C193.075 217.66 192.095 216.68 190.135 216.638H186.308ZM186.308 214.281H189.451C190.448 214.281 191.225 214.057 191.782 213.609C192.348 213.153 192.631 212.511 192.631 211.683C192.631 210.771 192.369 210.112 191.846 209.706C191.33 209.301 190.524 209.098 189.425 209.098H186.308V214.281ZM205.214 225.216C203.263 225.216 201.679 224.604 200.462 223.379C199.254 222.146 198.65 220.507 198.65 218.462V218.082C198.65 216.714 198.912 215.493 199.436 214.42C199.968 213.339 200.712 212.498 201.666 211.898C202.621 211.299 203.685 210.999 204.86 210.999C206.727 210.999 208.167 211.594 209.181 212.785C210.203 213.977 210.714 215.662 210.714 217.841V219.083H201.755C201.848 220.215 202.224 221.111 202.883 221.77C203.55 222.429 204.386 222.758 205.392 222.758C206.803 222.758 207.951 222.188 208.838 221.047L210.498 222.631C209.949 223.451 209.214 224.089 208.294 224.545C207.381 224.992 206.355 225.216 205.214 225.216ZM204.847 213.47C204.002 213.47 203.318 213.765 202.794 214.357C202.279 214.948 201.949 215.772 201.806 216.828H207.673V216.6C207.605 215.569 207.331 214.792 206.849 214.268C206.368 213.736 205.7 213.47 204.847 213.47ZM221.307 224.963C221.172 224.701 221.054 224.274 220.953 223.683C219.973 224.705 218.773 225.216 217.354 225.216C215.977 225.216 214.853 224.824 213.983 224.038C213.113 223.252 212.678 222.281 212.678 221.123C212.678 219.662 213.219 218.543 214.3 217.765C215.39 216.98 216.944 216.587 218.963 216.587H220.851V215.687C220.851 214.978 220.653 214.412 220.256 213.989C219.859 213.558 219.255 213.343 218.444 213.343C217.742 213.343 217.168 213.52 216.72 213.875C216.273 214.221 216.049 214.665 216.049 215.206H212.969C212.969 214.454 213.219 213.753 213.717 213.102C214.216 212.443 214.891 211.928 215.745 211.556C216.606 211.185 217.565 210.999 218.621 210.999C220.226 210.999 221.506 211.404 222.461 212.215C223.415 213.018 223.905 214.15 223.931 215.611V221.795C223.931 223.028 224.104 224.013 224.45 224.747V224.963H221.307ZM217.924 222.745C218.532 222.745 219.103 222.598 219.635 222.302C220.175 222.006 220.581 221.609 220.851 221.111V218.526H219.191C218.051 218.526 217.193 218.724 216.619 219.121C216.044 219.518 215.757 220.08 215.757 220.807C215.757 221.398 215.952 221.871 216.34 222.226C216.737 222.572 217.265 222.745 217.924 222.745ZM231.014 207.919V211.252H233.434V213.533H231.014V221.187C231.014 221.71 231.115 222.091 231.318 222.327C231.529 222.555 231.901 222.669 232.433 222.669C232.788 222.669 233.147 222.627 233.51 222.543V224.925C232.809 225.119 232.133 225.216 231.483 225.216C229.117 225.216 227.935 223.911 227.935 221.301V213.533H225.679V211.252H227.935V207.919H231.014ZM240.252 206.513L245.574 220.655L250.883 206.513H255.027V224.963H251.834V218.88L252.15 210.745L246.702 224.963H244.408L238.972 210.758L239.289 218.88V224.963H236.095V206.513H240.252ZM266.723 224.963C266.588 224.701 266.469 224.274 266.368 223.683C265.388 224.705 264.189 225.216 262.769 225.216C261.392 225.216 260.269 224.824 259.399 224.038C258.529 223.252 258.093 222.281 258.093 221.123C258.093 219.662 258.634 218.543 259.715 217.765C260.805 216.98 262.36 216.587 264.379 216.587H266.267V215.687C266.267 214.978 266.068 214.412 265.671 213.989C265.274 213.558 264.67 213.343 263.859 213.343C263.158 213.343 262.583 213.52 262.136 213.875C261.688 214.221 261.464 214.665 261.464 215.206H258.385C258.385 214.454 258.634 213.753 259.133 213.102C259.631 212.443 260.307 211.928 261.16 211.556C262.022 211.185 262.981 210.999 264.037 210.999C265.642 210.999 266.921 211.404 267.876 212.215C268.831 213.018 269.321 214.15 269.346 215.611V221.795C269.346 223.028 269.519 224.013 269.866 224.747V224.963H266.723ZM263.34 222.745C263.948 222.745 264.518 222.598 265.05 222.302C265.591 222.006 265.996 221.609 266.267 221.111V218.526H264.607C263.466 218.526 262.609 218.724 262.034 219.121C261.46 219.518 261.173 220.08 261.173 220.807C261.173 221.398 261.367 221.871 261.756 222.226C262.153 222.572 262.681 222.745 263.34 222.745ZM279.749 214.065C279.344 213.998 278.926 213.964 278.495 213.964C277.084 213.964 276.134 214.504 275.644 215.586V224.963H272.565V211.252H275.504L275.58 212.785C276.324 211.594 277.355 210.999 278.672 210.999C279.112 210.999 279.475 211.058 279.762 211.176L279.749 214.065ZM286.149 219.083L284.78 220.49V224.963H281.701V205.499H284.78V216.726L285.743 215.522L289.532 211.252H293.232L288.138 216.967L293.777 224.963H290.216L286.149 219.083ZM301.038 225.216C299.087 225.216 297.503 224.604 296.286 223.379C295.078 222.146 294.474 220.507 294.474 218.462V218.082C294.474 216.714 294.736 215.493 295.26 214.42C295.792 213.339 296.535 212.498 297.49 211.898C298.444 211.299 299.509 210.999 300.683 210.999C302.55 210.999 303.99 211.594 305.004 212.785C306.026 213.977 306.537 215.662 306.537 217.841V219.083H297.579C297.672 220.215 298.047 221.111 298.706 221.77C299.374 222.429 300.21 222.758 301.215 222.758C302.626 222.758 303.775 222.188 304.662 221.047L306.322 222.631C305.773 223.451 305.038 224.089 304.117 224.545C303.205 224.992 302.178 225.216 301.038 225.216ZM300.67 213.47C299.826 213.47 299.141 213.765 298.618 214.357C298.102 214.948 297.773 215.772 297.629 216.828H303.496V216.6C303.429 215.569 303.154 214.792 302.673 214.268C302.191 213.736 301.524 213.47 300.67 213.47ZM312.797 207.919V211.252H315.218V213.533H312.797V221.187C312.797 221.71 312.899 222.091 313.101 222.327C313.313 222.555 313.684 222.669 314.217 222.669C314.571 222.669 314.93 222.627 315.294 222.543V224.925C314.592 225.119 313.917 225.216 313.266 225.216C310.901 225.216 309.718 223.911 309.718 221.301V213.533H307.463V211.252H309.718V207.919H312.797Z" fill="black" fill-opacity="0.8"/>
<path d="M185.065 242.79L188.452 251.79L191.831 242.79H194.468V254.531H192.436V250.661L192.637 245.484L189.17 254.531H187.71L184.251 245.492L184.452 250.661V254.531H182.42V242.79H185.065ZM201.911 254.531C201.825 254.365 201.749 254.093 201.685 253.717C201.061 254.367 200.298 254.693 199.395 254.693C198.518 254.693 197.803 254.443 197.25 253.943C196.696 253.443 196.419 252.824 196.419 252.088C196.419 251.158 196.763 250.446 197.451 249.951C198.145 249.451 199.134 249.201 200.419 249.201H201.62V248.629C201.62 248.177 201.494 247.817 201.241 247.548C200.989 247.274 200.604 247.137 200.088 247.137C199.642 247.137 199.276 247.25 198.991 247.475C198.706 247.696 198.564 247.978 198.564 248.322H196.605C196.605 247.844 196.763 247.397 197.08 246.984C197.397 246.564 197.828 246.236 198.37 246C198.919 245.763 199.529 245.645 200.201 245.645C201.222 245.645 202.037 245.903 202.644 246.419C203.252 246.93 203.564 247.65 203.58 248.58V252.515C203.58 253.3 203.69 253.926 203.91 254.394V254.531H201.911ZM199.757 253.12C200.145 253.12 200.507 253.026 200.846 252.838C201.19 252.65 201.448 252.397 201.62 252.08V250.435H200.564C199.838 250.435 199.292 250.561 198.927 250.814C198.561 251.066 198.379 251.424 198.379 251.886C198.379 252.263 198.502 252.564 198.749 252.789C199.002 253.01 199.338 253.12 199.757 253.12ZM210.2 247.596C209.942 247.553 209.676 247.532 209.402 247.532C208.504 247.532 207.899 247.876 207.587 248.564V254.531H205.628V245.806H207.499L207.547 246.782C208.02 246.024 208.676 245.645 209.515 245.645C209.794 245.645 210.025 245.683 210.208 245.758L210.2 247.596ZM214.272 250.79L213.401 251.685V254.531H211.442V242.145H213.401V249.29L214.014 248.524L216.425 245.806H218.78L215.538 249.443L219.127 254.531H216.861L214.272 250.79ZM223.747 254.693C222.506 254.693 221.498 254.303 220.723 253.523C219.955 252.738 219.57 251.695 219.57 250.395V250.153C219.57 249.282 219.737 248.505 220.07 247.822C220.409 247.134 220.882 246.599 221.489 246.217C222.097 245.836 222.774 245.645 223.522 245.645C224.71 245.645 225.626 246.024 226.271 246.782C226.922 247.54 227.247 248.612 227.247 249.999V250.79H221.546C221.605 251.51 221.844 252.08 222.264 252.499C222.688 252.918 223.221 253.128 223.86 253.128C224.758 253.128 225.489 252.765 226.054 252.04L227.11 253.048C226.761 253.569 226.293 253.975 225.707 254.265C225.126 254.55 224.473 254.693 223.747 254.693ZM223.514 247.217C222.976 247.217 222.54 247.406 222.207 247.782C221.879 248.158 221.67 248.682 221.578 249.354H225.312V249.209C225.269 248.553 225.094 248.059 224.788 247.725C224.481 247.387 224.056 247.217 223.514 247.217ZM231.231 243.685V245.806H232.771V247.258H231.231V252.128C231.231 252.462 231.295 252.703 231.424 252.854C231.559 252.999 231.795 253.072 232.134 253.072C232.36 253.072 232.588 253.045 232.819 252.991V254.507C232.373 254.631 231.943 254.693 231.529 254.693C230.024 254.693 229.271 253.862 229.271 252.201V247.258H227.836V245.806H229.271V243.685H231.231ZM246.044 250.257C246.044 251.612 245.74 252.69 245.133 253.491C244.531 254.292 243.7 254.693 242.641 254.693C241.619 254.693 240.824 254.324 240.254 253.588L240.157 254.531H238.383V242.145H240.343V246.645C240.907 245.978 241.668 245.645 242.625 245.645C243.689 245.645 244.525 246.04 245.133 246.83C245.74 247.621 246.044 248.725 246.044 250.145V250.257ZM244.084 250.088C244.084 249.142 243.918 248.432 243.584 247.959C243.251 247.486 242.767 247.25 242.133 247.25C241.283 247.25 240.687 247.621 240.343 248.362V251.959C240.692 252.717 241.294 253.096 242.149 253.096C242.762 253.096 243.235 252.867 243.568 252.41C243.902 251.954 244.074 251.263 244.084 250.338V250.088ZM251.535 254.693C250.293 254.693 249.285 254.303 248.511 253.523C247.743 252.738 247.358 251.695 247.358 250.395V250.153C247.358 249.282 247.525 248.505 247.858 247.822C248.197 247.134 248.67 246.599 249.277 246.217C249.885 245.836 250.562 245.645 251.309 245.645C252.498 245.645 253.414 246.024 254.059 246.782C254.71 247.54 255.035 248.612 255.035 249.999V250.79H249.334C249.393 251.51 249.632 252.08 250.052 252.499C250.476 252.918 251.008 253.128 251.648 253.128C252.546 253.128 253.277 252.765 253.842 252.04L254.898 253.048C254.548 253.569 254.081 253.975 253.495 254.265C252.914 254.55 252.261 254.693 251.535 254.693ZM251.301 247.217C250.764 247.217 250.328 247.406 249.995 247.782C249.667 248.158 249.458 248.682 249.366 249.354H253.1V249.209C253.057 248.553 252.882 248.059 252.576 247.725C252.269 247.387 251.844 247.217 251.301 247.217ZM261.776 254.531C261.69 254.365 261.615 254.093 261.551 253.717C260.927 254.367 260.164 254.693 259.26 254.693C258.384 254.693 257.669 254.443 257.115 253.943C256.562 253.443 256.285 252.824 256.285 252.088C256.285 251.158 256.629 250.446 257.317 249.951C258.011 249.451 259 249.201 260.285 249.201H261.486V248.629C261.486 248.177 261.36 247.817 261.107 247.548C260.854 247.274 260.47 247.137 259.954 247.137C259.508 247.137 259.142 247.25 258.857 247.475C258.572 247.696 258.43 247.978 258.43 248.322H256.47C256.47 247.844 256.629 247.397 256.946 246.984C257.263 246.564 257.693 246.236 258.236 246C258.785 245.763 259.395 245.645 260.067 245.645C261.088 245.645 261.903 245.903 262.51 246.419C263.118 246.93 263.429 247.65 263.446 248.58V252.515C263.446 253.3 263.556 253.926 263.776 254.394V254.531H261.776ZM259.623 253.12C260.01 253.12 260.373 253.026 260.712 252.838C261.056 252.65 261.314 252.397 261.486 252.08V250.435H260.43C259.704 250.435 259.158 250.561 258.793 250.814C258.427 251.066 258.244 251.424 258.244 251.886C258.244 252.263 258.368 252.564 258.615 252.789C258.868 253.01 259.204 253.12 259.623 253.12ZM267.953 243.685V245.806H269.493V247.258H267.953V252.128C267.953 252.462 268.018 252.703 268.147 252.854C268.281 252.999 268.518 253.072 268.856 253.072C269.082 253.072 269.311 253.045 269.542 252.991V254.507C269.096 254.631 268.666 254.693 268.252 254.693C266.746 254.693 265.994 253.862 265.994 252.201V247.258H264.558V245.806H265.994V243.685H267.953ZM273.082 254.531H271.122V245.806H273.082V254.531ZM271.001 243.54C271.001 243.239 271.095 242.989 271.284 242.79C271.477 242.591 271.751 242.492 272.106 242.492C272.461 242.492 272.735 242.591 272.929 242.79C273.122 242.989 273.219 243.239 273.219 243.54C273.219 243.836 273.122 244.083 272.929 244.282C272.735 244.476 272.461 244.572 272.106 244.572C271.751 244.572 271.477 244.476 271.284 244.282C271.095 244.083 271.001 243.836 271.001 243.54ZM277.041 245.806L277.098 246.814C277.743 246.035 278.589 245.645 279.638 245.645C281.455 245.645 282.379 246.685 282.412 248.766V254.531H280.452V248.879C280.452 248.325 280.331 247.916 280.089 247.653C279.853 247.384 279.463 247.25 278.92 247.25C278.13 247.25 277.541 247.607 277.154 248.322V254.531H275.195V245.806H277.041ZM284.073 250.104C284.073 248.749 284.39 247.669 285.024 246.863C285.664 246.051 286.511 245.645 287.564 245.645C288.559 245.645 289.341 245.992 289.911 246.685L290 245.806H291.766V254.265C291.766 255.41 291.408 256.313 290.693 256.975C289.984 257.636 289.024 257.966 287.814 257.966C287.175 257.966 286.548 257.832 285.936 257.563C285.328 257.3 284.866 256.953 284.549 256.523L285.476 255.346C286.078 256.061 286.82 256.418 287.702 256.418C288.352 256.418 288.865 256.241 289.242 255.886C289.618 255.537 289.806 255.02 289.806 254.338V253.749C289.242 254.378 288.489 254.693 287.548 254.693C286.527 254.693 285.691 254.287 285.04 253.475C284.395 252.663 284.073 251.54 284.073 250.104ZM286.024 250.274C286.024 251.15 286.202 251.841 286.556 252.346C286.917 252.846 287.414 253.096 288.048 253.096C288.839 253.096 289.425 252.757 289.806 252.08V248.241C289.435 247.58 288.855 247.25 288.064 247.25C287.419 247.25 286.917 247.505 286.556 248.016C286.202 248.526 286.024 249.279 286.024 250.274ZM302.789 252.16C302.789 251.811 302.644 251.545 302.354 251.362C302.069 251.179 301.593 251.018 300.926 250.878C300.26 250.739 299.703 250.561 299.257 250.346C298.279 249.873 297.789 249.188 297.789 248.29C297.789 247.537 298.107 246.908 298.741 246.403C299.375 245.898 300.182 245.645 301.16 245.645C302.203 245.645 303.044 245.903 303.684 246.419C304.329 246.935 304.652 247.604 304.652 248.427H302.692C302.692 248.051 302.552 247.739 302.273 247.492C301.993 247.239 301.622 247.113 301.16 247.113C300.73 247.113 300.378 247.212 300.104 247.411C299.835 247.61 299.701 247.876 299.701 248.209C299.701 248.51 299.827 248.744 300.08 248.911C300.332 249.077 300.843 249.247 301.612 249.419C302.38 249.585 302.982 249.787 303.418 250.024C303.859 250.255 304.184 250.534 304.394 250.862C304.609 251.19 304.716 251.588 304.716 252.056C304.716 252.841 304.391 253.478 303.74 253.967C303.09 254.451 302.238 254.693 301.184 254.693C300.469 254.693 299.832 254.564 299.273 254.305C298.714 254.047 298.279 253.693 297.967 253.241C297.655 252.789 297.499 252.303 297.499 251.781H299.402C299.429 252.244 299.604 252.601 299.926 252.854C300.249 253.101 300.676 253.225 301.208 253.225C301.725 253.225 302.117 253.128 302.386 252.935C302.655 252.736 302.789 252.478 302.789 252.16ZM308.885 243.685V245.806H310.425V247.258H308.885V252.128C308.885 252.462 308.95 252.703 309.079 252.854C309.213 252.999 309.45 253.072 309.788 253.072C310.014 253.072 310.243 253.045 310.474 252.991V254.507C310.028 254.631 309.598 254.693 309.184 254.693C307.678 254.693 306.926 253.862 306.926 252.201V247.258H305.49V245.806H306.926V243.685H308.885ZM311.32 250.088C311.32 249.233 311.49 248.465 311.829 247.782C312.167 247.094 312.643 246.567 313.256 246.201C313.869 245.83 314.573 245.645 315.369 245.645C316.546 245.645 317.5 246.024 318.231 246.782C318.968 247.54 319.365 248.545 319.425 249.798L319.433 250.257C319.433 251.118 319.266 251.886 318.933 252.564C318.605 253.241 318.132 253.765 317.514 254.136C316.901 254.507 316.191 254.693 315.385 254.693C314.154 254.693 313.167 254.284 312.425 253.467C311.689 252.644 311.32 251.55 311.32 250.185V250.088ZM313.28 250.257C313.28 251.155 313.465 251.859 313.836 252.37C314.207 252.875 314.723 253.128 315.385 253.128C316.046 253.128 316.559 252.87 316.925 252.354C317.296 251.838 317.481 251.083 317.481 250.088C317.481 249.206 317.29 248.508 316.909 247.991C316.532 247.475 316.019 247.217 315.369 247.217C314.729 247.217 314.221 247.473 313.844 247.983C313.468 248.489 313.28 249.247 313.28 250.257ZM324.674 253.128C325.163 253.128 325.569 252.986 325.892 252.701C326.214 252.416 326.386 252.064 326.408 251.644H328.255C328.233 252.187 328.064 252.695 327.746 253.168C327.429 253.636 326.999 254.007 326.456 254.281C325.913 254.555 325.327 254.693 324.698 254.693C323.478 254.693 322.51 254.297 321.795 253.507C321.08 252.717 320.723 251.626 320.723 250.233V250.032C320.723 248.704 321.078 247.642 321.787 246.846C322.497 246.045 323.465 245.645 324.69 245.645C325.728 245.645 326.572 245.949 327.222 246.556C327.878 247.158 328.222 247.951 328.255 248.935H326.408C326.386 248.435 326.214 248.024 325.892 247.701C325.575 247.379 325.169 247.217 324.674 247.217C324.04 247.217 323.551 247.449 323.207 247.911C322.863 248.368 322.688 249.064 322.682 249.999V250.314C322.682 251.26 322.852 251.967 323.19 252.435C323.534 252.897 324.029 253.128 324.674 253.128ZM332.569 250.79L331.698 251.685V254.531H329.738V242.145H331.698V249.29L332.311 248.524L334.722 245.806H337.076L333.835 249.443L337.423 254.531H335.157L332.569 250.79ZM343.253 252.16C343.253 251.811 343.108 251.545 342.818 251.362C342.533 251.179 342.057 251.018 341.39 250.878C340.724 250.739 340.167 250.561 339.721 250.346C338.743 249.873 338.254 249.188 338.254 248.29C338.254 247.537 338.571 246.908 339.205 246.403C339.84 245.898 340.646 245.645 341.624 245.645C342.667 245.645 343.509 245.903 344.148 246.419C344.793 246.935 345.116 247.604 345.116 248.427H343.156C343.156 248.051 343.017 247.739 342.737 247.492C342.458 247.239 342.087 247.113 341.624 247.113C341.194 247.113 340.842 247.212 340.568 247.411C340.299 247.61 340.165 247.876 340.165 248.209C340.165 248.51 340.291 248.744 340.544 248.911C340.796 249.077 341.307 249.247 342.076 249.419C342.845 249.585 343.447 249.787 343.882 250.024C344.323 250.255 344.648 250.534 344.858 250.862C345.073 251.19 345.18 251.588 345.18 252.056C345.18 252.841 344.855 253.478 344.205 253.967C343.554 254.451 342.702 254.693 341.649 254.693C340.934 254.693 340.296 254.564 339.737 254.305C339.178 254.047 338.743 253.693 338.431 253.241C338.119 252.789 337.963 252.303 337.963 251.781H339.866C339.893 252.244 340.068 252.601 340.391 252.854C340.713 253.101 341.14 253.225 341.673 253.225C342.189 253.225 342.581 253.128 342.85 252.935C343.119 252.736 343.253 252.478 343.253 252.16Z" fill="#01875F"/>
<path d="M143.696 320.592H145.363V322.946H143.696V326.129H140.775V322.946H134.743L134.612 321.107L140.745 311.417H143.696V320.592ZM137.522 320.592H140.775V315.398L140.583 315.731L137.522 320.592ZM147.212 324.694C147.212 324.229 147.367 323.852 147.677 323.562C147.994 323.273 148.388 323.128 148.859 323.128C149.337 323.128 149.732 323.273 150.041 323.562C150.358 323.852 150.516 324.229 150.516 324.694C150.516 325.152 150.361 325.526 150.052 325.816C149.742 326.099 149.344 326.24 148.859 326.24C148.381 326.24 147.987 326.099 147.677 325.816C147.367 325.526 147.212 325.152 147.212 324.694ZM162.965 313.054L157.276 326.129H154.194L159.893 313.781H152.578V311.417H162.965V313.054Z" fill="black" fill-opacity="0.8"/>
<path d="M177.468 309.184L179.496 314.06L184.761 314.482L180.75 317.917L181.975 323.054L177.468 320.302L172.961 323.054L174.187 317.917L170.176 314.482L175.44 314.06L177.468 309.184Z" fill="black" fill-opacity="0.8"/>
<path d="M125.029 350.262H123.744V341.739L121.166 342.686V341.525L124.829 340.15H125.029V350.262ZM135.37 350.262H128.776V349.342L132.259 345.472C132.775 344.887 133.13 344.412 133.324 344.048C133.522 343.679 133.621 343.299 133.621 342.908C133.621 342.382 133.462 341.951 133.144 341.615C132.826 341.279 132.402 341.11 131.872 341.11C131.236 341.11 130.741 341.292 130.386 341.656C130.036 342.016 129.861 342.518 129.861 343.163H128.582C128.582 342.237 128.879 341.488 129.474 340.917C130.073 340.346 130.872 340.06 131.872 340.06C132.808 340.06 133.547 340.306 134.091 340.799C134.635 341.288 134.906 341.94 134.906 342.755C134.906 343.746 134.275 344.926 133.013 346.294L130.317 349.218H135.37V350.262ZM143.035 345.969C143.035 347.467 142.779 348.58 142.268 349.308C141.756 350.036 140.957 350.4 139.869 350.4C138.796 350.4 138.001 350.045 137.485 349.336C136.969 348.621 136.701 347.557 136.683 346.142V344.435C136.683 342.956 136.939 341.857 137.45 341.138C137.962 340.419 138.763 340.06 139.855 340.06C140.938 340.06 141.735 340.408 142.247 341.104C142.758 341.795 143.021 342.864 143.035 344.311V345.969ZM141.756 344.221C141.756 343.138 141.604 342.35 141.3 341.857C140.996 341.359 140.514 341.11 139.855 341.11C139.201 341.11 138.724 341.357 138.425 341.85C138.125 342.343 137.971 343.101 137.962 344.124V346.17C137.962 347.257 138.118 348.061 138.432 348.582C138.749 349.098 139.229 349.356 139.869 349.356C140.5 349.356 140.968 349.112 141.272 348.624C141.581 348.135 141.742 347.366 141.756 346.315V344.221ZM147.977 346.453C147.977 345.721 148.12 345.062 148.405 344.477C148.696 343.891 149.097 343.44 149.608 343.122C150.124 342.804 150.712 342.645 151.371 342.645C152.389 342.645 153.211 342.997 153.838 343.702C154.469 344.407 154.785 345.345 154.785 346.515V346.605C154.785 347.333 154.644 347.988 154.363 348.568C154.087 349.144 153.688 349.594 153.168 349.916C152.652 350.239 152.057 350.4 151.384 350.4C150.371 350.4 149.548 350.047 148.917 349.342C148.29 348.637 147.977 347.704 147.977 346.543V346.453ZM149.262 346.605C149.262 347.435 149.454 348.101 149.836 348.603C150.223 349.105 150.739 349.356 151.384 349.356C152.034 349.356 152.55 349.103 152.933 348.596C153.315 348.084 153.506 347.37 153.506 346.453C153.506 345.633 153.31 344.97 152.919 344.463C152.532 343.951 152.016 343.695 151.371 343.695C150.739 343.695 150.23 343.947 149.843 344.449C149.456 344.951 149.262 345.67 149.262 346.605ZM161.794 343.82H159.285V350.262H158.006V343.82H155.545V342.783H161.794V343.82ZM167.15 344.829C167.15 344.479 167.017 344.202 166.749 344C166.482 343.792 166.116 343.689 165.65 343.689C165.199 343.689 164.821 343.806 164.517 344.041C164.217 344.276 164.068 344.553 164.068 344.87H162.796C162.796 344.221 163.068 343.689 163.611 343.274C164.155 342.859 164.835 342.652 165.65 342.652C166.526 342.652 167.208 342.841 167.696 343.219C168.185 343.592 168.429 344.126 168.429 344.822C168.429 345.158 168.328 345.467 168.125 345.748C167.922 346.029 167.634 346.253 167.261 346.419C168.132 346.714 168.567 347.294 168.567 348.161C168.567 348.847 168.302 349.391 167.772 349.792C167.242 350.193 166.535 350.393 165.65 350.393C164.789 350.393 164.077 350.183 163.515 349.764C162.957 349.34 162.678 348.769 162.678 348.05H163.95C163.95 348.414 164.111 348.727 164.434 348.99C164.761 349.248 165.167 349.377 165.65 349.377C166.139 349.377 166.533 349.264 166.832 349.038C167.132 348.813 167.282 348.52 167.282 348.161C167.282 347.741 167.155 347.442 166.901 347.262C166.653 347.078 166.263 346.986 165.733 346.986H164.455V345.907H165.844C166.715 345.884 167.15 345.525 167.15 344.829ZM171.622 345.361H173.564C174.412 345.37 175.083 345.592 175.576 346.025C176.069 346.458 176.315 347.045 176.315 347.787C176.315 348.534 176.062 349.133 175.555 349.584C175.048 350.036 174.366 350.262 173.509 350.262H170.344V342.783H171.622V345.361ZM178.983 350.262H177.698V342.783H178.983V350.262ZM171.622 346.405V349.218H173.523C174.002 349.218 174.373 349.096 174.636 348.852C174.898 348.603 175.03 348.264 175.03 347.836C175.03 347.421 174.901 347.082 174.643 346.82C174.389 346.552 174.032 346.414 173.571 346.405H171.622ZM181.333 350.262V342.783H184.25C185.245 342.783 186.008 342.958 186.538 343.308C187.073 343.654 187.34 344.163 187.34 344.836C187.34 345.182 187.236 345.495 187.029 345.776C186.821 346.052 186.515 346.264 186.109 346.412C186.561 346.518 186.923 346.725 187.195 347.034C187.471 347.343 187.609 347.711 187.609 348.14C187.609 348.826 187.356 349.352 186.849 349.716C186.347 350.08 185.635 350.262 184.713 350.262H181.333ZM182.612 346.979V349.232H184.727C185.262 349.232 185.66 349.133 185.923 348.935C186.19 348.737 186.324 348.458 186.324 348.098C186.324 347.352 185.775 346.979 184.679 346.979H182.612ZM182.612 345.956H184.264C185.462 345.956 186.061 345.605 186.061 344.905C186.061 344.205 185.494 343.843 184.361 343.82H182.612V345.956ZM188.964 346.453C188.964 345.721 189.107 345.062 189.393 344.477C189.683 343.891 190.084 343.44 190.595 343.122C191.111 342.804 191.699 342.645 192.358 342.645C193.376 342.645 194.199 342.997 194.825 343.702C195.457 344.407 195.772 345.345 195.772 346.515V346.605C195.772 347.333 195.632 347.988 195.351 348.568C195.074 349.144 194.676 349.594 194.155 349.916C193.639 350.239 193.044 350.4 192.372 350.4C191.358 350.4 190.535 350.047 189.904 349.342C189.277 348.637 188.964 347.704 188.964 346.543V346.453ZM190.25 346.605C190.25 347.435 190.441 348.101 190.823 348.603C191.21 349.105 191.727 349.356 192.372 349.356C193.021 349.356 193.537 349.103 193.92 348.596C194.302 348.084 194.494 347.37 194.494 346.453C194.494 345.633 194.298 344.97 193.906 344.463C193.519 343.951 193.003 343.695 192.358 343.695C191.727 343.695 191.217 343.947 190.83 344.449C190.443 344.951 190.25 345.67 190.25 346.605ZM197.493 350.262V342.783H200.41C201.405 342.783 202.168 342.958 202.698 343.308C203.232 343.654 203.5 344.163 203.5 344.836C203.5 345.182 203.396 345.495 203.189 345.776C202.981 346.052 202.675 346.264 202.269 346.412C202.721 346.518 203.083 346.725 203.355 347.034C203.631 347.343 203.769 347.711 203.769 348.14C203.769 348.826 203.516 349.352 203.009 349.716C202.507 350.08 201.795 350.262 200.873 350.262H197.493ZM198.772 346.979V349.232H200.887C201.422 349.232 201.82 349.133 202.083 348.935C202.35 348.737 202.484 348.458 202.484 348.098C202.484 347.352 201.935 346.979 200.839 346.979H198.772ZM198.772 345.956H200.424C201.622 345.956 202.221 345.605 202.221 344.905C202.221 344.205 201.654 343.843 200.521 343.82H198.772V345.956Z" fill="black" fill-opacity="0.6"/>
<path d="M268.536 326.129H265.616V314.872L262.13 315.954V313.579L268.223 311.396H268.536V326.129ZM283.228 320.046C283.228 322.08 282.807 323.636 281.965 324.714C281.123 325.792 279.891 326.331 278.267 326.331C276.664 326.331 275.438 325.802 274.589 324.745C273.74 323.687 273.306 322.171 273.285 320.197V317.489C273.285 315.435 273.71 313.875 274.559 312.811C275.414 311.747 276.644 311.214 278.247 311.214C279.85 311.214 281.076 311.743 281.925 312.801C282.774 313.852 283.208 315.364 283.228 317.338V320.046ZM280.308 317.075C280.308 315.856 280.14 314.97 279.803 314.418C279.473 313.859 278.954 313.579 278.247 313.579C277.56 313.579 277.051 313.845 276.721 314.377C276.398 314.903 276.226 315.728 276.206 316.853V320.43C276.206 321.629 276.367 322.522 276.691 323.108C277.021 323.687 277.546 323.977 278.267 323.977C278.981 323.977 279.496 323.697 279.813 323.138C280.13 322.579 280.295 321.723 280.308 320.571V317.075ZM290.13 320.228L288.554 321.925V326.129H285.522V311.417H288.554V318.086L289.887 316.257L293.636 311.417H297.365L292.141 317.954L297.516 326.129H293.909L290.13 320.228ZM304.357 317.894H308.005V320.531H304.357V324.654H301.578V320.531H297.921V317.894H301.578V313.943H304.357V317.894Z" fill="black" fill-opacity="0.8"/>
<path d="M251.768 347.066C251.644 348.131 251.25 348.953 250.586 349.534C249.927 350.11 249.049 350.398 247.953 350.398C246.764 350.398 245.81 349.972 245.091 349.119C244.377 348.267 244.02 347.126 244.02 345.698V344.73C244.02 343.795 244.186 342.972 244.517 342.263C244.854 341.553 245.328 341.009 245.941 340.632C246.554 340.249 247.264 340.058 248.07 340.058C249.139 340.058 249.996 340.357 250.641 340.956C251.286 341.551 251.662 342.376 251.768 343.431H250.434C250.319 342.629 250.068 342.048 249.681 341.689C249.298 341.33 248.761 341.15 248.07 341.15C247.222 341.15 246.556 341.463 246.073 342.09C245.593 342.717 245.354 343.608 245.354 344.765V345.739C245.354 346.831 245.582 347.7 246.038 348.345C246.494 348.99 247.132 349.313 247.953 349.313C248.69 349.313 249.254 349.147 249.646 348.815C250.042 348.479 250.305 347.896 250.434 347.066H251.768ZM255.715 347.073H254.782V350.26H253.496V342.781H254.782V345.947H255.618L258.134 342.781H259.682L256.724 346.375L259.931 350.26H258.307L255.715 347.073ZM265.647 350.26C265.573 350.112 265.513 349.85 265.467 349.472C264.873 350.089 264.163 350.398 263.338 350.398C262.601 350.398 261.995 350.191 261.521 349.776C261.051 349.357 260.816 348.827 260.816 348.186C260.816 347.407 261.11 346.804 261.7 346.375C262.295 345.942 263.129 345.726 264.202 345.726H265.447V345.138C265.447 344.691 265.313 344.336 265.046 344.074C264.778 343.806 264.384 343.673 263.864 343.673C263.408 343.673 263.025 343.788 262.716 344.018C262.408 344.249 262.253 344.528 262.253 344.855H260.968C260.968 344.481 261.099 344.122 261.362 343.776C261.629 343.426 261.988 343.15 262.44 342.947C262.896 342.744 263.396 342.643 263.94 342.643C264.801 342.643 265.476 342.859 265.965 343.293C266.453 343.721 266.707 344.313 266.725 345.069V348.511C266.725 349.198 266.813 349.744 266.988 350.149V350.26H265.647ZM263.525 349.285C263.926 349.285 264.306 349.182 264.665 348.974C265.025 348.767 265.285 348.497 265.447 348.165V346.631H264.444C262.878 346.631 262.094 347.09 262.094 348.007C262.094 348.407 262.228 348.721 262.495 348.947C262.762 349.172 263.106 349.285 263.525 349.285ZM274.377 350.26H273.091V347.55C272.529 347.698 271.953 347.771 271.363 347.771C270.428 347.771 269.713 347.532 269.22 347.053C268.732 346.573 268.483 345.891 268.474 345.007V342.774H269.753V345.048C269.776 346.163 270.312 346.721 271.363 346.721C271.953 346.721 272.529 346.647 273.091 346.5V342.781H274.377V350.26ZM281.268 342.781H282.546V350.26H281.268V344.806L277.819 350.26H276.54V342.781H277.819V348.242L281.268 342.781ZM284.717 350.26V342.781H287.634C288.629 342.781 289.391 342.956 289.921 343.306C290.456 343.652 290.723 344.161 290.723 344.834C290.723 345.18 290.619 345.493 290.412 345.774C290.205 346.05 289.898 346.262 289.493 346.41C289.944 346.516 290.306 346.723 290.578 347.032C290.854 347.341 290.993 347.709 290.993 348.138C290.993 348.824 290.739 349.35 290.232 349.714C289.73 350.078 289.018 350.26 288.097 350.26H284.717ZM285.995 346.977V349.23H288.11C288.645 349.23 289.044 349.131 289.306 348.933C289.573 348.735 289.707 348.456 289.707 348.096C289.707 347.35 289.159 346.977 288.062 346.977H285.995ZM285.995 345.954H287.647C288.845 345.954 289.444 345.603 289.444 344.903C289.444 344.203 288.878 343.841 287.744 343.818H285.995V345.954ZM297.303 350.26C297.23 350.112 297.17 349.85 297.124 349.472C296.529 350.089 295.819 350.398 294.995 350.398C294.257 350.398 293.651 350.191 293.177 349.776C292.707 349.357 292.472 348.827 292.472 348.186C292.472 347.407 292.767 346.804 293.357 346.375C293.951 345.942 294.785 345.726 295.859 345.726H297.103V345.138C297.103 344.691 296.969 344.336 296.702 344.074C296.435 343.806 296.041 343.673 295.52 343.673C295.064 343.673 294.681 343.788 294.373 344.018C294.064 344.249 293.91 344.528 293.91 344.855H292.624C292.624 344.481 292.755 344.122 293.018 343.776C293.285 343.426 293.645 343.15 294.096 342.947C294.552 342.744 295.052 342.643 295.596 342.643C296.458 342.643 297.133 342.859 297.621 343.293C298.11 343.721 298.363 344.313 298.381 345.069V348.511C298.381 349.198 298.469 349.744 298.644 350.149V350.26H297.303ZM295.181 349.285C295.582 349.285 295.962 349.182 296.322 348.974C296.681 348.767 296.942 348.497 297.103 348.165V346.631H296.101C294.534 346.631 293.751 347.09 293.751 348.007C293.751 348.407 293.884 348.721 294.151 348.947C294.419 349.172 294.762 349.285 295.181 349.285ZM306.496 350.26H305.217V347.066H301.782V350.26H300.496V342.781H301.782V346.023H305.217V342.781H306.496V350.26ZM313.394 342.781H314.673V350.26H313.394V344.806L309.945 350.26H308.666V342.781H309.945V348.242L313.394 342.781ZM321.564 342.781H322.843V350.26H321.564V344.806L318.115 350.26H316.836V342.781H318.115V348.242L321.564 342.781ZM321.909 340.058C321.909 340.615 321.718 341.065 321.336 341.406C320.958 341.742 320.46 341.91 319.843 341.91C319.225 341.91 318.725 341.74 318.343 341.399C317.96 341.058 317.769 340.611 317.769 340.058H318.813C318.813 340.38 318.9 340.634 319.076 340.818C319.251 340.998 319.506 341.088 319.843 341.088C320.165 341.088 320.416 340.998 320.596 340.818C320.78 340.638 320.873 340.385 320.873 340.058H321.909Z" fill="black" fill-opacity="0.6"/>
<path d="M386.154 344.606H387.115C387.718 344.597 388.193 344.438 388.539 344.129C388.884 343.82 389.057 343.403 389.057 342.878C389.057 341.698 388.47 341.108 387.295 341.108C386.742 341.108 386.299 341.267 385.967 341.585C385.64 341.899 385.477 342.316 385.477 342.836H384.198C384.198 342.039 384.488 341.378 385.069 340.853C385.654 340.323 386.396 340.058 387.295 340.058C388.244 340.058 388.988 340.309 389.527 340.811C390.066 341.314 390.336 342.012 390.336 342.906C390.336 343.343 390.193 343.767 389.907 344.177C389.626 344.587 389.241 344.894 388.753 345.097C389.306 345.272 389.732 345.562 390.032 345.968C390.336 346.373 390.488 346.868 390.488 347.454C390.488 348.357 390.193 349.073 389.603 349.603C389.013 350.133 388.246 350.398 387.301 350.398C386.357 350.398 385.587 350.142 384.993 349.631C384.403 349.119 384.108 348.444 384.108 347.606H385.394C385.394 348.136 385.567 348.559 385.912 348.877C386.258 349.195 386.721 349.354 387.301 349.354C387.919 349.354 388.391 349.193 388.718 348.87C389.046 348.548 389.209 348.085 389.209 347.481C389.209 346.896 389.029 346.447 388.67 346.133C388.311 345.82 387.792 345.659 387.115 345.65H386.154V344.606ZM397.261 340.189V341.274H397.026C396.031 341.293 395.239 341.588 394.649 342.159C394.059 342.73 393.718 343.535 393.626 344.571C394.156 343.963 394.879 343.659 395.796 343.659C396.672 343.659 397.37 343.968 397.89 344.585C398.416 345.203 398.678 346 398.678 346.977C398.678 348.013 398.395 348.843 397.828 349.465C397.266 350.087 396.51 350.398 395.561 350.398C394.598 350.398 393.817 350.029 393.218 349.292C392.619 348.55 392.319 347.596 392.319 346.431V345.94C392.319 344.087 392.713 342.673 393.501 341.696C394.294 340.715 395.471 340.212 397.033 340.189H397.261ZM395.582 344.723C395.144 344.723 394.741 344.855 394.372 345.117C394.004 345.38 393.748 345.709 393.605 346.106V346.576C393.605 347.405 393.792 348.073 394.165 348.58C394.538 349.087 395.004 349.34 395.561 349.34C396.137 349.34 396.589 349.129 396.916 348.705C397.248 348.281 397.414 347.725 397.414 347.039C397.414 346.348 397.245 345.79 396.909 345.366C396.577 344.938 396.135 344.723 395.582 344.723ZM405.749 340.196L409.039 348.407L412.329 340.196H414.05V350.26H412.723V346.341L412.848 342.111L409.544 350.26H408.528L405.231 342.131L405.362 346.341V350.26H404.035V340.196H405.749ZM422.531 341.288H417.679V344.302H420.181C421.232 344.316 422.052 344.585 422.642 345.11C423.232 345.636 423.526 346.35 423.526 347.253C423.526 348.161 423.229 348.884 422.635 349.423C422.04 349.963 421.229 350.241 420.202 350.26H416.345V340.196H422.531V341.288ZM417.679 345.394V349.175H420.105C420.764 349.175 421.276 349 421.64 348.649C422.008 348.299 422.193 347.829 422.193 347.239C422.193 346.673 422.015 346.226 421.66 345.898C421.31 345.571 420.81 345.403 420.16 345.394H417.679Z" fill="black" fill-opacity="0.6"/>
<line x1="219.866" y1="311.486" x2="219.866" y2="349.234" stroke="black" stroke-opacity="0.3" stroke-width="1.17962"/>
<line x1="351.197" y1="311.486" x2="351.197" y2="349.234" stroke="black" stroke-opacity="0.3" stroke-width="1.17962"/>
<rect x="86.762" y="379.906" width="395.173" height="37.7479" rx="4.71849" fill="#01875F"/>
<path d="M238.778 399.377L241.866 391.59H243.921L239.175 402.768C238.855 403.481 238.557 403.988 238.281 404.289C238.004 404.584 237.679 404.811 237.304 404.971C236.935 405.125 236.471 405.201 235.912 405.201C235.427 405.201 235.117 405.174 234.981 405.118L235.037 403.718L235.875 403.754C236.521 403.754 237 403.444 237.313 402.824L237.543 402.344L237.894 401.524L233.323 391.59H235.304L238.778 399.377ZM249.146 403.801C249.754 403.801 250.286 403.616 250.741 403.248C251.195 402.879 251.447 402.418 251.496 401.865H253.109C253.078 402.437 252.882 402.98 252.519 403.496C252.157 404.013 251.671 404.424 251.063 404.731C250.461 405.039 249.822 405.192 249.146 405.192C247.788 405.192 246.707 404.741 245.902 403.837C245.104 402.928 244.704 401.687 244.704 400.114V399.829C244.704 398.858 244.882 397.995 245.239 397.239C245.595 396.483 246.105 395.896 246.769 395.479C247.438 395.061 248.228 394.852 249.137 394.852C250.255 394.852 251.183 395.187 251.92 395.857C252.664 396.526 253.06 397.396 253.109 398.465H251.496C251.447 397.819 251.201 397.291 250.759 396.879C250.323 396.462 249.782 396.253 249.137 396.253C248.271 396.253 247.598 396.566 247.119 397.193C246.646 397.813 246.409 398.713 246.409 399.893V400.216C246.409 401.364 246.646 402.249 247.119 402.87C247.592 403.49 248.268 403.801 249.146 403.801ZM262.435 396.419H259.09V405.008H257.385V396.419H254.104V395.036H262.435V396.419ZM270.103 405.008C270.005 404.811 269.925 404.461 269.863 403.957C269.071 404.78 268.125 405.192 267.025 405.192C266.042 405.192 265.234 404.916 264.601 404.363C263.974 403.804 263.661 403.097 263.661 402.243C263.661 401.205 264.054 400.4 264.841 399.829C265.633 399.251 266.745 398.962 268.177 398.962H269.836V398.179C269.836 397.583 269.657 397.11 269.301 396.76C268.945 396.403 268.419 396.225 267.725 396.225C267.117 396.225 266.607 396.379 266.195 396.686C265.784 396.993 265.578 397.365 265.578 397.801H263.864C263.864 397.303 264.039 396.824 264.389 396.363C264.745 395.896 265.225 395.528 265.827 395.257C266.435 394.987 267.102 394.852 267.827 394.852C268.976 394.852 269.876 395.141 270.527 395.718C271.178 396.29 271.516 397.079 271.541 398.087V402.676C271.541 403.592 271.657 404.32 271.891 404.86V405.008H270.103ZM267.274 403.708C267.808 403.708 268.315 403.57 268.794 403.294C269.273 403.017 269.621 402.658 269.836 402.215V400.17H268.499C266.41 400.17 265.366 400.781 265.366 402.003C265.366 402.538 265.544 402.956 265.901 403.257C266.257 403.558 266.715 403.708 267.274 403.708ZM282.36 405.008H280.655V400.75H276.075V405.008H274.361V395.036H276.075V399.359H280.655V395.036H282.36V405.008ZM284.655 399.93C284.655 398.953 284.845 398.074 285.226 397.294C285.613 396.514 286.148 395.912 286.83 395.488C287.518 395.064 288.301 394.852 289.18 394.852C290.537 394.852 291.634 395.322 292.47 396.262C293.311 397.202 293.732 398.452 293.732 400.013V400.133C293.732 401.103 293.545 401.976 293.17 402.75C292.801 403.518 292.27 404.117 291.576 404.547C290.888 404.977 290.095 405.192 289.198 405.192C287.846 405.192 286.75 404.722 285.908 403.782C285.072 402.842 284.655 401.598 284.655 400.05V399.93ZM286.369 400.133C286.369 401.239 286.624 402.126 287.134 402.796C287.65 403.466 288.338 403.801 289.198 403.801C290.064 403.801 290.752 403.463 291.262 402.787C291.772 402.105 292.027 401.153 292.027 399.93C292.027 398.836 291.766 397.952 291.244 397.276C290.728 396.594 290.04 396.253 289.18 396.253C288.338 396.253 287.659 396.588 287.143 397.257C286.627 397.927 286.369 398.885 286.369 400.133ZM296.027 405.008V395.036H299.916C301.243 395.036 302.26 395.27 302.966 395.737C303.679 396.198 304.035 396.876 304.035 397.773C304.035 398.234 303.897 398.652 303.621 399.027C303.344 399.395 302.936 399.678 302.395 399.875C302.997 400.016 303.479 400.292 303.842 400.704C304.211 401.116 304.395 401.607 304.395 402.179C304.395 403.094 304.057 403.794 303.381 404.28C302.711 404.765 301.762 405.008 300.533 405.008H296.027ZM297.732 400.63V403.635H300.552C301.265 403.635 301.796 403.503 302.146 403.238C302.503 402.974 302.681 402.602 302.681 402.123C302.681 401.128 301.95 400.63 300.487 400.63H297.732ZM297.732 399.266H299.934C301.532 399.266 302.331 398.799 302.331 397.866C302.331 396.932 301.575 396.449 300.063 396.419H297.732V399.266ZM313.104 395.036H314.809V405.008H313.104V397.737L308.505 405.008H306.8V395.036H308.505V402.317L313.104 395.036ZM324.955 396.419H321.61V405.008H319.905V396.419H316.624V395.036H324.955V396.419ZM328.476 398.474H331.065C332.196 398.486 333.09 398.781 333.747 399.359C334.405 399.936 334.733 400.719 334.733 401.709C334.733 402.704 334.395 403.503 333.72 404.105C333.044 404.707 332.134 405.008 330.992 405.008H326.771V395.036H328.476V398.474ZM328.476 399.865V403.616H331.01C331.649 403.616 332.144 403.453 332.494 403.128C332.844 402.796 333.019 402.344 333.019 401.773C333.019 401.22 332.847 400.769 332.503 400.418C332.165 400.062 331.689 399.878 331.075 399.865H328.476Z" fill="white"/>
<path d="M429.446 171.113H428.514L428.184 170.794C429.34 169.449 430.036 167.703 430.036 165.804C430.036 161.569 426.603 158.137 422.368 158.137C418.133 158.137 414.7 161.569 414.7 165.804C414.7 170.039 418.133 173.472 422.368 173.472C424.267 173.472 426.013 172.776 427.358 171.62L427.676 171.95V172.882L433.574 178.768L435.332 177.011L429.446 171.113ZM422.368 171.113C419.431 171.113 417.06 168.742 417.06 165.804C417.06 162.867 419.431 160.496 422.368 160.496C425.305 160.496 427.676 162.867 427.676 165.804C427.676 168.742 425.305 171.113 422.368 171.113Z" fill="#323232" fill-opacity="0.6"/>
<path d="M467.784 164.035C469.082 164.035 470.143 162.973 470.143 161.676C470.143 160.378 469.082 159.316 467.784 159.316C466.487 159.316 465.425 160.378 465.425 161.676C465.425 162.973 466.487 164.035 467.784 164.035ZM467.784 166.394C466.487 166.394 465.425 167.456 465.425 168.753C465.425 170.051 466.487 171.113 467.784 171.113C469.082 171.113 470.143 170.051 470.143 168.753C470.143 167.456 469.082 166.394 467.784 166.394ZM467.784 173.472C466.487 173.472 465.425 174.534 465.425 175.831C465.425 177.129 466.487 178.19 467.784 178.19C469.082 178.19 470.143 177.129 470.143 175.831C470.143 174.534 469.082 173.472 467.784 173.472Z" fill="#323232" fill-opacity="0.6"/>
<g filter="url(#filter1_ddd)">
<path d="M126.128 265.19C146.337 265.19 162.72 248.808 162.72 228.599C162.72 208.39 146.337 192.008 126.128 192.008C105.92 192.008 89.5374 208.39 89.5374 228.599C89.5374 248.808 105.92 265.19 126.128 265.19Z" fill="#F0F5FF"/>
<path d="M162.47 228.599C162.47 248.67 146.199 264.941 126.128 264.941C106.057 264.941 89.7866 248.67 89.7866 228.599C89.7866 208.528 106.057 192.257 126.128 192.257C146.199 192.257 162.47 208.528 162.47 228.599Z" stroke="#BEDCFF" stroke-width="0.498437"/>
</g>
<g filter="url(#filter2_i)">
<path d="M118.512 229.429C119.712 229.849 120.652 230.509 121.332 231.409C122.012 232.289 122.352 233.359 122.352 234.619C122.352 236.459 121.612 237.879 120.132 238.879C118.652 239.879 116.512 240.379 113.712 240.379H102.372V219.379H113.112C115.792 219.379 117.832 219.879 119.232 220.879C120.632 221.859 121.332 223.189 121.332 224.869C121.332 225.869 121.082 226.769 120.582 227.569C120.102 228.349 119.412 228.969 118.512 229.429ZM108.252 223.669V227.719H112.332C114.332 227.719 115.332 227.039 115.332 225.679C115.332 224.339 114.332 223.669 112.332 223.669H108.252ZM113.232 236.089C115.312 236.089 116.352 235.379 116.352 233.959C116.352 232.539 115.312 231.829 113.232 231.829H108.252V236.089H113.232Z" fill="#3E54D8"/>
<path d="M144.389 240.379L144.329 229.249L138.929 238.309H136.289L130.919 229.549V240.379H125.429V219.379H130.319L137.699 231.499L144.899 219.379H149.789L149.849 240.379H144.389Z" fill="#EF7381"/>
</g>
<path d="M395.8 316.285L400.704 321.188L405.608 316.285" stroke="#323233" stroke-width="2.29936" stroke-linecap="round" stroke-linejoin="round"/>
<path d="M400.704 308.109V321.184" stroke="#323233" stroke-width="2.29936" stroke-linecap="round" stroke-linejoin="round"/>
<path d="M410.979 321.188V327.726C410.979 327.974 410.88 328.212 410.705 328.387C410.53 328.562 410.293 328.66 410.045 328.66H391.362C391.115 328.66 390.877 328.562 390.702 328.387C390.527 328.212 390.428 327.974 390.428 327.726V321.188" stroke="#323233" stroke-width="2.29936" stroke-linecap="round" stroke-linejoin="round"/>
<path d="M63.7636 108.592C63.7636 95.8884 74.0623 85.5898 86.7663 85.5898H482.408C495.112 85.5898 505.411 95.8884 505.411 108.592V422.5C505.411 435.153 495.153 445.41 482.5 445.41H86.6739C74.0209 445.41 63.7636 435.153 63.7636 422.5V108.592Z" stroke="#D3E3FF" stroke-width="1.17962"/>
</g>
<defs>
<filter id="filter0_d" x="0.173828" y="0" width="568.827" height="487" filterUnits="userSpaceOnUse" color-interpolation-filters="sRGB">
<feFlood flood-opacity="0" result="BackgroundImageFix"/>
<feColorMatrix in="SourceAlpha" type="matrix" values="0 0 0 0 0 0 0 0 0 0 0 0 0 0 0 0 0 0 127 0"/>
<feMorphology radius="5" operator="erode" in="SourceAlpha" result="effect1_dropShadow"/>
<feOffset dy="-22"/>
<feGaussianBlur stdDeviation="34"/>
<feColorMatrix type="matrix" values="0 0 0 0 0.243137 0 0 0 0 0.329412 0 0 0 0 0.847059 0 0 0 0.12 0"/>
<feBlend mode="normal" in2="BackgroundImageFix" result="effect1_dropShadow"/>
<feBlend mode="normal" in="SourceGraphic" in2="effect1_dropShadow" result="shape"/>
</filter>
<filter id="filter1_ddd" x="82.8915" y="187.356" width="86.4738" height="86.4738" filterUnits="userSpaceOnUse" color-interpolation-filters="sRGB">
<feFlood flood-opacity="0" result="BackgroundImageFix"/>
<feColorMatrix in="SourceAlpha" type="matrix" values="0 0 0 0 0 0 0 0 0 0 0 0 0 0 0 0 0 0 127 0"/>
<feOffset dy="1.99375"/>
<feGaussianBlur stdDeviation="3.32291"/>
<feColorMatrix type="matrix" values="0 0 0 0 0 0 0 0 0 0.380392 0 0 0 0 0.913725 0 0 0 0.18 0"/>
<feBlend mode="normal" in2="BackgroundImageFix" result="effect1_dropShadow"/>
<feColorMatrix in="SourceAlpha" type="matrix" values="0 0 0 0 0 0 0 0 0 0 0 0 0 0 0 0 0 0 127 0"/>
<feOffset dy="0.664582"/>
<feGaussianBlur stdDeviation="0.0830728"/>
<feColorMatrix type="matrix" values="0 0 0 0 0 0 0 0 0 0.380392 0 0 0 0 0.913725 0 0 0 0.03 0"/>
<feBlend mode="normal" in2="effect1_dropShadow" result="effect2_dropShadow"/>
<feColorMatrix in="SourceAlpha" type="matrix" values="0 0 0 0 0 0 0 0 0 0 0 0 0 0 0 0 0 0 127 0"/>
<feOffset dy="2.95685"/>
<feGaussianBlur stdDeviation="1.47843"/>
<feColorMatrix type="matrix" values="0 0 0 0 0 0 0 0 0 0 0 0 0 0 0 0 0 0 0.07 0"/>
<feBlend mode="normal" in2="effect2_dropShadow" result="effect3_dropShadow"/>
<feBlend mode="normal" in="SourceGraphic" in2="effect3_dropShadow" result="shape"/>
</filter>
<filter id="filter2_i" x="102.373" y="219.379" width="47.4766" height="21.7996" filterUnits="userSpaceOnUse" color-interpolation-filters="sRGB">
<feFlood flood-opacity="0" result="BackgroundImageFix"/>
<feBlend mode="normal" in="SourceGraphic" in2="BackgroundImageFix" result="shape"/>
<feColorMatrix in="SourceAlpha" type="matrix" values="0 0 0 0 0 0 0 0 0 0 0 0 0 0 0 0 0 0 127 0" result="hardAlpha"/>
<feOffset dy="0.799634"/>
<feGaussianBlur stdDeviation="0.599726"/>
<feComposite in2="hardAlpha" operator="arithmetic" k2="-1" k3="1"/>
<feColorMatrix type="matrix" values="0 0 0 0 0 0 0 0 0 0 0 0 0 0 0 0 0 0 0.25 0"/>
<feBlend mode="normal" in2="shape" result="effect1_innerShadow"/>
</filter>
</defs>
</svg>
