<svg width="375" height="358" viewBox="0 0 375 358" fill="none" xmlns="http://www.w3.org/2000/svg">
<circle cx="41.8272" cy="66.8271" r="34.8272" fill="#F3B63F"/>
<g filter="url(#filter0_d)">
<path d="M24.8984 79.8497C24.8984 70.2839 32.653 62.5293 42.2188 62.5293H332.68C342.245 62.5293 350 70.2839 350 79.8497V310.305C350 319.833 342.276 327.558 332.747 327.558H42.151C32.6227 327.558 24.8984 319.833 24.8984 310.305V79.8497Z" fill="#FAFCFF"/>
<path d="M73.1053 86.7499H73.9815C74.4235 86.7459 74.7728 86.6315 75.0293 86.4065C75.2898 86.1815 75.4201 85.8559 75.4201 85.4297C75.4201 85.0192 75.3115 84.7015 75.0945 84.4766C74.8813 84.2477 74.5538 84.1332 74.1117 84.1332C73.725 84.1332 73.4072 84.2457 73.1586 84.4706C72.91 84.6917 72.7856 84.9817 72.7856 85.3409H71.3471C71.3471 84.8989 71.4635 84.4963 71.6963 84.1332C71.9331 83.7701 72.2607 83.4879 72.6791 83.2866C73.1014 83.0814 73.573 82.9788 74.094 82.9788C74.9544 82.9788 75.6292 83.1959 76.1186 83.63C76.612 84.0602 76.8586 84.6601 76.8586 85.4297C76.8586 85.8165 76.7343 86.1815 76.4857 86.5249C76.241 86.8643 75.9233 87.1209 75.5325 87.2945C76.0061 87.4563 76.3653 87.7109 76.61 88.0582C76.8586 88.4055 76.983 88.8199 76.983 89.3014C76.983 90.075 76.7166 90.6907 76.1837 91.1485C75.6549 91.6063 74.9583 91.8352 74.094 91.8352C73.2652 91.8352 72.5863 91.6142 72.0575 91.1722C71.5286 90.7301 71.2642 90.1421 71.2642 89.408H72.7028C72.7028 89.7869 72.829 90.0947 73.0816 90.3315C73.3382 90.5683 73.6815 90.6867 74.1117 90.6867C74.5577 90.6867 74.909 90.5683 75.1655 90.3315C75.422 90.0947 75.5503 89.7513 75.5503 89.3014C75.5503 88.8475 75.4161 88.4983 75.1477 88.2536C74.8794 88.0089 74.4807 87.8865 73.9519 87.8865H73.1053V86.7499ZM79.2918 90.2013C79.5602 90.2013 79.7674 90.2782 79.9134 90.4321C80.0594 90.5821 80.1324 90.7716 80.1324 91.0005C80.1324 91.2254 80.0594 91.4129 79.9134 91.5629C79.7674 91.7089 79.5602 91.7819 79.2918 91.7819C79.0352 91.7819 78.832 91.7089 78.682 91.5629C78.532 91.4168 78.4571 91.2294 78.4571 91.0005C78.4571 90.7716 78.5301 90.5821 78.6761 90.4321C78.8221 90.2782 79.0274 90.2013 79.2918 90.2013ZM79.2918 85.1751C79.5602 85.1751 79.7674 85.2521 79.9134 85.406C80.0594 85.556 80.1324 85.7454 80.1324 85.9743C80.1324 86.1993 80.0594 86.3868 79.9134 86.5367C79.7674 86.6828 79.5602 86.7558 79.2918 86.7558C79.0352 86.7558 78.832 86.6828 78.682 86.5367C78.532 86.3907 78.4571 86.2032 78.4571 85.9743C78.4571 85.7454 78.5301 85.556 78.6761 85.406C78.8221 85.2521 79.0274 85.1751 79.2918 85.1751ZM81.938 87.4425L82.4057 83.0972H87.0352V84.3404H83.6016L83.3648 86.4006C83.7634 86.1717 84.2133 86.0572 84.7146 86.0572C85.5355 86.0572 86.1729 86.3197 86.6267 86.8446C87.0846 87.3695 87.3135 88.076 87.3135 88.964C87.3135 89.8401 87.0609 90.5387 86.5557 91.0597C86.0505 91.5767 85.3579 91.8352 84.4778 91.8352C83.6884 91.8352 83.0333 91.6122 82.5123 91.1662C81.9953 90.7163 81.7151 90.1243 81.6716 89.3902H83.0629C83.1181 89.8086 83.2681 90.1302 83.5128 90.3552C83.7575 90.5762 84.0772 90.6867 84.4718 90.6867C84.9139 90.6867 85.2572 90.5288 85.5019 90.2131C85.7506 89.8974 85.8749 89.4672 85.8749 88.9225C85.8749 88.3976 85.7387 87.9832 85.4664 87.6793C85.1941 87.3715 84.8191 87.2175 84.3416 87.2175C84.0811 87.2175 83.8601 87.2531 83.6785 87.3241C83.497 87.3912 83.2997 87.5254 83.0865 87.7267L81.938 87.4425ZM94.0623 88.0878C94.0623 89.3271 93.8295 90.2624 93.3638 90.8939C92.902 91.5214 92.1975 91.8352 91.2503 91.8352C90.3189 91.8352 89.6164 91.5293 89.1428 90.9176C88.6731 90.3019 88.4324 89.3922 88.4205 88.1884V86.6966C88.4205 85.4573 88.6514 84.5279 89.1132 83.9082C89.5789 83.2886 90.2873 82.9788 91.2385 82.9788C92.1817 82.9788 92.8842 83.2807 93.346 83.8846C93.8117 84.4884 94.0505 85.3922 94.0623 86.5959V88.0878ZM92.6238 86.4775C92.6238 85.6685 92.5133 85.0765 92.2922 84.7015C92.0712 84.3226 91.72 84.1332 91.2385 84.1332C90.7688 84.1332 90.4235 84.3128 90.2025 84.6719C89.9814 85.0271 89.865 85.5836 89.8532 86.3414V88.295C89.8532 89.1001 89.9657 89.7 90.1906 90.0947C90.4156 90.4894 90.7688 90.6867 91.2503 90.6867C91.7121 90.6867 92.0535 90.5052 92.2745 90.1421C92.4955 89.775 92.6119 89.2027 92.6238 88.4252V86.4775Z" fill="black" fill-opacity="0.8"/>
<mask id="mask0" mask-type="alpha" maskUnits="userSpaceOnUse" x="281" y="80" width="16" height="12">
<path fill-rule="evenodd" clip-rule="evenodd" d="M281.24 80.7168L288.746 91.9751L296.251 80.7168H281.24Z" fill="white"/>
</mask>
<g mask="url(#mask0)">
<g opacity="0.3">
<path fill-rule="evenodd" clip-rule="evenodd" d="M288.744 80.7168C282.552 80.7168 277.485 85.783 277.485 91.9751C277.485 98.1671 282.552 103.233 288.744 103.233C294.936 103.233 300.002 98.1671 300.002 91.9751C300.002 85.783 294.936 80.7168 288.744 80.7168ZM288.745 100.419C284.054 100.419 280.301 96.666 280.301 91.9751C280.301 87.2841 284.054 83.5314 288.745 83.5314C293.436 83.5314 297.188 87.2841 297.188 91.9751C297.188 96.666 293.436 100.419 288.745 100.419Z" fill="black"/>
</g>
<g opacity="0.9">
<path fill-rule="evenodd" clip-rule="evenodd" d="M288.745 83.5312C284.054 83.5312 280.301 87.284 280.301 91.9749C280.301 96.6659 284.054 100.419 288.745 100.419C293.435 100.419 297.188 96.6659 297.188 91.9749C297.188 87.284 293.435 83.5312 288.745 83.5312ZM288.742 97.6051C285.646 97.6051 283.113 95.072 283.113 91.976C283.113 88.88 285.646 86.3469 288.742 86.3469C291.838 86.3469 294.371 88.88 294.371 91.976C294.371 95.072 291.838 97.6051 288.742 97.6051Z" fill="black"/>
<path fill-rule="evenodd" clip-rule="evenodd" d="M288.742 86.3477C285.646 86.3477 283.113 88.8808 283.113 91.9768C283.113 95.0728 285.646 97.6059 288.742 97.6059C291.838 97.6059 294.371 95.0728 294.371 91.9768C294.371 88.8808 291.838 86.3477 288.742 86.3477ZM288.746 94.7905C287.151 94.7905 285.931 93.5708 285.931 91.9759C285.931 90.381 287.151 89.1613 288.746 89.1613C290.341 89.1613 291.56 90.381 291.56 91.9759C291.56 93.5708 290.341 94.7905 288.746 94.7905Z" fill="black"/>
<path fill-rule="evenodd" clip-rule="evenodd" d="M288.746 94.7912C290.3 94.7912 291.56 93.5311 291.56 91.9767C291.56 90.4222 290.3 89.1621 288.746 89.1621C287.191 89.1621 285.931 90.4222 285.931 91.9767C285.931 93.5311 287.191 94.7912 288.746 94.7912Z" fill="black"/>
</g>
</g>
<mask id="mask1" mask-type="alpha" maskUnits="userSpaceOnUse" x="305" y="80" width="12" height="12">
<path fill-rule="evenodd" clip-rule="evenodd" d="M316.891 91.9751V80.7168L305.632 91.9751H316.891Z" fill="white"/>
</mask>
<g mask="url(#mask1)">
<g opacity="0.3">
<path fill-rule="evenodd" clip-rule="evenodd" d="M314.078 80.7188V91.977H316.892V80.7188H314.078Z" fill="black"/>
<path fill-rule="evenodd" clip-rule="evenodd" d="M311.26 80.7188V91.977H314.074V80.7188H311.26Z" fill="black"/>
</g>
<g opacity="0.9">
<path fill-rule="evenodd" clip-rule="evenodd" d="M308.448 80.7188V91.977H311.262V80.7188H308.448Z" fill="black"/>
<path fill-rule="evenodd" clip-rule="evenodd" d="M305.632 80.7168V91.9751H308.446V80.7168H305.632Z" fill="black"/>
</g>
</g>
<mask id="mask2" mask-type="alpha" maskUnits="userSpaceOnUse" x="330" y="79" width="8" height="14">
<path fill-rule="evenodd" clip-rule="evenodd" d="M336.592 80.7878H335.654V79.8496H331.901V80.7878H330.963C330.4 80.7878 330.024 81.1631 330.024 81.726V91.1079C330.024 91.6708 330.4 92.0461 330.963 92.0461H336.592C337.155 92.0461 337.53 91.6708 337.53 91.1079V81.726C337.53 81.1631 337.155 80.7878 336.592 80.7878Z" fill="white"/>
</mask>
<g mask="url(#mask2)">
<g opacity="0.9">
<path fill-rule="evenodd" clip-rule="evenodd" d="M330.023 89.2324V92.047H337.528V89.2324H330.023Z" fill="black"/>
<path fill-rule="evenodd" clip-rule="evenodd" d="M330.023 86.416V89.2306H337.529V86.416H330.023Z" fill="black"/>
</g>
<g opacity="0.3">
<path fill-rule="evenodd" clip-rule="evenodd" d="M330.024 83.6016V86.4161H337.53V83.6016H330.024Z" fill="black"/>
<path fill-rule="evenodd" clip-rule="evenodd" d="M330.024 80.7871V83.6017H337.53V80.7871H330.024Z" fill="black"/>
<path fill-rule="evenodd" clip-rule="evenodd" d="M331.899 79.8496V80.7878H335.651V79.8496H331.899Z" fill="black"/>
</g>
</g>
<circle cx="50.8768" cy="87.6438" r="7.79418" fill="black"/>
<path d="M59.5376 123.152H48.9981L53.8392 118.311L52.6094 117.09L45.6813 124.018L52.6094 130.946L53.8305 129.725L48.9981 124.884H59.5376V123.152Z" fill="black" fill-opacity="0.5"/>
<path d="M112.944 165.133V151.588H117.586C119.118 151.588 120.284 151.895 121.084 152.509C121.884 153.123 122.284 154.037 122.284 155.253C122.284 155.873 122.117 156.431 121.782 156.928C121.447 157.424 120.957 157.808 120.312 158.081C121.044 158.28 121.608 158.655 122.005 159.207C122.408 159.753 122.61 160.41 122.61 161.179C122.61 162.45 122.201 163.427 121.382 164.109C120.569 164.792 119.403 165.133 117.884 165.133H112.944ZM115.298 159.021V163.254H117.912C118.65 163.254 119.227 163.071 119.642 162.705C120.058 162.339 120.266 161.83 120.266 161.179C120.266 159.771 119.546 159.052 118.107 159.021H115.298ZM115.298 157.29H117.605C118.337 157.29 118.907 157.126 119.317 156.797C119.732 156.462 119.94 155.991 119.94 155.383C119.94 154.714 119.748 154.23 119.363 153.932C118.985 153.634 118.393 153.486 117.586 153.486H115.298V157.29ZM129.178 165.319C127.745 165.319 126.582 164.869 125.689 163.97C124.802 163.064 124.359 161.861 124.359 160.36V160.081C124.359 159.077 124.551 158.18 124.936 157.393C125.326 156.599 125.872 155.982 126.573 155.541C127.274 155.101 128.055 154.881 128.917 154.881C130.288 154.881 131.345 155.318 132.09 156.193C132.84 157.067 133.215 158.304 133.215 159.905V160.816H126.638C126.706 161.647 126.982 162.305 127.466 162.788C127.956 163.272 128.57 163.514 129.308 163.514C130.344 163.514 131.187 163.095 131.838 162.258L133.057 163.421C132.654 164.023 132.114 164.491 131.438 164.826C130.769 165.155 130.015 165.319 129.178 165.319ZM128.908 156.695C128.288 156.695 127.785 156.912 127.401 157.346C127.023 157.78 126.781 158.385 126.675 159.16H130.983V158.993C130.933 158.236 130.731 157.666 130.378 157.281C130.024 156.89 129.534 156.695 128.908 156.695ZM140.993 165.133C140.893 164.941 140.806 164.627 140.732 164.193C140.013 164.944 139.132 165.319 138.09 165.319C137.079 165.319 136.254 165.03 135.615 164.454C134.977 163.877 134.657 163.164 134.657 162.314C134.657 161.241 135.054 160.419 135.848 159.849C136.648 159.272 137.789 158.984 139.271 158.984H140.658V158.323C140.658 157.802 140.512 157.387 140.22 157.076C139.929 156.76 139.485 156.602 138.89 156.602C138.375 156.602 137.954 156.732 137.625 156.993C137.296 157.247 137.132 157.573 137.132 157.97H134.871C134.871 157.418 135.054 156.903 135.42 156.425C135.786 155.941 136.282 155.563 136.909 155.29C137.541 155.017 138.245 154.881 139.02 154.881C140.199 154.881 141.138 155.179 141.839 155.774C142.54 156.363 142.9 157.194 142.918 158.267V162.807C142.918 163.713 143.045 164.435 143.3 164.975V165.133H140.993ZM138.509 163.505C138.955 163.505 139.374 163.396 139.765 163.179C140.161 162.962 140.459 162.671 140.658 162.305V160.407H139.439C138.602 160.407 137.972 160.553 137.55 160.844C137.129 161.136 136.918 161.548 136.918 162.081C136.918 162.516 137.06 162.863 137.346 163.123C137.637 163.378 138.025 163.505 138.509 163.505ZM148.119 152.62V155.067H149.895V156.742H148.119V162.361C148.119 162.745 148.193 163.024 148.342 163.198C148.497 163.365 148.77 163.449 149.161 163.449C149.421 163.449 149.685 163.418 149.951 163.356V165.105C149.437 165.248 148.94 165.319 148.463 165.319C146.726 165.319 145.858 164.361 145.858 162.444V156.742H144.202V155.067H145.858V152.62H148.119ZM154.9 151.588L158.808 161.97L162.706 151.588H165.748V165.133H163.403V160.667L163.636 154.695L159.636 165.133H157.952L153.961 154.704L154.193 160.667V165.133H151.849V151.588H154.9ZM174.334 165.133C174.235 164.941 174.148 164.627 174.074 164.193C173.354 164.944 172.474 165.319 171.432 165.319C170.421 165.319 169.596 165.03 168.957 164.454C168.318 163.877 167.999 163.164 167.999 162.314C167.999 161.241 168.396 160.419 169.19 159.849C169.99 159.272 171.131 158.984 172.613 158.984H173.999V158.323C173.999 157.802 173.854 157.387 173.562 157.076C173.271 156.76 172.827 156.602 172.232 156.602C171.717 156.602 171.295 156.732 170.967 156.993C170.638 157.247 170.474 157.573 170.474 157.97H168.213C168.213 157.418 168.396 156.903 168.762 156.425C169.128 155.941 169.624 155.563 170.25 155.29C170.883 155.017 171.587 154.881 172.362 154.881C173.54 154.881 174.48 155.179 175.181 155.774C175.882 156.363 176.241 157.194 176.26 158.267V162.807C176.26 163.713 176.387 164.435 176.641 164.975V165.133H174.334ZM171.85 163.505C172.297 163.505 172.716 163.396 173.106 163.179C173.503 162.962 173.801 162.671 173.999 162.305V160.407H172.781C171.943 160.407 171.314 160.553 170.892 160.844C170.471 161.136 170.26 161.548 170.26 162.081C170.26 162.516 170.402 162.863 170.688 163.123C170.979 163.378 171.367 163.505 171.85 163.505ZM183.898 157.132C183.6 157.083 183.293 157.058 182.977 157.058C181.941 157.058 181.243 157.455 180.884 158.249V165.133H178.623V155.067H180.781L180.837 156.193C181.383 155.318 182.14 154.881 183.107 154.881C183.43 154.881 183.696 154.924 183.907 155.011L183.898 157.132ZM188.596 160.816L187.591 161.849V165.133H185.33V150.843H187.591V159.086L188.298 158.202L191.08 155.067H193.796L190.056 159.263L194.196 165.133H191.582L188.596 160.816ZM199.527 165.319C198.094 165.319 196.931 164.869 196.038 163.97C195.151 163.064 194.708 161.861 194.708 160.36V160.081C194.708 159.077 194.9 158.18 195.285 157.393C195.675 156.599 196.221 155.982 196.922 155.541C197.623 155.101 198.404 154.881 199.266 154.881C200.637 154.881 201.694 155.318 202.439 156.193C203.189 157.067 203.564 158.304 203.564 159.905V160.816H196.987C197.055 161.647 197.331 162.305 197.815 162.788C198.305 163.272 198.919 163.514 199.657 163.514C200.693 163.514 201.536 163.095 202.187 162.258L203.406 163.421C203.003 164.023 202.463 164.491 201.787 164.826C201.118 165.155 200.364 165.319 199.527 165.319ZM199.257 156.695C198.637 156.695 198.134 156.912 197.75 157.346C197.372 157.78 197.13 158.385 197.024 159.16H201.332V158.993C201.282 158.236 201.08 157.666 200.727 157.281C200.373 156.89 199.883 156.695 199.257 156.695ZM208.16 152.62V155.067H209.937V156.742H208.16V162.361C208.16 162.745 208.234 163.024 208.383 163.198C208.538 163.365 208.811 163.449 209.202 163.449C209.462 163.449 209.726 163.418 209.993 163.356V165.105C209.478 165.248 208.982 165.319 208.504 165.319C206.768 165.319 205.899 164.361 205.899 162.444V156.742H204.243V155.067H205.899V152.62H208.16Z" fill="black" fill-opacity="0.8"/>
<path d="M114.385 178.359L116.872 184.966L119.352 178.359H121.288V186.979H119.796V184.137L119.944 180.336L117.399 186.979H116.327L113.787 180.342L113.935 184.137V186.979H112.443V178.359H114.385ZM126.752 186.979C126.689 186.856 126.634 186.657 126.586 186.381C126.129 186.858 125.568 187.097 124.905 187.097C124.262 187.097 123.737 186.913 123.33 186.546C122.924 186.179 122.721 185.725 122.721 185.185C122.721 184.502 122.973 183.979 123.478 183.616C123.988 183.249 124.714 183.065 125.657 183.065H126.539V182.645C126.539 182.314 126.446 182.049 126.261 181.852C126.075 181.65 125.793 181.55 125.414 181.55C125.087 181.55 124.818 181.633 124.609 181.798C124.4 181.96 124.295 182.167 124.295 182.42H122.857C122.857 182.069 122.973 181.741 123.206 181.437C123.439 181.129 123.755 180.889 124.153 180.715C124.556 180.541 125.004 180.455 125.497 180.455C126.247 180.455 126.845 180.644 127.291 181.023C127.737 181.398 127.966 181.927 127.978 182.61V185.499C127.978 186.075 128.059 186.535 128.22 186.878V186.979H126.752ZM125.172 185.943C125.456 185.943 125.722 185.873 125.971 185.735C126.223 185.597 126.413 185.412 126.539 185.179V183.971H125.764C125.231 183.971 124.83 184.064 124.562 184.249C124.293 184.435 124.159 184.697 124.159 185.037C124.159 185.313 124.25 185.534 124.432 185.7C124.617 185.862 124.864 185.943 125.172 185.943ZM132.838 181.887C132.649 181.856 132.453 181.84 132.252 181.84C131.593 181.84 131.149 182.092 130.92 182.598V186.979H129.481V180.573H130.855L130.89 181.289C131.238 180.733 131.719 180.455 132.335 180.455C132.54 180.455 132.71 180.482 132.844 180.537L132.838 181.887ZM135.828 184.232L135.188 184.889V186.979H133.75V177.885H135.188V183.13L135.638 182.568L137.408 180.573H139.137L136.757 183.243L139.392 186.979H137.728L135.828 184.232ZM142.784 187.097C141.872 187.097 141.132 186.811 140.564 186.239C139.999 185.662 139.717 184.897 139.717 183.942V183.764C139.717 183.125 139.84 182.554 140.084 182.053C140.333 181.548 140.68 181.155 141.126 180.875C141.572 180.595 142.069 180.455 142.618 180.455C143.49 180.455 144.163 180.733 144.637 181.289C145.114 181.846 145.353 182.633 145.353 183.651V184.232H141.168C141.211 184.76 141.387 185.179 141.694 185.487C142.006 185.795 142.397 185.948 142.867 185.948C143.526 185.948 144.063 185.682 144.477 185.149L145.252 185.889C144.996 186.272 144.653 186.57 144.222 186.783C143.796 186.992 143.317 187.097 142.784 187.097ZM142.612 181.609C142.217 181.609 141.898 181.747 141.653 182.023C141.412 182.3 141.258 182.684 141.191 183.178H143.932V183.071C143.901 182.59 143.772 182.227 143.547 181.982C143.323 181.733 143.011 181.609 142.612 181.609ZM148.278 179.016V180.573H149.408V181.639H148.278V185.214C148.278 185.459 148.325 185.637 148.42 185.747C148.518 185.854 148.692 185.907 148.941 185.907C149.106 185.907 149.274 185.887 149.444 185.848V186.961C149.116 187.052 148.801 187.097 148.497 187.097C147.392 187.097 146.839 186.487 146.839 185.268V181.639H145.785V180.573H146.839V179.016H148.278ZM159.153 183.841C159.153 184.835 158.93 185.627 158.484 186.215C158.042 186.803 157.432 187.097 156.654 187.097C155.905 187.097 155.32 186.827 154.902 186.286L154.831 186.979H153.529V177.885H154.967V181.189C155.382 180.699 155.94 180.455 156.643 180.455C157.424 180.455 158.038 180.745 158.484 181.325C158.93 181.905 159.153 182.716 159.153 183.758V183.841ZM157.714 183.717C157.714 183.022 157.592 182.501 157.347 182.154C157.102 181.806 156.747 181.633 156.282 181.633C155.658 181.633 155.22 181.905 154.967 182.45V185.09C155.224 185.647 155.666 185.925 156.293 185.925C156.743 185.925 157.091 185.757 157.335 185.422C157.58 185.086 157.706 184.579 157.714 183.9V183.717ZM163.184 187.097C162.273 187.097 161.533 186.811 160.964 186.239C160.4 185.662 160.118 184.897 160.118 183.942V183.764C160.118 183.125 160.24 182.554 160.485 182.053C160.733 181.548 161.081 181.155 161.527 180.875C161.973 180.595 162.47 180.455 163.019 180.455C163.891 180.455 164.564 180.733 165.037 181.289C165.515 181.846 165.754 182.633 165.754 183.651V184.232H161.568C161.612 184.76 161.787 185.179 162.095 185.487C162.407 185.795 162.798 185.948 163.267 185.948C163.926 185.948 164.463 185.682 164.877 185.149L165.653 185.889C165.396 186.272 165.053 186.57 164.623 186.783C164.197 186.992 163.717 187.097 163.184 187.097ZM163.013 181.609C162.618 181.609 162.298 181.747 162.054 182.023C161.813 182.3 161.659 182.684 161.592 183.178H164.333V183.071C164.301 182.59 164.173 182.227 163.948 181.982C163.723 181.733 163.411 181.609 163.013 181.609ZM170.703 186.979C170.64 186.856 170.584 186.657 170.537 186.381C170.079 186.858 169.519 187.097 168.856 187.097C168.212 187.097 167.688 186.913 167.281 186.546C166.874 186.179 166.671 185.725 166.671 185.185C166.671 184.502 166.924 183.979 167.429 183.616C167.938 183.249 168.664 183.065 169.608 183.065H170.49V182.645C170.49 182.314 170.397 182.049 170.211 181.852C170.026 181.65 169.744 181.55 169.365 181.55C169.037 181.55 168.769 181.633 168.56 181.798C168.351 181.96 168.246 182.167 168.246 182.42H166.807C166.807 182.069 166.924 181.741 167.157 181.437C167.39 181.129 167.705 180.889 168.104 180.715C168.506 180.541 168.954 180.455 169.448 180.455C170.198 180.455 170.796 180.644 171.242 181.023C171.687 181.398 171.916 181.927 171.928 182.61V185.499C171.928 186.075 172.009 186.535 172.171 186.878V186.979H170.703ZM169.122 185.943C169.406 185.943 169.673 185.873 169.921 185.735C170.174 185.597 170.363 185.412 170.49 185.179V183.971H169.714C169.181 183.971 168.781 184.064 168.512 184.249C168.244 184.435 168.11 184.697 168.11 185.037C168.11 185.313 168.201 185.534 168.382 185.7C168.568 185.862 168.814 185.943 169.122 185.943ZM175.238 179.016V180.573H176.368V181.639H175.238V185.214C175.238 185.459 175.285 185.637 175.38 185.747C175.478 185.854 175.652 185.907 175.901 185.907C176.066 185.907 176.234 185.887 176.404 185.848V186.961C176.076 187.052 175.76 187.097 175.457 187.097C174.352 187.097 173.799 186.487 173.799 185.268V181.639H172.745V180.573H173.799V179.016H175.238ZM179.003 186.979H177.564V180.573H179.003V186.979ZM177.475 178.909C177.475 178.688 177.544 178.505 177.683 178.359C177.825 178.213 178.026 178.14 178.286 178.14C178.547 178.14 178.748 178.213 178.89 178.359C179.032 178.505 179.103 178.688 179.103 178.909C179.103 179.127 179.032 179.308 178.89 179.454C178.748 179.596 178.547 179.667 178.286 179.667C178.026 179.667 177.825 179.596 177.683 179.454C177.544 179.308 177.475 179.127 177.475 178.909ZM181.909 180.573L181.951 181.313C182.425 180.741 183.046 180.455 183.816 180.455C185.15 180.455 185.829 181.218 185.852 182.746V186.979H184.414V182.829C184.414 182.422 184.325 182.122 184.147 181.929C183.974 181.731 183.687 181.633 183.289 181.633C182.709 181.633 182.277 181.895 181.992 182.42V186.979H180.554V180.573H181.909ZM187.072 183.728C187.072 182.734 187.305 181.941 187.77 181.349C188.24 180.753 188.862 180.455 189.635 180.455C190.365 180.455 190.94 180.709 191.358 181.218L191.423 180.573H192.719V186.783C192.719 187.624 192.457 188.287 191.932 188.772C191.411 189.258 190.707 189.5 189.819 189.5C189.349 189.5 188.889 189.402 188.439 189.204C187.993 189.011 187.654 188.757 187.421 188.441L188.102 187.576C188.544 188.101 189.089 188.364 189.736 188.364C190.213 188.364 190.59 188.234 190.867 187.973C191.143 187.717 191.281 187.338 191.281 186.836V186.404C190.867 186.866 190.314 187.097 189.623 187.097C188.873 187.097 188.26 186.799 187.782 186.203C187.309 185.607 187.072 184.782 187.072 183.728ZM188.504 183.853C188.504 184.496 188.635 185.003 188.895 185.374C189.16 185.741 189.525 185.925 189.99 185.925C190.571 185.925 191.001 185.676 191.281 185.179V182.361C191.009 181.875 190.582 181.633 190.002 181.633C189.529 181.633 189.16 181.82 188.895 182.195C188.635 182.57 188.504 183.123 188.504 183.853ZM200.812 185.238C200.812 184.981 200.706 184.786 200.493 184.652C200.283 184.518 199.934 184.399 199.445 184.297C198.955 184.194 198.547 184.064 198.219 183.906C197.501 183.559 197.142 183.055 197.142 182.396C197.142 181.844 197.375 181.382 197.84 181.011C198.306 180.64 198.898 180.455 199.616 180.455C200.382 180.455 201 180.644 201.469 181.023C201.943 181.402 202.18 181.893 202.18 182.497H200.741C200.741 182.221 200.639 181.992 200.433 181.81C200.228 181.625 199.956 181.532 199.616 181.532C199.301 181.532 199.042 181.605 198.841 181.751C198.644 181.897 198.545 182.092 198.545 182.337C198.545 182.558 198.638 182.73 198.823 182.852C199.009 182.975 199.384 183.099 199.948 183.225C200.512 183.348 200.954 183.496 201.274 183.669C201.598 183.839 201.836 184.044 201.99 184.285C202.148 184.526 202.227 184.818 202.227 185.161C202.227 185.737 201.988 186.205 201.511 186.564C201.033 186.919 200.408 187.097 199.634 187.097C199.109 187.097 198.642 187.002 198.231 186.813C197.821 186.623 197.501 186.363 197.272 186.031C197.043 185.7 196.929 185.343 196.929 184.96H198.326C198.346 185.299 198.474 185.562 198.711 185.747C198.947 185.929 199.261 186.019 199.652 186.019C200.031 186.019 200.319 185.948 200.516 185.806C200.714 185.66 200.812 185.471 200.812 185.238ZM205.288 179.016V180.573H206.419V181.639H205.288V185.214C205.288 185.459 205.335 185.637 205.43 185.747C205.529 185.854 205.702 185.907 205.951 185.907C206.117 185.907 206.284 185.887 206.454 185.848V186.961C206.126 187.052 205.811 187.097 205.507 187.097C204.402 187.097 203.849 186.487 203.849 185.268V181.639H202.795V180.573H203.849V179.016H205.288ZM207.076 183.717C207.076 183.089 207.2 182.525 207.449 182.023C207.697 181.518 208.047 181.131 208.496 180.863C208.946 180.591 209.463 180.455 210.048 180.455C210.912 180.455 211.612 180.733 212.149 181.289C212.69 181.846 212.982 182.584 213.025 183.503L213.031 183.841C213.031 184.472 212.909 185.037 212.664 185.534C212.423 186.031 212.076 186.416 211.622 186.688C211.172 186.961 210.651 187.097 210.059 187.097C209.156 187.097 208.431 186.797 207.887 186.197C207.346 185.593 207.076 184.79 207.076 183.788V183.717ZM208.514 183.841C208.514 184.5 208.65 185.017 208.923 185.392C209.195 185.763 209.574 185.948 210.059 185.948C210.545 185.948 210.922 185.759 211.19 185.38C211.462 185.001 211.599 184.447 211.599 183.717C211.599 183.069 211.458 182.556 211.178 182.177C210.902 181.798 210.525 181.609 210.048 181.609C209.578 181.609 209.205 181.796 208.929 182.171C208.652 182.542 208.514 183.099 208.514 183.841ZM216.879 185.948C217.238 185.948 217.536 185.844 217.773 185.635C218.01 185.425 218.136 185.167 218.152 184.859H219.508C219.492 185.258 219.368 185.631 219.135 185.978C218.902 186.321 218.586 186.594 218.188 186.795C217.789 186.996 217.359 187.097 216.897 187.097C216.001 187.097 215.291 186.807 214.766 186.227C214.241 185.647 213.978 184.845 213.978 183.823V183.675C213.978 182.7 214.239 181.921 214.76 181.337C215.281 180.749 215.991 180.455 216.891 180.455C217.653 180.455 218.272 180.678 218.75 181.124C219.232 181.566 219.484 182.148 219.508 182.87H218.152C218.136 182.503 218.01 182.201 217.773 181.964C217.54 181.727 217.242 181.609 216.879 181.609C216.414 181.609 216.054 181.779 215.802 182.118C215.549 182.454 215.421 182.965 215.417 183.651V183.882C215.417 184.577 215.541 185.096 215.79 185.439C216.043 185.779 216.406 185.948 216.879 185.948ZM222.675 184.232L222.036 184.889V186.979H220.597V177.885H222.036V183.13L222.486 182.568L224.256 180.573H225.984L223.604 183.243L226.239 186.979H224.575L222.675 184.232ZM230.519 185.238C230.519 184.981 230.413 184.786 230.199 184.652C229.99 184.518 229.641 184.399 229.152 184.297C228.662 184.194 228.254 184.064 227.926 183.906C227.208 183.559 226.849 183.055 226.849 182.396C226.849 181.844 227.082 181.382 227.547 181.011C228.013 180.64 228.605 180.455 229.323 180.455C230.089 180.455 230.707 180.644 231.176 181.023C231.65 181.402 231.887 181.893 231.887 182.497H230.448C230.448 182.221 230.345 181.992 230.14 181.81C229.935 181.625 229.663 181.532 229.323 181.532C229.008 181.532 228.749 181.605 228.548 181.751C228.35 181.897 228.252 182.092 228.252 182.337C228.252 182.558 228.344 182.73 228.53 182.852C228.715 182.975 229.09 183.099 229.655 183.225C230.219 183.348 230.661 183.496 230.981 183.669C231.304 183.839 231.543 184.044 231.697 184.285C231.855 184.526 231.934 184.818 231.934 185.161C231.934 185.737 231.695 186.205 231.218 186.564C230.74 186.919 230.115 187.097 229.341 187.097C228.816 187.097 228.348 187.002 227.938 186.813C227.527 186.623 227.208 186.363 226.979 186.031C226.75 185.7 226.636 185.343 226.636 184.96H228.033C228.052 185.299 228.181 185.562 228.417 185.747C228.654 185.929 228.968 186.019 229.359 186.019C229.738 186.019 230.026 185.948 230.223 185.806C230.42 185.66 230.519 185.471 230.519 185.238Z" fill="#01875F"/>
<path d="M84.0135 235.009H85.2375V236.737H84.0135V239.074H81.8696V236.737H77.4409L77.3444 235.387L81.8474 228.273H84.0135V235.009ZM79.4809 235.009H81.8696V231.196L81.7287 231.441L79.4809 235.009ZM86.5951 238.021C86.5951 237.68 86.7088 237.403 86.9363 237.19C87.1688 236.977 87.4581 236.871 87.8043 236.871C88.1554 236.871 88.4447 236.977 88.6722 237.19C88.9047 237.403 89.0209 237.68 89.0209 238.021C89.0209 238.357 88.9071 238.632 88.6796 238.844C88.4521 239.052 88.1603 239.156 87.8043 239.156C87.4531 239.156 87.1638 239.052 86.9363 238.844C86.7088 238.632 86.5951 238.357 86.5951 238.021ZM98.1602 229.475L93.9837 239.074H91.7211L95.9051 230.009H90.5342V228.273H98.1602V229.475Z" fill="black" fill-opacity="0.8"/>
<path d="M108.807 227.113L110.296 230.693L114.161 231.003L111.217 233.525L112.116 237.296L108.807 235.276L105.499 237.296L106.398 233.525L103.454 231.003L107.319 230.693L108.807 227.113Z" fill="black" fill-opacity="0.8"/>
<path d="M70.3089 256.994H69.3651V250.737L67.4723 251.433V250.58L70.1617 249.57H70.3089V256.994ZM77.9001 256.994H73.0592V256.319L75.6167 253.478C75.9955 253.048 76.256 252.7 76.3981 252.432C76.5436 252.162 76.6163 251.883 76.6163 251.595C76.6163 251.209 76.4996 250.893 76.2662 250.646C76.0328 250.399 75.7215 250.276 75.3325 250.276C74.8657 250.276 74.502 250.409 74.2415 250.677C73.9844 250.94 73.8559 251.309 73.8559 251.783H72.9171C72.9171 251.103 73.1353 250.553 73.5717 250.134C74.0115 249.714 74.5984 249.504 75.3325 249.504C76.0192 249.504 76.5622 249.685 76.9614 250.047C77.3605 250.406 77.5601 250.885 77.5601 251.483C77.5601 252.211 77.0967 253.077 76.1698 254.081L74.1908 256.228H77.9001V256.994ZM83.5275 253.843C83.5275 254.942 83.3398 255.759 82.9643 256.294C82.5888 256.828 82.0019 257.096 81.2035 257.096C80.4153 257.096 79.8317 256.835 79.4529 256.314C79.074 255.79 78.8778 255.008 78.8642 253.97V252.716C78.8642 251.631 79.052 250.824 79.4275 250.296C79.803 249.768 80.3916 249.504 81.1934 249.504C81.9883 249.504 82.5736 249.76 82.9491 250.271C83.3246 250.778 83.5174 251.563 83.5275 252.625V253.843ZM82.5888 252.559C82.5888 251.764 82.4772 251.186 82.2539 250.824C82.0306 250.458 81.6771 250.276 81.1934 250.276C80.713 250.276 80.3629 250.457 80.143 250.819C79.9231 251.181 79.8098 251.737 79.803 252.488V253.99C79.803 254.788 79.918 255.379 80.148 255.761C80.3815 256.14 80.7333 256.329 81.2035 256.329C81.667 256.329 82.0103 256.15 82.2336 255.792C82.4602 255.433 82.5786 254.868 82.5888 254.097V252.559ZM87.1557 254.198C87.1557 253.66 87.2606 253.177 87.4703 252.747C87.6834 252.317 87.9777 251.986 88.3532 251.752C88.7321 251.519 89.1634 251.402 89.6472 251.402C90.3948 251.402 90.9987 251.661 91.4587 252.179C91.9222 252.696 92.1539 253.385 92.1539 254.244V254.31C92.1539 254.844 92.0507 255.325 91.8444 255.751C91.6414 256.174 91.3488 256.504 90.9665 256.74C90.5876 256.977 90.1513 257.096 89.6574 257.096C88.9131 257.096 88.3093 256.837 87.8458 256.319C87.3857 255.802 87.1557 255.117 87.1557 254.264V254.198ZM88.0995 254.31C88.0995 254.919 88.2399 255.408 88.5207 255.776C88.8049 256.145 89.1837 256.329 89.6574 256.329C90.1343 256.329 90.5132 256.143 90.794 255.771C91.0748 255.396 91.2152 254.871 91.2152 254.198C91.2152 253.596 91.0714 253.109 90.7839 252.737C90.4997 252.361 90.1208 252.174 89.6472 252.174C89.1837 252.174 88.8099 252.358 88.5258 252.727C88.2416 253.095 88.0995 253.623 88.0995 254.31ZM97.2993 252.265H95.4573V256.994H94.5186V252.265H92.7121V251.504H97.2993V252.265ZM101.232 253.006C101.232 252.749 101.134 252.546 100.938 252.397C100.741 252.245 100.472 252.168 100.131 252.168C99.7993 252.168 99.5219 252.255 99.2986 252.427C99.0787 252.6 98.9688 252.803 98.9688 253.036H98.0351C98.0351 252.559 98.2347 252.168 98.6339 251.864C99.033 251.56 99.532 251.407 100.131 251.407C100.774 251.407 101.274 251.546 101.633 251.823C101.991 252.097 102.171 252.49 102.171 253.001C102.171 253.248 102.096 253.474 101.947 253.681C101.799 253.887 101.587 254.051 101.313 254.173C101.952 254.389 102.272 254.816 102.272 255.452C102.272 255.956 102.078 256.355 101.689 256.649C101.3 256.943 100.78 257.091 100.131 257.091C99.4982 257.091 98.9755 256.937 98.5628 256.629C98.1535 256.318 97.9488 255.898 97.9488 255.37H98.8825C98.8825 255.638 99.0009 255.868 99.2377 256.06C99.4779 256.25 99.7756 256.345 100.131 256.345C100.489 256.345 100.779 256.262 100.998 256.096C101.218 255.93 101.328 255.715 101.328 255.452C101.328 255.144 101.235 254.924 101.049 254.792C100.867 254.657 100.581 254.589 100.192 254.589H99.2529V253.797H100.273C100.912 253.78 101.232 253.517 101.232 253.006ZM104.515 253.396H105.941C106.563 253.403 107.056 253.566 107.418 253.884C107.78 254.202 107.96 254.633 107.96 255.178C107.96 255.726 107.774 256.165 107.402 256.497C107.03 256.828 106.53 256.994 105.9 256.994H103.576V251.504H104.515V253.396ZM109.919 256.994H108.975V251.504H109.919V256.994ZM104.515 254.163V256.228H105.91C106.262 256.228 106.535 256.138 106.727 255.959C106.92 255.776 107.017 255.528 107.017 255.213C107.017 254.909 106.922 254.66 106.733 254.467C106.546 254.271 106.284 254.169 105.946 254.163H104.515ZM111.644 256.994V251.504H113.786C114.517 251.504 115.076 251.632 115.465 251.889C115.858 252.143 116.054 252.517 116.054 253.011C116.054 253.265 115.978 253.495 115.826 253.701C115.673 253.904 115.449 254.059 115.151 254.168C115.482 254.246 115.748 254.398 115.948 254.624C116.15 254.851 116.252 255.122 116.252 255.436C116.252 255.94 116.066 256.326 115.694 256.593C115.325 256.861 114.802 256.994 114.126 256.994H111.644ZM112.583 254.584V256.238H114.136C114.528 256.238 114.821 256.165 115.014 256.02C115.21 255.874 115.308 255.67 115.308 255.406C115.308 254.858 114.906 254.584 114.1 254.584H112.583ZM112.583 253.833H113.796C114.676 253.833 115.115 253.576 115.115 253.062C115.115 252.547 114.699 252.282 113.867 252.265H112.583V253.833ZM117.247 254.198C117.247 253.66 117.351 253.177 117.561 252.747C117.774 252.317 118.069 251.986 118.444 251.752C118.823 251.519 119.254 251.402 119.738 251.402C120.486 251.402 121.089 251.661 121.55 252.179C122.013 252.696 122.245 253.385 122.245 254.244V254.31C122.245 254.844 122.142 255.325 121.935 255.751C121.732 256.174 121.44 256.504 121.057 256.74C120.678 256.977 120.242 257.096 119.748 257.096C119.004 257.096 118.4 256.837 117.937 256.319C117.477 255.802 117.247 255.117 117.247 254.264V254.198ZM118.19 254.31C118.19 254.919 118.331 255.408 118.612 255.776C118.896 256.145 119.275 256.329 119.748 256.329C120.225 256.329 120.604 256.143 120.885 255.771C121.166 255.396 121.306 254.871 121.306 254.198C121.306 253.596 121.162 253.109 120.875 252.737C120.591 252.361 120.212 252.174 119.738 252.174C119.275 252.174 118.901 252.358 118.617 252.727C118.332 253.095 118.19 253.623 118.19 254.31ZM123.508 256.994V251.504H125.65C126.38 251.504 126.94 251.632 127.329 251.889C127.722 252.143 127.918 252.517 127.918 253.011C127.918 253.265 127.842 253.495 127.69 253.701C127.537 253.904 127.312 254.059 127.015 254.168C127.346 254.246 127.612 254.398 127.811 254.624C128.014 254.851 128.116 255.122 128.116 255.436C128.116 255.94 127.93 256.326 127.558 256.593C127.189 256.861 126.666 256.994 125.99 256.994H123.508ZM124.447 254.584V256.238H126C126.392 256.238 126.685 256.165 126.878 256.02C127.074 255.874 127.172 255.67 127.172 255.406C127.172 254.858 126.769 254.584 125.964 254.584H124.447ZM124.447 253.833H125.66C126.539 253.833 126.979 253.576 126.979 253.062C126.979 252.547 126.563 252.282 125.731 252.265H124.447V253.833Z" fill="black" fill-opacity="0.6"/>
<path d="M175.666 239.074H173.522V230.81L170.963 231.604V229.861L175.436 228.258H175.666V239.074ZM186.452 234.608C186.452 236.102 186.143 237.244 185.525 238.036C184.907 238.827 184.002 239.223 182.81 239.223C181.633 239.223 180.733 238.834 180.11 238.058C179.487 237.281 179.168 236.169 179.153 234.72V232.732C179.153 231.223 179.464 230.078 180.087 229.297C180.716 228.515 181.618 228.125 182.795 228.125C183.972 228.125 184.872 228.513 185.495 229.289C186.119 230.061 186.438 231.171 186.452 232.62V234.608ZM184.308 232.427C184.308 231.532 184.185 230.882 183.938 230.476C183.695 230.066 183.314 229.861 182.795 229.861C182.291 229.861 181.917 230.056 181.675 230.447C181.438 230.832 181.311 231.438 181.297 232.264V234.89C181.297 235.771 181.415 236.426 181.653 236.856C181.895 237.281 182.281 237.494 182.81 237.494C183.334 237.494 183.713 237.289 183.945 236.878C184.177 236.468 184.299 235.84 184.308 234.994V232.427ZM191.519 234.742L190.362 235.988V239.074H188.136V228.273H190.362V233.169L191.341 231.827L194.093 228.273H196.831L192.995 233.073L196.942 239.074H194.294L191.519 234.742ZM201.964 233.028H204.642V234.964H201.964V237.991H199.924V234.964H197.239V233.028H199.924V230.128H201.964V233.028Z" fill="black" fill-opacity="0.8"/>
<path d="M163.356 254.648C163.265 255.429 162.975 256.033 162.488 256.459C162.005 256.882 161.36 257.094 160.555 257.094C159.682 257.094 158.982 256.781 158.454 256.155C157.93 255.529 157.668 254.692 157.668 253.643V252.933C157.668 252.246 157.789 251.642 158.033 251.121C158.28 250.6 158.628 250.201 159.078 249.924C159.528 249.643 160.049 249.502 160.641 249.502C161.426 249.502 162.055 249.722 162.529 250.162C163.002 250.599 163.278 251.204 163.356 251.979H162.377C162.292 251.39 162.108 250.964 161.824 250.7C161.543 250.436 161.149 250.304 160.641 250.304C160.019 250.304 159.53 250.534 159.175 250.994C158.823 251.454 158.647 252.109 158.647 252.958V253.674C158.647 254.475 158.814 255.113 159.149 255.587C159.484 256.06 159.953 256.297 160.555 256.297C161.096 256.297 161.511 256.175 161.798 255.932C162.089 255.685 162.282 255.257 162.377 254.648H163.356ZM166.253 254.653H165.568V256.992H164.625V251.502H165.568V253.826H166.182L168.029 251.502H169.166L166.994 254.14L169.349 256.992H168.156L166.253 254.653ZM173.545 256.992C173.491 256.884 173.447 256.691 173.413 256.414C172.977 256.867 172.456 257.094 171.85 257.094C171.309 257.094 170.864 256.941 170.516 256.637C170.171 256.329 169.998 255.94 169.998 255.47C169.998 254.898 170.215 254.455 170.648 254.14C171.084 253.822 171.697 253.663 172.485 253.663H173.398V253.232C173.398 252.904 173.3 252.643 173.104 252.451C172.908 252.254 172.618 252.156 172.236 252.156C171.901 252.156 171.62 252.241 171.394 252.41C171.167 252.579 171.054 252.784 171.054 253.024H170.11C170.11 252.75 170.206 252.486 170.399 252.232C170.595 251.975 170.859 251.772 171.191 251.624C171.526 251.475 171.893 251.4 172.292 251.4C172.925 251.4 173.42 251.559 173.779 251.877C174.137 252.192 174.323 252.627 174.337 253.181V255.708C174.337 256.212 174.401 256.613 174.53 256.911V256.992H173.545ZM171.987 256.277C172.282 256.277 172.561 256.201 172.825 256.048C173.089 255.896 173.28 255.698 173.398 255.455V254.328H172.662C171.512 254.328 170.937 254.665 170.937 255.338C170.937 255.632 171.035 255.862 171.231 256.028C171.428 256.194 171.68 256.277 171.987 256.277ZM179.954 256.992H179.01V255.003C178.598 255.111 178.175 255.165 177.742 255.165C177.055 255.165 176.531 254.99 176.169 254.638C175.81 254.286 175.627 253.785 175.621 253.136V251.497H176.559V253.166C176.576 253.985 176.97 254.394 177.742 254.394C178.175 254.394 178.598 254.34 179.01 254.232V251.502H179.954V256.992ZM185.013 251.502H185.952V256.992H185.013V252.989L182.481 256.992H181.542V251.502H182.481V255.51L185.013 251.502ZM187.545 256.992V251.502H189.687C190.417 251.502 190.977 251.63 191.366 251.887C191.759 252.141 191.955 252.515 191.955 253.009C191.955 253.263 191.879 253.493 191.727 253.699C191.574 253.902 191.349 254.058 191.052 254.166C191.383 254.244 191.649 254.396 191.848 254.622C192.051 254.849 192.153 255.12 192.153 255.434C192.153 255.938 191.967 256.324 191.595 256.591C191.226 256.859 190.703 256.992 190.027 256.992H187.545ZM188.484 254.582V256.236H190.037C190.429 256.236 190.722 256.163 190.915 256.018C191.111 255.872 191.209 255.668 191.209 255.404C191.209 254.856 190.806 254.582 190.001 254.582H188.484ZM188.484 253.831H189.697C190.576 253.831 191.016 253.574 191.016 253.06C191.016 252.545 190.6 252.28 189.768 252.263H188.484V253.831ZM196.786 256.992C196.732 256.884 196.688 256.691 196.654 256.414C196.217 256.867 195.696 257.094 195.091 257.094C194.55 257.094 194.105 256.941 193.756 256.637C193.411 256.329 193.239 255.94 193.239 255.47C193.239 254.898 193.455 254.455 193.888 254.14C194.325 253.822 194.937 253.663 195.725 253.663H196.639V253.232C196.639 252.904 196.54 252.643 196.344 252.451C196.148 252.254 195.859 252.156 195.477 252.156C195.142 252.156 194.861 252.241 194.634 252.41C194.408 252.579 194.294 252.784 194.294 253.024H193.35C193.35 252.75 193.447 252.486 193.64 252.232C193.836 251.975 194.1 251.772 194.431 251.624C194.766 251.475 195.133 251.4 195.532 251.4C196.165 251.4 196.661 251.559 197.019 251.877C197.378 252.192 197.564 252.627 197.577 253.181V255.708C197.577 256.212 197.642 256.613 197.77 256.911V256.992H196.786ZM195.228 256.277C195.522 256.277 195.801 256.201 196.065 256.048C196.329 255.896 196.52 255.698 196.639 255.455V254.328H195.903C194.753 254.328 194.178 254.665 194.178 255.338C194.178 255.632 194.276 255.862 194.472 256.028C194.668 256.194 194.92 256.277 195.228 256.277ZM203.535 256.992H202.596V254.648H200.074V256.992H199.13V251.502H200.074V253.882H202.596V251.502H203.535V256.992ZM208.599 251.502H209.538V256.992H208.599V252.989L206.067 256.992H205.128V251.502H206.067V255.51L208.599 251.502ZM214.597 251.502H215.535V256.992H214.597V252.989L212.065 256.992H211.126V251.502H212.065V255.51L214.597 251.502ZM214.85 249.502C214.85 249.912 214.71 250.242 214.429 250.492C214.152 250.739 213.786 250.862 213.333 250.862C212.88 250.862 212.513 250.737 212.232 250.487C211.951 250.237 211.811 249.908 211.811 249.502H212.577C212.577 249.739 212.641 249.925 212.77 250.061C212.898 250.193 213.086 250.259 213.333 250.259C213.57 250.259 213.754 250.193 213.886 250.061C214.022 249.929 214.089 249.743 214.089 249.502H214.85Z" fill="black" fill-opacity="0.6"/>
<path d="M262.016 252.841H262.721C263.165 252.835 263.513 252.718 263.767 252.491C264.021 252.265 264.147 251.958 264.147 251.573C264.147 250.707 263.716 250.274 262.853 250.274C262.447 250.274 262.123 250.39 261.879 250.624C261.639 250.854 261.519 251.16 261.519 251.542H260.58C260.58 250.957 260.793 250.472 261.219 250.086C261.649 249.697 262.194 249.502 262.853 249.502C263.55 249.502 264.097 249.687 264.492 250.056C264.888 250.424 265.086 250.937 265.086 251.593C265.086 251.914 264.981 252.226 264.772 252.527C264.565 252.828 264.283 253.053 263.924 253.202C264.33 253.33 264.643 253.543 264.863 253.841C265.086 254.139 265.198 254.502 265.198 254.932C265.198 255.595 264.981 256.121 264.548 256.51C264.115 256.899 263.552 257.094 262.859 257.094C262.165 257.094 261.6 256.906 261.164 256.53C260.731 256.155 260.514 255.659 260.514 255.044H261.458C261.458 255.433 261.585 255.744 261.839 255.977C262.092 256.211 262.432 256.327 262.859 256.327C263.312 256.327 263.659 256.209 263.899 255.972C264.139 255.735 264.259 255.395 264.259 254.952C264.259 254.523 264.127 254.193 263.863 253.963C263.599 253.733 263.219 253.614 262.721 253.608H262.016V252.841ZM270.171 249.599V250.396H269.998C269.267 250.409 268.686 250.626 268.253 251.045C267.82 251.465 267.569 252.055 267.502 252.816C267.891 252.369 268.422 252.146 269.095 252.146C269.738 252.146 270.25 252.373 270.632 252.826C271.018 253.279 271.211 253.865 271.211 254.582C271.211 255.343 271.003 255.952 270.587 256.409C270.174 256.865 269.619 257.094 268.922 257.094C268.215 257.094 267.642 256.823 267.202 256.282C266.762 255.737 266.542 255.037 266.542 254.181V253.821C266.542 252.461 266.832 251.422 267.41 250.705C267.992 249.985 268.856 249.616 270.003 249.599H270.171ZM268.938 252.928C268.616 252.928 268.32 253.024 268.05 253.217C267.779 253.41 267.591 253.652 267.486 253.943V254.288C267.486 254.896 267.623 255.387 267.897 255.759C268.171 256.131 268.513 256.317 268.922 256.317C269.345 256.317 269.677 256.162 269.917 255.85C270.16 255.539 270.282 255.132 270.282 254.628C270.282 254.12 270.159 253.711 269.912 253.4C269.668 253.085 269.344 252.928 268.938 252.928ZM276.402 249.604L278.817 255.632L281.233 249.604H282.496V256.992H281.522V254.115L281.613 251.01L279.188 256.992H278.442L276.021 251.025L276.118 254.115V256.992H275.143V249.604H276.402ZM288.722 250.406H285.16V252.618H286.997C287.768 252.628 288.371 252.826 288.804 253.212C289.237 253.597 289.453 254.122 289.453 254.785C289.453 255.451 289.235 255.982 288.799 256.378C288.362 256.774 287.767 256.979 287.012 256.992H284.181V249.604H288.722V250.406ZM285.16 253.42V256.196H286.941C287.425 256.196 287.801 256.067 288.068 255.81C288.338 255.553 288.474 255.208 288.474 254.775C288.474 254.359 288.344 254.03 288.083 253.79C287.826 253.55 287.459 253.427 286.982 253.42H285.16Z" fill="black" fill-opacity="0.6"/>
<line x1="139.935" y1="228.805" x2="139.935" y2="256.517" stroke="black" stroke-opacity="0.3" stroke-width="0.866021"/>
<line x1="236.351" y1="228.805" x2="236.351" y2="256.517" stroke="black" stroke-opacity="0.3" stroke-width="0.866021"/>
<rect x="42.2159" y="279.035" width="290.117" height="27.7127" rx="3.46408" fill="#01875F"/>
<path d="M153.819 293.583L156.085 287.866H157.594L154.11 296.073C153.875 296.596 153.657 296.968 153.454 297.189C153.251 297.406 153.012 297.572 152.736 297.69C152.466 297.802 152.125 297.859 151.715 297.859C151.358 297.859 151.131 297.839 151.031 297.798L151.072 296.77L151.688 296.797C152.161 296.797 152.513 296.569 152.743 296.113L152.912 295.761L153.169 295.159L149.814 287.866H151.268L153.819 293.583ZM161.43 296.83C161.877 296.83 162.267 296.695 162.601 296.425C162.935 296.154 163.12 295.816 163.156 295.41H164.34C164.317 295.829 164.173 296.228 163.907 296.607C163.641 296.986 163.284 297.288 162.838 297.514C162.396 297.739 161.927 297.852 161.43 297.852C160.434 297.852 159.64 297.521 159.049 296.858C158.462 296.19 158.169 295.279 158.169 294.124V293.914C158.169 293.202 158.3 292.568 158.562 292.013C158.823 291.458 159.198 291.028 159.685 290.721C160.176 290.414 160.756 290.261 161.424 290.261C162.245 290.261 162.926 290.507 163.467 290.998C164.013 291.49 164.304 292.128 164.34 292.913H163.156C163.12 292.439 162.939 292.052 162.614 291.749C162.294 291.443 161.897 291.289 161.424 291.289C160.788 291.289 160.294 291.519 159.942 291.979C159.595 292.435 159.421 293.096 159.421 293.962V294.199C159.421 295.042 159.595 295.692 159.942 296.147C160.289 296.603 160.785 296.83 161.43 296.83ZM171.187 291.411H168.731V297.717H167.479V291.411H165.07V290.396H171.187V291.411ZM176.816 297.717C176.744 297.572 176.685 297.315 176.64 296.945C176.058 297.55 175.363 297.852 174.556 297.852C173.834 297.852 173.241 297.649 172.777 297.243C172.317 296.833 172.087 296.314 172.087 295.687C172.087 294.925 172.375 294.334 172.953 293.914C173.534 293.49 174.351 293.278 175.402 293.278H176.62V292.703C176.62 292.266 176.489 291.919 176.227 291.661C175.966 291.4 175.58 291.269 175.07 291.269C174.624 291.269 174.249 291.382 173.947 291.607C173.645 291.833 173.494 292.106 173.494 292.426H172.235C172.235 292.061 172.364 291.709 172.621 291.37C172.883 291.028 173.234 290.757 173.676 290.559C174.123 290.36 174.612 290.261 175.145 290.261C175.988 290.261 176.649 290.473 177.127 290.897C177.605 291.316 177.853 291.896 177.871 292.636V296.005C177.871 296.677 177.957 297.212 178.128 297.609V297.717H176.816ZM174.739 296.763C175.131 296.763 175.503 296.661 175.855 296.458C176.207 296.255 176.462 295.992 176.62 295.667V294.165H175.639C174.105 294.165 173.338 294.614 173.338 295.511C173.338 295.904 173.469 296.21 173.731 296.431C173.992 296.652 174.328 296.763 174.739 296.763ZM185.814 297.717H184.563V294.591H181.2V297.717H179.942V290.396H181.2V293.569H184.563V290.396H185.814V297.717ZM187.499 293.989C187.499 293.272 187.639 292.627 187.918 292.054C188.203 291.481 188.595 291.039 189.096 290.728C189.601 290.417 190.176 290.261 190.821 290.261C191.818 290.261 192.623 290.606 193.236 291.296C193.854 291.986 194.163 292.904 194.163 294.05V294.138C194.163 294.85 194.026 295.491 193.751 296.059C193.48 296.623 193.09 297.063 192.58 297.379C192.075 297.694 191.493 297.852 190.835 297.852C189.842 297.852 189.037 297.507 188.419 296.817C187.806 296.127 187.499 295.213 187.499 294.077V293.989ZM188.757 294.138C188.757 294.95 188.945 295.601 189.319 296.093C189.698 296.585 190.203 296.83 190.835 296.83C191.47 296.83 191.976 296.582 192.35 296.086C192.724 295.586 192.912 294.886 192.912 293.989C192.912 293.186 192.72 292.536 192.337 292.04C191.958 291.54 191.452 291.289 190.821 291.289C190.203 291.289 189.705 291.535 189.326 292.027C188.947 292.518 188.757 293.222 188.757 294.138ZM195.848 297.717V290.396H198.703C199.677 290.396 200.424 290.568 200.943 290.91C201.466 291.249 201.727 291.747 201.727 292.406C201.727 292.744 201.626 293.051 201.423 293.326C201.22 293.596 200.92 293.804 200.523 293.948C200.965 294.052 201.319 294.255 201.585 294.557C201.856 294.859 201.991 295.22 201.991 295.64C201.991 296.312 201.743 296.826 201.247 297.182C200.755 297.539 200.059 297.717 199.156 297.717H195.848ZM197.1 294.503V296.709H199.17C199.693 296.709 200.083 296.612 200.34 296.418C200.602 296.224 200.733 295.951 200.733 295.599C200.733 294.868 200.196 294.503 199.123 294.503H197.1ZM197.1 293.502H198.717C199.889 293.502 200.476 293.159 200.476 292.473C200.476 291.788 199.921 291.434 198.811 291.411H197.1V293.502ZM208.385 290.396H209.637V297.717H208.385V292.379L205.009 297.717H203.757V290.396H205.009V295.741L208.385 290.396ZM217.086 291.411H214.63V297.717H213.378V291.411H210.969V290.396H217.086V291.411ZM219.67 292.92H221.571C222.401 292.929 223.058 293.145 223.54 293.569C224.023 293.993 224.264 294.568 224.264 295.295C224.264 296.025 224.016 296.612 223.52 297.054C223.024 297.496 222.356 297.717 221.517 297.717H218.419V290.396H219.67V292.92ZM219.67 293.941V296.695H221.531C222 296.695 222.363 296.576 222.62 296.337C222.877 296.093 223.006 295.761 223.006 295.342C223.006 294.936 222.88 294.605 222.627 294.347C222.379 294.086 222.029 293.951 221.578 293.941H219.67Z" fill="white"/>
<path d="M293.797 125.749H293.113L292.871 125.515C293.719 124.528 294.23 123.246 294.23 121.852C294.23 118.743 291.71 116.223 288.601 116.223C285.492 116.223 282.972 118.743 282.972 121.852C282.972 124.961 285.492 127.481 288.601 127.481C289.995 127.481 291.277 126.97 292.264 126.121L292.498 126.364V127.048L296.828 131.369L298.119 130.079L293.797 125.749ZM288.601 125.749C286.445 125.749 284.704 124.008 284.704 121.852C284.704 119.695 286.445 117.955 288.601 117.955C290.758 117.955 292.498 119.695 292.498 121.852C292.498 124.008 290.758 125.749 288.601 125.749Z" fill="#323232" fill-opacity="0.6"/>
<path d="M321.943 120.554C322.896 120.554 323.675 119.775 323.675 118.822C323.675 117.869 322.896 117.09 321.943 117.09C320.99 117.09 320.211 117.869 320.211 118.822C320.211 119.775 320.99 120.554 321.943 120.554ZM321.943 122.286C320.99 122.286 320.211 123.065 320.211 124.018C320.211 124.971 320.99 125.75 321.943 125.75C322.896 125.75 323.675 124.971 323.675 124.018C323.675 123.065 322.896 122.286 321.943 122.286ZM321.943 127.482C320.99 127.482 320.211 128.262 320.211 129.214C320.211 130.167 320.99 130.946 321.943 130.946C322.896 130.946 323.675 130.167 323.675 129.214C323.675 128.262 322.896 127.482 321.943 127.482Z" fill="#323232" fill-opacity="0.6"/>
<g filter="url(#filter1_ddd)">
<path d="M71.1172 194.817C85.9534 194.817 97.9805 182.789 97.9805 167.953C97.9805 153.117 85.9534 141.09 71.1172 141.09C56.2809 141.09 44.2538 153.117 44.2538 167.953C44.2538 182.789 56.2809 194.817 71.1172 194.817Z" fill="#F0F5FF"/>
<path d="M97.7976 167.953C97.7976 182.688 85.8524 194.634 71.1172 194.634C56.382 194.634 44.4368 182.688 44.4368 167.953C44.4368 153.218 56.382 141.273 71.1172 141.273C85.8524 141.273 97.7976 153.218 97.7976 167.953Z" stroke="#BEDCFF" stroke-width="0.365928"/>
</g>
<g filter="url(#filter2_i)">
<path d="M65.5251 168.272C66.4061 168.58 67.0962 169.064 67.5954 169.725C68.0947 170.371 68.3443 171.157 68.3443 172.082C68.3443 173.433 67.801 174.475 66.7145 175.209C65.6279 175.943 64.0568 176.311 62.0012 176.311H53.6759V160.893H61.5607C63.5282 160.893 65.0259 161.26 66.0537 161.995C67.0815 162.714 67.5954 163.69 67.5954 164.924C67.5954 165.658 67.4119 166.319 67.0448 166.906C66.6924 167.479 66.1859 167.934 65.5251 168.272ZM57.9927 164.043V167.016H60.9881C62.4564 167.016 63.1905 166.517 63.1905 165.519C63.1905 164.535 62.4564 164.043 60.9881 164.043H57.9927ZM61.6488 173.161C63.1759 173.161 63.9394 172.64 63.9394 171.597C63.9394 170.555 63.1759 170.034 61.6488 170.034H57.9927V173.161H61.6488Z" fill="#3E54D8"/>
<path d="M84.5225 176.311L84.4784 168.139L80.514 174.791H78.5759L74.6335 168.36V176.311H70.603V160.893H74.193L79.611 169.791L84.8969 160.893H88.4869L88.531 176.311H84.5225Z" fill="#EF7381"/>
</g>
<path d="M269.097 232.326L272.697 235.926L276.298 232.326" stroke="#323233" stroke-width="1.68808" stroke-linecap="round" stroke-linejoin="round"/>
<path d="M272.697 226.326V235.925" stroke="#323233" stroke-width="1.68808" stroke-linecap="round" stroke-linejoin="round"/>
<path d="M280.241 235.926V240.726C280.241 240.908 280.168 241.083 280.04 241.211C279.911 241.34 279.737 241.412 279.555 241.412H265.839C265.657 241.412 265.483 241.34 265.354 241.211C265.226 241.083 265.154 240.908 265.154 240.726V235.926" stroke="#323233" stroke-width="1.68808" stroke-linecap="round" stroke-linejoin="round"/>
<path d="M25.3314 79.8497C25.3314 70.5231 32.8922 62.9623 42.2188 62.9623H332.68C342.006 62.9623 349.567 70.5231 349.567 79.8497V310.305C349.567 319.594 342.037 327.125 332.747 327.125H42.151C32.8618 327.125 25.3314 319.594 25.3314 310.305V79.8497Z" stroke="#D3E3FF" stroke-width="0.866021"/>
</g>
<defs>
<filter id="filter0_d" x="-21.3531" y="0.126486" width="417.604" height="357.531" filterUnits="userSpaceOnUse" color-interpolation-filters="sRGB">
<feFlood flood-opacity="0" result="BackgroundImageFix"/>
<feColorMatrix in="SourceAlpha" type="matrix" values="0 0 0 0 0 0 0 0 0 0 0 0 0 0 0 0 0 0 127 0"/>
<feMorphology radius="3.67075" operator="erode" in="SourceAlpha" result="effect1_dropShadow"/>
<feOffset dy="-16.1513"/>
<feGaussianBlur stdDeviation="24.9611"/>
<feColorMatrix type="matrix" values="0 0 0 0 0.243137 0 0 0 0 0.329412 0 0 0 0 0.847059 0 0 0 0.12 0"/>
<feBlend mode="normal" in2="BackgroundImageFix" result="effect1_dropShadow"/>
<feBlend mode="normal" in="SourceGraphic" in2="effect1_dropShadow" result="shape"/>
</filter>
<filter id="filter1_ddd" x="39.3748" y="137.675" width="63.4848" height="63.4848" filterUnits="userSpaceOnUse" color-interpolation-filters="sRGB">
<feFlood flood-opacity="0" result="BackgroundImageFix"/>
<feColorMatrix in="SourceAlpha" type="matrix" values="0 0 0 0 0 0 0 0 0 0 0 0 0 0 0 0 0 0 127 0"/>
<feOffset dy="1.46371"/>
<feGaussianBlur stdDeviation="2.43952"/>
<feColorMatrix type="matrix" values="0 0 0 0 0 0 0 0 0 0.380392 0 0 0 0 0.913725 0 0 0 0.18 0"/>
<feBlend mode="normal" in2="BackgroundImageFix" result="effect1_dropShadow"/>
<feColorMatrix in="SourceAlpha" type="matrix" values="0 0 0 0 0 0 0 0 0 0 0 0 0 0 0 0 0 0 127 0"/>
<feOffset dy="0.487904"/>
<feGaussianBlur stdDeviation="0.060988"/>
<feColorMatrix type="matrix" values="0 0 0 0 0 0 0 0 0 0.380392 0 0 0 0 0.913725 0 0 0 0.03 0"/>
<feBlend mode="normal" in2="effect1_dropShadow" result="effect2_dropShadow"/>
<feColorMatrix in="SourceAlpha" type="matrix" values="0 0 0 0 0 0 0 0 0 0 0 0 0 0 0 0 0 0 127 0"/>
<feOffset dy="2.17078"/>
<feGaussianBlur stdDeviation="1.08539"/>
<feColorMatrix type="matrix" values="0 0 0 0 0 0 0 0 0 0 0 0 0 0 0 0 0 0 0.07 0"/>
<feBlend mode="normal" in2="effect2_dropShadow" result="effect3_dropShadow"/>
<feBlend mode="normal" in="SourceGraphic" in2="effect3_dropShadow" result="shape"/>
</filter>
<filter id="filter2_i" x="53.6759" y="160.893" width="34.855" height="16.0042" filterUnits="userSpaceOnUse" color-interpolation-filters="sRGB">
<feFlood flood-opacity="0" result="BackgroundImageFix"/>
<feBlend mode="normal" in="SourceGraphic" in2="BackgroundImageFix" result="shape"/>
<feColorMatrix in="SourceAlpha" type="matrix" values="0 0 0 0 0 0 0 0 0 0 0 0 0 0 0 0 0 0 127 0" result="hardAlpha"/>
<feOffset dy="0.587052"/>
<feGaussianBlur stdDeviation="0.440289"/>
<feComposite in2="hardAlpha" operator="arithmetic" k2="-1" k3="1"/>
<feColorMatrix type="matrix" values="0 0 0 0 0 0 0 0 0 0 0 0 0 0 0 0 0 0 0.25 0"/>
<feBlend mode="normal" in2="shape" result="effect1_innerShadow"/>
</filter>
</defs>
</svg>
