<svg width="70" height="70" viewBox="0 0 70 70" fill="none" xmlns="http://www.w3.org/2000/svg">
<g filter="url(#filter0_d_5954_4249)">
<circle cx="34" cy="34" r="33" fill="white"/>
<circle cx="34" cy="34" r="32.8062" stroke="#D3E3FF" stroke-width="0.387621"/>
</g>
<g filter="url(#filter1_i_5954_4249)">
<path d="M19.0671 32.9419V19.556H25.913C27.6723 19.556 28.9854 19.8811 29.8523 20.5312C30.7192 21.1687 31.1527 22.0101 31.1527 23.0554C31.1527 23.7439 30.9678 24.3494 30.5981 24.8721C30.2412 25.382 29.7312 25.79 29.0683 26.096C28.4181 26.3892 27.6405 26.5358 26.7353 26.5358L27.1178 25.6179C28.0612 25.6179 28.8834 25.7645 29.5846 26.0577C30.2858 26.3382 30.8276 26.7525 31.21 27.3007C31.6053 27.8361 31.8029 28.4927 31.8029 29.2703C31.8029 30.4304 31.3312 31.3356 30.3878 31.9858C29.4571 32.6232 28.093 32.9419 26.2955 32.9419H19.0671ZM22.8152 30.2073H25.9895C26.6397 30.2073 27.1305 30.099 27.462 29.8823C27.8062 29.6528 27.9783 29.3086 27.9783 28.8496C27.9783 28.3907 27.8062 28.0528 27.462 27.8361C27.1305 27.6067 26.6397 27.4919 25.9895 27.4919H22.5474V24.8721H25.4159C26.0533 24.8721 26.5313 24.7637 26.8501 24.547C27.1688 24.3303 27.3281 24.0052 27.3281 23.5718C27.3281 23.1383 27.1688 22.8196 26.8501 22.6156C26.5313 22.3989 26.0533 22.2905 25.4159 22.2905H22.8152V30.2073Z" fill="#3E54D8"/>
<path d="M33.764 32.9419V19.556H36.881L42.4266 28.6584H40.782L46.1746 19.556H49.2916L49.3299 32.9419H45.8495L45.8113 24.853H46.4041L42.3692 31.6224H40.6864L36.5368 24.853H37.2634V32.9419H33.764Z" fill="#ED6373"/>
</g>
<path d="M16.247 49.0456C15.7562 49.0456 15.2877 48.9786 14.8415 48.8448C14.4027 48.7109 14.0569 48.5473 13.8041 48.354L14.2503 47.5062C14.5031 47.6772 14.8154 47.8222 15.1873 47.9412C15.5591 48.0602 15.9384 48.1197 16.3251 48.1197C16.8233 48.1197 17.1803 48.0491 17.3959 47.9078C17.619 47.7665 17.7306 47.5694 17.7306 47.3166C17.7306 47.1306 17.6637 46.9856 17.5298 46.8815C17.3959 46.7774 17.2175 46.6993 16.9944 46.6473C16.7787 46.5952 16.537 46.5506 16.2693 46.5134C16.0016 46.4688 15.7339 46.4167 15.4661 46.3572C15.1984 46.2903 14.953 46.2011 14.7299 46.0895C14.5068 45.9705 14.3283 45.8106 14.1945 45.6098C14.0606 45.4016 13.9937 45.1265 13.9937 44.7844C13.9937 44.4274 14.0941 44.1151 14.2949 43.8474C14.4957 43.5797 14.7783 43.3751 15.1426 43.2338C15.5145 43.0851 15.9532 43.0107 16.4589 43.0107C16.8456 43.0107 17.2361 43.0591 17.6302 43.1558C18.0318 43.245 18.359 43.3751 18.6118 43.5462L18.1545 44.394C17.8868 44.2155 17.6079 44.0928 17.3179 44.0258C17.0278 43.9589 16.7378 43.9255 16.4478 43.9255C15.9793 43.9255 15.6297 44.0035 15.3992 44.1597C15.1687 44.3084 15.0534 44.5018 15.0534 44.7398C15.0534 44.9406 15.1203 45.0967 15.2542 45.2083C15.3955 45.3124 15.574 45.3942 15.7896 45.4537C16.0127 45.5132 16.2581 45.5652 16.5259 45.6098C16.7936 45.647 17.0613 45.6991 17.329 45.766C17.5967 45.8255 17.8384 45.911 18.0541 46.0226C18.2772 46.1341 18.4557 46.2903 18.5895 46.4911C18.7308 46.6919 18.8015 46.9596 18.8015 47.2942C18.8015 47.6512 18.6974 47.9598 18.4891 48.2201C18.2809 48.4804 17.9872 48.6849 17.6079 48.8336C17.2286 48.9749 16.775 49.0456 16.247 49.0456ZM22.7166 49.0456C22.1142 49.0456 21.5751 48.9154 21.0991 48.6551C20.6306 48.3949 20.2625 48.0379 19.9948 47.5843C19.7271 47.1306 19.5932 46.6101 19.5932 46.0226C19.5932 45.4351 19.7271 44.9145 19.9948 44.4609C20.2625 44.0073 20.6306 43.654 21.0991 43.4012C21.5751 43.1409 22.1142 43.0107 22.7166 43.0107C23.252 43.0107 23.728 43.1186 24.1444 43.3342C24.5683 43.5425 24.8955 43.8548 25.126 44.2713L24.3117 44.7955C24.1184 44.5055 23.8804 44.2936 23.5978 44.1597C23.3227 44.0184 23.0252 43.9478 22.7054 43.9478C22.3187 43.9478 21.9729 44.0333 21.668 44.2043C21.3631 44.3754 21.1214 44.6171 20.9429 44.9294C20.7645 45.2343 20.6752 45.5987 20.6752 46.0226C20.6752 46.4465 20.7645 46.8146 20.9429 47.1269C21.1214 47.4393 21.3631 47.6809 21.668 47.852C21.9729 48.023 22.3187 48.1086 22.7054 48.1086C23.0252 48.1086 23.3227 48.0416 23.5978 47.9078C23.8804 47.7665 24.1184 47.5508 24.3117 47.2608L25.126 47.7739C24.8955 48.1829 24.5683 48.499 24.1444 48.7221C23.728 48.9377 23.252 49.0456 22.7166 49.0456ZM28.9575 49.0456C28.3626 49.0456 27.8346 48.9154 27.3735 48.6551C26.9124 48.3949 26.548 48.0379 26.2803 47.5843C26.0126 47.1232 25.8787 46.6026 25.8787 46.0226C25.8787 45.4351 26.0126 44.9145 26.2803 44.4609C26.548 44.0073 26.9124 43.654 27.3735 43.4012C27.8346 43.1409 28.3626 43.0107 28.9575 43.0107C29.545 43.0107 30.0693 43.1409 30.5303 43.4012C30.9989 43.654 31.3633 44.0073 31.6235 44.4609C31.8913 44.9071 32.0251 45.4277 32.0251 46.0226C32.0251 46.6101 31.8913 47.1306 31.6235 47.5843C31.3633 48.0379 30.9989 48.3949 30.5303 48.6551C30.0693 48.9154 29.545 49.0456 28.9575 49.0456ZM28.9575 48.1086C29.3368 48.1086 29.6751 48.023 29.9726 47.852C30.2775 47.6809 30.5155 47.4393 30.6865 47.1269C30.8576 46.8071 30.9431 46.439 30.9431 46.0226C30.9431 45.5987 30.8576 45.2343 30.6865 44.9294C30.5155 44.6171 30.2775 44.3754 29.9726 44.2043C29.6751 44.0333 29.3368 43.9478 28.9575 43.9478C28.5782 43.9478 28.2399 44.0333 27.9424 44.2043C27.6449 44.3754 27.407 44.6171 27.2285 44.9294C27.05 45.2343 26.9608 45.5987 26.9608 46.0226C26.9608 46.439 27.05 46.8071 27.2285 47.1269C27.407 47.4393 27.6449 47.6809 27.9424 47.852C28.2399 48.023 28.5782 48.1086 28.9575 48.1086ZM33.5061 48.9786V43.0665H34.5324V44.6728L34.432 44.2713C34.5956 43.8622 34.8707 43.5499 35.2574 43.3342C35.6441 43.1186 36.1201 43.0107 36.6853 43.0107V44.0482C36.6406 44.0407 36.596 44.037 36.5514 44.037C36.5142 44.037 36.477 44.037 36.4398 44.037C35.8672 44.037 35.4136 44.208 35.0789 44.5501C34.7443 44.8922 34.577 45.3868 34.577 46.0337V48.9786H33.5061ZM38.0051 48.9786V43.0665H39.076V48.9786H38.0051ZM38.5405 41.9287C38.3323 41.9287 38.1576 41.8618 38.0163 41.7279C37.8824 41.5941 37.8155 41.4305 37.8155 41.2371C37.8155 41.0363 37.8824 40.869 38.0163 40.7351C38.1576 40.6013 38.3323 40.5344 38.5405 40.5344C38.7488 40.5344 38.9198 40.6013 39.0537 40.7351C39.195 40.8616 39.2656 41.0215 39.2656 41.2148C39.2656 41.4156 39.1987 41.5866 39.0648 41.7279C38.931 41.8618 38.7562 41.9287 38.5405 41.9287ZM44.2775 43.0107C44.7609 43.0107 45.1848 43.1037 45.5492 43.2896C45.921 43.4755 46.211 43.7581 46.4192 44.1374C46.6275 44.5167 46.7316 44.9963 46.7316 45.5764V48.9786H45.6607V45.6991C45.6607 45.1265 45.5194 44.6951 45.2368 44.4051C44.9617 44.1151 44.5712 43.9701 44.0656 43.9701C43.6863 43.9701 43.3554 44.0444 43.0728 44.1932C42.7902 44.3419 42.5708 44.5613 42.4146 44.8513C42.2659 45.1413 42.1915 45.502 42.1915 45.9333V48.9786H41.1206V43.0665H42.1469V44.6617L41.9796 44.2378C42.1729 43.8511 42.4704 43.5499 42.872 43.3342C43.2736 43.1186 43.7421 43.0107 44.2775 43.0107ZM51.3014 51.2096C50.7585 51.2096 50.2305 51.1315 49.7174 50.9754C49.2117 50.8266 48.7989 50.611 48.4792 50.3284L48.9923 49.5029C49.2674 49.7409 49.6058 49.9268 50.0074 50.0607C50.409 50.202 50.8291 50.2726 51.2679 50.2726C51.9669 50.2726 52.4801 50.109 52.8073 49.7818C53.1345 49.4546 53.2981 48.9563 53.2981 48.287V47.0377L53.4096 45.8664L53.3539 44.684V43.0665H54.369V48.1755C54.369 49.2166 54.1087 49.9826 53.5881 50.4734C53.0676 50.9642 52.3053 51.2096 51.3014 51.2096ZM51.1675 48.7332C50.5949 48.7332 50.0817 48.6142 49.6281 48.3763C49.1819 48.1309 48.825 47.7925 48.5572 47.3612C48.297 46.9298 48.1668 46.4316 48.1668 45.8664C48.1668 45.2938 48.297 44.7955 48.5572 44.3717C48.825 43.9403 49.1819 43.6057 49.6281 43.3677C50.0817 43.1297 50.5949 43.0107 51.1675 43.0107C51.6732 43.0107 52.1343 43.1149 52.5507 43.3231C52.9672 43.5239 53.2981 43.8362 53.5435 44.2601C53.7963 44.684 53.9228 45.2194 53.9228 45.8664C53.9228 46.506 53.7963 47.0377 53.5435 47.4616C53.2981 47.8855 52.9672 48.2052 52.5507 48.4209C52.1343 48.6291 51.6732 48.7332 51.1675 48.7332ZM51.2902 47.7962C51.6843 47.7962 52.0339 47.7144 52.3388 47.5508C52.6437 47.3872 52.8816 47.1604 53.0527 46.8704C53.2312 46.5803 53.3204 46.2457 53.3204 45.8664C53.3204 45.4871 53.2312 45.1525 53.0527 44.8625C52.8816 44.5724 52.6437 44.3493 52.3388 44.1932C52.0339 44.0296 51.6843 43.9478 51.2902 43.9478C50.8961 43.9478 50.5428 44.0296 50.2305 44.1932C49.9256 44.3493 49.6839 44.5724 49.5054 44.8625C49.3344 45.1525 49.2488 45.4871 49.2488 45.8664C49.2488 46.2457 49.3344 46.5803 49.5054 46.8704C49.6839 47.1604 49.9256 47.3872 50.2305 47.5508C50.5428 47.7144 50.8961 47.7962 51.2902 47.7962Z" fill="#373943"/>
<defs>
<filter id="filter0_d_5954_4249" x="0.205377" y="0.205377" width="69.1785" height="69.1785" filterUnits="userSpaceOnUse" color-interpolation-filters="sRGB">
<feFlood flood-opacity="0" result="BackgroundImageFix"/>
<feColorMatrix in="SourceAlpha" type="matrix" values="0 0 0 0 0 0 0 0 0 0 0 0 0 0 0 0 0 0 127 0" result="hardAlpha"/>
<feOffset dx="0.794623" dy="0.794623"/>
<feGaussianBlur stdDeviation="0.794623"/>
<feComposite in2="hardAlpha" operator="out"/>
<feColorMatrix type="matrix" values="0 0 0 0 0.243137 0 0 0 0 0.329412 0 0 0 0 0.847059 0 0 0 0.31 0"/>
<feBlend mode="normal" in2="BackgroundImageFix" result="effect1_dropShadow_5954_4249"/>
<feBlend mode="normal" in="SourceGraphic" in2="effect1_dropShadow_5954_4249" result="shape"/>
</filter>
<filter id="filter1_i_5954_4249" x="19.0671" y="19.556" width="30.7421" height="13.8654" filterUnits="userSpaceOnUse" color-interpolation-filters="sRGB">
<feFlood flood-opacity="0" result="BackgroundImageFix"/>
<feBlend mode="normal" in="SourceGraphic" in2="BackgroundImageFix" result="shape"/>
<feColorMatrix in="SourceAlpha" type="matrix" values="0 0 0 0 0 0 0 0 0 0 0 0 0 0 0 0 0 0 127 0" result="hardAlpha"/>
<feOffset dx="0.479447" dy="0.719171"/>
<feGaussianBlur stdDeviation="0.239724"/>
<feComposite in2="hardAlpha" operator="arithmetic" k2="-1" k3="1"/>
<feColorMatrix type="matrix" values="0 0 0 0 0 0 0 0 0 0 0 0 0 0 0 0 0 0 0.31 0"/>
<feBlend mode="normal" in2="shape" result="effect1_innerShadow_5954_4249"/>
</filter>
</defs>
</svg>
