<svg width="40" height="40" viewBox="0 0 40 40" fill="none" xmlns="http://www.w3.org/2000/svg">
<rect x="0.5" y="0.5" width="39" height="39" rx="7.5" fill="white" stroke="#E6EEFF"/>
<g clip-path="url(#clip0)">
<path d="M27.2252 13.078C25.3376 11.1077 22.7258 9.99573 19.9971 10.0007C14.4828 9.9938 10.007 14.4584 10 19.9727C9.99658 22.6994 11.1084 25.3088 13.0773 27.1951C13.083 27.2008 13.0851 27.2093 13.0908 27.2144C13.1486 27.2701 13.2115 27.3172 13.2701 27.3708C13.4307 27.5136 13.5914 27.6614 13.7606 27.7992C13.8513 27.8706 13.9455 27.942 14.0384 28.0077C14.1983 28.1269 14.3583 28.2462 14.5253 28.3561C14.6389 28.4276 14.756 28.4989 14.8724 28.5704C15.0266 28.6632 15.1801 28.7567 15.3394 28.8417C15.4743 28.9131 15.6121 28.9745 15.7492 29.0395C15.8992 29.1109 16.047 29.1823 16.2005 29.2465C16.354 29.3108 16.5083 29.3608 16.6639 29.4165C16.8195 29.4722 16.9538 29.5236 17.103 29.5693C17.2716 29.62 17.4444 29.6592 17.6157 29.7014C17.7585 29.7363 17.8971 29.7763 18.0442 29.8049C18.2412 29.8442 18.4412 29.8692 18.6411 29.8963C18.7647 29.9135 18.8853 29.9377 19.0103 29.9499C19.3373 29.982 19.6672 29.9999 19.9999 29.9999C20.3327 29.9999 20.6626 29.982 20.9896 29.9499C21.1146 29.9377 21.2352 29.9135 21.3587 29.8963C21.5587 29.8692 21.7586 29.8442 21.9557 29.8049C22.0985 29.7763 22.2413 29.7335 22.3841 29.7014C22.5555 29.6592 22.7283 29.6199 22.8968 29.5693C23.046 29.5236 23.1903 29.4679 23.3359 29.4165C23.4816 29.3651 23.6473 29.3094 23.7994 29.2465C23.9514 29.1837 24.1007 29.1101 24.2506 29.0395C24.3877 28.9745 24.5256 28.9131 24.6605 28.8417C24.8197 28.7567 24.9732 28.6632 25.1275 28.5704C25.2439 28.4989 25.361 28.434 25.4745 28.3561C25.6416 28.2462 25.8016 28.127 25.9615 28.0077C26.0543 27.9363 26.1485 27.872 26.2392 27.7992C26.4085 27.6635 26.5691 27.5193 26.7298 27.3708C26.7883 27.3172 26.8512 27.2701 26.909 27.2144C26.9147 27.2094 26.9169 27.2008 26.9226 27.1951C30.9046 23.3803 31.04 17.0599 27.2252 13.078ZM25.6203 26.4475C25.4904 26.5617 25.3561 26.6702 25.2205 26.7752C25.1405 26.8366 25.0605 26.8973 24.9784 26.9559C24.8491 27.0494 24.7178 27.138 24.5842 27.2229C24.4871 27.2851 24.3879 27.345 24.2879 27.4036C24.1622 27.475 24.0344 27.5464 23.9051 27.6178C23.7909 27.6763 23.6745 27.7314 23.5574 27.7856C23.4403 27.8399 23.3111 27.8977 23.1847 27.9484C23.0583 27.9991 22.924 28.047 22.7919 28.0912C22.6713 28.1326 22.5506 28.1755 22.4285 28.2119C22.2857 28.2547 22.1364 28.2897 21.9886 28.3254C21.8729 28.3526 21.7587 28.3833 21.6416 28.4061C21.4724 28.439 21.2996 28.4618 21.1261 28.4854C21.0275 28.4982 20.9297 28.5161 20.8304 28.5261C20.5562 28.5525 20.2784 28.5682 19.9978 28.5682C19.7172 28.5682 19.4395 28.5525 19.1652 28.5261C19.066 28.5161 18.9682 28.4982 18.8696 28.4854C18.6961 28.4618 18.5233 28.439 18.3541 28.4061C18.237 28.3833 18.1227 28.3526 18.0071 28.3254C17.8592 28.2897 17.7121 28.254 17.5672 28.2119C17.4451 28.1755 17.3244 28.1326 17.2037 28.0912C17.0717 28.0455 16.9395 27.9991 16.811 27.9484C16.6825 27.8977 16.5611 27.842 16.4383 27.7856C16.3154 27.7292 16.2048 27.6764 16.0905 27.6178C15.9613 27.5507 15.8335 27.48 15.7078 27.4036C15.6078 27.3451 15.5086 27.2851 15.4115 27.2229C15.2779 27.138 15.1465 27.0494 15.0173 26.9559C14.9352 26.8974 14.8552 26.8366 14.7752 26.7752C14.6395 26.6702 14.5053 26.561 14.3754 26.4475C14.3439 26.4239 14.3154 26.3939 14.2847 26.3667C14.3166 23.9377 15.8771 21.7929 18.1784 21.0149C19.3291 21.5623 20.6651 21.5623 21.8158 21.0149C24.1171 21.7929 25.6776 23.9377 25.7096 26.3667C25.6796 26.3939 25.651 26.4211 25.6203 26.4475ZM17.5072 15.7259C18.2803 14.3509 20.0217 13.863 21.3967 14.6362C22.7717 15.4093 23.2596 17.1507 22.4864 18.5257C22.2299 18.9819 21.8529 19.3589 21.3967 19.6154C21.3931 19.6154 21.3888 19.6154 21.3845 19.6197C21.1952 19.7251 20.9951 19.8098 20.7876 19.8725C20.7505 19.8832 20.7162 19.8975 20.6769 19.9067C20.6055 19.9253 20.5305 19.9382 20.457 19.951C20.3185 19.9752 20.1784 19.9893 20.0378 19.9931H19.9564C19.8159 19.9893 19.6758 19.9752 19.5373 19.951C19.4659 19.9382 19.3902 19.9253 19.3174 19.9067C19.2795 19.8975 19.2459 19.8832 19.2067 19.8725C18.9992 19.8098 18.7991 19.7251 18.6097 19.6197L18.5969 19.6154C17.2219 18.8423 16.734 17.1009 17.5072 15.7259ZM26.9763 24.9508C26.518 22.8136 25.1107 21.0017 23.1532 20.0289C24.7534 18.2859 24.6375 15.5757 22.8944 13.9755C21.1514 12.3754 18.4412 12.4913 16.841 14.2343C15.3368 15.873 15.3368 18.3903 16.841 20.0289C14.8836 21.0017 13.4762 22.8136 13.018 24.9508C10.2799 21.094 11.1868 15.7477 15.0436 13.0096C18.9005 10.2715 24.2467 11.1784 26.9848 15.0353C28.0141 16.4851 28.5667 18.2194 28.5658 19.9974C28.5658 21.774 28.01 23.506 26.9763 24.9508Z" fill="#3E54D8"/>
</g>
<defs>
<clipPath id="clip0">
<rect width="20" height="20" fill="white" transform="translate(10 10)"/>
</clipPath>
</defs>
</svg>
