<svg width="61" height="59" viewBox="0 0 61 59" fill="none" xmlns="http://www.w3.org/2000/svg">
<path opacity="0.2" d="M38 -1.00536e-06C50.7025 -4.50116e-07 61 10.2975 61 23L61 46L15 46L15 23C15 10.2974 25.2975 -1.56061e-06 38 -1.00536e-06Z" fill="#199F27"/>
<path d="M42.5938 53.125H5.875V16.4062C5.875 16.0167 5.72026 15.6431 5.44481 15.3677C5.16937 15.0922 4.79579 14.9375 4.40625 14.9375C4.01671 14.9375 3.64313 15.0922 3.36769 15.3677C3.09224 15.6431 2.9375 16.0167 2.9375 16.4062V54.5938C2.9375 54.9833 3.09224 55.3569 3.36769 55.6323C3.64313 55.9078 4.01671 56.0625 4.40625 56.0625H42.5938C42.9833 56.0625 43.3569 55.9078 43.6323 55.6323C43.9078 55.3569 44.0625 54.9833 44.0625 54.5938C44.0625 54.2042 43.9078 53.8306 43.6323 53.5552C43.3569 53.2797 42.9833 53.125 42.5938 53.125Z" fill="#373943"/>
<path d="M10.2812 47.25H11.75V48.7188C11.75 49.1083 11.9047 49.4819 12.1802 49.7573C12.4556 50.0328 12.8292 50.1875 13.2188 50.1875C13.6083 50.1875 13.9819 50.0328 14.2573 49.7573C14.5328 49.4819 14.6875 49.1083 14.6875 48.7188V47.25H16.1562C16.5458 47.25 16.9194 47.0953 17.1948 46.8198C17.4703 46.5444 17.625 46.1708 17.625 45.7812V36.9688C17.625 36.5792 17.4703 36.2056 17.1948 35.9302C16.9194 35.6547 16.5458 35.5 16.1562 35.5H14.6875V25.2188C14.6875 24.8292 14.5328 24.4556 14.2573 24.1802C13.9819 23.9047 13.6083 23.75 13.2188 23.75C12.8292 23.75 12.4556 23.9047 12.1802 24.1802C11.9047 24.4556 11.75 24.8292 11.75 25.2188V35.5H10.2812C9.89171 35.5 9.51813 35.6547 9.24269 35.9302C8.96724 36.2056 8.8125 36.5792 8.8125 36.9688V45.7812C8.8125 46.1708 8.96724 46.5444 9.24269 46.8198C9.51813 47.0953 9.89171 47.25 10.2812 47.25ZM11.75 38.4375H14.6875V44.3125H11.75V38.4375Z" fill="#373943"/>
<path d="M23.5 39.9062H24.9688V47.25C24.9688 47.6395 25.1235 48.0131 25.3989 48.2886C25.6744 48.564 26.048 48.7188 26.4375 48.7188C26.827 48.7188 27.2006 48.564 27.4761 48.2886C27.7515 48.0131 27.9062 47.6395 27.9062 47.25V39.9062H29.375C29.7645 39.9062 30.1381 39.7515 30.4136 39.4761C30.689 39.2006 30.8438 38.827 30.8438 38.4375V20.8125C30.8438 20.423 30.689 20.0494 30.4136 19.7739C30.1381 19.4985 29.7645 19.3438 29.375 19.3438H27.9062V16.4062C27.9062 16.0167 27.7515 15.6431 27.4761 15.3677C27.2006 15.0922 26.827 14.9375 26.4375 14.9375C26.048 14.9375 25.6744 15.0922 25.3989 15.3677C25.1235 15.6431 24.9688 16.0167 24.9688 16.4062V19.3438H23.5C23.1105 19.3438 22.7369 19.4985 22.4614 19.7739C22.186 20.0494 22.0312 20.423 22.0312 20.8125V38.4375C22.0312 38.827 22.186 39.2006 22.4614 39.4761C22.7369 39.7515 23.1105 39.9062 23.5 39.9062ZM24.9688 22.2812H27.9062V36.9688H24.9688V22.2812Z" fill="#199F27"/>
<path d="M42.5938 25.2188H41.125V19.3438C41.125 18.9542 40.9703 18.5806 40.6948 18.3052C40.4194 18.0297 40.0458 17.875 39.6562 17.875C39.2667 17.875 38.8931 18.0297 38.6177 18.3052C38.3422 18.5806 38.1875 18.9542 38.1875 19.3438V25.2188H36.7188C36.3292 25.2188 35.9556 25.3735 35.6802 25.6489C35.4047 25.9244 35.25 26.298 35.25 26.6875V41.375C35.25 41.7645 35.4047 42.1381 35.6802 42.4136C35.9556 42.689 36.3292 42.8438 36.7188 42.8438H38.1875V44.3125C38.1875 44.702 38.3422 45.0756 38.6177 45.3511C38.8931 45.6265 39.2667 45.7812 39.6562 45.7812C40.0458 45.7812 40.4194 45.6265 40.6948 45.3511C40.9703 45.0756 41.125 44.702 41.125 44.3125V42.8438H42.5938C42.9833 42.8438 43.3569 42.689 43.6323 42.4136C43.9078 42.1381 44.0625 41.7645 44.0625 41.375V26.6875C44.0625 26.298 43.9078 25.9244 43.6323 25.6489C43.3569 25.3735 42.9833 25.2188 42.5938 25.2188ZM41.125 39.9062H38.1875V28.1562H41.125V39.9062Z" fill="#373943"/>
</svg>
