<svg width="61" height="58" viewBox="0 0 61 58" fill="none" xmlns="http://www.w3.org/2000/svg">
<path opacity="0.1" d="M61 23C61 35.7025 50.7025 46 38 46L15 46L15 -2.06751e-07L38 1.80397e-06C50.7026 2.91447e-06 61 10.2975 61 23Z" fill="#F3B63F"/>
<path d="M39.6875 57.125H2.3125C1.93125 57.125 1.56562 56.9735 1.29603 56.704C1.02645 56.4344 0.875 56.0687 0.875 55.6875V18.3125C0.875 17.9313 1.02645 17.5656 1.29603 17.296C1.56562 17.0265 1.93125 16.875 2.3125 16.875C2.69375 16.875 3.05938 17.0265 3.32897 17.296C3.59855 17.5656 3.75 17.9313 3.75 18.3125V54.25H39.6875C40.0687 54.25 40.4344 54.4015 40.704 54.671C40.9735 54.9406 41.125 55.3063 41.125 55.6875C41.125 56.0687 40.9735 56.4344 40.704 56.704C40.4344 56.9735 40.0687 57.125 39.6875 57.125Z" fill="#373943"/>
<path d="M41.01 22.0787C40.9021 21.8162 40.719 21.5915 40.4836 21.4329C40.2483 21.2743 39.9713 21.1889 39.6875 21.1875H33.9375C33.5562 21.1875 33.1906 21.339 32.921 21.6085C32.6514 21.8781 32.5 22.2438 32.5 22.625C32.5 23.0062 32.6514 23.3719 32.921 23.6415C33.1906 23.911 33.5562 24.0625 33.9375 24.0625H36.2231L26.1606 34.125H13.8125C13.5245 34.1247 13.2432 34.2109 13.0048 34.3724C12.7665 34.5338 12.5821 34.7632 12.4756 35.0306L6.72558 49.4056C6.65573 49.5812 6.62114 49.7688 6.6238 49.9577C6.62645 50.1466 6.66629 50.3332 6.74104 50.5067C6.8158 50.6802 6.92399 50.8374 7.05946 50.9691C7.19493 51.1008 7.35501 51.2045 7.53058 51.2744C7.70614 51.3442 7.89374 51.3788 8.08266 51.3762C8.27159 51.3735 8.45814 51.3337 8.63167 51.2589C8.8052 51.1842 8.96231 51.076 9.09402 50.9405C9.22574 50.805 9.32948 50.6449 9.39933 50.4694L14.79 37H26.75C26.9391 37.0011 27.1267 36.9648 27.3018 36.8933C27.477 36.8218 27.6363 36.7164 27.7706 36.5831L38.25 26.0894V28.375C38.25 28.7562 38.4014 29.1219 38.671 29.3915C38.9406 29.661 39.3062 29.8125 39.6875 29.8125C40.0687 29.8125 40.4343 29.661 40.7039 29.3915C40.9735 29.1219 41.125 28.7562 41.125 28.375V22.625C41.1227 22.4372 41.0836 22.2516 41.01 22.0787Z" fill="#F3B63F"/>
</svg>
