<svg width="62" height="59" viewBox="0 0 62 59" fill="none" xmlns="http://www.w3.org/2000/svg">
<path d="M15.9375 36.3532V34.7594C15.9322 34.5737 15.8944 34.3903 15.8259 34.2176C15.7722 34.0923 15.7025 33.9745 15.6188 33.8669L9.24375 25.8982C9.09441 25.712 8.90518 25.5618 8.69002 25.4586C8.47486 25.3553 8.23927 25.3018 8.00062 25.3018C7.76198 25.3018 7.52639 25.3553 7.31123 25.4586C7.09607 25.5618 6.90684 25.712 6.7575 25.8982L0.3825 33.8669C0.298727 33.9745 0.229096 34.0923 0.175312 34.2176C0.0848138 34.3862 0.0254284 34.5697 0 34.7594C0 34.7594 0 34.7594 0 34.7594V36.3532C0 38.4666 0.839562 40.4935 2.33399 41.9879C3.82842 43.4824 5.85531 44.3219 7.96875 44.3219C10.0822 44.3219 12.1091 43.4824 13.6035 41.9879C15.0979 40.4935 15.9375 38.4666 15.9375 36.3532ZM7.96875 29.3407L11.0288 33.1657H4.90875L7.96875 29.3407ZM7.96875 41.1344C6.70068 41.1344 5.48455 40.6307 4.5879 39.734C3.69124 38.8374 3.1875 37.6212 3.1875 36.3532H12.75C12.75 37.6212 12.2463 38.8374 11.3496 39.734C10.4529 40.6307 9.23682 41.1344 7.96875 41.1344Z" fill="#373943"/>
<path d="M44.625 28.3844C44.6197 28.1987 44.5819 28.0153 44.5134 27.8426C44.4597 27.7173 44.39 27.5995 44.3062 27.4919L37.9312 19.5232C37.7819 19.337 37.5927 19.1868 37.3775 19.0836C37.1624 18.9803 36.9268 18.9268 36.6881 18.9268C36.4495 18.9268 36.2139 18.9803 35.9987 19.0836C35.7836 19.1868 35.5943 19.337 35.445 19.5232L29.07 27.4919C28.9862 27.5995 28.9166 27.7173 28.8628 27.8426C28.7723 28.0112 28.7129 28.1947 28.6875 28.3844V29.9782C28.6875 32.0916 29.5271 34.1185 31.0215 35.6129C32.5159 37.1074 34.5428 37.9469 36.6562 37.9469C38.7697 37.9469 40.7966 37.1074 42.291 35.6129C43.7854 34.1185 44.625 32.0916 44.625 29.9782V28.3844ZM36.6562 22.9657L39.7163 26.7907H33.5963L36.6562 22.9657ZM36.6562 34.7594C35.3882 34.7594 34.1721 34.2557 33.2754 33.359C32.3787 32.4624 31.875 31.2462 31.875 29.9782H41.4375C41.4375 31.2462 40.9338 32.4624 40.0371 33.359C39.1404 34.2557 37.9243 34.7594 36.6562 34.7594Z" fill="#3E54D8"/>
<path d="M30.2812 55.4785H14.3438C13.9211 55.4785 13.5157 55.6464 13.2168 55.9453C12.9179 56.2442 12.75 56.6496 12.75 57.0723C12.75 57.495 12.9179 57.9003 13.2168 58.1992C13.5157 58.4981 13.9211 58.666 14.3438 58.666H30.2812C30.7039 58.666 31.1093 58.4981 31.4082 58.1992C31.7071 57.9003 31.875 57.495 31.875 57.0723C31.875 56.6496 31.7071 56.2442 31.4082 55.9453C31.1093 55.6464 30.7039 55.4785 30.2812 55.4785Z" fill="#373943"/>
<path d="M7.96862 23.6033H8.31925L18.2802 21.388C18.8555 22.2845 19.7137 22.9632 20.7186 23.3165V50.6971H19.1249C18.7022 50.6971 18.2968 50.865 17.9979 51.1639C17.699 51.4628 17.5311 51.8682 17.5311 52.2908C17.5311 52.7135 17.699 53.1189 17.9979 53.4178C18.2968 53.7167 18.7022 53.8846 19.1249 53.8846H25.4999C25.9226 53.8846 26.3279 53.7167 26.6268 53.4178C26.9257 53.1189 27.0936 52.7135 27.0936 52.2908C27.0936 51.8682 26.9257 51.4628 26.6268 51.1639C26.3279 50.865 25.9226 50.6971 25.4999 50.6971H23.9061V23.3165C24.7484 23.0271 25.493 22.5082 26.0562 21.8183C26.6194 21.1284 26.9787 20.2949 27.0936 19.4118L37.0067 17.2283C37.216 17.1833 37.4144 17.0976 37.5906 16.9759C37.7667 16.8542 37.9172 16.6991 38.0333 16.5193C38.1495 16.3394 38.2291 16.1385 38.2677 15.9279C38.3062 15.7173 38.3028 15.5012 38.2578 15.2919C38.2128 15.0826 38.1271 14.8843 38.0054 14.7081C37.8837 14.532 37.7286 14.3815 37.5487 14.2653C37.3689 14.1492 37.168 14.0696 36.9574 14.031C36.7468 13.9925 36.5307 13.9958 36.3214 14.0408L26.3605 16.288C25.8415 15.4388 25.0704 14.7726 24.1547 14.3825C23.2391 13.9925 22.2245 13.8978 21.2525 14.1119C20.2805 14.3259 19.3995 14.838 18.7324 15.5766C18.0653 16.3153 17.6454 17.2437 17.5311 18.2324L7.618 20.4158C7.19531 20.4623 6.8084 20.6748 6.54239 21.0066C6.27639 21.3384 6.15306 21.7622 6.19956 22.1849C6.24606 22.6076 6.45856 22.9945 6.79032 23.2605C7.12209 23.5265 7.54593 23.6498 7.96862 23.6033ZM22.3124 17.2283C22.6276 17.2283 22.9357 17.3218 23.1978 17.4969C23.4599 17.6721 23.6642 17.921 23.7848 18.2122C23.9054 18.5034 23.937 18.8239 23.8755 19.133C23.814 19.4422 23.6622 19.7262 23.4393 19.949C23.2164 20.1719 22.9325 20.3237 22.6233 20.3852C22.3141 20.4467 21.9937 20.4152 21.7025 20.2945C21.4113 20.1739 21.1623 19.9696 20.9872 19.7075C20.8121 19.4454 20.7186 19.1373 20.7186 18.8221C20.7186 18.3994 20.8865 17.994 21.1854 17.6951C21.4843 17.3963 21.8897 17.2283 22.3124 17.2283Z" fill="#373943"/>
<circle opacity="0.1" cx="37.5" cy="24.5" r="24.5" fill="#3E54D8"/>
</svg>
