<svg width="723" height="506" viewBox="0 0 723 506" fill="none" xmlns="http://www.w3.org/2000/svg">
<path d="M628 428C594.311 428 567 400.689 567 367C567 333.311 594.311 306 628 306C661.689 306 689 333.311 689 367V428H628Z" fill="#F3B63F"/>
<g filter="url(#filter0_d)">
<rect x="75" y="31" width="573" height="356" rx="36" fill="#FAFCFF"/>
<g filter="url(#filter1_d)">
<rect x="192" y="55" width="267.905" height="57.2225" rx="6.93606" fill="white"/>
<path opacity="0.93" d="M308.113 78.1498V89.0741H306.116V79.8665H300.451V89.0741H298.453V78.1498H308.113ZM314.689 89.1833C313.847 89.1833 313.087 89.0013 312.411 88.6371C311.735 88.273 311.204 87.7684 310.819 87.1233C310.444 86.4679 310.257 85.7292 310.257 84.9073C310.257 84.0853 310.444 83.3518 310.819 82.7068C311.204 82.0617 311.735 81.5571 312.411 81.193C313.087 80.8289 313.847 80.6468 314.689 80.6468C315.542 80.6468 316.307 80.8289 316.983 81.193C317.66 81.5571 318.185 82.0617 318.56 82.7068C318.945 83.3518 319.137 84.0853 319.137 84.9073C319.137 85.7292 318.945 86.4679 318.56 87.1233C318.185 87.7684 317.66 88.273 316.983 88.6371C316.307 89.0013 315.542 89.1833 314.689 89.1833ZM314.689 87.5135C315.407 87.5135 316 87.2742 316.468 86.7956C316.937 86.317 317.171 85.6876 317.171 84.9073C317.171 84.127 316.937 83.4975 316.468 83.0189C316 82.5403 315.407 82.301 314.689 82.301C313.971 82.301 313.378 82.5403 312.91 83.0189C312.452 83.4975 312.224 84.127 312.224 84.9073C312.224 85.6876 312.452 86.317 312.91 86.7956C313.378 87.2742 313.971 87.5135 314.689 87.5135ZM329.868 87.4198V90.9312H328.042V89.0741H321.613V90.9312H319.802V87.4198H320.192C320.723 87.399 321.082 87.0609 321.269 86.4054C321.467 85.7396 321.597 84.8032 321.659 83.5963L321.769 80.7404H328.635V87.4198H329.868ZM323.438 83.7368C323.397 84.694 323.319 85.4743 323.204 86.0777C323.09 86.6812 322.882 87.1285 322.58 87.4198H326.685V82.3947H323.485L323.438 83.7368ZM339.414 84.9541C339.414 85.0893 339.403 85.2818 339.382 85.5315H332.843C332.958 86.1453 333.254 86.6343 333.733 86.9985C334.222 87.3522 334.825 87.5291 335.543 87.5291C336.459 87.5291 337.213 87.2274 337.806 86.6239L338.852 87.8256C338.477 88.273 338.004 88.6111 337.432 88.84C336.859 89.0689 336.214 89.1833 335.496 89.1833C334.581 89.1833 333.775 89.0013 333.077 88.6371C332.38 88.273 331.839 87.7684 331.454 87.1233C331.08 86.4679 330.893 85.7292 330.893 84.9073C330.893 84.0957 331.075 83.3675 331.439 82.7224C331.813 82.0669 332.328 81.5571 332.984 81.193C333.639 80.8289 334.378 80.6468 335.2 80.6468C336.011 80.6468 336.735 80.8289 337.369 81.193C338.014 81.5467 338.514 82.0513 338.867 82.7068C339.231 83.3518 339.414 84.1009 339.414 84.9541ZM335.2 82.2074C334.576 82.2074 334.045 82.3947 333.608 82.7692C333.182 83.1334 332.921 83.6224 332.828 84.2362H337.556C337.473 83.6328 337.218 83.1438 336.792 82.7692C336.365 82.3947 335.835 82.2074 335.2 82.2074ZM348.994 80.7404V89.0741H347.043V82.3947H343.922L343.844 84.0489C343.792 85.1518 343.688 86.0777 343.532 86.8268C343.386 87.5655 343.131 88.1533 342.767 88.5903C342.413 89.0169 341.924 89.2302 341.3 89.2302C341.009 89.2302 340.65 89.1729 340.223 89.0585L340.317 87.4198C340.463 87.4511 340.587 87.4667 340.691 87.4667C341.087 87.4667 341.383 87.3106 341.581 86.9985C341.779 86.676 341.904 86.2962 341.956 85.8592C342.018 85.4119 342.07 84.7772 342.112 83.9553L342.252 80.7404H348.994ZM351.621 80.7404H353.572V86.2338L358.176 80.7404H359.955V89.0741H358.004V83.5807L353.416 89.0741H351.621V80.7404ZM369.18 82.3947H366.262V89.0741H364.311V82.3947H361.377V80.7404H369.18V82.3947ZM374.778 83.4871C375.839 83.4871 376.651 83.7264 377.212 84.205C377.785 84.6836 378.071 85.3598 378.071 86.2338C378.071 87.1493 377.759 87.8568 377.134 88.3562C376.51 88.8556 375.631 89.1001 374.497 89.0897L370.595 89.0741V80.7404H372.546V83.4715L374.778 83.4871ZM374.325 87.6539C374.897 87.6643 375.334 87.5447 375.636 87.295C375.938 87.0453 376.089 86.6812 376.089 86.2026C376.089 85.7344 375.943 85.391 375.652 85.1726C375.36 84.9541 374.918 84.8396 374.325 84.8292L372.546 84.8136V87.6383L374.325 87.6539ZM383.578 89.1833C382.714 89.1833 381.939 89.0013 381.252 88.6371C380.566 88.273 380.03 87.7684 379.645 87.1233C379.26 86.4679 379.067 85.7292 379.067 84.9073C379.067 84.0853 379.26 83.3518 379.645 82.7068C380.03 82.0617 380.56 81.5571 381.237 81.193C381.923 80.8289 382.704 80.6468 383.578 80.6468C384.4 80.6468 385.117 80.8132 385.731 81.1462C386.355 81.4791 386.824 81.9577 387.136 82.5819L385.638 83.4559C385.398 83.0709 385.097 82.7848 384.732 82.5975C384.379 82.3999 383.989 82.301 383.562 82.301C382.834 82.301 382.23 82.5403 381.752 83.0189C381.273 83.4871 381.034 84.1165 381.034 84.9073C381.034 85.698 381.268 86.3326 381.736 86.8112C382.215 87.2794 382.823 87.5135 383.562 87.5135C383.989 87.5135 384.379 87.4198 384.732 87.2326C385.097 87.0349 385.398 86.7436 385.638 86.3586L387.136 87.2326C386.813 87.8568 386.34 88.3406 385.716 88.6839C385.102 89.0169 384.389 89.1833 383.578 89.1833ZM395.663 80.7404V89.0741H393.915V86.5615H391.715L390.014 89.0741H387.922L389.889 86.2962C389.285 86.0881 388.822 85.7708 388.5 85.3442C388.188 84.9073 388.032 84.3714 388.032 83.7368C388.032 82.7796 388.37 82.0409 389.046 81.5207C389.722 81.0005 390.654 80.7404 391.84 80.7404H395.663ZM391.902 82.3791C390.643 82.3791 390.014 82.8524 390.014 83.7992C390.014 84.7356 390.622 85.2038 391.84 85.2038H393.915V82.3791H391.902Z" fill="#3E54D8"/>
<path d="M262.228 87.0792C264.143 87.0792 265.696 85.5266 265.696 83.6112C265.696 81.6959 264.143 80.1432 262.228 80.1432C260.312 80.1432 258.76 81.6959 258.76 83.6112C258.76 85.5266 260.312 87.0792 262.228 87.0792Z" stroke="#3E54D8" stroke-width="1.73402" stroke-linecap="round" stroke-linejoin="round"/>
<path d="M274.366 94.8824C276.281 94.8824 277.834 93.3297 277.834 91.4143C277.834 89.499 276.281 87.9463 274.366 87.9463C272.45 87.9463 270.898 89.499 270.898 91.4143C270.898 93.3297 272.45 94.8824 274.366 94.8824Z" stroke="#3E54D8" stroke-width="1.73402" stroke-linecap="round" stroke-linejoin="round"/>
<path d="M274.366 79.2761C276.281 79.2761 277.834 77.7235 277.834 75.8081C277.834 73.8928 276.281 72.3401 274.366 72.3401C272.45 72.3401 270.898 73.8928 270.898 75.8081C270.898 77.7235 272.45 79.2761 274.366 79.2761Z" stroke="#3E54D8" stroke-width="1.73402" stroke-linecap="round" stroke-linejoin="round"/>
<path d="M271.448 77.6833L265.144 81.7361" stroke="#3E54D8" stroke-width="1.73402" stroke-linecap="round" stroke-linejoin="round"/>
<path d="M265.144 85.4862L271.448 89.539" stroke="#3E54D8" stroke-width="1.73402" stroke-linecap="round" stroke-linejoin="round"/>
<rect x="192.867" y="55.867" width="266.171" height="55.4885" rx="6.06905" stroke="#9FC1FF" stroke-width="1.73402"/>
</g>
<g filter="url(#filter2_d)">
<rect x="473.777" y="55" width="57.2225" height="57.2225" rx="6.93606" fill="white"/>
<path d="M495.452 78.4091V74.0741H509.325V78.4091" stroke="#8C9BEA" stroke-width="1.73402" stroke-linecap="round" stroke-linejoin="round"/>
<path d="M509.325 86.2122H495.452V93.5817H509.325V86.2122Z" stroke="#8C9BEA" stroke-width="1.73402" stroke-linecap="round" stroke-linejoin="round"/>
<path d="M495.452 88.8133H491.551V80.1432C491.551 79.1855 492.392 78.4092 493.429 78.4092H511.348C512.385 78.4092 513.226 79.1855 513.226 80.1432V88.8133H509.325" stroke="#8C9BEA" stroke-width="1.73402" stroke-linecap="round" stroke-linejoin="round"/>
<path d="M508.891 83.6112C509.609 83.6112 510.192 83.0289 510.192 82.3106C510.192 81.5924 509.609 81.0101 508.891 81.0101C508.173 81.0101 507.591 81.5924 507.591 82.3106C507.591 83.0289 508.173 83.6112 508.891 83.6112Z" fill="#8C9BEA"/>
<rect x="474.644" y="55.867" width="55.4885" height="55.4885" rx="6.06905" stroke="#D3E3FF" stroke-width="1.73402"/>
</g>
<g filter="url(#filter3_d)">
<rect x="192" y="119.158" width="339" height="243.629" rx="8.67008" fill="#FCFDFF"/>
<g clip-path="url(#clip0)">
<path d="M244.407 164.243L245.178 159.222H240.36V155.964C240.36 154.59 241.033 153.251 243.191 153.251H245.381V148.977C245.381 148.977 243.393 148.638 241.493 148.638C237.526 148.638 234.932 151.043 234.932 155.396V159.223H230.522V164.244H234.932V176.382H240.36V164.244L244.407 164.243Z" fill="#3E54D8"/>
</g>
<path d="M336.269 151.848L331.69 173.442C331.344 174.966 330.444 175.345 329.164 174.627L322.187 169.486L318.82 172.724C318.448 173.097 318.137 173.408 317.418 173.408L317.92 166.303L330.85 154.619C331.413 154.118 330.728 153.84 329.977 154.342L313.991 164.408L307.109 162.253C305.613 161.786 305.586 160.756 307.421 160.038L334.339 149.667C335.585 149.2 336.675 149.945 336.269 151.849V151.848Z" fill="#3E54D8"/>
<g clip-path="url(#clip1)">
<path d="M404.417 148.637C400.647 148.637 400.177 148.655 398.701 148.717C397.219 148.79 396.217 149.02 395.333 149.363C394.407 149.713 393.569 150.26 392.876 150.966C392.168 151.657 391.62 152.496 391.273 153.423C390.93 154.307 390.7 155.309 390.627 156.791C390.561 158.267 390.547 158.736 390.547 162.507C390.547 166.278 390.565 166.748 390.627 168.223C390.7 169.701 390.93 170.707 391.273 171.592C391.623 172.517 392.17 173.355 392.876 174.048C393.567 174.756 394.406 175.304 395.333 175.651C396.217 175.99 397.224 176.224 398.701 176.297C400.177 176.364 400.647 176.377 404.417 176.377C408.188 176.377 408.658 176.359 410.133 176.297C411.611 176.224 412.617 175.989 413.502 175.651C414.427 175.302 415.265 174.754 415.958 174.048C416.667 173.358 417.215 172.519 417.561 171.592C417.9 170.707 418.134 169.701 418.207 168.223C418.274 166.747 418.288 166.278 418.288 162.507C418.288 158.736 418.269 158.267 418.207 156.791C418.134 155.314 417.899 154.302 417.561 153.423C417.212 152.497 416.664 151.659 415.958 150.966C415.268 150.257 414.429 149.709 413.502 149.363C412.617 149.02 411.611 148.79 410.133 148.717C408.657 148.651 408.188 148.637 404.417 148.637ZM404.417 151.134C408.12 151.134 408.562 151.152 410.026 151.214C411.376 151.278 412.111 151.503 412.599 151.694C413.203 151.917 413.749 152.271 414.198 152.732C414.658 153.179 415.011 153.724 415.231 154.326C415.422 154.814 415.647 155.549 415.711 156.899C415.773 158.363 415.791 158.806 415.791 162.508C415.791 166.21 415.773 166.653 415.706 168.117C415.633 169.467 415.407 170.202 415.217 170.69C414.955 171.341 414.662 171.796 414.178 172.289C413.727 172.746 413.181 173.099 412.579 173.322C412.097 173.513 411.351 173.738 409.996 173.802C408.525 173.864 408.092 173.882 404.379 173.882C400.666 173.882 400.234 173.864 398.761 173.796C397.411 173.724 396.666 173.498 396.178 173.308C395.519 173.046 395.067 172.753 394.584 172.269C394.095 171.781 393.785 171.316 393.546 170.67C393.352 170.188 393.13 169.442 393.058 168.087C393.008 166.633 392.985 166.182 392.985 162.487C392.985 158.794 393.008 158.342 393.058 156.87C393.13 155.515 393.352 154.771 393.546 154.287C393.785 153.627 394.096 153.176 394.584 152.688C395.066 152.205 395.519 151.893 396.178 151.649C396.666 151.459 397.393 151.233 398.748 151.166C400.219 151.113 400.653 151.094 404.36 151.094L404.417 151.134ZM404.417 155.388C403.482 155.388 402.556 155.572 401.692 155.929C400.828 156.287 400.043 156.812 399.381 157.473C398.72 158.134 398.195 158.919 397.838 159.783C397.48 160.648 397.296 161.574 397.296 162.509C397.296 163.444 397.48 164.37 397.838 165.234C398.195 166.098 398.72 166.883 399.381 167.545C400.043 168.206 400.828 168.731 401.692 169.088C402.556 169.446 403.482 169.63 404.417 169.63C405.352 169.63 406.278 169.446 407.143 169.088C408.007 168.731 408.792 168.206 409.453 167.545C410.114 166.883 410.639 166.098 410.997 165.234C411.354 164.37 411.538 163.444 411.538 162.509C411.538 161.574 411.354 160.648 410.997 159.783C410.639 158.919 410.114 158.134 409.453 157.473C408.792 156.812 408.007 156.287 407.143 155.929C406.278 155.572 405.352 155.388 404.417 155.388ZM404.417 167.133C401.861 167.133 399.793 165.065 399.793 162.509C399.793 159.953 401.861 157.885 404.417 157.885C406.973 157.885 409.041 159.953 409.041 162.509C409.041 165.065 406.973 167.133 404.417 167.133ZM413.49 155.104C413.489 155.546 413.313 155.969 413.001 156.282C412.688 156.594 412.264 156.769 411.822 156.769C411.604 156.769 411.387 156.726 411.186 156.643C410.984 156.559 410.8 156.436 410.646 156.282C410.491 156.127 410.369 155.944 410.285 155.742C410.202 155.54 410.158 155.324 410.158 155.105C410.158 154.887 410.202 154.671 410.285 154.469C410.369 154.267 410.491 154.083 410.646 153.929C410.8 153.774 410.984 153.652 411.186 153.568C411.387 153.485 411.604 153.442 411.822 153.442C412.739 153.442 413.49 154.187 413.49 155.104Z" fill="#3E54D8"/>
</g>
<g clip-path="url(#clip2)">
<path d="M497.999 153.919C496.961 154.376 495.861 154.677 494.735 154.814C495.922 154.102 496.81 152.983 497.236 151.666C496.113 152.317 494.891 152.78 493.619 153.035C492.763 152.121 491.63 151.514 490.394 151.31C489.159 151.106 487.89 151.315 486.786 151.905C485.681 152.495 484.803 153.434 484.286 154.574C483.769 155.715 483.643 156.994 483.927 158.214C479.2 157.993 475.009 155.721 472.206 152.289C471.695 153.157 471.428 154.147 471.433 155.153C471.432 156.089 471.663 157.011 472.104 157.836C472.545 158.661 473.183 159.365 473.961 159.884C473.059 159.857 472.177 159.614 471.388 159.176V159.245C471.388 160.558 471.842 161.831 472.673 162.849C473.504 163.866 474.661 164.564 475.948 164.826C475.461 164.956 474.958 165.023 474.454 165.024C474.089 165.024 473.74 164.989 473.392 164.924C473.759 166.055 474.468 167.043 475.423 167.751C476.377 168.459 477.528 168.852 478.716 168.875C476.703 170.452 474.219 171.307 471.663 171.304C471.21 171.306 470.757 171.28 470.308 171.228C472.916 172.899 475.949 173.786 479.046 173.783C489.508 173.783 495.225 165.118 495.225 157.613C495.225 157.374 495.225 157.13 495.207 156.886C496.326 156.084 497.289 155.086 498.052 153.941L497.999 153.919Z" fill="#3E54D8"/>
</g>
<path d="M215.194 221.97C214.223 221.97 213.345 221.758 212.558 221.332C211.782 220.897 211.171 220.306 210.727 219.556C210.283 218.798 210.061 217.947 210.061 217.004C210.061 216.061 210.283 215.215 210.727 214.465C211.171 213.707 211.786 213.115 212.572 212.69C213.358 212.255 214.237 212.038 215.208 212.038C215.966 212.038 216.66 212.167 217.289 212.426C217.918 212.676 218.454 213.05 218.898 213.55L217.996 214.424C217.266 213.656 216.355 213.272 215.264 213.272C214.542 213.272 213.89 213.434 213.308 213.758C212.725 214.082 212.267 214.53 211.934 215.104C211.611 215.668 211.449 216.301 211.449 217.004C211.449 217.707 211.611 218.345 211.934 218.918C212.267 219.482 212.725 219.926 213.308 220.25C213.89 220.574 214.542 220.736 215.264 220.736C216.346 220.736 217.257 220.347 217.996 219.57L218.898 220.444C218.454 220.944 217.913 221.323 217.275 221.582C216.646 221.841 215.953 221.97 215.194 221.97ZM223.48 221.942C222.731 221.942 222.061 221.781 221.469 221.457C220.886 221.133 220.428 220.689 220.095 220.125C219.762 219.552 219.596 218.904 219.596 218.183C219.596 217.462 219.762 216.819 220.095 216.255C220.428 215.682 220.886 215.238 221.469 214.923C222.061 214.6 222.731 214.438 223.48 214.438C224.146 214.438 224.738 214.572 225.256 214.84C225.783 215.108 226.19 215.497 226.477 216.005L225.464 216.657C225.233 216.306 224.946 216.042 224.604 215.866C224.262 215.691 223.882 215.603 223.466 215.603C222.985 215.603 222.551 215.709 222.162 215.922C221.783 216.135 221.483 216.44 221.261 216.838C221.048 217.226 220.942 217.674 220.942 218.183C220.942 218.701 221.048 219.159 221.261 219.556C221.483 219.945 221.783 220.245 222.162 220.458C222.551 220.671 222.985 220.777 223.466 220.777C223.882 220.777 224.262 220.689 224.604 220.514C224.946 220.338 225.233 220.074 225.464 219.723L226.477 220.361C226.19 220.87 225.783 221.263 225.256 221.54C224.738 221.808 224.146 221.942 223.48 221.942ZM231.516 217.004C232.441 217.013 233.148 217.226 233.639 217.642C234.129 218.058 234.374 218.646 234.374 219.404C234.374 220.199 234.106 220.814 233.569 221.249C233.042 221.674 232.284 221.882 231.294 221.873L228.201 221.859V214.507H229.532V216.99L231.516 217.004ZM235.47 214.507H236.801V221.859H235.47V214.507ZM231.197 220.86C231.798 220.87 232.251 220.749 232.557 220.5C232.871 220.25 233.028 219.88 233.028 219.39C233.028 218.909 232.876 218.558 232.57 218.336C232.265 218.114 231.807 217.998 231.197 217.989L229.532 217.961V220.847L231.197 220.86ZM245.702 214.507V221.859H244.371V215.672H241.208L241.125 217.309C241.078 218.299 240.99 219.126 240.861 219.792C240.731 220.449 240.519 220.976 240.223 221.374C239.927 221.771 239.515 221.97 238.988 221.97C238.748 221.97 238.475 221.929 238.17 221.845L238.253 220.722C238.373 220.749 238.484 220.763 238.586 220.763C238.956 220.763 239.233 220.602 239.418 220.278C239.603 219.954 239.723 219.57 239.779 219.126C239.834 218.683 239.885 218.049 239.932 217.226L240.056 214.507H245.702ZM251.135 218.752H249.609V221.859H248.277V214.507H249.609V217.614H251.163L253.549 214.507H254.978L252.189 218.044L255.172 221.859H253.604L251.135 218.752ZM259.054 214.438C260.072 214.438 260.849 214.687 261.385 215.187C261.931 215.686 262.203 216.431 262.203 217.42V221.859H260.941V220.888C260.719 221.23 260.4 221.494 259.984 221.679C259.577 221.855 259.091 221.942 258.527 221.942C257.704 221.942 257.043 221.744 256.544 221.346C256.053 220.948 255.808 220.426 255.808 219.778C255.808 219.131 256.044 218.613 256.516 218.225C256.988 217.827 257.737 217.628 258.763 217.628H260.872V217.365C260.872 216.791 260.705 216.352 260.372 216.047C260.039 215.742 259.549 215.589 258.902 215.589C258.467 215.589 258.042 215.663 257.626 215.811C257.209 215.95 256.858 216.139 256.571 216.38L256.016 215.381C256.396 215.076 256.849 214.845 257.376 214.687C257.903 214.521 258.463 214.438 259.054 214.438ZM258.749 220.916C259.258 220.916 259.697 220.805 260.067 220.583C260.437 220.352 260.705 220.028 260.872 219.612V218.585H258.819C257.69 218.585 257.126 218.965 257.126 219.723C257.126 220.093 257.27 220.384 257.556 220.597C257.843 220.81 258.241 220.916 258.749 220.916ZM268.327 214.507H269.659V217.628H273.848V214.507H275.18V221.859H273.848V218.78H269.659V221.859H268.327V214.507ZM280.391 214.438C281.408 214.438 282.185 214.687 282.722 215.187C283.267 215.686 283.54 216.431 283.54 217.42V221.859H282.278V220.888C282.056 221.23 281.737 221.494 281.32 221.679C280.914 221.855 280.428 221.942 279.864 221.942C279.041 221.942 278.38 221.744 277.88 221.346C277.39 220.948 277.145 220.426 277.145 219.778C277.145 219.131 277.381 218.613 277.852 218.225C278.324 217.827 279.073 217.628 280.1 217.628H282.208V217.365C282.208 216.791 282.042 216.352 281.709 216.047C281.376 215.742 280.886 215.589 280.238 215.589C279.804 215.589 279.378 215.663 278.962 215.811C278.546 215.95 278.195 216.139 277.908 216.38L277.353 215.381C277.732 215.076 278.185 214.845 278.712 214.687C279.24 214.521 279.799 214.438 280.391 214.438ZM280.086 220.916C280.594 220.916 281.034 220.805 281.404 220.583C281.774 220.352 282.042 220.028 282.208 219.612V218.585H280.155C279.027 218.585 278.463 218.965 278.463 219.723C278.463 220.093 278.606 220.384 278.893 220.597C279.179 220.81 279.577 220.916 280.086 220.916ZM296.475 214.507V221.859H295.143V215.672H290.995V221.859H289.663V214.507H296.475ZM302.2 221.942C301.47 221.942 300.813 221.781 300.231 221.457C299.648 221.133 299.19 220.689 298.857 220.125C298.534 219.552 298.372 218.904 298.372 218.183C298.372 217.462 298.534 216.819 298.857 216.255C299.19 215.682 299.648 215.238 300.231 214.923C300.813 214.6 301.47 214.438 302.2 214.438C302.931 214.438 303.583 214.6 304.156 214.923C304.739 215.238 305.192 215.682 305.516 216.255C305.849 216.819 306.015 217.462 306.015 218.183C306.015 218.904 305.849 219.552 305.516 220.125C305.192 220.689 304.739 221.133 304.156 221.457C303.583 221.781 302.931 221.942 302.2 221.942ZM302.2 220.777C302.672 220.777 303.093 220.671 303.463 220.458C303.842 220.236 304.138 219.931 304.351 219.543C304.563 219.145 304.67 218.692 304.67 218.183C304.67 217.674 304.563 217.226 304.351 216.838C304.138 216.44 303.842 216.135 303.463 215.922C303.093 215.709 302.672 215.603 302.2 215.603C301.729 215.603 301.303 215.709 300.924 215.922C300.554 216.135 300.258 216.44 300.036 216.838C299.824 217.226 299.717 217.674 299.717 218.183C299.717 218.692 299.824 219.145 300.036 219.543C300.258 219.931 300.554 220.236 300.924 220.458C301.303 220.671 301.729 220.777 302.2 220.777ZM311.836 214.438C312.548 214.438 313.187 214.595 313.751 214.909C314.315 215.224 314.754 215.663 315.069 216.227C315.392 216.791 315.554 217.443 315.554 218.183C315.554 218.923 315.392 219.58 315.069 220.153C314.754 220.717 314.315 221.156 313.751 221.471C313.187 221.785 312.548 221.942 311.836 221.942C311.309 221.942 310.824 221.841 310.38 221.637C309.945 221.434 309.575 221.138 309.27 220.749V224.55H307.938V214.507H309.215V215.672C309.51 215.265 309.885 214.96 310.338 214.757C310.791 214.544 311.291 214.438 311.836 214.438ZM311.725 220.777C312.197 220.777 312.618 220.671 312.988 220.458C313.367 220.236 313.663 219.931 313.876 219.543C314.098 219.145 314.209 218.692 314.209 218.183C314.209 217.674 314.098 217.226 313.876 216.838C313.663 216.44 313.367 216.135 312.988 215.922C312.618 215.709 312.197 215.603 311.725 215.603C311.263 215.603 310.842 215.714 310.463 215.936C310.093 216.149 309.797 216.449 309.575 216.838C309.363 217.226 309.256 217.674 309.256 218.183C309.256 218.692 309.363 219.145 309.575 219.543C309.788 219.931 310.084 220.236 310.463 220.458C310.842 220.671 311.263 220.777 311.725 220.777ZM322.697 215.672H320.006V221.859H318.675V215.672H315.983V214.507H322.697V215.672ZM333.015 218.169C333.015 219.307 332.635 220.204 331.877 220.86C331.119 221.517 330.051 221.882 328.673 221.956V224.55H327.369V221.956C325.991 221.882 324.922 221.522 324.164 220.874C323.415 220.218 323.041 219.316 323.041 218.169C323.041 217.032 323.415 216.144 324.164 215.506C324.913 214.868 325.981 214.512 327.369 214.438V211.566H328.673V214.438C330.051 214.512 331.119 214.872 331.877 215.52C332.635 216.158 333.015 217.041 333.015 218.169ZM324.358 218.169C324.358 218.955 324.608 219.57 325.107 220.014C325.616 220.458 326.37 220.712 327.369 220.777V215.617C326.361 215.682 325.607 215.931 325.107 216.366C324.608 216.801 324.358 217.402 324.358 218.169ZM328.673 220.791C330.689 220.634 331.697 219.76 331.697 218.169C331.697 217.392 331.442 216.791 330.934 216.366C330.425 215.931 329.671 215.682 328.673 215.617V220.791ZM341.542 218.225C341.542 218.326 341.532 218.461 341.514 218.627H335.549C335.632 219.274 335.914 219.797 336.395 220.195C336.885 220.583 337.491 220.777 338.212 220.777C339.091 220.777 339.798 220.481 340.335 219.889L341.07 220.749C340.737 221.138 340.321 221.434 339.821 221.637C339.331 221.841 338.781 221.942 338.171 221.942C337.394 221.942 336.705 221.785 336.104 221.471C335.503 221.147 335.036 220.699 334.703 220.125C334.379 219.552 334.217 218.904 334.217 218.183C334.217 217.471 334.374 216.828 334.689 216.255C335.012 215.682 335.452 215.238 336.007 214.923C336.571 214.6 337.204 214.438 337.907 214.438C338.61 214.438 339.234 214.6 339.78 214.923C340.335 215.238 340.765 215.682 341.07 216.255C341.384 216.828 341.542 217.485 341.542 218.225ZM337.907 215.561C337.269 215.561 336.733 215.756 336.298 216.144C335.873 216.532 335.623 217.041 335.549 217.67H340.265C340.191 217.05 339.937 216.546 339.502 216.158C339.077 215.76 338.545 215.561 337.907 215.561ZM349.797 214.507V221.859H348.466V215.672H345.303L345.22 217.309C345.173 218.299 345.086 219.126 344.956 219.792C344.827 220.449 344.614 220.976 344.318 221.374C344.022 221.771 343.61 221.97 343.083 221.97C342.843 221.97 342.57 221.929 342.265 221.845L342.348 220.722C342.468 220.749 342.579 220.763 342.681 220.763C343.051 220.763 343.328 220.602 343.513 220.278C343.698 219.954 343.819 219.57 343.874 219.126C343.93 218.683 343.98 218.049 344.027 217.226L344.151 214.507H349.797ZM355.771 217.004C356.705 217.013 357.417 217.226 357.907 217.642C358.398 218.058 358.643 218.646 358.643 219.404C358.643 220.199 358.374 220.814 357.838 221.249C357.311 221.674 356.553 221.882 355.563 221.873L352.372 221.859V214.507H353.704V216.99L355.771 217.004ZM355.452 220.86C356.053 220.87 356.506 220.749 356.812 220.5C357.126 220.25 357.283 219.88 357.283 219.39C357.283 218.909 357.131 218.558 356.825 218.336C356.529 218.114 356.072 217.998 355.452 217.989L353.704 217.961V220.847L355.452 220.86Z" fill="#929398"/>
<path d="M215.926 328.892C214.834 328.892 213.845 328.653 212.961 328.174C212.087 327.685 211.4 327.019 210.901 326.177C210.401 325.323 210.152 324.366 210.152 323.305C210.152 322.244 210.401 321.292 210.901 320.449C211.4 319.596 212.092 318.93 212.976 318.452C213.861 317.963 214.849 317.718 215.942 317.718C216.795 317.718 217.575 317.864 218.282 318.155C218.99 318.436 219.593 318.857 220.093 319.419L219.078 320.402C218.256 319.539 217.232 319.107 216.004 319.107C215.192 319.107 214.459 319.289 213.804 319.653C213.148 320.017 212.633 320.522 212.258 321.167C211.894 321.802 211.712 322.514 211.712 323.305C211.712 324.096 211.894 324.814 212.258 325.459C212.633 326.093 213.148 326.593 213.804 326.957C214.459 327.321 215.192 327.503 216.004 327.503C217.221 327.503 218.246 327.066 219.078 326.192L220.093 327.175C219.593 327.737 218.985 328.164 218.267 328.455C217.559 328.746 216.779 328.892 215.926 328.892ZM225.248 328.861C224.405 328.861 223.651 328.679 222.985 328.315C222.329 327.95 221.814 327.451 221.44 326.816C221.065 326.171 220.878 325.443 220.878 324.632C220.878 323.82 221.065 323.097 221.44 322.462C221.814 321.817 222.329 321.318 222.985 320.964C223.651 320.6 224.405 320.418 225.248 320.418C225.997 320.418 226.663 320.569 227.245 320.871C227.838 321.172 228.296 321.609 228.619 322.181L227.479 322.915C227.219 322.52 226.897 322.223 226.512 322.025C226.127 321.828 225.7 321.729 225.232 321.729C224.691 321.729 224.202 321.848 223.765 322.088C223.339 322.327 223 322.67 222.751 323.118C222.511 323.555 222.392 324.059 222.392 324.632C222.392 325.214 222.511 325.729 222.751 326.177C223 326.614 223.339 326.952 223.765 327.191C224.202 327.43 224.691 327.55 225.232 327.55C225.7 327.55 226.127 327.451 226.512 327.253C226.897 327.056 227.219 326.759 227.479 326.364L228.619 327.082C228.296 327.654 227.838 328.096 227.245 328.408C226.663 328.71 225.997 328.861 225.248 328.861ZM234.288 323.305C235.329 323.315 236.124 323.555 236.676 324.023C237.227 324.491 237.503 325.152 237.503 326.005C237.503 326.9 237.201 327.592 236.598 328.081C236.005 328.559 235.152 328.793 234.038 328.783L230.558 328.767V320.496H232.056V323.289L234.288 323.305ZM238.736 320.496H240.234V328.767H238.736V320.496ZM233.929 327.644C234.605 327.654 235.115 327.519 235.459 327.238C235.812 326.957 235.989 326.541 235.989 325.989C235.989 325.448 235.818 325.053 235.474 324.803C235.131 324.554 234.616 324.424 233.929 324.413L232.056 324.382V327.628L233.929 327.644ZM250.248 320.496V328.767H248.749V321.807H245.191L245.098 323.648C245.046 324.762 244.947 325.693 244.801 326.442C244.655 327.181 244.416 327.774 244.083 328.221C243.75 328.668 243.287 328.892 242.694 328.892C242.424 328.892 242.117 328.845 241.773 328.752L241.867 327.488C242.002 327.519 242.127 327.534 242.242 327.534C242.658 327.534 242.97 327.352 243.178 326.988C243.386 326.624 243.521 326.192 243.584 325.693C243.646 325.193 243.703 324.481 243.755 323.555L243.896 320.496H250.248ZM256.359 325.271H254.643V328.767H253.145V320.496H254.643V323.992H256.391L259.075 320.496H260.682L257.545 324.476L260.901 328.767H259.137L256.359 325.271ZM265.269 320.418C266.413 320.418 267.287 320.699 267.891 321.261C268.504 321.822 268.811 322.66 268.811 323.773V328.767H267.391V327.675C267.142 328.06 266.783 328.356 266.314 328.564C265.857 328.762 265.31 328.861 264.676 328.861C263.75 328.861 263.006 328.637 262.444 328.19C261.893 327.742 261.617 327.155 261.617 326.426C261.617 325.698 261.882 325.115 262.413 324.678C262.943 324.231 263.786 324.007 264.941 324.007H267.313V323.711C267.313 323.066 267.126 322.572 266.751 322.228C266.377 321.885 265.825 321.713 265.097 321.713C264.608 321.713 264.13 321.796 263.661 321.963C263.193 322.119 262.798 322.332 262.475 322.603L261.851 321.479C262.278 321.136 262.787 320.876 263.38 320.699C263.973 320.512 264.603 320.418 265.269 320.418ZM264.925 327.706C265.498 327.706 265.992 327.581 266.408 327.331C266.824 327.071 267.126 326.707 267.313 326.239V325.084H265.003C263.734 325.084 263.1 325.511 263.1 326.364C263.1 326.78 263.261 327.108 263.583 327.347C263.906 327.586 264.353 327.706 264.925 327.706ZM284.112 327.456V330.687H282.707V328.767H275.794V330.687H274.374V327.456H274.811C275.341 327.425 275.705 327.051 275.903 326.333C276.101 325.615 276.236 324.6 276.309 323.289L276.434 320.496H282.848V327.456H284.112ZM277.682 323.399C277.641 324.439 277.552 325.303 277.417 325.989C277.292 326.666 277.058 327.155 276.715 327.456H281.35V321.807H277.76L277.682 323.399ZM289.606 328.861C288.784 328.861 288.046 328.679 287.39 328.315C286.735 327.95 286.22 327.451 285.845 326.816C285.481 326.171 285.299 325.443 285.299 324.632C285.299 323.82 285.481 323.097 285.845 322.462C286.22 321.817 286.735 321.318 287.39 320.964C288.046 320.6 288.784 320.418 289.606 320.418C290.428 320.418 291.162 320.6 291.807 320.964C292.462 321.318 292.972 321.817 293.336 322.462C293.711 323.097 293.898 323.82 293.898 324.632C293.898 325.443 293.711 326.171 293.336 326.816C292.972 327.451 292.462 327.95 291.807 328.315C291.162 328.679 290.428 328.861 289.606 328.861ZM289.606 327.55C290.137 327.55 290.61 327.43 291.026 327.191C291.453 326.941 291.786 326.598 292.025 326.161C292.265 325.714 292.384 325.204 292.384 324.632C292.384 324.059 292.265 323.555 292.025 323.118C291.786 322.67 291.453 322.327 291.026 322.088C290.61 321.848 290.137 321.729 289.606 321.729C289.076 321.729 288.597 321.848 288.171 322.088C287.754 322.327 287.421 322.67 287.172 323.118C286.932 323.555 286.813 324.059 286.813 324.632C286.813 325.204 286.932 325.714 287.172 326.161C287.421 326.598 287.754 326.941 288.171 327.191C288.597 327.43 289.076 327.55 289.606 327.55ZM299.666 328.861C298.824 328.861 298.069 328.679 297.404 328.315C296.748 327.95 296.233 327.451 295.859 326.816C295.484 326.171 295.297 325.443 295.297 324.632C295.297 323.82 295.484 323.097 295.859 322.462C296.233 321.817 296.748 321.318 297.404 320.964C298.069 320.6 298.824 320.418 299.666 320.418C300.415 320.418 301.081 320.569 301.664 320.871C302.257 321.172 302.715 321.609 303.037 322.181L301.898 322.915C301.638 322.52 301.315 322.223 300.931 322.025C300.546 321.828 300.119 321.729 299.651 321.729C299.11 321.729 298.621 321.848 298.184 322.088C297.757 322.327 297.419 322.67 297.169 323.118C296.93 323.555 296.81 324.059 296.81 324.632C296.81 325.214 296.93 325.729 297.169 326.177C297.419 326.614 297.757 326.952 298.184 327.191C298.621 327.43 299.11 327.55 299.651 327.55C300.119 327.55 300.546 327.451 300.931 327.253C301.315 327.056 301.638 326.759 301.898 326.364L303.037 327.082C302.715 327.654 302.257 328.096 301.664 328.408C301.081 328.71 300.415 328.861 299.666 328.861ZM311.035 321.807H308.007V328.767H306.509V321.807H303.481V320.496H311.035V321.807ZM319.994 320.496L315.983 329.594C315.63 330.437 315.213 331.03 314.735 331.373C314.267 331.717 313.7 331.888 313.034 331.888C312.628 331.888 312.233 331.821 311.848 331.686C311.473 331.561 311.161 331.373 310.911 331.124L311.551 330C311.978 330.406 312.472 330.609 313.034 330.609C313.398 330.609 313.7 330.51 313.939 330.312C314.189 330.125 314.412 329.797 314.61 329.329L314.875 328.752L311.223 320.496H312.784L315.671 327.113L318.527 320.496H319.994ZM329.191 320.496V328.767H327.692V321.807H323.026V328.767H321.528V320.496H329.191ZM332.09 320.496H333.588V324.007H338.301V320.496H339.799V328.767H338.301V325.303H333.588V328.767H332.09V320.496ZM345.662 320.418C346.806 320.418 347.68 320.699 348.284 321.261C348.897 321.822 349.204 322.66 349.204 323.773V328.767H347.784V327.675C347.534 328.06 347.176 328.356 346.707 328.564C346.25 328.762 345.703 328.861 345.069 328.861C344.143 328.861 343.399 328.637 342.837 328.19C342.286 327.742 342.01 327.155 342.01 326.426C342.01 325.698 342.275 325.115 342.806 324.678C343.336 324.231 344.179 324.007 345.334 324.007H347.706V323.711C347.706 323.066 347.519 322.572 347.144 322.228C346.77 321.885 346.218 321.713 345.49 321.713C345.001 321.713 344.522 321.796 344.054 321.963C343.586 322.119 343.191 322.332 342.868 322.603L342.244 321.479C342.671 321.136 343.18 320.876 343.773 320.699C344.366 320.512 344.996 320.418 345.662 320.418ZM345.318 327.706C345.891 327.706 346.385 327.581 346.801 327.331C347.217 327.071 347.519 326.707 347.706 326.239V325.084H345.396C344.127 325.084 343.492 325.511 343.492 326.364C343.492 326.78 343.654 327.108 343.976 327.347C344.299 327.586 344.746 327.706 345.318 327.706ZM364.505 327.456V330.687H363.1V328.767H356.187V330.687H354.767V327.456H355.204C355.734 327.425 356.098 327.051 356.296 326.333C356.494 325.615 356.629 324.6 356.702 323.289L356.827 320.496H363.241V327.456H364.505ZM358.075 323.399C358.034 324.439 357.945 325.303 357.81 325.989C357.685 326.666 357.451 327.155 357.108 327.456H361.743V321.807H358.153L358.075 323.399ZM373.557 320.496V328.767H372.059V321.807H368.501L368.407 323.648C368.355 324.762 368.257 325.693 368.111 326.442C367.965 327.181 367.726 327.774 367.393 328.221C367.06 328.668 366.597 328.892 366.004 328.892C365.734 328.892 365.427 328.845 365.083 328.752L365.177 327.488C365.312 327.519 365.437 327.534 365.551 327.534C365.968 327.534 366.28 327.352 366.488 326.988C366.696 326.624 366.831 326.192 366.894 325.693C366.956 325.193 367.013 324.481 367.065 323.555L367.206 320.496H373.557ZM383.087 320.496V328.767H381.745V326.145H379.341H379.17L377.359 328.767H375.752L377.765 325.943C377.141 325.755 376.662 325.448 376.329 325.022C375.997 324.585 375.83 324.044 375.83 323.399C375.83 322.452 376.153 321.734 376.798 321.245C377.443 320.746 378.332 320.496 379.466 320.496H383.087ZM377.359 323.446C377.359 323.997 377.531 324.408 377.874 324.678C378.228 324.939 378.754 325.069 379.451 325.069H381.745V321.807H379.513C378.077 321.807 377.359 322.353 377.359 323.446ZM395.835 324.476C396.907 324.746 397.442 325.417 397.442 326.489C397.442 327.217 397.167 327.779 396.615 328.174C396.074 328.57 395.263 328.767 394.181 328.767H390.201V320.496H394.04C395.018 320.496 395.783 320.683 396.334 321.058C396.886 321.422 397.161 321.942 397.161 322.618C397.161 323.055 397.042 323.435 396.803 323.758C396.574 324.07 396.251 324.309 395.835 324.476ZM391.668 324.054H393.915C394.488 324.054 394.919 323.95 395.211 323.742C395.512 323.534 395.663 323.232 395.663 322.837C395.663 322.046 395.081 321.651 393.915 321.651H391.668V324.054ZM394.071 327.612C394.696 327.612 395.164 327.514 395.476 327.316C395.788 327.118 395.944 326.811 395.944 326.395C395.944 325.969 395.799 325.651 395.507 325.443C395.226 325.235 394.779 325.131 394.165 325.131H391.668V327.612H394.071ZM403.392 328.861C402.55 328.861 401.795 328.679 401.129 328.315C400.474 327.95 399.959 327.451 399.584 326.816C399.21 326.171 399.023 325.443 399.023 324.632C399.023 323.82 399.21 323.097 399.584 322.462C399.959 321.817 400.474 321.318 401.129 320.964C401.795 320.6 402.55 320.418 403.392 320.418C404.141 320.418 404.807 320.569 405.39 320.871C405.983 321.172 406.441 321.609 406.763 322.181L405.624 322.915C405.364 322.52 405.041 322.223 404.656 322.025C404.272 321.828 403.845 321.729 403.377 321.729C402.836 321.729 402.347 321.848 401.91 322.088C401.483 322.327 401.145 322.67 400.895 323.118C400.656 323.555 400.536 324.059 400.536 324.632C400.536 325.214 400.656 325.729 400.895 326.177C401.145 326.614 401.483 326.952 401.91 327.191C402.347 327.43 402.836 327.55 403.377 327.55C403.845 327.55 404.272 327.451 404.656 327.253C405.041 327.056 405.364 326.759 405.624 326.364L406.763 327.082C406.441 327.654 405.983 328.096 405.39 328.408C404.807 328.71 404.141 328.861 403.392 328.861ZM416.056 324.678C416.056 324.793 416.046 324.944 416.025 325.131H409.315C409.408 325.859 409.725 326.447 410.267 326.894C410.818 327.331 411.499 327.55 412.311 327.55C413.299 327.55 414.095 327.217 414.699 326.551L415.526 327.519C415.151 327.956 414.683 328.289 414.121 328.518C413.57 328.746 412.951 328.861 412.264 328.861C411.39 328.861 410.615 328.684 409.939 328.33C409.263 327.966 408.737 327.461 408.363 326.816C407.998 326.171 407.816 325.443 407.816 324.632C407.816 323.83 407.993 323.107 408.347 322.462C408.711 321.817 409.205 321.318 409.83 320.964C410.464 320.6 411.177 320.418 411.968 320.418C412.758 320.418 413.461 320.6 414.074 320.964C414.699 321.318 415.182 321.817 415.526 322.462C415.88 323.107 416.056 323.846 416.056 324.678ZM411.968 321.682C411.25 321.682 410.646 321.901 410.157 322.337C409.679 322.774 409.398 323.347 409.315 324.054H414.621C414.537 323.357 414.251 322.79 413.762 322.353C413.284 321.906 412.685 321.682 411.968 321.682ZM423.318 328.767L420.93 325.599L418.511 328.767H416.841L420.103 324.538L416.997 320.496H418.667L420.945 323.477L423.208 320.496H424.847L421.726 324.538L425.019 328.767H423.318Z" fill="#373943"/>
<rect x="209.774" y="235.771" width="247.964" height="47.6854" rx="8.23657" fill="#FCFDFF"/>
<path d="M228.401 256.921C229.335 256.921 230.074 257.194 230.62 257.739C231.175 258.276 231.452 259.066 231.452 260.112V264.343H230.121V260.264C230.121 259.552 229.95 259.016 229.607 258.655C229.265 258.294 228.775 258.114 228.137 258.114C227.416 258.114 226.847 258.327 226.431 258.752C226.015 259.168 225.806 259.769 225.806 260.555V264.343H224.475V254.049H225.806V258.031C226.084 257.679 226.445 257.406 226.888 257.212C227.342 257.018 227.846 256.921 228.401 256.921ZM238.051 263.912C237.857 264.079 237.616 264.208 237.33 264.301C237.043 264.384 236.747 264.426 236.442 264.426C235.702 264.426 235.128 264.227 234.722 263.829C234.315 263.432 234.111 262.863 234.111 262.123V258.086H232.863V256.99H234.111V255.381H235.443V256.99H237.551V258.086H235.443V262.068C235.443 262.465 235.54 262.77 235.734 262.983C235.938 263.196 236.224 263.302 236.594 263.302C237.001 263.302 237.348 263.187 237.635 262.955L238.051 263.912ZM243.619 263.912C243.424 264.079 243.184 264.208 242.897 264.301C242.611 264.384 242.315 264.426 242.01 264.426C241.27 264.426 240.696 264.227 240.289 263.829C239.882 263.432 239.679 262.863 239.679 262.123V258.086H238.43V256.99H239.679V255.381H241.011V256.99H243.119V258.086H241.011V262.068C241.011 262.465 241.108 262.77 241.302 262.983C241.505 263.196 241.792 263.302 242.162 263.302C242.569 263.302 242.916 263.187 243.203 262.955L243.619 263.912ZM249.127 256.921C249.839 256.921 250.477 257.078 251.041 257.393C251.605 257.707 252.045 258.146 252.359 258.71C252.683 259.275 252.844 259.927 252.844 260.666C252.844 261.406 252.683 262.063 252.359 262.636C252.045 263.2 251.605 263.64 251.041 263.954C250.477 264.269 249.839 264.426 249.127 264.426C248.6 264.426 248.114 264.324 247.67 264.121C247.236 263.917 246.866 263.621 246.56 263.233V267.034H245.229V256.99H246.505V258.156C246.801 257.749 247.175 257.443 247.629 257.24C248.082 257.027 248.581 256.921 249.127 256.921ZM249.016 263.261C249.487 263.261 249.908 263.154 250.278 262.941C250.657 262.719 250.953 262.414 251.166 262.026C251.388 261.628 251.499 261.175 251.499 260.666C251.499 260.158 251.388 259.709 251.166 259.321C250.953 258.923 250.657 258.618 250.278 258.405C249.908 258.193 249.487 258.086 249.016 258.086C248.553 258.086 248.133 258.197 247.753 258.419C247.384 258.632 247.088 258.932 246.866 259.321C246.653 259.709 246.547 260.158 246.547 260.666C246.547 261.175 246.653 261.628 246.866 262.026C247.078 262.414 247.374 262.719 247.753 262.941C248.133 263.154 248.553 263.261 249.016 263.261ZM256.793 264.426C256.192 264.426 255.614 264.347 255.059 264.19C254.504 264.023 254.07 263.815 253.755 263.566L254.31 262.511C254.634 262.743 255.027 262.928 255.489 263.066C255.951 263.205 256.419 263.274 256.89 263.274C258.055 263.274 258.638 262.941 258.638 262.276C258.638 262.054 258.559 261.878 258.402 261.748C258.245 261.619 258.046 261.526 257.806 261.471C257.575 261.406 257.242 261.337 256.807 261.263C256.215 261.17 255.73 261.064 255.35 260.944C254.98 260.824 254.661 260.62 254.393 260.333C254.125 260.047 253.991 259.645 253.991 259.127C253.991 258.461 254.268 257.929 254.823 257.531C255.378 257.124 256.123 256.921 257.057 256.921C257.547 256.921 258.037 256.981 258.527 257.101C259.017 257.222 259.42 257.383 259.734 257.587L259.165 258.641C258.564 258.253 257.857 258.058 257.043 258.058C256.479 258.058 256.049 258.151 255.753 258.336C255.457 258.521 255.309 258.766 255.309 259.071C255.309 259.312 255.392 259.501 255.558 259.64C255.725 259.779 255.928 259.88 256.169 259.945C256.419 260.01 256.765 260.084 257.209 260.167C257.801 260.269 258.277 260.38 258.638 260.5C259.008 260.611 259.322 260.805 259.581 261.083C259.84 261.36 259.97 261.748 259.97 262.248C259.97 262.914 259.683 263.445 259.11 263.843C258.546 264.232 257.773 264.426 256.793 264.426ZM261.953 258.821C261.694 258.821 261.472 258.734 261.287 258.558C261.102 258.373 261.01 258.142 261.01 257.864C261.01 257.596 261.102 257.374 261.287 257.198C261.472 257.013 261.694 256.921 261.953 256.921C262.212 256.921 262.429 257.009 262.605 257.185C262.781 257.36 262.869 257.587 262.869 257.864C262.869 258.142 262.776 258.373 262.591 258.558C262.416 258.734 262.203 258.821 261.953 258.821ZM261.953 264.426C261.694 264.426 261.472 264.338 261.287 264.162C261.102 263.977 261.01 263.746 261.01 263.469C261.01 263.2 261.102 262.978 261.287 262.803C261.472 262.618 261.694 262.525 261.953 262.525C262.212 262.525 262.429 262.613 262.605 262.789C262.781 262.965 262.869 263.191 262.869 263.469C262.869 263.746 262.776 263.977 262.591 264.162C262.416 264.338 262.203 264.426 261.953 264.426ZM268.368 252.662H269.575L264.997 265.73H263.79L268.368 252.662ZM272.296 252.662H273.503L268.926 265.73H267.719L272.296 252.662ZM278.144 256.921C278.857 256.921 279.495 257.078 280.059 257.393C280.623 257.707 281.062 258.146 281.377 258.71C281.7 259.275 281.862 259.927 281.862 260.666C281.862 261.406 281.7 262.063 281.377 262.636C281.062 263.2 280.623 263.64 280.059 263.954C279.495 264.269 278.857 264.426 278.144 264.426C277.599 264.426 277.099 264.319 276.646 264.107C276.193 263.894 275.819 263.584 275.523 263.177V264.343H274.246V254.049H275.578V258.1C275.874 257.712 276.244 257.42 276.688 257.226C277.132 257.023 277.617 256.921 278.144 256.921ZM278.033 263.261C278.505 263.261 278.926 263.154 279.296 262.941C279.675 262.719 279.971 262.414 280.184 262.026C280.406 261.628 280.517 261.175 280.517 260.666C280.517 260.158 280.406 259.709 280.184 259.321C279.971 258.923 279.675 258.618 279.296 258.405C278.926 258.193 278.505 258.086 278.033 258.086C277.571 258.086 277.15 258.193 276.771 258.405C276.392 258.618 276.096 258.923 275.883 259.321C275.671 259.709 275.564 260.158 275.564 260.666C275.564 261.175 275.671 261.628 275.883 262.026C276.096 262.414 276.392 262.719 276.771 262.941C277.15 263.154 277.571 263.261 278.033 263.261ZM290.347 260.708C290.347 260.81 290.338 260.944 290.319 261.11H284.354C284.437 261.758 284.719 262.28 285.2 262.678C285.691 263.066 286.296 263.261 287.018 263.261C287.896 263.261 288.604 262.965 289.14 262.373L289.875 263.233C289.542 263.621 289.126 263.917 288.627 264.121C288.137 264.324 287.586 264.426 286.976 264.426C286.199 264.426 285.51 264.269 284.909 263.954C284.308 263.63 283.841 263.182 283.508 262.609C283.184 262.035 283.022 261.388 283.022 260.666C283.022 259.954 283.18 259.312 283.494 258.738C283.818 258.165 284.257 257.721 284.812 257.406C285.376 257.083 286.01 256.921 286.712 256.921C287.415 256.921 288.04 257.083 288.585 257.406C289.14 257.721 289.57 258.165 289.875 258.738C290.19 259.312 290.347 259.968 290.347 260.708ZM286.712 258.045C286.074 258.045 285.538 258.239 285.103 258.627C284.678 259.016 284.428 259.524 284.354 260.153H289.071C288.997 259.534 288.742 259.03 288.308 258.641C287.882 258.243 287.351 258.045 286.712 258.045ZM294.67 256.921C295.688 256.921 296.464 257.171 297.001 257.67C297.546 258.169 297.819 258.914 297.819 259.903V264.343H296.557V263.371C296.335 263.714 296.016 263.977 295.6 264.162C295.193 264.338 294.707 264.426 294.143 264.426C293.32 264.426 292.659 264.227 292.159 263.829C291.669 263.432 291.424 262.909 291.424 262.262C291.424 261.614 291.66 261.096 292.132 260.708C292.603 260.31 293.352 260.112 294.379 260.112H296.487V259.848C296.487 259.275 296.321 258.835 295.988 258.53C295.655 258.225 295.165 258.072 294.518 258.072C294.083 258.072 293.658 258.146 293.241 258.294C292.825 258.433 292.474 258.623 292.187 258.863L291.632 257.864C292.011 257.559 292.465 257.328 292.992 257.171C293.519 257.004 294.078 256.921 294.67 256.921ZM294.365 263.399C294.874 263.399 295.313 263.288 295.683 263.066C296.053 262.835 296.321 262.511 296.487 262.095V261.069H294.434C293.306 261.069 292.742 261.448 292.742 262.206C292.742 262.576 292.885 262.867 293.172 263.08C293.459 263.293 293.856 263.399 294.365 263.399ZM304.418 263.912C304.223 264.079 303.983 264.208 303.696 264.301C303.41 264.384 303.114 264.426 302.808 264.426C302.069 264.426 301.495 264.227 301.088 263.829C300.681 263.432 300.478 262.863 300.478 262.123V258.086H299.229V256.99H300.478V255.381H301.81V256.99H303.918V258.086H301.81V262.068C301.81 262.465 301.907 262.77 302.101 262.983C302.304 263.196 302.591 263.302 302.961 263.302C303.368 263.302 303.715 263.187 304.001 262.955L304.418 263.912ZM315.225 256.921C316.15 256.921 316.88 257.189 317.417 257.726C317.962 258.262 318.235 259.057 318.235 260.112V264.343H316.903V260.264C316.903 259.552 316.737 259.016 316.404 258.655C316.08 258.294 315.613 258.114 315.003 258.114C314.328 258.114 313.791 258.327 313.394 258.752C312.996 259.168 312.797 259.769 312.797 260.555V264.343H311.465V260.264C311.465 259.552 311.299 259.016 310.966 258.655C310.642 258.294 310.175 258.114 309.565 258.114C308.89 258.114 308.354 258.327 307.956 258.752C307.558 259.168 307.359 259.769 307.359 260.555V264.343H306.028V256.99H307.304V258.086C307.572 257.707 307.923 257.42 308.358 257.226C308.793 257.023 309.288 256.921 309.842 256.921C310.416 256.921 310.924 257.037 311.368 257.268C311.812 257.499 312.154 257.837 312.395 258.28C312.672 257.855 313.056 257.522 313.546 257.282C314.046 257.041 314.605 256.921 315.225 256.921ZM323.363 256.921C324.38 256.921 325.157 257.171 325.693 257.67C326.239 258.169 326.512 258.914 326.512 259.903V264.343H325.249V263.371C325.027 263.714 324.708 263.977 324.292 264.162C323.885 264.338 323.4 264.426 322.836 264.426C322.013 264.426 321.351 264.227 320.852 263.829C320.362 263.432 320.117 262.909 320.117 262.262C320.117 261.614 320.353 261.096 320.824 260.708C321.296 260.31 322.045 260.112 323.071 260.112H325.18V259.848C325.18 259.275 325.014 258.835 324.681 258.53C324.348 258.225 323.858 258.072 323.21 258.072C322.776 258.072 322.35 258.146 321.934 258.294C321.518 258.433 321.166 258.623 320.88 258.863L320.325 257.864C320.704 257.559 321.157 257.328 321.684 257.171C322.211 257.004 322.771 256.921 323.363 256.921ZM323.058 263.399C323.566 263.399 324.006 263.288 324.375 263.066C324.745 262.835 325.014 262.511 325.18 262.095V261.069H323.127C321.999 261.069 321.435 261.448 321.435 262.206C321.435 262.576 321.578 262.867 321.865 263.08C322.151 263.293 322.549 263.399 323.058 263.399ZM330.252 258.225C330.484 257.8 330.826 257.476 331.279 257.254C331.732 257.032 332.282 256.921 332.93 256.921V258.211C332.856 258.202 332.754 258.197 332.625 258.197C331.903 258.197 331.334 258.415 330.918 258.849C330.511 259.275 330.308 259.885 330.308 260.68V264.343H328.976V256.99H330.252V258.225ZM337.429 260.916L335.903 262.331V264.343H334.571V254.049H335.903V260.653L339.912 256.99H341.521L338.428 260.028L341.826 264.343H340.189L337.429 260.916ZM349.452 260.708C349.452 260.81 349.443 260.944 349.425 261.11H343.46C343.543 261.758 343.825 262.28 344.306 262.678C344.796 263.066 345.402 263.261 346.123 263.261C347.002 263.261 347.709 262.965 348.246 262.373L348.981 263.233C348.648 263.621 348.232 263.917 347.732 264.121C347.242 264.324 346.692 264.426 346.082 264.426C345.305 264.426 344.616 264.269 344.015 263.954C343.413 263.63 342.946 263.182 342.613 262.609C342.29 262.035 342.128 261.388 342.128 260.666C342.128 259.954 342.285 259.312 342.6 258.738C342.923 258.165 343.363 257.721 343.917 257.406C344.482 257.083 345.115 256.921 345.818 256.921C346.521 256.921 347.145 257.083 347.691 257.406C348.246 257.721 348.676 258.165 348.981 258.738C349.295 259.312 349.452 259.968 349.452 260.708ZM345.818 258.045C345.18 258.045 344.643 258.239 344.209 258.627C343.783 259.016 343.534 259.524 343.46 260.153H348.176C348.102 259.534 347.848 259.03 347.413 258.641C346.988 258.243 346.456 258.045 345.818 258.045ZM355.436 263.912C355.241 264.079 355.001 264.208 354.714 264.301C354.428 264.384 354.132 264.426 353.826 264.426C353.087 264.426 352.513 264.227 352.106 263.829C351.699 263.432 351.496 262.863 351.496 262.123V258.086H350.247V256.99H351.496V255.381H352.828V256.99H354.936V258.086H352.828V262.068C352.828 262.465 352.925 262.77 353.119 262.983C353.322 263.196 353.609 263.302 353.979 263.302C354.386 263.302 354.733 263.187 355.019 262.955L355.436 263.912ZM357.5 264.426C357.241 264.426 357.019 264.338 356.834 264.162C356.649 263.977 356.557 263.746 356.557 263.469C356.557 263.2 356.649 262.978 356.834 262.803C357.019 262.618 357.241 262.525 357.5 262.525C357.759 262.525 357.976 262.613 358.152 262.789C358.328 262.965 358.416 263.191 358.416 263.469C358.416 263.746 358.323 263.977 358.138 264.162C357.963 264.338 357.75 264.426 357.5 264.426ZM363.31 264.426C362.58 264.426 361.923 264.264 361.341 263.94C360.758 263.617 360.3 263.173 359.967 262.609C359.644 262.035 359.482 261.388 359.482 260.666C359.482 259.945 359.644 259.302 359.967 258.738C360.3 258.165 360.758 257.721 361.341 257.406C361.923 257.083 362.58 256.921 363.31 256.921C364.041 256.921 364.693 257.083 365.266 257.406C365.849 257.721 366.302 258.165 366.626 258.738C366.959 259.302 367.125 259.945 367.125 260.666C367.125 261.388 366.959 262.035 366.626 262.609C366.302 263.173 365.849 263.617 365.266 263.94C364.693 264.264 364.041 264.426 363.31 264.426ZM363.31 263.261C363.782 263.261 364.203 263.154 364.573 262.941C364.952 262.719 365.248 262.414 365.461 262.026C365.673 261.628 365.78 261.175 365.78 260.666C365.78 260.158 365.673 259.709 365.461 259.321C365.248 258.923 364.952 258.618 364.573 258.405C364.203 258.193 363.782 258.086 363.31 258.086C362.839 258.086 362.413 258.193 362.034 258.405C361.664 258.618 361.368 258.923 361.146 259.321C360.934 259.709 360.827 260.158 360.827 260.666C360.827 261.175 360.934 261.628 361.146 262.026C361.368 262.414 361.664 262.719 362.034 262.941C362.413 263.154 362.839 263.261 363.31 263.261ZM372.893 256.921C373.827 256.921 374.567 257.194 375.112 257.739C375.667 258.276 375.945 259.066 375.945 260.112V264.343H374.613V260.264C374.613 259.552 374.442 259.016 374.1 258.655C373.757 258.294 373.267 258.114 372.629 258.114C371.908 258.114 371.339 258.327 370.923 258.752C370.507 259.168 370.299 259.769 370.299 260.555V264.343H368.967V256.99H370.243V258.1C370.511 257.721 370.872 257.43 371.325 257.226C371.788 257.023 372.31 256.921 372.893 256.921ZM385.095 260.708C385.095 260.81 385.085 260.944 385.067 261.11H379.102C379.185 261.758 379.467 262.28 379.948 262.678C380.438 263.066 381.044 263.261 381.765 263.261C382.644 263.261 383.351 262.965 383.888 262.373L384.623 263.233C384.29 263.621 383.874 263.917 383.374 264.121C382.884 264.324 382.334 264.426 381.724 264.426C380.947 264.426 380.258 264.269 379.657 263.954C379.056 263.63 378.589 263.182 378.256 262.609C377.932 262.035 377.77 261.388 377.77 260.666C377.77 259.954 377.927 259.312 378.242 258.738C378.565 258.165 379.005 257.721 379.56 257.406C380.124 257.083 380.757 256.921 381.46 256.921C382.163 256.921 382.787 257.083 383.333 257.406C383.888 257.721 384.318 258.165 384.623 258.738C384.937 259.312 385.095 259.968 385.095 260.708ZM381.46 258.045C380.822 258.045 380.286 258.239 379.851 258.627C379.426 259.016 379.176 259.524 379.102 260.153H383.818C383.744 259.534 383.49 259.03 383.055 258.641C382.63 258.243 382.098 258.045 381.46 258.045ZM389.871 252.662H391.078L386.5 265.73H385.293L389.871 252.662ZM394.784 256.921C395.496 256.921 396.134 257.078 396.698 257.393C397.263 257.707 397.702 258.146 398.016 258.71C398.34 259.275 398.502 259.927 398.502 260.666C398.502 261.406 398.34 262.063 398.016 262.636C397.702 263.2 397.263 263.64 396.698 263.954C396.134 264.269 395.496 264.426 394.784 264.426C394.257 264.426 393.771 264.324 393.327 264.121C392.893 263.917 392.523 263.621 392.218 263.233V267.034H390.886V256.99H392.162V258.156C392.458 257.749 392.833 257.443 393.286 257.24C393.739 257.027 394.238 256.921 394.784 256.921ZM394.673 263.261C395.145 263.261 395.566 263.154 395.935 262.941C396.315 262.719 396.611 262.414 396.823 262.026C397.045 261.628 397.156 261.175 397.156 260.666C397.156 260.158 397.045 259.709 396.823 259.321C396.611 258.923 396.315 258.618 395.935 258.405C395.566 258.193 395.145 258.086 394.673 258.086C394.211 258.086 393.79 258.197 393.411 258.419C393.041 258.632 392.745 258.932 392.523 259.321C392.31 259.709 392.204 260.158 392.204 260.666C392.204 261.175 392.31 261.628 392.523 262.026C392.736 262.414 393.032 262.719 393.411 262.941C393.79 263.154 394.211 263.261 394.673 263.261ZM403.491 264.426C402.76 264.426 402.104 264.264 401.521 263.94C400.938 263.617 400.481 263.173 400.148 262.609C399.824 262.035 399.662 261.388 399.662 260.666C399.662 259.945 399.824 259.302 400.148 258.738C400.481 258.165 400.938 257.721 401.521 257.406C402.104 257.083 402.76 256.921 403.491 256.921C404.221 256.921 404.873 257.083 405.447 257.406C406.029 257.721 406.483 258.165 406.806 258.738C407.139 259.302 407.306 259.945 407.306 260.666C407.306 261.388 407.139 262.035 406.806 262.609C406.483 263.173 406.029 263.617 405.447 263.94C404.873 264.264 404.221 264.426 403.491 264.426ZM403.491 263.261C403.962 263.261 404.383 263.154 404.753 262.941C405.132 262.719 405.428 262.414 405.641 262.026C405.854 261.628 405.96 261.175 405.96 260.666C405.96 260.158 405.854 259.709 405.641 259.321C405.428 258.923 405.132 258.618 404.753 258.405C404.383 258.193 403.962 258.086 403.491 258.086C403.019 258.086 402.594 258.193 402.215 258.405C401.845 258.618 401.549 258.923 401.327 259.321C401.114 259.709 401.008 260.158 401.008 260.666C401.008 261.175 401.114 261.628 401.327 262.026C401.549 262.414 401.845 262.719 402.215 262.941C402.594 263.154 403.019 263.261 403.491 263.261ZM410.424 258.225C410.655 257.8 410.997 257.476 411.45 257.254C411.903 257.032 412.454 256.921 413.101 256.921V258.211C413.027 258.202 412.925 258.197 412.796 258.197C412.074 258.197 411.506 258.415 411.089 258.849C410.683 259.275 410.479 259.885 410.479 260.68V264.343H409.147V256.99H410.424V258.225ZM419.174 263.912C418.98 264.079 418.74 264.208 418.453 264.301C418.166 264.384 417.87 264.426 417.565 264.426C416.825 264.426 416.252 264.227 415.845 263.829C415.438 263.432 415.234 262.863 415.234 262.123V258.086H413.986V256.99H415.234V255.381H416.566V256.99H418.675V258.086H416.566V262.068C416.566 262.465 416.663 262.77 416.858 262.983C417.061 263.196 417.348 263.302 417.718 263.302C418.125 263.302 418.471 263.187 418.758 262.955L419.174 263.912ZM423.475 255.062C422.68 255.062 422.282 255.492 422.282 256.352V256.99H424.419V258.086H422.31V264.343H420.978V258.086H419.73V256.99H420.978V256.338C420.978 255.608 421.191 255.03 421.617 254.604C422.042 254.179 422.638 253.966 423.406 253.966C423.702 253.966 423.979 254.003 424.238 254.077C424.497 254.151 424.719 254.257 424.904 254.396L424.502 255.409C424.197 255.178 423.855 255.062 423.475 255.062ZM428.715 264.426C427.985 264.426 427.328 264.264 426.745 263.94C426.163 263.617 425.705 263.173 425.372 262.609C425.048 262.035 424.887 261.388 424.887 260.666C424.887 259.945 425.048 259.302 425.372 258.738C425.705 258.165 426.163 257.721 426.745 257.406C427.328 257.083 427.985 256.921 428.715 256.921C429.446 256.921 430.098 257.083 430.671 257.406C431.254 257.721 431.707 258.165 432.031 258.738C432.364 259.302 432.53 259.945 432.53 260.666C432.53 261.388 432.364 262.035 432.031 262.609C431.707 263.173 431.254 263.617 430.671 263.94C430.098 264.264 429.446 264.426 428.715 264.426ZM428.715 263.261C429.187 263.261 429.608 263.154 429.978 262.941C430.357 262.719 430.653 262.414 430.865 262.026C431.078 261.628 431.185 261.175 431.185 260.666C431.185 260.158 431.078 259.709 430.865 259.321C430.653 258.923 430.357 258.618 429.978 258.405C429.608 258.193 429.187 258.086 428.715 258.086C428.244 258.086 427.818 258.193 427.439 258.405C427.069 258.618 426.773 258.923 426.551 259.321C426.339 259.709 426.232 260.158 426.232 260.666C426.232 261.175 426.339 261.628 426.551 262.026C426.773 262.414 427.069 262.719 427.439 262.941C427.818 263.154 428.244 263.261 428.715 263.261ZM434.372 254.049H435.704V264.343H434.372V254.049ZM438.246 256.99H439.578V264.343H438.246V256.99ZM438.912 255.575C438.653 255.575 438.436 255.492 438.26 255.326C438.094 255.159 438.01 254.956 438.01 254.715C438.01 254.475 438.094 254.271 438.26 254.105C438.436 253.929 438.653 253.841 438.912 253.841C439.171 253.841 439.384 253.925 439.55 254.091C439.726 254.248 439.814 254.447 439.814 254.688C439.814 254.937 439.726 255.15 439.55 255.326C439.384 255.492 439.171 255.575 438.912 255.575ZM445.27 264.426C444.539 264.426 443.882 264.264 443.3 263.94C442.717 263.617 442.259 263.173 441.927 262.609C441.603 262.035 441.441 261.388 441.441 260.666C441.441 259.945 441.603 259.302 441.927 258.738C442.259 258.165 442.717 257.721 443.3 257.406C443.882 257.083 444.539 256.921 445.27 256.921C446 256.921 446.652 257.083 447.226 257.406C447.808 257.721 448.261 258.165 448.585 258.738C448.918 259.302 449.085 259.945 449.085 260.666C449.085 261.388 448.918 262.035 448.585 262.609C448.261 263.173 447.808 263.617 447.226 263.94C446.652 264.264 446 264.426 445.27 264.426ZM445.27 263.261C445.741 263.261 446.162 263.154 446.532 262.941C446.911 262.719 447.207 262.414 447.42 262.026C447.633 261.628 447.739 261.175 447.739 260.666C447.739 260.158 447.633 259.709 447.42 259.321C447.207 258.923 446.911 258.618 446.532 258.405C446.162 258.193 445.741 258.086 445.27 258.086C444.798 258.086 444.373 258.193 443.993 258.405C443.624 258.618 443.328 258.923 443.106 259.321C442.893 259.709 442.787 260.158 442.787 260.666C442.787 261.175 442.893 261.628 443.106 262.026C443.328 262.414 443.624 262.719 443.993 262.941C444.373 263.154 444.798 263.261 445.27 263.261Z" fill="#3E54D8"/>
<rect x="209.774" y="235.771" width="247.964" height="47.6854" rx="8.23657" stroke="#D3E3FF" stroke-width="0.867008"/>
<g clip-path="url(#clip3)">
<rect x="439.097" y="309.9" width="44.2174" height="26.8772" rx="13.4386" fill="#3E54D8"/>
<g filter="url(#filter4_d)">
<rect x="458.171" y="311.634" width="23.4092" height="23.4092" rx="11.7046" fill="white"/>
</g>
</g>
<line x1="278.267" y1="149.504" x2="278.267" y2="176.381" stroke="#E6EEFF" stroke-width="0.867008"/>
<line x1="364.968" y1="149.504" x2="364.968" y2="176.381" stroke="#E6EEFF" stroke-width="0.867008"/>
<line x1="444.733" y1="149.504" x2="444.733" y2="176.381" stroke="#E6EEFF" stroke-width="0.867008"/>
<rect x="465.541" y="235.771" width="47.6854" height="47.6854" rx="6.50256" fill="#FCFDFF"/>
<path d="M488.771 253.483L490.917 251.337C491.359 250.894 491.885 250.542 492.464 250.302C493.042 250.063 493.662 249.939 494.289 249.939C494.915 249.939 495.536 250.062 496.114 250.302C496.693 250.541 497.219 250.893 497.662 251.336C498.105 251.778 498.456 252.304 498.696 252.883C498.935 253.462 499.059 254.082 499.058 254.708C499.058 255.335 498.935 255.955 498.695 256.534C498.455 257.112 498.103 257.638 497.66 258.081L494.595 261.146C494.152 261.589 493.626 261.94 493.048 262.18C492.469 262.419 491.849 262.543 491.223 262.543C490.597 262.543 489.977 262.419 489.398 262.18C488.82 261.94 488.294 261.589 487.851 261.146" stroke="#373943" stroke-width="1.73402" stroke-linecap="round" stroke-linejoin="round"/>
<path d="M489.997 265.744L487.851 267.89C487.409 268.333 486.883 268.685 486.304 268.925C485.726 269.164 485.105 269.288 484.479 269.288C483.853 269.288 483.232 269.165 482.654 268.925C482.075 268.686 481.549 268.334 481.106 267.892C480.663 267.449 480.312 266.923 480.072 266.344C479.833 265.765 479.709 265.145 479.709 264.519C479.71 263.892 479.833 263.272 480.073 262.693C480.313 262.115 480.665 261.589 481.108 261.146L484.173 258.081C484.616 257.638 485.141 257.287 485.72 257.047C486.299 256.808 486.919 256.684 487.545 256.684C488.171 256.684 488.791 256.808 489.37 257.047C489.948 257.287 490.474 257.638 490.917 258.081" stroke="#373943" stroke-width="1.73402" stroke-linecap="round" stroke-linejoin="round"/>
<rect x="465.541" y="235.771" width="47.6854" height="47.6854" rx="6.50256" stroke="#D3E3FF" stroke-width="0.867008"/>
<rect x="192.434" y="119.592" width="338.133" height="242.762" rx="8.23657" stroke="#D3E3FF" stroke-width="0.867008"/>
</g>
<rect x="75.5" y="31.5" width="572" height="355" rx="35.5" stroke="#D3E3FF"/>
</g>
<defs>
<filter id="filter0_d" x="0" y="0" width="723" height="506" filterUnits="userSpaceOnUse" color-interpolation-filters="sRGB">
<feFlood flood-opacity="0" result="BackgroundImageFix"/>
<feColorMatrix in="SourceAlpha" type="matrix" values="0 0 0 0 0 0 0 0 0 0 0 0 0 0 0 0 0 0 127 0"/>
<feMorphology radius="14" operator="erode" in="SourceAlpha" result="effect1_dropShadow"/>
<feOffset dy="44"/>
<feGaussianBlur stdDeviation="44.5"/>
<feColorMatrix type="matrix" values="0 0 0 0 0.243137 0 0 0 0 0.329412 0 0 0 0 0.847059 0 0 0 0.12 0"/>
<feBlend mode="normal" in2="BackgroundImageFix" result="effect1_dropShadow"/>
<feBlend mode="normal" in="SourceGraphic" in2="effect1_dropShadow" result="shape"/>
</filter>
<filter id="filter1_d" x="189.399" y="55" width="273.107" height="75.4297" filterUnits="userSpaceOnUse" color-interpolation-filters="sRGB">
<feFlood flood-opacity="0" result="BackgroundImageFix"/>
<feColorMatrix in="SourceAlpha" type="matrix" values="0 0 0 0 0 0 0 0 0 0 0 0 0 0 0 0 0 0 127 0"/>
<feMorphology radius="11.2711" operator="erode" in="SourceAlpha" result="effect1_dropShadow"/>
<feOffset dy="15.6061"/>
<feGaussianBlur stdDeviation="6.93606"/>
<feColorMatrix type="matrix" values="0 0 0 0 0.243137 0 0 0 0 0.329412 0 0 0 0 0.847059 0 0 0 0.1 0"/>
<feBlend mode="normal" in2="BackgroundImageFix" result="effect1_dropShadow"/>
<feBlend mode="normal" in="SourceGraphic" in2="effect1_dropShadow" result="shape"/>
</filter>
<filter id="filter2_d" x="468.575" y="55" width="67.6266" height="78.0307" filterUnits="userSpaceOnUse" color-interpolation-filters="sRGB">
<feFlood flood-opacity="0" result="BackgroundImageFix"/>
<feColorMatrix in="SourceAlpha" type="matrix" values="0 0 0 0 0 0 0 0 0 0 0 0 0 0 0 0 0 0 127 0"/>
<feMorphology radius="8.67008" operator="erode" in="SourceAlpha" result="effect1_dropShadow"/>
<feOffset dy="15.6061"/>
<feGaussianBlur stdDeviation="6.93606"/>
<feColorMatrix type="matrix" values="0 0 0 0 0.243137 0 0 0 0 0.329412 0 0 0 0 0.847059 0 0 0 0.1 0"/>
<feBlend mode="normal" in2="BackgroundImageFix" result="effect1_dropShadow"/>
<feBlend mode="normal" in="SourceGraphic" in2="effect1_dropShadow" result="shape"/>
</filter>
<filter id="filter3_d" x="184.197" y="111.355" width="354.606" height="259.235" filterUnits="userSpaceOnUse" color-interpolation-filters="sRGB">
<feFlood flood-opacity="0" result="BackgroundImageFix"/>
<feColorMatrix in="SourceAlpha" type="matrix" values="0 0 0 0 0 0 0 0 0 0 0 0 0 0 0 0 0 0 127 0"/>
<feOffset/>
<feGaussianBlur stdDeviation="3.90153"/>
<feColorMatrix type="matrix" values="0 0 0 0 0.243137 0 0 0 0 0.329412 0 0 0 0 0.847059 0 0 0 0.18 0"/>
<feBlend mode="normal" in2="BackgroundImageFix" result="effect1_dropShadow"/>
<feBlend mode="normal" in="SourceGraphic" in2="effect1_dropShadow" result="shape"/>
</filter>
<filter id="filter4_d" x="452.102" y="308.166" width="35.5473" height="35.5473" filterUnits="userSpaceOnUse" color-interpolation-filters="sRGB">
<feFlood flood-opacity="0" result="BackgroundImageFix"/>
<feColorMatrix in="SourceAlpha" type="matrix" values="0 0 0 0 0 0 0 0 0 0 0 0 0 0 0 0 0 0 127 0"/>
<feOffset dy="2.60102"/>
<feGaussianBlur stdDeviation="3.03453"/>
<feColorMatrix type="matrix" values="0 0 0 0 0 0 0 0 0 0 0 0 0 0 0 0 0 0 0.12 0"/>
<feBlend mode="normal" in2="BackgroundImageFix" result="effect1_dropShadow"/>
<feBlend mode="normal" in="SourceGraphic" in2="effect1_dropShadow" result="shape"/>
</filter>
<clipPath id="clip0">
<rect width="27.7442" height="27.7442" fill="white" transform="translate(224.079 148.637)"/>
</clipPath>
<clipPath id="clip1">
<rect width="27.7442" height="27.7442" fill="white" transform="translate(390.545 148.637)"/>
</clipPath>
<clipPath id="clip2">
<rect width="27.7442" height="27.7442" fill="white" transform="translate(470.309 148.637)"/>
</clipPath>
<clipPath id="clip3">
<rect x="439.097" y="309.9" width="44.2174" height="26.8772" rx="13.4386" fill="white"/>
</clipPath>
</defs>
</svg>
