<svg width="723" height="506" viewBox="0 0 723 506" fill="none" xmlns="http://www.w3.org/2000/svg">
<circle cx="78" cy="43" r="38" fill="#3E54D8"/>
<g filter="url(#filter0_d)">
<g clip-path="url(#clip0)">
<rect x="75" y="31" width="573" height="356" rx="36" fill="#FAFCFF"/>
<g filter="url(#filter1_d)">
<rect x="201" y="49" width="322" height="319.26" rx="9.13475" fill="white"/>
<path d="M503.888 68.1116L492.327 79.6728M503.888 79.6728L492.327 68.1116" stroke="#3E54D8" stroke-width="1.28457" stroke-linecap="round" stroke-linejoin="round"/>
<g clip-path="url(#clip1)">
<rect x="215.844" y="103.123" width="292.312" height="29.6879" rx="3.42553" fill="#FCFDFF"/>
<path d="M215.615 105.635C215.615 104.122 216.842 102.895 218.356 102.895H362.228V133.04H218.356C216.842 133.04 215.615 131.813 215.615 130.299V105.635Z" fill="#3E54D8"/>
<path opacity="0.9" d="M276.091 118.518H275.022V120.943H273.97V115.188H275.022V117.597H276.124L277.776 115.188H278.911L276.946 117.975L278.985 120.943H277.776L276.091 118.518ZM283.683 116.553L281.627 121.297C281.435 121.774 281.203 122.108 280.929 122.3C280.654 122.497 280.323 122.596 279.934 122.596C279.714 122.596 279.498 122.56 279.284 122.489C279.07 122.418 278.895 122.319 278.758 122.193L279.169 121.437C279.268 121.53 279.383 121.604 279.514 121.659C279.651 121.713 279.788 121.741 279.926 121.741C280.106 121.741 280.254 121.694 280.369 121.601C280.49 121.508 280.6 121.352 280.698 121.132L280.772 120.96L278.857 116.553H279.926L281.307 119.801L282.696 116.553H283.683ZM288.606 116.553V120.943H287.586V117.425H285.424V120.943H284.396V116.553H288.606ZM289.992 116.553H291.02V119.447L293.445 116.553H294.382V120.943H293.355V118.049L290.938 120.943H289.992V116.553ZM299.242 117.425H297.705V120.943H296.677V117.425H295.132V116.553H299.242V117.425ZM302.191 118C302.75 118 303.178 118.126 303.474 118.378C303.775 118.63 303.926 118.987 303.926 119.447C303.926 119.929 303.761 120.302 303.433 120.565C303.104 120.828 302.641 120.957 302.043 120.952L299.988 120.943V116.553H301.016V117.992L302.191 118ZM301.953 120.195C302.254 120.201 302.484 120.138 302.643 120.006C302.802 119.875 302.882 119.683 302.882 119.431C302.882 119.184 302.805 119.003 302.652 118.888C302.498 118.773 302.265 118.713 301.953 118.707L301.016 118.699V120.187L301.953 120.195Z" fill="white"/>
<path opacity="0.9" d="M422.94 115.188V120.943H421.887V116.093H418.903V120.943H417.851V115.188H422.94ZM426.881 116.504C427.308 116.504 427.689 116.597 428.024 116.783C428.363 116.97 428.629 117.233 428.821 117.573C429.013 117.912 429.109 118.304 429.109 118.748C429.109 119.192 429.013 119.587 428.821 119.932C428.629 120.272 428.363 120.535 428.024 120.721C427.689 120.908 427.308 121.001 426.881 121.001C426.289 121.001 425.82 120.804 425.475 120.409V122.538H424.447V116.553H425.426V117.129C425.595 116.92 425.804 116.764 426.05 116.66C426.303 116.556 426.579 116.504 426.881 116.504ZM426.766 120.121C427.144 120.121 427.454 119.995 427.695 119.743C427.941 119.491 428.065 119.159 428.065 118.748C428.065 118.337 427.941 118.006 427.695 117.753C427.454 117.501 427.144 117.375 426.766 117.375C426.519 117.375 426.297 117.433 426.1 117.548C425.902 117.658 425.746 117.817 425.631 118.025C425.516 118.233 425.458 118.474 425.458 118.748C425.458 119.022 425.516 119.263 425.631 119.472C425.746 119.68 425.902 119.842 426.1 119.957C426.297 120.066 426.519 120.121 426.766 120.121ZM432.088 121.001C431.644 121.001 431.244 120.905 430.888 120.713C430.532 120.521 430.252 120.255 430.049 119.916C429.852 119.57 429.753 119.181 429.753 118.748C429.753 118.315 429.852 117.929 430.049 117.589C430.252 117.249 430.532 116.983 430.888 116.792C431.244 116.6 431.644 116.504 432.088 116.504C432.538 116.504 432.94 116.6 433.297 116.792C433.653 116.983 433.93 117.249 434.127 117.589C434.33 117.929 434.431 118.315 434.431 118.748C434.431 119.181 434.33 119.57 434.127 119.916C433.93 120.255 433.653 120.521 433.297 120.713C432.94 120.905 432.538 121.001 432.088 121.001ZM432.088 120.121C432.466 120.121 432.779 119.995 433.025 119.743C433.272 119.491 433.395 119.159 433.395 118.748C433.395 118.337 433.272 118.006 433.025 117.753C432.779 117.501 432.466 117.375 432.088 117.375C431.71 117.375 431.398 117.501 431.151 117.753C430.91 118.006 430.789 118.337 430.789 118.748C430.789 119.159 430.91 119.491 431.151 119.743C431.398 119.995 431.71 120.121 432.088 120.121ZM440.084 120.072V121.922H439.122V120.943H435.735V121.922H434.782V120.072H434.987C435.267 120.061 435.456 119.883 435.554 119.537C435.659 119.187 435.727 118.693 435.76 118.058L435.818 116.553H439.435V120.072H440.084ZM436.697 118.132C436.675 118.636 436.634 119.047 436.574 119.365C436.514 119.683 436.404 119.918 436.245 120.072H438.407V117.425H436.722L436.697 118.132ZM442.638 116.504C443.285 116.504 443.778 116.66 444.118 116.972C444.463 117.279 444.636 117.745 444.636 118.37V120.943H443.666V120.409C443.54 120.601 443.359 120.749 443.123 120.853C442.893 120.952 442.614 121.001 442.285 121.001C441.956 121.001 441.668 120.946 441.421 120.836C441.175 120.721 440.983 120.565 440.846 120.368C440.714 120.165 440.649 119.938 440.649 119.685C440.649 119.291 440.794 118.976 441.084 118.74C441.38 118.499 441.844 118.378 442.474 118.378H443.608V118.313C443.608 118.006 443.515 117.77 443.329 117.605C443.148 117.441 442.877 117.359 442.515 117.359C442.268 117.359 442.024 117.397 441.783 117.474C441.548 117.551 441.348 117.658 441.183 117.795L440.78 117.046C441.01 116.871 441.287 116.737 441.611 116.644C441.934 116.55 442.277 116.504 442.638 116.504ZM442.498 120.253C442.756 120.253 442.984 120.195 443.181 120.08C443.384 119.96 443.526 119.79 443.608 119.57V119.061H442.548C441.956 119.061 441.66 119.255 441.66 119.644C441.66 119.831 441.734 119.979 441.882 120.088C442.03 120.198 442.235 120.253 442.498 120.253ZM449.385 117.425H447.848V120.943H446.82V117.425H445.275V116.553H449.385V117.425ZM452.334 118C452.893 118 453.321 118.126 453.617 118.378C453.918 118.63 454.069 118.987 454.069 119.447C454.069 119.929 453.904 120.302 453.575 120.565C453.247 120.828 452.783 120.957 452.186 120.952L450.131 120.943V116.553H451.158V117.992L452.334 118ZM452.096 120.195C452.397 120.201 452.627 120.138 452.786 120.006C452.945 119.875 453.025 119.683 453.025 119.431C453.025 119.184 452.948 119.003 452.794 118.888C452.641 118.773 452.408 118.713 452.096 118.707L451.158 118.699V120.187L452.096 120.195Z" fill="#373943"/>
</g>
<rect x="215.844" y="103.123" width="292.312" height="29.6879" rx="3.42553" stroke="#D3E3FF" stroke-width="0.456738"/>
<path opacity="0.9" d="M227.44 77.6863V81.7349H225.247V79.6156H218.027V81.7349H215.835L215.849 77.6863H216.259C216.872 77.6669 217.306 77.2186 217.559 76.3417C217.813 75.4648 217.969 74.2127 218.027 72.5855L218.144 69.3847H226.007V77.6863H227.44ZM220.117 72.8047C220.068 74.0227 219.966 75.0458 219.81 75.874C219.654 76.6925 219.416 77.2966 219.094 77.6863H223.669V71.3139H220.161L220.117 72.8047ZM232.441 79.7325C231.613 79.7325 230.868 79.562 230.205 79.221C229.552 78.8702 229.041 78.3879 228.67 77.774C228.3 77.1602 228.115 76.4635 228.115 75.684C228.115 74.9045 228.3 74.2078 228.67 73.594C229.041 72.9801 229.552 72.5027 230.205 72.1616C230.868 71.8109 231.613 71.6355 232.441 71.6355C233.269 71.6355 234.01 71.8109 234.663 72.1616C235.316 72.5027 235.827 72.9801 236.197 73.594C236.568 74.2078 236.753 74.9045 236.753 75.684C236.753 76.4635 236.568 77.1602 236.197 77.774C235.827 78.3879 235.316 78.8702 234.663 79.221C234.01 79.562 233.269 79.7325 232.441 79.7325ZM232.441 77.8617C233.026 77.8617 233.503 77.6669 233.874 77.2771C234.254 76.8776 234.444 76.3466 234.444 75.684C234.444 75.0214 234.254 74.4953 233.874 74.1055C233.503 73.706 233.026 73.5063 232.441 73.5063C231.857 73.5063 231.374 73.706 230.994 74.1055C230.614 74.4953 230.424 75.0214 230.424 75.684C230.424 76.3466 230.614 76.8776 230.994 77.2771C231.374 77.6669 231.857 77.8617 232.441 77.8617ZM242.866 72.2932C243.617 72.2932 244.274 72.4491 244.84 72.7609C245.405 73.0629 245.838 73.4917 246.14 74.0471C246.452 74.6024 246.608 75.2455 246.608 75.9763C246.608 76.7266 246.423 77.394 246.053 77.9787C245.692 78.5535 245.186 79.0017 244.533 79.3233C243.88 79.6351 243.139 79.791 242.311 79.791C240.937 79.791 239.856 79.3525 239.066 78.4756C238.287 77.5889 237.897 76.293 237.897 74.5878C237.897 73.0093 238.238 71.7524 238.92 70.817C239.612 69.8719 240.669 69.2531 242.092 68.9608L245.833 68.2154L246.14 70.1739L242.837 70.8316C241.941 71.007 241.273 71.2993 240.835 71.7086C240.406 72.1178 240.153 72.6975 240.075 73.4478C240.416 73.0776 240.825 72.795 241.303 72.6001C241.78 72.3955 242.301 72.2932 242.866 72.2932ZM242.326 78.0225C242.91 78.0225 243.378 77.8325 243.729 77.4525C244.089 77.0725 244.27 76.5902 244.27 76.0055C244.27 75.4112 244.089 74.9386 243.729 74.5878C243.378 74.2371 242.91 74.0617 242.326 74.0617C241.731 74.0617 241.254 74.2371 240.893 74.5878C240.533 74.9386 240.353 75.4112 240.353 76.0055C240.353 76.5999 240.538 77.0871 240.908 77.4671C241.278 77.8374 241.751 78.0225 242.326 78.0225ZM251.081 71.6355C252.299 71.6355 253.235 71.9278 253.888 72.5124C254.54 73.0873 254.867 73.9594 254.867 75.1286V79.6156H252.733V78.6364C252.304 79.3671 251.505 79.7325 250.336 79.7325C249.732 79.7325 249.206 79.6302 248.757 79.4256C248.319 79.221 247.983 78.9384 247.749 78.5779C247.515 78.2174 247.398 77.8081 247.398 77.3502C247.398 76.6194 247.671 76.0445 248.217 75.6255C248.772 75.2066 249.625 74.9971 250.774 74.9971H252.587C252.587 74.5001 252.436 74.1201 252.134 73.8571C251.832 73.5842 251.379 73.4478 250.774 73.4478C250.355 73.4478 249.941 73.516 249.532 73.6524C249.133 73.7791 248.792 73.9545 248.509 74.1786L247.691 72.5855C248.119 72.2834 248.631 72.0496 249.225 71.8839C249.829 71.7183 250.448 71.6355 251.081 71.6355ZM250.906 78.1979C251.296 78.1979 251.642 78.1102 251.944 77.9348C252.246 77.7497 252.46 77.4817 252.587 77.1309V76.3271H251.023C250.088 76.3271 249.62 76.634 249.62 77.2479C249.62 77.5402 249.732 77.774 249.956 77.9494C250.19 78.1151 250.507 78.1979 250.906 78.1979ZM262.854 75.5086C263.78 75.8204 264.243 76.444 264.243 77.3794C264.243 78.0907 263.975 78.6412 263.439 79.031C262.903 79.4207 262.104 79.6156 261.042 79.6156H256.847V71.7524H260.867C261.851 71.7524 262.621 71.9327 263.176 72.2932C263.731 72.644 264.009 73.1409 264.009 73.784C264.009 74.1737 263.907 74.5196 263.702 74.8217C263.507 75.114 263.225 75.343 262.854 75.5086ZM258.937 74.9825H260.662C261.461 74.9825 261.861 74.6999 261.861 74.1347C261.861 73.5794 261.461 73.3017 260.662 73.3017H258.937V74.9825ZM260.852 78.0663C261.69 78.0663 262.109 77.7789 262.109 77.204C262.109 76.902 262.012 76.6827 261.817 76.5463C261.622 76.4002 261.315 76.3271 260.896 76.3271H258.937V78.0663H260.852ZM273.481 71.7524V79.6156H271.201V73.6232H268.716L268.643 75.0117C268.604 76.0445 268.507 76.902 268.351 77.584C268.195 78.2661 267.942 78.802 267.591 79.1917C267.24 79.5815 266.753 79.7764 266.129 79.7764C265.798 79.7764 265.403 79.7179 264.946 79.601L265.062 77.7302C265.218 77.7497 265.33 77.7594 265.399 77.7594C265.74 77.7594 265.993 77.6376 266.159 77.394C266.334 77.1407 266.451 76.824 266.509 76.444C266.568 76.0543 266.612 75.5427 266.641 74.9094L266.758 71.7524H273.481ZM283.318 75.7132C283.318 75.7425 283.303 75.9471 283.274 76.3271H277.325C277.432 76.8143 277.686 77.1992 278.085 77.4817C278.485 77.7643 278.982 77.9056 279.576 77.9056C279.985 77.9056 280.346 77.8471 280.658 77.7302C280.979 77.6035 281.276 77.4086 281.549 77.1456L282.762 78.461C282.022 79.3087 280.94 79.7325 279.518 79.7325C278.631 79.7325 277.846 79.562 277.164 79.221C276.482 78.8702 275.956 78.3879 275.586 77.774C275.216 77.1602 275.031 76.4635 275.031 75.684C275.031 74.9142 275.211 74.2224 275.571 73.6086C275.942 72.985 276.443 72.5027 277.077 72.1616C277.72 71.8109 278.436 71.6355 279.225 71.6355C279.995 71.6355 280.692 71.8011 281.315 72.1324C281.939 72.4637 282.426 72.9411 282.777 73.5647C283.137 74.1786 283.318 74.8948 283.318 75.7132ZM279.24 73.3601C278.723 73.3601 278.29 73.5063 277.939 73.7986C277.588 74.0909 277.374 74.4904 277.296 74.9971H281.169C281.091 74.5001 280.877 74.1055 280.526 73.8132C280.175 73.5112 279.746 73.3601 279.24 73.3601ZM285.065 71.7524H287.331V74.8217H290.751V71.7524H293.031V79.6156H290.751V76.6779H287.331V79.6156H285.065V71.7524ZM295.213 71.7524H297.479V76.4294L301.308 71.7524H303.398V79.6156H301.133V74.9386L297.318 79.6156H295.213V71.7524ZM313.234 75.7132C313.234 75.7425 313.219 75.9471 313.19 76.3271H307.241C307.349 76.8143 307.602 77.1992 308.002 77.4817C308.401 77.7643 308.898 77.9056 309.492 77.9056C309.902 77.9056 310.262 77.8471 310.574 77.7302C310.895 77.6035 311.193 77.4086 311.465 77.1456L312.678 78.461C311.938 79.3087 310.856 79.7325 309.434 79.7325C308.547 79.7325 307.763 79.562 307.081 79.221C306.399 78.8702 305.872 78.3879 305.502 77.774C305.132 77.1602 304.947 76.4635 304.947 75.684C304.947 74.9142 305.127 74.2224 305.488 73.6086C305.858 72.985 306.36 72.5027 306.993 72.1616C307.636 71.8109 308.352 71.6355 309.142 71.6355C309.911 71.6355 310.608 71.8011 311.232 72.1324C311.855 72.4637 312.342 72.9411 312.693 73.5647C313.054 74.1786 313.234 74.8948 313.234 75.7132ZM309.156 73.3601C308.64 73.3601 308.206 73.5063 307.855 73.7986C307.505 74.0909 307.29 74.4904 307.212 74.9971H311.085C311.007 74.5001 310.793 74.1055 310.442 73.8132C310.092 73.5112 309.663 73.3601 309.156 73.3601ZM325.727 73.6232H323.067V79.6156H320.802V73.6232H318.142V71.7524H325.727V73.6232ZM331.576 71.6355C332.306 71.6355 332.969 71.806 333.563 72.147C334.167 72.4783 334.64 72.9509 334.981 73.5647C335.322 74.1689 335.493 74.8753 335.493 75.684C335.493 76.4927 335.322 77.204 334.981 77.8179C334.64 78.422 334.167 78.8946 333.563 79.2356C332.969 79.5669 332.306 79.7325 331.576 79.7325C330.572 79.7325 329.783 79.4159 329.208 78.7825V82.451H326.928V71.7524H329.106V72.6586C329.671 71.9765 330.494 71.6355 331.576 71.6355ZM331.181 77.8617C331.766 77.8617 332.243 77.6669 332.613 77.2771C332.993 76.8776 333.183 76.3466 333.183 75.684C333.183 75.0214 332.993 74.4953 332.613 74.1055C332.243 73.706 331.766 73.5063 331.181 73.5063C330.596 73.5063 330.114 73.706 329.734 74.1055C329.364 74.4953 329.179 75.0214 329.179 75.684C329.179 76.3466 329.364 76.8776 329.734 77.2771C330.114 77.6669 330.596 77.8617 331.181 77.8617ZM340.017 71.6355C341.235 71.6355 342.17 71.9278 342.823 72.5124C343.476 73.0873 343.802 73.9594 343.802 75.1286V79.6156H341.668V78.6364C341.24 79.3671 340.441 79.7325 339.271 79.7325C338.667 79.7325 338.141 79.6302 337.693 79.4256C337.254 79.221 336.918 78.9384 336.684 78.5779C336.451 78.2174 336.334 77.8081 336.334 77.3502C336.334 76.6194 336.606 76.0445 337.152 75.6255C337.707 75.2066 338.56 74.9971 339.71 74.9971H341.522C341.522 74.5001 341.371 74.1201 341.069 73.8571C340.767 73.5842 340.314 73.4478 339.71 73.4478C339.291 73.4478 338.877 73.516 338.467 73.6524C338.068 73.7791 337.727 73.9545 337.444 74.1786L336.626 72.5855C337.055 72.2834 337.566 72.0496 338.161 71.8839C338.765 71.7183 339.383 71.6355 340.017 71.6355ZM339.841 78.1979C340.231 78.1979 340.577 78.1102 340.879 77.9348C341.181 77.7497 341.395 77.4817 341.522 77.1309V76.3271H339.958C339.023 76.3271 338.555 76.634 338.555 77.2479C338.555 77.5402 338.667 77.774 338.891 77.9494C339.125 78.1151 339.442 78.1979 339.841 78.1979ZM345.783 71.7524H348.048V74.8217H351.468V71.7524H353.748V79.6156H351.468V76.6779H348.048V79.6156H345.783V71.7524ZM360.96 75.5232C361.428 75.6694 361.789 75.8935 362.042 76.1955C362.305 76.4976 362.437 76.8581 362.437 77.2771C362.437 77.774 362.266 78.2125 361.925 78.5925C361.584 78.9628 361.116 79.2502 360.522 79.4548C359.928 79.6594 359.255 79.7618 358.505 79.7618C357.891 79.7618 357.287 79.6984 356.693 79.5718C356.098 79.4451 355.548 79.2551 355.041 79.0017L355.655 77.4086C356.483 77.8081 357.399 78.0079 358.403 78.0079C358.939 78.0079 359.358 77.9299 359.66 77.774C359.971 77.6084 360.127 77.3794 360.127 77.0871C360.127 76.8338 360.02 76.6438 359.806 76.5171C359.591 76.3807 359.28 76.3125 358.87 76.3125H357.263V74.8948H358.666C359.065 74.8948 359.372 74.8314 359.587 74.7048C359.801 74.5781 359.908 74.393 359.908 74.1494C359.908 73.896 359.772 73.7012 359.499 73.5647C359.236 73.4283 358.856 73.3601 358.359 73.3601C357.599 73.3601 356.771 73.5404 355.874 73.9009L355.319 72.3224C356.41 71.845 357.472 71.6062 358.505 71.6062C359.216 71.6062 359.85 71.6939 360.405 71.8693C360.97 72.0447 361.414 72.3029 361.735 72.644C362.057 72.9752 362.217 73.365 362.217 73.8132C362.217 74.1835 362.105 74.5196 361.881 74.8217C361.657 75.114 361.35 75.3478 360.96 75.5232ZM367.15 71.6355C368.368 71.6355 369.303 71.9278 369.956 72.5124C370.609 73.0873 370.935 73.9594 370.935 75.1286V79.6156H368.801V78.6364C368.373 79.3671 367.574 79.7325 366.404 79.7325C365.8 79.7325 365.274 79.6302 364.826 79.4256C364.387 79.221 364.051 78.9384 363.817 78.5779C363.584 78.2174 363.467 77.8081 363.467 77.3502C363.467 76.6194 363.74 76.0445 364.285 75.6255C364.841 75.2066 365.693 74.9971 366.843 74.9971H368.655C368.655 74.5001 368.504 74.1201 368.202 73.8571C367.9 73.5842 367.447 73.4478 366.843 73.4478C366.424 73.4478 366.01 73.516 365.601 73.6524C365.201 73.7791 364.86 73.9545 364.577 74.1786L363.759 72.5855C364.188 72.2834 364.699 72.0496 365.294 71.8839C365.898 71.7183 366.516 71.6355 367.15 71.6355ZM366.974 78.1979C367.364 78.1979 367.71 78.1102 368.012 77.9348C368.314 77.7497 368.529 77.4817 368.655 77.1309V76.3271H367.091C366.156 76.3271 365.688 76.634 365.688 77.2479C365.688 77.5402 365.8 77.774 366.024 77.9494C366.258 78.1151 366.575 78.1979 366.974 78.1979ZM376.38 76.634H375.196V79.6156H372.916V71.7524H375.196V74.8071H376.424L378.558 71.7524H380.984L378.236 75.5232L381.174 79.6156H378.484L376.38 76.634ZM391.15 77.7448V81.3402H389.031V79.6156H382.293V71.7524H384.559V77.7448H387.73V71.7524H390.01V77.7448H391.15ZM392.584 71.7524H394.85V76.4294L398.679 71.7524H400.769V79.6156H398.503V74.9386L394.689 79.6156H392.584V71.7524ZM402.961 71.7524H405.226V76.4294L409.055 71.7524H411.145V79.6156H408.88V74.9386L405.065 79.6156H402.961V71.7524Z" fill="#24252E"/>
<rect x="215.844" y="223.702" width="202.791" height="25.1206" rx="4.33901" fill="white"/>
<path d="M229.175 235.074C229.74 235.128 230.17 235.304 230.466 235.6C230.762 235.89 230.91 236.263 230.91 236.718C230.91 237.047 230.828 237.345 230.663 237.614C230.499 237.877 230.252 238.088 229.923 238.247C229.6 238.4 229.203 238.477 228.731 238.477C228.32 238.477 227.925 238.417 227.547 238.296C227.169 238.17 226.859 237.998 226.618 237.778L226.996 237.129C227.194 237.315 227.446 237.466 227.753 237.581C228.06 237.691 228.386 237.745 228.731 237.745C229.159 237.745 229.49 237.655 229.726 237.474C229.967 237.293 230.088 237.044 230.088 236.726C230.088 236.408 229.97 236.161 229.734 235.986C229.498 235.811 229.142 235.723 228.665 235.723H228.205V235.147L229.652 233.372H226.881V232.656H230.68V233.215L229.175 235.074ZM236.683 236.997H235.59V238.411H234.792V236.997H231.594V236.422L234.538 232.656H235.425L232.606 236.29H234.817V235.041H235.59V236.29H236.683V236.997ZM238.796 234.95C239.618 234.95 240.221 235.106 240.605 235.419C240.994 235.726 241.189 236.148 241.189 236.685C241.189 237.025 241.107 237.332 240.942 237.606C240.783 237.874 240.539 238.088 240.21 238.247C239.887 238.4 239.487 238.477 239.01 238.477C238.604 238.477 238.213 238.417 237.834 238.296C237.456 238.17 237.144 237.998 236.897 237.778L237.275 237.129C237.473 237.315 237.725 237.466 238.032 237.581C238.339 237.691 238.662 237.745 239.002 237.745C239.435 237.745 239.769 237.655 240.005 237.474C240.246 237.288 240.367 237.036 240.367 236.718C240.367 236.372 240.235 236.112 239.972 235.937C239.709 235.756 239.259 235.665 238.624 235.665H237.316L237.621 232.656H240.868V233.372H238.311L238.155 234.95H238.796ZM248.454 236.841C248.454 237.274 248.29 237.641 247.961 237.943C247.638 238.244 247.166 238.42 246.547 238.469V239.398H246.021V238.469C245.621 238.447 245.24 238.373 244.878 238.247C244.522 238.115 244.237 237.951 244.023 237.754L244.327 237.112C244.525 237.293 244.774 237.444 245.076 237.565C245.377 237.68 245.692 237.748 246.021 237.77V235.863C245.637 235.77 245.317 235.668 245.059 235.559C244.807 235.449 244.593 235.287 244.418 235.074C244.248 234.86 244.163 234.58 244.163 234.235C244.163 233.802 244.319 233.435 244.632 233.133C244.949 232.832 245.413 232.656 246.021 232.607V231.67H246.547V232.599C246.86 232.61 247.161 232.659 247.451 232.747C247.747 232.835 248.002 232.952 248.216 233.1L247.945 233.758C247.501 233.479 247.035 233.325 246.547 233.298V235.213C246.947 235.312 247.276 235.416 247.534 235.526C247.791 235.63 248.008 235.789 248.183 236.003C248.364 236.211 248.454 236.49 248.454 236.841ZM244.969 234.202C244.969 234.438 245.059 234.621 245.24 234.753C245.421 234.884 245.681 234.994 246.021 235.082V233.306C245.67 233.35 245.407 233.454 245.232 233.618C245.056 233.777 244.969 233.972 244.969 234.202ZM246.547 237.762C246.914 237.729 247.188 237.636 247.369 237.482C247.556 237.323 247.649 237.126 247.649 236.89C247.649 236.649 247.553 236.466 247.361 236.34C247.175 236.208 246.903 236.093 246.547 235.994V237.762Z" fill="#373943"/>
<rect x="215.844" y="223.702" width="202.791" height="25.1206" rx="4.33901" stroke="#D3E3FF" stroke-width="0.456738"/>
<rect x="426.4" y="223.702" width="81.756" height="25.1206" rx="4.33901" fill="#F8F8F8"/>
<path d="M467.415 234.917C467.793 234.917 468.13 234.989 468.426 235.131C468.728 235.274 468.963 235.479 469.133 235.748C469.303 236.011 469.388 236.315 469.388 236.66C469.388 237.022 469.298 237.34 469.117 237.614C468.941 237.888 468.698 238.102 468.385 238.255C468.078 238.403 467.733 238.477 467.349 238.477C466.577 238.477 465.979 238.228 465.557 237.729C465.141 237.23 464.932 236.523 464.932 235.608C464.932 234.967 465.045 234.421 465.269 233.972C465.5 233.517 465.817 233.174 466.223 232.944C466.634 232.709 467.111 232.591 467.653 232.591C467.933 232.591 468.196 232.621 468.443 232.681C468.689 232.736 468.903 232.818 469.084 232.928L468.772 233.569C468.498 233.388 468.13 233.298 467.67 233.298C467.073 233.298 466.604 233.484 466.264 233.857C465.924 234.224 465.754 234.761 465.754 235.468C465.754 235.556 465.757 235.624 465.763 235.674C465.927 235.427 466.152 235.241 466.437 235.115C466.727 234.983 467.053 234.917 467.415 234.917ZM467.316 237.811C467.695 237.811 468.002 237.71 468.237 237.507C468.473 237.304 468.591 237.033 468.591 236.693C468.591 236.353 468.47 236.085 468.229 235.887C467.993 235.685 467.675 235.583 467.275 235.583C467.018 235.583 466.788 235.633 466.585 235.731C466.387 235.83 466.231 235.964 466.116 236.134C466.006 236.304 465.952 236.493 465.952 236.701C465.952 236.904 466.004 237.09 466.108 237.26C466.218 237.425 466.374 237.559 466.577 237.663C466.785 237.762 467.031 237.811 467.316 237.811Z" fill="#24252E"/>
<path d="M441.586 236.262H449.123" stroke="#3E54D8" stroke-width="0.913475" stroke-linecap="round" stroke-linejoin="round"/>
<path d="M445.354 232.494V240.03" stroke="#3E54D8" stroke-width="0.913475" stroke-linecap="round" stroke-linejoin="round"/>
<path d="M485.748 236.262H492.656" stroke="#3E54D8" stroke-width="0.913475" stroke-linecap="round" stroke-linejoin="round"/>
<rect x="426.4" y="223.702" width="81.756" height="25.1206" rx="4.33901" stroke="#D3E3FF" stroke-width="0.456738"/>
<path d="M222.234 213.032V215.055H221.469V213.747H216.512V207.993H217.326V213.032H220.532V207.993H221.346V213.032H222.234ZM227.038 211.594C227.038 211.654 227.032 211.733 227.022 211.832H223.486C223.536 212.216 223.703 212.525 223.988 212.761C224.278 212.991 224.637 213.106 225.065 213.106C225.586 213.106 226.005 212.931 226.323 212.58L226.758 213.09C226.561 213.32 226.315 213.495 226.019 213.616C225.728 213.737 225.402 213.797 225.04 213.797C224.58 213.797 224.171 213.704 223.815 213.517C223.459 213.325 223.182 213.06 222.985 212.72C222.793 212.38 222.697 211.996 222.697 211.569C222.697 211.147 222.79 210.766 222.977 210.426C223.168 210.086 223.429 209.823 223.758 209.637C224.092 209.445 224.467 209.349 224.884 209.349C225.301 209.349 225.671 209.445 225.994 209.637C226.323 209.823 226.578 210.086 226.758 210.426C226.945 210.766 227.038 211.155 227.038 211.594ZM224.884 210.015C224.506 210.015 224.188 210.13 223.93 210.36C223.678 210.591 223.53 210.892 223.486 211.265H226.282C226.238 210.897 226.087 210.599 225.829 210.369C225.577 210.133 225.262 210.015 224.884 210.015ZM228.262 209.39H229.052V211.24H231.534V209.39H232.324V213.747H231.534V211.922H229.052V213.747H228.262V209.39ZM235.412 209.349C236.015 209.349 236.475 209.497 236.793 209.793C237.117 210.089 237.278 210.53 237.278 211.117V213.747H236.53V213.172C236.399 213.375 236.21 213.531 235.963 213.641C235.722 213.745 235.434 213.797 235.1 213.797C234.612 213.797 234.22 213.679 233.924 213.443C233.634 213.208 233.488 212.898 233.488 212.514C233.488 212.131 233.628 211.824 233.908 211.594C234.187 211.358 234.631 211.24 235.239 211.24H236.489V211.084C236.489 210.744 236.39 210.484 236.193 210.303C235.996 210.122 235.705 210.031 235.322 210.031C235.064 210.031 234.812 210.075 234.565 210.163C234.319 210.245 234.11 210.358 233.941 210.5L233.612 209.908C233.836 209.727 234.105 209.59 234.417 209.497C234.73 209.398 235.061 209.349 235.412 209.349ZM235.231 213.188C235.533 213.188 235.793 213.123 236.012 212.991C236.232 212.854 236.39 212.662 236.489 212.416V211.807H235.272C234.604 211.807 234.269 212.032 234.269 212.481C234.269 212.701 234.354 212.873 234.524 212.999C234.694 213.125 234.93 213.188 235.231 213.188ZM243.127 209.538C243.533 209.538 243.894 209.629 244.212 209.809C244.53 209.99 244.777 210.242 244.952 210.566C245.133 210.884 245.224 211.248 245.224 211.659C245.224 212.081 245.128 212.457 244.936 212.786C244.749 213.109 244.484 213.361 244.138 213.542C243.799 213.723 243.409 213.813 242.971 213.813C242.231 213.813 241.658 213.561 241.253 213.057C240.853 212.547 240.653 211.832 240.653 210.911C240.653 210.018 240.836 209.319 241.203 208.815C241.571 208.305 242.132 207.968 242.889 207.803L244.878 207.36L244.993 208.083L243.16 208.478C242.59 208.604 242.165 208.817 241.886 209.119C241.606 209.42 241.447 209.853 241.409 210.418C241.595 210.138 241.836 209.922 242.132 209.768C242.428 209.615 242.76 209.538 243.127 209.538ZM242.987 213.156C243.267 213.156 243.514 213.093 243.727 212.966C243.947 212.84 244.116 212.668 244.237 212.449C244.358 212.224 244.418 211.969 244.418 211.684C244.418 211.251 244.286 210.903 244.023 210.64C243.76 210.377 243.415 210.245 242.987 210.245C242.56 210.245 242.212 210.377 241.943 210.64C241.68 210.903 241.549 211.251 241.549 211.684C241.549 211.969 241.609 212.224 241.73 212.449C241.856 212.668 242.028 212.84 242.247 212.966C242.467 213.093 242.713 213.156 242.987 213.156ZM250.119 209.39L248.006 214.183C247.82 214.627 247.601 214.94 247.348 215.12C247.102 215.301 246.803 215.392 246.452 215.392C246.239 215.392 246.03 215.356 245.828 215.285C245.63 215.219 245.466 215.12 245.334 214.989L245.671 214.397C245.896 214.611 246.156 214.718 246.452 214.718C246.644 214.718 246.803 214.666 246.929 214.561C247.061 214.463 247.179 214.29 247.283 214.043L247.422 213.739L245.499 209.39H246.321L247.842 212.876L249.346 209.39H250.119ZM255.95 209.39V213.747H255.235V210.566L253.607 213.254H253.262L251.651 210.558V213.747H250.927V209.39H251.741L253.451 212.333L255.21 209.39H255.95ZM259.04 209.349C259.643 209.349 260.104 209.497 260.421 209.793C260.745 210.089 260.906 210.53 260.906 211.117V213.747H260.158V213.172C260.027 213.375 259.838 213.531 259.591 213.641C259.35 213.745 259.062 213.797 258.728 213.797C258.24 213.797 257.848 213.679 257.552 213.443C257.262 213.208 257.116 212.898 257.116 212.514C257.116 212.131 257.256 211.824 257.536 211.594C257.815 211.358 258.259 211.24 258.868 211.24H260.117V211.084C260.117 210.744 260.019 210.484 259.821 210.303C259.624 210.122 259.333 210.031 258.95 210.031C258.692 210.031 258.44 210.075 258.193 210.163C257.947 210.245 257.739 210.358 257.569 210.5L257.24 209.908C257.465 209.727 257.733 209.59 258.045 209.497C258.358 209.398 258.689 209.349 259.04 209.349ZM258.859 213.188C259.161 213.188 259.421 213.123 259.64 212.991C259.86 212.854 260.019 212.662 260.117 212.416V211.807H258.9C258.232 211.807 257.898 212.032 257.898 212.481C257.898 212.701 257.982 212.873 258.152 212.999C258.322 213.125 258.558 213.188 258.859 213.188ZM265.534 210.081H263.117V213.747H262.328V209.39H265.534V210.081ZM266.342 209.39H267.131V212.564L269.803 209.39H270.518V213.747H269.729V210.574L267.065 213.747H266.342V209.39Z" fill="#929398"/>
<path d="M429.074 211.215H427.873V213.747H427.068V207.993H427.873V210.492H429.09L430.899 207.993H431.778L429.723 210.78L431.877 213.747H430.94L429.074 211.215ZM434.398 213.797C433.965 213.797 433.576 213.701 433.231 213.509C432.886 213.317 432.614 213.054 432.417 212.72C432.225 212.38 432.129 211.996 432.129 211.569C432.129 211.141 432.225 210.76 432.417 210.426C432.614 210.086 432.886 209.823 433.231 209.637C433.576 209.445 433.965 209.349 434.398 209.349C434.831 209.349 435.218 209.445 435.557 209.637C435.903 209.823 436.171 210.086 436.363 210.426C436.56 210.76 436.659 211.141 436.659 211.569C436.659 211.996 436.56 212.38 436.363 212.72C436.171 213.054 435.903 213.317 435.557 213.509C435.218 213.701 434.831 213.797 434.398 213.797ZM434.398 213.106C434.678 213.106 434.927 213.043 435.146 212.917C435.371 212.786 435.546 212.605 435.673 212.375C435.799 212.139 435.862 211.87 435.862 211.569C435.862 211.267 435.799 211.002 435.673 210.771C435.546 210.536 435.371 210.355 435.146 210.229C434.927 210.103 434.678 210.04 434.398 210.04C434.119 210.04 433.867 210.103 433.642 210.229C433.423 210.355 433.247 210.536 433.116 210.771C432.99 211.002 432.927 211.267 432.927 211.569C432.927 211.87 432.99 212.139 433.116 212.375C433.247 212.605 433.423 212.786 433.642 212.917C433.867 213.043 434.119 213.106 434.398 213.106ZM441.507 209.39V213.747H440.718V210.081H438.844L438.794 211.051C438.767 211.637 438.715 212.128 438.638 212.523C438.561 212.912 438.435 213.224 438.26 213.46C438.085 213.695 437.841 213.813 437.528 213.813C437.386 213.813 437.224 213.789 437.043 213.739L437.093 213.073C437.164 213.09 437.23 213.098 437.29 213.098C437.509 213.098 437.673 213.002 437.783 212.81C437.893 212.618 437.964 212.391 437.997 212.128C438.03 211.865 438.06 211.489 438.087 211.002L438.161 209.39H441.507ZM443.033 209.39H443.823V212.564L446.495 209.39H447.21V213.747H446.421V210.574L443.757 213.747H443.033V209.39ZM452.219 209.39V213.747H451.43V211.988C450.959 212.207 450.49 212.317 450.024 212.317C449.482 212.317 449.062 212.191 448.766 211.939C448.47 211.687 448.322 211.309 448.322 210.804V209.39H449.112V210.755C449.112 211.056 449.205 211.284 449.391 211.437C449.583 211.591 449.849 211.667 450.189 211.667C450.572 211.667 450.986 211.572 451.43 211.38V209.39H452.219ZM457.69 211.594C457.69 211.654 457.684 211.733 457.673 211.832H454.138C454.187 212.216 454.354 212.525 454.639 212.761C454.93 212.991 455.289 213.106 455.716 213.106C456.237 213.106 456.656 212.931 456.974 212.58L457.41 213.09C457.213 213.32 456.966 213.495 456.67 213.616C456.38 213.737 456.054 213.797 455.692 213.797C455.231 213.797 454.823 213.704 454.467 213.517C454.111 213.325 453.834 213.06 453.636 212.72C453.445 212.38 453.349 211.996 453.349 211.569C453.349 211.147 453.442 210.766 453.628 210.426C453.82 210.086 454.08 209.823 454.409 209.637C454.744 209.445 455.119 209.349 455.536 209.349C455.952 209.349 456.322 209.445 456.645 209.637C456.974 209.823 457.229 210.086 457.41 210.426C457.596 210.766 457.69 211.155 457.69 211.594ZM455.536 210.015C455.157 210.015 454.84 210.13 454.582 210.36C454.33 210.591 454.182 210.892 454.138 211.265H456.933C456.889 210.897 456.739 210.599 456.481 210.369C456.229 210.133 455.914 210.015 455.536 210.015ZM460.813 213.797C460.369 213.797 459.972 213.701 459.621 213.509C459.276 213.317 459.004 213.054 458.807 212.72C458.61 212.38 458.511 211.996 458.511 211.569C458.511 211.141 458.61 210.76 458.807 210.426C459.004 210.086 459.276 209.823 459.621 209.637C459.972 209.445 460.369 209.349 460.813 209.349C461.208 209.349 461.558 209.429 461.865 209.588C462.178 209.746 462.419 209.977 462.589 210.278L461.989 210.665C461.852 210.456 461.682 210.3 461.479 210.196C461.276 210.092 461.051 210.04 460.805 210.04C460.52 210.04 460.262 210.103 460.032 210.229C459.807 210.355 459.629 210.536 459.498 210.771C459.372 211.002 459.309 211.267 459.309 211.569C459.309 211.876 459.372 212.147 459.498 212.383C459.629 212.613 459.807 212.791 460.032 212.917C460.262 213.043 460.52 213.106 460.805 213.106C461.051 213.106 461.276 213.054 461.479 212.95C461.682 212.846 461.852 212.69 461.989 212.481L462.589 212.86C462.419 213.161 462.178 213.394 461.865 213.558C461.558 213.717 461.208 213.797 460.813 213.797ZM466.802 210.081H465.207V213.747H464.418V210.081H462.823V209.39H466.802V210.081ZM470.577 211.487C471.141 211.629 471.424 211.983 471.424 212.547C471.424 212.931 471.278 213.227 470.988 213.435C470.703 213.643 470.275 213.747 469.705 213.747H467.609V209.39H469.631C470.147 209.39 470.549 209.489 470.84 209.686C471.13 209.878 471.276 210.152 471.276 210.508C471.276 210.738 471.213 210.939 471.087 211.108C470.966 211.273 470.796 211.399 470.577 211.487ZM468.382 211.265H469.566C469.867 211.265 470.094 211.21 470.248 211.1C470.407 210.991 470.486 210.832 470.486 210.623C470.486 210.207 470.179 209.999 469.566 209.999H468.382V211.265ZM469.648 213.139C469.977 213.139 470.223 213.087 470.388 212.983C470.552 212.879 470.634 212.717 470.634 212.498C470.634 212.273 470.558 212.106 470.404 211.996C470.256 211.887 470.02 211.832 469.697 211.832H468.382V213.139H469.648ZM474.525 213.797C474.092 213.797 473.703 213.701 473.358 213.509C473.012 213.317 472.741 213.054 472.544 212.72C472.352 212.38 472.256 211.996 472.256 211.569C472.256 211.141 472.352 210.76 472.544 210.426C472.741 210.086 473.012 209.823 473.358 209.637C473.703 209.445 474.092 209.349 474.525 209.349C474.958 209.349 475.345 209.445 475.684 209.637C476.03 209.823 476.298 210.086 476.49 210.426C476.687 210.76 476.786 211.141 476.786 211.569C476.786 211.996 476.687 212.38 476.49 212.72C476.298 213.054 476.03 213.317 475.684 213.509C475.345 213.701 474.958 213.797 474.525 213.797ZM474.525 213.106C474.805 213.106 475.054 213.043 475.273 212.917C475.498 212.786 475.673 212.605 475.799 212.375C475.925 212.139 475.989 211.87 475.989 211.569C475.989 211.267 475.925 211.002 475.799 210.771C475.673 210.536 475.498 210.355 475.273 210.229C475.054 210.103 474.805 210.04 474.525 210.04C474.246 210.04 473.993 210.103 473.769 210.229C473.55 210.355 473.374 210.536 473.243 210.771C473.117 211.002 473.054 211.267 473.054 211.569C473.054 211.87 473.117 212.139 473.243 212.375C473.374 212.605 473.55 212.786 473.769 212.917C473.993 213.043 474.246 213.106 474.525 213.106Z" fill="#929398"/>
<path d="M216.512 263.258H217.326V267.697L220.729 263.258H221.485V269.013H220.68V264.581L217.268 269.013H216.512V263.258ZM226.396 265.346H224.801V269.013H224.011V265.346H222.416V264.655H226.396V265.346ZM228.876 269.062C228.443 269.062 228.054 268.966 227.709 268.774C227.363 268.583 227.092 268.319 226.895 267.985C226.703 267.645 226.607 267.262 226.607 266.834C226.607 266.407 226.703 266.026 226.895 265.691C227.092 265.352 227.363 265.088 227.709 264.902C228.054 264.71 228.443 264.614 228.876 264.614C229.309 264.614 229.696 264.71 230.035 264.902C230.381 265.088 230.649 265.352 230.841 265.691C231.038 266.026 231.137 266.407 231.137 266.834C231.137 267.262 231.038 267.645 230.841 267.985C230.649 268.319 230.381 268.583 230.035 268.774C229.696 268.966 229.309 269.062 228.876 269.062ZM228.876 268.371C229.156 268.371 229.405 268.308 229.624 268.182C229.849 268.051 230.024 267.87 230.15 267.64C230.276 267.404 230.34 267.136 230.34 266.834C230.34 266.533 230.276 266.267 230.15 266.037C230.024 265.801 229.849 265.62 229.624 265.494C229.405 265.368 229.156 265.305 228.876 265.305C228.597 265.305 228.344 265.368 228.12 265.494C227.901 265.62 227.725 265.801 227.594 266.037C227.468 266.267 227.405 266.533 227.405 266.834C227.405 267.136 227.468 267.404 227.594 267.64C227.725 267.87 227.901 268.051 228.12 268.182C228.344 268.308 228.597 268.371 228.876 268.371ZM235.483 265.346H233.066V269.013H232.277V264.655H235.483V265.346ZM237.965 269.062C237.532 269.062 237.142 268.966 236.797 268.774C236.452 268.583 236.18 268.319 235.983 267.985C235.791 267.645 235.695 267.262 235.695 266.834C235.695 266.407 235.791 266.026 235.983 265.691C236.18 265.352 236.452 265.088 236.797 264.902C237.142 264.71 237.532 264.614 237.965 264.614C238.397 264.614 238.784 264.71 239.124 264.902C239.469 265.088 239.738 265.352 239.929 265.691C240.127 266.026 240.225 266.407 240.225 266.834C240.225 267.262 240.127 267.645 239.929 267.985C239.738 268.319 239.469 268.583 239.124 268.774C238.784 268.966 238.397 269.062 237.965 269.062ZM237.965 268.371C238.244 268.371 238.493 268.308 238.713 268.182C238.937 268.051 239.113 267.87 239.239 267.64C239.365 267.404 239.428 267.136 239.428 266.834C239.428 266.533 239.365 266.267 239.239 266.037C239.113 265.801 238.937 265.62 238.713 265.494C238.493 265.368 238.244 265.305 237.965 265.305C237.685 265.305 237.433 265.368 237.208 265.494C236.989 265.62 236.814 265.801 236.682 266.037C236.556 266.267 236.493 266.533 236.493 266.834C236.493 267.136 236.556 267.404 236.682 267.64C236.814 267.87 236.989 268.051 237.208 268.182C237.433 268.308 237.685 268.371 237.965 268.371Z" fill="#929398"/>
<path d="M223.974 289.262C225.374 289.49 226.448 290.015 227.194 290.837C227.94 291.644 228.313 292.649 228.313 293.852C228.313 294.781 228.069 295.641 227.582 296.433C227.095 297.209 226.349 297.833 225.344 298.305C224.354 298.777 223.136 299.013 221.69 299.013C220.563 299.013 219.452 298.868 218.356 298.579C217.275 298.275 216.354 297.848 215.593 297.3L217.031 294.469C217.64 294.925 218.341 295.283 219.132 295.542C219.939 295.785 220.761 295.907 221.599 295.907C222.527 295.907 223.258 295.732 223.791 295.382C224.324 295.017 224.59 294.507 224.59 293.852C224.59 292.543 223.593 291.888 221.599 291.888H219.909V289.444L223.197 285.722H216.392V282.753H227.582V285.151L223.974 289.262ZM242.814 288.714C243.834 288.714 244.763 288.919 245.6 289.33C246.438 289.741 247.1 290.327 247.587 291.089C248.074 291.835 248.318 292.702 248.318 293.692C248.318 294.758 248.051 295.694 247.519 296.501C246.986 297.308 246.255 297.932 245.326 298.374C244.413 298.8 243.393 299.013 242.266 299.013C240.028 299.013 238.277 298.328 237.014 296.958C235.75 295.588 235.118 293.631 235.118 291.089C235.118 289.277 235.461 287.724 236.146 286.43C236.831 285.136 237.782 284.154 239 283.484C240.234 282.814 241.657 282.479 243.271 282.479C244.124 282.479 244.938 282.578 245.714 282.776C246.506 282.959 247.176 283.225 247.724 283.575L246.354 286.293C245.562 285.76 244.565 285.494 243.362 285.494C242.007 285.494 240.934 285.889 240.142 286.681C239.351 287.473 238.924 288.622 238.863 290.13C239.807 289.186 241.124 288.714 242.814 288.714ZM242.061 296.25C242.852 296.25 243.492 296.037 243.979 295.61C244.481 295.184 244.733 294.606 244.733 293.875C244.733 293.144 244.481 292.565 243.979 292.139C243.492 291.698 242.837 291.477 242.015 291.477C241.208 291.477 240.546 291.705 240.028 292.162C239.51 292.604 239.252 293.174 239.252 293.875C239.252 294.575 239.503 295.146 240.005 295.588C240.508 296.029 241.193 296.25 242.061 296.25ZM260.917 295.725V298.739H248.837V296.341L255.003 290.518C255.657 289.894 256.099 289.361 256.327 288.919C256.556 288.462 256.67 288.013 256.67 287.572C256.67 286.932 256.449 286.445 256.007 286.11C255.581 285.76 254.949 285.585 254.112 285.585C253.412 285.585 252.78 285.722 252.217 285.996C251.653 286.255 251.181 286.651 250.801 287.184L248.106 285.448C248.73 284.519 249.59 283.796 250.687 283.278C251.783 282.746 253.039 282.479 254.455 282.479C255.642 282.479 256.677 282.677 257.56 283.073C258.459 283.454 259.151 284.002 259.639 284.717C260.141 285.418 260.392 286.247 260.392 287.206C260.392 288.074 260.209 288.889 259.844 289.65C259.479 290.411 258.771 291.279 257.72 292.253L254.044 295.725H260.917ZM267.925 282.753V298.739H264.225V285.722H261.028V282.753H267.925ZM288.839 294.057C288.839 295.306 288.382 296.379 287.469 297.277C286.555 298.161 285.238 298.709 283.518 298.922V301.479H281.234V298.99C280.108 298.929 279.034 298.731 278.014 298.396C276.994 298.062 276.172 297.65 275.548 297.163L276.804 294.377C277.382 294.803 278.06 295.161 278.836 295.451C279.613 295.74 280.412 295.922 281.234 295.999V292.185C280.153 291.926 279.24 291.637 278.494 291.317C277.748 290.997 277.124 290.533 276.621 289.924C276.119 289.3 275.868 288.478 275.868 287.458C275.868 286.194 276.324 285.113 277.238 284.215C278.166 283.301 279.499 282.746 281.234 282.548V280.013H283.518V282.502C285.391 282.654 286.936 283.119 288.154 283.895L287.012 286.704C285.87 286.049 284.705 285.654 283.518 285.516V289.399C284.584 289.642 285.482 289.924 286.213 290.244C286.959 290.548 287.583 291.013 288.085 291.637C288.588 292.246 288.839 293.053 288.839 294.057ZM279.544 287.275C279.544 287.656 279.689 287.968 279.978 288.211C280.267 288.455 280.686 288.66 281.234 288.828V285.585C280.656 285.722 280.229 285.943 279.955 286.247C279.681 286.537 279.544 286.879 279.544 287.275ZM283.518 295.907C284.066 295.785 284.477 295.588 284.751 295.314C285.025 295.039 285.162 294.712 285.162 294.332C285.162 293.951 285.018 293.639 284.728 293.395C284.454 293.152 284.051 292.938 283.518 292.756V295.907Z" fill="#3E54D8"/>
<g filter="url(#filter2_d)">
<rect x="215.615" y="151.309" width="292.769" height="42.4766" rx="3.6539" fill="#FCFDFF"/>
<path d="M230.743 168.98H226.65V166.569H237.795V168.98H233.702V179.358H230.743V168.98ZM243.5 179.577C242.489 179.577 241.509 179.443 240.559 179.175C239.621 178.895 238.866 178.535 238.293 178.097L239.298 175.868C239.846 176.27 240.498 176.593 241.253 176.836C242.008 177.08 242.763 177.202 243.518 177.202C244.359 177.202 244.98 177.08 245.382 176.836C245.784 176.581 245.985 176.246 245.985 175.832C245.985 175.527 245.863 175.277 245.619 175.082C245.388 174.875 245.083 174.711 244.706 174.589C244.34 174.467 243.841 174.333 243.208 174.187C242.233 173.956 241.435 173.724 240.814 173.493C240.193 173.262 239.657 172.89 239.207 172.379C238.768 171.867 238.549 171.185 238.549 170.332C238.549 169.589 238.75 168.92 239.152 168.323C239.554 167.714 240.157 167.233 240.96 166.879C241.776 166.526 242.769 166.35 243.938 166.35C244.754 166.35 245.552 166.447 246.332 166.642C247.111 166.837 247.793 167.117 248.378 167.482L247.464 169.73C246.283 169.06 245.102 168.725 243.92 168.725C243.092 168.725 242.477 168.859 242.075 169.127C241.685 169.395 241.49 169.748 241.49 170.186C241.49 170.625 241.716 170.954 242.166 171.173C242.629 171.38 243.329 171.587 244.267 171.794C245.242 172.025 246.039 172.257 246.661 172.488C247.282 172.72 247.811 173.085 248.25 173.584C248.701 174.084 248.926 174.76 248.926 175.612C248.926 176.343 248.719 177.013 248.305 177.622C247.903 178.219 247.294 178.694 246.478 179.047C245.662 179.4 244.669 179.577 243.5 179.577ZM257.069 179.577C255.765 179.577 254.584 179.297 253.524 178.736C252.477 178.164 251.649 177.378 251.04 176.38C250.443 175.369 250.144 174.23 250.144 172.963C250.144 171.697 250.443 170.564 251.04 169.565C251.649 168.554 252.477 167.769 253.524 167.208C254.584 166.636 255.771 166.35 257.087 166.35C258.195 166.35 259.194 166.545 260.083 166.934C260.984 167.324 261.739 167.884 262.348 168.615L260.448 170.369C259.584 169.37 258.512 168.871 257.233 168.871C256.441 168.871 255.735 169.047 255.114 169.401C254.493 169.742 254.005 170.223 253.652 170.844C253.311 171.465 253.141 172.172 253.141 172.963C253.141 173.755 253.311 174.461 253.652 175.082C254.005 175.704 254.493 176.191 255.114 176.544C255.735 176.885 256.441 177.056 257.233 177.056C258.512 177.056 259.584 176.55 260.448 175.539L262.348 177.293C261.739 178.036 260.984 178.602 260.083 178.992C259.182 179.382 258.177 179.577 257.069 179.577ZM270.273 179.577C268.945 179.577 267.746 179.291 266.674 178.718C265.614 178.146 264.78 177.36 264.171 176.361C263.574 175.35 263.276 174.218 263.276 172.963C263.276 171.709 263.574 170.582 264.171 169.583C264.78 168.572 265.614 167.781 266.674 167.208C267.746 166.636 268.945 166.35 270.273 166.35C271.6 166.35 272.794 166.636 273.854 167.208C274.913 167.781 275.748 168.572 276.357 169.583C276.966 170.582 277.27 171.709 277.27 172.963C277.27 174.218 276.966 175.35 276.357 176.361C275.748 177.36 274.913 178.146 273.854 178.718C272.794 179.291 271.6 179.577 270.273 179.577ZM270.273 177.056C271.028 177.056 271.71 176.885 272.319 176.544C272.928 176.191 273.403 175.704 273.744 175.082C274.097 174.461 274.274 173.755 274.274 172.963C274.274 172.172 274.097 171.465 273.744 170.844C273.403 170.223 272.928 169.742 272.319 169.401C271.71 169.047 271.028 168.871 270.273 168.871C269.518 168.871 268.836 169.047 268.227 169.401C267.618 169.742 267.137 170.223 266.783 170.844C266.442 171.465 266.272 172.172 266.272 172.963C266.272 173.755 266.442 174.461 266.783 175.082C267.137 175.704 267.618 176.191 268.227 176.544C268.836 176.885 269.518 177.056 270.273 177.056Z" fill="#3E54D8"/>
<path d="M285.675 173.909H283.702V173.194H288.462V173.909H286.489V178.949H285.675V173.909ZM289.895 175.323C290.032 175.071 290.234 174.879 290.503 174.748C290.772 174.616 291.098 174.551 291.481 174.551V175.315C291.438 175.31 291.377 175.307 291.301 175.307C290.873 175.307 290.536 175.436 290.289 175.693C290.048 175.945 289.928 176.307 289.928 176.779V178.949H289.138V174.592H289.895V175.323ZM294.033 174.551C294.636 174.551 295.096 174.699 295.414 174.995C295.737 175.291 295.899 175.732 295.899 176.318V178.949H295.151V178.373C295.019 178.576 294.83 178.732 294.584 178.842C294.342 178.946 294.055 178.998 293.72 178.998C293.233 178.998 292.841 178.88 292.545 178.645C292.254 178.409 292.109 178.099 292.109 177.716C292.109 177.332 292.249 177.025 292.528 176.795C292.808 176.559 293.252 176.441 293.86 176.441H295.11V176.285C295.11 175.945 295.011 175.685 294.814 175.504C294.617 175.323 294.326 175.233 293.942 175.233C293.685 175.233 293.433 175.277 293.186 175.364C292.939 175.447 292.731 175.559 292.561 175.702L292.232 175.11C292.457 174.929 292.726 174.792 293.038 174.699C293.35 174.6 293.682 174.551 294.033 174.551ZM293.852 178.39C294.153 178.39 294.414 178.324 294.633 178.193C294.852 178.056 295.011 177.864 295.11 177.617V177.009H293.893C293.224 177.009 292.89 177.233 292.89 177.683C292.89 177.902 292.975 178.075 293.145 178.201C293.315 178.327 293.55 178.39 293.852 178.39ZM299.283 178.998C298.839 178.998 298.441 178.902 298.091 178.711C297.745 178.519 297.474 178.256 297.277 177.921C297.079 177.582 296.981 177.198 296.981 176.77C296.981 176.343 297.079 175.962 297.277 175.628C297.474 175.288 297.745 175.025 298.091 174.838C298.441 174.647 298.839 174.551 299.283 174.551C299.677 174.551 300.028 174.63 300.335 174.789C300.648 174.948 300.889 175.178 301.059 175.48L300.458 175.866C300.321 175.658 300.152 175.502 299.949 175.397C299.746 175.293 299.521 175.241 299.275 175.241C298.99 175.241 298.732 175.304 298.502 175.43C298.277 175.556 298.099 175.737 297.967 175.973C297.841 176.203 297.778 176.469 297.778 176.77C297.778 177.077 297.841 177.349 297.967 177.584C298.099 177.814 298.277 177.993 298.502 178.119C298.732 178.245 298.99 178.308 299.275 178.308C299.521 178.308 299.746 178.256 299.949 178.152C300.152 178.047 300.321 177.891 300.458 177.683L301.059 178.061C300.889 178.363 300.648 178.595 300.335 178.76C300.028 178.919 299.677 178.998 299.283 178.998ZM304.587 178.694C304.471 178.793 304.329 178.87 304.159 178.924C303.989 178.974 303.814 178.998 303.633 178.998C303.194 178.998 302.855 178.88 302.613 178.645C302.372 178.409 302.252 178.072 302.252 177.634V175.241H301.512V174.592H302.252V173.638H303.041V174.592H304.291V175.241H303.041V177.601C303.041 177.836 303.098 178.017 303.214 178.143C303.334 178.269 303.504 178.332 303.723 178.332C303.964 178.332 304.17 178.264 304.34 178.127L304.587 178.694ZM307.262 178.998C306.829 178.998 306.44 178.902 306.095 178.711C305.75 178.519 305.478 178.256 305.281 177.921C305.089 177.582 304.993 177.198 304.993 176.77C304.993 176.343 305.089 175.962 305.281 175.628C305.478 175.288 305.75 175.025 306.095 174.838C306.44 174.647 306.829 174.551 307.262 174.551C307.695 174.551 308.082 174.647 308.422 174.838C308.767 175.025 309.036 175.288 309.227 175.628C309.425 175.962 309.523 176.343 309.523 176.77C309.523 177.198 309.425 177.582 309.227 177.921C309.036 178.256 308.767 178.519 308.422 178.711C308.082 178.902 307.695 178.998 307.262 178.998ZM307.262 178.308C307.542 178.308 307.791 178.245 308.011 178.119C308.235 177.987 308.411 177.806 308.537 177.576C308.663 177.34 308.726 177.072 308.726 176.77C308.726 176.469 308.663 176.203 308.537 175.973C308.411 175.737 308.235 175.556 308.011 175.43C307.791 175.304 307.542 175.241 307.262 175.241C306.983 175.241 306.731 175.304 306.506 175.43C306.287 175.556 306.111 175.737 305.98 175.973C305.854 176.203 305.791 176.469 305.791 176.77C305.791 177.072 305.854 177.34 305.98 177.576C306.111 177.806 306.287 177.987 306.506 178.119C306.731 178.245 306.983 178.308 307.262 178.308ZM311.371 175.323C311.508 175.071 311.711 174.879 311.98 174.748C312.248 174.616 312.574 174.551 312.958 174.551V175.315C312.914 175.31 312.854 175.307 312.777 175.307C312.349 175.307 312.012 175.436 311.766 175.693C311.525 175.945 311.404 176.307 311.404 176.779V178.949H310.615V174.592H311.371V175.323ZM317.987 179.015C317.554 179.015 317.135 178.949 316.729 178.817C316.329 178.68 316.014 178.505 315.784 178.291L316.088 177.65C316.307 177.847 316.587 178.009 316.926 178.135C317.272 178.256 317.625 178.316 317.987 178.316C318.464 178.316 318.82 178.236 319.056 178.078C319.291 177.913 319.409 177.697 319.409 177.428C319.409 177.231 319.343 177.072 319.212 176.951C319.086 176.825 318.927 176.729 318.735 176.663C318.549 176.598 318.283 176.524 317.938 176.441C317.505 176.337 317.154 176.233 316.885 176.129C316.622 176.025 316.395 175.866 316.203 175.652C316.017 175.433 315.923 175.14 315.923 174.773C315.923 174.466 316.003 174.189 316.162 173.942C316.326 173.696 316.573 173.498 316.902 173.35C317.231 173.202 317.639 173.128 318.127 173.128C318.466 173.128 318.801 173.172 319.13 173.26C319.459 173.348 319.741 173.474 319.976 173.638L319.705 174.296C319.464 174.142 319.206 174.027 318.932 173.95C318.658 173.868 318.39 173.827 318.127 173.827C317.661 173.827 317.31 173.912 317.074 174.082C316.844 174.252 316.729 174.471 316.729 174.74C316.729 174.937 316.795 175.099 316.926 175.225C317.058 175.345 317.22 175.441 317.411 175.512C317.609 175.578 317.875 175.65 318.209 175.726C318.642 175.83 318.99 175.935 319.253 176.039C319.516 176.143 319.741 176.302 319.927 176.515C320.119 176.729 320.215 177.017 320.215 177.379C320.215 177.68 320.133 177.957 319.968 178.209C319.804 178.456 319.554 178.653 319.22 178.801C318.886 178.943 318.475 179.015 317.987 179.015ZM325.362 174.592V178.949H324.614V178.291C324.455 178.516 324.244 178.691 323.981 178.817C323.723 178.938 323.441 178.998 323.134 178.998C322.553 178.998 322.096 178.839 321.761 178.521C321.427 178.198 321.26 177.724 321.26 177.099V174.592H322.049V177.009C322.049 177.431 322.15 177.751 322.353 177.971C322.556 178.184 322.846 178.291 323.225 178.291C323.641 178.291 323.97 178.165 324.211 177.913C324.452 177.661 324.573 177.305 324.573 176.844V174.592H325.362ZM329.175 174.551C329.597 174.551 329.975 174.644 330.309 174.83C330.644 175.016 330.904 175.277 331.09 175.611C331.282 175.945 331.378 176.332 331.378 176.77C331.378 177.209 331.282 177.598 331.09 177.938C330.904 178.272 330.644 178.532 330.309 178.719C329.975 178.905 329.597 178.998 329.175 178.998C328.862 178.998 328.575 178.938 328.312 178.817C328.054 178.697 327.835 178.521 327.654 178.291V180.544H326.865V174.592H327.621V175.282C327.796 175.041 328.018 174.86 328.287 174.74C328.556 174.614 328.851 174.551 329.175 174.551ZM329.109 178.308C329.389 178.308 329.638 178.245 329.857 178.119C330.082 177.987 330.257 177.806 330.383 177.576C330.515 177.34 330.581 177.072 330.581 176.77C330.581 176.469 330.515 176.203 330.383 175.973C330.257 175.737 330.082 175.556 329.857 175.43C329.638 175.304 329.389 175.241 329.109 175.241C328.835 175.241 328.586 175.307 328.361 175.438C328.142 175.565 327.966 175.743 327.835 175.973C327.709 176.203 327.646 176.469 327.646 176.77C327.646 177.072 327.709 177.34 327.835 177.576C327.961 177.806 328.136 177.987 328.361 178.119C328.586 178.245 328.835 178.308 329.109 178.308ZM334.779 174.551C335.201 174.551 335.579 174.644 335.913 174.83C336.248 175.016 336.508 175.277 336.694 175.611C336.886 175.945 336.982 176.332 336.982 176.77C336.982 177.209 336.886 177.598 336.694 177.938C336.508 178.272 336.248 178.532 335.913 178.719C335.579 178.905 335.201 178.998 334.779 178.998C334.466 178.998 334.179 178.938 333.916 178.817C333.658 178.697 333.439 178.521 333.258 178.291V180.544H332.469V174.592H333.225V175.282C333.4 175.041 333.622 174.86 333.891 174.74C334.159 174.614 334.455 174.551 334.779 174.551ZM334.713 178.308C334.993 178.308 335.242 178.245 335.461 178.119C335.686 177.987 335.861 177.806 335.987 177.576C336.119 177.34 336.185 177.072 336.185 176.77C336.185 176.469 336.119 176.203 335.987 175.973C335.861 175.737 335.686 175.556 335.461 175.43C335.242 175.304 334.993 175.241 334.713 175.241C334.439 175.241 334.19 175.307 333.965 175.438C333.746 175.565 333.57 175.743 333.439 175.973C333.313 176.203 333.25 176.469 333.25 176.77C333.25 177.072 333.313 177.34 333.439 177.576C333.565 177.806 333.74 177.987 333.965 178.119C334.19 178.245 334.439 178.308 334.713 178.308ZM338.073 172.849H338.862V178.949H338.073V172.849ZM344.225 174.592L342.112 179.385C341.925 179.829 341.706 180.141 341.454 180.322C341.207 180.503 340.909 180.593 340.558 180.593C340.344 180.593 340.136 180.558 339.933 180.486C339.736 180.421 339.571 180.322 339.44 180.19L339.777 179.598C340.002 179.812 340.262 179.919 340.558 179.919C340.75 179.919 340.909 179.867 341.035 179.763C341.166 179.664 341.284 179.492 341.388 179.245L341.528 178.941L339.604 174.592H340.426L341.947 178.078L343.452 174.592H344.225Z" fill="#373943"/>
<rect x="215.844" y="151.538" width="292.312" height="42.0199" rx="3.42553" stroke="#D3E3FF" stroke-width="0.456738"/>
</g>
<g filter="url(#filter3_d)">
<rect x="215.615" y="319.845" width="142.959" height="30.1447" rx="3.6539" fill="#3E54D8"/>
<path opacity="0.9" d="M274.721 335.468H273.652V337.894H272.6V332.139H273.652V334.548H274.754L276.406 332.139H277.541L275.576 334.926L277.615 337.894H276.406L274.721 335.468ZM282.312 333.503L280.257 338.247C280.065 338.724 279.832 339.058 279.558 339.25C279.284 339.447 278.953 339.546 278.563 339.546C278.344 339.546 278.128 339.51 277.914 339.439C277.7 339.368 277.525 339.269 277.388 339.143L277.799 338.387C277.897 338.48 278.013 338.554 278.144 338.609C278.281 338.664 278.418 338.691 278.555 338.691C278.736 338.691 278.884 338.644 278.999 338.551C279.12 338.458 279.229 338.302 279.328 338.083L279.402 337.91L277.486 333.503H278.555L279.936 336.751L281.326 333.503H282.312ZM287.235 333.503V337.894H286.216V334.375H284.054V337.894H283.026V333.503H287.235ZM288.622 333.503H289.65V336.397L292.075 333.503H293.012V337.894H291.985V335L289.567 337.894H288.622V333.503ZM297.872 334.375H296.335V337.894H295.307V334.375H293.762V333.503H297.872V334.375ZM300.821 334.95C301.38 334.95 301.807 335.076 302.103 335.329C302.405 335.581 302.556 335.937 302.556 336.397C302.556 336.88 302.391 337.252 302.062 337.515C301.733 337.779 301.27 337.907 300.673 337.902L298.618 337.894V333.503H299.645V334.942L300.821 334.95ZM300.582 337.145C300.884 337.151 301.114 337.088 301.273 336.956C301.432 336.825 301.511 336.633 301.511 336.381C301.511 336.134 301.435 335.953 301.281 335.838C301.128 335.723 300.895 335.663 300.582 335.657L299.645 335.649V337.137L300.582 337.145Z" fill="white"/>
</g>
<path d="M422.333 337.149C421.747 337.149 421.218 337.023 420.747 336.771C420.275 336.513 419.905 336.16 419.637 335.71C419.368 335.255 419.234 334.748 419.234 334.189C419.234 333.63 419.368 333.126 419.637 332.677C419.905 332.222 420.275 331.868 420.747 331.616C421.218 331.358 421.747 331.23 422.333 331.23C422.92 331.23 423.449 331.358 423.92 331.616C424.391 331.868 424.761 332.219 425.03 332.668C425.298 333.118 425.433 333.625 425.433 334.189C425.433 334.754 425.298 335.261 425.03 335.71C424.761 336.16 424.391 336.513 423.92 336.771C423.449 337.023 422.92 337.149 422.333 337.149ZM422.333 336.212C422.717 336.212 423.062 336.127 423.369 335.957C423.676 335.781 423.917 335.54 424.093 335.233C424.268 334.921 424.356 334.573 424.356 334.189C424.356 333.806 424.268 333.46 424.093 333.153C423.917 332.841 423.676 332.6 423.369 332.43C423.062 332.254 422.717 332.167 422.333 332.167C421.95 332.167 421.604 332.254 421.297 332.43C420.99 332.6 420.749 332.841 420.574 333.153C420.399 333.46 420.311 333.806 420.311 334.189C420.311 334.573 420.399 334.921 420.574 335.233C420.749 335.54 420.99 335.781 421.297 335.957C421.604 336.127 421.95 336.212 422.333 336.212ZM429.897 333.548H428.359V337.067H427.331V333.548H425.786V332.677H429.897V333.548ZM434.958 337.067V334.156L433.478 336.606H433.034L431.579 334.148V337.067H430.642V332.677H431.719L433.281 335.422L434.917 332.677H435.879L435.887 337.067H434.958ZM441.376 334.896C441.376 334.968 441.371 335.069 441.36 335.2H437.915C437.975 335.524 438.132 335.781 438.384 335.973C438.641 336.16 438.959 336.253 439.337 336.253C439.82 336.253 440.217 336.094 440.529 335.776L441.08 336.409C440.883 336.645 440.634 336.823 440.332 336.943C440.031 337.064 439.691 337.124 439.313 337.124C438.83 337.124 438.406 337.028 438.038 336.836C437.671 336.645 437.386 336.379 437.183 336.039C436.986 335.694 436.887 335.305 436.887 334.872C436.887 334.444 436.983 334.06 437.175 333.721C437.372 333.375 437.644 333.107 437.989 332.915C438.334 332.723 438.723 332.627 439.156 332.627C439.584 332.627 439.965 332.723 440.299 332.915C440.639 333.101 440.902 333.367 441.088 333.712C441.28 334.052 441.376 334.447 441.376 334.896ZM439.156 333.449C438.828 333.449 438.548 333.548 438.318 333.745C438.093 333.937 437.956 334.195 437.907 334.518H440.398C440.354 334.2 440.22 333.943 439.995 333.745C439.77 333.548 439.491 333.449 439.156 333.449ZM442.5 332.677H443.528V334.461H445.739V332.677H446.767V337.067H445.739V335.332H443.528V337.067H442.5V332.677ZM448.144 332.677H449.172V335.57L451.597 332.677H452.534V337.067H451.507V334.173L449.09 337.067H448.144V332.677ZM457.394 333.548H455.857V337.067H454.829V333.548H453.284V332.677H457.394V333.548ZM460.343 334.123C460.902 334.123 461.33 334.25 461.626 334.502C461.927 334.754 462.078 335.11 462.078 335.57C462.078 336.053 461.913 336.425 461.585 336.689C461.256 336.952 460.793 337.08 460.195 337.075L458.14 337.067V332.677H459.168V334.115L460.343 334.123ZM460.105 336.319C460.406 336.324 460.636 336.261 460.795 336.129C460.954 335.998 461.034 335.806 461.034 335.554C461.034 335.307 460.957 335.126 460.804 335.011C460.65 334.896 460.417 334.836 460.105 334.83L459.168 334.822V336.31L460.105 336.319Z" fill="#929398"/>
<rect x="201.5" y="49.5" width="321" height="318.26" rx="8.63475" stroke="#D3E3FF"/>
</g>
</g>
<rect x="75.5" y="31.5" width="572" height="355" rx="35.5" stroke="#D3E3FF"/>
</g>
<defs>
<filter id="filter0_d" x="0" y="0" width="723" height="506" filterUnits="userSpaceOnUse" color-interpolation-filters="sRGB">
<feFlood flood-opacity="0" result="BackgroundImageFix"/>
<feColorMatrix in="SourceAlpha" type="matrix" values="0 0 0 0 0 0 0 0 0 0 0 0 0 0 0 0 0 0 127 0"/>
<feMorphology radius="14" operator="erode" in="SourceAlpha" result="effect1_dropShadow"/>
<feOffset dy="44"/>
<feGaussianBlur stdDeviation="44.5"/>
<feColorMatrix type="matrix" values="0 0 0 0 0.243137 0 0 0 0 0.329412 0 0 0 0 0.847059 0 0 0 0.12 0"/>
<feBlend mode="normal" in2="BackgroundImageFix" result="effect1_dropShadow"/>
<feBlend mode="normal" in="SourceGraphic" in2="effect1_dropShadow" result="shape"/>
</filter>
<filter id="filter1_d" x="168.115" y="36.2114" width="387.77" height="385.03" filterUnits="userSpaceOnUse" color-interpolation-filters="sRGB">
<feFlood flood-opacity="0" result="BackgroundImageFix"/>
<feColorMatrix in="SourceAlpha" type="matrix" values="0 0 0 0 0 0 0 0 0 0 0 0 0 0 0 0 0 0 127 0"/>
<feMorphology radius="7.76454" operator="erode" in="SourceAlpha" result="effect1_dropShadow"/>
<feOffset dy="20.0965"/>
<feGaussianBlur stdDeviation="20.3248"/>
<feColorMatrix type="matrix" values="0 0 0 0 0.243137 0 0 0 0 0.329412 0 0 0 0 0.847059 0 0 0 0.06 0"/>
<feBlend mode="normal" in2="BackgroundImageFix" result="effect1_dropShadow"/>
<feBlend mode="normal" in="SourceGraphic" in2="effect1_dropShadow" result="shape"/>
</filter>
<filter id="filter2_d" x="211.505" y="147.199" width="300.99" height="50.6979" filterUnits="userSpaceOnUse" color-interpolation-filters="sRGB">
<feFlood flood-opacity="0" result="BackgroundImageFix"/>
<feColorMatrix in="SourceAlpha" type="matrix" values="0 0 0 0 0 0 0 0 0 0 0 0 0 0 0 0 0 0 127 0"/>
<feOffset/>
<feGaussianBlur stdDeviation="2.05532"/>
<feColorMatrix type="matrix" values="0 0 0 0 0.243137 0 0 0 0 0.329412 0 0 0 0 0.847059 0 0 0 0.18 0"/>
<feBlend mode="normal" in2="BackgroundImageFix" result="effect1_dropShadow"/>
<feBlend mode="normal" in="SourceGraphic" in2="effect1_dropShadow" result="shape"/>
</filter>
<filter id="filter3_d" x="211.505" y="319.845" width="151.18" height="42.4766" filterUnits="userSpaceOnUse" color-interpolation-filters="sRGB">
<feFlood flood-opacity="0" result="BackgroundImageFix"/>
<feColorMatrix in="SourceAlpha" type="matrix" values="0 0 0 0 0 0 0 0 0 0 0 0 0 0 0 0 0 0 127 0"/>
<feMorphology radius="5.93759" operator="erode" in="SourceAlpha" result="effect1_dropShadow"/>
<feOffset dy="8.22128"/>
<feGaussianBlur stdDeviation="5.02411"/>
<feColorMatrix type="matrix" values="0 0 0 0 0.243137 0 0 0 0 0.329412 0 0 0 0 0.847059 0 0 0 0.51 0"/>
<feBlend mode="normal" in2="BackgroundImageFix" result="effect1_dropShadow"/>
<feBlend mode="normal" in="SourceGraphic" in2="effect1_dropShadow" result="shape"/>
</filter>
<clipPath id="clip0">
<rect x="75" y="31" width="573" height="356" rx="36" fill="white"/>
</clipPath>
<clipPath id="clip1">
</clipPath>
</defs>
</svg>
