<svg width="46" height="46" viewBox="0 0 46 46" fill="none" xmlns="http://www.w3.org/2000/svg">
<path d="M21.8217 29.2781C23.9511 29.2704 28.6067 29.2532 28.553 26.2919C28.5013 23.2636 24.0297 23.4457 21.8504 23.5358C21.607 23.5454 21.3904 23.5549 21.2141 23.5569L21.3138 29.2819C21.4575 29.2781 21.63 29.2781 21.8217 29.2781Z" fill="#F7931A"/>
<path d="M21.5937 20.9332C23.3704 20.9313 27.2478 20.9275 27.2018 18.2345C27.152 15.4803 23.4279 15.6432 21.609 15.7237C21.4039 15.7333 21.2257 15.741 21.0762 15.7429L21.1663 20.9351L21.5937 20.9332Z" fill="#F7931A"/>
<path fill-rule="evenodd" clip-rule="evenodd" d="M17.0443 45.2118C29.3129 48.4989 41.9233 41.2179 45.2102 28.9531C48.4972 16.6863 41.2144 4.07597 28.9457 0.790847C16.6847 -2.49797 4.07435 4.78489 0.789231 17.0536C-2.49774 29.3184 4.78321 41.9288 17.0462 45.2138L17.0443 45.2118ZM25.8195 12.7384C29.1767 13.0347 31.8348 14.0664 32.1318 17.1464C32.3532 19.4007 31.4094 20.7549 29.9027 21.5222C32.3843 22.1176 33.9401 23.5921 33.6331 26.8992C33.2529 31.0044 30.1914 32.1069 25.8202 32.3565L25.8178 36.6696L23.2183 36.6722L23.2179 32.4165C22.545 32.4163 21.855 32.4119 21.1402 32.3956L21.1423 36.6705L18.5429 36.6711L18.5416 32.3502L17.8076 32.3432C17.4358 32.3386 17.0601 32.334 16.6844 32.3351L13.299 32.3335L13.8152 29.2294C13.8152 29.2294 15.7393 29.2591 15.7053 29.2298C16.4415 29.2273 16.6366 28.6997 16.6827 28.3669L16.6848 21.5484L16.8707 21.5478L16.9589 21.5493C16.8675 21.5372 16.7754 21.5311 16.6832 21.5311L16.6838 16.662C16.5837 16.135 16.2417 15.5233 15.1893 15.5241C15.2187 15.4863 13.2992 15.5237 13.2992 15.5237L13.2978 12.7479L16.8863 12.7492L16.8861 12.7626C17.4247 12.7624 17.9789 12.7529 18.5408 12.7417L18.5425 8.46879L21.1419 8.47007L21.1416 12.6567C21.8358 12.6439 22.5338 12.6292 23.2182 12.6297L23.2179 8.46989L25.8193 8.46929L25.8194 12.7422L25.8195 12.7384Z" fill="#F7931A"/>
</svg>
