<svg width="210" height="63" viewBox="0 0 210 63" fill="none" xmlns="http://www.w3.org/2000/svg">
<g clip-path="url(#clip0)">
<path d="M0 8.30039C0 3.71621 3.71621 0 8.3004 0H201.7C206.284 0 210 3.71621 210 8.3004V53.9526C210 58.5368 206.284 62.253 201.7 62.253H8.30039C3.71621 62.253 0 58.5368 0 53.9526V8.30039Z" fill="black"/>
<path fill-rule="evenodd" clip-rule="evenodd" d="M0 53.9526V8.3004C0 3.71621 3.71621 0 8.30039 0H201.7C206.284 0 210 3.71621 210 8.30039V53.9526C210 58.5368 206.284 62.253 201.7 62.253H8.3004C3.71621 62.253 0 58.5368 0 53.9526ZM1.24506 53.9526V8.3004C1.24506 4.40384 4.40384 1.24506 8.30039 1.24506H201.7C205.596 1.24506 208.755 4.40384 208.755 8.30039V53.9526C208.755 57.8491 205.596 61.0079 201.7 61.0079H8.3004C4.40384 61.0079 1.24506 57.8491 1.24506 53.9526Z" fill="white" fill-opacity="0.3"/>
<path d="M47.4563 32.3944C47.4349 28.7458 49.088 25.996 52.4263 23.9684C50.5592 21.2935 47.7344 19.8223 44.0109 19.5387C40.4854 19.2605 36.6281 21.5931 35.2158 21.5931C33.7232 21.5931 30.3099 19.635 27.6243 19.635C22.0819 19.7206 16.1917 24.054 16.1917 32.8706C16.1917 35.476 16.6678 38.167 17.6201 40.9382C18.8933 44.5868 23.4835 53.5264 28.2716 53.382C30.7754 53.3231 32.5462 51.6058 35.8043 51.6058C38.966 51.6058 40.6031 53.382 43.3957 53.382C48.2266 53.3124 52.3781 45.186 53.5872 41.5267C47.1085 38.4719 47.4563 32.5817 47.4563 32.3944ZM41.8335 16.0774C44.5459 12.8567 44.2998 9.92502 44.2196 8.87109C41.8229 9.01019 39.0516 10.5028 37.4734 12.3378C35.7347 14.3066 34.7129 16.7407 34.9322 19.4852C37.5216 19.6832 39.8862 18.3511 41.8335 16.0774Z" fill="white"/>
<path d="M76.6772 45.0499H73.9294L72.4243 40.2984H67.1925L65.7588 45.0499H63.0836L68.2669 28.8735H71.4684L76.6772 45.0499ZM71.9705 38.3049L70.6094 34.0809C70.4654 33.6494 70.1956 32.6332 69.7975 31.0335H69.7491C69.5906 31.7215 69.3353 32.7377 68.9844 34.0809L67.6475 38.3049H71.9705Z" fill="white"/>
<path d="M90.0069 39.0744C90.0069 41.0582 89.4733 42.6262 88.4062 43.7773C87.4503 44.802 86.2634 45.3138 84.8466 45.3138C83.3172 45.3138 82.2186 44.7619 81.5495 43.6582H81.5011V49.8027H78.9216V37.2256C78.9216 35.9784 78.8889 34.6985 78.826 33.3857H81.0946L81.2386 35.2345H81.287C82.1472 33.8415 83.4527 33.1462 85.2047 33.1462C86.5743 33.1462 87.7177 33.6896 88.6324 34.7775C89.5496 35.8666 90.0069 37.2985 90.0069 39.0744ZM87.3789 39.1692C87.3789 38.0339 87.1249 37.0979 86.6143 36.3613C86.0565 35.5931 85.3075 35.209 84.3686 35.209C83.7322 35.209 83.1539 35.4229 82.6372 35.8447C82.1194 36.2702 81.7806 36.8257 81.6221 37.5137C81.5423 37.8346 81.5023 38.0971 81.5023 38.3038V40.2486C81.5023 41.0971 81.7613 41.813 82.2791 42.3977C82.797 42.9824 83.4697 43.2741 84.2973 43.2741C85.2688 43.2741 86.025 42.8973 86.5659 42.1461C87.1079 41.3936 87.3789 40.4018 87.3789 39.1692Z" fill="white"/>
<path d="M103.361 39.0744C103.361 41.0582 102.828 42.6262 101.759 43.7773C100.805 44.802 99.6178 45.3138 98.201 45.3138C96.6716 45.3138 95.573 44.7619 94.9051 43.6582H94.8567V49.8027H92.2772V37.2256C92.2772 35.9784 92.2445 34.6985 92.1816 33.3857H94.4502L94.5942 35.2345H94.6426C95.5016 33.8415 96.8071 33.1462 98.5603 33.1462C99.9288 33.1462 101.072 33.6896 101.989 34.7775C102.903 35.8666 103.361 37.2985 103.361 39.0744ZM100.733 39.1692C100.733 38.0339 100.478 37.0979 99.9675 36.3613C99.4097 35.5931 98.6632 35.209 97.7231 35.209C97.0854 35.209 96.5083 35.4229 95.9904 35.8447C95.4726 36.2702 95.135 36.8257 94.9765 37.5137C94.8979 37.8346 94.8567 38.0971 94.8567 38.3038V40.2486C94.8567 41.0971 95.1157 41.813 95.6311 42.3977C96.1489 42.9811 96.8217 43.2741 97.6517 43.2741C98.6233 43.2741 99.3795 42.8973 99.9203 42.1461C100.462 41.3936 100.733 40.4018 100.733 39.1692Z" fill="white"/>
<path d="M118.292 40.5137C118.292 41.8897 117.817 43.0092 116.862 43.8735C115.813 44.8179 114.353 45.2896 112.476 45.2896C110.743 45.2896 109.354 44.9541 108.303 44.2819L108.901 42.1219C110.033 42.8099 111.276 43.1551 112.63 43.1551C113.601 43.1551 114.357 42.9338 114.901 42.4938C115.441 42.0538 115.711 41.4631 115.711 40.7264C115.711 40.0701 115.489 39.517 115.042 39.0684C114.598 38.6199 113.856 38.203 112.821 37.8177C110.002 36.7614 108.593 35.214 108.593 33.1792C108.593 31.8494 109.087 30.759 110.075 29.9106C111.06 29.0609 112.374 28.6367 114.017 28.6367C115.483 28.6367 116.7 28.8932 117.671 29.4049L117.026 31.5175C116.119 31.0216 115.093 30.7736 113.945 30.7736C113.037 30.7736 112.328 30.9985 111.82 31.4458C111.391 31.8457 111.175 32.3332 111.175 32.9105C111.175 33.5499 111.421 34.0787 111.915 34.4944C112.344 34.8785 113.124 35.2942 114.257 35.7427C115.642 36.3031 116.66 36.9583 117.314 37.7095C117.967 38.4582 118.292 39.3954 118.292 40.5137Z" fill="white"/>
<path d="M126.82 35.3308H123.977V40.994C123.977 42.4344 124.478 43.154 125.482 43.154C125.943 43.154 126.326 43.1139 126.628 43.0336L126.699 45.0016C126.191 45.1924 125.522 45.2885 124.693 45.2885C123.675 45.2885 122.878 44.9761 122.304 44.3525C121.731 43.7277 121.443 42.6799 121.443 41.2079V35.3284H119.75V33.3835H121.443V31.2478L123.977 30.4796V33.3835H126.82V35.3308Z" fill="white"/>
<path d="M139.649 39.1218C139.649 40.9147 139.139 42.3867 138.12 43.5379C137.052 44.723 135.634 45.3138 133.866 45.3138C132.162 45.3138 130.806 44.7461 129.795 43.6108C128.783 42.4755 128.277 41.0424 128.277 39.3151C128.277 37.5076 128.798 36.0271 129.842 34.876C130.884 33.7236 132.289 33.1475 134.057 33.1475C135.761 33.1475 137.132 33.7151 138.166 34.8516C139.156 35.9541 139.649 37.3775 139.649 39.1218ZM136.973 39.2057C136.973 38.1299 136.744 37.2074 136.281 36.4379C135.74 35.5068 134.967 35.0425 133.965 35.0425C132.928 35.0425 132.141 35.508 131.6 36.4379C131.136 37.2086 130.908 38.1457 130.908 39.2543C130.908 40.3301 131.136 41.2527 131.6 42.0209C132.158 42.952 132.937 43.4163 133.942 43.4163C134.927 43.4163 135.7 42.9422 136.258 41.9966C136.734 41.2125 136.973 40.2802 136.973 39.2057Z" fill="white"/>
<path d="M148.034 35.6648C147.779 35.6174 147.507 35.5931 147.221 35.5931C146.314 35.5931 145.612 35.9371 145.118 36.6263C144.689 37.2341 144.473 38.0023 144.473 38.9298V45.05H141.895L141.919 37.059C141.919 35.7147 141.886 34.4906 141.822 33.3869H144.069L144.163 35.6186H144.235C144.507 34.8516 144.937 34.2341 145.525 33.771C146.099 33.3541 146.72 33.1462 147.389 33.1462C147.628 33.1462 147.843 33.1633 148.034 33.1936V35.6648Z" fill="white"/>
<path d="M159.57 38.6661C159.57 39.1304 159.54 39.5218 159.476 39.8415H151.737C151.767 40.9938 152.141 41.8751 152.86 42.4828C153.512 43.0262 154.355 43.2985 155.391 43.2985C156.537 43.2985 157.582 43.1149 158.522 42.7466L158.926 44.5456C157.828 45.027 156.531 45.2664 155.034 45.2664C153.234 45.2664 151.82 44.734 150.792 43.6704C149.766 42.6068 149.252 41.1786 149.252 39.3869C149.252 37.628 149.73 36.1633 150.687 34.9951C151.689 33.748 153.043 33.1244 154.746 33.1244C156.419 33.1244 157.686 33.748 158.546 34.9951C159.228 35.9858 159.57 37.2111 159.57 38.6661ZM157.11 37.9939C157.127 37.2257 156.959 36.562 156.609 36.0016C156.163 35.2808 155.477 34.921 154.554 34.921C153.71 34.921 153.024 35.2723 152.5 35.9773C152.071 36.5377 151.816 37.2099 151.737 37.9927H157.11V37.9939Z" fill="white"/>
<path d="M65.7416 18.6559H67.071C68.3549 18.6559 69.1071 19.233 69.1071 20.2057V20.2187C69.1071 21.1201 68.316 21.7102 67.1099 21.7102C65.8778 21.7102 65.0931 21.2238 64.9894 20.3614L64.9829 20.3095H63.5627L63.5692 20.3873C63.6665 21.9306 65.0413 22.9812 67.1099 22.9812C69.1136 22.9812 70.5921 21.8269 70.5921 20.2835V20.2706C70.5921 19.0125 69.8205 18.1241 68.5689 17.9685V17.9166C69.6065 17.6767 70.3068 16.8077 70.3068 15.7702V15.7572C70.3068 14.3111 69.0228 13.3125 67.1423 13.3125C65.1839 13.3125 63.9064 14.2787 63.8092 15.861L63.8027 15.9518H65.1969L65.2034 15.861C65.3136 15.0569 65.9945 14.5835 67.0969 14.5835C68.2187 14.5835 68.8672 15.0828 68.8672 15.9129V15.9258C68.8672 16.8207 68.1474 17.4368 67.0321 17.4368H65.7416V18.6559Z" fill="white"/>
<path d="M75.2889 22.9487C76.1967 22.9487 76.9814 22.4818 77.3769 21.7491H77.4094V22.8255H78.8101V18.1241C78.8101 16.7559 77.753 15.874 76.0865 15.874C74.407 15.874 73.3889 16.7753 73.2916 17.949L73.2851 18.0204H74.608L74.6209 17.962C74.7377 17.4173 75.237 17.0347 76.0476 17.0347C76.9165 17.0347 77.4094 17.4886 77.4094 18.2409V18.7531L75.5483 18.8634C73.9336 18.9607 73.0127 19.6869 73.0127 20.8736V20.8866C73.0127 22.1122 73.9271 22.9487 75.2889 22.9487ZM74.4264 20.8542V20.8412C74.4264 20.2641 74.8933 19.8945 75.7363 19.8426L77.4094 19.7388V20.2706C77.4094 21.159 76.6571 21.8269 75.6715 21.8269C74.9192 21.8269 74.4264 21.4508 74.4264 20.8542Z" fill="white"/>
<path d="M86.2693 17.119V16.0036H81.7494V22.8255H83.1501V17.119H86.2693Z" fill="white"/>
<path d="M88.9039 25.0952H90.3045V21.6777H90.337C90.739 22.4689 91.5237 22.9617 92.4899 22.9617C94.2018 22.9617 95.3237 21.5934 95.3237 19.4211V19.4146C95.3237 17.2357 94.2083 15.874 92.4704 15.874C91.4977 15.874 90.7455 16.3668 90.337 17.1774H90.3045V16.0036H88.9039V25.0952ZM92.1073 21.7556C91.0503 21.7556 90.2981 20.8347 90.2981 19.4211V19.4146C90.2981 17.9944 91.0438 17.0736 92.1073 17.0736C93.2097 17.0736 93.8971 17.962 93.8971 19.4146V19.4211C93.8971 20.8607 93.2097 21.7556 92.1073 21.7556Z" fill="white"/>
<path d="M98.6132 25.1017C99.9491 25.1017 100.662 24.5569 101.168 23.1433L103.71 16.0036H102.232L100.513 21.5545H100.468L98.7494 16.0036H97.232L99.7156 22.832L99.5989 23.1562C99.3655 23.8177 99.0023 23.9928 98.3409 23.9928C98.1528 23.9928 97.9907 23.9668 97.8805 23.9409V25.0368C98.0491 25.0692 98.3409 25.1017 98.6132 25.1017Z" fill="white"/>
<path d="M108.524 22.9617C110.197 22.9617 111.306 22.1122 111.306 20.8412V20.8282C111.306 20.0306 110.813 19.4859 109.911 19.3043V19.2525C110.644 19.0839 111.118 18.5067 111.118 17.774V17.761C111.118 16.5938 110.158 15.874 108.588 15.874C107.052 15.874 106.047 16.6002 105.884 17.8129L105.878 17.8647H107.214L107.22 17.8194C107.324 17.3006 107.836 16.9828 108.569 16.9828C109.308 16.9828 109.749 17.3265 109.749 17.9101V17.9231C109.749 18.5327 109.328 18.8439 108.504 18.8439H107.525V19.862H108.511C109.457 19.862 109.911 20.1733 109.911 20.8282V20.8412C109.911 21.4637 109.38 21.8463 108.517 21.8463C107.745 21.8463 107.24 21.548 107.084 20.9969L107.065 20.932H105.69L105.696 20.9904C105.833 22.1965 106.928 22.9617 108.524 22.9617Z" fill="white"/>
<path d="M113.999 22.8255H115.38L118.512 18.0333H118.57V22.8255H119.964V16.0036H118.583L115.451 20.7764H115.386V16.0036H113.999V22.8255Z" fill="white"/>
<path d="M128.118 16.0036H122.443V17.119H124.577V22.8255H125.984V17.119H128.118V16.0036Z" fill="white"/>
<path d="M133.385 22.9617C135.038 22.9617 136.095 21.976 136.309 20.8931L136.329 20.8218H134.993L134.974 20.8736C134.799 21.3859 134.247 21.8139 133.417 21.8139C132.302 21.8139 131.595 21.0617 131.569 19.7712H136.4V19.2979C136.4 17.2487 135.227 15.874 133.314 15.874C131.401 15.874 130.168 17.3006 130.168 19.434V19.4405C130.168 21.5934 131.381 22.9617 133.385 22.9617ZM133.32 17.0217C134.234 17.0217 134.902 17.5989 135.013 18.7791H131.589C131.718 17.6378 132.412 17.0217 133.32 17.0217Z" fill="white"/>
<path d="M143.226 22.8255H146.364C147.843 22.8255 148.764 22.0603 148.764 20.8672V20.8542C148.764 20.0177 148.18 19.4081 147.298 19.2914V19.2395C147.953 19.1163 148.459 18.4743 148.459 17.7675V17.7545C148.459 16.6716 147.655 16.0036 146.325 16.0036H143.226V22.8255ZM144.614 18.818V17.0412H146.034C146.708 17.0412 147.071 17.346 147.071 17.9101V17.9231C147.071 18.5262 146.682 18.818 145.891 18.818H144.614ZM144.614 21.788V19.8361H145.943C146.864 19.8361 147.324 20.1409 147.324 20.7958V20.8088C147.324 21.4573 146.896 21.788 146.105 21.788H144.614Z" fill="white"/>
</g>
<defs>
<clipPath id="clip0">
<rect width="210" height="62.253" fill="white"/>
</clipPath>
</defs>
</svg>
