<svg width="210" height="63" viewBox="0 0 210 63" fill="none" xmlns="http://www.w3.org/2000/svg">
<g clip-path="url(#clip0)">
<path d="M0 8.30039C0 3.71621 3.71621 0 8.3004 0H201.7C206.284 0 210 3.71621 210 8.3004V53.9526C210 58.5368 206.284 62.253 201.7 62.253H8.30039C3.71621 62.253 0 58.5368 0 53.9526V8.30039Z" fill="black"/>
<path fill-rule="evenodd" clip-rule="evenodd" d="M0 53.9526V8.3004C0 3.71621 3.71621 0 8.30039 0H201.7C206.284 0 210 3.71621 210 8.30039V53.9526C210 58.5368 206.284 62.253 201.7 62.253H8.3004C3.71621 62.253 0 58.5368 0 53.9526ZM1.24506 53.9526V8.3004C1.24506 4.40384 4.40384 1.24506 8.30039 1.24506H201.7C205.596 1.24506 208.755 4.40384 208.755 8.30039V53.9526C208.755 57.8491 205.596 61.0079 201.7 61.0079H8.3004C4.40384 61.0079 1.24506 57.8491 1.24506 53.9526Z" fill="white" fill-opacity="0.3"/>
<path d="M106.406 33.82C102.669 33.82 99.5808 36.7385 99.5808 40.7401C99.5808 44.709 102.636 47.6601 106.406 47.6601C110.175 47.6601 113.23 44.7416 113.23 40.7401C113.23 36.7385 110.175 33.82 106.406 33.82ZM106.406 44.9065C104.358 44.9065 102.571 43.1677 102.571 40.7092C102.571 38.2166 104.359 36.5119 106.406 36.5119C108.452 36.5119 110.24 38.2166 110.24 40.7092C110.24 43.1677 108.452 44.9065 106.406 44.9065ZM91.5536 33.82C87.7838 33.82 84.7285 36.7385 84.7285 40.7401C84.7285 44.709 87.7838 47.6601 91.5536 47.6601C95.3231 47.6601 98.3784 44.7416 98.3784 40.7401C98.3784 36.7385 95.3231 33.82 91.5533 33.82H91.5536ZM91.5536 44.9065C89.5054 44.9065 87.7194 43.1677 87.7194 40.7092C87.7194 38.2166 89.5071 36.5119 91.5536 36.5119C93.6015 36.5119 95.3879 38.2166 95.3879 40.7092C95.3879 43.1677 93.6321 44.9065 91.5536 44.9065ZM73.9065 35.952V38.8705H80.7957C80.5999 40.5102 80.0491 41.7237 79.236 42.5442C78.2289 43.5605 76.6689 44.6763 73.9065 44.6763C69.6484 44.6763 66.3671 41.2001 66.3671 36.9033C66.3671 32.6065 69.6502 29.0646 73.9065 29.0646C76.2131 29.0646 77.8717 29.9832 79.1065 31.1644L81.1529 29.0973C79.4299 27.4253 77.1233 26.1465 73.9065 26.1465C68.0884 26.1465 63.2133 30.9668 63.2133 36.838C63.2133 42.7094 68.0884 47.5298 73.9065 47.5298C77.0585 47.5298 79.3993 46.4808 81.2839 44.5118C83.2012 42.5769 83.7862 39.8541 83.7862 37.6571C83.7862 36.9687 83.7218 36.3453 83.6232 35.8202L73.9065 35.952ZM146.12 38.2148C145.567 36.6731 143.813 33.82 140.301 33.82C136.791 33.82 133.899 36.6081 133.899 40.7401C133.899 44.6095 136.791 47.6601 140.627 47.6601C143.746 47.6601 145.534 45.7253 146.281 44.6095L143.975 43.0355C143.194 44.1839 142.154 44.9374 140.627 44.9374C139.099 44.9374 138.027 44.2489 137.344 42.838L146.411 39.0012L146.12 38.2148ZM136.889 40.5443C136.825 37.8869 138.938 36.5101 140.431 36.5101C141.634 36.5101 142.609 37.1005 142.966 37.9864L136.889 40.5443ZM129.512 47.2016H132.502V26.9326H129.512V47.2016ZM124.638 35.3617H124.541C123.859 34.5411 122.592 33.82 120.965 33.82C117.553 33.82 114.466 36.8706 114.466 40.7401C114.466 44.6095 117.585 47.6278 120.965 47.6278C122.59 47.6278 123.857 46.9064 124.541 46.0531H124.638V47.0371C124.638 49.6945 123.24 51.1037 120.998 51.1037C119.178 51.1037 118.04 49.7595 117.585 48.6438L114.986 49.7595C115.733 51.5964 117.716 53.8591 120.998 53.8591C124.507 53.8591 127.465 51.7598 127.465 46.6765V34.2459H124.638V35.3617ZM121.226 44.9065C119.178 44.9065 117.456 43.1677 117.456 40.7419C117.456 38.3161 119.179 36.5442 121.226 36.5442C123.241 36.5442 124.866 38.3161 124.866 40.7419C124.864 43.135 123.24 44.9065 121.226 44.9065ZM160.062 26.9329H152.912V47.2016H155.903V39.5263H160.062C163.377 39.5263 166.626 37.0987 166.626 33.2296C166.626 29.3602 163.377 26.9326 160.062 26.9326V26.9329ZM160.158 36.7076H155.933V29.753H160.158C162.368 29.753 163.668 31.6226 163.668 33.2292C163.637 34.8036 162.37 36.7076 160.158 36.7076ZM178.554 33.7873C176.409 33.7873 174.167 34.7386 173.257 36.9033L175.89 38.0191C176.475 36.9033 177.515 36.5428 178.621 36.5428C180.181 36.5428 181.74 37.4937 181.773 39.1657V39.3632C181.22 39.0354 180.083 38.5753 178.653 38.5753C175.793 38.5753 172.9 40.1824 172.9 43.135C172.9 45.8574 175.24 47.5951 177.84 47.5951C179.855 47.5951 180.959 46.6765 181.642 45.5949H181.739V47.1692H184.63V39.3956C184.598 35.8213 181.967 33.7869 178.554 33.7869V33.7873ZM178.197 44.8738C177.222 44.8738 175.856 44.3811 175.856 43.1691C175.856 41.5948 177.545 41.0044 179.008 41.0044C180.308 41.0044 180.926 41.2996 181.739 41.6928C181.511 43.5623 179.919 44.8738 178.197 44.8738ZM195.063 34.2477L191.651 43.0043H191.554L188.012 34.2473H184.796L190.125 46.5131L187.102 53.3682H190.221L198.378 34.2473H195.063L195.063 34.2477ZM168.285 47.2016H171.275V26.9326H168.285V47.2016Z" fill="white"/>
<path d="M72.2492 17.4328V20.4425H71.0058V18.6762H65.2884V20.4425H64.045V17.4328H64.9747C65.2846 16.9989 65.5131 16.3753 65.6603 15.5619C65.8075 14.7407 65.8811 13.8498 65.8811 12.8891V10.3559H71.3311V17.4328H72.2492ZM70.0296 17.4328V11.5993H67.171V13.1099C67.171 13.9776 67.1012 14.7833 66.9618 15.527C66.8301 16.2707 66.6287 16.906 66.3575 17.4328H70.0296Z" fill="white"/>
<path d="M77.5253 18.8621C76.7196 18.8621 75.9876 18.6723 75.3291 18.2927C74.6706 17.9053 74.1515 17.3785 73.7719 16.7123C73.4 16.046 73.2141 15.314 73.2141 14.516C73.2141 13.7181 73.4 12.9898 73.7719 12.3313C74.1515 11.6651 74.6706 11.1383 75.3291 10.7509C75.9876 10.3636 76.7196 10.1699 77.5253 10.1699C78.331 10.1699 79.0593 10.3636 79.71 10.7509C80.3685 11.1383 80.8876 11.6651 81.2672 12.3313C81.6468 12.9898 81.8366 13.7181 81.8366 14.516C81.8366 15.314 81.6468 16.046 81.2672 16.7123C80.8953 17.3785 80.3801 17.9053 79.7216 18.2927C79.0631 18.6723 78.331 18.8621 77.5253 18.8621ZM77.5253 17.6187C78.0754 17.6187 78.5789 17.487 79.036 17.2236C79.4931 16.9602 79.8533 16.5961 80.1167 16.1313C80.3801 15.6587 80.5118 15.1203 80.5118 14.516C80.5118 13.9117 80.3801 13.3772 80.1167 12.9124C79.8533 12.4398 79.4931 12.0718 79.036 11.8084C78.5789 11.545 78.0754 11.4133 77.5253 11.4133C76.9753 11.4133 76.4717 11.545 76.0147 11.8084C75.5576 12.0718 75.1935 12.4398 74.9223 12.9124C74.6589 13.3772 74.5272 13.9117 74.5272 14.516C74.5272 15.1203 74.6589 15.6587 74.9223 16.1313C75.1935 16.5961 75.5576 16.9602 76.0147 17.2236C76.4717 17.487 76.9753 17.6187 77.5253 17.6187Z" fill="white"/>
<path d="M87.1381 18.8621C86.3324 18.8621 85.5964 18.6723 84.9302 18.2927C84.2639 17.9131 83.741 17.3902 83.3614 16.7239C82.9818 16.0577 82.792 15.3217 82.792 14.516C82.792 13.7103 82.9818 12.9743 83.3614 12.3081C83.741 11.6419 84.2639 11.1189 84.9302 10.7393C85.5964 10.3597 86.3324 10.1699 87.1381 10.1699C87.7656 10.1699 88.335 10.2861 88.8463 10.5185C89.3654 10.7509 89.8224 11.0879 90.2175 11.5295L89.2879 12.4243C89.0012 12.0834 88.6836 11.8317 88.335 11.669C87.9864 11.4985 87.5874 11.4133 87.1381 11.4133C86.5803 11.4133 86.069 11.5411 85.6042 11.7968C85.1471 12.0525 84.783 12.4166 84.5118 12.8891C84.2407 13.354 84.1051 13.8962 84.1051 14.516C84.1051 15.1358 84.2407 15.6819 84.5118 16.1545C84.783 16.6193 85.1471 16.9796 85.6042 17.2352C86.069 17.4909 86.5803 17.6187 87.1381 17.6187C88.0677 17.6187 88.8579 17.2313 89.5087 16.4566L90.4499 17.363C90.0471 17.8356 89.5629 18.2036 88.9974 18.467C88.4318 18.7304 87.8121 18.8621 87.1381 18.8621Z" fill="white"/>
<path d="M93.588 11.5993H91.2639V10.3559H97.2136V11.5993H94.8895V18.6762H93.588V11.5993Z" fill="white"/>
<path d="M99.3684 18.8621C99.0818 18.8621 98.8378 18.8117 98.6363 18.711V17.4444C98.892 17.5838 99.1244 17.6536 99.3336 17.6536C99.5428 17.6536 99.7093 17.6148 99.8333 17.5374C99.9572 17.4521 100.07 17.2972 100.17 17.0725L100.461 16.4683L97.6951 10.3559H99.1476L101.088 14.9692H101.158L103.11 10.3559H104.563L101.379 17.3514C101.146 17.8705 100.864 18.254 100.53 18.5019C100.205 18.742 99.8178 18.8621 99.3684 18.8621Z" fill="white"/>
<path d="M105.691 10.3559H111.885V18.6762H110.583V11.5993H106.993V18.6762H105.691V10.3559Z" fill="white"/>
<path d="M113.782 10.3559H115.084V13.8072H118.942V10.3559H120.232V18.6762H118.942V15.0389H115.084V18.6762H113.782V10.3559Z" fill="white"/>
<path d="M125.914 18.8621C125.108 18.8621 124.376 18.6723 123.718 18.2927C123.059 17.9053 122.54 17.3785 122.161 16.7123C121.789 16.046 121.603 15.314 121.603 14.516C121.603 13.7181 121.789 12.9898 122.161 12.3313C122.54 11.6651 123.059 11.1383 123.718 10.7509C124.376 10.3636 125.108 10.1699 125.914 10.1699C126.72 10.1699 127.448 10.3636 128.099 10.7509C128.757 11.1383 129.276 11.6651 129.656 12.3313C130.035 12.9898 130.225 13.7181 130.225 14.516C130.225 15.314 130.035 16.046 129.656 16.7123C129.284 17.3785 128.769 17.9053 128.11 18.2927C127.452 18.6723 126.72 18.8621 125.914 18.8621ZM125.914 17.6187C126.464 17.6187 126.968 17.487 127.425 17.2236C127.882 16.9602 128.242 16.5961 128.505 16.1313C128.769 15.6587 128.901 15.1203 128.901 14.516C128.901 13.9117 128.769 13.3772 128.505 12.9124C128.242 12.4398 127.882 12.0718 127.425 11.8084C126.968 11.545 126.464 11.4133 125.914 11.4133C125.364 11.4133 124.86 11.545 124.403 11.8084C123.946 12.0718 123.582 12.4398 123.311 12.9124C123.048 13.3772 122.916 13.9117 122.916 14.516C122.916 15.1203 123.048 15.6587 123.311 16.1313C123.582 16.5961 123.946 16.9602 124.403 17.2236C124.86 17.487 125.364 17.6187 125.914 17.6187Z" fill="white"/>
<path d="M134.436 10.3559H137.562C138.004 10.3559 138.41 10.4527 138.782 10.6464C139.162 10.84 139.464 11.1073 139.689 11.4482C139.913 11.7891 140.026 12.1648 140.026 12.5754C140.026 12.986 139.921 13.3423 139.712 13.6445C139.51 13.9466 139.243 14.1751 138.91 14.3301V14.3998C139.328 14.547 139.665 14.791 139.921 15.1319C140.184 15.4728 140.316 15.8717 140.316 16.3288C140.316 16.7859 140.196 17.1926 139.956 17.549C139.723 17.9053 139.406 18.1842 139.003 18.3857C138.608 18.5793 138.174 18.6762 137.701 18.6762H134.436V10.3559ZM137.504 13.842C137.876 13.842 138.174 13.7258 138.399 13.4934C138.631 13.261 138.747 12.9937 138.747 12.6916C138.747 12.3894 138.635 12.126 138.41 11.9014C138.193 11.669 137.907 11.5528 137.55 11.5528H135.738V13.842H137.504ZM137.701 17.4676C138.097 17.4676 138.41 17.3437 138.643 17.0958C138.883 16.8479 139.003 16.5612 139.003 16.2359C139.003 15.9027 138.879 15.6161 138.631 15.3759C138.391 15.128 138.066 15.0041 137.655 15.0041H135.738V17.4676H137.701Z" fill="white"/>
<path d="M44.2799 37.8007C49.2521 35.0453 53.0219 32.9459 53.3468 32.7829C54.3859 32.2248 55.4595 30.7485 53.3468 29.6019C52.6647 29.2413 48.992 27.2069 44.2799 24.584L37.7479 31.2412L44.2795 37.8007H44.2799Z" fill="#FFD900"/>
<path d="M37.7473 31.2422L16.948 52.3971C17.4359 52.4625 17.9871 52.3317 18.6372 51.9712C20.0015 51.2178 34.4639 43.2469 44.2795 37.8032L37.7473 31.2422Z" fill="#F43249"/>
<path d="M37.7482 31.2417L44.2797 24.6168C44.2797 24.6168 20.101 11.3006 18.6377 10.5149C18.0873 10.1845 17.4695 10.0868 16.9169 10.1845L37.7482 31.2414V31.2417Z" fill="#00EE76"/>
<path d="M37.7482 31.2424L16.9166 10.1855C16.0711 10.3827 15.3566 11.1365 15.3566 12.6774V49.9044C15.3566 51.3157 15.9096 52.332 16.9486 52.4296L37.7479 31.2421L37.7482 31.2424Z" fill="#00D3FF"/>
</g>
<defs>
<clipPath id="clip0">
<rect width="210" height="62.253" fill="white"/>
</clipPath>
</defs>
</svg>
