<svg width="256" height="273" viewBox="0 0 256 273" fill="none" xmlns="http://www.w3.org/2000/svg">
<path d="M38.4508 54.5063C6.83895 54.5063 6.78405 99.4534 38.4508 99.4534C70.1175 99.4534 70.1114 54.5063 38.4508 54.5063Z" fill="#EBEBEB"/>
<path d="M57.6728 81.1951C55.983 88.9242 49.5716 95.6346 38.4446 95.6346C12.1706 95.6346 12.2133 58.3251 38.4446 58.3251C38.6154 58.3251 38.7862 58.3251 38.957 58.3251C14.2752 58.7765 14.3911 94.1034 39.4451 94.1034C49.6631 94.1156 55.7512 88.2044 57.6728 81.1951Z" fill="#DBDBDB"/>
<path d="M38.6338 63.2419C38.8423 63.2368 39.0446 63.3128 39.1983 63.4539C39.3519 63.595 39.4447 63.7902 39.4573 63.9984V65.2184C41.6561 65.3607 43.7704 66.1197 45.5576 67.4085C45.8626 67.6281 46.0334 67.8111 46.0334 68.1283C46.0178 68.3484 45.9163 68.5536 45.7509 68.6996C45.5854 68.8456 45.3693 68.9209 45.1489 68.9091C44.9249 68.917 44.7064 68.8384 44.5389 68.6895C43.048 67.5536 41.2729 66.8507 39.4085 66.6581V75.4182C44.606 76.4186 46.796 78.1999 46.796 81.2684C46.796 84.5869 43.7458 86.9295 39.4756 87.0576V89.4977C39.4579 89.7031 39.3638 89.8944 39.2119 90.0337C39.0599 90.1731 38.8613 90.2504 38.6551 90.2504C38.449 90.2504 38.2503 90.1731 38.0984 90.0337C37.9465 89.8944 37.8524 89.7031 37.8346 89.4977V87.0576C35.0132 86.8765 32.321 85.809 30.1421 84.0074C30.0287 83.9398 29.9344 83.8444 29.8682 83.7302C29.802 83.6159 29.7661 83.4867 29.7639 83.3547C29.7822 83.1405 29.88 82.941 30.0381 82.7953C30.1962 82.6497 30.403 82.5685 30.618 82.5677C30.8413 82.564 31.0583 82.6421 31.228 82.7873C33.0854 84.4308 35.4241 85.43 37.8956 85.6362V76.7297C32.7714 75.6988 30.6363 73.9785 30.6363 70.849C30.6363 67.7196 33.6437 65.2794 37.8163 65.1879V63.9679C37.8362 63.7662 37.9315 63.5795 38.083 63.4449C38.2345 63.3104 38.4312 63.2379 38.6338 63.2419ZM37.8834 75.1375V66.5971C34.5649 66.6642 32.3931 68.476 32.3931 70.727C32.3809 72.8804 33.4729 74.1676 37.8834 75.1375ZM39.3902 77.0408V85.6911C42.8064 85.6301 45.033 83.8122 45.033 81.4209C45.033 79.2675 43.8373 77.9498 39.3902 77.0408Z" fill="#DBDBDB"/>
<path d="M217.165 188.945C188.701 194.051 196.217 236.216 224.73 231.098C253.243 225.98 245.672 183.827 217.165 188.945Z" fill="#DBDBDB"/>
<path d="M219.837 188.463C192.709 193.343 200.231 235.497 227.402 230.616C254.573 225.736 247.002 183.589 219.837 188.463Z" fill="#EBEBEB"/>
<path d="M240.823 210.534C240.676 218.043 236.302 225.321 226.755 227.035C204.184 231.08 197.962 196.088 220.478 192.05C220.624 192.017 220.771 191.993 220.917 191.977C199.81 196.204 205.862 229.317 227.359 225.461C236.125 223.888 240.353 217.403 240.823 210.534Z" fill="#DBDBDB"/>
<path d="M225.248 196.613C225.432 196.642 225.598 196.74 225.712 196.888C225.825 197.035 225.878 197.221 225.859 197.406L225.718 198.589C227.625 198.968 229.375 199.907 230.745 201.286C230.858 201.368 230.949 201.478 231.007 201.605C231.066 201.732 231.091 201.872 231.08 202.012C231.052 202.211 230.946 202.39 230.786 202.512C230.627 202.634 230.426 202.689 230.226 202.664C230.127 202.656 230.031 202.628 229.943 202.582C229.855 202.536 229.777 202.473 229.714 202.396C228.58 201.185 227.113 200.337 225.499 199.956L224.523 208.246C228.915 209.723 230.623 211.632 230.269 214.536C229.903 217.671 227.005 219.581 223.29 219.263L223.016 221.575C222.994 221.764 222.898 221.936 222.749 222.054C222.601 222.172 222.411 222.226 222.223 222.204C222.034 222.182 221.862 222.086 221.744 221.937C221.626 221.789 221.573 221.599 221.594 221.411L221.869 219.068C219.412 218.589 217.187 217.3 215.549 215.408C215.429 215.303 215.345 215.163 215.31 215.007C215.275 214.851 215.291 214.688 215.355 214.542C215.419 214.396 215.528 214.274 215.666 214.193C215.804 214.113 215.964 214.079 216.122 214.096C216.32 214.117 216.501 214.213 216.629 214.365C218.01 216.08 219.937 217.271 222.089 217.738L223.101 209.296C218.776 207.801 217.135 205.953 217.483 202.994C217.831 200.035 220.704 198.028 224.327 198.364L224.462 197.241C224.486 197.055 224.582 196.886 224.728 196.769C224.875 196.651 225.062 196.596 225.248 196.613ZM223.278 207.789L224.224 199.706C221.344 199.425 219.252 200.926 219.002 203.055C218.764 205.068 219.563 206.422 223.278 207.789ZM224.364 209.747L223.406 217.921C226.371 218.208 228.5 216.701 228.762 214.469C229.006 212.425 228.116 211.059 224.364 209.747Z" fill="#DBDBDB"/>
<path d="M225.413 174.689L233.563 174.518L237.577 174.451C238.913 174.42 240.237 174.451 241.567 174.414L241.298 174.689L241.262 167.862L241.567 168.167L233.472 168.131C230.781 168.131 228.091 168.057 225.395 168.027L225.566 167.862C225.566 168.979 225.511 170.101 225.48 171.242L225.413 174.689ZM225.413 174.689L225.328 171.309C225.328 170.174 225.261 169.021 225.248 167.862V167.698H225.413C228.109 167.667 230.8 167.6 233.49 167.594L241.567 167.557H241.872V167.862V174.689V174.963H241.597C240.237 174.963 238.87 174.963 237.516 174.926L233.453 174.859L225.413 174.689Z" fill="#EBEBEB"/>
<path d="M234.423 183.296L242.573 183.125L246.587 183.058C247.923 183.028 249.247 183.058 250.577 183.022L250.309 183.296L250.278 176.47L250.577 176.775L242.5 176.738C239.81 176.738 237.12 176.665 234.423 176.635L234.594 176.47C234.594 177.586 234.539 178.709 234.515 179.849L234.423 183.296ZM234.423 183.296L234.338 179.916C234.338 178.782 234.271 177.629 234.259 176.47V176.305H234.423C237.12 176.275 239.81 176.207 242.5 176.201L250.577 176.165H250.888V176.47L250.851 183.296V183.571H250.553C249.192 183.571 247.832 183.571 246.471 183.534L242.409 183.467L234.423 183.296Z" fill="#EBEBEB"/>
<path d="M216.391 183.296L224.541 183.125L228.555 183.058C229.885 183.028 231.215 183.058 232.544 183.022L232.276 183.296L232.252 176.47L232.557 176.775L224.48 176.738C221.79 176.738 219.093 176.665 216.403 176.635L216.568 176.47C216.568 177.586 216.519 178.709 216.488 179.849L216.391 183.296ZM216.391 183.296L216.305 179.916C216.275 178.782 216.238 177.629 216.226 176.47V176.305H216.391C219.081 176.275 221.777 176.207 224.468 176.201L232.544 176.165H232.849V176.47L232.862 183.296V183.571H232.593C231.233 183.571 229.866 183.571 228.512 183.534L224.449 183.467L216.391 183.296Z" fill="#EBEBEB"/>
<path d="M8.20535 183.296L16.3493 183.125L20.3633 183.058C21.6992 183.028 23.0291 183.058 24.359 183.022L24.0845 183.296L24.054 176.47L24.359 176.775L16.3005 176.738C13.6041 176.738 10.9139 176.665 8.22365 176.635L8.38836 176.47C8.38836 177.586 8.33346 178.709 8.30906 179.849L8.20535 183.296ZM8.20535 183.296L8.11385 179.916C8.11385 178.782 8.04675 177.629 8.03455 176.47V176.305H8.20535C10.8956 176.275 13.5858 176.207 16.2822 176.201L24.359 176.165H24.664V176.47L24.6274 183.296V183.571H24.359C22.9986 183.571 21.6321 183.571 20.2718 183.534L16.209 183.467L8.20535 183.296Z" fill="#EBEBEB"/>
<path d="M146.975 75.827L138.831 75.9978L134.817 76.0649C133.481 76.0649 132.152 76.0649 130.822 76.1015L131.096 75.827L131.127 82.6532L130.822 82.3482L138.899 82.3909C141.595 82.3909 144.285 82.458 146.975 82.4885L146.811 82.6532C146.811 81.5369 146.866 80.4144 146.89 79.2798L146.975 75.827ZM146.975 75.827L147.067 79.2066C147.067 80.3473 147.134 81.4942 147.146 82.6532V82.8179H146.975C144.285 82.8179 141.595 82.9095 138.899 82.9156L130.822 82.9522H130.517V82.641L130.553 75.8148V75.5403H130.822C132.182 75.5403 133.549 75.5403 134.909 75.5403L138.972 75.6074L146.975 75.827Z" fill="#EBEBEB"/>
<path d="M137.965 67.2193L129.821 67.3901L125.807 67.4572C124.471 67.4572 123.141 67.4572 121.812 67.4938L122.086 67.2193L122.117 74.0456L121.812 73.7406L129.888 73.7833C132.579 73.7833 135.275 73.8504 137.965 73.8809L137.801 74.0456C137.801 72.9292 137.849 71.8068 137.88 70.6721L137.965 67.2193ZM137.965 67.2193L138.051 70.5989C138.081 71.7397 138.124 72.8865 138.13 74.0456V74.2103H137.959C135.269 74.2103 132.573 74.3018 129.882 74.3079L121.806 74.3445H121.5V74.0395L121.537 67.2132V66.9387H121.836C123.196 66.9387 124.563 66.9387 125.923 66.9387L129.986 67.0058L137.965 67.2193Z" fill="#EBEBEB"/>
<path d="M231.044 0.896729H230.434V73.6307H231.044V0.896729Z" fill="#C7C7C7"/>
<path d="M205.483 97.9711L207.515 102.437H253.969L255.994 97.9711L236.217 84.282H225.261L205.483 97.9711Z" fill="#EBEBEB"/>
<path d="M223.888 71.0931L225.261 84.282H236.217L237.589 71.0931H223.888Z" fill="#DBDBDB"/>
<path d="M205.49 97.9771L207.521 102.442H253.975L256 97.9771H205.49Z" fill="#DBDBDB"/>
<path d="M176.818 0.896729H176.208V59.2218H176.818V0.896729Z" fill="#C7C7C7"/>
<path d="M151.258 83.5682L153.289 88.0337H199.743L201.768 83.5682L181.991 69.8792H171.035L151.258 83.5682Z" fill="#EBEBEB"/>
<path d="M169.662 56.6902L171.035 69.8791H181.991L183.364 56.6902H169.662Z" fill="#DBDBDB"/>
<path d="M151.258 83.5682L153.289 88.0337H199.743L201.768 83.5682H151.258Z" fill="#DBDBDB"/>
<path d="M0.0126953 245.519L31.2341 245.373L62.4494 245.318L124.886 245.214L187.323 245.318L218.538 245.367L249.753 245.519L218.538 245.666L187.323 245.72L124.886 245.824L62.4494 245.72L31.2341 245.666L0.0126953 245.519Z" fill="#263238"/>
<path d="M124.886 272.513C187.137 272.513 237.602 268.779 237.602 264.174C237.602 259.568 187.137 255.835 124.886 255.835C62.6351 255.835 12.1707 259.568 12.1707 264.174C12.1707 268.779 62.6351 272.513 124.886 272.513Z" fill="#EBEBEB"/>
<path d="M149.287 196.717V196.802C149.287 196.802 149.287 196.839 149.287 196.863C149.287 196.888 149.287 196.961 149.257 197.028V197.138C149.237 197.216 149.223 197.295 149.214 197.376C149.214 197.43 149.214 197.485 149.183 197.546C149.153 197.607 149.141 197.803 149.11 197.949C149.08 198.095 149.019 198.443 148.97 198.736L148.695 200.224C148.665 200.383 148.634 200.554 148.604 200.731C148.573 200.908 148.518 201.207 148.47 201.457C148.421 201.707 148.372 202.018 148.317 202.317C148.28 202.524 148.238 202.738 148.201 202.957C148.085 203.61 147.963 204.306 147.823 205.05C147.82 205.068 147.82 205.086 147.823 205.105C147.677 205.934 147.518 206.825 147.347 207.758C147.304 208.002 147.256 208.246 147.207 208.49C147.158 208.734 147.109 209.003 147.067 209.259C147.067 209.418 147.012 209.582 146.975 209.747C146.743 211.044 146.493 212.419 146.225 213.871C146.133 214.359 146.048 214.853 145.956 215.353C145.779 216.329 145.596 217.33 145.407 218.361C145.358 218.599 145.316 218.836 145.279 219.08C145.003 220.573 144.72 222.127 144.431 223.741C144.395 223.906 144.37 224.071 144.34 224.235C144.199 224.992 144.059 225.754 143.925 226.535C143.907 226.595 143.895 226.656 143.888 226.718L143.687 227.828C143.419 229.317 143.142 230.84 142.857 232.397C142.784 232.782 142.711 233.172 142.644 233.569C142.503 234.356 142.357 235.149 142.211 235.948C142.028 236.942 141.845 237.943 141.662 238.961C141.479 239.98 141.296 240.999 141.107 242.012C141.009 242.53 140.917 243.049 140.82 243.567C140.71 244.177 140.594 244.787 140.484 245.44H87.7593C94.2622 218.422 99.7464 196.637 99.7464 196.637L149.287 196.717Z" fill="#263238"/>
<path d="M141.32 202.817C138.681 217.051 136.013 231.285 133.317 245.519H132.585C135.385 231.251 138.27 217.006 141.125 202.756C141.168 202.622 141.357 202.677 141.32 202.817Z" fill="#263238"/>
<path d="M149.287 196.717C149.287 196.717 149.287 196.747 149.287 196.802C149.287 196.857 149.287 196.839 149.287 196.863C149.287 196.887 149.287 196.961 149.257 197.028V197.138C149.237 197.216 149.223 197.295 149.214 197.376C149.214 197.43 149.214 197.485 149.183 197.546C149.153 197.607 149.135 197.803 149.11 197.949C149.086 198.095 149.019 198.443 148.97 198.736C148.885 199.169 148.799 199.663 148.695 200.224C148.665 200.383 148.634 200.554 148.604 200.731C148.573 200.908 148.519 201.206 148.47 201.457C148.421 201.707 148.372 202.018 148.317 202.317C148.281 202.524 148.238 202.738 148.201 202.957C148.079 203.61 147.957 204.305 147.823 205.05C147.82 205.068 147.82 205.086 147.823 205.105C147.671 205.934 147.512 206.813 147.341 207.746C147.292 207.99 147.25 208.24 147.207 208.49C147.164 208.74 147.109 209.003 147.067 209.259C147.03 209.418 147.006 209.582 146.975 209.747C146.737 211.04 146.487 212.419 146.225 213.871C146.133 214.359 146.048 214.853 145.956 215.353C145.773 216.329 145.59 217.33 145.407 218.361C145.359 218.598 145.316 218.836 145.279 219.08C144.999 220.581 144.716 222.135 144.431 223.741C144.395 223.906 144.37 224.07 144.34 224.235C144.2 224.992 144.059 225.754 143.925 226.535C143.907 226.595 143.895 226.656 143.888 226.718L143.687 227.828C143.411 229.317 143.134 230.84 142.857 232.397C142.784 232.782 142.711 233.172 142.644 233.569C142.498 234.356 142.357 235.149 142.211 235.948C142.028 236.942 141.845 237.943 141.662 238.961C141.479 239.98 141.29 240.999 141.107 242.011C141.009 242.53 140.918 243.049 140.82 243.567C140.71 244.177 140.594 244.787 140.478 245.44H114.015L111.898 223.772L111.825 223.003L111.74 222.173L111.325 217.934L110.965 214.273L109.245 196.717H149.287Z" fill="#455A64"/>
<path d="M179.24 245.519H122.379C122.281 240.285 122.177 235.222 122.049 230.445C122.049 230.329 122.049 230.213 122.049 230.098C122.049 230.098 115.412 226.169 111.837 223.088C111.23 222.589 110.67 222.033 110.166 221.429C107.878 218.513 105.584 207.301 100.838 196.753H170.382C181.68 218.678 180.887 236.296 179.24 245.519Z" fill="#263238"/>
<path d="M108.513 220.654C111.892 222.039 114.936 224.168 117.938 226.224C121.061 228.353 123.922 230.817 126.923 233.105C127.039 233.197 126.923 233.386 126.801 233.3C123.635 231.281 120.323 229.506 117.193 227.426C114.143 225.406 110.996 223.442 108.36 220.898C108.256 220.801 108.372 220.593 108.513 220.654Z" fill="#455A64"/>
<path d="M108.086 201.091C108.488 203.256 109.013 205.404 109.483 207.557C109.916 209.576 110.239 211.632 110.776 213.657C111.212 215.59 112.194 217.356 113.606 218.745C114.399 219.483 115.272 220.136 116.114 220.807C116.571 221.173 117.059 221.521 117.535 221.893C117.474 221.606 117.425 221.283 117.37 221.02L116.949 218.58C116.644 216.75 116.339 214.92 116.071 213.09C115.522 209.497 115.022 205.867 114.241 202.311C114.238 202.284 114.246 202.257 114.261 202.235C114.276 202.212 114.299 202.196 114.325 202.189C114.351 202.182 114.379 202.184 114.404 202.195C114.429 202.206 114.449 202.225 114.46 202.25C115.357 205.776 116.345 209.265 117.126 212.822C117.511 214.56 118.871 223.192 118.956 223.802C119.042 224.412 119.072 225.065 119.097 225.693C119.179 226.335 119.179 226.985 119.097 227.627C119.085 227.656 119.064 227.681 119.038 227.698C119.012 227.715 118.982 227.725 118.95 227.725C118.919 227.725 118.888 227.715 118.862 227.698C118.836 227.681 118.816 227.656 118.804 227.627C118.543 227.031 118.361 226.403 118.261 225.76C118.102 225.15 117.962 224.54 117.852 223.894C117.809 223.674 117.779 223.442 117.748 223.21C116.901 222.692 116.114 221.99 115.308 221.441C114.503 220.892 113.582 220.221 112.777 219.538C111.281 218.277 110.202 216.593 109.684 214.706C109.163 212.679 108.825 210.609 108.671 208.521C108.397 206.081 108.195 203.641 107.854 201.2C107.842 200.987 108.055 200.944 108.086 201.091Z" fill="#455A64"/>
<path d="M165.947 216.171C165.038 215.701 161.524 216.537 155.119 215.445C153.866 215.283 152.677 214.799 151.666 214.042C150.001 212.681 148.738 210.491 147.726 208.618C146.523 206.509 145.596 204.254 144.968 201.908C144.938 201.762 144.736 201.835 144.761 201.969C144.999 203.293 145.127 204.617 145.481 205.928C145.827 207.159 146.27 208.36 146.804 209.521C147.768 211.693 148.897 214.023 150.849 215.494C152.892 217.031 155.729 217.324 158.218 217.494C159.646 217.592 165.264 217.44 166.02 216.64C166.049 216.606 166.07 216.565 166.082 216.522C166.094 216.479 166.097 216.433 166.09 216.389C166.083 216.345 166.066 216.302 166.042 216.265C166.017 216.227 165.985 216.195 165.947 216.171Z" fill="#455A64"/>
<path d="M113.027 118.486C107.171 127.143 66.4937 179.276 60.6069 180.343C45.6062 183.046 31.8683 177.903 37.5355 164.983C44.136 149.94 80.8477 120.115 105.31 106.908C122.83 97.4463 118.786 109.94 113.027 118.486Z" fill="#DD6A57"/>
<path d="M93.1642 147.231L61.2596 132.59C61.2596 132.59 90.779 112.069 104.572 105.822C118.981 99.313 124.807 103.12 112.502 120.054C100.43 136.72 93.1642 147.231 93.1642 147.231Z" fill="#455A64"/>
<path d="M78.249 121.231C78.1816 121.271 78.1165 121.313 78.0538 121.36L102.876 133.475L102.998 133.304L78.249 121.231ZM71.3861 125.74C71.3208 125.777 71.2577 125.817 71.197 125.862L98.7399 139.282L98.8558 139.118L71.3861 125.74ZM64.6209 130.29L64.4318 130.419L94.6344 145.157C94.6649 145.102 94.7076 145.047 94.7442 144.992L64.6209 130.29Z" fill="white"/>
<path d="M93.5608 140.752C92.828 140.335 92.0747 139.954 91.3037 139.612L88.9795 138.471C87.4117 137.702 85.8317 136.958 84.2396 136.226C81.0735 134.756 77.9074 133.273 74.717 131.864C73.8385 131.474 72.954 131.083 72.0694 130.724C71.1849 130.364 70.1723 130.016 69.2389 129.632C69.184 129.632 69.1535 129.693 69.2084 129.723C69.9831 130.107 70.7274 130.559 71.496 130.943C72.2647 131.327 73.0882 131.73 73.8873 132.114C75.4693 132.859 77.0554 133.595 78.6456 134.323C81.775 135.744 84.9045 137.178 88.0645 138.532C88.949 138.916 89.8336 139.282 90.7181 139.661C91.6026 140.039 92.5482 140.515 93.5181 140.82C93.5669 140.85 93.6096 140.777 93.5608 140.752Z" fill="#263238"/>
<path d="M112.551 120.036C100.43 136.72 93.1642 147.231 93.1642 147.231L82.9645 142.54L117.931 103.498C120.616 105.334 119.347 110.702 112.551 120.036Z" fill="#263238"/>
<path d="M94.5186 208.405H176.812C176.812 208.405 164.239 129.882 133.902 103.028C130.157 99.7096 121.702 100.466 116.211 103.205C114.241 104.187 107.171 114.076 105.151 123.434C103.132 132.792 94.2928 208.124 94.5186 208.405Z" fill="#455A64"/>
<path d="M169.333 174.878L132.816 102.253C133.205 102.473 133.568 102.733 133.902 103.028C151.117 118.267 162.61 150.147 169.333 174.878Z" fill="#263238"/>
<path d="M130.376 101.277H122.006C122.397 101.204 122.781 101.137 123.172 101.076H129.388C129.717 101.131 130.034 101.198 130.376 101.277ZM138.978 108.134H111.965C111.923 108.201 111.88 108.268 111.831 108.335H139.118L138.978 108.134ZM144.407 115.192H107.994L107.903 115.393H144.541L144.407 115.192ZM148.848 122.25H105.408C105.408 122.317 105.371 122.384 105.353 122.452H148.97L148.848 122.25ZM152.654 129.308H104.145C104.145 129.375 104.145 129.442 104.114 129.51H152.758C152.722 129.442 152.685 129.375 152.654 129.308ZM155.997 136.366H103.157C103.157 136.433 103.157 136.501 103.157 136.568H156.101C156.052 136.501 155.997 136.433 155.997 136.366ZM158.98 143.431H102.248C102.248 143.498 102.248 143.565 102.248 143.626H159.048C159.048 143.559 158.999 143.492 158.974 143.431H158.98ZM161.671 150.489H101.314C101.314 150.556 101.314 150.617 101.314 150.684H161.732C161.713 150.617 161.689 150.556 161.665 150.489H161.671ZM164.111 157.547H100.43C100.43 157.614 100.43 157.681 100.43 157.748H164.184C164.166 157.675 164.147 157.614 164.123 157.547H164.111ZM166.368 164.605H99.5573C99.5573 164.672 99.5573 164.739 99.5573 164.806H166.435C166.417 164.739 166.368 164.672 166.368 164.605ZM168.442 171.663H98.7033C98.7033 171.73 98.7033 171.797 98.7033 171.864H168.503L168.442 171.663ZM170.358 178.721H97.8553C97.8553 178.788 97.8553 178.855 97.8553 178.922H170.449C170.394 178.855 170.376 178.788 170.364 178.721H170.358ZM172.121 185.779H97.0196C97.0196 185.846 97.0196 185.913 97.0196 185.98H172.175C172.157 185.913 172.145 185.846 172.127 185.779H172.121ZM173.743 192.837H96.2143C96.2143 192.904 96.2143 192.971 96.2143 193.038H173.792C173.78 192.971 173.768 192.904 173.749 192.837H173.743ZM175.232 199.895H95.3908C95.3908 199.962 95.3908 200.029 95.3908 200.096H175.305L175.232 199.895ZM176.562 206.953H94.6283V207.154H176.616C176.592 207.087 176.58 207.02 176.568 206.953H176.562Z" fill="white"/>
<path d="M148.177 105.005C168.918 112.673 219.99 133.023 222.601 144.931C224.504 153.685 185.535 159.127 184.425 157.711C183.553 156.589 147.366 128.399 134.61 113.228C123.519 100.051 141.546 102.552 148.177 105.005Z" fill="#DD6A57"/>
<path d="M163.849 140.887L191.172 121.976C191.172 121.976 158.523 106.92 143.821 103.187C128.497 99.2948 123.428 104.053 138.502 118.578C153.35 132.865 163.849 140.887 163.849 140.887Z" fill="#455A64"/>
<path d="M170.974 113.106L149.793 129.04C149.848 129.083 149.891 129.131 149.946 129.168L171.193 113.191L170.974 113.106ZM178.465 116.302L155.223 133.786L155.375 133.92L178.685 116.394C178.611 116.363 178.569 116.327 178.465 116.302ZM185.889 119.554L160.792 138.465C160.842 138.511 160.895 138.554 160.951 138.593L186.096 119.682C186.024 119.645 185.955 119.602 185.889 119.554Z" fill="white"/>
<path d="M183.632 120.676C182.9 121.079 182.21 121.585 181.515 122.055C180.82 122.525 180.088 123.019 179.368 123.495C177.916 124.465 176.476 125.465 175.043 126.465C172.188 128.472 169.314 130.467 166.502 132.523C165.727 133.084 164.953 133.652 164.19 134.237C163.428 134.823 162.628 135.524 161.829 136.141C161.78 136.177 161.829 136.244 161.89 136.214C162.61 135.738 163.379 135.323 164.105 134.847C164.831 134.371 165.587 133.871 166.319 133.365C167.759 132.377 169.186 131.376 170.589 130.364C173.389 128.369 176.202 126.38 178.959 124.324L181.265 122.598C182.07 121.988 182.924 121.427 183.674 120.768C183.723 120.719 183.687 120.646 183.632 120.676Z" fill="#263238"/>
<path d="M161.323 138.721C160.554 138.074 159.841 137.367 159.096 136.696C158.352 136.025 157.584 135.36 156.833 134.689C155.363 133.383 153.875 132.096 152.398 130.791C149.415 128.143 146.432 125.489 143.48 122.811C141.802 121.286 140.155 119.718 138.422 118.254L138.386 118.291C139.746 119.761 141.21 121.146 142.656 122.525C142.351 122.336 142.046 122.14 141.753 121.915C141.46 121.689 141.107 121.451 140.795 121.201C140.484 120.951 140.185 120.67 139.832 120.438C139.777 120.402 139.728 120.475 139.765 120.518C140.313 121.165 140.959 121.723 141.68 122.171C142.034 122.409 142.406 122.622 142.778 122.824L143.187 123.013C144.48 124.233 145.781 125.453 147.091 126.673C150.019 129.373 153.006 132.017 156.052 134.603C156.894 135.311 157.742 136.006 158.596 136.702C159.45 137.397 160.39 138.068 161.262 138.782C161.305 138.831 161.366 138.764 161.323 138.721Z" fill="#263238"/>
<path d="M118.828 118.279C123.666 118.889 131.029 110.843 133.603 104.663C133.78 104.236 132.725 100.076 131.676 94.9574C131.065 91.8523 130.455 88.3752 130.102 85.1664C130.035 84.5076 110.471 92.1696 110.471 92.1696C110.471 92.1696 113.155 98.6908 113.71 104.291C113.75 104.735 113.75 105.182 113.71 105.627C113.71 105.688 113.71 105.761 113.71 105.846C113.558 108.39 114.155 117.675 118.828 118.279Z" fill="#DD6A57"/>
<path d="M115.784 105.737C115.095 105.831 114.399 105.868 113.704 105.846C113.704 105.761 113.704 105.688 113.704 105.621C113.75 105.179 113.75 104.733 113.704 104.291C113.155 98.6969 110.477 92.1695 110.477 92.1695C110.477 92.1695 126.338 85.9472 129.546 85.1969C129.315 88.973 127.631 104.23 115.784 105.737Z" fill="#263238"/>
<path d="M127.936 60.271C131.993 66.5848 133.963 87.5821 130.303 93.414C124.996 101.875 113.503 105.779 105.609 98.7579C97.9529 91.956 95.8483 64.5473 100.216 58.9595C106.585 50.724 121.933 50.9193 127.936 60.271Z" fill="#DD6A57"/>
<path d="M114.9 78.6024C114.9 78.5475 115.022 78.6634 115.022 78.7183C115.119 80.1397 115.467 81.7685 116.791 82.0857C116.833 82.0857 116.833 82.1711 116.791 82.165C115.205 82.104 114.765 79.9628 114.9 78.6024Z" fill="#263238"/>
<path d="M116.016 77.0043C118.273 76.6077 118.901 81.1464 116.815 81.5185C114.729 81.8906 114.125 77.3398 116.016 77.0043Z" fill="#263238"/>
<path d="M106.249 79.5908C106.249 79.542 106.146 79.6762 106.158 79.7311C106.396 81.1342 106.432 82.7813 105.225 83.4218C105.188 83.4218 105.225 83.5133 105.225 83.495C106.774 83.0802 106.701 80.9024 106.249 79.5908Z" fill="#263238"/>
<path d="M104.785 78.3159C102.504 78.4562 102.955 83.0192 105.072 82.8911C107.189 82.763 106.707 78.2 104.785 78.3159Z" fill="#263238"/>
<path d="M117.523 74.7105C116.907 74.6152 116.296 74.489 115.693 74.3323C115.018 74.2936 114.375 74.0342 113.863 73.5942C113.732 73.4246 113.661 73.2165 113.661 73.0024C113.661 72.7884 113.732 72.5803 113.863 72.4107C114.473 71.7092 115.37 71.6848 116.23 71.8007C117.097 71.9179 117.891 72.3526 118.456 73.0207C118.589 73.1812 118.671 73.378 118.69 73.5854C118.71 73.7928 118.666 74.0013 118.565 74.1837C118.465 74.366 118.311 74.5138 118.125 74.6078C117.939 74.7018 117.73 74.7376 117.523 74.7105Z" fill="#263238"/>
<path d="M102.717 76.2721C103.31 76.0642 103.89 75.8239 104.456 75.5523C105.103 75.3852 105.678 75.0101 106.091 74.4847C106.188 74.2936 106.22 74.0755 106.18 73.8647C106.14 73.6538 106.032 73.4621 105.871 73.3196C105.151 72.7461 104.255 72.8925 103.431 73.2037C102.601 73.4849 101.905 74.0657 101.479 74.8324C101.392 75.0141 101.36 75.2171 101.386 75.4167C101.413 75.6163 101.497 75.8039 101.628 75.9566C101.759 76.1093 101.932 76.2204 102.126 76.2764C102.319 76.3324 102.525 76.331 102.717 76.2721Z" fill="#263238"/>
<path d="M117.84 91.0349C117.553 91.4131 117.279 91.9133 116.772 92.0231C116.248 92.0861 115.716 92.0383 115.211 91.8828C115.201 91.8803 115.19 91.881 115.18 91.8849C115.171 91.8888 115.163 91.8957 115.157 91.9045C115.152 91.9134 115.149 91.9237 115.15 91.9341C115.151 91.9444 115.155 91.9543 115.162 91.9621C115.402 92.2104 115.704 92.3895 116.036 92.4807C116.369 92.572 116.72 92.5719 117.053 92.4806C117.33 92.365 117.566 92.1701 117.732 91.9204C117.898 91.6707 117.987 91.3774 117.986 91.0776C117.999 90.9983 117.883 90.98 117.84 91.0349Z" fill="#263238"/>
<path d="M115.778 87.027C115.499 87.6329 115.097 88.1744 114.599 88.6174C114.1 89.0605 113.515 89.3955 112.88 89.6013C112.328 89.7899 111.75 89.8967 111.166 89.9185C111.055 89.9275 110.942 89.9275 110.831 89.9185H110.52C110.443 89.9141 110.369 89.8851 110.31 89.8357C110.25 89.7862 110.208 89.719 110.19 89.644C110.184 89.5954 110.184 89.5462 110.19 89.4976V89.3756C110.013 88.2958 109.891 86.6365 109.891 86.6365C109.519 86.8867 107.628 88.0762 107.585 87.5028C107.213 82.7812 106.805 77.5288 107.433 72.7522C107.439 72.7223 107.456 72.6955 107.48 72.6762C107.504 72.657 107.533 72.6465 107.564 72.6465C107.595 72.6465 107.624 72.657 107.648 72.6762C107.672 72.6955 107.689 72.7223 107.695 72.7522C108.226 77.2787 107.964 81.8661 108.427 86.4169C109.099 85.9867 109.828 85.652 110.593 85.4226C110.758 85.4226 110.776 88.6375 110.892 89.1133C110.89 89.1295 110.89 89.1458 110.892 89.1621C112.722 89.1621 114.039 88.4056 115.638 86.9416C115.735 86.8257 115.851 86.9111 115.778 87.027Z" fill="#263238"/>
<path d="M111.728 89.2842C112.43 89.9733 113.298 90.471 114.247 90.73C114.769 90.8557 115.317 90.8152 115.815 90.6141C116.901 90.1626 116.785 89.1256 116.455 88.2715C116.276 87.8193 116.045 87.3894 115.766 86.9905C114.699 88.1659 113.284 88.9696 111.728 89.2842Z" fill="#263238"/>
<path d="M114.247 90.7299C114.769 90.8557 115.317 90.8152 115.815 90.614C116.901 90.1626 116.785 89.1255 116.455 88.2715C115.266 88.5643 114.192 89.5464 114.247 90.7299Z" fill="#FF98B9"/>
<path d="M131.023 76.2478C127.326 77.1933 124.831 68.2198 124.831 68.2198C124.831 68.2198 118.981 69.0067 113.85 62.2842C113.85 62.2842 108.171 69.0372 101.851 69.8729C91.9442 71.1723 88.284 58.9412 90.9926 55.342C94.8297 50.236 105.31 52.5115 105.31 52.5115C105.31 52.5115 117.511 44.4895 124.373 52.2552C124.373 52.2552 130.425 50.6021 132.951 57.0562C135.476 63.5103 133.78 75.5401 131.023 76.2478Z" fill="#263238"/>
<path d="M126.466 68.8481C123.628 69.2479 120.738 68.6943 118.249 67.2742C115.705 65.7369 113.582 62.8088 113.491 59.7708C113.491 59.6061 113.216 59.6305 113.234 59.7708C113.564 63.0772 114.766 66.1944 117.572 68.1709C118.854 69.0955 120.356 69.6676 121.929 69.8303C123.501 69.993 125.089 69.7406 126.533 69.0982C126.553 69.0801 126.567 69.057 126.574 69.0314C126.582 69.0058 126.582 68.9786 126.575 68.9529C126.568 68.9272 126.554 68.9038 126.535 68.8853C126.516 68.8669 126.492 68.854 126.466 68.8481Z" fill="#263238"/>
<path d="M132.206 53.0422C129.614 51.2976 126.685 51.8222 123.934 52.8287C123.782 52.8836 123.879 53.1398 124.026 53.0666C126.661 51.8466 130.004 52.8165 132.151 54.6039C134.299 56.3913 134.823 59.2158 135.037 61.8206C135.472 66.8492 134.029 71.8609 130.986 75.8879C130.937 75.9489 131.035 76.0282 131.084 75.9672C132.868 73.8395 134.2 71.3701 134.997 68.7101C135.794 66.05 136.04 63.2552 135.72 60.4968C135.372 57.7944 134.573 54.6527 132.206 53.0422Z" fill="#263238"/>
<path d="M105.816 52.8348C104.036 51.3136 101.759 50.4995 99.4172 50.5471C96.5951 50.6783 93.9209 51.8471 91.9077 53.8291C91.1186 54.6495 90.5599 55.6636 90.2878 56.7689C90.0158 57.8742 90.0401 59.0317 90.3582 60.1246C91.0048 62.7112 92.9569 64.7121 95.0249 66.2249C95.0304 66.2307 95.037 66.2352 95.0443 66.2381C95.0516 66.2411 95.0595 66.2424 95.0673 66.2421C95.0752 66.2417 95.0829 66.2397 95.09 66.236C95.097 66.2324 95.1031 66.2273 95.108 66.2211C95.1129 66.2149 95.1164 66.2078 95.1182 66.2001C95.1201 66.1924 95.1202 66.1844 95.1187 66.1767C95.1172 66.1689 95.114 66.1616 95.1094 66.1552C95.1048 66.1488 95.0989 66.1434 95.092 66.1395C93.3352 64.6328 91.7613 62.7905 91.1695 60.4784C90.8535 59.4023 90.8478 58.2587 91.1533 57.1794C91.4587 56.1001 92.0628 55.1291 92.8959 54.3781C96.184 51.4378 101.894 49.9188 105.658 53.0117C105.682 53.0204 105.708 53.0217 105.733 53.0155C105.757 53.0092 105.78 52.9957 105.797 52.9767C105.814 52.9577 105.825 52.934 105.828 52.9087C105.832 52.8834 105.828 52.8577 105.816 52.8348Z" fill="#263238"/>
<path d="M128.381 78.4439C128.381 78.4439 131.23 70.7697 134.598 71.6237C137.965 72.4778 137.001 82.7751 133.878 84.959C133.495 85.2634 133.055 85.4879 132.584 85.6195C132.113 85.751 131.621 85.7869 131.136 85.7249C130.651 85.6629 130.183 85.5044 129.76 85.2586C129.337 85.0129 128.968 84.6849 128.674 84.2941L128.381 78.4439Z" fill="#DD6A57"/>
<path d="M134.25 74.5702C134.261 74.5674 134.272 74.5683 134.282 74.573C134.292 74.5776 134.301 74.5856 134.306 74.5956C134.311 74.6056 134.312 74.617 134.31 74.6279C134.307 74.6389 134.301 74.6486 134.292 74.6556C132.121 76.2722 131.431 78.8526 131.145 81.4147C131.633 80.3289 132.487 79.5846 133.908 80.1276C133.922 80.1361 133.933 80.1487 133.94 80.1638C133.946 80.1788 133.948 80.1955 133.945 80.2116C133.941 80.2276 133.933 80.2422 133.921 80.2534C133.909 80.2646 133.894 80.2718 133.878 80.274C133.416 80.2496 132.959 80.3684 132.568 80.6141C132.177 80.8599 131.872 81.2205 131.694 81.6465C131.401 82.3637 131.186 83.1102 131.053 83.8732C130.998 84.1172 130.577 84.105 130.59 83.8305C130.593 83.8102 130.593 83.7897 130.59 83.7695C129.729 80.6949 130.986 75.7414 134.25 74.5702Z" fill="#263238"/>
<path d="M212.956 195.686C207.155 215.927 190.556 232.373 187.158 234.526C184.266 236.357 182.76 237.296 182.76 237.296C177.635 240.712 174.109 239.785 174.109 239.785C174.109 239.785 169.345 245.476 165.429 243.164C161.03 240.596 168.576 233.111 170.211 226.456C173.951 211.205 175.006 188.493 175.647 183.985L212.956 195.686Z" fill="#DD6A57"/>
<path d="M185.358 213.23C184.169 217.696 183.113 222.112 181.326 226.395C179.362 231.092 176.69 235.283 174.073 239.614C174.06 239.64 174.057 239.669 174.064 239.697C174.071 239.725 174.088 239.75 174.111 239.766C174.135 239.783 174.163 239.791 174.192 239.789C174.22 239.787 174.247 239.775 174.268 239.754C180.252 232.66 184.608 222.509 185.749 213.322C185.779 213.096 185.419 213.011 185.358 213.23Z" fill="#263238"/>
<path d="M194.887 214.151C193.49 218.422 190.983 225.937 182.638 237.211C182.607 237.247 182.638 237.302 182.699 237.265C188.953 230.933 193.321 222.984 195.314 214.31C195.381 214.035 194.985 213.871 194.887 214.151Z" fill="#263238"/>
<path d="M173.554 207.801C173.255 205.623 172.108 205.763 170.132 209.137C168.155 212.51 163.202 227.535 158.108 225.364C153.014 223.192 160.31 202.091 164.032 196.729C167.753 191.367 175.622 183.985 175.622 183.985C175.049 188.378 174.616 199.157 173.554 207.801Z" fill="#DD6A57"/>
<path d="M222.589 144.931C226.657 157.711 215.921 186.212 212.956 195.686C211.663 199.816 173.951 188.786 175.36 184.376C178.251 175.353 185.73 158.931 184.413 157.711C183.37 156.741 218.886 133.322 222.589 144.931Z" fill="#DD6A57"/>
<path d="M194.747 150.025C194.246 150.22 193.746 150.373 193.258 150.635C192.77 150.897 192.252 151.105 191.77 151.367C190.835 151.891 189.946 152.491 189.11 153.161C188.267 153.814 187.468 154.523 186.719 155.283C186.328 155.674 185.95 156.076 185.59 156.504C185.225 156.895 184.906 157.327 184.638 157.791C184.625 157.813 184.618 157.838 184.618 157.864C184.618 157.89 184.625 157.915 184.638 157.937C184.638 157.937 184.638 157.98 184.675 157.986C184.834 158.053 184.925 157.919 185.041 157.821L185.615 157.29C186.017 156.918 186.408 156.522 186.835 156.144C187.646 155.393 188.5 154.673 189.378 153.996C190.257 153.319 191.16 152.679 192.075 152.062C192.532 151.751 192.984 151.452 193.447 151.129C193.911 150.806 194.368 150.519 194.844 150.245C194.936 150.159 194.863 149.976 194.747 150.025Z" fill="#263238"/>
<path d="M58.3925 143.748C52.2922 148.018 33.7167 164.653 37.4623 173.743C41.2079 182.832 55.507 182.613 75.5039 178.995L58.3925 143.748Z" fill="#DD6A57"/>
<path d="M57.8557 144.144C66.0484 137.318 77.9501 129.028 82.8243 129.29C87.9363 129.565 105.865 131.26 109.904 132.993C113.942 134.725 125.557 146.029 126.746 149.775C127.698 152.776 121.805 155.607 114.326 150.794C107.329 146.292 105.877 144.87 103.596 144.083C101.314 143.296 92.3224 145.023 91.2366 148.414C90.5961 150.415 93.1887 155.814 96.794 156.955C100.399 158.096 104.114 155.954 109.196 156.229C114.277 156.503 119.158 161.518 118.176 163.165C117.193 164.812 114.918 163.928 107.982 166.246C103.523 167.74 98.2214 170.424 90.6754 174.865C82.9463 179.41 71.7644 179.331 71.7644 179.331L57.8557 144.144Z" fill="#DD6A57"/>
<path d="M114.637 151.648C126.838 155.466 121.207 173.554 108.976 169.729C96.7451 165.904 102.412 147.817 114.637 151.648Z" fill="#FFC727"/>
<path opacity="0.1" d="M114.637 151.648C126.838 155.466 121.207 173.554 108.976 169.729C96.7451 165.904 102.412 147.817 114.637 151.648Z" fill="black"/>
<path d="M113.49 151.288C125.124 154.948 119.487 173.017 107.829 169.369C96.1716 165.721 101.839 147.64 113.49 151.288Z" fill="#FFC727"/>
<path opacity="0.1" d="M103.053 159.81C102.705 163.11 104.218 166.551 108.311 167.832C117.986 170.882 122.665 155.845 113.009 152.825L112.82 152.77C121.848 155.82 117.358 169.991 108.134 167.106C106.566 166.68 105.197 165.715 104.268 164.381C103.339 163.047 102.909 161.429 103.053 159.81Z" fill="black"/>
<g opacity="0.1">
<path opacity="0.1" d="M112.417 154.698C112.494 154.729 112.556 154.789 112.591 154.865C112.625 154.942 112.628 155.028 112.6 155.107L112.411 155.601C113.175 155.978 113.812 156.572 114.241 157.309C114.279 157.358 114.305 157.416 114.315 157.478C114.326 157.54 114.321 157.603 114.302 157.663C114.267 157.744 114.201 157.809 114.119 157.843C114.037 157.877 113.945 157.878 113.863 157.846C113.78 157.816 113.712 157.754 113.674 157.675C113.322 157.03 112.79 156.502 112.142 156.156L110.8 159.602C112.521 160.719 113.033 161.725 112.563 162.927C112.063 164.233 110.605 164.757 109.049 164.184L108.677 165.142C108.662 165.182 108.639 165.218 108.61 165.249C108.58 165.281 108.545 165.306 108.506 165.323C108.467 165.341 108.425 165.351 108.382 165.352C108.339 165.353 108.297 165.346 108.256 165.331C108.216 165.315 108.18 165.292 108.149 165.263C108.117 165.234 108.092 165.198 108.075 165.159C108.057 165.12 108.047 165.078 108.046 165.035C108.045 164.992 108.052 164.95 108.067 164.91L108.439 163.94C107.443 163.462 106.634 162.665 106.14 161.677C106.109 161.632 106.089 161.58 106.083 161.526C106.076 161.471 106.083 161.416 106.103 161.365C106.138 161.287 106.201 161.223 106.28 161.189C106.359 161.154 106.448 161.149 106.53 161.176C106.612 161.208 106.68 161.269 106.719 161.347C107.121 162.234 107.814 162.958 108.683 163.397L110.044 159.895C108.354 158.773 107.854 157.797 108.33 156.571C108.805 155.344 110.263 154.802 111.776 155.351L111.959 154.887C111.974 154.842 111.998 154.801 112.029 154.766C112.061 154.731 112.1 154.704 112.144 154.686C112.188 154.668 112.235 154.659 112.282 154.662C112.329 154.664 112.375 154.676 112.417 154.698ZM110.337 159.267L111.636 155.912C110.416 155.473 109.373 155.881 109.025 156.766C108.677 157.65 108.897 158.285 110.337 159.267ZM110.587 160.225L109.269 163.623C110.489 164.074 111.581 163.671 111.947 162.738C112.313 161.805 112.075 161.201 110.587 160.225Z" fill="black"/>
</g>
<path d="M82.8243 129.29C88.8514 127.655 101.607 126.411 110.099 129.729C115.839 131.974 123.983 152.428 121.006 154.838C118.029 157.248 115.516 154.978 112.222 151.178C111.002 149.793 106.219 140.734 103.645 141.125C99.9356 141.68 91.0231 147.011 91.0231 147.011L82.8243 129.29Z" fill="#DD6A57"/>
<path d="M121.64 153.404C122.555 148.762 120.036 143.546 117.236 138.678C117.187 138.605 117.071 138.678 117.114 138.739C117.828 139.959 121.567 148.817 121.549 153.411C121.549 153.472 121.628 153.459 121.64 153.404Z" fill="#263238"/>
<path d="M82.8243 129.29C88.8514 127.655 101.607 126.411 110.099 129.729C115.839 131.974 119.109 151.635 116.132 154.045C113.155 156.455 109.367 153.404 106.652 148.408C105.774 146.792 104.212 139.868 101.656 140.234C97.9469 140.795 88.8453 142.253 88.8453 142.253L82.8243 129.29Z" fill="#DD6A57"/>
<path d="M94.2928 141.204C95.2505 140.954 95.5861 140.862 96.5499 140.624C97.5138 140.386 98.4715 140.173 99.4476 140.014C100.289 139.806 101.159 139.742 102.022 139.825C102.829 140.008 103.555 140.45 104.09 141.082C105.353 142.461 105.798 144.468 106.353 146.2C106.963 148.14 108.58 151.812 110.849 153.484C111.448 153.97 112.142 154.325 112.887 154.527C113.432 154.704 114.013 154.742 114.576 154.637C116.864 153.929 117.321 151.172 117.297 148.896C117.248 144.626 115.894 140.356 114.345 136.458C113.966 135.5 113.564 134.548 113.161 133.597C112.771 132.478 112.147 131.454 111.331 130.595C109.897 129.272 106.213 128.588 105.072 128.363C104.987 128.363 105.029 128.216 105.115 128.235C106.5 128.485 110.324 128.686 112.545 130.919C113.35 131.736 113.765 132.895 114.216 133.932C114.668 134.969 115.168 136.122 115.595 137.239C116.449 139.396 117.133 141.617 117.639 143.882C118.096 146.029 118.499 148.414 118.139 150.592C117.828 152.489 116.516 154.399 114.619 154.96C113.027 155.442 111.441 154.46 110.745 153.978C110.063 153.499 109.447 152.93 108.915 152.288C107.82 150.761 106.837 149.157 105.975 147.487C105.17 145.84 104.81 143.961 103.87 142.387C103.661 142.004 103.377 141.667 103.036 141.394C102.694 141.122 102.302 140.92 101.882 140.801C101.028 140.673 100.161 140.673 99.3072 140.801C97.6641 140.867 96.0305 141.083 94.427 141.448C94.0061 141.552 93.8902 141.289 94.2928 141.204Z" fill="#263238"/>
<path d="M78.1819 130.467C79.7923 129.516 88.9794 123.757 92.5908 122.744C96.2022 121.732 110.318 119.773 113.143 122.988C116.693 127.033 106.091 130.406 101.345 131.449C96.5987 132.493 92.4139 137.806 92.4139 137.806L78.1819 130.467Z" fill="#DD6A57"/>
<path d="M108.665 129.217C107.073 129.507 105.498 129.878 103.943 130.327C102.441 130.649 100.964 131.084 99.5267 131.626C98.1517 132.268 96.8907 133.129 95.7933 134.176C95.2382 134.683 94.7258 135.213 94.2194 135.762C93.7131 136.312 93.1641 137.019 92.6029 137.593C92.5419 137.654 92.6029 137.757 92.6944 137.69C93.7707 136.657 94.9117 135.693 96.1105 134.805C97.3286 133.859 98.6582 133.066 100.07 132.444C102.882 131.224 105.914 130.614 108.732 129.394C108.848 129.363 108.775 129.199 108.665 129.217Z" fill="#263238"/>
<path d="M115.406 154.295C116.492 154.905 117.718 155.515 119.005 155.46C119.555 155.445 120.088 155.267 120.536 154.948C120.771 154.778 120.976 154.572 121.146 154.338C121.349 154.102 121.461 153.801 121.464 153.49C121.464 153.404 121.579 153.411 121.561 153.49C121.533 153.663 121.516 153.839 121.512 154.015C121.487 154.161 121.446 154.304 121.39 154.442C121.284 154.714 121.124 154.963 120.921 155.174C120.469 155.636 119.873 155.931 119.231 156.009C117.712 156.217 116.382 155.399 115.339 154.399C115.332 154.394 115.326 154.389 115.322 154.382C115.317 154.375 115.314 154.368 115.312 154.36C115.31 154.352 115.31 154.344 115.312 154.336C115.313 154.328 115.316 154.32 115.321 154.313C115.325 154.307 115.331 154.301 115.337 154.296C115.344 154.292 115.352 154.288 115.359 154.287C115.367 154.285 115.376 154.285 115.384 154.286C115.391 154.288 115.399 154.291 115.406 154.295Z" fill="#263238"/>
<path d="M90.9437 139.697C89.6175 141.611 88.4153 143.608 87.3445 145.675C86.3212 147.731 85.5981 149.923 85.1972 152.184C84.8129 154.625 85.0142 157.065 85.0691 159.554C85.1201 160.729 85.0732 161.906 84.9288 163.073C84.78 164.09 84.5223 165.089 84.1602 166.05C83.2841 168.216 81.8813 170.128 80.079 171.614C80.0119 171.675 80.0791 171.785 80.1767 171.736C81.881 170.555 83.3053 169.014 84.3488 167.222C85.3924 165.43 86.0298 163.431 86.216 161.365C86.4356 158.84 86.0085 156.308 86.216 153.777C86.4293 151.472 86.9377 149.205 87.7288 147.03C88.596 144.491 89.701 142.04 91.0291 139.709C91.0299 139.704 91.0296 139.698 91.0282 139.692C91.0268 139.687 91.0243 139.682 91.0209 139.677C91.0175 139.673 91.0133 139.669 91.0084 139.666C91.0035 139.663 90.9981 139.661 90.9925 139.66C90.9812 139.659 90.9697 139.662 90.9605 139.669C90.9514 139.676 90.9453 139.686 90.9437 139.697Z" fill="#263238"/>
<path d="M68.6594 135.884C63.9212 138.775 59.4083 142.019 55.1594 145.59C50.861 149.098 46.9728 153.08 43.5688 157.461C41.6856 159.945 40.0394 162.6 38.6519 165.392C38.6214 165.447 38.7008 165.489 38.7374 165.434C40.1532 163.066 41.7244 160.793 43.4407 158.632C45.1394 156.487 46.9539 154.437 48.8761 152.489C52.807 148.57 57.026 144.951 61.4976 141.661C64.0109 139.77 66.3169 137.965 68.818 136.067C69.0498 135.884 68.9278 135.714 68.6594 135.884Z" fill="#263238"/>
<path d="M139.142 252.516C139.1 252.766 139.051 253.016 139.002 253.273C139.045 253.022 139.094 252.766 139.136 252.516H139.142Z" fill="#EBEBEB"/>
<path d="M42.3731 185.077C34.1315 196.235 25.5423 209.186 23.4621 223.18C23.4621 223.387 23.7793 223.46 23.8281 223.247C24.7796 219.431 26.0028 215.688 27.4883 212.047C32.9054 210.552 38.2188 209.332 41.0676 203.952C43.9652 198.425 43.5992 191.22 43.0502 185.199C42.977 184.876 42.5317 184.858 42.3731 185.077Z" fill="#FFC727"/>
<path d="M27.5372 211.967C31.2401 203.665 35.9922 195.326 42.0315 188.493C42.0742 188.445 42.1352 188.493 42.0986 188.561C38.1456 193.441 35.1382 198.724 32.2039 204.11C34.9307 201.341 37.9199 198.864 40.5064 195.924C40.5552 195.869 40.6406 195.924 40.5918 196.009C38.0236 199.059 35.2236 202.433 31.8806 204.714C30.9778 206.365 30.0708 208.023 29.1599 209.686C29.3856 209.558 29.6174 209.448 29.8492 209.332C29.8858 209.332 29.9224 209.375 29.8858 209.393C29.6296 209.521 29.3734 209.661 29.1111 209.771C28.6779 210.558 28.2509 211.339 27.7995 212.126C27.7019 212.266 27.4579 212.114 27.5372 211.967Z" fill="#263238"/>
<path d="M30.2945 209.039C32.5101 207.803 34.6235 206.391 36.6144 204.818C36.6693 204.775 36.7486 204.848 36.6937 204.897C34.7599 206.555 32.6437 207.988 30.386 209.167C30.2823 209.247 30.1908 209.1 30.2945 209.039Z" fill="#263238"/>
<path d="M22.4983 221.118C22.4983 221.289 22.8033 221.283 22.7972 221.118C22.8399 216.506 22.7972 211.876 22.8704 207.246C24.0538 204.867 26.5855 203.549 28.3607 201.64C29.6274 200.243 30.7306 198.706 31.6487 197.058C33.769 193.123 35.0662 188.798 35.4614 184.345C35.9494 179.416 34.0766 163.153 31.9964 163.714C30.9228 164.007 27.4334 172.065 26.5062 174.731C25.0067 179.124 23.9102 183.645 23.2303 188.237C21.5344 199.047 21.6747 210.186 22.4983 221.118Z" fill="#FFC727"/>
<path d="M22.4616 201.219C22.7117 195.387 24.0294 189.5 25.2556 183.845C26.5793 177.745 28.1288 172.016 31.2644 166.581C31.3254 166.477 31.4718 166.581 31.423 166.673C29.3302 170.898 27.7099 175.342 26.5915 179.922C26.8051 179.593 27.0613 179.282 27.2748 178.971C27.3602 178.849 27.5615 178.971 27.4822 179.093C27.2013 179.584 26.8723 180.046 26.5 180.472C26.4933 180.474 26.486 180.476 26.4787 180.476C26.4713 180.476 26.4641 180.474 26.4573 180.472C25.3776 184.827 24.6272 189.28 23.944 193.727L24.0904 193.557C24.0977 193.551 24.1069 193.547 24.1164 193.547C24.126 193.546 24.1354 193.549 24.1431 193.555C24.1509 193.56 24.1565 193.568 24.1591 193.578C24.1617 193.587 24.1611 193.597 24.1575 193.605C24.0782 193.752 23.9806 193.898 23.8952 194.045C23.5597 196.302 23.2486 198.553 22.9375 200.786C26.9759 197.327 30.4103 193.307 32.3441 188.323C32.3441 188.323 32.3868 188.323 32.3807 188.323C30.4835 193.49 27.5005 198.083 22.9009 201.225L22.6446 203.024C22.6446 203.146 22.4311 203.116 22.4311 202.994C22.4311 202.463 22.4311 201.932 22.4799 201.402C22.4006 201.359 22.4006 201.274 22.4616 201.219Z" fill="#263238"/>
<path d="M24.3528 192.77C27.4029 188.188 30.2884 183.741 32.5394 178.678C32.5394 178.623 32.6614 178.678 32.637 178.721C30.7459 183.753 28.0923 188.847 24.5114 192.886C24.4382 192.971 24.2918 192.861 24.3528 192.77Z" fill="#263238"/>
<path d="M28.4339 177.549C29.7028 175.298 31.0448 173.108 32.2405 170.839C32.2771 170.778 32.3625 170.839 32.3381 170.894C31.3573 173.288 30.1133 175.565 28.6291 177.684C28.5437 177.806 28.3607 177.678 28.4339 177.549Z" fill="#263238"/>
<path d="M27.9403 178.526V178.563C27.9403 178.563 27.8905 178.526 27.9403 178.526Z" fill="#263238"/>
<path d="M19.3506 207.77C19.3014 210.823 18.9499 213.864 18.3013 216.848C18.3501 217.177 18.3928 217.506 18.4416 217.842C19.3861 214.537 19.9329 211.132 20.0704 207.697C20.0977 207.65 20.1121 207.596 20.1121 207.542C20.1121 207.487 20.0977 207.433 20.0704 207.386C20.2055 202.79 19.8682 198.193 19.0639 193.666C17.6364 185.193 14.5191 177.068 8.61403 170.717C8.56524 170.675 8.50749 170.645 8.44519 170.629C8.3829 170.613 8.31773 170.611 8.25469 170.624C8.19165 170.637 8.13242 170.664 8.08156 170.703C8.0307 170.743 7.98955 170.794 7.96129 170.851C5.57607 176.915 6.40571 184.144 8.43712 190.189C9.54173 193.464 11.1202 196.559 13.1222 199.376C15.1475 202.25 17.734 204.647 19.3506 207.77Z" fill="#FFC727"/>
<path d="M9.30933 173.578C14.9094 182.686 18.8014 193.435 19.2772 204.165C19.2772 204.36 18.9661 204.409 18.9417 204.214C18.8075 203.25 18.6611 202.292 18.5086 201.341C16.1966 199.12 13.8175 196.778 12.1582 194.02C12.1582 193.972 12.2009 193.917 12.2375 193.959C14.1614 196.314 16.2207 198.554 18.4049 200.67C17.9982 198.295 17.5203 195.958 16.9713 193.66C16.8188 193.49 16.6724 193.313 16.526 193.136C16.3796 192.959 16.5931 192.861 16.6907 192.971C16.7883 193.081 16.7822 193.075 16.8249 193.124C16.0377 189.969 15.0619 186.864 13.9029 183.827C12.4754 182.131 10.8832 180.661 9.84615 178.611C9.84615 178.562 9.88886 178.526 9.91936 178.568C10.7551 179.74 11.5603 180.917 12.5059 182.003C12.8841 182.436 13.2989 182.845 13.6894 183.266C12.3977 179.974 10.8665 176.781 9.10802 173.712C9.09493 173.686 9.09195 173.655 9.09964 173.627C9.10733 173.598 9.12515 173.573 9.14979 173.557C9.17443 173.541 9.2042 173.534 9.23355 173.538C9.26291 173.541 9.28984 173.556 9.30933 173.578Z" fill="#263238"/>
<path d="M10.4442 184.784C12.2742 187.225 14.3117 189.543 15.9954 192.062C16.0442 192.135 15.9405 192.209 15.8795 192.154C13.72 190.122 11.8899 187.353 10.3221 184.833C10.2733 184.778 10.3892 184.717 10.4442 184.784Z" fill="#263238"/>
<path d="M16.2513 192.623L16.3242 192.702C16.3789 192.757 16.2938 192.836 16.2452 192.787L16.1662 192.708C16.1115 192.654 16.1966 192.575 16.2513 192.623Z" fill="#263238"/>
<path d="M0.543246 191.043C0.988569 195.716 3.44699 201.304 6.44835 204.903C7.7678 206.469 9.39864 207.742 11.2371 208.643C13.3112 209.668 15.5073 210.851 17.6302 211.693C18.6504 214.291 19.4086 216.984 19.8934 219.733C19.9666 219.501 20.0337 219.257 20.1008 219.019C18.7222 207.185 11.0663 197.058 1.26918 190.58C1.19327 190.529 1.10411 190.501 1.01265 190.5C0.921186 190.499 0.831399 190.524 0.75431 190.574C0.677221 190.623 0.616186 190.694 0.578692 190.777C0.541198 190.86 0.528878 190.953 0.543246 191.043Z" fill="#FFC727"/>
<path d="M3.92288 194.539C3.85578 194.478 3.92288 194.356 4.02659 194.411C9.40816 198.415 13.6995 203.704 16.5078 209.796C16.5749 209.954 16.3553 210.095 16.2638 209.936C15.8063 209.137 15.3427 208.362 14.8729 207.6C12.6341 207.179 10.5173 205.605 8.85803 204.11C8.81533 204.074 8.85803 204.007 8.92514 204.049C9.77979 204.826 10.7287 205.492 11.7496 206.032C12.6646 206.496 13.6468 206.788 14.5923 207.16C13.7627 205.843 12.9025 204.58 11.9997 203.36C9.58847 202.44 7.32707 201.168 5.28935 199.584C5.22225 199.535 5.28935 199.431 5.35035 199.474C7.36873 200.696 9.44975 201.812 11.5849 202.817C10.211 201.016 8.73 199.298 7.14995 197.674C6.38741 197.272 5.61877 196.869 4.88063 196.454C4.81963 196.424 4.88063 196.32 4.92943 196.339C5.54032 196.557 6.12376 196.846 6.66802 197.199C5.80788 196.284 4.89893 195.399 3.92288 194.539Z" fill="#263238"/>
<path d="M4.13021 198.626C4.26442 198.703 4.39105 198.793 4.50843 198.894C4.54503 198.925 4.50843 198.974 4.45963 198.955C4.32376 198.893 4.19319 198.819 4.06921 198.736C4.00211 198.693 4.06311 198.583 4.13021 198.626Z" fill="#263238"/>
<path d="M35.3882 245.361H8.54681L10.7124 220.917L11.1882 215.524H32.7467L33.2226 220.917L35.3882 245.361Z" fill="#455A64"/>
<path d="M33.2227 220.917H10.7126L11.1884 215.524H32.7469L33.2227 220.917Z" fill="#263238"/>
<path d="M34.0339 211.76H9.90717V217.098H34.0339V211.76Z" fill="#455A64"/>
<path d="M74.5464 198.645C74.7478 197.607 74.8698 196.68 74.9735 195.692C75.0772 194.704 75.126 193.722 75.1199 192.715C75.1248 191.68 75.035 190.647 74.8515 189.628C74.6588 188.448 74.186 187.331 73.4728 186.371C73.0285 185.828 72.4591 185.401 71.8135 185.126C71.4912 184.991 71.153 184.896 70.807 184.846C70.4839 184.798 70.1569 184.784 69.8309 184.803C68.6246 184.895 67.4762 185.357 66.5428 186.127C65.7037 186.798 64.991 187.614 64.4382 188.536C63.863 189.444 63.4713 190.455 63.2853 191.513C63.1626 192.145 63.2132 192.799 63.4317 193.404C63.5823 193.795 63.8482 194.132 64.1942 194.368C64.5232 194.586 64.9043 194.712 65.2984 194.734C65.7037 194.755 66.1063 194.657 66.4574 194.454C66.7589 194.263 67.015 194.009 67.2078 193.709C67.5132 193.228 67.7206 192.691 67.8178 192.129C67.9919 191.132 67.9919 190.113 67.8178 189.116C67.6646 188.117 67.3007 187.163 66.7502 186.316C66.4562 185.866 66.0587 185.494 65.5912 185.23C65.1073 184.966 64.5483 184.873 64.0051 184.968C63.0322 185.186 62.1516 185.702 61.4857 186.444C60.2219 187.836 59.2141 189.441 58.5087 191.184C59.337 189.533 60.4477 188.041 61.7907 186.773C62.4172 186.165 63.22 185.77 64.0844 185.645C64.4717 185.638 64.8523 185.746 65.1781 185.956C65.5038 186.165 65.7601 186.467 65.9145 186.822C66.3033 187.58 66.5298 188.411 66.5794 189.262C66.6514 190.11 66.5792 190.964 66.3659 191.788C66.2762 192.142 66.1188 192.476 65.9023 192.77C65.8347 192.857 65.7467 192.926 65.6461 192.971C65.5891 192.993 65.5262 192.993 65.4692 192.971C65.3838 192.971 65.2862 192.904 65.274 192.874C65.2486 192.83 65.2301 192.783 65.2191 192.733C65.1772 192.448 65.198 192.156 65.2801 191.879C65.7553 190.364 66.732 189.056 68.0496 188.17C68.5826 187.784 69.2215 187.571 69.8797 187.56C70.0196 187.568 70.1584 187.588 70.2945 187.621C70.4052 187.651 70.5117 187.694 70.6117 187.749C70.802 187.861 70.9613 188.018 71.0754 188.207C71.3991 188.795 71.5887 189.447 71.6305 190.116C71.7023 190.928 71.7023 191.745 71.6305 192.556C71.5588 193.42 71.4427 194.279 71.2828 195.131C71.1242 195.979 70.9229 196.875 70.6727 197.65L74.5464 198.645Z" fill="#FFC727"/>
<path opacity="0.1" d="M74.5464 198.645C74.7478 197.607 74.8698 196.68 74.9735 195.692C75.0772 194.704 75.126 193.722 75.1199 192.715C75.1248 191.68 75.035 190.647 74.8515 189.628C74.6588 188.448 74.186 187.331 73.4728 186.371C73.0285 185.828 72.4591 185.401 71.8135 185.126C71.4912 184.991 71.153 184.896 70.807 184.846C70.4839 184.798 70.1569 184.784 69.8309 184.803C68.6246 184.895 67.4762 185.357 66.5428 186.127C65.7037 186.798 64.991 187.614 64.4382 188.536C63.863 189.444 63.4713 190.455 63.2853 191.513C63.1626 192.145 63.2132 192.799 63.4317 193.404C63.5823 193.795 63.8482 194.132 64.1942 194.368C64.5232 194.586 64.9043 194.712 65.2984 194.734C65.7037 194.755 66.1063 194.657 66.4574 194.454C66.7589 194.263 67.015 194.009 67.2078 193.709C67.5132 193.228 67.7206 192.691 67.8178 192.129C67.9919 191.132 67.9919 190.113 67.8178 189.116C67.6646 188.117 67.3007 187.163 66.7502 186.316C66.4562 185.866 66.0587 185.494 65.5912 185.23C65.1073 184.966 64.5483 184.873 64.0051 184.968C63.0322 185.186 62.1516 185.702 61.4857 186.444C60.2219 187.836 59.2141 189.441 58.5087 191.184C59.337 189.533 60.4477 188.041 61.7907 186.773C62.4172 186.165 63.22 185.77 64.0844 185.645C64.4717 185.638 64.8523 185.746 65.1781 185.956C65.5038 186.165 65.7601 186.467 65.9145 186.822C66.3033 187.58 66.5298 188.411 66.5794 189.262C66.6514 190.11 66.5792 190.964 66.3659 191.788C66.2762 192.142 66.1188 192.476 65.9023 192.77C65.8347 192.857 65.7467 192.926 65.6461 192.971C65.5891 192.993 65.5262 192.993 65.4692 192.971C65.3838 192.971 65.2862 192.904 65.274 192.874C65.2486 192.83 65.2301 192.783 65.2191 192.733C65.1772 192.448 65.198 192.156 65.2801 191.879C65.7553 190.364 66.732 189.056 68.0496 188.17C68.5826 187.784 69.2215 187.571 69.8797 187.56C70.0196 187.568 70.1584 187.588 70.2945 187.621C70.4052 187.651 70.5117 187.694 70.6117 187.749C70.802 187.861 70.9613 188.018 71.0754 188.207C71.3991 188.795 71.5887 189.447 71.6305 190.116C71.7023 190.928 71.7023 191.745 71.6305 192.556C71.5588 193.42 71.4427 194.279 71.2828 195.131C71.1242 195.979 70.9229 196.875 70.6727 197.65L74.5464 198.645Z" fill="black"/>
<path d="M77.6391 243.97C80.3294 247.77 79.7803 259.379 81.4091 261.008C83.0379 262.637 99.7101 262.46 100.857 261.502C102.004 260.544 101.467 256.445 102.687 255.774C103.206 255.505 77.6391 243.97 77.6391 243.97Z" fill="#FFC727"/>
<path opacity="0.1" d="M77.6391 243.97C80.3294 247.77 79.7803 259.379 81.4091 261.008C83.0379 262.637 99.7101 262.46 100.857 261.502C102.004 260.544 101.467 256.445 102.687 255.774C103.206 255.505 77.6391 243.97 77.6391 243.97Z" fill="black"/>
<path d="M148.915 244.159C145.554 249.039 147.372 259.41 145.743 261.008C144.114 262.606 127.442 262.46 126.295 261.502C125.148 260.544 125.685 256.225 125.02 255.402C124.672 254.969 148.915 244.159 148.915 244.159Z" fill="#FFC727"/>
<path opacity="0.1" d="M148.915 244.159C145.554 249.039 147.372 259.41 145.743 261.008C144.114 262.606 127.442 262.46 126.295 261.502C125.148 260.544 125.685 256.225 125.02 255.402C124.672 254.969 148.915 244.159 148.915 244.159Z" fill="black"/>
<path opacity="0.3" d="M102.711 255.774C102.516 255.919 102.352 256.102 102.229 256.311C102.105 256.521 102.024 256.753 101.992 256.994C94.2888 256.101 86.7584 254.085 79.64 251.01C79.2496 248.179 78.6945 245.483 77.6391 243.988C77.6391 243.976 103.206 255.512 102.711 255.774Z" fill="black"/>
<path opacity="0.3" d="M148.915 244.159C147.665 245.989 147.128 248.545 146.865 251.15C140.039 254.174 132.803 256.174 125.392 257.085C125.403 256.503 125.277 255.927 125.026 255.402C124.666 254.969 148.915 244.159 148.915 244.159Z" fill="black"/>
<path d="M112.161 173.804C78.6092 173.804 65.7254 200.09 65.7254 215.475C65.7254 230.653 75.4859 256.445 112.161 256.445C148.836 256.445 160.994 234.594 160.994 215.127C160.994 195.661 146.085 173.804 112.161 173.804Z" fill="#FFC727"/>
<path opacity="0.1" d="M112.161 173.804C78.6092 173.804 65.7254 200.09 65.7254 215.475C65.7254 230.653 75.4859 256.445 112.161 256.445C148.836 256.445 160.994 234.594 160.994 215.127C160.994 195.661 146.085 173.804 112.161 173.804Z" fill="black"/>
<path d="M121.635 175.707C121.635 175.707 136.971 163.946 153.582 165.337C159.298 165.819 149.806 178.214 149.629 187.908L121.635 175.707Z" fill="#FFC727"/>
<path opacity="0.1" d="M121.635 175.707C121.635 175.707 136.971 163.946 153.582 165.337C159.298 165.819 149.806 178.214 149.629 187.908L121.635 175.707Z" fill="black"/>
<path opacity="0.3" d="M143.224 183.162C143.126 183.772 148.421 186.041 148.97 185.694C149.519 185.346 150.068 177.72 154.387 169.595C155.022 168.399 144.248 176.586 143.224 183.162Z" fill="black"/>
<path opacity="0.3" d="M146.554 213.371C147.066 213.292 147.545 213.07 147.935 212.73C148.325 212.39 148.61 211.945 148.757 211.449C148.708 212.059 148.522 212.651 148.212 213.179C147.903 213.707 147.478 214.158 146.969 214.499C146.896 214.548 146.933 214.688 147.03 214.658C149.965 213.554 149.647 209.412 148.616 206.77C148.562 206.624 148.507 206.477 148.439 206.337C147.781 204.806 146.609 203.696 145.194 203.897C140.454 204.58 142.162 214.005 146.554 213.371Z" fill="black"/>
<path d="M157.828 199.95C158.56 202.152 165.221 200.365 166.899 201.78C169.54 203.976 168.808 231.177 166.393 233.367C165.038 234.588 157.486 233.3 155.363 234.795C153.24 236.29 157.828 199.95 157.828 199.95Z" fill="#FFC727"/>
<path opacity="0.1" d="M157.828 199.95C158.56 202.152 165.221 200.365 166.899 201.78C169.54 203.976 168.808 231.177 166.393 233.367C165.038 234.588 157.486 233.3 155.363 234.795C153.24 236.29 157.828 199.95 157.828 199.95Z" fill="black"/>
<path opacity="0.3" d="M167.277 216.89C167.277 223.515 166.722 228.89 166.057 228.89C165.392 228.89 164.837 223.515 164.837 216.89C164.837 210.265 165.386 204.891 166.057 204.891C166.728 204.891 167.277 210.265 167.277 216.89Z" fill="black"/>
<path opacity="0.3" d="M99.1429 182.521C99.2527 182.485 110.575 178.806 121.104 181.686L122.153 177.848C110.429 174.64 98.3621 178.58 97.8802 178.745L99.1368 182.521L98.5268 180.636L99.1429 182.521Z" fill="black"/>
<path d="M83.4042 240.279C68.2815 222.899 77.5357 202.719 77.9566 201.847C78.2151 201.259 78.2365 200.594 78.0161 199.991C77.7958 199.388 77.3508 198.893 76.7743 198.61C76.1977 198.328 75.5341 198.279 74.9223 198.474C74.3104 198.669 73.7977 199.093 73.4911 199.657C71.4483 204.235 70.2397 209.142 69.9225 214.145C69.1965 225.199 72.8506 235.35 81.5131 242.262C84.1301 244.348 85.3685 242.518 83.4042 240.279Z" fill="white"/>
<path d="M76.8401 194.136C76.8389 194.672 76.9967 195.197 77.2936 195.643C77.5905 196.089 78.0131 196.437 78.5079 196.643C79.0027 196.849 79.5475 196.904 80.0733 196.8C80.5991 196.696 81.0823 196.438 81.4617 196.06C81.8411 195.681 82.0997 195.199 82.2047 194.673C82.3097 194.148 82.2564 193.603 82.0516 193.107C81.8468 192.612 81.4996 192.189 81.0541 191.891C80.6085 191.593 80.0846 191.434 79.5487 191.434C78.8314 191.434 78.1434 191.718 77.6356 192.225C77.1278 192.732 76.8417 193.419 76.8401 194.136Z" fill="white"/>
<path d="M211.199 258.074H192.075V262.301H211.199V258.074Z" fill="#FFC727"/>
<g opacity="0.1">
<path opacity="0.1" d="M192.862 258.458C193.266 259.551 193.266 260.751 192.862 261.844C192.458 260.751 192.458 259.551 192.862 258.458Z" fill="black"/>
<path opacity="0.1" d="M194.283 258.458C194.687 259.55 194.687 260.751 194.283 261.844C193.879 260.751 193.879 259.55 194.283 258.458Z" fill="black"/>
<path opacity="0.1" d="M194.978 258.458C195.382 259.55 195.382 260.751 194.978 261.844C194.574 260.751 194.574 259.55 194.978 258.458Z" fill="black"/>
<path opacity="0.1" d="M198.803 258.458C199.202 259.551 199.202 260.75 198.803 261.844C198.399 260.751 198.399 259.55 198.803 258.458Z" fill="black"/>
<path opacity="0.1" d="M199.834 258.458C200.044 258.998 200.148 259.574 200.139 260.154C200.151 260.732 200.047 261.306 199.834 261.844C199.619 261.307 199.516 260.732 199.529 260.154C199.521 259.574 199.624 258.998 199.834 258.458Z" fill="black"/>
<path opacity="0.1" d="M204.105 258.458C204.509 259.55 204.509 260.751 204.105 261.844C203.701 260.751 203.701 259.55 204.105 258.458Z" fill="black"/>
<path opacity="0.1" d="M205.093 258.458C205.497 259.55 205.497 260.751 205.093 261.844C204.689 260.751 204.689 259.55 205.093 258.458Z" fill="black"/>
<path opacity="0.1" d="M206.905 258.458C207.309 259.55 207.309 260.751 206.905 261.844C206.506 260.75 206.506 259.551 206.905 258.458Z" fill="black"/>
<path opacity="0.1" d="M203.281 258.458C203.493 259 203.594 259.578 203.58 260.16C203.594 260.738 203.49 261.313 203.275 261.85C203.062 261.312 202.959 260.738 202.97 260.16C202.962 259.578 203.068 259 203.281 258.458Z" fill="black"/>
<path opacity="0.1" d="M196.26 258.458C196.664 259.55 196.664 260.751 196.26 261.844C195.856 260.751 195.856 259.55 196.26 258.458Z" fill="black"/>
<path opacity="0.1" d="M201.195 258.458C201.599 259.55 201.599 260.751 201.195 261.844C200.98 261.307 200.876 260.732 200.89 260.154C200.878 259.574 200.982 258.998 201.195 258.458Z" fill="black"/>
<path opacity="0.1" d="M201.909 258.458C202.313 259.55 202.313 260.751 201.909 261.844C201.505 260.751 201.505 259.55 201.909 258.458Z" fill="black"/>
<path opacity="0.1" d="M209.271 258.458C209.481 258.998 209.585 259.574 209.576 260.154C209.588 260.732 209.484 261.306 209.271 261.844C209.056 261.307 208.953 260.732 208.966 260.154C208.955 259.574 209.058 258.998 209.271 258.458Z" fill="black"/>
<path opacity="0.1" d="M210.339 258.458C210.549 258.998 210.653 259.574 210.644 260.154C210.658 260.732 210.554 261.307 210.339 261.844C210.126 261.306 210.023 260.732 210.034 260.154C210.025 259.574 210.129 258.998 210.339 258.458Z" fill="black"/>
<path opacity="0.1" d="M207.746 258.458C208.15 259.55 208.15 260.751 207.746 261.844C207.342 260.751 207.342 259.55 207.746 258.458Z" fill="black"/>
<path opacity="0.1" d="M197.974 258.458C198.187 258.998 198.29 259.574 198.279 260.154C198.293 260.732 198.189 261.307 197.974 261.844C197.57 260.751 197.57 259.55 197.974 258.458Z" fill="black"/>
</g>
<path opacity="0.1" d="M211.199 258.074V258.97L192.069 259.574V258.074H211.199Z" fill="black"/>
<path d="M209.601 253.846H190.477V258.074H209.601V253.846Z" fill="#FFC727"/>
<g opacity="0.1">
<path opacity="0.1" d="M208.741 257.616C208.334 256.526 208.334 255.326 208.741 254.237C209.148 255.326 209.148 256.526 208.741 257.616Z" fill="black"/>
<path opacity="0.1" d="M207.319 257.616C207.107 257.079 207.003 256.504 207.014 255.926C206.999 255.348 207.103 254.773 207.319 254.237C207.533 254.774 207.637 255.348 207.625 255.926C207.633 256.504 207.53 257.078 207.319 257.616Z" fill="black"/>
<path opacity="0.1" d="M206.63 257.616C206.223 256.526 206.223 255.326 206.63 254.237C207.037 255.326 207.037 256.526 206.63 257.616Z" fill="black"/>
<path opacity="0.1" d="M202.805 257.616C202.398 256.526 202.398 255.326 202.805 254.237C203.212 255.326 203.212 256.526 202.805 257.616Z" fill="black"/>
<path opacity="0.1" d="M201.75 257.616C201.54 257.078 201.436 256.504 201.445 255.926C201.433 255.348 201.537 254.774 201.75 254.237C201.966 254.773 202.07 255.348 202.055 255.926C202.067 256.504 201.963 257.079 201.75 257.616Z" fill="black"/>
<path opacity="0.1" d="M197.48 257.616C197.073 256.526 197.073 255.326 197.48 254.237C197.887 255.326 197.887 256.526 197.48 257.616Z" fill="black"/>
<path opacity="0.1" d="M196.51 257.616C196.297 257.079 196.193 256.504 196.205 255.926C196.19 255.348 196.293 254.773 196.51 254.237C196.917 255.326 196.917 256.526 196.51 257.616Z" fill="black"/>
<path opacity="0.1" d="M194.698 257.616C194.291 256.526 194.291 255.326 194.698 254.237C195.105 255.326 195.105 256.526 194.698 257.616Z" fill="black"/>
<path opacity="0.1" d="M198.322 257.616C198.112 257.078 198.008 256.504 198.017 255.926C198.001 255.348 198.105 254.773 198.322 254.237C198.535 254.774 198.639 255.348 198.627 255.926C198.635 256.504 198.532 257.078 198.322 257.616Z" fill="black"/>
<path opacity="0.1" d="M205.361 257.616C205.148 257.079 205.045 256.504 205.056 255.926C205.041 255.348 205.145 254.773 205.361 254.237C205.768 255.326 205.768 256.526 205.361 257.616Z" fill="black"/>
<path opacity="0.1" d="M200.408 257.616C200.001 256.526 200.001 255.326 200.408 254.237C200.815 255.326 200.815 256.526 200.408 257.616Z" fill="black"/>
<path opacity="0.1" d="M199.7 257.616C199.293 256.526 199.293 255.326 199.7 254.237C200.099 255.328 200.099 256.525 199.7 257.616Z" fill="black"/>
<path opacity="0.1" d="M192.331 257.616C191.924 256.526 191.924 255.326 192.331 254.237C192.547 254.773 192.651 255.348 192.636 255.926C192.648 256.504 192.544 257.079 192.331 257.616Z" fill="black"/>
<path opacity="0.1" d="M191.264 257.616C191.054 257.078 190.95 256.504 190.959 255.926C190.946 255.348 191.05 254.774 191.264 254.237C191.48 254.773 191.584 255.348 191.569 255.926C191.58 256.504 191.476 257.079 191.264 257.616Z" fill="black"/>
<path opacity="0.1" d="M193.856 257.616C193.449 256.526 193.449 255.326 193.856 254.237C194.263 255.326 194.263 256.526 193.856 257.616Z" fill="black"/>
<path opacity="0.1" d="M203.629 257.616C203.416 257.079 203.312 256.504 203.324 255.926C203.309 255.348 203.413 254.773 203.629 254.237C203.842 254.774 203.946 255.348 203.934 255.926C203.943 256.504 203.839 257.078 203.629 257.616Z" fill="black"/>
</g>
<path opacity="0.1" d="M209.601 253.846V254.743L190.477 255.347V253.846H209.601Z" fill="black"/>
<path d="M211.071 249.655H191.947V253.883H211.071V249.655Z" fill="#FFC727"/>
<g opacity="0.1">
<path opacity="0.1" d="M192.74 250.04C193.144 251.132 193.144 252.333 192.74 253.425C192.336 252.333 192.336 251.132 192.74 250.04Z" fill="black"/>
<path opacity="0.1" d="M194.161 250.04C194.374 250.579 194.478 251.156 194.466 251.736C194.48 252.314 194.376 252.889 194.161 253.425C193.757 252.333 193.757 251.132 194.161 250.04Z" fill="black"/>
<path opacity="0.1" d="M194.857 250.04C195.261 251.132 195.261 252.333 194.857 253.425C194.453 252.333 194.453 251.132 194.857 250.04Z" fill="black"/>
<path opacity="0.1" d="M198.7 250.04C199.104 251.132 199.104 252.333 198.7 253.425C198.296 252.333 198.296 251.132 198.7 250.04Z" fill="black"/>
<path opacity="0.1" d="M199.713 250.04C199.923 250.58 200.026 251.156 200.018 251.736C200.029 252.313 199.925 252.888 199.713 253.425C199.498 252.889 199.394 252.314 199.408 251.736C199.396 251.156 199.5 250.579 199.713 250.04Z" fill="black"/>
<path opacity="0.1" d="M203.983 250.04C204.387 251.132 204.387 252.333 203.983 253.425C203.579 252.333 203.579 251.132 203.983 250.04Z" fill="black"/>
<path opacity="0.1" d="M204.971 250.04C205.375 251.132 205.375 252.333 204.971 253.425C204.567 252.333 204.567 251.132 204.971 250.04Z" fill="black"/>
<path opacity="0.1" d="M206.783 250.04C207.187 251.132 207.187 252.333 206.783 253.425C206.379 252.333 206.379 251.132 206.783 250.04Z" fill="black"/>
<path opacity="0.1" d="M203.159 250.04C203.369 250.58 203.473 251.156 203.464 251.736C203.478 252.314 203.374 252.889 203.159 253.425C202.947 252.888 202.843 252.313 202.854 251.736C202.846 251.156 202.949 250.58 203.159 250.04Z" fill="black"/>
<path opacity="0.1" d="M196.12 250.04C196.524 251.132 196.524 252.333 196.12 253.425C195.716 252.333 195.716 251.132 196.12 250.04Z" fill="black"/>
<path opacity="0.1" d="M201.073 250.04C201.477 251.132 201.477 252.333 201.073 253.425C200.669 252.333 200.669 251.132 201.073 250.04Z" fill="black"/>
<path opacity="0.1" d="M201.787 250.04C202.185 251.133 202.185 252.332 201.787 253.425C201.383 252.333 201.383 251.132 201.787 250.04Z" fill="black"/>
<path opacity="0.1" d="M209.15 250.04C209.554 251.132 209.554 252.333 209.15 253.425C208.935 252.889 208.831 252.314 208.845 251.736C208.833 251.156 208.937 250.579 209.15 250.04Z" fill="black"/>
<path opacity="0.1" d="M210.217 250.04C210.428 250.58 210.531 251.156 210.522 251.736C210.534 252.313 210.43 252.888 210.217 253.425C210.002 252.889 209.899 252.314 209.912 251.736C209.904 251.156 210.007 250.58 210.217 250.04Z" fill="black"/>
<path opacity="0.1" d="M207.625 250.04C208.029 251.132 208.029 252.333 207.625 253.425C207.221 252.333 207.221 251.132 207.625 250.04Z" fill="black"/>
<path opacity="0.1" d="M197.852 250.04C198.065 250.579 198.169 251.156 198.157 251.736C198.171 252.314 198.067 252.889 197.852 253.425C197.639 252.888 197.536 252.313 197.547 251.736C197.538 251.156 197.642 250.58 197.852 250.04Z" fill="black"/>
</g>
<path opacity="0.1" d="M211.077 249.655V250.552L191.947 251.156V249.655H211.077Z" fill="black"/>
<path d="M71.3252 255.53H52.2008V259.757H71.3252V255.53Z" fill="#FFC727"/>
<g opacity="0.1">
<path opacity="0.1" d="M52.9879 255.891C53.3919 256.984 53.3919 258.185 52.9879 259.277C52.5838 258.185 52.5838 256.984 52.9879 255.891Z" fill="black"/>
<path opacity="0.1" d="M54.4152 255.89C54.6247 256.428 54.7283 257.002 54.7202 257.579C54.7318 258.159 54.6281 258.736 54.4152 259.275C54.1993 258.737 54.0955 258.16 54.1102 257.579C54.099 257.002 54.2027 256.427 54.4152 255.89Z" fill="black"/>
<path opacity="0.1" d="M55.1108 255.89C55.3204 256.428 55.424 257.002 55.4158 257.579C55.4304 258.16 55.3266 258.737 55.1108 259.275C54.8978 258.736 54.7942 258.159 54.8058 257.579C54.7976 257.002 54.9012 256.428 55.1108 255.89Z" fill="black"/>
<path opacity="0.1" d="M58.9295 255.89C59.3335 256.982 59.3335 258.183 58.9295 259.275C58.5255 258.183 58.5255 256.982 58.9295 255.89Z" fill="black"/>
<path opacity="0.1" d="M59.9666 255.89C60.3707 256.982 60.3707 258.183 59.9666 259.275C59.5626 258.183 59.5626 256.982 59.9666 255.89Z" fill="black"/>
<path opacity="0.1" d="M64.2368 255.89C64.4493 256.427 64.553 257.002 64.5419 257.579C64.5565 258.16 64.4527 258.737 64.2368 259.275C63.8328 258.183 63.8328 256.982 64.2368 255.89Z" fill="black"/>
<path opacity="0.1" d="M65.2251 255.89C65.4347 256.428 65.5382 257.002 65.5301 257.579C65.5447 258.16 65.4409 258.737 65.2251 259.275C65.0121 258.736 64.9084 258.159 64.9201 257.579C64.9119 257.002 65.0155 256.428 65.2251 255.89Z" fill="black"/>
<path opacity="0.1" d="M67.0369 255.89C67.2494 256.427 67.353 257.002 67.3419 257.579C67.3565 258.16 67.2527 258.737 67.0369 259.275C66.6329 258.183 66.6329 256.982 67.0369 255.89Z" fill="black"/>
<path opacity="0.1" d="M63.4133 255.89C63.8173 256.982 63.8173 258.183 63.4133 259.275C63.1975 258.737 63.0937 258.16 63.1083 257.579C63.0972 257.002 63.2008 256.427 63.4133 255.89Z" fill="black"/>
<path opacity="0.1" d="M56.3735 255.89C56.5831 256.428 56.6866 257.002 56.6785 257.579C56.6901 258.159 56.5864 258.736 56.3735 259.275C56.1576 258.737 56.0538 258.16 56.0685 257.579C56.0603 257.002 56.1639 256.428 56.3735 255.89Z" fill="black"/>
<path opacity="0.1" d="M61.327 255.89C61.731 256.982 61.731 258.183 61.327 259.275C60.923 258.183 60.923 256.982 61.327 255.89Z" fill="black"/>
<path opacity="0.1" d="M62.0529 255.89C62.457 256.982 62.457 258.183 62.0529 259.275C61.6489 258.183 61.6489 256.982 62.0529 255.89Z" fill="black"/>
<path opacity="0.1" d="M69.4038 255.89C69.8078 256.982 69.8078 258.183 69.4038 259.275C68.9998 258.183 68.9998 256.982 69.4038 255.89Z" fill="black"/>
<path opacity="0.1" d="M70.4713 255.89C70.8753 256.982 70.8753 258.183 70.4713 259.275C70.0673 258.183 70.0673 256.982 70.4713 255.89Z" fill="black"/>
<path opacity="0.1" d="M67.8787 255.89C68.0912 256.427 68.1948 257.002 68.1837 257.579C68.1983 258.16 68.0945 258.737 67.8787 259.275C67.4747 258.183 67.4747 256.982 67.8787 255.89Z" fill="black"/>
<path opacity="0.1" d="M58.1061 255.89C58.3156 256.428 58.4192 257.002 58.4111 257.579C58.4227 258.159 58.319 258.736 58.1061 259.275C57.8902 258.737 57.7864 258.16 57.801 257.579C57.7899 257.002 57.8936 256.427 58.1061 255.89Z" fill="black"/>
</g>
<path opacity="0.1" d="M71.3313 255.53V256.427L52.2008 257.031V255.53H71.3313Z" fill="black"/>
<path d="M70.0199 251.302H50.8955V255.53H70.0199V251.302Z" fill="#FFC727"/>
<g opacity="0.1">
<path opacity="0.1" d="M51.6824 251.687C51.8925 252.227 51.9961 252.803 51.9874 253.383C52.0012 253.961 51.8975 254.536 51.6824 255.072C51.4674 254.536 51.3636 253.961 51.3774 253.383C51.3688 252.803 51.4724 252.227 51.6824 251.687Z" fill="black"/>
<path opacity="0.1" d="M53.104 251.687C53.508 252.779 53.508 253.98 53.104 255.072C52.7053 253.979 52.7053 252.78 53.104 251.687Z" fill="black"/>
<path opacity="0.1" d="M53.8054 251.687C54.2094 252.779 54.2094 253.98 53.8054 255.072C53.4013 253.98 53.4013 252.779 53.8054 251.687Z" fill="black"/>
<path opacity="0.1" d="M57.6241 251.687C58.0281 252.779 58.0281 253.98 57.6241 255.072C57.409 254.536 57.3053 253.961 57.3191 253.383C57.3074 252.803 57.4111 252.226 57.6241 251.687Z" fill="black"/>
<path opacity="0.1" d="M58.6552 251.687C59.0593 252.779 59.0593 253.98 58.6552 255.072C58.2512 253.98 58.2512 252.779 58.6552 251.687Z" fill="black"/>
<path opacity="0.1" d="M62.9314 251.687C63.3354 252.779 63.3354 253.98 62.9314 255.072C62.5274 253.98 62.5274 252.779 62.9314 251.687Z" fill="black"/>
<path opacity="0.1" d="M63.9196 251.687C64.3237 252.779 64.3237 253.98 63.9196 255.072C63.5156 253.98 63.5156 252.779 63.9196 251.687Z" fill="black"/>
<path opacity="0.1" d="M65.7132 251.687C66.1172 252.779 66.1172 253.98 65.7132 255.072C65.3092 253.98 65.3092 252.779 65.7132 251.687Z" fill="black"/>
<path opacity="0.1" d="M62.1019 251.687C62.5059 252.779 62.5059 253.98 62.1019 255.072C61.6979 253.98 61.6979 252.779 62.1019 251.687Z" fill="black"/>
<path opacity="0.1" d="M55.0681 251.687C55.4721 252.779 55.4721 253.98 55.0681 255.072C54.6641 253.98 54.6641 252.779 55.0681 251.687Z" fill="black"/>
<path opacity="0.1" d="M60.0155 251.687C60.2285 252.226 60.3321 252.803 60.3205 253.383C60.3343 253.961 60.2306 254.536 60.0155 255.072C59.803 254.535 59.6994 253.96 59.7105 253.383C59.7019 252.803 59.8055 252.227 60.0155 251.687Z" fill="black"/>
<path opacity="0.1" d="M60.7292 251.687C61.1332 252.779 61.1332 253.98 60.7292 255.072C60.5142 254.536 60.4104 253.961 60.4242 253.383C60.4126 252.803 60.5162 252.226 60.7292 251.687Z" fill="black"/>
<path opacity="0.1" d="M68.0923 251.687C68.3052 252.226 68.4089 252.803 68.3973 253.383C68.4111 253.961 68.3073 254.536 68.0923 255.072C67.6882 253.98 67.6882 252.779 68.0923 251.687Z" fill="black"/>
<path opacity="0.1" d="M69.1599 251.687C69.5639 252.779 69.5639 253.98 69.1599 255.072C68.7559 253.98 68.7559 252.779 69.1599 251.687Z" fill="black"/>
<path opacity="0.1" d="M66.5733 251.687C66.9773 252.779 66.9773 253.98 66.5733 255.072C66.1693 253.98 66.1693 252.779 66.5733 251.687Z" fill="black"/>
<path opacity="0.1" d="M56.7946 251.687C57.1987 252.779 57.1987 253.98 56.7946 255.072C56.3906 253.98 56.3906 252.779 56.7946 251.687Z" fill="black"/>
</g>
<path opacity="0.1" d="M70.0199 251.302V252.199L50.8955 252.803V251.302H70.0199Z" fill="black"/>
<path d="M72.9723 242.884H53.8478V247.111H72.9723V242.884Z" fill="#FFC727"/>
<g opacity="0.1">
<path opacity="0.1" d="M54.6349 243.268C55.0389 244.361 55.0389 245.561 54.6349 246.654C54.2309 245.561 54.2309 244.361 54.6349 243.268Z" fill="black"/>
<path opacity="0.1" d="M56.0623 243.268C56.2724 243.809 56.3759 244.384 56.3673 244.964C56.3785 245.542 56.2748 246.116 56.0623 246.654C55.8473 246.117 55.7435 245.542 55.7573 244.964C55.7457 244.384 55.8493 243.808 56.0623 243.268Z" fill="black"/>
<path opacity="0.1" d="M56.7578 243.268C56.9679 243.809 57.0715 244.384 57.0628 244.964C57.074 245.542 56.9703 246.116 56.7578 246.654C56.5428 246.117 56.439 245.542 56.4528 244.964C56.4442 244.384 56.5478 243.809 56.7578 243.268Z" fill="black"/>
<path opacity="0.1" d="M60.5766 243.268C60.7896 243.808 60.8933 244.384 60.8816 244.964C60.8954 245.542 60.7917 246.117 60.5766 246.654C60.1726 245.561 60.1726 244.361 60.5766 243.268Z" fill="black"/>
<path opacity="0.1" d="M61.6138 243.268C62.0178 244.361 62.0178 245.561 61.6138 246.654C61.2098 245.561 61.2098 244.361 61.6138 243.268Z" fill="black"/>
<path opacity="0.1" d="M65.8839 243.268C66.0969 243.808 66.2006 244.384 66.1889 244.964C66.2027 245.542 66.099 246.117 65.8839 246.654C65.6714 246.116 65.5678 245.542 65.5789 244.964C65.5703 244.384 65.6739 243.809 65.8839 243.268Z" fill="black"/>
<path opacity="0.1" d="M66.8721 243.268C67.0822 243.809 67.1858 244.384 67.1771 244.964C67.1883 245.542 67.0846 246.116 66.8721 246.654C66.6571 246.117 66.5533 245.542 66.5671 244.964C66.5585 244.384 66.6621 243.809 66.8721 243.268Z" fill="black"/>
<path opacity="0.1" d="M68.684 243.268C68.8969 243.808 69.0006 244.384 68.989 244.964C69.0028 245.542 68.899 246.117 68.684 246.654C68.2799 245.561 68.2799 244.361 68.684 243.268Z" fill="black"/>
<path opacity="0.1" d="M65.0605 243.268C65.4645 244.361 65.4645 245.561 65.0605 246.654C64.6564 245.561 64.6564 244.361 65.0605 243.268Z" fill="black"/>
<path opacity="0.1" d="M58.0206 243.268C58.2307 243.809 58.3343 244.384 58.3256 244.964C58.3368 245.542 58.2331 246.116 58.0206 246.654C57.8056 246.117 57.7018 245.542 57.7156 244.964C57.707 244.384 57.8106 243.809 58.0206 243.268Z" fill="black"/>
<path opacity="0.1" d="M62.968 243.268C63.372 244.361 63.372 245.561 62.968 246.654C62.5693 245.561 62.5693 244.362 62.968 243.268Z" fill="black"/>
<path opacity="0.1" d="M63.6816 243.268C64.0857 244.361 64.0857 245.561 63.6816 246.654C63.2776 245.561 63.2776 244.361 63.6816 243.268Z" fill="black"/>
<path opacity="0.1" d="M71.0508 243.268C71.4548 244.361 71.4548 245.561 71.0508 246.654C70.6468 245.561 70.6468 244.361 71.0508 243.268Z" fill="black"/>
<path opacity="0.1" d="M72.1184 243.268C72.5224 244.361 72.5224 245.561 72.1184 246.654C71.7144 245.561 71.7144 244.361 72.1184 243.268Z" fill="black"/>
<path opacity="0.1" d="M69.5258 243.268C69.7387 243.808 69.8424 244.384 69.8308 244.964C69.8446 245.542 69.7408 246.117 69.5258 246.654C69.3133 246.116 69.2096 245.542 69.2208 244.964C69.2121 244.384 69.3157 243.809 69.5258 243.268Z" fill="black"/>
<path opacity="0.1" d="M59.7532 243.268C59.9632 243.809 60.0668 244.384 60.0582 244.964C60.0693 245.542 59.9656 246.116 59.7532 246.654C59.5381 246.117 59.4344 245.542 59.4481 244.964C59.4365 244.384 59.5402 243.808 59.7532 243.268Z" fill="black"/>
</g>
<path opacity="0.1" d="M72.9723 242.884V243.781L53.8478 244.385V242.884H72.9723Z" fill="black"/>
<path d="M72.4905 238.656H53.3661V242.884H72.4905V238.656Z" fill="#FFC727"/>
<g opacity="0.1">
<path opacity="0.1" d="M71.6362 242.426C71.2293 241.337 71.2293 240.137 71.6362 239.047C72.0349 240.138 72.0349 241.335 71.6362 242.426Z" fill="black"/>
<path opacity="0.1" d="M70.2088 242.426C69.9988 241.888 69.8952 241.314 69.9038 240.737C69.8917 240.159 69.9954 239.584 70.2088 239.047C70.4252 239.583 70.529 240.158 70.5138 240.737C70.5224 241.314 70.4188 241.888 70.2088 242.426Z" fill="black"/>
<path opacity="0.1" d="M69.5133 242.426C69.3004 241.889 69.1967 241.314 69.2083 240.737C69.1931 240.158 69.297 239.583 69.5133 239.047C69.7267 239.584 69.8304 240.159 69.8183 240.737C69.8269 241.314 69.7233 241.888 69.5133 242.426Z" fill="black"/>
<path opacity="0.1" d="M65.7127 242.426C65.3059 241.337 65.3059 240.137 65.7127 239.047C66.1196 240.137 66.1196 241.337 65.7127 242.426Z" fill="black"/>
<path opacity="0.1" d="M64.6574 242.426C64.2506 241.337 64.2506 240.137 64.6574 239.047C65.0643 240.137 65.0643 241.337 64.6574 242.426Z" fill="black"/>
<path opacity="0.1" d="M60.3873 242.426C60.1744 241.889 60.0707 241.314 60.0823 240.737C60.0671 240.158 60.1709 239.583 60.3873 239.047C60.7942 240.137 60.7942 241.337 60.3873 242.426Z" fill="black"/>
<path opacity="0.1" d="M59.3989 242.426C59.186 241.889 59.0823 241.314 59.0939 240.737C59.0787 240.158 59.1825 239.583 59.3989 239.047C59.6123 239.584 59.716 240.159 59.7039 240.737C59.7125 241.314 59.6089 241.888 59.3989 242.426Z" fill="black"/>
<path opacity="0.1" d="M57.5873 242.426C57.1805 241.337 57.1805 240.137 57.5873 239.047C57.9941 240.137 57.9941 241.337 57.5873 242.426Z" fill="black"/>
<path opacity="0.1" d="M61.2109 242.426C61.0009 241.888 60.8973 241.314 60.9059 240.737C60.8938 240.159 60.9975 239.584 61.2109 239.047C61.4273 239.583 61.5311 240.158 61.5159 240.737C61.5275 241.314 61.4239 241.889 61.2109 242.426Z" fill="black"/>
<path opacity="0.1" d="M68.2506 242.426C68.0405 241.888 67.9369 241.314 67.9455 240.737C67.9304 240.158 68.0342 239.583 68.2506 239.047C68.464 239.584 68.5677 240.159 68.5556 240.737C68.5642 241.314 68.4606 241.888 68.2506 242.426Z" fill="black"/>
<path opacity="0.1" d="M63.2726 242.426C62.8657 241.337 62.8657 240.137 63.2726 239.047C63.6794 240.137 63.6794 241.337 63.2726 242.426Z" fill="black"/>
<path opacity="0.1" d="M62.5896 242.426C62.1828 241.337 62.1828 240.137 62.5896 239.047C62.9965 240.137 62.9965 241.337 62.5896 242.426Z" fill="black"/>
<path opacity="0.1" d="M55.2202 242.426C54.8134 241.337 54.8134 240.137 55.2202 239.047C55.6271 240.137 55.6271 241.337 55.2202 242.426Z" fill="black"/>
<path opacity="0.1" d="M54.153 242.426C53.7461 241.337 53.7461 240.137 54.153 239.047C54.5598 240.137 54.5598 241.337 54.153 242.426Z" fill="black"/>
<path opacity="0.1" d="M56.7454 242.426C56.3386 241.337 56.3386 240.137 56.7454 239.047C57.1523 240.137 57.1523 241.337 56.7454 242.426Z" fill="black"/>
<path opacity="0.1" d="M66.5182 242.426C66.3082 241.888 66.2046 241.314 66.2132 240.737C66.2011 240.159 66.3048 239.584 66.5182 239.047C66.7345 239.583 66.8384 240.158 66.8232 240.737C66.8318 241.314 66.7282 241.888 66.5182 242.426Z" fill="black"/>
</g>
<path opacity="0.1" d="M72.4905 238.656V239.553L53.3661 240.157V238.656H72.4905Z" fill="black"/>
<path d="M71.3252 234.429H52.2008V238.656H71.3252V234.429Z" fill="#FFC727"/>
<g opacity="0.1">
<path opacity="0.1" d="M52.9878 234.819C53.3946 235.909 53.3946 237.109 52.9878 238.199C52.589 237.108 52.589 235.911 52.9878 234.819Z" fill="black"/>
<path opacity="0.1" d="M54.4153 234.819C54.6254 235.358 54.7289 235.931 54.7203 236.509C54.732 237.087 54.6283 237.662 54.4153 238.199C54.2003 237.662 54.0965 237.087 54.1103 236.509C54.1017 235.931 54.2053 235.358 54.4153 234.819Z" fill="black"/>
<path opacity="0.1" d="M55.1107 234.819C55.3237 235.357 55.4274 235.931 55.4158 236.509C55.4295 237.087 55.3258 237.662 55.1107 238.199C54.8978 237.662 54.7941 237.087 54.8057 236.509C54.7971 235.931 54.9007 235.358 55.1107 234.819Z" fill="black"/>
<path opacity="0.1" d="M58.9297 234.819C59.3365 235.909 59.3365 237.109 58.9297 238.199C58.5228 237.109 58.5228 235.909 58.9297 234.819Z" fill="black"/>
<path opacity="0.1" d="M59.9666 234.819C60.3734 235.909 60.3734 237.109 59.9666 238.199C59.5598 237.109 59.5598 235.909 59.9666 234.819Z" fill="black"/>
<path opacity="0.1" d="M64.2367 234.819C64.6436 235.909 64.6436 237.109 64.2367 238.199C63.8299 237.109 63.8299 235.909 64.2367 234.819Z" fill="black"/>
<path opacity="0.1" d="M65.2251 234.819C65.4381 235.357 65.5418 235.931 65.5302 236.509C65.544 237.087 65.4402 237.662 65.2251 238.199C65.0122 237.662 64.9085 237.087 64.9201 236.509C64.9115 235.931 65.0151 235.358 65.2251 234.819Z" fill="black"/>
<path opacity="0.1" d="M67.0368 234.819C67.4436 235.909 67.4436 237.109 67.0368 238.199C66.6299 237.109 66.6299 235.909 67.0368 234.819Z" fill="black"/>
<path opacity="0.1" d="M63.4132 234.819C63.6233 235.358 63.7268 235.931 63.7182 236.509C63.7299 237.087 63.6262 237.662 63.4132 238.199C63.1982 237.662 63.0944 237.087 63.1082 236.509C63.0966 235.931 63.2003 235.357 63.4132 234.819Z" fill="black"/>
<path opacity="0.1" d="M56.3735 234.819C56.5836 235.358 56.6871 235.931 56.6785 236.509C56.6923 237.087 56.5886 237.662 56.3735 238.199C56.1606 237.662 56.0569 237.087 56.0685 236.509C56.0599 235.931 56.1635 235.358 56.3735 234.819Z" fill="black"/>
<path opacity="0.1" d="M61.3271 234.819C61.7339 235.909 61.7339 237.109 61.3271 238.199C60.9202 237.109 60.9202 235.909 61.3271 234.819Z" fill="black"/>
<path opacity="0.1" d="M62.053 234.819C62.4599 235.909 62.4599 237.109 62.053 238.199C61.6462 237.109 61.6462 235.909 62.053 234.819Z" fill="black"/>
<path opacity="0.1" d="M69.4036 234.819C69.8105 235.909 69.8105 237.109 69.4036 238.199C68.9968 237.109 68.9968 235.909 69.4036 234.819Z" fill="black"/>
<path opacity="0.1" d="M70.4712 234.819C70.8781 235.909 70.8781 237.109 70.4712 238.199C70.0644 237.109 70.0644 235.909 70.4712 234.819Z" fill="black"/>
<path opacity="0.1" d="M67.8788 234.819C68.2856 235.909 68.2856 237.109 67.8788 238.199C67.4719 237.109 67.4719 235.909 67.8788 234.819Z" fill="black"/>
<path opacity="0.1" d="M58.1059 234.819C58.316 235.358 58.4196 235.931 58.411 236.509C58.4226 237.087 58.3189 237.662 58.1059 238.199C57.8909 237.662 57.7871 237.087 57.8009 236.509C57.7923 235.931 57.8959 235.358 58.1059 234.819Z" fill="black"/>
</g>
<path opacity="0.1" d="M71.3313 234.429V235.332L52.2008 235.936V234.429H71.3313Z" fill="black"/>
<path d="M71.3252 247.111H52.2008V251.339H71.3252V247.111Z" fill="#FFC727"/>
<g opacity="0.1">
<path opacity="0.1" d="M70.4713 250.881C70.0673 249.789 70.0673 248.588 70.4713 247.496C70.8753 248.588 70.8753 249.789 70.4713 250.881Z" fill="black"/>
<path opacity="0.1" d="M69.044 250.881C68.64 249.789 68.64 248.588 69.044 247.496C69.448 248.588 69.448 249.789 69.044 250.881Z" fill="black"/>
<path opacity="0.1" d="M68.3485 250.881C67.9445 249.789 67.9445 248.588 68.3485 247.496C68.5635 248.033 68.6673 248.607 68.6535 249.186C68.6651 249.765 68.5614 250.342 68.3485 250.881Z" fill="black"/>
<path opacity="0.1" d="M64.5297 250.881C64.3196 250.341 64.216 249.765 64.2247 249.186C64.2109 248.607 64.3146 248.033 64.5297 247.496C64.7422 248.033 64.8458 248.608 64.8347 249.186C64.8433 249.765 64.7397 250.341 64.5297 250.881Z" fill="black"/>
<path opacity="0.1" d="M63.4986 250.881C63.0946 249.789 63.0946 248.588 63.4986 247.496C63.8973 248.589 63.8973 249.788 63.4986 250.881Z" fill="black"/>
<path opacity="0.1" d="M59.2224 250.881C59.0123 250.341 58.9087 249.765 58.9173 249.186C58.9062 248.608 59.0099 248.033 59.2224 247.496C59.4374 248.033 59.5412 248.607 59.5274 249.186C59.536 249.765 59.4324 250.341 59.2224 250.881Z" fill="black"/>
<path opacity="0.1" d="M58.2342 250.881C57.8302 249.789 57.8302 248.588 58.2342 247.496C58.4492 248.033 58.553 248.607 58.5392 249.186C58.5508 249.765 58.4471 250.342 58.2342 250.881Z" fill="black"/>
<path opacity="0.1" d="M56.4223 250.881C56.2123 250.341 56.1087 249.765 56.1173 249.186C56.1035 248.607 56.2073 248.033 56.4223 247.496C56.6348 248.033 56.7385 248.608 56.7274 249.186C56.736 249.765 56.6324 250.341 56.4223 250.881Z" fill="black"/>
<path opacity="0.1" d="M60.0459 250.881C59.6419 249.789 59.6419 248.588 60.0459 247.496C60.4499 248.588 60.4499 249.789 60.0459 250.881Z" fill="black"/>
<path opacity="0.1" d="M67.0857 250.881C66.6817 249.789 66.6817 248.588 67.0857 247.496C67.3007 248.033 67.4045 248.607 67.3907 249.186C67.4023 249.765 67.2987 250.342 67.0857 250.881Z" fill="black"/>
<path opacity="0.1" d="M62.1383 250.881C61.7343 249.789 61.7343 248.588 62.1383 247.496C62.5423 248.588 62.5423 249.789 62.1383 250.881Z" fill="black"/>
<path opacity="0.1" d="M61.4428 250.881C61.2298 250.342 61.1262 249.765 61.1378 249.186C61.124 248.607 61.2278 248.033 61.4428 247.496C61.6553 248.033 61.7589 248.608 61.7478 249.186C61.7564 249.765 61.6529 250.341 61.4428 250.881Z" fill="black"/>
<path opacity="0.1" d="M54.0616 250.881C53.6575 249.789 53.6575 248.588 54.0616 247.496C54.4656 248.588 54.4656 249.789 54.0616 250.881Z" fill="black"/>
<path opacity="0.1" d="M52.9879 250.881C52.5838 249.789 52.5838 248.588 52.9879 247.496C53.3919 248.588 53.3919 249.789 52.9879 250.881Z" fill="black"/>
<path opacity="0.1" d="M55.5803 250.881C55.3703 250.341 55.2667 249.765 55.2753 249.186C55.2615 248.607 55.3653 248.033 55.5803 247.496C55.7954 248.033 55.8991 248.607 55.8854 249.186C55.894 249.765 55.7904 250.341 55.5803 250.881Z" fill="black"/>
<path opacity="0.1" d="M65.3531 250.881C64.9491 249.789 64.9491 248.588 65.3531 247.496C65.7571 248.588 65.7571 249.789 65.3531 250.881Z" fill="black"/>
</g>
<path opacity="0.1" d="M71.3313 247.111V248.008L52.2008 248.612V247.111H71.3313Z" fill="black"/>
<path d="M50.6086 245.007C63.1996 247.27 59.8689 265.919 47.2595 263.656C34.6502 261.392 37.9931 242.744 50.6086 245.007Z" fill="#FFC727"/>
<path opacity="0.1" d="M50.6086 245.007C63.1996 247.27 59.8689 265.919 47.2595 263.656C34.6502 261.392 37.9931 242.744 50.6086 245.007Z" fill="black"/>
<path d="M49.4253 244.793C61.4246 246.947 58.0999 265.601 46.0762 263.442C34.0525 261.282 37.4077 242.64 49.4253 244.793Z" fill="#FFC727"/>
<path opacity="0.1" d="M40.1405 254.56C40.2076 257.885 42.1414 261.099 46.3628 261.88C56.3368 263.668 59.1003 248.185 49.1385 246.398L48.9433 246.367C58.2828 248.24 55.6048 262.887 46.0944 261.179C44.4822 260.952 43.0015 260.164 41.9126 258.953C40.8238 257.743 40.1963 256.187 40.1405 254.56Z" fill="black"/>
<g opacity="0.1">
<path opacity="0.1" d="M48.7908 248.313C48.8705 248.336 48.9384 248.389 48.9805 248.46C49.0225 248.532 49.0354 248.617 49.0165 248.698L48.8884 249.21C49.7055 249.48 50.4221 249.99 50.9442 250.674C50.9889 250.718 51.0223 250.772 51.0414 250.831C51.0606 250.891 51.0649 250.954 51.054 251.016C51.0284 251.101 50.9712 251.173 50.894 251.217C50.8168 251.261 50.7256 251.274 50.6392 251.254C50.596 251.244 50.5553 251.225 50.5197 251.199C50.484 251.173 50.4541 251.139 50.4318 251.101C49.9993 250.509 49.4037 250.055 48.7176 249.796L47.827 253.376C49.657 254.273 50.3037 255.207 49.9926 256.457C49.6509 257.817 48.2723 258.489 46.6618 258.141L46.4117 259.141C46.4066 259.186 46.3921 259.23 46.3689 259.268C46.3457 259.307 46.3145 259.341 46.2774 259.366C46.2403 259.392 46.198 259.41 46.1536 259.418C46.1091 259.426 46.0634 259.425 46.0195 259.414C45.9756 259.403 45.9346 259.382 45.8992 259.354C45.8638 259.326 45.8348 259.291 45.8142 259.251C45.7935 259.21 45.7817 259.166 45.7796 259.121C45.7774 259.076 45.785 259.031 45.8017 258.989L46.0518 257.976C45.0001 257.63 44.0954 256.941 43.4835 256.018C43.4469 255.977 43.4211 255.928 43.4083 255.875C43.3955 255.821 43.3962 255.766 43.4103 255.713C43.4333 255.63 43.4873 255.559 43.5611 255.515C43.6349 255.47 43.7229 255.456 43.8068 255.475C43.85 255.483 43.891 255.5 43.9269 255.525C43.9627 255.55 43.9926 255.583 44.0143 255.621C44.5248 256.452 45.304 257.082 46.2226 257.409L47.1315 253.749C45.3014 252.846 44.6914 251.918 45.0208 250.668C45.3502 249.417 46.7106 248.667 48.2845 249.021L48.4065 248.533C48.4306 248.454 48.4838 248.388 48.5552 248.347C48.6266 248.306 48.7108 248.294 48.7908 248.313ZM47.2962 253.108L48.1625 249.613C46.9424 249.332 45.9115 249.869 45.6857 250.79C45.46 251.711 45.7406 252.297 47.2962 253.108ZM47.6622 254.029L46.8021 257.561C48.0832 257.854 49.1019 257.317 49.3459 256.341C49.5899 255.365 49.2422 254.816 47.6622 254.06V254.029Z" fill="black"/>
</g>
</svg>
