<svg width="224" height="57" viewBox="0 0 224 57" fill="none" xmlns="http://www.w3.org/2000/svg">
<g opacity="0.9">
<path d="M21.5838 21.896C23.0238 22.352 24.1518 23.12 24.9678 24.2C25.7838 25.256 26.1918 26.564 26.1918 28.124C26.1918 30.332 25.3278 32.036 23.5998 33.236C21.8958 34.412 19.3998 35 16.1118 35H3.0798V9.8H15.3918C18.4638 9.8 20.8158 10.388 22.4478 11.564C24.1038 12.74 24.9318 14.336 24.9318 16.352C24.9318 17.576 24.6318 18.668 24.0318 19.628C23.4558 20.588 22.6398 21.344 21.5838 21.896ZM8.8758 14.192V20.132H14.6718C16.1118 20.132 17.2038 19.88 17.9478 19.376C18.6918 18.872 19.0638 18.128 19.0638 17.144C19.0638 16.16 18.6918 15.428 17.9478 14.948C17.2038 14.444 16.1118 14.192 14.6718 14.192H8.8758ZM15.6798 30.608C17.2158 30.608 18.3678 30.356 19.1358 29.852C19.9278 29.348 20.3238 28.568 20.3238 27.512C20.3238 25.424 18.7758 24.38 15.6798 24.38H8.8758V30.608H15.6798ZM49.1831 25.388C49.1831 25.46 49.1471 25.964 49.0751 26.9H34.4231C34.6871 28.1 35.3111 29.048 36.2951 29.744C37.2791 30.44 38.5031 30.788 39.9671 30.788C40.9751 30.788 41.8631 30.644 42.6311 30.356C43.4231 30.044 44.1551 29.564 44.8271 28.916L47.8151 32.156C45.9911 34.244 43.3271 35.288 39.8231 35.288C37.6391 35.288 35.7071 34.868 34.0271 34.028C32.3471 33.164 31.0511 31.976 30.1391 30.464C29.2271 28.952 28.7711 27.236 28.7711 25.316C28.7711 23.42 29.2151 21.716 30.1031 20.204C31.0151 18.668 32.2511 17.48 33.8111 16.64C35.3951 15.776 37.1591 15.344 39.1031 15.344C40.9991 15.344 42.7151 15.752 44.2511 16.568C45.7871 17.384 46.9871 18.56 47.8511 20.096C48.7391 21.608 49.1831 23.372 49.1831 25.388ZM39.1391 19.592C37.8671 19.592 36.7991 19.952 35.9351 20.672C35.0711 21.392 34.5431 22.376 34.3511 23.624H43.8911C43.6991 22.4 43.1711 21.428 42.3071 20.708C41.4431 19.964 40.3871 19.592 39.1391 19.592ZM60.2067 15.344C63.2067 15.344 65.5107 16.064 67.1187 17.504C68.7267 18.92 69.5307 21.068 69.5307 23.948V35H64.2747V32.588C63.2187 34.388 61.2507 35.288 58.3707 35.288C56.8827 35.288 55.5867 35.036 54.4827 34.532C53.4027 34.028 52.5747 33.332 51.9987 32.444C51.4227 31.556 51.1347 30.548 51.1347 29.42C51.1347 27.62 51.8067 26.204 53.1507 25.172C54.5187 24.14 56.6187 23.624 59.4507 23.624H63.9147C63.9147 22.4 63.5427 21.464 62.7987 20.816C62.0547 20.144 60.9387 19.808 59.4507 19.808C58.4187 19.808 57.3987 19.976 56.3907 20.312C55.4067 20.624 54.5667 21.056 53.8707 21.608L51.8547 17.684C52.9107 16.94 54.1707 16.364 55.6347 15.956C57.1227 15.548 58.6467 15.344 60.2067 15.344ZM59.7747 31.508C60.7347 31.508 61.5867 31.292 62.3307 30.86C63.0747 30.404 63.6027 29.744 63.9147 28.88V26.9H60.0627C57.7587 26.9 56.6067 27.656 56.6067 29.168C56.6067 29.888 56.8827 30.464 57.4347 30.896C58.0107 31.304 58.7907 31.508 59.7747 31.508ZM87.1055 34.064C86.5535 34.472 85.8695 34.784 85.0535 35C84.2615 35.192 83.4215 35.288 82.5335 35.288C80.2295 35.288 78.4415 34.7 77.1695 33.524C75.9215 32.348 75.2975 30.62 75.2975 28.34V20.384H72.3095V16.064H75.2975V11.348H80.9135V16.064H85.7375V20.384H80.9135V28.268C80.9135 29.084 81.1175 29.72 81.5255 30.176C81.9575 30.608 82.5575 30.824 83.3255 30.824C84.2135 30.824 84.9695 30.584 85.5935 30.104L87.1055 34.064Z" fill="#3E54D8"/>
<path d="M113.586 35L113.55 19.88L106.134 32.336H103.506L96.126 20.204V35H90.654V9.8H95.478L104.91 25.46L114.198 9.8H118.986L119.058 35H113.586ZM132.453 15.344C135.453 15.344 137.757 16.064 139.365 17.504C140.973 18.92 141.777 21.068 141.777 23.948V35H136.521V32.588C135.465 34.388 133.497 35.288 130.617 35.288C129.129 35.288 127.833 35.036 126.729 34.532C125.649 34.028 124.821 33.332 124.245 32.444C123.669 31.556 123.381 30.548 123.381 29.42C123.381 27.62 124.053 26.204 125.397 25.172C126.765 24.14 128.865 23.624 131.697 23.624H136.161C136.161 22.4 135.789 21.464 135.045 20.816C134.301 20.144 133.185 19.808 131.697 19.808C130.665 19.808 129.645 19.976 128.637 20.312C127.653 20.624 126.813 21.056 126.117 21.608L124.101 17.684C125.157 16.94 126.417 16.364 127.881 15.956C129.369 15.548 130.893 15.344 132.453 15.344ZM132.021 31.508C132.981 31.508 133.833 31.292 134.577 30.86C135.321 30.404 135.849 29.744 136.161 28.88V26.9H132.309C130.005 26.9 128.853 27.656 128.853 29.168C128.853 29.888 129.129 30.464 129.681 30.896C130.257 31.304 131.037 31.508 132.021 31.508ZM152.224 18.188C152.896 17.252 153.796 16.544 154.924 16.064C156.076 15.584 157.396 15.344 158.884 15.344V20.528C158.26 20.48 157.84 20.456 157.624 20.456C156.016 20.456 154.756 20.912 153.844 21.824C152.932 22.712 152.476 24.056 152.476 25.856V35H146.86V15.632H152.224V18.188ZM170.539 27.404L167.839 30.068V35H162.223V8.288H167.839V23.408L176.047 15.632H182.743L174.679 23.84L183.463 35H176.659L170.539 27.404ZM204.117 25.388C204.117 25.46 204.081 25.964 204.009 26.9H189.357C189.621 28.1 190.245 29.048 191.229 29.744C192.213 30.44 193.437 30.788 194.901 30.788C195.909 30.788 196.797 30.644 197.565 30.356C198.357 30.044 199.089 29.564 199.761 28.916L202.749 32.156C200.925 34.244 198.261 35.288 194.757 35.288C192.573 35.288 190.641 34.868 188.961 34.028C187.281 33.164 185.985 31.976 185.073 30.464C184.161 28.952 183.705 27.236 183.705 25.316C183.705 23.42 184.149 21.716 185.037 20.204C185.949 18.668 187.185 17.48 188.745 16.64C190.329 15.776 192.093 15.344 194.037 15.344C195.933 15.344 197.649 15.752 199.185 16.568C200.721 17.384 201.921 18.56 202.785 20.096C203.673 21.608 204.117 23.372 204.117 25.388ZM194.073 19.592C192.801 19.592 191.733 19.952 190.869 20.672C190.005 21.392 189.477 22.376 189.285 23.624H198.825C198.633 22.4 198.105 21.428 197.241 20.708C196.377 19.964 195.321 19.592 194.073 19.592ZM220.348 34.064C219.796 34.472 219.112 34.784 218.296 35C217.504 35.192 216.664 35.288 215.776 35.288C213.472 35.288 211.684 34.7 210.412 33.524C209.164 32.348 208.54 30.62 208.54 28.34V20.384H205.552V16.064H208.54V11.348H214.156V16.064H218.98V20.384H214.156V28.268C214.156 29.084 214.36 29.72 214.768 30.176C215.2 30.608 215.8 30.824 216.568 30.824C217.456 30.824 218.212 30.584 218.836 30.104L220.348 34.064Z" fill="#ED6373"/>
</g>
<path d="M9.19011 48.0001V55.0001H8.46011V48.6401H4.03011V55.0001H3.30011V48.0001H9.19011Z" fill="#373943"/>
<path d="M15.4821 49.7401V55.0001H14.7721V50.3701H12.2521L12.1821 51.6701C12.1287 52.7634 12.0021 53.6034 11.8021 54.1901C11.6021 54.7767 11.2454 55.0701 10.7321 55.0701C10.5921 55.0701 10.4221 55.0434 10.2221 54.9901L10.2721 54.3801C10.3921 54.4067 10.4754 54.4201 10.5221 54.4201C10.7954 54.4201 11.0021 54.2934 11.1421 54.0401C11.2821 53.7867 11.3754 53.4734 11.4221 53.1001C11.4687 52.7267 11.5087 52.2334 11.5421 51.6201L11.6321 49.7401H15.4821Z" fill="#373943"/>
<path d="M19.1104 49.7001C19.7971 49.7001 20.3238 49.8734 20.6904 50.2201C21.0571 50.5601 21.2404 51.0667 21.2404 51.7401V55.0001H20.5604V54.1801C20.4004 54.4534 20.1638 54.6667 19.8504 54.8201C19.5438 54.9734 19.1771 55.0501 18.7504 55.0501C18.1638 55.0501 17.6971 54.9101 17.3504 54.6301C17.0038 54.3501 16.8304 53.9801 16.8304 53.5201C16.8304 53.0734 16.9904 52.7134 17.3104 52.4401C17.6371 52.1667 18.1538 52.0301 18.8604 52.0301H20.5304V51.7101C20.5304 51.2567 20.4038 50.9134 20.1504 50.6801C19.8971 50.4401 19.5271 50.3201 19.0404 50.3201C18.7071 50.3201 18.3871 50.3767 18.0804 50.4901C17.7738 50.5967 17.5104 50.7467 17.2904 50.9401L16.9704 50.4101C17.2371 50.1834 17.5571 50.0101 17.9304 49.8901C18.3038 49.7634 18.6971 49.7001 19.1104 49.7001ZM18.8604 54.4901C19.2604 54.4901 19.6038 54.4001 19.8904 54.2201C20.1771 54.0334 20.3904 53.7667 20.5304 53.4201V52.5601H18.8804C17.9804 52.5601 17.5304 52.8734 17.5304 53.5001C17.5304 53.8067 17.6471 54.0501 17.8804 54.2301C18.1138 54.4034 18.4404 54.4901 18.8604 54.4901Z" fill="#373943"/>
<path d="M26.6305 50.3701H24.6405V55.0001H23.9305V50.3701H21.9405V49.7401H26.6305V50.3701Z" fill="#373943"/>
<path d="M33.5629 52.3601C33.5629 53.1801 33.2929 53.8234 32.7529 54.2901C32.2129 54.7567 31.4496 55.0101 30.4629 55.0501V56.9401H29.7729V55.0601C28.7929 55.0201 28.0329 54.7667 27.4929 54.3001C26.9596 53.8267 26.6929 53.1801 26.6929 52.3601C26.6929 51.5467 26.9596 50.9101 27.4929 50.4501C28.0329 49.9901 28.7929 49.7401 29.7729 49.7001V47.5801H30.4629V49.7001C31.4496 49.7467 32.2129 50.0001 32.7529 50.4601C33.2929 50.9201 33.5629 51.5534 33.5629 52.3601ZM27.3929 52.3601C27.3929 52.9867 27.5929 53.4767 27.9929 53.8301C28.3996 54.1834 28.9929 54.3834 29.7729 54.4301V50.3301C28.9996 50.3701 28.4096 50.5667 28.0029 50.9201C27.5963 51.2667 27.3929 51.7467 27.3929 52.3601ZM30.4629 54.4301C31.2429 54.3901 31.8363 54.1934 32.2429 53.8401C32.6563 53.4867 32.8629 52.9934 32.8629 52.3601C32.8629 51.7401 32.6563 51.2567 32.2429 50.9101C31.8363 50.5634 31.2429 50.3701 30.4629 50.3301V54.4301Z" fill="#373943"/>
<path d="M37.0345 55.0501C36.5278 55.0501 36.0712 54.9367 35.6645 54.7101C35.2578 54.4767 34.9378 54.1567 34.7045 53.7501C34.4712 53.3434 34.3545 52.8834 34.3545 52.3701C34.3545 51.8567 34.4712 51.3967 34.7045 50.9901C34.9378 50.5834 35.2578 50.2667 35.6645 50.0401C36.0712 49.8134 36.5278 49.7001 37.0345 49.7001C37.5412 49.7001 37.9978 49.8134 38.4045 50.0401C38.8111 50.2667 39.1278 50.5834 39.3545 50.9901C39.5878 51.3967 39.7045 51.8567 39.7045 52.3701C39.7045 52.8834 39.5878 53.3434 39.3545 53.7501C39.1278 54.1567 38.8111 54.4767 38.4045 54.7101C37.9978 54.9367 37.5412 55.0501 37.0345 55.0501ZM37.0345 54.4201C37.4078 54.4201 37.7411 54.3367 38.0345 54.1701C38.3345 53.9967 38.5678 53.7534 38.7345 53.4401C38.9012 53.1267 38.9845 52.7701 38.9845 52.3701C38.9845 51.9701 38.9012 51.6134 38.7345 51.3001C38.5678 50.9867 38.3345 50.7467 38.0345 50.5801C37.7411 50.4067 37.4078 50.3201 37.0345 50.3201C36.6612 50.3201 36.3245 50.4067 36.0245 50.5801C35.7312 50.7467 35.4978 50.9867 35.3245 51.3001C35.1578 51.6134 35.0745 51.9701 35.0745 52.3701C35.0745 52.7701 35.1578 53.1267 35.3245 53.4401C35.4978 53.7534 35.7312 53.9967 36.0245 54.1701C36.3245 54.3367 36.6612 54.4201 37.0345 54.4201Z" fill="#373943"/>
<path d="M43.7319 49.7001C44.2252 49.7001 44.6719 49.8134 45.0719 50.0401C45.4719 50.2601 45.7852 50.5734 46.0119 50.9801C46.2386 51.3867 46.3519 51.8501 46.3519 52.3701C46.3519 52.8967 46.2386 53.3634 46.0119 53.7701C45.7852 54.1767 45.4719 54.4934 45.0719 54.7201C44.6786 54.9401 44.2319 55.0501 43.7319 55.0501C43.3052 55.0501 42.9186 54.9634 42.5719 54.7901C42.2319 54.6101 41.9519 54.3501 41.7319 54.0101V56.9401H41.0219V49.7401H41.7019V50.7801C41.9152 50.4334 42.1952 50.1667 42.5419 49.9801C42.8952 49.7934 43.2919 49.7001 43.7319 49.7001ZM43.6819 54.4201C44.0486 54.4201 44.3819 54.3367 44.6819 54.1701C44.9819 53.9967 45.2152 53.7534 45.3819 53.4401C45.5552 53.1267 45.6419 52.7701 45.6419 52.3701C45.6419 51.9701 45.5552 51.6167 45.3819 51.3101C45.2152 50.9967 44.9819 50.7534 44.6819 50.5801C44.3819 50.4067 44.0486 50.3201 43.6819 50.3201C43.3086 50.3201 42.9719 50.4067 42.6719 50.5801C42.3786 50.7534 42.1452 50.9967 41.9719 51.3101C41.8052 51.6167 41.7219 51.9701 41.7219 52.3701C41.7219 52.7701 41.8052 53.1267 41.9719 53.4401C42.1452 53.7534 42.3786 53.9967 42.6719 54.1701C42.9719 54.3367 43.3086 54.4201 43.6819 54.4201Z" fill="#373943"/>
<path d="M53.5574 49.7401V55.0001H52.9074V50.8401L50.7774 54.3601H50.4574L48.3274 50.8301V55.0001H47.6774V49.7401H48.3974L50.6274 53.5301L52.8974 49.7401H53.5574Z" fill="#373943"/>
<path d="M57.1878 49.7001C57.8744 49.7001 58.4011 49.8734 58.7678 50.2201C59.1344 50.5601 59.3178 51.0667 59.3178 51.7401V55.0001H58.6378V54.1801C58.4778 54.4534 58.2411 54.6667 57.9278 54.8201C57.6211 54.9734 57.2544 55.0501 56.8278 55.0501C56.2411 55.0501 55.7744 54.9101 55.4278 54.6301C55.0811 54.3501 54.9078 53.9801 54.9078 53.5201C54.9078 53.0734 55.0678 52.7134 55.3878 52.4401C55.7144 52.1667 56.2311 52.0301 56.9378 52.0301H58.6078V51.7101C58.6078 51.2567 58.4811 50.9134 58.2278 50.6801C57.9744 50.4401 57.6044 50.3201 57.1178 50.3201C56.7844 50.3201 56.4644 50.3767 56.1578 50.4901C55.8511 50.5967 55.5878 50.7467 55.3678 50.9401L55.0478 50.4101C55.3144 50.1834 55.6344 50.0101 56.0078 49.8901C56.3811 49.7634 56.7744 49.7001 57.1878 49.7001ZM56.9378 54.4901C57.3378 54.4901 57.6811 54.4001 57.9678 54.2201C58.2544 54.0334 58.4678 53.7667 58.6078 53.4201V52.5601H56.9578C56.0578 52.5601 55.6078 52.8734 55.6078 53.5001C55.6078 53.8067 55.7244 54.0501 55.9578 54.2301C56.1911 54.4034 56.5178 54.4901 56.9378 54.4901Z" fill="#373943"/>
<path d="M60.5978 51.9801H63.2178V52.6001H60.5978V51.9801Z" fill="#373943"/>
<path d="M69.3462 49.7401V55.0001H68.6362V50.3701H65.3362V55.0001H64.6262V49.7401H69.3462Z" fill="#373943"/>
<path d="M73.3345 55.0501C72.8278 55.0501 72.3712 54.9367 71.9645 54.7101C71.5578 54.4767 71.2378 54.1567 71.0045 53.7501C70.7712 53.3434 70.6545 52.8834 70.6545 52.3701C70.6545 51.8567 70.7712 51.3967 71.0045 50.9901C71.2378 50.5834 71.5578 50.2667 71.9645 50.0401C72.3712 49.8134 72.8278 49.7001 73.3345 49.7001C73.8412 49.7001 74.2978 49.8134 74.7045 50.0401C75.1112 50.2667 75.4278 50.5834 75.6545 50.9901C75.8878 51.3967 76.0045 51.8567 76.0045 52.3701C76.0045 52.8834 75.8878 53.3434 75.6545 53.7501C75.4278 54.1567 75.1112 54.4767 74.7045 54.7101C74.2978 54.9367 73.8412 55.0501 73.3345 55.0501ZM73.3345 54.4201C73.7078 54.4201 74.0412 54.3367 74.3345 54.1701C74.6345 53.9967 74.8678 53.7534 75.0345 53.4401C75.2011 53.1267 75.2845 52.7701 75.2845 52.3701C75.2845 51.9701 75.2011 51.6134 75.0345 51.3001C74.8678 50.9867 74.6345 50.7467 74.3345 50.5801C74.0412 50.4067 73.7078 50.3201 73.3345 50.3201C72.9612 50.3201 72.6245 50.4067 72.3245 50.5801C72.0312 50.7467 71.7978 50.9867 71.6245 51.3001C71.4578 51.6134 71.3745 51.9701 71.3745 52.3701C71.3745 52.7701 71.4578 53.1267 71.6245 53.4401C71.7978 53.7534 72.0312 53.9967 72.3245 54.1701C72.6245 54.3367 72.9612 54.4201 73.3345 54.4201Z" fill="#373943"/>
<path d="M83.2019 49.7401V55.0001H82.5519V50.8401L80.4219 54.3601H80.1019L77.9719 50.8301V55.0001H77.3219V49.7401H78.0419L80.2719 53.5301L82.5419 49.7401H83.2019Z" fill="#373943"/>
<path d="M87.1923 55.0501C86.6856 55.0501 86.229 54.9367 85.8223 54.7101C85.4156 54.4767 85.0956 54.1567 84.8623 53.7501C84.629 53.3434 84.5123 52.8834 84.5123 52.3701C84.5123 51.8567 84.629 51.3967 84.8623 50.9901C85.0956 50.5834 85.4156 50.2667 85.8223 50.0401C86.229 49.8134 86.6856 49.7001 87.1923 49.7001C87.699 49.7001 88.1556 49.8134 88.5623 50.0401C88.969 50.2667 89.2856 50.5834 89.5123 50.9901C89.7456 51.3967 89.8623 51.8567 89.8623 52.3701C89.8623 52.8834 89.7456 53.3434 89.5123 53.7501C89.2856 54.1567 88.969 54.4767 88.5623 54.7101C88.1556 54.9367 87.699 55.0501 87.1923 55.0501ZM87.1923 54.4201C87.5656 54.4201 87.899 54.3367 88.1923 54.1701C88.4923 53.9967 88.7256 53.7534 88.8923 53.4401C89.059 53.1267 89.1423 52.7701 89.1423 52.3701C89.1423 51.9701 89.059 51.6134 88.8923 51.3001C88.7256 50.9867 88.4923 50.7467 88.1923 50.5801C87.899 50.4067 87.5656 50.3201 87.1923 50.3201C86.819 50.3201 86.4823 50.4067 86.1823 50.5801C85.889 50.7467 85.6556 50.9867 85.4823 51.3001C85.3156 51.6134 85.2323 51.9701 85.2323 52.3701C85.2323 52.7701 85.3156 53.1267 85.4823 53.4401C85.6556 53.7534 85.889 53.9967 86.1823 54.1701C86.4823 54.3367 86.819 54.4201 87.1923 54.4201Z" fill="#373943"/>
<path d="M98.4397 49.7401V55.0001H91.1797V49.7401H91.8897V54.3801H94.4697V49.7401H95.1797V54.3801H97.7297V49.7401H98.4397ZM99.2497 54.3801V56.1501H98.5797V55.0001H97.6897V54.3801H99.2497Z" fill="#373943"/>
<path d="M100.267 49.7401H100.977V52.0701H104.287V49.7401H104.997V55.0001H104.287V52.6801H100.977V55.0001H100.267V49.7401Z" fill="#373943"/>
<path d="M106.815 49.7401H107.525V53.9201L111.035 49.7401H111.665V55.0001H110.955V50.8201L107.455 55.0001H106.815V49.7401Z" fill="#373943"/>
<path d="M115.41 52.6601H114.21V55.0001H113.5V49.7401H114.21V52.0501H115.42L117.27 49.7401H118.04L115.97 52.2901L118.19 55.0001H117.35L115.41 52.6601Z" fill="#373943"/>
<path d="M121.527 49.7401H122.237V52.0701H125.547V49.7401H126.257V55.0001H125.547V52.6801H122.237V55.0001H121.527V49.7401Z" fill="#373943"/>
<path d="M129.885 49.7001C130.572 49.7001 131.099 49.8734 131.465 50.2201C131.832 50.5601 132.015 51.0667 132.015 51.7401V55.0001H131.335V54.1801C131.175 54.4534 130.939 54.6667 130.625 54.8201C130.319 54.9734 129.952 55.0501 129.525 55.0501C128.939 55.0501 128.472 54.9101 128.125 54.6301C127.779 54.3501 127.605 53.9801 127.605 53.5201C127.605 53.0734 127.765 52.7134 128.085 52.4401C128.412 52.1667 128.929 52.0301 129.635 52.0301H131.305V51.7101C131.305 51.2567 131.179 50.9134 130.925 50.6801C130.672 50.4401 130.302 50.3201 129.815 50.3201C129.482 50.3201 129.162 50.3767 128.855 50.4901C128.549 50.5967 128.285 50.7467 128.065 50.9401L127.745 50.4101C128.012 50.1834 128.332 50.0101 128.705 49.8901C129.079 49.7634 129.472 49.7001 129.885 49.7001ZM129.635 54.4901C130.035 54.4901 130.379 54.4001 130.665 54.2201C130.952 54.0334 131.165 53.7667 131.305 53.4201V52.5601H129.655C128.755 52.5601 128.305 52.8734 128.305 53.5001C128.305 53.8067 128.422 54.0501 128.655 54.2301C128.889 54.4034 129.215 54.4901 129.635 54.4901Z" fill="#373943"/>
<path d="M143.783 51.4901C143.783 52.4167 143.453 53.1467 142.793 53.6801C142.139 54.2067 141.223 54.4867 140.043 54.5201V55.2401H139.353V54.5201C138.173 54.4801 137.253 54.1967 136.593 53.6701C135.939 53.1434 135.613 52.4167 135.613 51.4901C135.613 50.5634 135.939 49.8367 136.593 49.3101C137.253 48.7834 138.173 48.5001 139.353 48.4601V47.7601H140.043V48.4601C141.216 48.5001 142.133 48.7867 142.793 49.3201C143.453 49.8467 143.783 50.5701 143.783 51.4901ZM140.043 53.9301C141.009 53.8901 141.756 53.6601 142.283 53.2401C142.809 52.8201 143.073 52.2367 143.073 51.4901C143.073 50.7434 142.806 50.1601 142.273 49.7401C141.746 49.3201 141.003 49.0934 140.043 49.0601V53.9301ZM136.323 51.4901C136.323 52.2367 136.586 52.8201 137.113 53.2401C137.646 53.6534 138.393 53.8834 139.353 53.9301V49.0601C138.379 49.1001 137.629 49.3301 137.103 49.7501C136.583 50.1634 136.323 50.7434 136.323 51.4901Z" fill="#373943"/>
<path d="M147.263 55.0501C146.756 55.0501 146.299 54.9367 145.893 54.7101C145.486 54.4767 145.166 54.1567 144.933 53.7501C144.699 53.3434 144.583 52.8834 144.583 52.3701C144.583 51.8567 144.699 51.3967 144.933 50.9901C145.166 50.5834 145.486 50.2667 145.893 50.0401C146.299 49.8134 146.756 49.7001 147.263 49.7001C147.769 49.7001 148.226 49.8134 148.633 50.0401C149.039 50.2667 149.356 50.5834 149.583 50.9901C149.816 51.3967 149.933 51.8567 149.933 52.3701C149.933 52.8834 149.816 53.3434 149.583 53.7501C149.356 54.1567 149.039 54.4767 148.633 54.7101C148.226 54.9367 147.769 55.0501 147.263 55.0501ZM147.263 54.4201C147.636 54.4201 147.969 54.3367 148.263 54.1701C148.563 53.9967 148.796 53.7534 148.963 53.4401C149.129 53.1267 149.213 52.7701 149.213 52.3701C149.213 51.9701 149.129 51.6134 148.963 51.3001C148.796 50.9867 148.563 50.7467 148.263 50.5801C147.969 50.4067 147.636 50.3201 147.263 50.3201C146.889 50.3201 146.553 50.4067 146.253 50.5801C145.959 50.7467 145.726 50.9867 145.553 51.3001C145.386 51.6134 145.303 51.9701 145.303 52.3701C145.303 52.7701 145.386 53.1267 145.553 53.4401C145.726 53.7534 145.959 53.9967 146.253 54.1701C146.553 54.3367 146.889 54.4201 147.263 54.4201Z" fill="#373943"/>
<path d="M151.25 49.7401H151.96V52.0701H155.27V49.7401H155.98V55.0001H155.27V52.6801H151.96V55.0001H151.25V49.7401Z" fill="#373943"/>
<path d="M162.928 54.3801V56.2701H162.258V55.0001H157.548V56.2701H156.878V54.3801H157.178C157.531 54.3601 157.771 54.1001 157.898 53.6001C158.025 53.1001 158.111 52.4001 158.158 51.5001L158.228 49.7401H162.108V54.3801H162.928ZM158.808 51.5401C158.775 52.2867 158.711 52.9034 158.618 53.3901C158.525 53.8701 158.358 54.2001 158.118 54.3801H161.398V50.3701H158.868L158.808 51.5401Z" fill="#373943"/>
<path d="M166.282 55.0501C165.775 55.0501 165.318 54.9367 164.912 54.7101C164.505 54.4767 164.185 54.1567 163.952 53.7501C163.718 53.3434 163.602 52.8834 163.602 52.3701C163.602 51.8567 163.718 51.3967 163.952 50.9901C164.185 50.5834 164.505 50.2667 164.912 50.0401C165.318 49.8134 165.775 49.7001 166.282 49.7001C166.788 49.7001 167.245 49.8134 167.652 50.0401C168.058 50.2667 168.375 50.5834 168.602 50.9901C168.835 51.3967 168.952 51.8567 168.952 52.3701C168.952 52.8834 168.835 53.3434 168.602 53.7501C168.375 54.1567 168.058 54.4767 167.652 54.7101C167.245 54.9367 166.788 55.0501 166.282 55.0501ZM166.282 54.4201C166.655 54.4201 166.988 54.3367 167.282 54.1701C167.582 53.9967 167.815 53.7534 167.982 53.4401C168.148 53.1267 168.232 52.7701 168.232 52.3701C168.232 51.9701 168.148 51.6134 167.982 51.3001C167.815 50.9867 167.582 50.7467 167.282 50.5801C166.988 50.4067 166.655 50.3201 166.282 50.3201C165.908 50.3201 165.572 50.4067 165.272 50.5801C164.978 50.7467 164.745 50.9867 164.572 51.3001C164.405 51.6134 164.322 51.9701 164.322 52.3701C164.322 52.7701 164.405 53.1267 164.572 53.4401C164.745 53.7534 164.978 53.9967 165.272 54.1701C165.572 54.3367 165.908 54.4201 166.282 54.4201Z" fill="#373943"/>
<path d="M173.619 52.2801C174.333 52.4467 174.689 52.8767 174.689 53.5701C174.689 54.0301 174.519 54.3834 174.179 54.6301C173.839 54.8767 173.333 55.0001 172.659 55.0001H170.269V49.7401H172.589C173.189 49.7401 173.659 49.8567 173.999 50.0901C174.339 50.3234 174.509 50.6567 174.509 51.0901C174.509 51.3767 174.429 51.6234 174.269 51.8301C174.116 52.0301 173.899 52.1801 173.619 52.2801ZM170.959 52.0801H172.539C172.946 52.0801 173.256 52.0034 173.469 51.8501C173.689 51.6967 173.799 51.4734 173.799 51.1801C173.799 50.8867 173.689 50.6667 173.469 50.5201C173.256 50.3734 172.946 50.3001 172.539 50.3001H170.959V52.0801ZM172.629 54.4401C173.083 54.4401 173.423 54.3667 173.649 54.2201C173.876 54.0734 173.989 53.8434 173.989 53.5301C173.989 53.2167 173.886 52.9867 173.679 52.8401C173.473 52.6867 173.146 52.6101 172.699 52.6101H170.959V54.4401H172.629Z" fill="#373943"/>
<path d="M178.323 55.0501C177.816 55.0501 177.36 54.9367 176.953 54.7101C176.546 54.4767 176.226 54.1567 175.993 53.7501C175.76 53.3434 175.643 52.8834 175.643 52.3701C175.643 51.8567 175.76 51.3967 175.993 50.9901C176.226 50.5834 176.546 50.2667 176.953 50.0401C177.36 49.8134 177.816 49.7001 178.323 49.7001C178.83 49.7001 179.286 49.8134 179.693 50.0401C180.1 50.2667 180.416 50.5834 180.643 50.9901C180.876 51.3967 180.993 51.8567 180.993 52.3701C180.993 52.8834 180.876 53.3434 180.643 53.7501C180.416 54.1567 180.1 54.4767 179.693 54.7101C179.286 54.9367 178.83 55.0501 178.323 55.0501ZM178.323 54.4201C178.696 54.4201 179.03 54.3367 179.323 54.1701C179.623 53.9967 179.856 53.7534 180.023 53.4401C180.19 53.1267 180.273 52.7701 180.273 52.3701C180.273 51.9701 180.19 51.6134 180.023 51.3001C179.856 50.9867 179.623 50.7467 179.323 50.5801C179.03 50.4067 178.696 50.3201 178.323 50.3201C177.95 50.3201 177.613 50.4067 177.313 50.5801C177.02 50.7467 176.786 50.9867 176.613 51.3001C176.446 51.6134 176.363 51.9701 176.363 52.3701C176.363 52.7701 176.446 53.1267 176.613 53.4401C176.786 53.7534 177.02 53.9967 177.313 54.1701C177.613 54.3367 177.95 54.4201 178.323 54.4201Z" fill="#373943"/>
<path d="M188.191 49.7401V55.0001H187.541V50.8401L185.411 54.3601H185.091L182.961 50.8301V55.0001H182.311V49.7401H183.031L185.261 53.5301L187.531 49.7401H188.191Z" fill="#373943"/>
<path d="M195.138 49.7001C195.631 49.7001 196.078 49.8134 196.478 50.0401C196.878 50.2601 197.191 50.5734 197.418 50.9801C197.645 51.3867 197.758 51.8501 197.758 52.3701C197.758 52.8967 197.645 53.3634 197.418 53.7701C197.191 54.1767 196.878 54.4934 196.478 54.7201C196.085 54.9401 195.638 55.0501 195.138 55.0501C194.711 55.0501 194.325 54.9634 193.978 54.7901C193.638 54.6101 193.358 54.3501 193.138 54.0101V56.9401H192.428V49.7401H193.108V50.7801C193.321 50.4334 193.602 50.1667 193.948 49.9801C194.301 49.7934 194.698 49.7001 195.138 49.7001ZM195.088 54.4201C195.455 54.4201 195.788 54.3367 196.088 54.1701C196.388 53.9967 196.621 53.7534 196.788 53.4401C196.962 53.1267 197.048 52.7701 197.048 52.3701C197.048 51.9701 196.962 51.6167 196.788 51.3101C196.621 50.9967 196.388 50.7534 196.088 50.5801C195.788 50.4067 195.455 50.3201 195.088 50.3201C194.715 50.3201 194.378 50.4067 194.078 50.5801C193.785 50.7534 193.551 50.9967 193.378 51.3101C193.211 51.6167 193.128 51.9701 193.128 52.3701C193.128 52.7701 193.211 53.1267 193.378 53.4401C193.551 53.7534 193.785 53.9967 194.078 54.1701C194.378 54.3367 194.715 54.4201 195.088 54.4201Z" fill="#373943"/>
<path d="M201.294 51.6001C201.954 51.6067 202.457 51.7534 202.804 52.0401C203.15 52.3267 203.324 52.7401 203.324 53.2801C203.324 53.8401 203.137 54.2701 202.764 54.5701C202.39 54.8701 201.857 55.0167 201.164 55.0101L199.084 55.0001V49.7401H199.794V51.5801L201.294 51.6001ZM204.204 49.7401H204.914V55.0001H204.204V49.7401ZM201.124 54.4701C201.61 54.4767 201.977 54.3801 202.224 54.1801C202.477 53.9734 202.604 53.6734 202.604 53.2801C202.604 52.8934 202.48 52.6067 202.234 52.4201C201.987 52.2334 201.617 52.1367 201.124 52.1301L199.794 52.1101V54.4501L201.124 54.4701Z" fill="#373943"/>
<path d="M206.735 49.7401H207.445V52.0701H210.755V49.7401H211.465V55.0001H210.755V52.6801H207.445V55.0001H206.735V49.7401Z" fill="#373943"/>
<path d="M215.193 52.6601H213.993V55.0001H213.283V49.7401H213.993V52.0501H215.203L217.053 49.7401H217.823L215.753 52.2901L217.973 55.0001H217.133L215.193 52.6601Z" fill="#373943"/>
<path d="M223.308 52.5901H218.908C218.948 53.1367 219.158 53.5801 219.538 53.9201C219.918 54.2534 220.398 54.4201 220.978 54.4201C221.305 54.4201 221.605 54.3634 221.878 54.2501C222.152 54.1301 222.388 53.9567 222.588 53.7301L222.988 54.1901C222.755 54.4701 222.462 54.6834 222.108 54.8301C221.762 54.9767 221.378 55.0501 220.958 55.0501C220.418 55.0501 219.938 54.9367 219.518 54.7101C219.105 54.4767 218.782 54.1567 218.548 53.7501C218.315 53.3434 218.198 52.8834 218.198 52.3701C218.198 51.8567 218.308 51.3967 218.528 50.9901C218.755 50.5834 219.062 50.2667 219.448 50.0401C219.842 49.8134 220.282 49.7001 220.768 49.7001C221.255 49.7001 221.692 49.8134 222.078 50.0401C222.465 50.2667 222.768 50.5834 222.988 50.9901C223.208 51.3901 223.318 51.8501 223.318 52.3701L223.308 52.5901ZM220.768 50.3101C220.262 50.3101 219.835 50.4734 219.488 50.8001C219.148 51.1201 218.955 51.5401 218.908 52.0601H222.638C222.592 51.5401 222.395 51.1201 222.048 50.8001C221.708 50.4734 221.282 50.3101 220.768 50.3101Z" fill="#373943"/>
</svg>
