<svg width="474" height="458" viewBox="0 0 474 458" fill="none" xmlns="http://www.w3.org/2000/svg">
<path d="M0 259C0 193.278 53.2781 140 119 140V259H0Z" fill="#ED6373"/>
<path d="M30 294C30 285.716 36.7157 279 45 279H60V309H45C36.7157 309 30 302.284 30 294Z" fill="#F3B63F"/>
<path d="M465 56C465 82.5097 443.51 104 417 104L369 104L369 8L417 8C443.51 8.00001 465 29.4903 465 56Z" fill="#199F27"/>
<circle cx="430" cy="145" r="13" fill="#3E54D8"/>
<g filter="url(#filter0_d)">
<rect x="74" y="28" width="328" height="314" rx="36" fill="white"/>
</g>
<path opacity="0.1" d="M268 104C293.957 104 315 125.043 315 151L315 189.994L221 189.994L221 151C221 125.043 242.043 104 268 104Z" fill="#199F27"/>
<path d="M263.201 160.702C263.201 146.53 251.671 135 237.5 135C223.328 135 211.798 146.53 211.798 160.702C211.798 174.874 223.328 186.404 237.5 186.404C251.671 186.404 263.201 174.874 263.201 160.702ZM217.51 160.702C217.51 150.649 224.969 142.306 234.644 140.916V146.822C230.254 148.068 227.029 152.111 227.029 156.894V160.702C227.029 162.279 228.307 163.558 229.885 163.558H242.26V164.51C242.26 167.134 240.124 169.269 237.5 169.269H229.885C228.307 169.269 227.029 170.548 227.029 172.125C227.029 173.702 228.307 174.981 229.885 174.981H234.644V180.488C224.969 179.097 217.51 170.755 217.51 160.702ZM240.355 180.488V174.582C244.745 173.335 247.97 169.293 247.97 164.51V160.702C247.97 159.125 246.692 157.846 245.115 157.846H232.74V156.894C232.74 154.269 234.875 152.135 237.5 152.135H245.115C246.692 152.135 247.97 150.856 247.97 149.279C247.97 147.702 246.692 146.423 245.115 146.423H240.355V140.916C250.03 142.306 257.49 150.649 257.49 160.702C257.49 170.755 250.03 179.097 240.355 180.488Z" fill="#199F27"/>
<path d="M229.885 215.913H227.029V198.828C227.029 194.251 224.812 189.92 221.099 187.244L215.277 183.048C215.107 182.925 214.925 182.822 214.733 182.74C211.56 181.38 208.165 181.309 205.536 182.453L203.557 169.683C203.087 166.653 201.547 163.886 199.219 161.891C196.892 159.896 193.922 158.798 190.856 158.798C189.279 158.798 188 160.077 188 161.654V195.287C188 198.869 189.333 202.295 191.753 204.935L198.471 212.264V215.913H195.615C194.038 215.913 192.76 217.192 192.76 218.769V231.144C192.76 232.721 194.038 234 195.615 234H229.885C231.462 234 232.74 232.721 232.74 231.144V218.769C232.74 217.192 231.462 215.913 229.885 215.913ZM203.432 209.224L195.963 201.076C194.512 199.492 193.712 197.436 193.712 195.287V165.096C195.901 166.041 197.525 168.054 197.913 170.557L201.016 190.582C201.114 191.43 201.303 192.244 201.925 192.867L210.722 201.741C211.817 202.846 213.656 202.854 214.761 201.758C215.881 200.648 215.888 198.84 214.778 197.72L206.662 189.533C206.646 188.522 207.107 188.145 207.28 188.006C208.118 187.325 209.998 187.015 212.211 187.879L217.759 191.877C219.987 193.483 221.317 196.081 221.317 198.828V215.913H204.183V211.154C204.183 210.439 203.915 209.75 203.432 209.224ZM227.029 228.288H198.471V221.625H227.029V228.288Z" fill="#373943"/>
<path d="M284.144 158.798C281.078 158.798 278.108 159.896 275.78 161.891C273.453 163.886 271.912 166.653 271.443 169.683L269.464 182.453C266.835 181.309 263.439 181.38 260.267 182.74C260.075 182.823 259.892 182.925 259.723 183.048L253.901 187.244C250.188 189.92 247.971 194.251 247.971 198.828V215.913H245.115C243.538 215.913 242.26 217.192 242.26 218.769V231.144C242.26 232.721 243.538 234 245.115 234H279.385C280.962 234 282.24 232.721 282.24 231.144V218.769C282.24 217.192 280.962 215.913 279.385 215.913H276.529V212.264L283.247 204.935C285.667 202.295 287 198.869 287 195.287V161.654C287 160.077 285.721 158.798 284.144 158.798ZM276.529 228.288H247.971V221.625H276.529V228.288ZM281.288 195.287C281.288 197.436 280.488 199.492 279.037 201.076L271.568 209.224C271.085 209.75 270.817 210.439 270.817 211.154V215.913H253.682V198.828C253.682 196.081 255.012 193.483 257.241 191.877L262.788 187.879C265.002 187.015 266.881 187.326 267.72 188.006C267.893 188.146 268.353 188.523 268.338 189.533L260.222 197.72C259.111 198.84 259.119 200.648 260.239 201.758C261.344 202.854 263.183 202.846 264.278 201.741L273.07 192.872C273.697 192.248 273.885 191.433 273.984 190.582L277.087 170.557C277.475 168.054 279.099 166.041 281.288 165.096V195.287Z" fill="#373943"/>
<defs>
<filter id="filter0_d" x="2" y="0" width="472" height="458" filterUnits="userSpaceOnUse" color-interpolation-filters="sRGB">
<feFlood flood-opacity="0" result="BackgroundImageFix"/>
<feColorMatrix in="SourceAlpha" type="matrix" values="0 0 0 0 0 0 0 0 0 0 0 0 0 0 0 0 0 0 127 0"/>
<feMorphology radius="17" operator="erode" in="SourceAlpha" result="effect1_dropShadow"/>
<feOffset dy="44"/>
<feGaussianBlur stdDeviation="44.5"/>
<feColorMatrix type="matrix" values="0 0 0 0 0.243137 0 0 0 0 0.329412 0 0 0 0 0.847059 0 0 0 0.06 0"/>
<feBlend mode="normal" in2="BackgroundImageFix" result="effect1_dropShadow"/>
<feBlend mode="normal" in="SourceGraphic" in2="effect1_dropShadow" result="shape"/>
</filter>
</defs>
</svg>
