<svg width="64" height="64" viewBox="0 0 64 64" fill="none" xmlns="http://www.w3.org/2000/svg">
<circle cx="32" cy="32" r="32" fill="#FCE8EB"/>
<path d="M33.3926 36.562H27.2388C26.2187 36.562 25.3926 37.3887 25.3926 38.4082C25.3926 39.4277 26.2187 40.2544 27.2388 40.2544H30.3154V42.7158C30.3154 43.7354 31.1421 44.562 32.1616 44.562C33.1812 44.562 34.0078 43.7354 34.0078 42.7158V40.2197C36.7729 39.9121 38.9307 37.562 38.9307 34.7158V32.8696C38.9307 31.8501 38.1045 31.0239 37.0845 31.0239H29.0845C29.0845 30.0059 29.9131 29.1777 30.9307 29.1777H37.0845C38.1045 29.1777 38.9307 28.3511 38.9307 27.3315C38.9307 26.312 38.1045 25.4854 37.0845 25.4854H34.0078V23.0239C34.0078 22.0039 33.1812 21.1777 32.1616 21.1777C31.1421 21.1777 30.3154 22.0039 30.3154 23.0239V25.52C27.5503 25.8276 25.3926 28.1777 25.3926 31.0239V32.8696C25.3926 33.8896 26.2187 34.7158 27.2388 34.7158H35.2388C35.2388 35.7339 34.4102 36.562 33.3926 36.562Z" fill="#3E54D8"/>
</svg>
