<svg width="481" height="458" viewBox="0 0 481 458" fill="none" xmlns="http://www.w3.org/2000/svg">
<path d="M27 182C27 161.565 43.5655 145 64 145V182H27Z" fill="#ED6373"/>
<path d="M455 185C455 193.284 448.284 200 440 200L425 200L425 170L440 170C448.284 170 455 176.716 455 185Z" fill="#F3B63F"/>
<path d="M420 56C446.51 56 468 77.4903 468 104L468 152L372 152L372 104C372 77.4903 393.49 56 420 56Z" fill="#199F27"/>
<circle cx="81" cy="285" r="81" fill="#3E54D8"/>
<g filter="url(#filter0_d)">
<rect x="81" y="28" width="328" height="314" rx="36" fill="white"/>
</g>
<circle opacity="0.1" cx="219.5" cy="153.5" r="49.5" fill="#3E54D8"/>
<g clip-path="url(#clip0)">
<path d="M291.144 225.288H289.24V161.51H291.144C292.173 161.51 293.122 160.956 293.629 160.061C294.136 159.165 294.122 158.067 293.593 157.184L279.315 133.387C278.798 132.526 277.869 132 276.865 132C275.862 132 274.933 132.526 274.416 133.387L260.138 157.184C259.608 158.067 259.594 159.165 260.102 160.061C260.608 160.956 261.558 161.51 262.587 161.51H264.49V225.288H256.875V177.692C256.875 176.115 255.596 174.837 254.019 174.837H234.981C233.404 174.837 232.125 176.115 232.125 177.692V225.288H224.51V192.923C224.51 191.346 223.231 190.067 221.654 190.067H202.615C201.038 190.067 199.76 191.346 199.76 192.923V225.288H197.856C196.279 225.288 195 226.567 195 228.144C195 229.721 196.279 231 197.856 231H291.144C292.721 231 294 229.721 294 228.144C294 226.567 292.721 225.288 291.144 225.288ZM205.471 225.288V195.779H218.798V225.288H205.471ZM237.837 225.288V180.548H251.163V225.288H237.837ZM270.202 225.288V158.654C270.202 157.17 269.07 155.95 267.622 155.811L276.865 140.407L286.109 155.811C284.661 155.95 283.529 157.17 283.529 158.654V225.288H270.202Z" fill="#373943"/>
<path d="M221.654 160.557H212.135C210.557 160.557 209.279 161.836 209.279 163.413C209.279 164.99 210.557 166.269 212.135 166.269H216.894V170.076C216.894 171.654 218.173 172.932 219.75 172.932C221.327 172.932 222.606 171.654 222.606 170.076V166.215C226.883 165.74 230.221 162.104 230.221 157.701V154.846C230.221 153.269 228.943 151.991 227.365 151.991H214.99C214.99 150.416 216.272 149.135 217.846 149.135H227.365C228.943 149.135 230.221 147.856 230.221 146.279C230.221 144.702 228.943 143.423 227.365 143.423H222.606V139.616C222.606 138.038 221.327 136.76 219.75 136.76C218.173 136.76 216.894 138.038 216.894 139.616V143.477C212.617 143.953 209.279 147.588 209.279 151.991V154.846C209.279 156.424 210.557 157.701 212.135 157.701H224.51C224.51 159.276 223.228 160.557 221.654 160.557Z" fill="#3E54D8"/>
</g>
<defs>
<filter id="filter0_d" x="9" y="0" width="472" height="458" filterUnits="userSpaceOnUse" color-interpolation-filters="sRGB">
<feFlood flood-opacity="0" result="BackgroundImageFix"/>
<feColorMatrix in="SourceAlpha" type="matrix" values="0 0 0 0 0 0 0 0 0 0 0 0 0 0 0 0 0 0 127 0"/>
<feMorphology radius="17" operator="erode" in="SourceAlpha" result="effect1_dropShadow"/>
<feOffset dy="44"/>
<feGaussianBlur stdDeviation="44.5"/>
<feColorMatrix type="matrix" values="0 0 0 0 0.243137 0 0 0 0 0.329412 0 0 0 0 0.847059 0 0 0 0.06 0"/>
<feBlend mode="normal" in2="BackgroundImageFix" result="effect1_dropShadow"/>
<feBlend mode="normal" in="SourceGraphic" in2="effect1_dropShadow" result="shape"/>
</filter>
<clipPath id="clip0">
<rect width="99" height="99" fill="white" transform="translate(195 132)"/>
</clipPath>
</defs>
</svg>
