<svg width="129" height="46" viewBox="0 0 129 46" fill="none" xmlns="http://www.w3.org/2000/svg">
<g clip-path="url(#clip0_5954_3844)">
<path fill-rule="evenodd" clip-rule="evenodd" d="M129 0.193359C128.33 1.59681 127.758 2.83357 127.151 4.05456C124.363 9.66162 121.599 15.2799 118.752 20.8566C118.053 22.2262 118.03 23.373 118.738 24.7629C121.957 31.0818 125.082 37.448 128.235 43.7985C128.475 44.2828 128.681 44.7874 128.983 45.4565H0V0.193359H129Z" fill="#AD475C"/>
<path d="M23.1114 35.272L17.3585 27.3792H16.236V35.272H9.88672V10.436H19.814C22.5502 10.436 24.7485 11.1025 26.4089 12.4356C28.0926 13.7686 28.9696 15.8266 29.0398 18.6095C29.0398 23.006 27.4145 25.7188 24.1638 26.7478L30.934 35.272H23.1114ZM16.236 21.9771H19.9193C21.1587 21.9771 22.0356 21.5094 22.5502 20.5739C23.0647 19.6151 23.0647 18.668 22.5502 17.7325C22.0356 16.7737 21.1587 16.2943 19.9193 16.2943H16.236V21.9771ZM50.7706 18.0131C50.7473 18.6913 50.5134 19.4279 50.069 20.2231C49.6481 21.0183 49.0283 21.6263 48.2099 22.0472C49.73 22.8189 50.7473 23.8479 51.2617 25.1342C51.7763 26.4204 51.9282 27.6598 51.7178 28.8525C51.0396 33.1322 48.093 35.272 42.8779 35.272H32.74V10.436H42.7025C45.1347 10.436 47.0991 11.1259 48.5957 12.5057C50.1159 13.8622 50.8408 15.6979 50.7706 18.0131ZM39.0543 20.1529H42.7025C43.6613 20.1529 44.3395 19.7905 44.737 19.0655C45.158 18.3172 45.1698 17.5805 44.7721 16.8555C44.3746 16.1072 43.6847 15.733 42.7025 15.733H39.0543V20.1529ZM39.0543 29.7646H42.7025C43.8951 29.7646 44.7254 29.3436 45.1931 28.5017C45.6842 27.6364 45.6842 26.7829 45.1931 25.941C44.702 25.0991 43.8718 24.6781 42.7025 24.6781H39.0543V29.7646ZM53.8584 31.9395C53.8584 30.9807 54.1975 30.1621 54.8756 29.4839C55.5539 28.8058 56.3724 28.4667 57.3312 28.4667C58.2901 28.4667 59.1085 28.8058 59.7867 29.4839C60.4883 30.1621 60.8391 30.9807 60.8391 31.9395C60.8391 32.9217 60.4883 33.7636 59.7867 34.4652C59.1085 35.1433 58.2901 35.4824 57.3312 35.4824C56.3724 35.4824 55.5539 35.1433 54.8756 34.4652C54.1975 33.7636 53.8584 32.9217 53.8584 31.9395ZM77.2153 35.272L71.4623 27.3792H70.3398V35.272H63.9905V10.436H73.9179C76.654 10.436 78.8522 11.1025 80.5127 12.4356C82.1965 13.7686 83.0735 15.8266 83.1436 18.6095C83.1436 23.006 81.5182 25.7188 78.2676 26.7478L85.0379 35.272H77.2153ZM70.3398 21.9771H74.0231C75.2625 21.9771 76.1395 21.5094 76.654 20.5739C77.1684 19.6151 77.1684 18.668 76.654 17.7325C76.1395 16.7737 75.2625 16.2943 74.0231 16.2943H70.3398V21.9771ZM93.0529 10.436V26.9583C93.0529 27.7066 93.2984 28.3498 93.7895 28.8876C94.2806 29.4021 94.8652 29.7178 95.5435 29.8347C96.245 29.9516 96.9466 29.9516 97.6482 29.8347C98.3498 29.7178 98.9461 29.4021 99.4372 28.8876C99.9283 28.3498 100.174 27.7066 100.174 26.9583V10.436H106.523V26.9583C106.523 28.2211 106.289 29.3787 105.822 30.4311C105.377 31.46 104.769 32.3137 103.997 32.9918C103.226 33.67 102.337 34.2547 101.331 34.7458C100.349 35.2135 99.3086 35.4941 98.2095 35.5877C97.1337 35.6813 96.0462 35.6813 94.9471 35.5877C93.8479 35.4941 92.7955 35.2135 91.79 34.7458C90.8078 34.2547 89.9308 33.67 89.1591 32.9918C88.4107 32.3137 87.8143 31.46 87.3701 30.4311C86.9257 29.3787 86.7036 28.2211 86.7036 26.9583V10.436H93.0529Z" fill="white"/>
</g>
<defs>
<clipPath id="clip0_5954_3844">
<rect width="129" height="45.2632" fill="white" transform="translate(0 0.193359)"/>
</clipPath>
</defs>
</svg>
