<svg width="120" height="120" viewBox="0 0 120 120" fill="none" xmlns="http://www.w3.org/2000/svg">
<circle opacity="0.07" cx="60" cy="60" r="60" fill="#3E54D8"/>
<path d="M47.3124 67.2915C47.1666 66.9998 46.8749 66.854 46.5833 66.854H43.0833C36.8124 66.854 31.7083 71.9582 31.7083 78.229V83.3332C31.7083 84.2082 32.4374 85.0832 33.4583 85.0832H52.2708C52.7083 85.0832 53.1458 84.6457 52.9999 84.0623L47.3124 67.2915ZM57.0833 34.479C49.3541 34.479 43.0833 40.7498 43.0833 48.479C43.0833 56.2082 49.3541 62.479 57.0833 62.479C64.8124 62.479 71.0833 56.2082 71.0833 48.479C71.0833 40.7498 64.8124 34.479 57.0833 34.479Z" fill="#3E54D8"/>
<path d="M57.0833 67.146C55.9166 67.146 54.8958 68.1668 54.8958 69.3335V81.0002C54.8958 82.1668 55.9166 83.1877 57.0833 83.1877C58.2499 83.1877 59.2708 82.1668 59.2708 81.0002V69.3335C59.2708 68.1668 58.2499 67.146 57.0833 67.146ZM86.2499 69.1877C85.6666 67.7293 86.9791 64.8127 85.8124 63.646C84.6458 62.4793 81.8749 63.7918 80.2708 63.2085C78.8124 62.6252 77.7916 59.7085 76.0416 59.7085C74.4374 59.7085 73.2707 62.6252 71.8124 63.2085C70.3541 63.7918 67.4374 62.4793 66.2708 63.646C65.1041 64.8127 66.4166 67.5835 65.8333 69.1877C65.2499 70.646 62.3333 71.6668 62.3333 73.4168C62.3333 75.021 65.2499 76.1877 65.8333 77.646C66.4166 79.1043 65.1041 82.021 66.2708 83.1877C67.4374 84.3543 70.2082 83.0418 71.8124 83.6252C73.2707 84.2085 74.2916 87.1252 76.0416 87.1252C77.6458 87.1252 78.8124 84.2085 80.2708 83.6252C81.7291 83.0418 84.6458 84.3543 85.8124 83.1877C86.9791 81.8752 85.6666 78.9585 86.2499 77.5002C86.8333 76.0418 89.7499 75.021 89.7499 73.271C89.8958 71.6668 86.8333 70.646 86.2499 69.1877ZM76.1874 81.2918C75.0207 81.2918 73.9999 80.271 73.9999 79.1043C73.9999 77.9377 75.0207 76.9168 76.1874 76.9168C77.3541 76.9168 78.3749 77.9377 78.3749 79.1043C78.3749 80.271 77.3541 81.2918 76.1874 81.2918ZM78.3749 72.2502C78.3749 73.4168 77.3541 74.4377 76.1874 74.4377C75.0207 74.4377 73.9999 73.4168 73.9999 72.2502V67.0002C73.9999 65.8335 75.0207 64.8127 76.1874 64.8127C77.3541 64.8127 78.3749 65.8335 78.3749 67.0002V72.2502Z" fill="#3E54D8"/>
</svg>
