<svg width="120" height="120" viewBox="0 0 120 120" fill="none" xmlns="http://www.w3.org/2000/svg">
<path d="M93 62.4216L90.6834 50.3042C90.1488 47.453 87.6541 45.4928 84.8029 45.4928H79.8134C76.9622 45.4928 74.4674 47.453 73.9328 50.3042C74.111 50.8388 74.2892 51.3734 74.2892 51.9079L76.9622 66.5202C77.3186 68.3021 76.9622 69.9059 76.2494 71.5097C76.2494 71.5097 76.2494 71.5097 76.2494 71.6879L77.1404 82.9144C77.3186 84.5181 78.566 85.5873 80.1698 85.5873H84.2683C85.8721 85.5873 87.1195 84.3399 87.2977 82.9144L88.1887 71.6879C88.1887 71.1533 88.3669 70.6187 88.7233 70.2623L92.4654 64.9164C92.8218 64.0254 93 63.3126 93 62.4216ZM37.9369 41.2161C41.8572 41.2161 44.8866 38.0085 44.8866 34.2664C44.8866 30.346 41.6791 27.3167 37.9369 27.3167C34.0165 27.3167 30.9872 30.5242 30.9872 34.2664C30.9872 38.0085 34.0165 41.2161 37.9369 41.2161ZM82.4863 41.2161C86.4067 41.2161 89.436 38.0085 89.436 34.2664C89.436 30.346 86.2285 27.3167 82.4863 27.3167C78.566 27.3167 75.5366 30.5242 75.5366 34.2664C75.5366 38.0085 78.566 41.2161 82.4863 41.2161ZM40.2534 45.3146H35.2639C32.4128 45.3146 29.918 47.2748 29.3834 50.126L27.0668 62.2434C26.8886 62.9562 27.0668 63.8472 27.6014 64.56L31.3436 69.9059C31.7 70.2623 31.8782 70.7969 31.8782 71.3315L32.7691 82.558C32.9473 84.1617 34.1947 85.2309 35.7985 85.2309H39.8971C41.5008 85.2309 42.7482 83.9835 42.9264 82.558L43.8174 71.3315C43.8174 71.3315 43.8174 71.3315 43.8174 71.1533C43.1046 69.5495 42.7482 67.9457 43.1046 66.1638L45.7776 51.5516C45.9558 51.017 45.9558 50.4824 46.134 49.9478C45.5994 47.453 43.1046 45.3146 40.2534 45.3146Z" fill="#ED6373"/>
<path d="M60.2115 41.7506C64.8446 41.7506 68.5868 38.0085 68.5868 33.3753C68.5868 28.7422 64.8446 25 60.2115 25C55.5783 25 51.8361 28.7422 51.8361 33.3753C51.8361 38.0085 55.5783 41.7506 60.2115 41.7506ZM72.6853 67.2329L70.0123 52.6207C69.2995 49.2349 66.4484 46.7402 63.0626 46.7402H57.0039C53.6181 46.7402 50.5888 49.2349 50.0542 52.6207L47.3812 67.2329C47.203 68.1239 47.3812 69.1931 47.9158 69.9059L52.3707 76.4992C52.7271 77.0338 52.9053 77.5684 52.9053 78.2812L53.9745 91.8242C54.1527 93.6061 55.7565 95.0317 57.5385 95.0317H62.3498C64.1318 95.0317 65.7356 93.6061 65.9138 91.8242L66.983 78.2812C66.983 77.7466 67.1612 77.0338 67.5176 76.4992L71.9725 69.9059C72.6853 69.1931 72.8635 68.1239 72.6853 67.2329Z" fill="#ED6373"/>
<circle opacity="0.07" cx="60" cy="60" r="60" fill="#ED6373"/>
</svg>
