<svg width="120" height="120" viewBox="0 0 120 120" fill="none" xmlns="http://www.w3.org/2000/svg">
<path d="M47.931 76.1836C47.7557 75.833 47.4052 75.6577 47.0546 75.6577H40.7442C34.2586 75.6577 29 80.9163 29 87.402V93.1865C29 93.7123 29.3506 94.0629 29.8764 94.0629H53.5402C54.2414 94.0629 54.592 93.3617 54.4167 92.8359L47.931 76.1836ZM78.2558 75.6577H71.9454C71.5948 75.6577 71.2443 75.833 71.069 76.1836L64.5833 92.8359C64.408 93.3617 64.7586 94.0629 65.4598 94.0629H89.1236C89.6494 94.0629 90 93.7123 90 93.1865V87.402C90 80.9163 84.7414 75.6577 78.2558 75.6577Z" fill="#F3B63F"/>
<path d="M59.5 76.1839C58.0977 76.1839 56.8707 77.4109 56.8707 78.8132V91.0834C56.8707 92.4856 58.0977 93.7127 59.5 93.7127C60.9023 93.7127 62.1293 92.4856 62.1293 91.0834V78.8132C62.1293 77.2356 60.9023 76.1839 59.5 76.1839ZM76.8534 41.3017C75.8017 38.6724 78.0805 33.7644 76.1523 31.8362C74.2241 29.908 69.3161 32.1868 66.6868 31.1351C64.2328 30.0833 62.3046 25 59.5 25C56.6954 25 54.7672 30.0833 52.3132 31.1351C49.6839 32.1868 44.7759 29.908 42.8477 31.8362C40.9195 33.7644 43.1983 38.6724 42.1465 41.3017C41.0948 43.7558 36.0115 45.6839 36.0115 48.4885C36.0115 51.2931 41.0948 53.2213 42.1465 55.6753C43.1983 58.3046 40.9195 63.2126 42.8477 65.1408C44.7759 67.069 49.6839 64.7902 52.3132 65.842C54.7672 66.8937 56.6954 71.977 59.5 71.977C62.3046 71.977 64.2328 66.8937 66.6868 65.842C69.3161 64.7902 74.2241 67.069 76.1523 65.1408C78.0805 63.2126 75.8017 58.3046 76.8534 55.6753C77.9052 53.2213 82.9885 51.2931 82.9885 48.4885C82.9885 45.6839 77.9052 43.7558 76.8534 41.3017ZM56.8707 37.6207C56.8707 36.2184 58.0977 34.9914 59.5 34.9914C60.9023 34.9914 62.1293 36.2184 62.1293 37.6207V48.8391C62.1293 50.2414 60.9023 51.4684 59.5 51.4684C58.0977 51.4684 56.8707 50.2414 56.8707 48.8391V37.6207ZM59.5 62.1609C57.5718 62.1609 55.9942 60.5833 55.9942 58.6552C55.9942 56.727 57.5718 55.1494 59.5 55.1494C61.4282 55.1494 63.0057 56.727 63.0057 58.6552C63.0057 60.5833 61.4282 62.1609 59.5 62.1609Z" fill="#F3B63F"/>
<circle opacity="0.07" cx="60" cy="60" r="60" fill="#F3B63F"/>
</svg>
