<svg width="120" height="120" viewBox="0 0 120 120" fill="none" xmlns="http://www.w3.org/2000/svg">
<circle opacity="0.07" cx="60" cy="60" r="60" fill="#F3B63F"/>
<path d="M75.8959 65.2501L65.5417 73.2709C64.9584 73.7084 64.375 73.8542 63.7917 73.8542H56.3542C55.3334 73.8542 54.6042 72.9793 54.6042 71.9584C54.6042 70.9376 55.4792 70.2084 56.5 70.2084H62.7709C64.8125 70.2084 66.4167 68.6042 66.4167 66.5626C66.4167 64.5209 64.8125 62.9167 62.7709 62.9167H48.3334H47.3125C45.4167 62.9167 43.5209 63.5001 41.9167 64.8126L36.9584 68.7501C36.6667 69.0417 36.5209 69.4792 36.8125 69.7709L46.5834 82.1668C46.7292 82.3126 46.875 82.4584 47.1667 82.4584L59.125 82.6042H62.4792C64.5209 82.6042 66.4167 82.0209 68.0209 80.7084L80.5625 70.7917C82.1667 69.4792 82.4584 67.2917 81.1459 65.6876C79.6875 64.2292 77.5 63.9376 75.8959 65.2501ZM84.6459 51.6876L74.875 39.2917C74.7292 39.1459 74.5834 39.0001 74.2917 39.0001L62.3334 38.8542H58.9792C56.9375 38.8542 55.0417 39.4376 53.4375 40.7501L41.0417 50.5209C39.4375 51.8334 39.1459 54.0209 40.4584 55.6251C41.7709 57.2292 43.9584 57.5209 45.5625 56.2084L55.9167 48.1876C56.5 47.7501 57.0834 47.6042 57.6667 47.6042H65.1042C66.125 47.6042 66.8542 48.4792 66.8542 49.5001C66.8542 50.5209 65.9792 51.2501 64.9584 51.2501H58.6875C56.6459 51.2501 55.0417 52.8542 55.0417 54.8959C55.0417 56.9376 56.6459 58.5417 58.6875 58.5417H68.8959H73.8542C75.75 58.5417 77.6459 57.9584 79.25 56.6459L84.3542 52.7084C84.7917 52.4167 84.9375 51.9792 84.6459 51.6876Z" fill="#F2B640"/>
<path d="M33.8958 72.104C33.75 71.8124 33.1666 71.6665 32.875 71.9582L30.5416 73.7082C30.25 73.9999 30.1041 74.4374 30.3958 74.729L40.0208 86.8332C40.3125 87.1249 40.75 87.2707 41.0416 86.979L43.375 85.229C43.6666 84.9374 43.8125 84.4999 43.5208 84.2082L33.8958 72.104ZM90.9166 46.7291L81.2916 34.6249C81 34.3332 80.5625 34.1874 80.2708 34.4791L77.9375 36.2291C77.6458 36.5207 77.5 36.9582 77.7916 37.2499L87.4166 49.3541C87.7083 49.6457 88.1458 49.7915 88.4375 49.4999L90.7708 47.7499C91.2083 47.4582 91.2083 47.0207 90.9166 46.7291Z" fill="#F2B640"/>
</svg>
