<svg width="120" height="120" viewBox="0 0 120 120" fill="none" xmlns="http://www.w3.org/2000/svg">
<circle opacity="0.07" cx="60" cy="60" r="60" fill="#3E54D8"/>
<path d="M80.0331 40.7218C78.8742 37.9073 79.8675 33.4371 77.7152 31.2848C75.5629 29.1325 71.2583 30.1258 68.2781 28.9669C65.4636 27.8079 63.1457 24 60 24C56.8543 24 54.3709 27.8079 51.7219 28.9669C48.9073 30.1258 44.4371 29.1325 42.2848 31.2848C40.1324 33.4371 41.1258 37.7417 39.9669 40.7218C38.8079 43.5364 35 45.8543 35 49C35 52.1457 38.8079 54.6291 39.9669 57.2781C41.1258 60.0927 40.1324 64.5629 42.2848 66.7152C44.4371 68.8675 48.7417 67.8742 51.7219 69.0331C54.5364 70.192 56.8543 74 60 74C63.1457 74 65.6291 70.192 68.2781 69.0331C71.0927 67.8742 75.5629 68.8675 77.7152 66.7152C79.8675 64.5629 78.8742 60.2583 80.0331 57.2781C81.1921 54.4636 85 52.1457 85 49C84.8344 45.8543 81.0265 43.5364 80.0331 40.7218ZM59.8344 63.2384C52.053 63.2384 45.7616 56.947 45.7616 49.1655C45.7616 41.3841 52.053 35.0927 59.8344 35.0927C67.6159 35.0927 73.9073 41.3841 73.9073 49.1655C73.9073 56.947 67.6159 63.2384 59.8344 63.2384Z" fill="#3E54D8"/>
<path d="M58.3443 55.6222L61.49 52.4765L68.2781 45.6884L65.1324 42.5427L58.3443 49.3308L54.5364 45.5229L51.3907 48.6686L55.1987 52.4765L58.3443 55.6222ZM76.3907 92.7083L73.5761 72.5096C73.245 72.5096 72.9139 72.5096 72.5828 72.6752C71.5894 72.8407 70.4304 72.8407 69.7682 73.1719C69.2715 73.3374 68.4437 74.1652 67.6159 74.8275C65.7947 76.3176 63.3112 78.4699 59.8344 78.4699C56.3576 78.4699 53.8741 76.3176 52.0529 74.8275C51.2251 74.1652 50.3973 73.503 49.9006 73.1719C49.2384 73.0063 48.0794 72.8407 47.086 72.6752C46.9205 72.6752 46.5894 72.6752 46.4238 72.6752L43.2781 93.205C43.1126 94.695 44.6026 95.6884 45.7616 95.0262L59.0066 88.2381C59.5033 87.907 60.1655 87.907 60.6622 88.2381L73.7417 94.695C75.0662 95.1917 76.5563 94.0328 76.3907 92.7083Z" fill="#3E54D8"/>
</svg>
