<svg width="120" height="120" viewBox="0 0 120 120" fill="none" xmlns="http://www.w3.org/2000/svg">
<circle opacity="0.07" cx="60" cy="60" r="60" fill="#199F27"/>
<path d="M96.8761 49.9557L83.1598 35.2479C82.8292 34.9174 82.3335 34.9174 82.003 35.2479L76.219 40.7013C75.8885 41.0319 75.8885 41.5276 76.219 41.8581L89.9353 56.566C90.2658 56.8965 90.7616 56.8965 91.0921 56.566L96.8761 51.1125C97.0413 50.782 97.0413 50.2862 96.8761 49.9557ZM91.7531 51.6083C91.0921 52.2693 89.9353 52.2693 89.2743 51.6083C88.6132 50.9472 88.6132 49.7904 89.2743 49.1294C89.9353 48.4684 91.0921 48.4684 91.7531 49.1294C92.5794 49.7904 92.4141 50.9472 91.7531 51.6083ZM36.2269 37.231C35.8964 36.9004 35.4007 37.0657 35.0702 37.3962L22.1802 53.9219C21.8496 54.2524 22.0149 54.7481 22.3454 55.0787L28.6251 60.0363C28.9557 60.3669 29.4514 60.2016 29.782 59.8711L42.6719 43.3454C43.0024 43.0149 42.8372 42.5192 42.5067 42.1887L36.2269 37.231ZM30.1125 54.5829C29.4515 55.4092 28.2947 55.5744 27.6336 54.9134C26.8074 54.2524 26.6421 53.0956 27.3031 52.4345C27.9641 51.6083 29.1209 51.443 29.782 52.104C30.6082 52.5998 30.7735 53.7566 30.1125 54.5829Z" fill="#199F27"/>
<path d="M78.037 70.6126L63.8249 59.5405L61.1808 61.854C57.5451 65.1592 54.24 65.9855 51.7611 65.9855C51.1001 65.9855 50.6044 65.9855 49.9434 65.8202C46.473 65.1592 44.1594 63.0108 43.1678 61.193C41.8458 59.2099 42.3416 56.5658 43.9941 54.9133L54.0748 45.6589C52.918 44.6674 51.4306 44.3369 50.1086 44.3369C48.1255 44.3369 46.1425 45.1632 44.8204 46.981L34.905 59.871C34.0787 60.8625 33.7482 62.1846 33.9135 63.5066L34.5745 68.6296C34.7397 69.9516 35.4008 71.1084 36.3923 71.9347L53.7442 85.4857C54.24 85.8162 54.7358 85.9815 55.3968 85.9815C56.0578 85.9815 56.8841 85.651 57.3799 85.1552L58.2062 84.3289C59.1977 83.1721 59.1977 81.5196 57.8757 80.528L60.8502 83.0069C61.346 83.5026 62.007 83.6679 62.5028 83.6679C63.1638 83.6679 63.8249 83.3374 64.3206 82.8416L65.1469 82.0153C66.3037 80.8585 66.3037 79.0407 64.9817 78.0492L67.13 79.867C67.6258 80.3628 68.2868 80.528 68.7826 80.528C69.4436 80.528 70.1046 80.1975 70.6004 79.7017L71.4267 78.8755C72.5835 77.7187 72.4182 75.9008 71.2614 74.9093L72.7487 76.0661C73.2445 76.5619 73.9055 76.7271 74.5666 76.7271C75.3928 76.7271 76.0538 76.3966 76.5496 75.7356L77.7064 74.2483C79.359 73.2567 79.1937 71.4389 78.037 70.6126ZM84.9777 57.3921L73.0793 45.1632C72.5835 44.6674 71.9224 44.3369 71.0962 44.1716L64.9817 43.3453C63.9901 43.1801 62.9986 43.5106 62.3376 44.1716L60.8502 45.4937L47.134 58.0532C46.9687 58.2184 46.6382 58.5489 46.9687 59.0447L47.134 59.2099C47.6298 60.2015 48.9518 61.5235 50.9349 61.854C53.2485 62.1846 55.8926 61.193 58.5367 58.8794L63.6596 54.2523L79.8547 66.8117L84.9777 62.0193C86.1345 60.6973 86.2997 58.7142 84.9777 57.3921Z" fill="#199F27"/>
</svg>
