<svg width="120" height="120" viewBox="0 0 120 120" fill="none" xmlns="http://www.w3.org/2000/svg">
<circle opacity="0.07" cx="60" cy="60" r="60" fill="#ED6373"/>
<path d="M85.6669 66.1252C84.3544 64.521 82.1669 64.2293 80.5627 65.5418L70.2085 73.5627C69.6252 74.0002 69.0419 74.146 68.4585 74.146H61.021C60.0002 74.146 59.1252 73.271 59.1252 72.396C59.1252 71.521 60.0002 70.5002 60.8752 70.5002H67.146C69.1877 70.5002 70.7919 68.896 70.7919 66.8543C70.7919 64.8127 69.1877 63.2085 67.146 63.2085H53.0002H51.9794C50.0835 63.2085 48.1877 63.9377 46.5835 65.1043L41.4794 69.0418C41.1877 69.3335 41.0419 69.771 41.3335 70.0627L51.1044 82.4585C51.2502 82.6043 51.396 82.7502 51.6877 82.7502L63.646 82.896H67.0002C69.0419 82.896 70.9377 82.3127 72.5419 81.0002L85.0835 71.0835C86.6877 69.9168 86.8335 67.7293 85.6669 66.1252Z" fill="#ED6373"/>
<path d="M38.5625 72.396C38.2709 72.1043 37.8334 71.9585 37.5417 72.2502L35.2084 74.0002C34.9167 74.2918 34.7709 74.7293 35.0625 75.021L44.6875 87.1252C44.9792 87.4168 45.4167 87.5627 45.7084 87.271L48.0417 85.521C48.3334 85.2293 48.4792 84.7918 48.1875 84.5002L38.5625 72.396ZM73.7084 44.1043C73.7084 44.396 74 44.6877 74.2917 44.6877H78.8125C79.25 44.6877 79.5417 44.2502 79.3959 43.9585C78.6667 40.1668 76.3334 36.8127 72.9792 34.9168C72.3959 34.6252 71.8125 35.2085 72.1042 35.646C72.9792 38.1252 73.5625 41.0418 73.7084 44.1043ZM59.4167 48.6252C59.4167 48.3335 59.125 48.0418 58.8334 48.0418H54.3125C53.875 48.0418 53.5834 48.4793 53.7292 48.771C54.4584 52.5627 56.7917 55.9168 60.1459 57.8127C60.7292 58.1043 61.3125 57.521 61.0209 57.0835C60.1459 54.6043 59.5625 51.6877 59.4167 48.6252ZM60 34.9168C56.6459 36.8127 54.3125 40.021 53.5834 43.9585C53.4375 44.396 53.875 44.6877 54.1667 44.6877H58.6875C58.9792 44.6877 59.2709 44.396 59.2709 44.1043C59.4167 41.0418 60 38.1252 60.7292 35.7918C61.1667 35.2085 60.5834 34.6252 60 34.9168ZM66.5625 33.896C65.25 33.896 63.2084 37.6877 62.7709 44.1043C62.7709 44.396 63.0625 44.8335 63.5 44.8335H69.9167C70.3542 44.8335 70.6459 44.5418 70.6459 44.1043C69.9167 37.6877 67.875 33.896 66.5625 33.896ZM78.8125 48.0418H74.2917C74 48.0418 73.7084 48.3335 73.7084 48.6252C73.5625 51.6877 72.9792 54.6043 72.25 56.9377C72.1042 57.521 72.6875 57.9585 73.125 57.6668C76.4792 55.771 78.8125 52.5627 79.5417 48.6252C79.5417 48.3335 79.25 48.0418 78.8125 48.0418ZM69.7709 47.896H63.3542C62.9167 47.896 62.625 48.1877 62.625 48.6252C63.0625 55.0418 65.25 58.8335 66.4167 58.8335C67.5834 58.8335 69.7709 55.0418 70.2084 48.6252C70.5 48.1877 70.0625 47.896 69.7709 47.896Z" fill="#ED6373"/>
</svg>
