<svg width="384" height="374" viewBox="0 0 384 374" fill="none" xmlns="http://www.w3.org/2000/svg">
<g filter="url(#filter0_d)">
<rect x="72" y="28" width="240" height="230" rx="36" fill="white"/>
</g>
<path d="M163.76 82.7C164.306 82.7 164.78 82.79 165.182 82.97C165.59 83.15 165.902 83.408 166.118 83.744C166.334 84.08 166.442 84.479 166.442 84.941C166.442 85.397 166.334 85.796 166.118 86.138C165.902 86.474 165.59 86.732 165.182 86.912C164.78 87.092 164.306 87.182 163.76 87.182H162.338V89H161.168V82.7H163.76ZM163.706 86.192C164.216 86.192 164.603 86.084 164.867 85.868C165.131 85.652 165.263 85.343 165.263 84.941C165.263 84.539 165.131 84.23 164.867 84.014C164.603 83.798 164.216 83.69 163.706 83.69H162.338V86.192H163.706ZM171.905 86.624C171.905 86.702 171.899 86.813 171.887 86.957H168.116C168.182 87.311 168.353 87.593 168.629 87.803C168.911 88.007 169.259 88.109 169.673 88.109C170.201 88.109 170.636 87.935 170.978 87.587L171.581 88.28C171.365 88.538 171.092 88.733 170.762 88.865C170.432 88.997 170.06 89.063 169.646 89.063C169.118 89.063 168.653 88.958 168.251 88.748C167.849 88.538 167.537 88.247 167.315 87.875C167.099 87.497 166.991 87.071 166.991 86.597C166.991 86.129 167.096 85.709 167.306 85.337C167.522 84.959 167.819 84.665 168.197 84.455C168.575 84.245 169.001 84.14 169.475 84.14C169.943 84.14 170.36 84.245 170.726 84.455C171.098 84.659 171.386 84.95 171.59 85.328C171.8 85.7 171.905 86.132 171.905 86.624ZM169.475 85.04C169.115 85.04 168.809 85.148 168.557 85.364C168.311 85.574 168.161 85.856 168.107 86.21H170.834C170.786 85.862 170.639 85.58 170.393 85.364C170.147 85.148 169.841 85.04 169.475 85.04ZM176.825 85.148H174.26V89H173.135V84.194H176.825V85.148ZM177.644 84.194H178.769V87.362L181.424 84.194H182.45V89H181.325V85.832L178.679 89H177.644V84.194ZM186.151 89.063C185.653 89.063 185.206 88.958 184.81 88.748C184.414 88.538 184.105 88.247 183.883 87.875C183.661 87.497 183.55 87.071 183.55 86.597C183.55 86.123 183.661 85.7 183.883 85.328C184.105 84.956 184.411 84.665 184.801 84.455C185.197 84.245 185.647 84.14 186.151 84.14C186.625 84.14 187.039 84.236 187.393 84.428C187.753 84.62 188.023 84.896 188.203 85.256L187.339 85.76C187.201 85.538 187.027 85.373 186.817 85.265C186.613 85.151 186.388 85.094 186.142 85.094C185.722 85.094 185.374 85.232 185.098 85.508C184.822 85.778 184.684 86.141 184.684 86.597C184.684 87.053 184.819 87.419 185.089 87.695C185.365 87.965 185.716 88.1 186.142 88.1C186.388 88.1 186.613 88.046 186.817 87.938C187.027 87.824 187.201 87.656 187.339 87.434L188.203 87.938C188.017 88.298 187.744 88.577 187.384 88.775C187.03 88.967 186.619 89.063 186.151 89.063ZM192.956 85.148H191.273V89H190.148V85.148H188.456V84.194H192.956V85.148ZM196.436 84.14C196.904 84.14 197.321 84.242 197.687 84.446C198.059 84.65 198.35 84.938 198.56 85.31C198.77 85.682 198.875 86.111 198.875 86.597C198.875 87.083 198.77 87.515 198.56 87.893C198.35 88.265 198.059 88.553 197.687 88.757C197.321 88.961 196.904 89.063 196.436 89.063C195.788 89.063 195.275 88.847 194.897 88.415V90.746H193.772V84.194H194.843V84.824C195.029 84.596 195.257 84.425 195.527 84.311C195.803 84.197 196.106 84.14 196.436 84.14ZM196.31 88.1C196.724 88.1 197.063 87.962 197.327 87.686C197.597 87.41 197.732 87.047 197.732 86.597C197.732 86.147 197.597 85.784 197.327 85.508C197.063 85.232 196.724 85.094 196.31 85.094C196.04 85.094 195.797 85.157 195.581 85.283C195.365 85.403 195.194 85.577 195.068 85.805C194.942 86.033 194.879 86.297 194.879 86.597C194.879 86.897 194.942 87.161 195.068 87.389C195.194 87.617 195.365 87.794 195.581 87.92C195.797 88.04 196.04 88.1 196.31 88.1ZM201.724 84.14C202.432 84.14 202.972 84.311 203.344 84.653C203.722 84.989 203.911 85.499 203.911 86.183V89H202.849V88.415C202.711 88.625 202.513 88.787 202.255 88.901C202.003 89.009 201.697 89.063 201.337 89.063C200.977 89.063 200.662 89.003 200.392 88.883C200.122 88.757 199.912 88.586 199.762 88.37C199.618 88.148 199.546 87.899 199.546 87.623C199.546 87.191 199.705 86.846 200.023 86.588C200.347 86.324 200.854 86.192 201.544 86.192H202.786V86.12C202.786 85.784 202.684 85.526 202.48 85.346C202.282 85.166 201.985 85.076 201.589 85.076C201.319 85.076 201.052 85.118 200.788 85.202C200.53 85.286 200.311 85.403 200.131 85.553L199.69 84.734C199.942 84.542 200.245 84.395 200.599 84.293C200.953 84.191 201.328 84.14 201.724 84.14ZM201.571 88.244C201.853 88.244 202.102 88.181 202.318 88.055C202.54 87.923 202.696 87.737 202.786 87.497V86.939H201.625C200.977 86.939 200.653 87.152 200.653 87.578C200.653 87.782 200.734 87.944 200.896 88.064C201.058 88.184 201.283 88.244 201.571 88.244ZM210.577 88.046V90.107H209.524V89H205.303V84.194H206.428V88.046H208.723V84.194H209.848V88.046H210.577ZM211.579 84.194H212.704V87.362L215.359 84.194H216.385V89H215.26V85.832L212.614 89H211.579V84.194ZM221.957 84.194V89H220.949V87.551H219.68L218.699 89H217.493L218.627 87.398C218.279 87.278 218.012 87.095 217.826 86.849C217.646 86.597 217.556 86.288 217.556 85.922C217.556 85.37 217.751 84.944 218.141 84.644C218.531 84.344 219.068 84.194 219.752 84.194H221.957ZM219.788 85.139C219.062 85.139 218.699 85.412 218.699 85.958C218.699 86.498 219.05 86.768 219.752 86.768H220.949V85.139H219.788Z" fill="#373943"/>
<path d="M179.665 112.195C179.908 112.245 180.093 112.343 180.22 112.49C180.347 112.633 180.41 112.822 180.41 113.055C180.41 113.358 180.302 113.592 180.085 113.755C179.872 113.918 179.557 114 179.14 114H177.59V110.5H179.045C179.418 110.5 179.71 110.577 179.92 110.73C180.13 110.883 180.235 111.105 180.235 111.395C180.235 111.592 180.185 111.758 180.085 111.895C179.985 112.028 179.845 112.128 179.665 112.195ZM177.955 112.085H179.025C179.295 112.085 179.502 112.03 179.645 111.92C179.792 111.81 179.865 111.65 179.865 111.44C179.865 111.23 179.792 111.07 179.645 110.96C179.502 110.85 179.295 110.795 179.025 110.795H177.955V112.085ZM179.14 113.705C179.743 113.705 180.045 113.48 180.045 113.03C180.045 112.59 179.743 112.37 179.14 112.37H177.955V113.705H179.14ZM182.155 111.35C182.498 111.35 182.762 111.437 182.945 111.61C183.128 111.78 183.22 112.033 183.22 112.37V114H182.88V113.59C182.8 113.727 182.682 113.833 182.525 113.91C182.372 113.987 182.188 114.025 181.975 114.025C181.682 114.025 181.448 113.955 181.275 113.815C181.102 113.675 181.015 113.49 181.015 113.26C181.015 113.037 181.095 112.857 181.255 112.72C181.418 112.583 181.677 112.515 182.03 112.515H182.865V112.355C182.865 112.128 182.802 111.957 182.675 111.84C182.548 111.72 182.363 111.66 182.12 111.66C181.953 111.66 181.793 111.688 181.64 111.745C181.487 111.798 181.355 111.873 181.245 111.97L181.085 111.705C181.218 111.592 181.378 111.505 181.565 111.445C181.752 111.382 181.948 111.35 182.155 111.35ZM182.03 113.745C182.23 113.745 182.402 113.7 182.545 113.61C182.688 113.517 182.795 113.383 182.865 113.21V112.78H182.04C181.59 112.78 181.365 112.937 181.365 113.25C181.365 113.403 181.423 113.525 181.54 113.615C181.657 113.702 181.82 113.745 182.03 113.745ZM187.795 111.37V114H184.165V111.37H184.52V113.69H185.81V111.37H186.165V113.69H187.44V111.37H187.795ZM192.397 112.795H190.197C190.217 113.068 190.322 113.29 190.512 113.46C190.702 113.627 190.942 113.71 191.232 113.71C191.396 113.71 191.546 113.682 191.682 113.625C191.819 113.565 191.937 113.478 192.037 113.365L192.237 113.595C192.121 113.735 191.974 113.842 191.797 113.915C191.624 113.988 191.432 114.025 191.222 114.025C190.952 114.025 190.712 113.968 190.502 113.855C190.296 113.738 190.134 113.578 190.017 113.375C189.901 113.172 189.842 112.942 189.842 112.685C189.842 112.428 189.897 112.198 190.007 111.995C190.121 111.792 190.274 111.633 190.467 111.52C190.664 111.407 190.884 111.35 191.127 111.35C191.371 111.35 191.589 111.407 191.782 111.52C191.976 111.633 192.127 111.792 192.237 111.995C192.347 112.195 192.402 112.425 192.402 112.685L192.397 112.795ZM191.127 111.655C190.874 111.655 190.661 111.737 190.487 111.9C190.317 112.06 190.221 112.27 190.197 112.53H192.062C192.039 112.27 191.941 112.06 191.767 111.9C191.597 111.737 191.384 111.655 191.127 111.655ZM192.979 112.49H194.289V112.8H192.979V112.49ZM198.363 111.35C198.693 111.35 198.951 111.445 199.138 111.635C199.328 111.825 199.423 112.105 199.423 112.475V114H199.068V112.51C199.068 112.237 199.001 112.028 198.868 111.885C198.738 111.742 198.553 111.67 198.313 111.67C198.04 111.67 197.825 111.755 197.668 111.925C197.511 112.092 197.433 112.323 197.433 112.62V114H197.078V112.51C197.078 112.237 197.011 112.028 196.878 111.885C196.748 111.742 196.561 111.67 196.318 111.67C196.048 111.67 195.833 111.755 195.673 111.925C195.516 112.092 195.438 112.323 195.438 112.62V114H195.083V111.37H195.423V111.85C195.516 111.69 195.646 111.567 195.813 111.48C195.98 111.393 196.171 111.35 196.388 111.35C196.608 111.35 196.798 111.397 196.958 111.49C197.121 111.583 197.243 111.722 197.323 111.905C197.42 111.732 197.558 111.597 197.738 111.5C197.921 111.4 198.13 111.35 198.363 111.35ZM201.306 111.35C201.649 111.35 201.912 111.437 202.096 111.61C202.279 111.78 202.371 112.033 202.371 112.37V114H202.031V113.59C201.951 113.727 201.832 113.833 201.676 113.91C201.522 113.987 201.339 114.025 201.126 114.025C200.832 114.025 200.599 113.955 200.426 113.815C200.252 113.675 200.166 113.49 200.166 113.26C200.166 113.037 200.246 112.857 200.406 112.72C200.569 112.583 200.827 112.515 201.181 112.515H202.016V112.355C202.016 112.128 201.952 111.957 201.826 111.84C201.699 111.72 201.514 111.66 201.271 111.66C201.104 111.66 200.944 111.688 200.791 111.745C200.637 111.798 200.506 111.873 200.396 111.97L200.236 111.705C200.369 111.592 200.529 111.505 200.716 111.445C200.902 111.382 201.099 111.35 201.306 111.35ZM201.181 113.745C201.381 113.745 201.552 113.7 201.696 113.61C201.839 113.517 201.946 113.383 202.016 113.21V112.78H201.191C200.741 112.78 200.516 112.937 200.516 113.25C200.516 113.403 200.574 113.525 200.691 113.615C200.807 113.702 200.971 113.745 201.181 113.745ZM203.335 111.37H203.69V114H203.335V111.37ZM203.515 110.795C203.442 110.795 203.38 110.77 203.33 110.72C203.28 110.67 203.255 110.61 203.255 110.54C203.255 110.473 203.28 110.415 203.33 110.365C203.38 110.315 203.442 110.29 203.515 110.29C203.588 110.29 203.65 110.315 203.7 110.365C203.75 110.412 203.775 110.468 203.775 110.535C203.775 110.608 203.75 110.67 203.7 110.72C203.65 110.77 203.588 110.795 203.515 110.795ZM204.678 110.29H205.033V114H204.678V110.29Z" fill="#373943"/>
<path d="M178.665 142.195C178.908 142.245 179.093 142.343 179.22 142.49C179.347 142.633 179.41 142.822 179.41 143.055C179.41 143.358 179.302 143.592 179.085 143.755C178.872 143.918 178.557 144 178.14 144H176.59V140.5H178.045C178.418 140.5 178.71 140.577 178.92 140.73C179.13 140.883 179.235 141.105 179.235 141.395C179.235 141.592 179.185 141.758 179.085 141.895C178.985 142.028 178.845 142.128 178.665 142.195ZM176.955 142.085H178.025C178.295 142.085 178.502 142.03 178.645 141.92C178.792 141.81 178.865 141.65 178.865 141.44C178.865 141.23 178.792 141.07 178.645 140.96C178.502 140.85 178.295 140.795 178.025 140.795H176.955V142.085ZM178.14 143.705C178.743 143.705 179.045 143.48 179.045 143.03C179.045 142.59 178.743 142.37 178.14 142.37H176.955V143.705H178.14ZM181.155 141.35C181.498 141.35 181.762 141.437 181.945 141.61C182.128 141.78 182.22 142.033 182.22 142.37V144H181.88V143.59C181.8 143.727 181.682 143.833 181.525 143.91C181.372 143.987 181.188 144.025 180.975 144.025C180.682 144.025 180.448 143.955 180.275 143.815C180.102 143.675 180.015 143.49 180.015 143.26C180.015 143.037 180.095 142.857 180.255 142.72C180.418 142.583 180.677 142.515 181.03 142.515H181.865V142.355C181.865 142.128 181.802 141.957 181.675 141.84C181.548 141.72 181.363 141.66 181.12 141.66C180.953 141.66 180.793 141.688 180.64 141.745C180.487 141.798 180.355 141.873 180.245 141.97L180.085 141.705C180.218 141.592 180.378 141.505 180.565 141.445C180.752 141.382 180.948 141.35 181.155 141.35ZM181.03 143.745C181.23 143.745 181.402 143.7 181.545 143.61C181.688 143.517 181.795 143.383 181.865 143.21V142.78H181.04C180.59 142.78 180.365 142.937 180.365 143.25C180.365 143.403 180.423 143.525 180.54 143.615C180.657 143.702 180.82 143.745 181.03 143.745ZM186.795 141.37V144H183.165V141.37H183.52V143.69H184.81V141.37H185.165V143.69H186.44V141.37H186.795ZM191.477 141.37V144H191.122V141.685H189.472V144H189.117V141.37H191.477ZM193.391 141.35C193.735 141.35 193.998 141.437 194.181 141.61C194.365 141.78 194.456 142.033 194.456 142.37V144H194.116V143.59C194.036 143.727 193.918 143.833 193.761 143.91C193.608 143.987 193.425 144.025 193.211 144.025C192.918 144.025 192.685 143.955 192.511 143.815C192.338 143.675 192.251 143.49 192.251 143.26C192.251 143.037 192.331 142.857 192.491 142.72C192.655 142.583 192.913 142.515 193.266 142.515H194.101V142.355C194.101 142.128 194.038 141.957 193.911 141.84C193.785 141.72 193.6 141.66 193.356 141.66C193.19 141.66 193.03 141.688 192.876 141.745C192.723 141.798 192.591 141.873 192.481 141.97L192.321 141.705C192.455 141.592 192.615 141.505 192.801 141.445C192.988 141.382 193.185 141.35 193.391 141.35ZM193.266 143.745C193.466 143.745 193.638 143.7 193.781 143.61C193.925 143.517 194.031 143.383 194.101 143.21V142.78H193.276C192.826 142.78 192.601 142.937 192.601 143.25C192.601 143.403 192.66 143.525 192.776 143.615C192.893 143.702 193.056 143.745 193.266 143.745ZM196.756 141.35C197.003 141.35 197.226 141.407 197.426 141.52C197.626 141.63 197.783 141.787 197.896 141.99C198.01 142.193 198.066 142.425 198.066 142.685C198.066 142.948 198.01 143.182 197.896 143.385C197.783 143.588 197.626 143.747 197.426 143.86C197.23 143.97 197.006 144.025 196.756 144.025C196.543 144.025 196.35 143.982 196.176 143.895C196.006 143.805 195.866 143.675 195.756 143.505V144.97H195.401V141.37H195.741V141.89C195.848 141.717 195.988 141.583 196.161 141.49C196.338 141.397 196.536 141.35 196.756 141.35ZM196.731 143.71C196.915 143.71 197.081 143.668 197.231 143.585C197.381 143.498 197.498 143.377 197.581 143.22C197.668 143.063 197.711 142.885 197.711 142.685C197.711 142.485 197.668 142.308 197.581 142.155C197.498 141.998 197.381 141.877 197.231 141.79C197.081 141.703 196.915 141.66 196.731 141.66C196.545 141.66 196.376 141.703 196.226 141.79C196.08 141.877 195.963 141.998 195.876 142.155C195.793 142.308 195.751 142.485 195.751 142.685C195.751 142.885 195.793 143.063 195.876 143.22C195.963 143.377 196.08 143.498 196.226 143.585C196.376 143.668 196.545 143.71 196.731 143.71ZM199.914 144.025C199.661 144.025 199.433 143.968 199.229 143.855C199.026 143.738 198.866 143.578 198.749 143.375C198.633 143.172 198.574 142.942 198.574 142.685C198.574 142.428 198.633 142.198 198.749 141.995C198.866 141.792 199.026 141.633 199.229 141.52C199.433 141.407 199.661 141.35 199.914 141.35C200.168 141.35 200.396 141.407 200.599 141.52C200.803 141.633 200.961 141.792 201.074 141.995C201.191 142.198 201.249 142.428 201.249 142.685C201.249 142.942 201.191 143.172 201.074 143.375C200.961 143.578 200.803 143.738 200.599 143.855C200.396 143.968 200.168 144.025 199.914 144.025ZM199.914 143.71C200.101 143.71 200.268 143.668 200.414 143.585C200.564 143.498 200.681 143.377 200.764 143.22C200.848 143.063 200.889 142.885 200.889 142.685C200.889 142.485 200.848 142.307 200.764 142.15C200.681 141.993 200.564 141.873 200.414 141.79C200.268 141.703 200.101 141.66 199.914 141.66C199.728 141.66 199.559 141.703 199.409 141.79C199.263 141.873 199.146 141.993 199.059 142.15C198.976 142.307 198.934 142.485 198.934 142.685C198.934 142.885 198.976 143.063 199.059 143.22C199.146 143.377 199.263 143.498 199.409 143.585C199.559 143.668 199.728 143.71 199.914 143.71ZM204.143 141.37V144H203.788V141.685H202.528L202.493 142.335C202.467 142.882 202.403 143.302 202.303 143.595C202.203 143.888 202.025 144.035 201.768 144.035C201.698 144.035 201.613 144.022 201.513 143.995L201.538 143.69C201.598 143.703 201.64 143.71 201.663 143.71C201.8 143.71 201.903 143.647 201.973 143.52C202.043 143.393 202.09 143.237 202.113 143.05C202.137 142.863 202.157 142.617 202.173 142.31L202.218 141.37H204.143ZM206.282 142.3C206.612 142.303 206.862 142.377 207.032 142.52C207.206 142.663 207.292 142.87 207.292 143.14C207.292 143.42 207.199 143.635 207.012 143.785C206.829 143.935 206.562 144.008 206.212 144.005L205.152 144V141.37H205.507V142.29L206.282 142.3ZM206.192 143.735C206.436 143.738 206.619 143.69 206.742 143.59C206.869 143.487 206.932 143.337 206.932 143.14C206.932 142.947 206.871 142.803 206.747 142.71C206.624 142.617 206.439 142.568 206.192 142.565L205.507 142.555V143.725L206.192 143.735Z" fill="#373943"/>
<path d="M169.535 170.5V174H169.17V170.82H166.955V174H166.59V170.5H169.535ZM171.716 174.025C171.463 174.025 171.234 173.968 171.031 173.855C170.828 173.738 170.668 173.578 170.551 173.375C170.434 173.172 170.376 172.942 170.376 172.685C170.376 172.428 170.434 172.198 170.551 171.995C170.668 171.792 170.828 171.633 171.031 171.52C171.234 171.407 171.463 171.35 171.716 171.35C171.969 171.35 172.198 171.407 172.401 171.52C172.604 171.633 172.763 171.792 172.876 171.995C172.993 172.198 173.051 172.428 173.051 172.685C173.051 172.942 172.993 173.172 172.876 173.375C172.763 173.578 172.604 173.738 172.401 173.855C172.198 173.968 171.969 174.025 171.716 174.025ZM171.716 173.71C171.903 173.71 172.069 173.668 172.216 173.585C172.366 173.498 172.483 173.377 172.566 173.22C172.649 173.063 172.691 172.885 172.691 172.685C172.691 172.485 172.649 172.307 172.566 172.15C172.483 171.993 172.366 171.873 172.216 171.79C172.069 171.703 171.903 171.66 171.716 171.66C171.529 171.66 171.361 171.703 171.211 171.79C171.064 171.873 170.948 171.993 170.861 172.15C170.778 172.307 170.736 172.485 170.736 172.685C170.736 172.885 170.778 173.063 170.861 173.22C170.948 173.377 171.064 173.498 171.211 173.585C171.361 173.668 171.529 173.71 171.716 173.71ZM175.485 172.64C175.841 172.723 176.02 172.938 176.02 173.285C176.02 173.515 175.935 173.692 175.765 173.815C175.595 173.938 175.341 174 175.005 174H173.81V171.37H174.97C175.27 171.37 175.505 171.428 175.675 171.545C175.845 171.662 175.93 171.828 175.93 172.045C175.93 172.188 175.89 172.312 175.81 172.415C175.733 172.515 175.625 172.59 175.485 172.64ZM174.155 172.54H174.945C175.148 172.54 175.303 172.502 175.41 172.425C175.52 172.348 175.575 172.237 175.575 172.09C175.575 171.943 175.52 171.833 175.41 171.76C175.303 171.687 175.148 171.65 174.945 171.65H174.155V172.54ZM174.99 173.72C175.216 173.72 175.386 173.683 175.5 173.61C175.613 173.537 175.67 173.422 175.67 173.265C175.67 173.108 175.618 172.993 175.515 172.92C175.411 172.843 175.248 172.805 175.025 172.805H174.155V173.72H174.99ZM178.702 171.685H177.707V174H177.352V171.685H176.357V171.37H178.702V171.685ZM180.178 174.025C179.925 174.025 179.696 173.968 179.493 173.855C179.29 173.738 179.13 173.578 179.013 173.375C178.896 173.172 178.838 172.942 178.838 172.685C178.838 172.428 178.896 172.198 179.013 171.995C179.13 171.792 179.29 171.633 179.493 171.52C179.696 171.407 179.925 171.35 180.178 171.35C180.431 171.35 180.66 171.407 180.863 171.52C181.066 171.633 181.225 171.792 181.338 171.995C181.455 172.198 181.513 172.428 181.513 172.685C181.513 172.942 181.455 173.172 181.338 173.375C181.225 173.578 181.066 173.738 180.863 173.855C180.66 173.968 180.431 174.025 180.178 174.025ZM180.178 173.71C180.365 173.71 180.531 173.668 180.678 173.585C180.828 173.498 180.945 173.377 181.028 173.22C181.111 173.063 181.153 172.885 181.153 172.685C181.153 172.485 181.111 172.307 181.028 172.15C180.945 171.993 180.828 171.873 180.678 171.79C180.531 171.703 180.365 171.66 180.178 171.66C179.991 171.66 179.823 171.703 179.673 171.79C179.526 171.873 179.41 171.993 179.323 172.15C179.24 172.307 179.198 172.485 179.198 172.685C179.198 172.885 179.24 173.063 179.323 173.22C179.41 173.377 179.526 173.498 179.673 173.585C179.823 173.668 179.991 173.71 180.178 173.71ZM183.627 171.35C183.873 171.35 184.097 171.407 184.297 171.52C184.497 171.63 184.653 171.787 184.767 171.99C184.88 172.193 184.937 172.425 184.937 172.685C184.937 172.948 184.88 173.182 184.767 173.385C184.653 173.588 184.497 173.747 184.297 173.86C184.1 173.97 183.877 174.025 183.627 174.025C183.413 174.025 183.22 173.982 183.047 173.895C182.877 173.805 182.737 173.675 182.627 173.505V174.97H182.272V171.37H182.612V171.89C182.718 171.717 182.858 171.583 183.032 171.49C183.208 171.397 183.407 171.35 183.627 171.35ZM183.602 173.71C183.785 173.71 183.952 173.668 184.102 173.585C184.252 173.498 184.368 173.377 184.452 173.22C184.538 173.063 184.582 172.885 184.582 172.685C184.582 172.485 184.538 172.308 184.452 172.155C184.368 171.998 184.252 171.877 184.102 171.79C183.952 171.703 183.785 171.66 183.602 171.66C183.415 171.66 183.247 171.703 183.097 171.79C182.95 171.877 182.833 171.998 182.747 172.155C182.663 172.308 182.622 172.485 182.622 172.685C182.622 172.885 182.663 173.063 182.747 173.22C182.833 173.377 182.95 173.498 183.097 173.585C183.247 173.668 183.415 173.71 183.602 173.71ZM185.699 171.37H186.054V173.46L187.809 171.37H188.124V174H187.769V171.91L186.019 174H185.699V171.37ZM190.992 171.685H189.997V174H189.642V171.685H188.647V171.37H190.992V171.685ZM193.683 172.795H191.483C191.503 173.068 191.608 173.29 191.798 173.46C191.988 173.627 192.228 173.71 192.518 173.71C192.681 173.71 192.831 173.682 192.968 173.625C193.105 173.565 193.223 173.478 193.323 173.365L193.523 173.595C193.406 173.735 193.26 173.842 193.083 173.915C192.91 173.988 192.718 174.025 192.508 174.025C192.238 174.025 191.998 173.968 191.788 173.855C191.581 173.738 191.42 173.578 191.303 173.375C191.186 173.172 191.128 172.942 191.128 172.685C191.128 172.428 191.183 172.198 191.293 171.995C191.406 171.792 191.56 171.633 191.753 171.52C191.95 171.407 192.17 171.35 192.413 171.35C192.656 171.35 192.875 171.407 193.068 171.52C193.261 171.633 193.413 171.792 193.523 171.995C193.633 172.195 193.688 172.425 193.688 172.685L193.683 172.795ZM192.413 171.655C192.16 171.655 191.946 171.737 191.773 171.9C191.603 172.06 191.506 172.27 191.483 172.53H193.348C193.325 172.27 193.226 172.06 193.053 171.9C192.883 171.737 192.67 171.655 192.413 171.655ZM198.142 171.37V174H197.787V171.685H196.137V174H195.782V171.37H198.142ZM200.056 171.35C200.4 171.35 200.663 171.437 200.846 171.61C201.03 171.78 201.121 172.033 201.121 172.37V174H200.781V173.59C200.701 173.727 200.583 173.833 200.426 173.91C200.273 173.987 200.09 174.025 199.876 174.025C199.583 174.025 199.35 173.955 199.176 173.815C199.003 173.675 198.916 173.49 198.916 173.26C198.916 173.037 198.996 172.857 199.156 172.72C199.32 172.583 199.578 172.515 199.931 172.515H200.766V172.355C200.766 172.128 200.703 171.957 200.576 171.84C200.45 171.72 200.265 171.66 200.021 171.66C199.855 171.66 199.695 171.688 199.541 171.745C199.388 171.798 199.256 171.873 199.146 171.97L198.986 171.705C199.12 171.592 199.28 171.505 199.466 171.445C199.653 171.382 199.85 171.35 200.056 171.35ZM199.931 173.745C200.131 173.745 200.303 173.7 200.446 173.61C200.59 173.517 200.696 173.383 200.766 173.21V172.78H199.941C199.491 172.78 199.266 172.937 199.266 173.25C199.266 173.403 199.325 173.525 199.441 173.615C199.558 173.702 199.721 173.745 199.931 173.745ZM203.422 171.35C203.668 171.35 203.892 171.407 204.092 171.52C204.292 171.63 204.448 171.787 204.562 171.99C204.675 172.193 204.732 172.425 204.732 172.685C204.732 172.948 204.675 173.182 204.562 173.385C204.448 173.588 204.292 173.747 204.092 173.86C203.895 173.97 203.672 174.025 203.422 174.025C203.208 174.025 203.015 173.982 202.842 173.895C202.672 173.805 202.532 173.675 202.422 173.505V174.97H202.067V171.37H202.407V171.89C202.513 171.717 202.653 171.583 202.827 171.49C203.003 171.397 203.202 171.35 203.422 171.35ZM203.397 173.71C203.58 173.71 203.747 173.668 203.897 173.585C204.047 173.498 204.163 173.377 204.247 173.22C204.333 173.063 204.377 172.885 204.377 172.685C204.377 172.485 204.333 172.308 204.247 172.155C204.163 171.998 204.047 171.877 203.897 171.79C203.747 171.703 203.58 171.66 203.397 171.66C203.21 171.66 203.042 171.703 202.892 171.79C202.745 171.877 202.628 171.998 202.542 172.155C202.458 172.308 202.417 172.485 202.417 172.685C202.417 172.885 202.458 173.063 202.542 173.22C202.628 173.377 202.745 173.498 202.892 173.585C203.042 173.668 203.21 173.71 203.397 173.71ZM206.579 174.025C206.326 174.025 206.098 173.968 205.894 173.855C205.691 173.738 205.531 173.578 205.414 173.375C205.298 173.172 205.239 172.942 205.239 172.685C205.239 172.428 205.298 172.198 205.414 171.995C205.531 171.792 205.691 171.633 205.894 171.52C206.098 171.407 206.326 171.35 206.579 171.35C206.833 171.35 207.061 171.407 207.264 171.52C207.468 171.633 207.626 171.792 207.739 171.995C207.856 172.198 207.914 172.428 207.914 172.685C207.914 172.942 207.856 173.172 207.739 173.375C207.626 173.578 207.468 173.738 207.264 173.855C207.061 173.968 206.833 174.025 206.579 174.025ZM206.579 173.71C206.766 173.71 206.933 173.668 207.079 173.585C207.229 173.498 207.346 173.377 207.429 173.22C207.513 173.063 207.554 172.885 207.554 172.685C207.554 172.485 207.513 172.307 207.429 172.15C207.346 171.993 207.229 171.873 207.079 171.79C206.933 171.703 206.766 171.66 206.579 171.66C206.393 171.66 206.224 171.703 206.074 171.79C205.928 171.873 205.811 171.993 205.724 172.15C205.641 172.307 205.599 172.485 205.599 172.685C205.599 172.885 205.641 173.063 205.724 173.22C205.811 173.377 205.928 173.498 206.074 173.585C206.224 173.668 206.393 173.71 206.579 173.71ZM210.808 171.37V174H210.453V171.685H209.193L209.158 172.335C209.132 172.882 209.068 173.302 208.968 173.595C208.868 173.888 208.69 174.035 208.433 174.035C208.363 174.035 208.278 174.022 208.178 173.995L208.203 173.69C208.263 173.703 208.305 173.71 208.328 173.71C208.465 173.71 208.568 173.647 208.638 173.52C208.708 173.393 208.755 173.237 208.778 173.05C208.802 172.863 208.822 172.617 208.838 172.31L208.883 171.37H210.808ZM212.948 172.3C213.278 172.303 213.528 172.377 213.698 172.52C213.871 172.663 213.958 172.87 213.958 173.14C213.958 173.42 213.864 173.635 213.678 173.785C213.494 173.935 213.228 174.008 212.878 174.005L211.818 174V171.37H212.173V172.29L212.948 172.3ZM212.858 173.735C213.101 173.738 213.284 173.69 213.408 173.59C213.534 173.487 213.598 173.337 213.598 173.14C213.598 172.947 213.536 172.803 213.413 172.71C213.289 172.617 213.104 172.568 212.858 172.565L212.173 172.555V173.725L212.858 173.735Z" fill="#373943"/>
<g filter="url(#filter1_d)">
<rect x="171" y="236" width="40" height="40" rx="8" fill="#3E54D8"/>
</g>
<g filter="url(#filter2_d)">
<rect x="147" y="193" width="89" height="21" rx="8" fill="#3E54D8"/>
</g>
<path opacity="0.9" d="M187.135 263.24C185.975 263.24 184.942 262.953 184.035 262.38C183.129 261.807 182.415 260.98 181.895 259.9C181.389 258.807 181.135 257.507 181.135 256C181.135 254.493 181.389 253.2 181.895 252.12C182.415 251.027 183.129 250.193 184.035 249.62C184.942 249.047 185.975 248.76 187.135 248.76C188.295 248.76 189.329 249.047 190.235 249.62C191.142 250.193 191.849 251.027 192.355 252.12C192.875 253.2 193.135 254.493 193.135 256C193.135 257.507 192.875 258.807 192.355 259.9C191.849 260.98 191.142 261.807 190.235 262.38C189.329 262.953 188.295 263.24 187.135 263.24ZM187.135 260.5C187.989 260.5 188.655 260.133 189.135 259.4C189.629 258.667 189.875 257.533 189.875 256C189.875 254.467 189.629 253.333 189.135 252.6C188.655 251.867 187.989 251.5 187.135 251.5C186.295 251.5 185.629 251.867 185.135 252.6C184.655 253.333 184.415 254.467 184.415 256C184.415 257.533 184.655 258.667 185.135 259.4C185.629 260.133 186.295 260.5 187.135 260.5ZM199.993 249V263H196.752V251.6H193.953V249H199.993Z" fill="white"/>
<g opacity="0.9">
<path d="M161.488 60.281C162.021 59.852 162.346 59.241 162.346 58.461C162.346 56.94 161.111 55.9 159.577 55.9H155.989V65H159.85C161.423 65 162.684 63.921 162.684 62.361C162.684 61.412 162.216 60.697 161.488 60.281ZM159.577 57.577C160.149 57.577 160.552 58.006 160.552 58.578C160.552 59.15 160.136 59.579 159.577 59.579H157.783V57.577H159.577ZM159.85 63.323H157.783V61.178H159.85C160.461 61.178 160.903 61.633 160.903 62.244C160.903 62.868 160.461 63.323 159.85 63.323ZM165.3 62.439H170.201C170.24 62.218 170.266 61.997 170.266 61.75C170.266 59.839 168.901 58.318 166.977 58.318C164.936 58.318 163.545 59.813 163.545 61.75C163.545 63.687 164.923 65.182 167.107 65.182C168.355 65.182 169.33 64.675 169.941 63.791L168.589 63.011C168.303 63.388 167.783 63.661 167.133 63.661C166.249 63.661 165.534 63.297 165.3 62.439ZM165.274 61.139C165.469 60.307 166.08 59.826 166.977 59.826C167.679 59.826 168.381 60.203 168.589 61.139H165.274ZM176.326 58.5V59.267C175.858 58.682 175.156 58.318 174.207 58.318C172.478 58.318 171.048 59.813 171.048 61.75C171.048 63.687 172.478 65.182 174.207 65.182C175.156 65.182 175.858 64.818 176.326 64.233V65H178.003V58.5H176.326ZM174.519 63.583C173.492 63.583 172.725 62.842 172.725 61.75C172.725 60.658 173.492 59.917 174.519 59.917C175.559 59.917 176.326 60.658 176.326 61.75C176.326 62.842 175.559 63.583 174.519 63.583ZM183.242 60.112V58.5H181.773V56.68L180.096 57.187V58.5H178.965V60.112H180.096V62.816C180.096 64.571 180.889 65.26 183.242 65V63.479C182.28 63.531 181.773 63.518 181.773 62.816V60.112H183.242Z" fill="#3E54D8"/>
<path d="M193.509 55.9H191.663L189.063 60.203L186.45 55.9H184.604V65H186.398V59.111L188.959 63.323H189.167L191.728 59.098V65H193.509V55.9ZM200.066 58.5V59.267C199.598 58.682 198.896 58.318 197.947 58.318C196.218 58.318 194.788 59.813 194.788 61.75C194.788 63.687 196.218 65.182 197.947 65.182C198.896 65.182 199.598 64.818 200.066 64.233V65H201.743V58.5H200.066ZM198.259 63.583C197.232 63.583 196.465 62.842 196.465 61.75C196.465 60.658 197.232 59.917 198.259 59.917C199.299 59.917 200.066 60.658 200.066 61.75C200.066 62.842 199.299 63.583 198.259 63.583ZM204.941 59.618V58.5H203.264V65H204.941V61.893C204.941 60.528 206.046 60.138 206.917 60.242V58.37C206.098 58.37 205.279 58.734 204.941 59.618ZM213.891 65L211.2 61.711L213.813 58.5H211.811L209.575 61.36V55.9H207.898V65H209.575V62.049L211.941 65H213.891ZM215.675 62.439H220.576C220.615 62.218 220.641 61.997 220.641 61.75C220.641 59.839 219.276 58.318 217.352 58.318C215.311 58.318 213.92 59.813 213.92 61.75C213.92 63.687 215.298 65.182 217.482 65.182C218.73 65.182 219.705 64.675 220.316 63.791L218.964 63.011C218.678 63.388 218.158 63.661 217.508 63.661C216.624 63.661 215.909 63.297 215.675 62.439ZM215.649 61.139C215.844 60.307 216.455 59.826 217.352 59.826C218.054 59.826 218.756 60.203 218.964 61.139H215.649ZM225.339 60.112V58.5H223.87V56.68L222.193 57.187V58.5H221.062V60.112H222.193V62.816C222.193 64.571 222.986 65.26 225.339 65V63.479C224.377 63.531 223.87 63.518 223.87 62.816V60.112H225.339Z" fill="#ED6373"/>
</g>
<rect x="132.25" y="101.25" width="118.5" height="22.5" rx="5.75" stroke="#EAF1FE" stroke-width="0.5"/>
<rect x="132.25" y="131.25" width="118.5" height="22.5" rx="5.75" stroke="#EAF1FE" stroke-width="0.5"/>
<rect x="132.25" y="161.25" width="118.5" height="22.5" rx="5.75" stroke="#EAF1FE" stroke-width="0.5"/>
<path d="M175.93 201.5C176.233 201.5 176.497 201.55 176.72 201.65C176.947 201.75 177.12 201.893 177.24 202.08C177.36 202.267 177.42 202.488 177.42 202.745C177.42 202.998 177.36 203.22 177.24 203.41C177.12 203.597 176.947 203.74 176.72 203.84C176.497 203.94 176.233 203.99 175.93 203.99H175.14V205H174.49V201.5H175.93ZM175.9 203.44C176.183 203.44 176.398 203.38 176.545 203.26C176.692 203.14 176.765 202.968 176.765 202.745C176.765 202.522 176.692 202.35 176.545 202.23C176.398 202.11 176.183 202.05 175.9 202.05H175.14V203.44H175.9ZM180.455 203.68C180.455 203.723 180.452 203.785 180.445 203.865H178.35C178.387 204.062 178.482 204.218 178.635 204.335C178.792 204.448 178.985 204.505 179.215 204.505C179.508 204.505 179.75 204.408 179.94 204.215L180.275 204.6C180.155 204.743 180.003 204.852 179.82 204.925C179.637 204.998 179.43 205.035 179.2 205.035C178.907 205.035 178.648 204.977 178.425 204.86C178.202 204.743 178.028 204.582 177.905 204.375C177.785 204.165 177.725 203.928 177.725 203.665C177.725 203.405 177.783 203.172 177.9 202.965C178.02 202.755 178.185 202.592 178.395 202.475C178.605 202.358 178.842 202.3 179.105 202.3C179.365 202.3 179.597 202.358 179.8 202.475C180.007 202.588 180.167 202.75 180.28 202.96C180.397 203.167 180.455 203.407 180.455 203.68ZM179.105 202.8C178.905 202.8 178.735 202.86 178.595 202.98C178.458 203.097 178.375 203.253 178.345 203.45H179.86C179.833 203.257 179.752 203.1 179.615 202.98C179.478 202.86 179.308 202.8 179.105 202.8ZM183.189 202.86H181.764V205H181.139V202.33H183.189V202.86ZM183.644 202.33H184.269V204.09L185.744 202.33H186.314V205H185.689V203.24L184.219 205H183.644V202.33ZM188.369 205.035C188.093 205.035 187.844 204.977 187.624 204.86C187.404 204.743 187.233 204.582 187.109 204.375C186.986 204.165 186.924 203.928 186.924 203.665C186.924 203.402 186.986 203.167 187.109 202.96C187.233 202.753 187.403 202.592 187.619 202.475C187.839 202.358 188.089 202.3 188.369 202.3C188.633 202.3 188.863 202.353 189.059 202.46C189.259 202.567 189.409 202.72 189.509 202.92L189.029 203.2C188.953 203.077 188.856 202.985 188.739 202.925C188.626 202.862 188.501 202.83 188.364 202.83C188.131 202.83 187.938 202.907 187.784 203.06C187.631 203.21 187.554 203.412 187.554 203.665C187.554 203.918 187.629 204.122 187.779 204.275C187.933 204.425 188.128 204.5 188.364 204.5C188.501 204.5 188.626 204.47 188.739 204.41C188.856 204.347 188.953 204.253 189.029 204.13L189.509 204.41C189.406 204.61 189.254 204.765 189.054 204.875C188.858 204.982 188.629 205.035 188.369 205.035ZM192.15 202.86H191.215V205H190.59V202.86H189.65V202.33H192.15V202.86ZM194.084 202.3C194.344 202.3 194.575 202.357 194.779 202.47C194.985 202.583 195.147 202.743 195.264 202.95C195.38 203.157 195.439 203.395 195.439 203.665C195.439 203.935 195.38 204.175 195.264 204.385C195.147 204.592 194.985 204.752 194.779 204.865C194.575 204.978 194.344 205.035 194.084 205.035C193.724 205.035 193.439 204.915 193.229 204.675V205.97H192.604V202.33H193.199V202.68C193.302 202.553 193.429 202.458 193.579 202.395C193.732 202.332 193.9 202.3 194.084 202.3ZM194.014 204.5C194.244 204.5 194.432 204.423 194.579 204.27C194.729 204.117 194.804 203.915 194.804 203.665C194.804 203.415 194.729 203.213 194.579 203.06C194.432 202.907 194.244 202.83 194.014 202.83C193.864 202.83 193.729 202.865 193.609 202.935C193.489 203.002 193.394 203.098 193.324 203.225C193.254 203.352 193.219 203.498 193.219 203.665C193.219 203.832 193.254 203.978 193.324 204.105C193.394 204.232 193.489 204.33 193.609 204.4C193.729 204.467 193.864 204.5 194.014 204.5ZM197.021 202.3C197.415 202.3 197.715 202.395 197.921 202.585C198.131 202.772 198.236 203.055 198.236 203.435V205H197.646V204.675C197.57 204.792 197.46 204.882 197.316 204.945C197.176 205.005 197.006 205.035 196.806 205.035C196.606 205.035 196.431 205.002 196.281 204.935C196.131 204.865 196.015 204.77 195.931 204.65C195.851 204.527 195.811 204.388 195.811 204.235C195.811 203.995 195.9 203.803 196.076 203.66C196.256 203.513 196.538 203.44 196.921 203.44H197.611V203.4C197.611 203.213 197.555 203.07 197.441 202.97C197.331 202.87 197.166 202.82 196.946 202.82C196.796 202.82 196.648 202.843 196.501 202.89C196.358 202.937 196.236 203.002 196.136 203.085L195.891 202.63C196.031 202.523 196.2 202.442 196.396 202.385C196.593 202.328 196.801 202.3 197.021 202.3ZM196.936 204.58C197.093 204.58 197.231 204.545 197.351 204.475C197.475 204.402 197.561 204.298 197.611 204.165V203.855H196.966C196.606 203.855 196.426 203.973 196.426 204.21C196.426 204.323 196.471 204.413 196.561 204.48C196.651 204.547 196.776 204.58 196.936 204.58ZM201.94 204.47V205.615H201.355V205H199.01V202.33H199.635V204.47H200.91V202.33H201.535V204.47H201.94ZM202.496 202.33H203.121V204.09L204.596 202.33H205.166V205H204.541V203.24L203.071 205H202.496V202.33ZM208.262 202.33V205H207.702V204.195H206.997L206.452 205H205.782L206.412 204.11C206.219 204.043 206.07 203.942 205.967 203.805C205.867 203.665 205.817 203.493 205.817 203.29C205.817 202.983 205.925 202.747 206.142 202.58C206.359 202.413 206.657 202.33 207.037 202.33H208.262ZM207.057 202.855C206.654 202.855 206.452 203.007 206.452 203.31C206.452 203.61 206.647 203.76 207.037 203.76H207.702V202.855H207.057Z" fill="white"/>
<defs>
<filter id="filter0_d" x="0" y="0" width="384" height="374" filterUnits="userSpaceOnUse" color-interpolation-filters="sRGB">
<feFlood flood-opacity="0" result="BackgroundImageFix"/>
<feColorMatrix in="SourceAlpha" type="matrix" values="0 0 0 0 0 0 0 0 0 0 0 0 0 0 0 0 0 0 127 0"/>
<feMorphology radius="17" operator="erode" in="SourceAlpha" result="effect1_dropShadow"/>
<feOffset dy="44"/>
<feGaussianBlur stdDeviation="44.5"/>
<feColorMatrix type="matrix" values="0 0 0 0 0.243137 0 0 0 0 0.329412 0 0 0 0 0.847059 0 0 0 0.06 0"/>
<feBlend mode="normal" in2="BackgroundImageFix" result="effect1_dropShadow"/>
<feBlend mode="normal" in="SourceGraphic" in2="effect1_dropShadow" result="shape"/>
</filter>
<filter id="filter1_d" x="162" y="236" width="58" height="70" filterUnits="userSpaceOnUse" color-interpolation-filters="sRGB">
<feFlood flood-opacity="0" result="BackgroundImageFix"/>
<feColorMatrix in="SourceAlpha" type="matrix" values="0 0 0 0 0 0 0 0 0 0 0 0 0 0 0 0 0 0 127 0"/>
<feMorphology radius="13" operator="erode" in="SourceAlpha" result="effect1_dropShadow"/>
<feOffset dy="21"/>
<feGaussianBlur stdDeviation="11"/>
<feColorMatrix type="matrix" values="0 0 0 0 0.243137 0 0 0 0 0.329412 0 0 0 0 0.847059 0 0 0 0.51 0"/>
<feBlend mode="normal" in2="BackgroundImageFix" result="effect1_dropShadow"/>
<feBlend mode="normal" in="SourceGraphic" in2="effect1_dropShadow" result="shape"/>
</filter>
<filter id="filter2_d" x="138" y="193" width="107" height="51" filterUnits="userSpaceOnUse" color-interpolation-filters="sRGB">
<feFlood flood-opacity="0" result="BackgroundImageFix"/>
<feColorMatrix in="SourceAlpha" type="matrix" values="0 0 0 0 0 0 0 0 0 0 0 0 0 0 0 0 0 0 127 0"/>
<feMorphology radius="13" operator="erode" in="SourceAlpha" result="effect1_dropShadow"/>
<feOffset dy="21"/>
<feGaussianBlur stdDeviation="11"/>
<feColorMatrix type="matrix" values="0 0 0 0 0.243137 0 0 0 0 0.329412 0 0 0 0 0.847059 0 0 0 0.51 0"/>
<feBlend mode="normal" in2="BackgroundImageFix" result="effect1_dropShadow"/>
<feBlend mode="normal" in="SourceGraphic" in2="effect1_dropShadow" result="shape"/>
</filter>
</defs>
</svg>
