<svg width="518" height="518" fill="none" xmlns="http://www.w3.org/2000/svg"><g filter="url(#filter0_d)"><g clip-path="url(#clip0)"><rect x="72" y="28" width="374" height="374" rx="36" fill="#fff"/><path d="M73.54 55.543h372.913v81.914H73.539V55.543zm-.997 244h372.914v82.914H72.543v-82.914z" fill="#F5F6FD" stroke="#D3E3FF" stroke-width="1.086"/><path d="M237.422 260.56c.72.173 1.262.482 1.627.928.376.436.563.999.563 1.689 0 .922-.339 1.637-1.019 2.144-.669.507-1.648.761-2.935.761h-4.867v-10.647h4.578c1.166 0 2.073.238 2.722.715.659.466.989 1.14.989 2.023 0 .578-.147 1.069-.441 1.475-.284.405-.69.71-1.217.912zm-5.126-.441h2.966c.74 0 1.303-.147 1.689-.441.395-.294.593-.725.593-1.293 0-.567-.198-.998-.593-1.292-.396-.305-.959-.457-1.689-.457h-2.966v3.483zm3.331 4.761c1.633 0 2.449-.608 2.449-1.825 0-.609-.208-1.055-.624-1.339-.405-.294-1.014-.441-1.825-.441h-3.331v3.605h3.331zm13.203-6.86v8.062h-1.46v-6.784h-3.468l-.091 1.795c-.051 1.085-.147 1.992-.289 2.722-.142.72-.375 1.298-.699 1.734-.325.436-.776.654-1.354.654-.264 0-.563-.045-.897-.137l.091-1.232c.132.031.253.046.365.046.405 0 .71-.177.912-.532.203-.355.335-.776.396-1.263a32.95 32.95 0 00.167-2.083l.137-2.982h6.19zm6.276 8.153c-.801 0-1.521-.178-2.16-.533a3.925 3.925 0 01-1.505-1.46c-.355-.628-.533-1.338-.533-2.129 0-.791.178-1.496.533-2.114a3.788 3.788 0 011.505-1.46c.639-.355 1.359-.533 2.16-.533.801 0 1.516.178 2.145.533a3.68 3.68 0 011.49 1.46c.365.618.548 1.323.548 2.114 0 .791-.183 1.501-.548 2.129a3.81 3.81 0 01-1.49 1.46c-.629.355-1.344.533-2.145.533zm0-1.278c.517 0 .979-.116 1.384-.35a2.58 2.58 0 00.974-1.003c.233-.436.349-.933.349-1.491s-.116-1.049-.349-1.475a2.449 2.449 0 00-.974-1.004 2.727 2.727 0 00-1.384-.35c-.517 0-.983.117-1.399.35a2.58 2.58 0 00-.974 1.004c-.233.426-.349.917-.349 1.475s.116 1.055.349 1.491c.244.425.568.76.974 1.003.416.234.882.35 1.399.35zm13.355-2.22h-1.567v3.407h-1.46v-3.407h-1.566l-2.221 3.407h-1.734l2.768-4.168-2.555-3.894h1.551l2.175 3.407h1.582v-3.407h1.46v3.407h1.582l2.175-3.407h1.567l-2.556 3.909 2.769 4.153h-1.734l-2.236-3.407zm12.594-.578c0 .111-.01.258-.03.441h-6.54c.091.709.4 1.282.928 1.718.537.426 1.201.639 1.992.639.963 0 1.739-.324 2.327-.973l.806.943c-.365.426-.821.75-1.369.973-.537.223-1.14.335-1.81.335-.851 0-1.607-.173-2.266-.517a3.845 3.845 0 01-1.536-1.476c-.355-.628-.532-1.338-.532-2.129 0-.781.172-1.485.517-2.114a3.763 3.763 0 011.445-1.46c.618-.355 1.313-.533 2.083-.533.771 0 1.455.178 2.054.533a3.56 3.56 0 011.414 1.46c.345.629.517 1.348.517 2.16zm-3.985-2.921c-.699 0-1.287.213-1.764.639-.466.426-.74.984-.821 1.673h5.171c-.081-.679-.36-1.232-.837-1.658-.466-.436-1.049-.654-1.749-.654zm6.25-1.156h1.461v3.423h4.593v-3.423h1.46v8.062h-1.46v-3.377h-4.593v3.377h-1.461v-8.062zm10.353 0h1.46v5.871l4.943-5.871h1.324v8.062h-1.461v-5.871l-4.927 5.871h-1.339v-8.062zm17.846 4.077c0 .111-.01.258-.03.441h-6.54c.091.709.4 1.282.927 1.718.538.426 1.202.639 1.993.639.963 0 1.739-.324 2.327-.973l.806.943c-.365.426-.821.75-1.369.973-.537.223-1.141.335-1.81.335-.852 0-1.607-.173-2.266-.517a3.845 3.845 0 01-1.536-1.476c-.355-.628-.533-1.338-.533-2.129 0-.781.173-1.485.518-2.114a3.76 3.76 0 011.444-1.46c.619-.355 1.314-.533 2.084-.533.771 0 1.455.178 2.053.533.609.344 1.08.831 1.415 1.46.345.629.517 1.348.517 2.16zm-3.985-2.921c-.7 0-1.288.213-1.764.639-.467.426-.74.984-.821 1.673h5.171c-.081-.679-.36-1.232-.837-1.658-.466-.436-1.049-.654-1.749-.654zm15.825 2.723c1.045.264 1.567.918 1.567 1.962 0 .71-.269 1.257-.806 1.643-.527.385-1.318.578-2.373.578h-3.878v-8.062h3.741c.954 0 1.699.183 2.236.548.538.355.806.862.806 1.521 0 .426-.116.796-.35 1.11-.223.304-.537.538-.943.7zm-4.06-.411h2.19c.557 0 .978-.101 1.262-.304.294-.203.441-.497.441-.882 0-.771-.568-1.156-1.703-1.156h-2.19v2.342zm2.342 3.468c.608 0 1.064-.096 1.369-.289.304-.193.456-.492.456-.897 0-.416-.142-.725-.426-.928-.274-.203-.71-.304-1.308-.304h-2.433v2.418h2.342zm13.762-6.662c.75 0 1.419.168 2.007.502a3.497 3.497 0 011.369 1.399c.335.589.502 1.263.502 2.023 0 .781-.177 1.476-.532 2.084a3.574 3.574 0 01-1.476 1.399c-.628.335-1.348.502-2.159.502-1.369 0-2.429-.466-3.179-1.399-.74-.943-1.11-2.266-1.11-3.97 0-1.653.339-2.945 1.019-3.878.679-.943 1.718-1.567 3.118-1.871l3.68-.821.213 1.338-3.392.73c-1.054.233-1.84.629-2.357 1.187-.517.557-.811 1.358-.882 2.403a3.555 3.555 0 011.338-1.202 3.939 3.939 0 011.841-.426zm-.259 6.692c.517 0 .973-.116 1.369-.349.406-.234.72-.553.943-.959.223-.415.335-.887.335-1.414 0-.801-.244-1.445-.731-1.932-.486-.486-1.125-.73-1.916-.73-.791 0-1.435.244-1.932.73-.486.487-.73 1.131-.73 1.932 0 .527.112.999.335 1.414.233.406.553.725.958.959a2.7 2.7 0 001.369.349zm13.194-6.966l-3.909 8.868c-.345.821-.75 1.399-1.217 1.734-.456.334-1.009.501-1.658.501-.395 0-.78-.065-1.156-.197a2.284 2.284 0 01-.912-.548l.623-1.095c.416.396.898.593 1.445.593.355 0 .649-.096.882-.289.244-.182.462-.502.655-.958l.258-.563-3.559-8.046h1.521l2.814 6.449 2.783-6.449h1.43zm9.262 6.784v3.148h-1.369v-1.87h-6.738v1.87h-1.384v-3.148h.426c.517-.03.872-.396 1.065-1.095.192-.7.324-1.688.395-2.966l.122-2.723h6.251v6.784h1.232zm-6.266-3.955c-.041 1.014-.127 1.856-.259 2.525-.122.659-.35 1.136-.684 1.43h4.517v-5.506h-3.498l-.076 1.551zm15.362-2.829l-3.909 8.868c-.344.821-.75 1.399-1.216 1.734-.457.334-1.009.501-1.658.501-.396 0-.781-.065-1.156-.197a2.294 2.294 0 01-.913-.548l.624-1.095c.416.396.897.593 1.445.593.355 0 .649-.096.882-.289.243-.182.461-.502.654-.958l.259-.563-3.56-8.046h1.521l2.814 6.449 2.784-6.449h1.429zm12.978 0v8.062h-11.483v-8.062h1.46v6.784h3.559v-6.784h1.461v6.784h3.543v-6.784h1.46zm1.202 6.784v2.996h-1.369v-1.718h-1.354v-1.278h2.723zm8.919-2.707c0 .111-.01.258-.03.441h-6.541c.092.709.401 1.282.928 1.718.538.426 1.202.639 1.993.639.963 0 1.739-.324 2.327-.973l.806.943c-.365.426-.821.75-1.369.973-.537.223-1.141.335-1.81.335-.852 0-1.607-.173-2.266-.517a3.845 3.845 0 01-1.536-1.476c-.355-.628-.533-1.338-.533-2.129 0-.781.173-1.485.517-2.114a3.77 3.77 0 011.445-1.46c.619-.355 1.313-.533 2.084-.533.771 0 1.455.178 2.053.533.609.344 1.08.831 1.415 1.46.345.629.517 1.348.517 2.16zm-3.985-2.921c-.7 0-1.288.213-1.764.639-.467.426-.74.984-.822 1.673h5.172c-.081-.679-.36-1.232-.837-1.658-.466-.436-1.049-.654-1.749-.654zm13.536 2.921c0 .111-.011.258-.031.441h-6.54c.091.709.401 1.282.928 1.718.537.426 1.201.639 1.992.639.964 0 1.739-.324 2.327-.973l.806.943c-.365.426-.821.75-1.368.973-.538.223-1.141.335-1.81.335-.852 0-1.607-.173-2.267-.517a3.845 3.845 0 01-1.536-1.476c-.355-.628-.532-1.338-.532-2.129 0-.781.172-1.485.517-2.114a3.77 3.77 0 011.445-1.46c.618-.355 1.313-.533 2.084-.533.77 0 1.455.178 2.053.533a3.56 3.56 0 011.414 1.46c.345.629.518 1.348.518 2.16zm-3.985-2.921c-.7 0-1.288.213-1.765.639-.466.426-.74.984-.821 1.673h5.171c-.081-.679-.36-1.232-.836-1.658-.467-.436-1.05-.654-1.749-.654z" fill="#929398"/><path d="M97.12 169.764c-.989 0-1.883-.216-2.683-.649a4.914 4.914 0 01-1.864-1.808c-.452-.772-.678-1.638-.678-2.599 0-.96.226-1.822.678-2.584a4.754 4.754 0 011.878-1.808c.8-.443 1.695-.664 2.683-.664.772 0 1.478.132 2.119.396a4.26 4.26 0 011.638 1.144l-.918.889c-.744-.781-1.671-1.172-2.782-1.172-.735 0-1.398.165-1.992.494a3.63 3.63 0 00-1.398 1.37 3.822 3.822 0 00-.494 1.935 3.9 3.9 0 00.494 1.949 3.643 3.643 0 001.398 1.356c.594.33 1.257.494 1.992.494 1.101 0 2.029-.395 2.782-1.186l.918.89a4.39 4.39 0 01-1.652 1.158c-.64.264-1.347.395-2.119.395zm10.863-6.412h-2.74v6.299h-1.356v-6.299h-2.74v-1.186h6.836v1.186zm4.261 6.384c-.744 0-1.412-.165-2.005-.494a3.654 3.654 0 01-1.399-1.356c-.329-.584-.494-1.243-.494-1.977 0-.735.165-1.389.494-1.963a3.516 3.516 0 011.399-1.356c.593-.33 1.261-.495 2.005-.495s1.408.165 1.991.495c.594.32 1.055.772 1.384 1.356.339.574.509 1.228.509 1.963 0 .734-.17 1.393-.509 1.977a3.546 3.546 0 01-1.384 1.356c-.583.329-1.247.494-1.991.494zm0-1.186c.48 0 .909-.109 1.285-.325a2.39 2.39 0 00.904-.932c.217-.405.325-.866.325-1.384 0-.518-.108-.975-.325-1.37a2.263 2.263 0 00-.904-.932 2.525 2.525 0 00-1.285-.325c-.48 0-.913.108-1.299.325a2.386 2.386 0 00-.904.932c-.217.395-.325.852-.325 1.37 0 .518.108.979.325 1.384.226.395.527.706.904.932.386.216.819.325 1.299.325zm5.842-6.384h1.356v5.452l4.59-5.452h1.228v7.485h-1.356V164.2l-4.575 5.451h-1.243v-7.485zm18.435 0v7.485h-1.228v-5.465l-2.797 4.618h-.593l-2.768-4.632v5.479h-1.243v-7.485h1.398l2.938 5.056 3.022-5.056h1.271zm5.845 7.57c-.744 0-1.412-.165-2.005-.494a3.654 3.654 0 01-1.399-1.356c-.329-.584-.494-1.243-.494-1.977 0-.735.165-1.389.494-1.963a3.516 3.516 0 011.399-1.356c.593-.33 1.261-.495 2.005-.495s1.408.165 1.992.495c.593.32 1.054.772 1.384 1.356.339.574.508 1.228.508 1.963 0 .734-.169 1.393-.508 1.977a3.56 3.56 0 01-1.384 1.356c-.584.329-1.248.494-1.992.494zm0-1.186c.48 0 .909-.109 1.285-.325a2.39 2.39 0 00.904-.932c.217-.405.325-.866.325-1.384 0-.518-.108-.975-.325-1.37a2.263 2.263 0 00-.904-.932 2.525 2.525 0 00-1.285-.325c-.48 0-.913.108-1.299.325a2.386 2.386 0 00-.904.932c-.217.395-.325.852-.325 1.37 0 .518.108.979.325 1.384.226.395.527.706.904.932.386.216.819.325 1.299.325zm9.104 1.186c-.762 0-1.445-.165-2.048-.494a3.658 3.658 0 01-1.398-1.356c-.339-.584-.508-1.243-.508-1.977 0-.735.169-1.389.508-1.963a3.52 3.52 0 011.398-1.356c.603-.33 1.286-.495 2.048-.495.678 0 1.281.137 1.808.41.537.273.951.669 1.243 1.186l-1.031.664a2.296 2.296 0 00-.876-.805 2.494 2.494 0 00-1.158-.268c-.489 0-.932.108-1.327.325a2.359 2.359 0 00-.918.932c-.217.395-.325.852-.325 1.37 0 .527.108.993.325 1.398.226.395.532.701.918.918.395.216.838.325 1.327.325.424 0 .81-.09 1.158-.269.349-.178.641-.447.876-.805l1.031.65a2.999 2.999 0 01-1.243 1.201c-.527.273-1.13.409-1.808.409zm10.288-6.384h-2.74v6.299h-1.355v-6.299h-2.74v-1.186h6.835v1.186zm4.847 1.356c.951.01 1.676.226 2.175.65.499.424.748 1.021.748 1.794 0 .809-.273 1.435-.819 1.878-.536.433-1.308.645-2.316.635l-3.248-.014v-7.485h1.356v2.528l2.104.014zm-.325 3.926c.612.01 1.073-.112 1.384-.367.32-.254.48-.631.48-1.13 0-.489-.155-.847-.466-1.073-.301-.226-.767-.344-1.398-.353l-1.779-.028v2.937l1.779.014zm70.479-.211v1.228h-7.104v-.96l4.025-3.884c.49-.471.82-.876.989-1.214.17-.349.254-.697.254-1.046 0-.517-.183-.918-.55-1.2-.358-.292-.876-.438-1.554-.438-1.092 0-1.935.358-2.528 1.073l-.96-.833c.386-.471.889-.838 1.511-1.101.631-.264 1.332-.396 2.104-.396 1.036 0 1.86.25 2.472.749.612.489.918 1.158.918 2.005 0 .527-.113 1.026-.339 1.497-.226.471-.655 1.008-1.286 1.61l-3.022 2.91h5.07zm9.501-1.201h-1.879v2.429h-1.37v-2.429h-5.494v-.988l5.056-6.469h1.526l-4.845 6.243h3.8v-2.147h1.327v2.147h1.879v1.214zm7.456-5.056v7.485h-1.356v-3.022c-.81.377-1.615.565-2.415.565-.932 0-1.653-.217-2.161-.65-.508-.433-.763-1.083-.763-1.949v-2.429h1.356v2.345c0 .517.16.908.48 1.172.33.263.787.395 1.37.395.659 0 1.37-.165 2.133-.494v-3.418h1.356zm2.929 7.57a.948.948 0 01-.678-.268.957.957 0 01-.283-.706c0-.273.094-.499.283-.678a.922.922 0 01.678-.283c.263 0 .484.09.663.269a.934.934 0 01.269.692.957.957 0 01-.283.706.883.883 0 01-.649.268zm8.207-4.661c-.688 0-1.243-.249-1.667-.748-.423-.499-.635-1.149-.635-1.949s.212-1.45.635-1.949c.424-.499.979-.749 1.667-.749.687 0 1.238.25 1.652.749.424.49.636 1.139.636 1.949s-.212 1.464-.636 1.963c-.414.49-.965.734-1.652.734zm5.96-5.31h1.087l-6.751 9.886h-1.087l6.751-9.886zm-5.96 4.505c.433 0 .772-.164 1.017-.494.244-.339.367-.805.367-1.398 0-.593-.123-1.055-.367-1.384-.245-.339-.584-.509-1.017-.509-.424 0-.763.17-1.017.509-.245.339-.367.8-.367 1.384 0 .584.122 1.045.367 1.384.254.339.593.508 1.017.508zm6.256 5.466c-.687 0-1.242-.245-1.666-.734-.414-.499-.622-1.154-.622-1.963 0-.81.208-1.46.622-1.949.424-.499.979-.749 1.666-.749.688 0 1.243.25 1.667.749.424.499.635 1.148.635 1.949 0 .8-.211 1.45-.635 1.949-.424.499-.979.748-1.667.748zm0-.805c.424 0 .758-.169 1.003-.508.254-.339.381-.801.381-1.384 0-.584-.127-1.046-.381-1.384a1.172 1.172 0 00-1.003-.509c-.433 0-.772.17-1.016.509-.245.329-.368.79-.368 1.384 0 .593.123 1.059.368 1.398.244.329.583.494 1.016.494zm83.238-9.166v.961l-3.997 8.925h-1.497l3.912-8.657h-4.52v1.765h-1.355v-2.994h7.457zm9.486 8.7v2.924h-1.272v-1.738h-6.256v1.738h-1.285v-2.924h.395c.48-.028.81-.367.989-1.017.179-.65.301-1.568.367-2.754l.113-2.528h5.805v6.299h1.144zm-5.819-3.672c-.038.942-.118 1.723-.24 2.344-.113.612-.325 1.055-.636 1.328h4.195v-5.113h-3.249l-.07 1.441zm7.881 4.943a.951.951 0 01-.678-.268.96.96 0 01-.282-.706c0-.273.094-.499.282-.678a.925.925 0 01.678-.283c.264 0 .485.09.664.269a.934.934 0 01.269.692.961.961 0 01-.283.706.884.884 0 01-.65.268zm8.208-4.661c-.688 0-1.243-.249-1.667-.748-.424-.499-.635-1.149-.635-1.949s.211-1.45.635-1.949c.424-.499.979-.749 1.667-.749.687 0 1.238.25 1.652.749.424.49.636 1.139.636 1.949s-.212 1.464-.636 1.963c-.414.49-.965.734-1.652.734zm5.96-5.31h1.087l-6.751 9.886h-1.087l6.751-9.886zm-5.96 4.505c.433 0 .772-.164 1.016-.494.245-.339.368-.805.368-1.398 0-.593-.123-1.055-.368-1.384-.244-.339-.583-.509-1.016-.509-.424 0-.763.17-1.017.509-.245.339-.367.8-.367 1.384 0 .584.122 1.045.367 1.384.254.339.593.508 1.017.508zm6.256 5.466c-.687 0-1.243-.245-1.666-.734-.415-.499-.622-1.154-.622-1.963 0-.81.207-1.46.622-1.949.423-.499.979-.749 1.666-.749.688 0 1.243.25 1.667.749.423.499.635 1.148.635 1.949 0 .8-.212 1.45-.635 1.949-.424.499-.979.748-1.667.748zm0-.805c.424 0 .758-.169 1.003-.508.254-.339.381-.801.381-1.384 0-.584-.127-1.046-.381-1.384a1.172 1.172 0 00-1.003-.509c-.433 0-.772.17-1.017.509-.244.329-.367.79-.367 1.384 0 .593.123 1.059.367 1.398.245.329.584.494 1.017.494z" fill="#606371"/><path d="M95.471 189.06c1.738 0 3.013.331 3.824.991.823.649 1.234 1.541 1.234 2.677 0 .719-.174 1.368-.521 1.947-.336.568-.852 1.02-1.547 1.356-.684.324-1.53.486-2.538.486a8.13 8.13 0 01-2.486-.382c-.8-.266-1.46-.631-1.981-1.095l.8-1.373c.416.394.95.712 1.598.956a6.047 6.047 0 002.052.347c.915 0 1.622-.191 2.12-.573.51-.394.765-.927.765-1.599 0-.73-.278-1.281-.834-1.652-.557-.382-1.507-.573-2.851-.573h-2.764l.643-6.362h6.866v1.512h-5.406l-.33 3.337h1.356zm13.944.939c.696.267 1.229.649 1.6 1.147.37.499.556 1.095.556 1.791 0 .73-.197 1.367-.591 1.912-.394.533-.956.944-1.686 1.234-.73.29-1.588.434-2.573.434-.973 0-1.825-.144-2.555-.434-.718-.29-1.275-.701-1.669-1.234-.394-.545-.591-1.182-.591-1.912 0-.696.18-1.292.539-1.791.371-.498.904-.88 1.599-1.147-.556-.266-.979-.62-1.269-1.06-.289-.441-.434-.962-.434-1.565 0-.672.179-1.257.539-1.755.371-.499.886-.881 1.547-1.148.66-.266 1.425-.399 2.294-.399.881 0 1.652.133 2.312.399.672.267 1.188.649 1.547 1.148.371.498.556 1.083.556 1.755 0 .591-.15 1.113-.452 1.565-.289.44-.712.794-1.269 1.06zm-2.694-4.519c-.823 0-1.472.179-1.947.539-.475.347-.712.822-.712 1.425 0 .602.231 1.078.695 1.425.475.348 1.13.522 1.964.522.846 0 1.507-.174 1.982-.522.487-.347.73-.823.73-1.425 0-.603-.249-1.078-.748-1.425-.486-.36-1.141-.539-1.964-.539zm0 9.63c.962 0 1.721-.197 2.277-.591.557-.406.835-.951.835-1.634 0-.673-.278-1.2-.835-1.582-.556-.394-1.315-.591-2.277-.591-.962 0-1.715.197-2.26.591-.544.382-.816.909-.816 1.582 0 .683.272 1.228.816 1.634.545.394 1.298.591 2.26.591zm13.881-5.111c.695.267 1.228.649 1.599 1.147.371.499.556 1.095.556 1.791 0 .73-.197 1.367-.591 1.912-.394.533-.956.944-1.686 1.234-.73.29-1.587.434-2.572.434-.974 0-1.825-.144-2.555-.434-.719-.29-1.275-.701-1.669-1.234-.394-.545-.591-1.182-.591-1.912 0-.696.179-1.292.539-1.791.37-.498.904-.88 1.599-1.147-.556-.266-.979-.62-1.269-1.06-.29-.441-.435-.962-.435-1.565 0-.672.18-1.257.539-1.755.371-.499.887-.881 1.547-1.148.661-.266 1.426-.399 2.295-.399.88 0 1.651.133 2.312.399.672.267 1.187.649 1.547 1.148.37.498.556 1.083.556 1.755 0 .591-.151 1.113-.452 1.565-.29.44-.713.794-1.269 1.06zm-2.694-4.519c-.823 0-1.472.179-1.947.539-.475.347-.713.822-.713 1.425 0 .602.232 1.078.696 1.425.475.348 1.129.522 1.964.522.846 0 1.506-.174 1.981-.522.487-.347.73-.823.73-1.425 0-.603-.249-1.078-.747-1.425-.487-.36-1.142-.539-1.964-.539zm0 9.63c.962 0 1.721-.197 2.277-.591.556-.406.834-.951.834-1.634 0-.673-.278-1.2-.834-1.582-.556-.394-1.315-.591-2.277-.591-.962 0-1.715.197-2.26.591-.545.382-.817.909-.817 1.582 0 .683.272 1.228.817 1.634.545.394 1.298.591 2.26.591zm11.69-6.119c.8 0 1.513.151 2.138.452a3.482 3.482 0 011.495 1.304c.36.556.539 1.199.539 1.929 0 .765-.191 1.437-.573 2.016a3.75 3.75 0 01-1.548 1.356c-.648.313-1.379.469-2.19.469-1.634 0-2.897-.527-3.789-1.581-.881-1.055-1.321-2.55-1.321-4.485 0-1.356.237-2.509.713-3.459.486-.962 1.158-1.686 2.016-2.173.869-.498 1.877-.747 3.024-.747.591 0 1.148.063 1.669.191.522.116.974.29 1.356.521l-.661 1.356c-.579-.382-1.355-.573-2.329-.573-1.263 0-2.254.394-2.972 1.182-.719.776-1.078 1.912-1.078 3.407 0 .185.006.33.017.434a3.258 3.258 0 011.426-1.182c.614-.278 1.304-.417 2.068-.417zm-.208 6.119c.799 0 1.448-.215 1.947-.644.498-.428.747-1.002.747-1.721 0-.718-.255-1.286-.765-1.703-.498-.429-1.17-.643-2.016-.643-.545 0-1.032.104-1.46.313a2.537 2.537 0 00-.991.851c-.232.36-.348.76-.348 1.2 0 .429.11.823.331 1.182.231.348.562.631.99.852.441.208.962.313 1.565.313zm9.459-10.899v12.167h-1.721v-10.655h-2.746v-1.512h4.467zm3.809 12.272c-.325 0-.603-.11-.835-.331a1.18 1.18 0 01-.347-.869c0-.336.116-.614.347-.834.232-.232.51-.348.835-.348.324 0 .597.11.817.331.22.22.33.504.33.851 0 .348-.116.638-.348.869-.22.221-.486.331-.799.331zM149 184.211v12.167h-1.721v-10.655h-2.746v-1.512H149zm6.434 0v12.167h-1.721v-10.655h-2.747v-1.512h4.468zm16.577 8.847c0 .916-.348 1.692-1.043 2.33-.684.637-1.681 1.008-2.99 1.112v1.964h-1.112V196.5a8.774 8.774 0 01-2.417-.469c-.753-.278-1.355-.626-1.807-1.043l.643-1.356c.417.382.944.701 1.582.956a6.875 6.875 0 001.999.435v-4.033c-.812-.197-1.49-.412-2.034-.643a3.58 3.58 0 01-1.356-1.026c-.359-.452-.539-1.043-.539-1.773 0-.915.33-1.692.991-2.329.672-.637 1.651-1.008 2.938-1.113v-1.981h1.112v1.964a7.503 7.503 0 011.912.313 5.642 5.642 0 011.617.747l-.574 1.391c-.939-.591-1.924-.915-2.955-.973v4.05c.846.208 1.541.428 2.086.66a3.39 3.39 0 011.373 1.008c.383.441.574 1.032.574 1.773zm-7.37-5.579c0 .498.191.886.573 1.164.383.278.933.51 1.652.696v-3.755c-.742.093-1.298.313-1.669.66a1.604 1.604 0 00-.556 1.235zm3.337 7.526c.776-.069 1.356-.266 1.738-.591.394-.336.591-.753.591-1.251 0-.51-.203-.898-.608-1.165-.394-.278-.968-.521-1.721-.73v3.737z" fill="#373943"/><path d="M234.118 234.831h-2.062v4.35h-1.384v-9.886h1.384v4.293h2.091l3.107-4.293h1.511l-3.531 4.788 3.7 5.098h-1.61l-3.206-4.35zm9.147 4.435c-.743 0-1.412-.165-2.005-.494a3.658 3.658 0 01-1.398-1.356c-.33-.584-.495-1.243-.495-1.977 0-.735.165-1.389.495-1.964a3.524 3.524 0 011.398-1.355c.593-.33 1.262-.495 2.005-.495.744 0 1.408.165 1.992.495.593.32 1.054.772 1.384 1.355.339.575.508 1.229.508 1.964 0 .734-.169 1.393-.508 1.977a3.56 3.56 0 01-1.384 1.356c-.584.329-1.248.494-1.992.494zm0-1.186c.481 0 .909-.109 1.286-.325.386-.226.687-.537.903-.932.217-.405.325-.867.325-1.384 0-.518-.108-.975-.325-1.37a2.27 2.27 0 00-.903-.933 2.538 2.538 0 00-1.286-.324c-.48 0-.913.108-1.299.324a2.395 2.395 0 00-.904.933c-.216.395-.325.852-.325 1.37 0 .517.109.979.325 1.384.226.395.527.706.904.932.386.216.819.325 1.299.325zm14.471-6.384v7.485h-1.228v-5.466l-2.797 4.619h-.593l-2.768-4.633v5.48h-1.243v-7.485h1.398l2.938 5.056 3.022-5.056h1.271zm11.269 0v7.485h-1.229v-5.466l-2.797 4.619h-.593l-2.768-4.633v5.48h-1.243v-7.485h1.399l2.937 5.056 3.023-5.056h1.271zm9.404 3.785c0 .103-.01.24-.029.409h-6.073c.085.66.372 1.192.862 1.596.499.396 1.116.594 1.85.594.894 0 1.615-.302 2.161-.904l.748.875a3.258 3.258 0 01-1.271.904 4.347 4.347 0 01-1.68.311c-.791 0-1.493-.16-2.105-.48a3.57 3.57 0 01-1.426-1.37c-.33-.584-.495-1.243-.495-1.977 0-.725.161-1.38.481-1.964a3.5 3.5 0 011.341-1.355 3.817 3.817 0 011.935-.495c.716 0 1.351.165 1.907.495a3.31 3.31 0 011.313 1.355c.32.584.481 1.253.481 2.006zm-3.701-2.712c-.649 0-1.195.198-1.638.593-.433.396-.687.914-.763 1.554h4.802c-.075-.631-.334-1.144-.777-1.539-.433-.405-.974-.608-1.624-.608zm5.804-1.073h1.356v3.178h4.265v-3.178h1.356v7.485h-1.356v-3.135h-4.265v3.135h-1.356v-7.485zm15.192 1.186h-2.74v6.299h-1.356v-6.299h-2.74v-1.186h6.836v1.186zm4.055-1.257c1.036 0 1.827.254 2.373.763.556.508.833 1.266.833 2.274v4.519h-1.285v-.988c-.226.348-.551.616-.974.805-.415.178-.909.268-1.483.268-.838 0-1.511-.203-2.02-.607-.499-.405-.748-.937-.748-1.596s.24-1.187.72-1.582c.48-.405 1.243-.607 2.288-.607h2.147v-.269c0-.584-.17-1.031-.509-1.341-.339-.311-.838-.467-1.497-.467-.442 0-.876.076-1.299.226a3.279 3.279 0 00-1.074.579l-.565-1.016a4.023 4.023 0 011.384-.707 5.662 5.662 0 011.709-.254zm-.31 6.596c.518 0 .965-.113 1.341-.339.377-.236.65-.565.82-.989v-1.045h-2.091c-1.148 0-1.723.386-1.723 1.158 0 .377.146.673.438.89.292.216.697.325 1.215.325zm9.926-6.596c.725 0 1.375.16 1.949.48a3.41 3.41 0 011.342 1.342c.33.574.494 1.238.494 1.992 0 .753-.164 1.421-.494 2.005a3.403 3.403 0 01-1.342 1.342c-.574.32-1.224.48-1.949.48a3.521 3.521 0 01-1.483-.311 3.074 3.074 0 01-1.129-.904v3.87h-1.356v-10.225h1.299v1.186a2.824 2.824 0 011.144-.932c.461-.216.97-.325 1.525-.325zm-.113 6.455c.481 0 .909-.109 1.286-.325.386-.226.687-.537.904-.932.226-.405.338-.867.338-1.384 0-.518-.112-.975-.338-1.37a2.278 2.278 0 00-.904-.933 2.538 2.538 0 00-1.286-.324c-.47 0-.899.113-1.285.339a2.416 2.416 0 00-.904.918c-.216.395-.324.852-.324 1.37 0 .517.108.979.324 1.384.217.395.518.706.904.932.386.216.815.325 1.285.325zm5.868-6.384h1.356v5.451l4.59-5.451h1.229v7.485h-1.356v-5.451l-4.576 5.451h-1.243v-7.485zm9.807 0h1.355v5.451l4.59-5.451h1.229v7.485h-1.356v-5.451l-4.576 5.451h-1.242v-7.485zm3.502-.975c-.697 0-1.238-.164-1.624-.494-.386-.339-.584-.824-.593-1.455h.918c.009.349.127.631.353.848.235.207.546.31.932.31s.697-.103.932-.31c.235-.217.358-.499.367-.848h.947c-.01.631-.212 1.116-.608 1.455-.395.33-.937.494-1.624.494zm-228.492 3.333c.669.16 1.172.448 1.511.862.349.405.523.927.523 1.568 0 .856-.316 1.52-.946 1.991-.622.471-1.53.706-2.726.706h-4.52v-9.886h4.251c1.083 0 1.926.221 2.529.664.612.433.918 1.059.918 1.878 0 .537-.137.993-.41 1.37-.264.377-.64.659-1.13.847zm-4.76-.409h2.755c.687 0 1.21-.137 1.567-.41.367-.273.551-.673.551-1.2 0-.527-.184-.928-.55-1.201-.368-.282-.89-.423-1.568-.423h-2.754v3.234zm3.094 4.42c1.515 0 2.273-.565 2.273-1.694 0-.565-.193-.98-.579-1.243-.376-.273-.941-.41-1.694-.41h-3.093v3.347h3.093zm9.039 1.201c-.743 0-1.412-.165-2.005-.494a3.658 3.658 0 01-1.398-1.356c-.33-.584-.495-1.243-.495-1.977 0-.735.165-1.389.495-1.964a3.524 3.524 0 011.398-1.355c.593-.33 1.262-.495 2.005-.495.744 0 1.408.165 1.992.495.593.32 1.054.772 1.384 1.355.339.575.508 1.229.508 1.964 0 .734-.169 1.393-.508 1.977a3.56 3.56 0 01-1.384 1.356c-.584.329-1.248.494-1.992.494zm0-1.186c.481 0 .909-.109 1.286-.325.386-.226.687-.537.904-.932.216-.405.324-.867.324-1.384 0-.518-.108-.975-.324-1.37a2.278 2.278 0 00-.904-.933 2.538 2.538 0 00-1.286-.324c-.48 0-.913.108-1.299.324a2.395 2.395 0 00-.904.933c-.216.395-.325.852-.325 1.37 0 .517.109.979.325 1.384.226.395.527.706.904.932.386.216.819.325 1.299.325zm14.733-2.783c.97.245 1.455.852 1.455 1.822 0 .659-.249 1.168-.748 1.525-.49.358-1.224.537-2.204.537h-3.601v-7.485h3.474c.885 0 1.577.169 2.076.508.499.33.749.801.749 1.413 0 .395-.108.739-.325 1.031-.207.282-.499.499-.876.649zm-3.77-.381h2.033c.518 0 .909-.094 1.173-.283.273-.188.409-.461.409-.819 0-.715-.527-1.073-1.582-1.073h-2.033v2.175zm2.175 3.22c.564 0 .988-.089 1.271-.268.282-.179.423-.457.423-.834 0-.386-.131-.673-.395-.861-.254-.188-.659-.283-1.215-.283h-2.259v2.246h2.175zm11.598-6.44v7.485h-1.355v-6.299h-3.221l-.084 1.667c-.047 1.007-.137 1.85-.269 2.528-.131.668-.348 1.205-.649 1.61-.302.405-.721.607-1.257.607a3.2 3.2 0 01-.834-.127l.085-1.144c.123.028.236.042.339.042a.917.917 0 00.848-.494c.188-.329.31-.72.367-1.172.056-.452.108-1.097.155-1.935l.127-2.768h5.748zm5.291-.071c1.036 0 1.827.254 2.373.763.555.508.833 1.266.833 2.274v4.519h-1.285v-.988c-.226.348-.551.616-.974.805-.415.178-.909.268-1.483.268-.838 0-1.512-.203-2.02-.607-.499-.405-.749-.937-.749-1.596s.241-1.187.721-1.582c.48-.405 1.243-.607 2.288-.607h2.146v-.269c0-.584-.169-1.031-.508-1.341-.339-.311-.838-.467-1.497-.467a3.86 3.86 0 00-1.299.226 3.279 3.279 0 00-1.074.579l-.565-1.016a4.023 4.023 0 011.384-.707 5.662 5.662 0 011.709-.254zm-.31 6.596c.517 0 .965-.113 1.341-.339.377-.236.65-.565.819-.989v-1.045h-2.09c-1.149 0-1.723.386-1.723 1.158 0 .377.146.673.438.89.292.216.697.325 1.215.325zm13.57-.226v2.923h-1.271v-1.737h-6.257v1.737h-1.285v-2.923h.396c.48-.028.809-.367.988-1.017.179-.65.302-1.568.367-2.754l.113-2.528h5.805v6.299h1.144zm-5.819-3.672c-.037.941-.117 1.723-.24 2.344-.113.612-.325 1.055-.635 1.328h4.194v-5.113h-3.248l-.071 1.441zm14.35 1.158c0 .103-.009.24-.028.409h-6.073c.085.66.372 1.192.862 1.596.499.396 1.115.594 1.85.594.894 0 1.615-.302 2.161-.904l.748.875a3.258 3.258 0 01-1.271.904 4.349 4.349 0 01-1.681.311c-.79 0-1.492-.16-2.104-.48a3.57 3.57 0 01-1.426-1.37c-.33-.584-.495-1.243-.495-1.977 0-.725.16-1.38.48-1.964a3.51 3.51 0 011.342-1.355 3.814 3.814 0 011.935-.495c.716 0 1.351.165 1.907.495.565.32 1.002.772 1.313 1.355.32.584.48 1.253.48 2.006zm-3.7-2.712c-.65 0-1.196.198-1.638.593-.433.396-.688.914-.763 1.554h4.802c-.075-.631-.334-1.144-.777-1.539-.433-.405-.974-.608-1.624-.608zm5.804-1.073h1.356v3.178h4.265v-3.178h1.356v7.485h-1.356v-3.135h-4.265v3.135h-1.356v-7.485zm9.613 0h1.356v5.451l4.59-5.451h1.228v7.485h-1.355v-5.451l-4.576 5.451h-1.243v-7.485zm9.806 0h1.356v5.451l4.59-5.451h1.229v7.485h-1.356v-5.451l-4.576 5.451h-1.243v-7.485z" fill="#606371"/><path d="M230.124 190.886h4.675v1.442h-4.675v-1.442zm9.964-6.675v12.167h-1.721v-10.655h-2.746v-1.512h4.467zm3.809 12.272c-.325 0-.603-.11-.835-.331a1.176 1.176 0 01-.347-.869 1.1 1.1 0 01.347-.834c.232-.232.51-.348.835-.348.324 0 .596.11.817.331.22.22.33.504.33.851 0 .348-.116.638-.348.869-.22.221-.487.331-.799.331zm6.267-7.423c1.738 0 3.013.331 3.824.991.823.649 1.234 1.541 1.234 2.677 0 .719-.174 1.368-.521 1.947-.336.568-.852 1.02-1.547 1.356-.684.324-1.53.486-2.538.486a8.133 8.133 0 01-2.486-.382c-.799-.266-1.46-.631-1.981-1.095l.799-1.373c.417.394.951.712 1.599.956a6.05 6.05 0 002.052.347c.915 0 1.622-.191 2.12-.573.51-.394.765-.927.765-1.599 0-.73-.278-1.281-.834-1.652-.557-.382-1.507-.573-2.851-.573h-2.764l.643-6.362h6.866v1.512h-5.406l-.33 3.337h1.356zm11.754-.069c.8 0 1.513.151 2.138.452a3.482 3.482 0 011.495 1.304c.359.556.539 1.199.539 1.929 0 .765-.191 1.437-.574 2.016a3.741 3.741 0 01-1.547 1.356c-.648.313-1.379.469-2.19.469-1.634 0-2.897-.527-3.789-1.581-.881-1.055-1.321-2.55-1.321-4.485 0-1.356.237-2.509.713-3.459.486-.962 1.158-1.686 2.016-2.173.869-.498 1.877-.747 3.024-.747.591 0 1.148.063 1.669.191.522.116.974.29 1.356.521l-.661 1.356c-.579-.382-1.355-.573-2.329-.573-1.263 0-2.254.394-2.972 1.182-.719.776-1.078 1.912-1.078 3.407 0 .185.006.33.017.434a3.258 3.258 0 011.426-1.182c.614-.278 1.304-.417 2.068-.417zm-.208 6.119c.799 0 1.448-.215 1.947-.644.498-.428.747-1.002.747-1.721 0-.718-.255-1.286-.765-1.703-.498-.429-1.17-.643-2.016-.643-.545 0-1.032.104-1.46.313a2.537 2.537 0 00-.991.851c-.232.36-.348.76-.348 1.2 0 .429.11.823.331 1.182.231.348.562.631.99.852.441.208.962.313 1.565.313zm7.99-4.363c-.846 0-1.53-.308-2.051-.922-.522-.614-.783-1.414-.783-2.399 0-.985.261-1.784.783-2.398.521-.614 1.205-.922 2.051-.922.846 0 1.524.308 2.033.922.522.602.783 1.402.783 2.398 0 .997-.261 1.802-.783 2.417-.509.602-1.187.904-2.033.904zm7.335-6.536h1.338l-8.308 12.167h-1.339l8.309-12.167zm-7.335 5.545c.533 0 .95-.203 1.251-.609.301-.417.452-.99.452-1.721 0-.73-.151-1.297-.452-1.703-.301-.417-.718-.626-1.251-.626-.522 0-.939.209-1.252.626-.301.417-.452.985-.452 1.703 0 .719.151 1.287.452 1.704.313.417.73.626 1.252.626zm7.7 6.727c-.846 0-1.53-.302-2.051-.904-.51-.614-.765-1.42-.765-2.416 0-.997.255-1.797.765-2.399.521-.614 1.205-.921 2.051-.921.846 0 1.53.307 2.051.921.522.614.782 1.414.782 2.399 0 .985-.26 1.784-.782 2.398-.521.615-1.205.922-2.051.922zm0-.991c.522 0 .933-.209 1.234-.626.313-.417.47-.985.47-1.703 0-.719-.157-1.287-.47-1.704-.301-.417-.712-.626-1.234-.626-.533 0-.95.209-1.251.626-.302.406-.452.974-.452 1.704s.15 1.303.452 1.721c.301.405.718.608 1.251.608z" fill="#DE4355"/><path d="M355.417 190.99h-3.164v3.111h-1.46v-3.111h-3.164v-1.373h3.164v-3.129h1.46v3.129h3.164v1.373zm5.466-6.779v12.167h-1.721v-10.655h-2.747v-1.512h4.468zm7.911 4.78c.799 0 1.512.151 2.138.452a3.494 3.494 0 011.495 1.304c.359.556.539 1.199.539 1.929 0 .765-.192 1.437-.574 2.016a3.754 3.754 0 01-1.547 1.356c-.649.313-1.379.469-2.19.469-1.634 0-2.897-.527-3.79-1.581-.88-1.055-1.321-2.55-1.321-4.485 0-1.356.238-2.509.713-3.459.487-.962 1.159-1.686 2.016-2.173.869-.498 1.878-.747 3.025-.747.591 0 1.147.063 1.669.191.521.116.973.29 1.355.521l-.66 1.356c-.58-.382-1.356-.573-2.329-.573-1.264 0-2.254.394-2.973 1.182-.718.776-1.077 1.912-1.077 3.407 0 .185.005.33.017.434a3.261 3.261 0 011.425-1.182c.614-.278 1.304-.417 2.069-.417zm-.209 6.119c.8 0 1.449-.215 1.947-.644.498-.428.747-1.002.747-1.721 0-.718-.255-1.286-.764-1.703-.499-.429-1.171-.643-2.017-.643-.544 0-1.031.104-1.46.313a2.544 2.544 0 00-.991.851c-.231.36-.347.76-.347 1.2 0 .429.11.823.33 1.182.232.348.562.631.991.852.44.208.962.313 1.564.313zm7.004 1.373c-.324 0-.602-.11-.834-.331a1.177 1.177 0 01-.348-.869 1.1 1.1 0 01.348-.834c.232-.232.51-.348.834-.348.325 0 .597.11.817.331.221.22.331.504.331.851 0 .348-.116.638-.348.869-.22.221-.487.331-.8.331zm7.837-7.492c.8 0 1.512.151 2.138.452a3.482 3.482 0 011.495 1.304c.359.556.539 1.199.539 1.929 0 .765-.191 1.437-.574 2.016a3.741 3.741 0 01-1.547 1.356c-.649.313-1.379.469-2.19.469-1.634 0-2.897-.527-3.789-1.581-.881-1.055-1.321-2.55-1.321-4.485 0-1.356.237-2.509.712-3.459.487-.962 1.159-1.686 2.017-2.173.869-.498 1.877-.747 3.024-.747.591 0 1.148.063 1.669.191.521.116.973.29 1.356.521l-.661 1.356c-.579-.382-1.356-.573-2.329-.573-1.263 0-2.254.394-2.972 1.182-.719.776-1.078 1.912-1.078 3.407 0 .185.006.33.017.434a3.258 3.258 0 011.426-1.182c.614-.278 1.303-.417 2.068-.417zm-.208 6.119c.799 0 1.448-.215 1.946-.644.499-.428.748-1.002.748-1.721 0-.718-.255-1.286-.765-1.703-.498-.429-1.17-.643-2.016-.643-.545 0-1.032.104-1.46.313a2.53 2.53 0 00-.991.851c-.232.36-.348.76-.348 1.2 0 .429.11.823.33 1.182.232.348.562.631.991.852.441.208.962.313 1.565.313zm10.345-5.789c1.194.116 2.104.487 2.729 1.113.626.614.939 1.402.939 2.364 0 .695-.174 1.327-.521 1.894-.348.557-.87 1.003-1.565 1.339-.684.324-1.524.486-2.52.486a8.185 8.185 0 01-2.503-.382c-.8-.266-1.455-.631-1.965-1.095l.8-1.373c.417.394.95.712 1.599.956a6.101 6.101 0 002.069.347c.904 0 1.605-.191 2.103-.573.51-.383.765-.91.765-1.582s-.249-1.194-.748-1.564c-.498-.371-1.251-.557-2.259-.557h-.974v-1.216l3.06-3.755h-5.858v-1.512h8.03v1.182l-3.181 3.928zm7.762 1.426c-.846 0-1.53-.308-2.051-.922-.522-.614-.783-1.414-.783-2.399 0-.985.261-1.784.783-2.398.521-.614 1.205-.922 2.051-.922.846 0 1.524.308 2.033.922.522.602.783 1.402.783 2.398 0 .997-.261 1.802-.783 2.417-.509.602-1.187.904-2.033.904zm7.335-6.536h1.338l-8.308 12.167h-1.339l8.309-12.167zm-7.335 5.545c.533 0 .95-.203 1.251-.609.301-.417.452-.99.452-1.721 0-.73-.151-1.297-.452-1.703-.301-.417-.718-.626-1.251-.626-.522 0-.939.209-1.252.626-.301.417-.452.985-.452 1.703 0 .719.151 1.287.452 1.704.313.417.73.626 1.252.626zm7.7 6.727c-.846 0-1.53-.302-2.051-.904-.51-.614-.765-1.42-.765-2.416 0-.997.255-1.797.765-2.399.521-.614 1.205-.921 2.051-.921.846 0 1.53.307 2.051.921.522.614.782 1.414.782 2.399 0 .985-.26 1.784-.782 2.398-.521.615-1.205.922-2.051.922zm0-.991c.522 0 .933-.209 1.234-.626.313-.417.47-.985.47-1.703 0-.719-.157-1.287-.47-1.704-.301-.417-.712-.626-1.234-.626-.533 0-.95.209-1.251.626-.302.406-.452.974-.452 1.704s.15 1.303.452 1.721c.301.405.718.608 1.251.608z" fill="#199F27"/><path d="M103.861 263.144h-2.155v2.764h-2.19v-2.764H92.84v-1.564l5.997-7.839h2.416l-5.65 7.491h3.981v-2.451h2.121v2.451h2.155v1.912zm5.962-4.38c1.124.139 1.981.522 2.572 1.147.591.626.887 1.408.887 2.347 0 .707-.18 1.35-.539 1.929-.359.58-.904 1.043-1.634 1.391-.719.336-1.599.504-2.642.504a8.744 8.744 0 01-2.521-.365c-.799-.255-1.483-.603-2.051-1.043l.974-1.756c.44.371.973.667 1.599.887a6.262 6.262 0 001.964.313c.8 0 1.425-.162 1.877-.487.464-.336.696-.788.696-1.356 0-.568-.221-1.008-.661-1.321-.429-.324-1.089-.486-1.981-.486h-1.113v-1.548l2.764-3.285h-5.528v-1.894h8.292v1.512l-2.955 3.511zm13.945-5.023v1.512l-4.728 10.655h-2.416l4.571-10.255h-4.78v2.068h-2.103v-3.98h9.456zm6.586 4.658c.799 0 1.518.156 2.155.469a3.495 3.495 0 011.495 1.304c.359.568.539 1.223.539 1.964 0 .788-.197 1.484-.591 2.086a3.93 3.93 0 01-1.599 1.373c-.673.325-1.426.487-2.26.487-1.669 0-2.967-.521-3.894-1.564-.915-1.043-1.373-2.538-1.373-4.485 0-1.367.249-2.532.747-3.494.499-.973 1.194-1.709 2.086-2.207.904-.51 1.947-.765 3.129-.765.626 0 1.211.069 1.756.208a4.642 4.642 0 011.442.574l-.834 1.703c-.602-.394-1.373-.591-2.312-.591-1.17 0-2.086.36-2.746 1.078-.661.719-.991 1.756-.991 3.112v.017c.359-.417.817-.73 1.373-.939.557-.22 1.182-.33 1.878-.33zm-.383 5.91c.707 0 1.281-.185 1.721-.556.44-.383.661-.887.661-1.512 0-.638-.221-1.142-.661-1.513-.44-.371-1.031-.556-1.773-.556-.73 0-1.327.197-1.79.591a1.897 1.897 0 00-.678 1.495 1.9 1.9 0 00.66 1.477c.452.383 1.072.574 1.86.574zm7.278 1.721c-.394 0-.73-.133-1.008-.4a1.416 1.416 0 01-.417-1.043c0-.429.133-.776.4-1.043.278-.266.62-.4 1.025-.4.406 0 .742.134 1.009.4.278.267.417.614.417 1.043 0 .417-.139.765-.417 1.043-.278.267-.615.4-1.009.4zm11.871-2.034v1.912h-8.969v-1.512l4.832-4.589c.545-.521.91-.973 1.095-1.356a2.59 2.59 0 00.296-1.164c0-.568-.192-1.003-.574-1.304-.382-.301-.944-.452-1.686-.452-1.24 0-2.19.423-2.851 1.269l-1.582-1.217c.476-.637 1.113-1.13 1.912-1.477.812-.36 1.716-.539 2.712-.539 1.321 0 2.376.313 3.164.938.788.626 1.182 1.478 1.182 2.556 0 .66-.139 1.28-.417 1.859-.279.58-.812 1.24-1.6 1.982l-3.25 3.094h5.736zm11.896-.852h-2.155v2.764h-2.19v-2.764h-6.675v-1.564l5.997-7.839h2.416l-5.649 7.491h3.98v-2.451h2.121v2.451h2.155v1.912zm15.316-.678c0 .939-.348 1.739-1.043 2.399-.684.649-1.681 1.043-2.99 1.182v1.947h-1.426v-1.929a9.743 9.743 0 01-2.433-.47c-.765-.255-1.373-.579-1.825-.973l.782-1.756c.429.348.95.643 1.564.887a7.166 7.166 0 001.912.434v-3.476c-.822-.197-1.512-.412-2.068-.643a3.71 3.71 0 01-1.373-1.043c-.371-.464-.557-1.072-.557-1.825 0-.939.342-1.739 1.026-2.399.684-.661 1.675-1.055 2.972-1.182v-1.964h1.426v1.929a8.04 8.04 0 011.894.33 6.247 6.247 0 011.634.73l-.712 1.756a7.238 7.238 0 00-2.816-.939v3.512c.834.197 1.524.411 2.068.643.557.232 1.02.579 1.391 1.043.382.452.574 1.054.574 1.807zm-7.214-5.371c0 .383.15.69.452.922.301.231.736.428 1.303.591v-3.094c-.591.092-1.031.278-1.321.556-.289.278-.434.62-.434 1.025zm3.181 7.058c.614-.093 1.066-.273 1.356-.539.301-.267.452-.597.452-.991s-.157-.707-.47-.939c-.313-.243-.759-.446-1.338-.608v3.077z" fill="#24252E"/><circle cx="138.964" cy="95.898" r="17.382" fill="#F7931A"/><path d="M146.629 93.423c.346-2.313-1.415-3.556-3.823-4.386l.781-3.133-1.907-.475-.761 3.05a78.944 78.944 0 00-1.528-.36l.766-3.07-1.906-.475-.781 3.132a63.059 63.059 0 01-1.218-.286l.002-.01-2.63-.657-.508 2.037s1.415.324 1.386.344c.772.193.912.704.888 1.11l-.89 3.569c.054.014.123.033.199.064-.064-.016-.132-.034-.202-.05l-1.247 5c-.094.234-.334.586-.874.453.019.028-1.386-.346-1.386-.346l-.947 2.183 2.482.619c.462.115.914.236 1.359.351l-.789 3.169 1.905.475.782-3.136c.52.142 1.025.272 1.52.395l-.779 3.121 1.907.475.789-3.163c3.252.615 5.698.367 6.727-2.574.83-2.369-.041-3.735-1.752-4.626 1.246-.287 2.185-1.107 2.435-2.8zm-4.358 6.11c-.589 2.369-4.577 1.088-5.869.767l1.047-4.198c1.293.323 5.438.962 4.822 3.431zm.59-6.144c-.537 2.154-3.856 1.06-4.933.791l.95-3.808c1.076.269 4.543.77 3.983 3.017z" fill="#fff"/><path d="M179.395 95.553c.707.197 1.263.556 1.669 1.078.405.51.608 1.159.608 1.947 0 1.054-.4 1.865-1.199 2.433-.788.568-1.941.852-3.459.852h-5.806V89.695h5.458c1.391 0 2.463.278 3.216.835.765.556 1.147 1.326 1.147 2.311 0 .638-.151 1.188-.452 1.652-.29.463-.684.817-1.182 1.06zm-6.449-4.45v3.894h3.564c.892 0 1.576-.162 2.051-.487.486-.336.73-.823.73-1.46s-.244-1.118-.73-1.443c-.475-.336-1.159-.504-2.051-.504h-3.564zm3.998 9.352c.985 0 1.727-.162 2.225-.487.498-.324.748-.834.748-1.53 0-1.355-.991-2.033-2.973-2.033h-3.998v4.05h3.998zm7.176-7.805h1.669v9.213h-1.669V92.65zm.835-1.773a1.14 1.14 0 01-.817-.313 1.039 1.039 0 01-.313-.765c0-.3.104-.556.313-.764.22-.22.492-.33.817-.33.324 0 .591.104.799.312a.96.96 0 01.33.748c0 .313-.11.58-.33.8a1.081 1.081 0 01-.799.312zm9.2 10.447a2.589 2.589 0 01-.904.487c-.359.104-.73.156-1.112.156-.927 0-1.646-.249-2.156-.747-.51-.499-.765-1.211-.765-2.138v-5.059h-1.564V92.65h1.564v-2.016h1.669v2.016h2.642v1.373h-2.642v4.99c0 .497.122.88.365 1.146.255.267.614.4 1.078.4.51 0 .944-.145 1.304-.434l.521 1.199zm5.727.643c-.938 0-1.779-.203-2.52-.608a4.496 4.496 0 01-1.721-1.669c-.417-.718-.626-1.53-.626-2.433 0-.904.209-1.71.626-2.417a4.333 4.333 0 011.721-1.668c.741-.406 1.582-.609 2.52-.609.835 0 1.576.168 2.225.504a3.576 3.576 0 011.53 1.46l-1.269.817c-.29-.44-.649-.77-1.078-.99a3.074 3.074 0 00-1.425-.33 3.34 3.34 0 00-1.634.4 2.91 2.91 0 00-1.13 1.146c-.266.487-.4 1.05-.4 1.687 0 .648.134 1.222.4 1.72a2.94 2.94 0 001.13 1.13 3.34 3.34 0 001.634.4c.521 0 .996-.11 1.425-.33a2.84 2.84 0 001.078-.991l1.269.8a3.686 3.686 0 01-1.53 1.477c-.649.336-1.39.504-2.225.504zm9.725 0c-.915 0-1.738-.203-2.468-.608a4.496 4.496 0 01-1.721-1.669c-.405-.718-.608-1.53-.608-2.433 0-.904.203-1.71.608-2.417a4.333 4.333 0 011.721-1.668c.73-.406 1.553-.609 2.468-.609.916 0 1.733.203 2.451.609.73.394 1.298.95 1.704 1.668.417.707.625 1.513.625 2.416 0 .904-.208 1.716-.625 2.434a4.376 4.376 0 01-1.704 1.669c-.718.405-1.535.608-2.451.608zm0-1.46c.591 0 1.119-.133 1.582-.4.475-.278.846-.66 1.113-1.147.266-.498.399-1.066.399-1.703 0-.638-.133-1.2-.399-1.687a2.8 2.8 0 00-1.113-1.147 3.12 3.12 0 00-1.582-.4c-.591 0-1.124.134-1.599.4a2.948 2.948 0 00-1.112 1.147c-.267.487-.4 1.05-.4 1.687s.133 1.205.4 1.703c.278.487.649.87 1.112 1.147.475.267 1.008.4 1.599.4zm7.088-7.857h1.669v9.213h-1.669V92.65zm.835-1.773a1.14 1.14 0 01-.817-.313 1.039 1.039 0 01-.313-.765c0-.3.104-.556.313-.764.22-.22.492-.33.817-.33.324 0 .591.104.799.312a.96.96 0 01.33.748c0 .313-.11.58-.33.8a1.081 1.081 0 01-.799.312zm8.939 1.686c1.171 0 2.098.342 2.782 1.026.695.672 1.042 1.663 1.042 2.972v5.302h-1.668v-5.11c0-.893-.215-1.565-.643-2.017-.429-.452-1.043-.678-1.843-.678-.904 0-1.617.267-2.138.8-.521.521-.782 1.274-.782 2.26v4.745h-1.669V92.65h1.599v1.39c.336-.474.788-.84 1.356-1.094.58-.255 1.234-.383 1.964-.383z" fill="#373943"/><path d="M246.48 95.553c.707.197 1.263.556 1.669 1.078.406.51.608 1.159.608 1.947 0 1.054-.399 1.865-1.199 2.433-.788.568-1.941.852-3.459.852h-5.806V89.695h5.458c1.391 0 2.463.278 3.216.835.765.556 1.147 1.326 1.147 2.311 0 .638-.15 1.188-.452 1.652a2.821 2.821 0 01-1.182 1.06zm-6.449-4.45v3.894h3.564c.892 0 1.576-.162 2.051-.487.487-.336.73-.823.73-1.46s-.243-1.118-.73-1.443c-.475-.336-1.159-.504-2.051-.504h-3.564zm3.998 9.352c.985 0 1.727-.162 2.225-.487.499-.324.748-.834.748-1.53 0-1.355-.991-2.033-2.973-2.033h-3.998v4.05h3.998zm9.666-9.248h-4.172v-1.512h10.065v1.512h-4.172v10.656h-1.721V91.207zm13.057 10.795c-1.217 0-2.318-.267-3.303-.8a6.041 6.041 0 01-2.294-2.225c-.556-.95-.835-2.016-.835-3.198s.279-2.242.835-3.181a5.85 5.85 0 012.312-2.225c.985-.545 2.086-.817 3.302-.817.951 0 1.82.162 2.608.487a5.25 5.25 0 012.016 1.408l-1.13 1.095c-.915-.962-2.057-1.443-3.424-1.443-.904 0-1.721.203-2.451.609a4.455 4.455 0 00-1.721 1.686c-.406.706-.608 1.5-.608 2.381 0 .88.202 1.68.608 2.399a4.493 4.493 0 001.721 1.668c.73.406 1.547.609 2.451.609 1.356 0 2.497-.487 3.424-1.46l1.13 1.095a5.38 5.38 0 01-2.034 1.425c-.788.325-1.657.487-2.607.487z" fill="#929398"/><circle cx="138.964" cy="341.425" r="17.382" fill="#111A44"/><path d="M138.934 330.018l-5.339 7.346-2.236 10.86 7.575 4.608 7.574-4.608-2.281-10.905-5.293-7.301zm-6.343 17.704l1.689-8.259 3.832 11.636-5.521-3.377zm2.236-10.13l4.107-5.658 4.106 5.658-4.106 12.411-4.107-12.411zm4.882 13.507l3.833-11.636 1.689 8.259-5.522 3.377z" fill="#fff"/><path d="M180.038 345.876v1.513h-8.83v-12.168h8.587v1.512h-6.849v3.737h6.101v1.478h-6.101v3.928h7.092zm7.548.974a2.614 2.614 0 01-.904.487 3.98 3.98 0 01-1.113.156c-.927 0-1.645-.249-2.155-.747-.51-.499-.765-1.211-.765-2.139v-5.058h-1.564v-1.373h1.564v-2.016h1.669v2.016h2.642v1.373h-2.642v4.989c0 .498.122.881.365 1.147.255.267.614.4 1.078.4.509 0 .944-.145 1.303-.435l.522 1.2zm6.936-8.761c1.171 0 2.098.342 2.782 1.026.695.672 1.043 1.663 1.043 2.972v5.302h-1.669v-5.111c0-.892-.215-1.564-.643-2.016-.429-.452-1.043-.678-1.843-.678-.904 0-1.616.267-2.138.8-.521.521-.782 1.274-.782 2.259v4.746h-1.669v-12.898h1.669v4.989a3.445 3.445 0 011.356-1.026 4.767 4.767 0 011.894-.365zm15.29 4.745c0 .128-.012.296-.035.505h-7.474c.104.811.457 1.465 1.06 1.964.614.486 1.373.73 2.277.73 1.101 0 1.987-.371 2.66-1.113l.921 1.078a4.02 4.02 0 01-1.565 1.113c-.614.254-1.303.382-2.068.382-.974 0-1.837-.197-2.59-.591a4.4 4.4 0 01-1.756-1.686c-.405-.719-.608-1.53-.608-2.434 0-.892.197-1.697.591-2.416a4.32 4.32 0 011.651-1.669c.707-.405 1.501-.608 2.382-.608.88 0 1.663.203 2.346.608a4.082 4.082 0 011.617 1.669c.394.719.591 1.541.591 2.468zm-4.554-3.337c-.8 0-1.472.243-2.017.73-.533.487-.846 1.124-.938 1.912h5.91c-.093-.776-.412-1.408-.956-1.894-.533-.499-1.2-.748-1.999-.748zm8.47.226c.29-.533.719-.939 1.286-1.217.568-.278 1.258-.417 2.069-.417v1.617a3.145 3.145 0 00-.382-.018c-.904 0-1.617.273-2.138.817-.51.533-.765 1.298-.765 2.295v4.589h-1.669v-9.213h1.599v1.547zm13.653 3.111c0 .128-.012.296-.035.505h-7.474c.104.811.457 1.465 1.06 1.964.614.486 1.373.73 2.277.73 1.101 0 1.988-.371 2.66-1.113l.921 1.078a4.024 4.024 0 01-1.564 1.113c-.615.254-1.304.382-2.069.382-.973 0-1.837-.197-2.59-.591a4.407 4.407 0 01-1.756-1.686c-.405-.719-.608-1.53-.608-2.434 0-.892.197-1.697.591-2.416a4.32 4.32 0 011.651-1.669c.707-.405 1.501-.608 2.382-.608.88 0 1.663.203 2.346.608a4.076 4.076 0 011.617 1.669c.394.719.591 1.541.591 2.468zm-4.554-3.337c-.8 0-1.472.243-2.017.73-.533.487-.846 1.124-.938 1.912h5.91c-.093-.776-.412-1.408-.956-1.894-.533-.499-1.2-.748-1.999-.748zm15.458-1.321v9.213h-1.582v-1.391a3.414 3.414 0 01-1.338 1.113 4.188 4.188 0 01-1.791.382c-1.228 0-2.196-.336-2.902-1.008-.707-.684-1.061-1.686-1.061-3.007v-5.302h1.669v5.11c0 .893.214 1.571.643 2.034.429.452 1.043.678 1.843.678.88 0 1.576-.266 2.085-.8.51-.533.765-1.286.765-2.259v-4.763h1.669zm14.701-.087c1.159 0 2.075.336 2.747 1.008.683.672 1.025 1.669 1.025 2.99v5.302h-1.668v-5.111c0-.892-.209-1.564-.626-2.016-.406-.452-.991-.678-1.756-.678-.846 0-1.518.267-2.016.8-.498.521-.748 1.274-.748 2.259v4.746h-1.668v-5.111c0-.892-.209-1.564-.626-2.016-.406-.452-.991-.678-1.756-.678-.846 0-1.518.267-2.016.8-.498.521-.748 1.274-.748 2.259v4.746h-1.668v-9.213h1.599v1.373a3.163 3.163 0 011.321-1.077c.545-.255 1.165-.383 1.86-.383.718 0 1.356.145 1.912.435.556.289.985.712 1.286 1.269a3.545 3.545 0 011.443-1.252c.626-.301 1.327-.452 2.103-.452z" fill="#373943"/><path d="M273.57 345.876v1.513h-8.83v-12.168h8.587v1.512h-6.849v3.737h6.102v1.478h-6.102v3.928h7.092zm5.231-9.143h-4.172v-1.512h10.065v1.512h-4.172v10.656h-1.721v-10.656zm18.25-1.512v12.168h-1.738v-5.424h-6.988v5.424h-1.738v-12.168h1.738v5.232h6.988v-5.232h1.738z" fill="#929398"/><path d="M99.225 99.963c.07.087.163.158.272.207a.864.864 0 00.706 0 .735.735 0 00.272-.207l6.845-8.473a.575.575 0 00.049-.674.707.707 0 00-.28-.255.856.856 0 00-.394-.094h-13.69a.86.86 0 00-.393.095.707.707 0 00-.279.255.577.577 0 00.047.673l6.845 8.473zm0 244.793c.07.087.163.158.272.207a.864.864 0 00.706 0 .733.733 0 00.272-.207l6.845-8.473a.576.576 0 00.049-.674.714.714 0 00-.28-.255.854.854 0 00-.394-.094h-13.69a.875.875 0 00-.393.095.71.71 0 00-.279.255.578.578 0 00.047.673l6.845 8.473z" fill="#8C9BEA"/></g><rect x="72.5" y="28.5" width="373" height="373" rx="35.5" stroke="#D3E3FF"/></g><defs><clipPath id="clip0"><rect x="72" y="28" width="374" height="374" rx="36" fill="#fff"/></clipPath><filter id="filter0_d" x="0" y="0" width="518" height="518" filterUnits="userSpaceOnUse" color-interpolation-filters="sRGB"><feFlood flood-opacity="0" result="BackgroundImageFix"/><feColorMatrix in="SourceAlpha" values="0 0 0 0 0 0 0 0 0 0 0 0 0 0 0 0 0 0 127 0"/><feMorphology radius="17" in="SourceAlpha" result="effect1_dropShadow"/><feOffset dy="44"/><feGaussianBlur stdDeviation="44.5"/><feColorMatrix values="0 0 0 0 0.243137 0 0 0 0 0.329412 0 0 0 0 0.847059 0 0 0 0.06 0"/><feBlend in2="BackgroundImageFix" result="effect1_dropShadow"/><feBlend in="SourceGraphic" in2="effect1_dropShadow" result="shape"/></filter></defs></svg>