<svg width="518" height="518" fill="none" xmlns="http://www.w3.org/2000/svg"><g filter="url(#filter0_d)"><g clip-path="url(#clip0)"><rect x="72" y="28" width="374" height="374" rx="36" fill="#EFF4FC"/><path opacity=".9" d="M111.168 169l-.032-13.408-6.592 11.04h-2.304l-6.592-10.784V169h-4.864v-22.4h4.288l8.384 13.92 8.256-13.92H116l.032 22.4h-4.864zm18.109.256c-1.814 0-3.446-.373-4.896-1.12-1.43-.768-2.55-1.824-3.36-3.168-.811-1.344-1.216-2.869-1.216-4.576 0-1.707.405-3.232 1.216-4.576.81-1.344 1.93-2.389 3.36-3.136 1.45-.768 3.082-1.152 4.896-1.152 1.813 0 3.434.384 4.864 1.152 1.429.747 2.549 1.792 3.36 3.136.81 1.344 1.216 2.869 1.216 4.576 0 1.707-.406 3.232-1.216 4.576-.811 1.344-1.931 2.4-3.36 3.168-1.43.747-3.051 1.12-4.864 1.12zm0-4.096c1.28 0 2.325-.427 3.136-1.28.832-.875 1.248-2.037 1.248-3.488s-.416-2.603-1.248-3.456c-.811-.875-1.856-1.312-3.136-1.312s-2.336.437-3.168 1.312c-.832.853-1.248 2.005-1.248 3.456s.416 2.613 1.248 3.488c.832.853 1.888 1.28 3.168 1.28zm12.873-13.376h4.96v10.24l8.384-10.24h4.576V169h-4.96v-10.24L146.758 169h-4.608v-17.216zm8.64-1.856c-3.755 0-5.643-1.653-5.664-4.96h3.264c.021.747.224 1.333.608 1.76.405.405.992.608 1.76.608s1.355-.203 1.76-.608c.427-.427.64-1.013.64-1.76h3.328c-.021 3.307-1.92 4.96-5.696 4.96zm40.261 1.856V169h-4.992v-13.12h-7.168V169h-4.96v-17.216h17.12zm12.851 17.472c-1.814 0-3.446-.373-4.896-1.12-1.43-.768-2.55-1.824-3.36-3.168-.811-1.344-1.216-2.869-1.216-4.576 0-1.707.405-3.232 1.216-4.576.81-1.344 1.93-2.389 3.36-3.136 1.45-.768 3.082-1.152 4.896-1.152 1.813 0 3.434.384 4.864 1.152 1.429.747 2.549 1.792 3.36 3.136.81 1.344 1.216 2.869 1.216 4.576 0 1.707-.406 3.232-1.216 4.576-.811 1.344-1.931 2.4-3.36 3.168-1.43.747-3.051 1.12-4.864 1.12zm0-4.096c1.28 0 2.325-.427 3.136-1.28.832-.875 1.248-2.037 1.248-3.488s-.416-2.603-1.248-3.456c-.811-.875-1.856-1.312-3.136-1.312s-2.336.437-3.168 1.312c-.832.853-1.248 2.005-1.248 3.456s.416 2.613 1.248 3.488c.832.853 1.888 1.28 3.168 1.28zm23.017-13.632c1.6 0 3.051.373 4.352 1.12 1.323.725 2.357 1.76 3.104 3.104.747 1.323 1.12 2.869 1.12 4.64 0 1.771-.373 3.328-1.12 4.672a8.038 8.038 0 01-3.104 3.104c-1.301.725-2.752 1.088-4.352 1.088-2.197 0-3.925-.693-5.184-2.08v8.032h-4.992v-23.424h4.768v1.984c1.237-1.493 3.04-2.24 5.408-2.24zm-.864 13.632c1.28 0 2.325-.427 3.136-1.28.832-.875 1.248-2.037 1.248-3.488s-.416-2.603-1.248-3.456c-.811-.875-1.856-1.312-3.136-1.312s-2.336.437-3.168 1.312c-.811.853-1.216 2.005-1.216 3.456s.405 2.613 1.216 3.488c.832.853 1.888 1.28 3.168 1.28zm26.778-9.28h-5.824V169h-4.96v-13.12h-5.824v-4.096h16.608v4.096zm25.718 4.448c0 2.667-.896 4.779-2.688 6.336-1.771 1.536-4.309 2.421-7.616 2.656v5.888h-4.576v-5.888c-3.307-.235-5.856-1.109-7.648-2.624-1.771-1.536-2.656-3.659-2.656-6.368 0-2.667.875-4.736 2.624-6.208 1.771-1.472 4.331-2.325 7.68-2.56v-6.304h4.576v6.304c3.307.235 5.845 1.099 7.616 2.592 1.792 1.493 2.688 3.552 2.688 6.176zm-20.352 0c0 1.536.437 2.72 1.312 3.552.875.832 2.261 1.355 4.16 1.568v-10.016c-1.899.192-3.285.693-4.16 1.504-.875.789-1.312 1.92-1.312 3.392zm10.048 5.12c1.899-.213 3.285-.736 4.16-1.568.896-.832 1.344-2.016 1.344-3.552 0-1.472-.448-2.603-1.344-3.392-.875-.811-2.261-1.312-4.16-1.504v10.016zm30.42-4.992c0 .064-.032.512-.096 1.344h-13.024c.235 1.067.79 1.909 1.664 2.528.875.619 1.963.928 3.264.928.896 0 1.686-.128 2.368-.384a5.938 5.938 0 001.952-1.28l2.656 2.88c-1.621 1.856-3.989 2.784-7.104 2.784-1.941 0-3.658-.373-5.152-1.12-1.493-.768-2.645-1.824-3.456-3.168-.81-1.344-1.216-2.869-1.216-4.576 0-1.685.395-3.2 1.184-4.544a8.412 8.412 0 013.296-3.168c1.408-.768 2.976-1.152 4.704-1.152 1.686 0 3.211.363 4.576 1.088a7.806 7.806 0 013.2 3.136c.79 1.344 1.184 2.912 1.184 4.704zm-8.928-5.152c-1.13 0-2.08.32-2.848.96-.768.64-1.237 1.515-1.408 2.624h8.48c-.17-1.088-.64-1.952-1.408-2.592-.768-.661-1.706-.992-2.816-.992zm29.111-3.52V169h-4.992v-13.12h-5.44l-.16 3.04c-.086 2.261-.299 4.139-.64 5.632-.342 1.493-.896 2.667-1.664 3.52-.768.853-1.835 1.28-3.2 1.28-.726 0-1.59-.128-2.592-.384l.256-4.096c.341.043.586.064.736.064.746 0 1.301-.267 1.664-.8.384-.555.64-1.248.768-2.08.128-.853.224-1.973.288-3.36l.256-6.912h14.72zm14.112 5.504c2.24.021 3.957.533 5.152 1.536 1.195.981 1.792 2.379 1.792 4.192 0 1.899-.672 3.381-2.016 4.448-1.323 1.045-3.189 1.568-5.6 1.568l-8.64-.032v-17.216h4.96v5.504h4.352zm-1.12 8.192c.96.021 1.696-.181 2.208-.608.512-.427.768-1.067.768-1.92 0-.832-.256-1.44-.768-1.824-.491-.384-1.227-.587-2.208-.608l-3.232-.032v4.992h3.232z" fill="#24252E"/><path d="M96.413 216.418h-3.36V225h-1.372v-8.582h-3.346V215.2h8.078v1.218zm7.418 4.914c0 .103-.009.238-.028.406h-6.02c.084.653.369 1.181.854 1.582.495.392 1.106.588 1.834.588.887 0 1.601-.299 2.142-.896l.742.868a3.237 3.237 0 01-1.26.896 4.312 4.312 0 01-1.666.308c-.784 0-1.48-.159-2.086-.476a3.54 3.54 0 01-1.414-1.358c-.326-.579-.49-1.232-.49-1.96 0-.719.159-1.367.476-1.946a3.47 3.47 0 011.33-1.344 3.78 3.78 0 011.918-.49c.71 0 1.34.163 1.89.49.56.317.994.765 1.302 1.344.318.579.476 1.241.476 1.988zm-3.668-2.688c-.644 0-1.185.196-1.624.588-.43.392-.681.905-.756 1.54h4.76c-.074-.625-.331-1.134-.77-1.526-.429-.401-.966-.602-1.61-.602zm8.637 3.22h-1.54V225h-1.344v-7.42h1.344v3.136h1.568l2.408-3.136h1.442l-2.814 3.57 3.01 3.85h-1.582l-2.492-3.136zm11.682-4.284l-3.598 8.162c-.318.756-.691 1.288-1.12 1.596-.42.308-.929.462-1.526.462-.364 0-.719-.061-1.064-.182a2.109 2.109 0 01-.84-.504l.574-1.008a1.87 1.87 0 001.33.546c.326 0 .597-.089.812-.266.224-.168.424-.462.602-.882l.238-.518-3.276-7.406h1.4l2.59 5.936 2.562-5.936h1.316zm11.946 0V225h-10.57v-7.42h1.344v6.244h3.276v-6.244h1.344v6.244h3.262v-6.244h1.344zm1.106 6.244v2.758h-1.26V225h-1.246v-1.176h2.506zm1.503-6.244h1.344v5.404l4.55-5.404h1.218V225h-1.344v-5.404L136.269 225h-1.232v-7.42zm9.721 0h1.344v5.404l4.55-5.404h1.218V225h-1.344v-5.404L145.99 225h-1.232v-7.42zm3.472-.966c-.691 0-1.227-.163-1.61-.49-.383-.336-.579-.817-.588-1.442h.91c.009.345.126.625.35.84.233.205.541.308.924.308s.691-.103.924-.308c.233-.215.355-.495.364-.84h.938c-.009.625-.21 1.106-.602 1.442-.392.327-.929.49-1.61.49zm13.243 8.47c-.756 0-1.433-.163-2.03-.49a3.624 3.624 0 01-1.386-1.344c-.336-.579-.504-1.232-.504-1.96s.168-1.377.504-1.946a3.486 3.486 0 011.386-1.344c.597-.327 1.274-.49 2.03-.49.672 0 1.269.135 1.792.406a2.89 2.89 0 011.232 1.176l-1.022.658a2.285 2.285 0 00-.868-.798 2.482 2.482 0 00-1.148-.266c-.486 0-.924.107-1.316.322a2.345 2.345 0 00-.91.924c-.215.392-.322.845-.322 1.358 0 .523.107.985.322 1.386.224.392.527.695.91.91.392.215.83.322 1.316.322.42 0 .802-.089 1.148-.266.345-.177.634-.443.868-.798l1.022.644c-.29.513-.7.91-1.232 1.19-.523.271-1.12.406-1.792.406zm10.686-7.504V225h-1.344v-2.996c-.803.373-1.601.56-2.394.56-.924 0-1.638-.215-2.142-.644-.504-.429-.756-1.073-.756-1.932v-2.408h1.344v2.324c0 .513.158.901.476 1.162.326.261.779.392 1.358.392.653 0 1.358-.163 2.114-.49v-3.388h1.344zm9.315 3.752c0 .103-.01.238-.028.406h-6.02c.084.653.368 1.181.854 1.582.494.392 1.106.588 1.834.588.886 0 1.6-.299 2.142-.896l.742.868a3.237 3.237 0 01-1.26.896 4.316 4.316 0 01-1.666.308c-.784 0-1.48-.159-2.086-.476a3.537 3.537 0 01-1.414-1.358c-.327-.579-.49-1.232-.49-1.96 0-.719.158-1.367.476-1.946a3.464 3.464 0 011.33-1.344c.569-.327 1.208-.49 1.918-.49.709 0 1.339.163 1.89.49.56.317.994.765 1.302 1.344.317.579.476 1.241.476 1.988zm-3.668-2.688c-.644 0-1.186.196-1.624.588-.43.392-.682.905-.756 1.54h4.76c-.075-.625-.332-1.134-.77-1.526-.43-.401-.966-.602-1.61-.602zm-1.316-2.38a.711.711 0 01-.504-.196.704.704 0 01-.21-.518c0-.205.07-.378.21-.518.14-.14.308-.21.504-.21s.364.07.504.21c.14.14.21.313.21.518 0 .205-.07.378-.21.518a.711.711 0 01-.504.196zm2.604 0a.711.711 0 01-.504-.196.704.704 0 01-.21-.518c0-.205.07-.378.21-.518.14-.14.308-.21.504-.21s.364.07.504.21c.14.14.21.313.21.518 0 .205-.07.378-.21.518a.711.711 0 01-.504.196zm9.68 2.492h-2.716V225h-1.344v-6.244h-2.716v-1.176h6.776v1.176z" fill="#373943"/><path d="M119.5 272.75c0 2.733-1 5.083-3 7.05-2 1.933-4.883 3.133-8.65 3.6v5.6h-5v-5.45a27.202 27.202 0 01-7.05-1.3c-2.233-.733-4.033-1.633-5.4-2.7l2.75-6.1c1.267.933 2.75 1.717 4.45 2.35 1.7.633 3.45 1.033 5.25 1.2v-8.35c-2.367-.567-4.367-1.2-6-1.9s-3-1.717-4.1-3.05c-1.1-1.367-1.65-3.167-1.65-5.4 0-2.767 1-5.133 3-7.1 2.033-2 4.95-3.217 8.75-3.65V242h5v5.45c4.1.333 7.483 1.35 10.15 3.05l-2.5 6.15c-2.5-1.433-5.05-2.3-7.65-2.6v8.5c2.333.533 4.3 1.15 5.9 1.85 1.633.667 3 1.683 4.1 3.05 1.1 1.333 1.65 3.1 1.65 5.3zM99.15 257.9c0 .833.317 1.517.95 2.05.633.533 1.55.983 2.75 1.35v-7.1c-1.267.3-2.2.783-2.8 1.45a3.16 3.16 0 00-.9 2.25zm8.7 18.9c1.2-.267 2.1-.7 2.7-1.3.6-.6.9-1.317.9-2.15s-.317-1.517-.95-2.05c-.6-.533-1.483-1-2.65-1.4v6.9zm55.295-.4v6.6h-26.45v-5.25l13.5-12.75c1.433-1.367 2.4-2.533 2.9-3.5.5-1 .75-1.983.75-2.95 0-1.4-.483-2.467-1.45-3.2-.933-.767-2.317-1.15-4.15-1.15-1.533 0-2.917.3-4.15.9-1.233.567-2.267 1.433-3.1 2.6l-5.9-3.8c1.367-2.033 3.25-3.617 5.65-4.75 2.4-1.167 5.15-1.75 8.25-1.75 2.6 0 4.867.433 6.8 1.3 1.967.833 3.483 2.033 4.55 3.6 1.1 1.533 1.65 3.35 1.65 5.45 0 1.9-.4 3.683-1.2 5.35-.8 1.667-2.35 3.567-4.65 5.7l-8.05 7.6h15.05zm19.692-14.15c3.067.5 5.417 1.65 7.05 3.45 1.633 1.767 2.45 3.967 2.45 6.6 0 2.033-.533 3.917-1.6 5.65-1.067 1.7-2.7 3.067-4.9 4.1-2.167 1.033-4.833 1.55-8 1.55-2.467 0-4.9-.317-7.3-.95-2.367-.667-4.383-1.6-6.05-2.8l3.15-6.2c1.333 1 2.867 1.783 4.6 2.35 1.767.533 3.567.8 5.4.8 2.033 0 3.633-.383 4.8-1.15 1.167-.8 1.75-1.917 1.75-3.35 0-2.867-2.183-4.3-6.55-4.3h-3.7v-5.35l7.2-8.15h-14.9V248h24.5v5.25l-7.9 9zm39.4-1.1c4.933 0 8.567.983 10.9 2.95 2.367 1.967 3.55 4.6 3.55 7.9 0 2.133-.533 4.083-1.6 5.85-1.067 1.733-2.7 3.133-4.9 4.2-2.167 1.033-4.85 1.55-8.05 1.55-2.467 0-4.9-.317-7.3-.95-2.367-.667-4.383-1.6-6.05-2.8l3.2-6.2c1.333 1 2.867 1.783 4.6 2.35a18.1 18.1 0 005.35.8c2.033 0 3.633-.4 4.8-1.2 1.167-.8 1.75-1.917 1.75-3.35 0-1.5-.617-2.633-1.85-3.4-1.2-.767-3.3-1.15-6.3-1.15h-8.95l1.8-19.7h21.35v6.5h-14.6l-.55 6.65h2.85zm32.736 22.45c-2.9 0-5.483-.717-7.75-2.15-2.266-1.433-4.05-3.5-5.35-6.2-1.266-2.733-1.9-5.983-1.9-9.75 0-3.767.634-7 1.9-9.7 1.3-2.733 3.084-4.817 5.35-6.25 2.267-1.433 4.85-2.15 7.75-2.15 2.9 0 5.484.717 7.75 2.15 2.267 1.433 4.034 3.517 5.3 6.25 1.3 2.7 1.95 5.933 1.95 9.7 0 3.767-.65 7.017-1.95 9.75-1.266 2.7-3.033 4.767-5.3 6.2-2.266 1.433-4.85 2.15-7.75 2.15zm0-6.85c2.134 0 3.8-.917 5-2.75 1.234-1.833 1.85-4.667 1.85-8.5s-.616-6.667-1.85-8.5c-1.2-1.833-2.866-2.75-5-2.75-2.1 0-3.766.917-5 2.75-1.2 1.833-1.8 4.667-1.8 8.5s.6 6.667 1.8 8.5c1.234 1.833 2.9 2.75 5 2.75zm30.936-15.6c4.933 0 8.567.983 10.9 2.95 2.367 1.967 3.55 4.6 3.55 7.9 0 2.133-.533 4.083-1.6 5.85-1.067 1.733-2.7 3.133-4.9 4.2-2.167 1.033-4.85 1.55-8.05 1.55-2.467 0-4.9-.317-7.3-.95-2.367-.667-4.383-1.6-6.05-2.8l3.2-6.2c1.333 1 2.867 1.783 4.6 2.35a18.1 18.1 0 005.35.8c2.033 0 3.633-.4 4.8-1.2 1.167-.8 1.75-1.917 1.75-3.35 0-1.5-.617-2.633-1.85-3.4-1.2-.767-3.3-1.15-6.3-1.15h-8.95l1.8-19.7h21.35v6.5h-14.6l-.55 6.65h2.85z" fill="#24252E"/><path d="M94.398 338.112c-.99 0-1.88-.215-2.674-.644a4.919 4.919 0 01-1.876-1.806c-.448-.765-.672-1.619-.672-2.562 0-.943.224-1.797.672-2.562a4.812 4.812 0 011.876-1.792c.793-.439 1.685-.658 2.674-.658.98 0 1.867.219 2.66.658a4.713 4.713 0 011.862 1.792c.448.756.672 1.61.672 2.562 0 .952-.224 1.811-.672 2.576a4.846 4.846 0 01-1.862 1.792c-.793.429-1.68.644-2.66.644zm0-1.246c.719 0 1.363-.163 1.932-.49a3.55 3.55 0 001.358-1.344 3.779 3.779 0 00.504-1.932c0-.709-.168-1.349-.504-1.918a3.517 3.517 0 00-1.358-1.358c-.57-.327-1.213-.49-1.932-.49-.719 0-1.372.163-1.96.49a3.616 3.616 0 00-1.372 1.358 3.784 3.784 0 00-.49 1.918c0 .709.163 1.353.49 1.932a3.652 3.652 0 001.372 1.344c.588.327 1.241.49 1.96.49zm11.013-6.034c.691 0 1.307.154 1.848.462a3.22 3.22 0 011.26 1.288c.308.541.462 1.162.462 1.862 0 .719-.163 1.358-.49 1.918-.317.551-.77.98-1.358 1.288-.579.308-1.241.462-1.988.462-1.26 0-2.235-.429-2.926-1.288-.681-.868-1.022-2.086-1.022-3.654 0-1.521.313-2.711.938-3.57.625-.868 1.582-1.442 2.87-1.722l3.388-.756.196 1.232-3.122.672c-.971.215-1.694.579-2.17 1.092-.476.513-.747 1.251-.812 2.212a3.26 3.26 0 011.232-1.106 3.63 3.63 0 011.694-.392zm-.238 6.16a2.43 2.43 0 001.26-.322c.373-.215.663-.509.868-.882.205-.383.308-.817.308-1.302 0-.737-.224-1.33-.672-1.778-.448-.448-1.036-.672-1.764-.672s-1.321.224-1.778.672c-.448.448-.672 1.041-.672 1.778 0 .485.103.919.308 1.302.215.373.509.667.882.882.373.215.793.322 1.26.322zm16.298-6.412V338h-10.57v-7.42h1.344v6.244h3.276v-6.244h1.344v6.244h3.262v-6.244h1.344zm1.106 6.244v2.758h-1.26V338h-1.246v-1.176h2.506zm1.503-6.244h1.344v5.404l4.55-5.404h1.218V338h-1.344v-5.404L125.312 338h-1.232v-7.42zm9.721 0h1.344v5.404l4.55-5.404h1.218V338h-1.344v-5.404L135.033 338h-1.232v-7.42zm3.472-.966c-.691 0-1.227-.163-1.61-.49-.383-.336-.579-.817-.588-1.442h.91c.009.345.126.625.35.84.233.205.541.308.924.308s.691-.103.924-.308c.233-.215.355-.495.364-.84h.938c-.009.625-.21 1.106-.602 1.442-.392.327-.929.49-1.61.49zm17.554 7.21v2.898h-1.26V338h-6.202v1.722h-1.274v-2.898h.392c.476-.028.803-.364.98-1.008.178-.644.299-1.554.364-2.73l.112-2.506h5.754v6.244h1.134zm-5.768-3.64c-.037.933-.116 1.708-.238 2.324-.112.607-.322 1.045-.63 1.316h4.158v-5.068h-3.22l-.07 1.428zm10.697 4.9c-.737 0-1.4-.163-1.988-.49a3.624 3.624 0 01-1.386-1.344c-.326-.579-.49-1.232-.49-1.96s.164-1.377.49-1.946a3.486 3.486 0 011.386-1.344c.588-.327 1.251-.49 1.988-.49.738 0 1.396.163 1.974.49a3.388 3.388 0 011.372 1.344c.336.569.504 1.218.504 1.946s-.168 1.381-.504 1.96a3.518 3.518 0 01-1.372 1.344c-.578.327-1.236.49-1.974.49zm0-1.176c.476 0 .901-.107 1.274-.322.383-.224.682-.532.896-.924a2.86 2.86 0 00.322-1.372c0-.513-.107-.966-.322-1.358a2.249 2.249 0 00-.896-.924 2.505 2.505 0 00-1.274-.322c-.476 0-.905.107-1.288.322a2.379 2.379 0 00-.896.924c-.214.392-.322.845-.322 1.358 0 .513.108.971.322 1.372.224.392.523.7.896.924.383.215.812.322 1.288.322zM169.935 338l-2.142-2.842-2.17 2.842h-1.498l2.926-3.794-2.786-3.626h1.498l2.044 2.674 2.03-2.674h1.47l-2.8 3.626 2.954 3.794h-1.526zm5.872.084c-.737 0-1.4-.163-1.988-.49a3.624 3.624 0 01-1.386-1.344c-.327-.579-.49-1.232-.49-1.96s.163-1.377.49-1.946a3.486 3.486 0 011.386-1.344c.588-.327 1.251-.49 1.988-.49.737 0 1.395.163 1.974.49a3.394 3.394 0 011.372 1.344c.336.569.504 1.218.504 1.946s-.168 1.381-.504 1.96a3.525 3.525 0 01-1.372 1.344c-.579.327-1.237.49-1.974.49zm0-1.176c.476 0 .901-.107 1.274-.322.383-.224.681-.532.896-.924a2.86 2.86 0 00.322-1.372c0-.513-.107-.966-.322-1.358a2.255 2.255 0 00-.896-.924 2.505 2.505 0 00-1.274-.322c-.476 0-.905.107-1.288.322a2.379 2.379 0 00-.896.924c-.215.392-.322.845-.322 1.358 0 .513.107.971.322 1.372.224.392.523.7.896.924.383.215.812.322 1.288.322zm13.282-.084v2.898h-1.26V338h-6.202v1.722h-1.274v-2.898h.392c.476-.028.803-.364.98-1.008.178-.644.299-1.554.364-2.73l.112-2.506h5.754v6.244h1.134zm-5.768-3.64c-.037.933-.116 1.708-.238 2.324-.112.607-.322 1.045-.63 1.316h4.158v-5.068h-3.22l-.07 1.428z" fill="#373943"/><path d="M100.912 367.064h-4.176v4.08H93.64v-4.08h-4.152v-2.928h4.152v-4.08h3.096v4.08h4.176v2.928zm9.77-3.024c1.472.24 2.6.792 3.384 1.656.784.848 1.176 1.904 1.176 3.168 0 .976-.256 1.88-.768 2.712-.512.816-1.296 1.472-2.352 1.968-1.04.496-2.32.744-3.84.744-1.184 0-2.352-.152-3.504-.456-1.136-.32-2.104-.768-2.904-1.344l1.512-2.976c.64.48 1.376.856 2.208 1.128a8.922 8.922 0 002.592.384c.976 0 1.744-.184 2.304-.552.56-.384.84-.92.84-1.608 0-1.376-1.048-2.064-3.144-2.064h-1.776v-2.568l3.456-3.912h-7.152v-3.12h11.76v2.52l-3.792 4.32zm18.912-.528c2.368 0 4.112.472 5.232 1.416 1.136.944 1.704 2.208 1.704 3.792a5.33 5.33 0 01-.768 2.808c-.512.832-1.296 1.504-2.352 2.016-1.04.496-2.328.744-3.864.744-1.184 0-2.352-.152-3.504-.456-1.136-.32-2.104-.768-2.904-1.344l1.536-2.976c.64.48 1.376.856 2.208 1.128a8.683 8.683 0 002.568.384c.976 0 1.744-.192 2.304-.576.56-.384.84-.92.84-1.608 0-.72-.296-1.264-.888-1.632-.576-.368-1.584-.552-3.024-.552h-4.296l.864-9.456h10.248v3.12h-7.008l-.264 3.192h1.368zm14.157 0c2.368 0 4.112.472 5.232 1.416 1.136.944 1.704 2.208 1.704 3.792a5.33 5.33 0 01-.768 2.808c-.512.832-1.296 1.504-2.352 2.016-1.04.496-2.328.744-3.864.744-1.184 0-2.352-.152-3.504-.456-1.136-.32-2.104-.768-2.904-1.344l1.536-2.976c.64.48 1.376.856 2.208 1.128a8.683 8.683 0 002.568.384c.976 0 1.744-.192 2.304-.576.56-.384.84-.92.84-1.608 0-.72-.296-1.264-.888-1.632-.576-.368-1.584-.552-3.024-.552h-4.296l.864-9.456h10.248v3.12h-7.008l-.264 3.192h1.368zm16.244.528c1.472.24 2.6.792 3.384 1.656.784.848 1.176 1.904 1.176 3.168 0 .976-.256 1.88-.768 2.712-.512.816-1.296 1.472-2.352 1.968-1.04.496-2.32.744-3.84.744-1.184 0-2.352-.152-3.504-.456-1.136-.32-2.104-.768-2.904-1.344l1.512-2.976c.64.48 1.376.856 2.208 1.128a8.922 8.922 0 002.592.384c.976 0 1.744-.184 2.304-.552.56-.384.84-.92.84-1.608 0-1.376-1.048-2.064-3.144-2.064h-1.776v-2.568l3.456-3.912h-7.152v-3.12h11.76v2.52l-3.792 4.32zm8.587 5.496c.672 0 1.224.216 1.656.648.432.416.648.968.648 1.656 0 .32-.04.64-.12.96-.08.32-.256.8-.528 1.44l-1.368 3.456h-2.376l1.056-3.816c-.4-.16-.72-.416-.96-.768a2.397 2.397 0 01-.336-1.272c0-.688.216-1.24.648-1.656.448-.432 1.008-.648 1.68-.648zm16.836 1.296V374h-12.696v-2.52l6.48-6.12c.688-.656 1.152-1.216 1.392-1.68.24-.48.36-.952.36-1.416 0-.672-.232-1.184-.696-1.536-.448-.368-1.112-.552-1.992-.552-.736 0-1.4.144-1.992.432a3.718 3.718 0 00-1.488 1.248l-2.832-1.824c.656-.976 1.56-1.736 2.712-2.28 1.152-.56 2.472-.84 3.96-.84 1.248 0 2.336.208 3.264.624.944.4 1.672.976 2.184 1.728.528.736.792 1.608.792 2.616 0 .912-.192 1.768-.576 2.568-.384.8-1.128 1.712-2.232 2.736l-3.864 3.648h7.224zm7.508-13.92c2.352 0 4.192.72 5.52 2.16 1.328 1.424 1.992 3.48 1.992 6.168 0 1.904-.36 3.536-1.08 4.896-.704 1.36-1.704 2.392-3 3.096-1.296.704-2.792 1.056-4.488 1.056a11.18 11.18 0 01-2.568-.288c-.816-.208-1.512-.496-2.088-.864l1.44-2.856c.816.56 1.864.84 3.144.84 1.424 0 2.552-.416 3.384-1.248.832-.848 1.28-2.064 1.344-3.648-1.008 1.008-2.4 1.512-4.176 1.512-1.072 0-2.048-.216-2.928-.648a5.146 5.146 0 01-2.088-1.824c-.512-.8-.768-1.72-.768-2.76 0-1.12.28-2.104.84-2.952.56-.848 1.32-1.496 2.28-1.944.976-.464 2.056-.696 3.24-.696zm.288 7.92c.848 0 1.536-.232 2.064-.696.544-.48.816-1.088.816-1.824s-.264-1.336-.792-1.8c-.512-.464-1.224-.696-2.136-.696-.832 0-1.512.224-2.04.672-.512.448-.768 1.056-.768 1.824s.256 1.384.768 1.848c.528.448 1.224.672 2.088.672zm19.702 13.824c-.96-1.456-1.704-3.144-2.232-5.064-.512-1.92-.768-3.976-.768-6.168s.256-4.248.768-6.168c.528-1.936 1.272-3.624 2.232-5.064h3.576c-1.008 1.776-1.744 3.584-2.208 5.424-.464 1.824-.696 3.76-.696 5.808s.232 3.992.696 5.832c.464 1.824 1.2 3.624 2.208 5.4h-3.576zm16.738-11.592h-4.176v4.08h-3.096v-4.08h-4.152v-2.928h4.152v-4.08h3.096v4.08h4.176v2.928zm10.573-3.6c1.072 0 2.048.216 2.928.648a5.086 5.086 0 012.088 1.848c.512.784.768 1.696.768 2.736 0 1.12-.28 2.104-.84 2.952-.56.848-1.328 1.504-2.304 1.968-.96.448-2.032.672-3.216.672-2.352 0-4.192-.72-5.52-2.16-1.328-1.44-1.992-3.496-1.992-6.168 0-1.904.36-3.536 1.08-4.896.72-1.36 1.72-2.392 3-3.096 1.296-.704 2.792-1.056 4.488-1.056.896 0 1.752.104 2.568.312.832.192 1.536.472 2.112.84l-1.44 2.856c-.832-.56-1.88-.84-3.144-.84-1.424 0-2.552.416-3.384 1.248-.832.832-1.28 2.04-1.344 3.624.992-.992 2.376-1.488 4.152-1.488zm-.792 7.92c.832 0 1.504-.224 2.016-.672.528-.448.792-1.056.792-1.824s-.264-1.376-.792-1.824c-.512-.464-1.2-.696-2.064-.696-.848 0-1.544.24-2.088.72-.544.464-.816 1.064-.816 1.8s.264 1.336.792 1.8c.528.464 1.248.696 2.16.696zm10.452-1.848c.672 0 1.224.216 1.656.648.432.416.648.968.648 1.656 0 .32-.04.64-.12.96-.08.32-.256.8-.528 1.44l-1.368 3.456h-2.376l1.056-3.816c-.4-.16-.72-.416-.96-.768a2.397 2.397 0 01-.336-1.272c0-.688.216-1.24.648-1.656.448-.432 1.008-.648 1.68-.648zm15.779-4.368c.832.416 1.464.96 1.896 1.632.448.672.672 1.448.672 2.328 0 1.04-.296 1.952-.888 2.736-.592.768-1.424 1.368-2.496 1.8-1.072.416-2.312.624-3.72.624-1.408 0-2.648-.208-3.72-.624-1.056-.432-1.88-1.032-2.472-1.8-.576-.784-.864-1.696-.864-2.736 0-.88.216-1.656.648-2.328.448-.672 1.08-1.216 1.896-1.632-.624-.384-1.104-.864-1.44-1.44-.336-.592-.504-1.264-.504-2.016 0-.976.272-1.824.816-2.544.544-.72 1.304-1.272 2.28-1.656.976-.4 2.096-.6 3.36-.6 1.28 0 2.408.2 3.384.6.992.384 1.76.936 2.304 1.656.544.72.816 1.568.816 2.544 0 .752-.168 1.424-.504 2.016-.336.576-.824 1.056-1.464 1.44zm-4.536-5.4c-.784 0-1.416.192-1.896.576-.464.368-.696.88-.696 1.536 0 .64.232 1.144.696 1.512.464.368 1.096.552 1.896.552.8 0 1.44-.184 1.92-.552.48-.368.72-.872.72-1.512 0-.656-.24-1.168-.72-1.536-.48-.384-1.12-.576-1.92-.576zm0 11.664c.976 0 1.744-.216 2.304-.648.576-.448.864-1.04.864-1.776s-.288-1.32-.864-1.752c-.56-.432-1.328-.648-2.304-.648-.96 0-1.72.216-2.28.648-.56.432-.84 1.016-.84 1.752 0 .752.28 1.344.84 1.776.56.432 1.32.648 2.28.648zm16.732-7.392c1.472.24 2.6.792 3.384 1.656.784.848 1.176 1.904 1.176 3.168 0 .976-.256 1.88-.768 2.712-.512.816-1.296 1.472-2.352 1.968-1.04.496-2.32.744-3.84.744-1.184 0-2.352-.152-3.504-.456-1.136-.32-2.104-.768-2.904-1.344l1.512-2.976c.64.48 1.376.856 2.208 1.128a8.922 8.922 0 002.592.384c.976 0 1.744-.184 2.304-.552.56-.384.84-.92.84-1.608 0-1.376-1.048-2.064-3.144-2.064h-1.776v-2.568l3.456-3.912h-7.152v-3.12h11.76v2.52l-3.792 4.32zm10.009 2.232c-1.232 0-2.24-.416-3.024-1.248-.768-.848-1.152-1.976-1.152-3.384s.384-2.528 1.152-3.36c.784-.848 1.792-1.272 3.024-1.272s2.232.424 3 1.272c.768.832 1.152 1.952 1.152 3.36s-.384 2.536-1.152 3.384c-.768.832-1.768 1.248-3 1.248zm10.008-9.072h2.856L289.263 374h-2.856l11.472-16.8zm-10.008 7.104c.544 0 .968-.224 1.272-.672.32-.448.48-1.112.48-1.992 0-.88-.16-1.544-.48-1.992-.304-.448-.728-.672-1.272-.672-.528 0-.952.232-1.272.696-.32.448-.48 1.104-.48 1.968 0 .864.16 1.528.48 1.992.32.448.744.672 1.272.672zm11.4 9.888c-.8 0-1.52-.184-2.16-.552-.624-.384-1.112-.928-1.464-1.632-.352-.704-.528-1.52-.528-2.448 0-.928.176-1.744.528-2.448.352-.704.84-1.24 1.464-1.608.64-.384 1.36-.576 2.16-.576 1.232 0 2.232.424 3 1.272.784.832 1.176 1.952 1.176 3.36s-.392 2.536-1.176 3.384c-.768.832-1.768 1.248-3 1.248zm0-1.968c.544 0 .968-.224 1.272-.672.32-.464.48-1.128.48-1.992 0-.864-.16-1.52-.48-1.968-.304-.464-.728-.696-1.272-.696-.528 0-.952.224-1.272.672-.32.448-.48 1.112-.48 1.992 0 .88.16 1.544.48 1.992.32.448.744.672 1.272.672zm4.594 6.432c1.008-1.776 1.744-3.576 2.208-5.4.48-1.84.72-3.784.72-5.832s-.24-3.984-.72-5.808c-.464-1.84-1.2-3.648-2.208-5.424h3.576c.976 1.424 1.72 3.104 2.232 5.04.528 1.92.792 3.984.792 6.192s-.256 4.272-.768 6.192c-.512 1.904-1.264 3.584-2.256 5.04h-3.576z" fill="#199F27"/><g filter="url(#filter1_d)"><path fill="#fff" d="M72 28h375v70H72z"/></g><path fill="#EAF1FE" d="M72 28h375v70H72z"/><path opacity=".86" fill="url(#paint0_linear)" d="M72 28h375v70H72z"/><g clip-path="url(#clip1)"><path d="M427.115 53.31A13.976 13.976 0 00416.996 49c-7.72-.01-13.986 6.24-13.996 13.96a13.98 13.98 0 004.308 10.112c.008.008.011.02.019.027.081.078.169.144.251.219.225.2.45.407.687.6.127.1.259.2.389.292.224.167.448.334.681.488.159.1.323.2.486.3.216.13.431.26.654.38.189.1.382.185.574.276.21.1.417.2.632.29.215.09.431.16.648.238.218.078.406.15.615.214.236.07.478.126.718.185.2.049.394.105.6.145.276.055.556.09.836.128.173.024.341.058.516.075.458.045.92.07 1.386.07.466 0 .928-.025 1.385-.07.175-.017.344-.051.517-.075.28-.038.56-.073.836-.128.2-.04.4-.1.6-.145.24-.06.482-.114.718-.185.208-.064.41-.142.614-.214.204-.072.436-.15.649-.238.213-.088.422-.19.632-.29.192-.09.385-.177.574-.277.223-.119.438-.25.653-.38.163-.1.327-.19.486-.3.234-.153.458-.32.682-.487.13-.1.262-.19.389-.292.237-.19.462-.392.687-.6.082-.075.17-.14.251-.219.008-.007.011-.019.019-.027 5.574-5.34 5.764-14.19.423-19.764zm-2.247 18.716a11.067 11.067 0 01-.898.712 11.143 11.143 0 01-.967.627c-.176.1-.355.2-.536.3a13.646 13.646 0 01-1.008.463c-.177.07-.365.138-.55.2-.169.058-.338.118-.509.169-.2.06-.409.109-.616.159-.162.037-.322.08-.486.113-.237.045-.479.078-.722.11-.137.018-.274.043-.413.057-.384.037-.773.06-1.166.06-.393 0-.782-.022-1.166-.06-.139-.014-.276-.039-.414-.057a13.035 13.035 0 01-.721-.11c-.164-.032-.324-.075-.486-.113-.207-.05-.413-.1-.616-.16-.171-.05-.34-.11-.509-.168a15.54 15.54 0 01-.55-.2c-.18-.071-.349-.15-.521-.228a9.182 9.182 0 01-1.023-.535 12.566 12.566 0 01-.967-.627 12.12 12.12 0 01-.899-.712c-.043-.033-.084-.075-.126-.113a8.02 8.02 0 015.451-7.492 5.926 5.926 0 005.092 0 8.02 8.02 0 015.451 7.492c-.042.038-.082.076-.125.113zm-11.358-15.01a3.998 3.998 0 115.445 5.446c-.005 0-.011 0-.017.005a4.236 4.236 0 01-.835.354c-.052.015-.1.035-.155.048-.1.026-.205.044-.308.062a4.04 4.04 0 01-.587.06h-.114a4.04 4.04 0 01-.587-.06c-.1-.018-.206-.036-.308-.062-.053-.013-.1-.033-.155-.048a4.236 4.236 0 01-.835-.353l-.018-.007a4 4 0 01-1.526-5.445zm13.257 12.915a10.049 10.049 0 00-5.352-6.89 5.998 5.998 0 10-8.838 0 10.049 10.049 0 00-5.352 6.89c-3.833-5.4-2.563-12.884 2.836-16.718 5.4-3.833 12.884-2.563 16.718 2.836a11.992 11.992 0 012.213 6.947 11.92 11.92 0 01-2.225 6.935z" fill="#3E54D8"/></g><rect x="88.5" y="43.5" width="39" height="39" rx="7.5" fill="#fff"/><path stroke="#3E54D8" stroke-width="2" stroke-linecap="round" d="M96 67h16m-16-8h24"/><rect x="88.5" y="43.5" width="39" height="39" rx="7.5" stroke="#E6EEFF"/><path stroke="#fff" stroke-opacity=".3" d="M72 97.5h375"/><g opacity=".9"><path d="M179.61 56.523c1.041.33 1.857.885 2.447 1.666.59.764.885 1.71.885 2.838 0 1.597-.625 2.83-1.874 3.697-1.233.85-3.038 1.276-5.416 1.276h-9.425V47.775h8.905c2.221 0 3.922.425 5.103 1.276 1.197.85 1.796 2.005 1.796 3.462 0 .886-.217 1.675-.651 2.37-.416.694-1.007 1.24-1.77 1.64zm-9.191-5.572v4.296h4.192c1.041 0 1.831-.182 2.369-.547.538-.364.807-.902.807-1.614 0-.711-.269-1.24-.807-1.588-.538-.364-1.328-.547-2.369-.547h-4.192zm4.921 11.873c1.111 0 1.944-.183 2.499-.547.573-.365.859-.929.859-1.692 0-1.51-1.119-2.266-3.358-2.266h-4.921v4.505h4.921zm24.23-3.776c0 .052-.026.417-.078 1.094h-10.597a3.303 3.303 0 001.354 2.057c.712.503 1.597.755 2.656.755.729 0 1.371-.104 1.926-.313a4.84 4.84 0 001.589-1.041l2.161 2.343c-1.32 1.51-3.246 2.265-5.78 2.265-1.58 0-2.977-.303-4.192-.911-1.215-.625-2.152-1.484-2.812-2.578-.66-1.093-.989-2.334-.989-3.723 0-1.37.321-2.603.963-3.697a6.834 6.834 0 012.682-2.577c1.145-.625 2.421-.938 3.827-.938 1.371 0 2.612.296 3.723.886a6.356 6.356 0 012.604 2.551c.642 1.094.963 2.37.963 3.828zm-7.264-4.191c-.92 0-1.692.26-2.317.78-.625.521-1.007 1.233-1.146 2.136h6.9c-.139-.886-.521-1.589-1.146-2.11-.625-.537-1.388-.806-2.291-.806zm15.236-3.072c2.17 0 3.836.52 4.999 1.562 1.163 1.024 1.745 2.577 1.745 4.66V66h-3.802v-1.744c-.763 1.301-2.187 1.952-4.269 1.952-1.077 0-2.014-.182-2.812-.546-.781-.365-1.38-.868-1.797-1.51-.416-.643-.625-1.372-.625-2.188 0-1.301.486-2.325 1.458-3.072.99-.746 2.508-1.12 4.557-1.12h3.228c0-.884-.269-1.561-.807-2.03-.538-.486-1.345-.73-2.421-.73-.747 0-1.484.122-2.213.365-.712.226-1.32.538-1.823.938l-1.458-2.838c.764-.538 1.675-.955 2.734-1.25a12.443 12.443 0 013.306-.442zm-.312 11.69c.694 0 1.31-.157 1.848-.47.539-.329.92-.806 1.146-1.431v-1.432h-2.786c-1.666 0-2.499.547-2.499 1.64 0 .52.199.938.599 1.25.416.295.98.443 1.692.443zm19.766 1.848c-.399.295-.894.52-1.484.677a7.713 7.713 0 01-1.823.208c-1.666 0-2.959-.425-3.879-1.275-.902-.851-1.354-2.1-1.354-3.75V55.43h-2.161v-3.124h2.161v-3.41h4.062v3.41h3.489v3.124h-3.489v5.702c0 .59.147 1.05.442 1.38.313.313.747.469 1.302.469.642 0 1.189-.174 1.64-.52l1.094 2.863z" fill="#3E54D8"/><path d="M246.147 66l-.026-10.935-5.363 9.008h-1.901L233.52 55.3V66h-3.958V47.775h3.489l6.821 11.325 6.718-11.325h3.462L250.104 66h-3.957zm13.645-14.215c2.169 0 3.836.52 4.999 1.562 1.163 1.024 1.744 2.577 1.744 4.66V66h-3.801v-1.744c-.764 1.301-2.187 1.952-4.27 1.952-1.076 0-2.013-.182-2.812-.546-.781-.365-1.38-.868-1.796-1.51-.417-.643-.625-1.372-.625-2.188 0-1.301.486-2.325 1.458-3.072.989-.746 2.508-1.12 4.556-1.12h3.228c0-.884-.269-1.561-.807-2.03-.538-.486-1.345-.73-2.421-.73a6.96 6.96 0 00-2.213.365c-.712.226-1.319.538-1.823.938l-1.458-2.838c.764-.538 1.675-.955 2.734-1.25a12.45 12.45 0 013.307-.442zm-.313 11.69c.695 0 1.311-.157 1.849-.47.538-.329.92-.806 1.145-1.431v-1.432h-2.785c-1.667 0-2.5.547-2.5 1.64 0 .52.2.938.599 1.25.417.295.981.443 1.692.443zm14.611-9.634c.486-.677 1.137-1.189 1.953-1.536.833-.347 1.788-.52 2.864-.52v3.749a14.643 14.643 0 00-.911-.052c-1.163 0-2.075.33-2.734.989-.66.642-.989 1.614-.989 2.916V66h-4.062V51.993h3.879v1.848zm13.246 6.666l-1.953 1.926V66h-4.061V46.681h4.061v10.936l5.937-5.624h4.842l-5.832 5.936L296.683 66h-4.921l-4.426-5.493zm24.284-1.459c0 .052-.026.417-.078 1.094h-10.596a3.3 3.3 0 001.353 2.057c.712.503 1.597.755 2.656.755.729 0 1.371-.104 1.927-.313a4.847 4.847 0 001.588-1.041l2.161 2.343c-1.319 1.51-3.246 2.265-5.78 2.265-1.58 0-2.977-.303-4.192-.911-1.215-.625-2.152-1.484-2.812-2.578-.659-1.093-.989-2.334-.989-3.723 0-1.37.321-2.603.963-3.697a6.84 6.84 0 012.682-2.577c1.145-.625 2.421-.938 3.827-.938 1.371 0 2.612.296 3.723.886a6.356 6.356 0 012.604 2.551c.642 1.094.963 2.37.963 3.828zm-7.264-4.191c-.92 0-1.692.26-2.317.78-.625.521-1.007 1.233-1.146 2.136h6.9c-.139-.886-.521-1.589-1.146-2.11-.625-.537-1.388-.806-2.291-.806zm19.003 10.466c-.4.295-.894.52-1.484.677a7.719 7.719 0 01-1.823.208c-1.666 0-2.959-.425-3.879-1.275-.903-.851-1.354-2.1-1.354-3.75V55.43h-2.161v-3.124h2.161v-3.41h4.061v3.41h3.489v3.124h-3.489v5.702c0 .59.148 1.05.443 1.38.312.313.746.469 1.302.469.642 0 1.189-.174 1.64-.52l1.094 2.863z" fill="#ED6373"/></g><path d="M170.645 76.005v5.063h-.528v-4.6h-3.203v4.6h-.528v-5.063h4.259zm4.551 1.259v3.804h-.514v-3.349h-1.822l-.051.94c-.038.791-.13 1.399-.275 1.823-.144.424-.402.636-.774.636-.101 0-.224-.019-.368-.057l.036-.442c.087.02.147.03.181.03a.485.485 0 00.448-.275 1.88 1.88 0 00.202-.68c.034-.27.063-.627.087-1.07l.065-1.36h2.785zm2.624-.03c.496 0 .877.126 1.142.377.266.246.398.612.398 1.1v2.357h-.492v-.593a1.166 1.166 0 01-.513.463c-.222.11-.487.166-.796.166-.424 0-.761-.101-1.012-.304a.98.98 0 01-.376-.802.98.98 0 01.347-.782c.236-.197.61-.296 1.121-.296h1.208v-.231c0-.328-.092-.577-.275-.745-.183-.174-.451-.26-.803-.26-.241 0-.472.04-.694.122a1.695 1.695 0 00-.571.326l-.232-.384c.193-.164.424-.289.694-.376.27-.091.555-.137.854-.137zm-.181 3.465c.289 0 .538-.065.745-.195.207-.135.362-.328.463-.579v-.622h-1.194c-.65 0-.976.227-.976.68 0 .222.085.398.253.528.169.125.405.188.709.188zm5.619-2.98h-1.439v3.349h-.513v-3.349h-1.439v-.455h3.391v.455zm5.014 1.44c0 .593-.195 1.058-.586 1.395-.39.338-.942.521-1.656.55v1.367h-.499v-1.36c-.709-.029-1.258-.212-1.649-.55-.386-.342-.578-.81-.578-1.402 0-.589.192-1.05.578-1.382.391-.332.94-.513 1.649-.542v-1.533h.499v1.533c.714.034 1.266.217 1.656.55.391.332.586.79.586 1.374zm-4.462 0c0 .453.144.807.434 1.063.294.255.723.4 1.287.434V77.69c-.559.03-.986.172-1.28.427-.294.25-.441.598-.441 1.042zm2.22 1.497c.564-.03.993-.172 1.287-.427.299-.256.449-.612.449-1.07 0-.449-.15-.798-.449-1.05-.294-.25-.723-.39-1.287-.418v2.965zm4.753.448c-.367 0-.697-.082-.991-.246a1.84 1.84 0 01-.694-.694 1.967 1.967 0 01-.253-.998c0-.371.084-.704.253-.998.168-.294.4-.523.694-.687a2 2 0 01.991-.246c.366 0 .696.082.991.246.294.164.523.393.687.687.168.294.253.627.253.998s-.085.704-.253.998a1.794 1.794 0 01-.687.694 2.004 2.004 0 01-.991.246zm0-.456c.27 0 .511-.06.723-.18.217-.126.386-.302.506-.528a1.62 1.62 0 00.181-.774c0-.29-.06-.547-.181-.774-.12-.227-.289-.4-.506-.52a1.393 1.393 0 00-.723-.189c-.27 0-.514.063-.731.188a1.31 1.31 0 00-.506.521c-.12.227-.181.484-.181.774 0 .29.061.547.181.774.125.226.294.402.506.528.217.12.461.18.731.18zm4.843-3.413c.357 0 .68.082.97.246.289.159.515.385.679.68.164.294.246.629.246 1.005 0 .38-.082.718-.246 1.012-.164.294-.39.523-.679.687-.285.16-.608.239-.97.239-.308 0-.588-.063-.839-.188a1.624 1.624 0 01-.607-.564v2.119h-.513v-5.207h.491v.752a1.6 1.6 0 01.608-.579 1.81 1.81 0 01.86-.202zm-.036 3.413c.265 0 .507-.06.723-.18.217-.126.386-.302.507-.528.125-.227.188-.485.188-.774 0-.29-.063-.545-.188-.767a1.307 1.307 0 00-.507-.528 1.416 1.416 0 00-.723-.188c-.27 0-.513.063-.73.188a1.366 1.366 0 00-.506.528 1.575 1.575 0 00-.181.767c0 .29.06.547.181.774.125.226.294.402.506.528.217.12.46.18.73.18zm7.142-3.384v3.804h-.47v-3.009l-1.54 2.546h-.232l-1.54-2.553v3.016h-.47v-3.804h.521l1.612 2.74 1.642-2.74h.477zm2.626-.03c.497 0 .877.126 1.143.377.265.246.397.612.397 1.1v2.357h-.491v-.593a1.174 1.174 0 01-.514.463c-.222.11-.487.166-.795.166-.425 0-.762-.101-1.013-.304a.98.98 0 01-.376-.802.98.98 0 01.347-.782c.236-.197.61-.296 1.121-.296h1.208v-.231c0-.328-.092-.577-.275-.745-.183-.174-.451-.26-.803-.26-.241 0-.472.04-.694.122a1.695 1.695 0 00-.571.326l-.232-.384a2.01 2.01 0 01.695-.376c.27-.091.554-.137.853-.137zm-.181 3.465c.289 0 .538-.065.745-.195.207-.135.362-.328.463-.579v-.622h-1.193c-.651 0-.977.227-.977.68 0 .222.085.398.253.528.169.125.405.188.709.188zm2.647-1.815h1.895v.448h-1.895v-.448zm6.327-1.62v3.804h-.513v-3.349h-2.387v3.349h-.514v-3.804h3.414zm2.884 3.84c-.366 0-.696-.082-.99-.246a1.85 1.85 0 01-.695-.694 1.977 1.977 0 01-.253-.998c0-.371.085-.704.253-.998a1.8 1.8 0 01.695-.687c.294-.164.624-.246.99-.246a2 2 0 01.991.246c.294.164.523.393.687.687.169.294.253.627.253.998s-.084.704-.253.998a1.794 1.794 0 01-.687.694 1.998 1.998 0 01-.991.246zm0-.456c.27 0 .512-.06.724-.18.217-.126.385-.302.506-.528a1.63 1.63 0 00.181-.774c0-.29-.061-.547-.181-.774a1.257 1.257 0 00-.506-.52 1.397 1.397 0 00-.724-.189c-.27 0-.513.063-.73.188a1.31 1.31 0 00-.506.521 1.617 1.617 0 00-.181.774c0 .29.06.547.181.774.125.226.294.402.506.528.217.12.46.18.73.18zm7.137-3.384v3.804h-.47v-3.009l-1.541 2.546h-.231l-1.541-2.553v3.016h-.47v-3.804h.521l1.613 2.74 1.641-2.74h.478zm2.886 3.84c-.367 0-.697-.082-.991-.246a1.84 1.84 0 01-.694-.694 1.967 1.967 0 01-.254-.998c0-.371.085-.704.254-.998.168-.294.4-.523.694-.687a2 2 0 01.991-.246c.366 0 .696.082.99.246.295.164.524.393.687.687.169.294.254.627.254.998s-.085.704-.254.998a1.78 1.78 0 01-.687.694 1.997 1.997 0 01-.99.246zm0-.456c.27 0 .511-.06.723-.18.217-.126.386-.302.506-.528a1.62 1.62 0 00.181-.774c0-.29-.06-.547-.181-.774-.12-.227-.289-.4-.506-.52a1.393 1.393 0 00-.723-.189c-.27 0-.514.063-.731.188a1.31 1.31 0 00-.506.521 1.617 1.617 0 00-.181.774c0 .29.06.547.181.774.125.226.294.402.506.528.217.12.461.18.731.18zm8.134-3.384v3.804h-5.251v-3.804h.514v3.356h1.866v-3.356h.513v3.356h1.844v-3.356h.514zm.586 3.356v1.28h-.485v-.832h-.644v-.448h1.129zm.735-3.356h.514v1.685h2.394v-1.685h.513v3.804h-.513V79.39h-2.394v1.678h-.514v-3.804zm4.736 0h.513v3.023l2.539-3.023h.456v3.804h-.514v-3.023l-2.531 3.023h-.463v-3.804zm6.216 2.112h-.868v1.692h-.514v-3.804h.514v1.67h.875l1.338-1.67h.557l-1.497 1.844 1.605 1.96h-.607l-1.403-1.692zm4.424-2.112h.514v1.685h2.394v-1.685h.513v3.804h-.513V79.39h-2.394v1.678h-.514v-3.804zm6.045-.03c.496 0 .877.126 1.143.377.265.246.397.612.397 1.1v2.357h-.491v-.593a1.174 1.174 0 01-.514.463c-.222.11-.487.166-.795.166-.425 0-.762-.101-1.013-.304a.98.98 0 01-.376-.802.98.98 0 01.347-.782c.236-.197.61-.296 1.121-.296h1.208v-.231c0-.328-.092-.577-.275-.745-.183-.174-.451-.26-.803-.26-.241 0-.472.04-.694.122a1.695 1.695 0 00-.571.326l-.232-.384c.193-.164.424-.289.694-.376.27-.091.555-.137.854-.137zm-.181 3.465c.289 0 .538-.065.745-.195.207-.135.362-.328.463-.579v-.622h-1.193c-.651 0-.977.227-.977.68 0 .222.085.398.253.528.169.125.405.188.709.188zm10.232-2.17c0 .67-.239 1.199-.716 1.584-.473.381-1.136.584-1.989.608v.52h-.499v-.52c-.854-.03-1.519-.234-1.996-.615-.473-.38-.709-.906-.709-1.577 0-.67.236-1.195.709-1.576.477-.381 1.142-.586 1.996-.615v-.506h.499v.506c.848.029 1.511.236 1.989.622.477.38.716.904.716 1.57zm-2.705 1.765c.699-.029 1.239-.195 1.62-.499s.571-.726.571-1.266-.193-.962-.578-1.265c-.381-.304-.919-.468-1.613-.492v3.522zm-2.691-1.765c0 .54.191.962.572 1.266.385.299.925.465 1.62.499v-3.522c-.704.029-1.247.195-1.627.499-.377.299-.565.718-.565 1.258zm7.912 2.575c-.366 0-.696-.082-.99-.246a1.843 1.843 0 01-.695-.694 1.967 1.967 0 01-.253-.998c0-.371.084-.704.253-.998.169-.294.4-.523.695-.687.294-.164.624-.246.99-.246a2 2 0 01.991.246c.294.164.523.393.687.687.169.294.253.627.253.998s-.084.704-.253.998a1.794 1.794 0 01-.687.694 1.998 1.998 0 01-.991.246zm0-.456c.27 0 .511-.06.724-.18a1.32 1.32 0 00.506-.528 1.63 1.63 0 00.181-.774c0-.29-.061-.547-.181-.774-.121-.227-.29-.4-.506-.52a1.4 1.4 0 00-.724-.189c-.27 0-.513.063-.73.188a1.31 1.31 0 00-.506.521 1.617 1.617 0 00-.181.774c0 .29.06.547.181.774.125.226.294.402.506.528.217.12.46.18.73.18zm2.884-3.384h.514v1.685h2.393v-1.685h.514v3.804h-.514V79.39h-2.393v1.678h-.514v-3.804zm8.446 3.356v1.366h-.485v-.918h-3.406v.918h-.485V80.62h.217c.256-.014.429-.202.521-.564.092-.361.154-.868.188-1.518l.051-1.273h2.806v3.356h.593zm-2.98-2.055c-.024.54-.07.987-.137 1.338-.068.348-.188.586-.362.716h2.372v-2.9h-1.829l-.044.847zm5.405 2.539c-.366 0-.696-.082-.991-.246a1.847 1.847 0 01-.694-.694 1.967 1.967 0 01-.253-.998c0-.371.084-.704.253-.998.169-.294.4-.523.694-.687.295-.164.625-.246.991-.246a2 2 0 01.991.246c.294.164.523.393.687.687.169.294.253.627.253.998s-.084.704-.253.998a1.794 1.794 0 01-.687.694 1.998 1.998 0 01-.991.246zm0-.456c.27 0 .511-.06.723-.18.217-.126.386-.302.507-.528.12-.227.18-.485.18-.774 0-.29-.06-.547-.18-.774a1.26 1.26 0 00-.507-.52 1.393 1.393 0 00-.723-.189c-.27 0-.513.063-.73.188a1.31 1.31 0 00-.506.521 1.617 1.617 0 00-.181.774c0 .29.06.547.181.774.125.226.294.402.506.528.217.12.46.18.73.18zm5.307-1.547c.516.12.774.431.774.933 0 .332-.123.588-.369.766-.246.179-.613.268-1.1.268h-1.728v-3.804h1.678c.434 0 .774.084 1.02.253.245.169.368.41.368.723a.846.846 0 01-.173.535.998.998 0 01-.47.326zm-1.924-.145h1.143c.294 0 .518-.055.672-.166a.554.554 0 00.239-.485c0-.212-.08-.371-.239-.477-.154-.106-.378-.16-.672-.16h-1.143v1.288zm1.208 1.707c.328 0 .574-.053.737-.16.164-.105.246-.272.246-.498 0-.227-.074-.393-.224-.5-.149-.11-.386-.166-.709-.166h-1.258v1.324h1.208zm4.118.441c-.367 0-.697-.082-.991-.246a1.84 1.84 0 01-.694-.694 1.967 1.967 0 01-.253-.998c0-.371.084-.704.253-.998.168-.294.4-.523.694-.687a2 2 0 01.991-.246c.366 0 .696.082.991.246.294.164.523.393.687.687.168.294.253.627.253.998s-.085.704-.253.998a1.794 1.794 0 01-.687.694 2.004 2.004 0 01-.991.246zm0-.456c.27 0 .511-.06.723-.18.217-.126.386-.302.506-.528a1.62 1.62 0 00.181-.774c0-.29-.06-.547-.181-.774-.12-.227-.289-.4-.506-.52a1.393 1.393 0 00-.723-.189c-.27 0-.514.063-.731.188a1.31 1.31 0 00-.506.521c-.12.227-.181.484-.181.774 0 .29.061.547.181.774.125.226.294.402.506.528.217.12.461.18.731.18zm7.136-3.384v3.804h-.47v-3.009l-1.541 2.546h-.231l-1.54-2.553v3.016h-.47v-3.804h.52l1.613 2.74 1.642-2.74h.477zm5.025-.03c.356 0 .679.083.969.247.289.159.516.385.68.68.163.294.245.629.245 1.005 0 .38-.082.718-.245 1.012a1.76 1.76 0 01-.68.687c-.285.16-.608.239-.969.239-.309 0-.589-.063-.839-.188a1.62 1.62 0 01-.608-.564v2.119h-.513v-5.207h.491v.752a1.6 1.6 0 01.608-.579c.255-.135.542-.202.861-.202zm-.037 3.414c.266 0 .507-.06.724-.18.217-.126.385-.302.506-.528.125-.227.188-.485.188-.774 0-.29-.063-.545-.188-.767a1.305 1.305 0 00-.506-.528 1.42 1.42 0 00-.724-.188c-.27 0-.513.063-.73.188a1.366 1.366 0 00-.506.528 1.575 1.575 0 00-.181.767c0 .29.06.547.181.774.125.226.294.402.506.528.217.12.46.18.73.18zm4.488-2.04c.478.006.842.112 1.092.32.251.207.376.505.376.896 0 .405-.135.716-.405.933-.27.217-.655.323-1.157.318l-1.504-.007v-3.804h.513v1.33l1.085.015zm2.105-1.344h.513v3.804h-.513v-3.804zm-2.228 3.42c.352.005.618-.064.796-.21.183-.149.275-.366.275-.65 0-.28-.089-.487-.268-.622-.178-.135-.446-.205-.803-.21l-.962-.014v1.692l.962.015zm4.059-3.42h.513v1.685h2.394v-1.685h.514v3.804h-.514V79.39h-2.394v1.678h-.513v-3.804zm6.117 2.112h-.868v1.692h-.514v-3.804h.514v1.67h.875l1.338-1.67h.557l-1.497 1.844 1.605 1.96h-.607l-1.403-1.692zm5.869-.051h-3.183c.029.395.181.716.456.962.275.24.622.361 1.042.361.236 0 .453-.04.65-.123.198-.086.369-.212.514-.376l.289.333a1.627 1.627 0 01-.636.463 2.117 2.117 0 01-.832.159c-.39 0-.738-.082-1.041-.246a1.833 1.833 0 01-.702-.694 1.967 1.967 0 01-.253-.998c0-.371.08-.704.239-.998.164-.294.385-.523.665-.687.284-.164.603-.246.955-.246s.667.082.947.246c.28.164.499.393.658.687.159.29.239.622.239.998l-.007.159zm-1.837-1.649a1.3 1.3 0 00-.926.354c-.246.232-.386.535-.42.912h2.698c-.034-.376-.176-.68-.427-.912a1.282 1.282 0 00-.925-.354z" fill="#373943"/><circle cx="375" cy="47" r="3" fill="#199F27"/><path d="M367.147 62.375a7.862 7.862 0 017.912-7.875c4.331.032 7.794 3.632 7.794 7.974v.776c0 3.917.82 6.19 1.542 7.433a.873.873 0 01.004.876.87.87 0 01-.757.44h-17.285a.875.875 0 01-.753-1.316c.723-1.243 1.543-3.516 1.543-7.433v-.875zM371.5 72v.875a3.501 3.501 0 005.975 2.475 3.501 3.501 0 001.025-2.475V72" stroke="#8C9BEA" stroke-width="1.75" stroke-linecap="round" stroke-linejoin="round"/></g><rect x="72.5" y="28.5" width="373" height="373" rx="35.5" stroke="#D3E3FF"/></g><defs><clipPath id="clip0"><rect x="72" y="28" width="374" height="374" rx="36" fill="#fff"/></clipPath><clipPath id="clip1"><path fill="#fff" transform="translate(403 49)" d="M0 0h28v28H0z"/></clipPath><filter id="filter0_d" x="0" y="0" width="518" height="518" filterUnits="userSpaceOnUse" color-interpolation-filters="sRGB"><feFlood flood-opacity="0" result="BackgroundImageFix"/><feColorMatrix in="SourceAlpha" values="0 0 0 0 0 0 0 0 0 0 0 0 0 0 0 0 0 0 127 0"/><feMorphology radius="17" in="SourceAlpha" result="effect1_dropShadow"/><feOffset dy="44"/><feGaussianBlur stdDeviation="44.5"/><feColorMatrix values="0 0 0 0 0.243137 0 0 0 0 0.329412 0 0 0 0 0.847059 0 0 0 0.06 0"/><feBlend in2="BackgroundImageFix" result="effect1_dropShadow"/><feBlend in="SourceGraphic" in2="effect1_dropShadow" result="shape"/></filter><filter id="filter1_d" x="65" y="28" width="389" height="87" filterUnits="userSpaceOnUse" color-interpolation-filters="sRGB"><feFlood flood-opacity="0" result="BackgroundImageFix"/><feColorMatrix in="SourceAlpha" values="0 0 0 0 0 0 0 0 0 0 0 0 0 0 0 0 0 0 127 0"/><feMorphology radius="13" in="SourceAlpha" result="effect1_dropShadow"/><feOffset dy="10"/><feGaussianBlur stdDeviation="10"/><feColorMatrix values="0 0 0 0 0.243137 0 0 0 0 0.329412 0 0 0 0 0.847059 0 0 0 0.21 0"/><feBlend in2="BackgroundImageFix" result="effect1_dropShadow"/><feBlend in="SourceGraphic" in2="effect1_dropShadow" result="shape"/></filter><linearGradient id="paint0_linear" x1="259.5" y1="-21.609" x2="259.5" y2="98" gradientUnits="userSpaceOnUse"><stop stop-color="#fff"/><stop offset="1" stop-color="#fff" stop-opacity="0"/></linearGradient></defs></svg>