<svg width="70" height="70" fill="none" xmlns="http://www.w3.org/2000/svg"><rect width="70" height="70" rx="15" fill="#DBEBEF"/><path d="M39.425 32.975c0 2.4-1.875 4.35-4.2 4.35s-4.2-1.95-4.2-4.35c0-2.4 1.875-4.35 4.2-4.35.225 0 .375 0 .525.075l2.4-2.4a6.449 6.449 0 00-2.925-.675c-3.975 0-7.2 3.3-7.2 7.35s3.225 7.35 7.2 7.35 7.2-3.3 7.2-7.35a6.91 6.91 0 00-.6-2.85L39.35 32.6c.075.075.075.225.075.375zM42.8 42.65c2.85-2.25 4.725-5.7 4.725-9.675 0-1.35-.225-2.625-.6-3.825l-.675.675a2.438 2.438 0 01-1.8.75h-.225c.225.75.3 1.575.3 2.4 0 5.1-4.125 9.225-9.225 9.225a9.218 9.218 0 01-9.225-9.225C26 27.875 30.2 23.75 35.3 23.75c.975 0 1.875.15 2.775.45 0-.675.3-1.275.75-1.8l.825-.825a12.118 12.118 0 00-4.35-.825c-6.75 0-12.3 5.475-12.3 12.225 0 4.2 2.1 7.875 5.325 10.125l-1.95 5.4c-.225.6.075 1.2.675 1.425.15.075.3.075.375.075.45 0 .9-.3 1.05-.75l1.875-5.025c1.275.6 2.7.9 4.2.975v3.675c0 .6.525 1.125 1.125 1.125s1.125-.525 1.125-1.125v-3.75c1.425-.15 2.85-.6 4.05-1.275l2.025 5.4c.15.45.6.75 1.05.75.15 0 .3 0 .375-.075.6-.225.9-.9.675-1.425L42.8 42.65z" fill="#199F27"/><path d="M47.3 24.725l-2.1-.825c-.225-.075-.3-.225-.375-.375l-.825-2.1c-.075-.3-.375-.45-.675-.45a.81.81 0 00-.525.225l-2.7 2.55c-.225.225-.225.525-.15.75l.675 1.8-4.5 4.5c-.3-.15-.6-.15-.9-.15a2.37 2.37 0 00-2.4 2.4c0 1.35 1.05 2.4 2.4 2.4 1.35 0 2.4-1.05 2.4-2.4 0-.3-.075-.6-.15-.9l4.35-4.35 2.325.9c.075 0 .15.075.225.075a.81.81 0 00.525-.225l2.625-2.625c.375-.375.225-.975-.225-1.2z" fill="#199F27"/></svg>