<svg width="70" height="70" fill="none" xmlns="http://www.w3.org/2000/svg"><rect width="70" height="70" rx="15" fill="#E0DCEF"/><path d="M23 24.65h22.5v-1.5c0-.825-.675-1.5-1.5-1.5H21.5c-.825 0-1.5.675-1.5 1.5V40.4c0 .825.675 1.5 1.5 1.5h8.85l-.525 3H27.05c-.6 0-1.125.525-1.125 1.125s.525 1.125 1.125 1.125h7.5V38.9H23V24.65zm24.75 1.95H39.5c-1.65 0-3 1.35-3 3v16.5c0 1.65 1.35 3 3 3h8.25c1.65 0 3-1.35 3-3V29.6c0-1.725-1.35-3-3-3zm-3.6 20.55h-1.125c-.6 0-1.125-.525-1.125-1.125s.525-1.125 1.125-1.125h1.125c.6 0 1.125.525 1.125 1.125 0 .675-.45 1.125-1.125 1.125zm4.2-4.575c0 .45-.3.75-.75.75h-7.95c-.45 0-.75-.3-.75-.75V30.5c0-.45.3-.75.75-.75h7.95c.45 0 .75.3.75.75v12.075z" fill="#DE4355"/></svg>