<svg width="518" height="518" fill="none" xmlns="http://www.w3.org/2000/svg"><g filter="url(#filter0_d)"><g clip-path="url(#clip0)"><rect x="72" y="28" width="374" height="374" rx="36" fill="#fff"/><path d="M73.039 122.873h373.92v66.694H73.039v-66.694zm0 216.48h373.92v66.694H73.039v-66.694z" fill="#F5F6FD" stroke="#D3E3FF" stroke-width="1.093"/><path d="M99.623 160.176v1.924h-9.026v-1.522l4.863-4.618c.548-.525.915-.98 1.102-1.365.198-.396.297-.787.297-1.172 0-.571-.192-1.008-.577-1.312-.385-.303-.95-.454-1.697-.454-1.248 0-2.204.425-2.869 1.277l-1.592-1.225c.479-.641 1.12-1.137 1.925-1.487.816-.361 1.726-.542 2.728-.542 1.33 0 2.391.315 3.184.944.793.63 1.19 1.487 1.19 2.572a4.27 4.27 0 01-.42 1.872c-.28.583-.816 1.248-1.61 1.994l-3.27 3.114h5.772zm6.37 2.099c-.98 0-1.855-.245-2.624-.735-.77-.501-1.377-1.224-1.82-2.169-.443-.956-.665-2.087-.665-3.394 0-1.306.222-2.431.665-3.376.443-.956 1.05-1.679 1.82-2.169.769-.501 1.644-.752 2.624-.752.979 0 1.854.251 2.624.752.781.49 1.393 1.213 1.836 2.169.444.945.665 2.07.665 3.376 0 1.307-.221 2.438-.665 3.394-.443.945-1.055 1.668-1.836 2.169-.77.49-1.645.735-2.624.735zm0-1.977c.874 0 1.562-.361 2.064-1.084.513-.723.769-1.802.769-3.237 0-1.434-.256-2.513-.769-3.236-.502-.723-1.19-1.084-2.064-1.084-.863 0-1.552.361-2.065 1.084-.501.723-.752 1.802-.752 3.236 0 1.435.251 2.514.752 3.237.513.723 1.202 1.084 2.065 1.084zm7.821 1.925c-.396 0-.734-.135-1.014-.403-.28-.28-.42-.63-.42-1.049 0-.432.134-.782.402-1.05.28-.268.624-.402 1.032-.402.409 0 .747.134 1.015.402.28.268.42.618.42 1.05 0 .419-.14.769-.42 1.049-.28.268-.618.403-1.015.403zm6.884-12.368V162.1h-2.274v-10.338h-2.589v-1.907h4.863zm6.662 0V162.1h-2.274v-10.338h-2.589v-1.907h4.863zm3.794 12.368c-.397 0-.735-.135-1.015-.403-.28-.28-.419-.63-.419-1.049 0-.432.134-.782.402-1.05.28-.268.624-.402 1.032-.402.408 0 .746.134 1.015.402.279.268.419.618.419 1.05 0 .419-.14.769-.419 1.049-.28.268-.619.403-1.015.403zm11.946-2.047v1.924h-9.026v-1.522l4.863-4.618c.548-.525.915-.98 1.102-1.365.198-.396.297-.787.297-1.172 0-.571-.192-1.008-.577-1.312-.385-.303-.95-.454-1.697-.454-1.248 0-2.204.425-2.869 1.277l-1.592-1.225c.479-.641 1.12-1.137 1.925-1.487.816-.361 1.726-.542 2.729-.542 1.329 0 2.39.315 3.183.944.793.63 1.19 1.487 1.19 2.572 0 .665-.14 1.289-.42 1.872-.28.583-.816 1.248-1.609 1.994l-3.272 3.114h5.773zm6.37 2.099c-.98 0-1.855-.245-2.624-.735-.77-.501-1.377-1.224-1.82-2.169-.443-.956-.664-2.087-.664-3.394 0-1.306.221-2.431.664-3.376.443-.956 1.05-1.679 1.82-2.169.769-.501 1.644-.752 2.624-.752.979 0 1.854.251 2.624.752.781.49 1.393 1.213 1.836 2.169.444.945.665 2.07.665 3.376 0 1.307-.221 2.438-.665 3.394-.443.945-1.055 1.668-1.836 2.169-.77.49-1.645.735-2.624.735zm0-1.977c.874 0 1.562-.361 2.064-1.084.513-.723.77-1.802.77-3.237 0-1.434-.257-2.513-.77-3.236-.502-.723-1.19-1.084-2.064-1.084-.863 0-1.551.361-2.065 1.084-.501.723-.752 1.802-.752 3.236 0 1.435.251 2.514.752 3.237.514.723 1.202 1.084 2.065 1.084zm15.446-.122v1.924h-9.027v-1.522l4.863-4.618c.548-.525.916-.98 1.102-1.365.199-.396.298-.787.298-1.172 0-.571-.193-1.008-.578-1.312-.384-.303-.95-.454-1.696-.454-1.248 0-2.205.425-2.869 1.277l-1.592-1.225c.478-.641 1.119-1.137 1.924-1.487.816-.361 1.726-.542 2.729-.542 1.33 0 2.391.315 3.184.944.793.63 1.189 1.487 1.189 2.572 0 .665-.14 1.289-.419 1.872-.28.583-.817 1.248-1.61 1.994l-3.271 3.114h5.773zm5.546-10.321V162.1h-2.274v-10.338h-2.59v-1.907h4.864zm-75.475 216.48v12.245h-2.274v-10.338h-2.589v-1.907h4.864zm6.558-.175c1.679 0 2.98.525 3.901 1.574.933 1.05 1.399 2.554 1.399 4.513 0 1.377-.25 2.555-.752 3.534-.501.968-1.207 1.709-2.116 2.222-.898.501-1.942.752-3.132.752a7.99 7.99 0 01-1.784-.192 5.022 5.022 0 01-1.435-.595l.84-1.715c.607.397 1.382.595 2.327.595 1.178 0 2.099-.361 2.764-1.084.664-.723.997-1.767.997-3.132v-.017a3.48 3.48 0 01-1.382.962c-.56.21-1.19.315-1.889.315-.805 0-1.528-.152-2.17-.455a3.631 3.631 0 01-1.504-1.329c-.361-.572-.542-1.231-.542-1.977 0-.793.198-1.487.595-2.082a3.912 3.912 0 011.609-1.399c.676-.327 1.434-.49 2.274-.49zm.175 5.948c.735 0 1.329-.199 1.784-.595.467-.397.7-.898.7-1.505a1.84 1.84 0 00-.682-1.469c-.443-.397-1.062-.595-1.855-.595-.711 0-1.288.193-1.731.577-.444.374-.665.875-.665 1.505 0 .641.222 1.149.665 1.522.443.373 1.038.56 1.784.56zm7.824 6.595c-.397 0-.735-.135-1.015-.403-.28-.28-.42-.63-.42-1.049 0-.432.134-.782.402-1.05.28-.268.624-.402 1.033-.402.408 0 .746.134 1.014.402.28.268.42.618.42 1.05 0 .419-.14.769-.42 1.049-.28.268-.618.403-1.014.403zm6.883-12.368v12.245h-2.274v-10.338h-2.589v-1.907h4.863zm6.663 0v12.245h-2.275v-10.338h-2.589v-1.907h4.864zm3.793 12.368c-.396 0-.735-.135-1.014-.403-.28-.28-.42-.63-.42-1.049 0-.432.134-.782.402-1.05.28-.268.624-.402 1.032-.402.408 0 .747.134 1.015.402.28.268.42.618.42 1.05 0 .419-.14.769-.42 1.049-.28.268-.618.403-1.015.403zm11.946-2.047v1.924h-9.026v-1.522l4.863-4.618c.548-.525.916-.98 1.102-1.365.198-.396.298-.787.298-1.172 0-.571-.193-1.008-.578-1.312-.385-.303-.95-.454-1.697-.454-1.247 0-2.204.425-2.869 1.277l-1.591-1.225c.478-.641 1.119-1.137 1.924-1.487.816-.361 1.726-.542 2.729-.542 1.329 0 2.391.315 3.184.944.793.63 1.189 1.487 1.189 2.572 0 .665-.14 1.289-.42 1.872-.28.583-.816 1.248-1.609 1.994l-3.271 3.114h5.772zm6.37 2.099c-.98 0-1.854-.245-2.624-.735-.77-.501-1.376-1.224-1.82-2.169-.443-.956-.664-2.087-.664-3.394 0-1.306.221-2.431.664-3.376.444-.956 1.05-1.679 1.82-2.169.77-.501 1.644-.752 2.624-.752.979 0 1.854.251 2.624.752.781.49 1.393 1.213 1.837 2.169.443.945.664 2.07.664 3.376 0 1.307-.221 2.438-.664 3.394-.444.945-1.056 1.668-1.837 2.169-.77.49-1.645.735-2.624.735zm0-1.977c.874 0 1.563-.361 2.064-1.084.513-.723.77-1.802.77-3.237 0-1.434-.257-2.513-.77-3.236-.501-.723-1.19-1.084-2.064-1.084-.863 0-1.551.361-2.064 1.084-.502.723-.753 1.802-.753 3.236 0 1.435.251 2.514.753 3.237.513.723 1.201 1.084 2.064 1.084zm15.446-.122v1.924h-9.027v-1.522l4.863-4.618c.549-.525.916-.98 1.103-1.365.198-.396.297-.787.297-1.172 0-.571-.193-1.008-.577-1.312-.385-.303-.951-.454-1.697-.454-1.248 0-2.204.425-2.869 1.277l-1.592-1.225c.478-.641 1.12-1.137 1.924-1.487.817-.361 1.726-.542 2.729-.542 1.33 0 2.391.315 3.184.944.793.63 1.19 1.487 1.19 2.572 0 .665-.14 1.289-.42 1.872-.28.583-.817 1.248-1.61 1.994l-3.271 3.114h5.773zm5.546-10.321v12.245h-2.274v-10.338h-2.589v-1.907h4.863z" fill="#373943"/><path d="M100.758 221.607l-.014-7.249-3.596 6.041h-.654l-3.596-5.998v7.206h-1.364v-9.949h1.165l4.15 6.993 4.094-6.993h1.165l.015 9.949h-1.365zm7.461.085c-.749 0-1.422-.166-2.019-.497a3.677 3.677 0 01-1.407-1.365c-.332-.587-.497-1.251-.497-1.99 0-.739.165-1.397.497-1.975a3.539 3.539 0 011.407-1.365c.597-.331 1.27-.497 2.019-.497.748 0 1.416.166 2.004.497a3.447 3.447 0 011.393 1.365c.341.578.511 1.236.511 1.975 0 .739-.17 1.403-.511 1.99a3.578 3.578 0 01-1.393 1.365c-.588.331-1.256.497-2.004.497zm0-1.194c.483 0 .914-.109 1.293-.327.388-.227.692-.54.91-.938.218-.407.327-.871.327-1.393 0-.521-.109-.98-.327-1.378a2.286 2.286 0 00-.91-.938 2.546 2.546 0 00-1.293-.327c-.484 0-.92.109-1.308.327a2.41 2.41 0 00-.91.938c-.218.398-.327.857-.327 1.378 0 .522.109.986.327 1.393.228.398.531.711.91.938.388.218.824.327 1.308.327zm5.879-6.424h1.364v3.198h4.292v-3.198h1.365v7.533h-1.365v-3.155h-4.292v3.155h-1.364v-7.533zm16.482 3.809c0 .104-.009.242-.028.412h-6.112c.085.664.374 1.199.867 1.606.502.398 1.123.597 1.862.597.9 0 1.625-.303 2.175-.909l.753.881a3.299 3.299 0 01-1.279.91c-.502.208-1.066.312-1.692.312-.796 0-1.502-.161-2.117-.483a3.592 3.592 0 01-1.436-1.379c-.332-.587-.497-1.251-.497-1.99 0-.729.161-1.388.483-1.975a3.522 3.522 0 011.35-1.365 3.848 3.848 0 011.947-.497c.72 0 1.36.166 1.919.497a3.331 3.331 0 011.322 1.365c.322.587.483 1.26.483 2.018zm-3.724-2.729c-.653 0-1.203.199-1.648.597-.436.398-.692.919-.768 1.564h4.833c-.076-.635-.337-1.152-.782-1.55-.436-.407-.981-.611-1.635-.611zm11.136.114h-2.757v6.339h-1.365v-6.339h-2.757v-1.194h6.879v1.194zm4.082-1.265c1.042 0 1.838.256 2.387.767.559.512.839 1.275.839 2.289v4.548h-1.293v-.995a2.195 2.195 0 01-.981.81c-.417.18-.915.27-1.493.27-.843 0-1.52-.204-2.032-.611-.502-.407-.753-.943-.753-1.606 0-.663.241-1.194.725-1.592.483-.407 1.25-.611 2.302-.611h2.161v-.27c0-.588-.171-1.038-.512-1.35-.341-.313-.843-.469-1.507-.469-.445 0-.881.075-1.307.227a3.256 3.256 0 00-1.081.583l-.568-1.024a4.037 4.037 0 011.393-.71 5.663 5.663 0 011.72-.256zm-.313 6.637c.521 0 .971-.113 1.35-.341.379-.237.654-.568.825-.995v-1.051h-2.104c-1.156 0-1.734.388-1.734 1.165 0 .379.147.678.441.896.293.217.701.326 1.222.326zm136.786-.27v3.497h-1.322v-2.26h-8.57v-9.949h1.407v8.712h5.543v-8.712h1.407v8.712h1.535zm8.306-2.487c0 .104-.009.242-.028.412h-6.112c.085.664.374 1.199.867 1.606.502.398 1.123.597 1.862.597.9 0 1.625-.303 2.175-.909l.753.881a3.299 3.299 0 01-1.279.91c-.502.208-1.066.312-1.692.312-.796 0-1.501-.161-2.117-.483a3.592 3.592 0 01-1.436-1.379c-.332-.587-.497-1.251-.497-1.99 0-.729.161-1.388.483-1.975a3.522 3.522 0 011.35-1.365 3.848 3.848 0 011.947-.497c.72 0 1.36.166 1.919.497a3.331 3.331 0 011.322 1.365c.322.587.483 1.26.483 2.018zm-3.724-2.729c-.653 0-1.203.199-1.648.597-.436.398-.692.919-.768 1.564h4.833c-.076-.635-.337-1.152-.782-1.55-.436-.407-.981-.611-1.635-.611zm5.841-1.08h1.364v3.198h4.293v-3.198h1.364v7.533h-1.364v-3.155h-4.293v3.155h-1.364v-7.533zm12.361-.071c1.042 0 1.838.256 2.388.767.559.512.838 1.275.838 2.289v4.548h-1.293v-.995a2.19 2.19 0 01-.981.81c-.417.18-.914.27-1.492.27-.844 0-1.521-.204-2.033-.611-.502-.407-.753-.943-.753-1.606 0-.663.242-1.194.725-1.592.483-.407 1.251-.611 2.302-.611h2.161v-.27c0-.588-.171-1.038-.512-1.35-.341-.313-.843-.469-1.507-.469-.445 0-.881.075-1.307.227a3.241 3.241 0 00-1.08.583l-.569-1.024a4.046 4.046 0 011.393-.71 5.663 5.663 0 011.72-.256zm-.313 6.637c.521 0 .971-.113 1.35-.341.379-.237.654-.568.825-.995v-1.051h-2.104c-1.156 0-1.734.388-1.734 1.165 0 .379.147.678.441.896.294.217.701.326 1.222.326z" fill="#606371"/><path d="M276.552 246.952v1.522h-8.799v-1.19l4.985-4.811c.607-.583 1.015-1.084 1.225-1.504.21-.432.315-.863.315-1.295 0-.641-.228-1.137-.683-1.486-.443-.362-1.084-.543-1.924-.543-1.353 0-2.396.443-3.131 1.33l-1.19-1.032c.479-.583 1.102-1.038 1.872-1.365.782-.326 1.65-.49 2.607-.49 1.283 0 2.303.309 3.061.927.758.607 1.137 1.435 1.137 2.485 0 .653-.14 1.271-.42 1.854-.28.583-.81 1.248-1.592 1.994l-3.743 3.604h6.28zm10.045 0v1.522h-8.799v-1.19l4.985-4.811c.607-.583 1.015-1.084 1.225-1.504.21-.432.315-.863.315-1.295 0-.641-.228-1.137-.683-1.486-.443-.362-1.084-.543-1.924-.543-1.353 0-2.396.443-3.131 1.33l-1.19-1.032c.479-.583 1.102-1.038 1.872-1.365.782-.326 1.65-.49 2.607-.49 1.283 0 2.303.309 3.061.927.758.607 1.137 1.435 1.137 2.485 0 .653-.14 1.271-.42 1.854-.28.583-.81 1.248-1.592 1.994l-3.743 3.604h6.28zm10.045 0v1.522h-8.799v-1.19l4.985-4.811c.607-.583 1.015-1.084 1.225-1.504.21-.432.315-.863.315-1.295 0-.641-.228-1.137-.683-1.486-.443-.362-1.084-.543-1.924-.543-1.353 0-2.396.443-3.131 1.33l-1.19-1.032c.479-.583 1.102-1.038 1.872-1.365.782-.326 1.65-.49 2.607-.49 1.283 0 2.303.309 3.061.927.758.607 1.137 1.435 1.137 2.485 0 .653-.14 1.271-.42 1.854-.28.583-.81 1.248-1.592 1.994l-3.743 3.604h6.28zm6.126-5.581c1.202.117 2.117.49 2.747 1.12.63.618.944 1.411.944 2.379 0 .7-.174 1.335-.524 1.907-.35.56-.875 1.009-1.575 1.347-.688.326-1.533.49-2.536.49a8.254 8.254 0 01-2.519-.385c-.805-.269-1.464-.636-1.977-1.102l.805-1.382c.419.396.956.717 1.609.962a6.15 6.15 0 002.082.35c.909 0 1.615-.193 2.116-.578.514-.384.77-.915.77-1.592 0-.676-.251-1.201-.752-1.574-.502-.373-1.26-.56-2.274-.56h-.98v-1.224l3.079-3.779h-5.895v-1.522h8.082v1.19l-3.202 3.953zm6.478 7.208c-.327 0-.607-.111-.84-.333a1.187 1.187 0 01-.35-.874c0-.339.117-.619.35-.84.233-.233.513-.35.84-.35.326 0 .6.111.822.332.221.222.332.508.332.858 0 .349-.117.641-.35.874-.221.222-.49.333-.804.333zm7.667-7.208c1.202.117 2.117.49 2.747 1.12.63.618.944 1.411.944 2.379 0 .7-.174 1.335-.524 1.907-.35.56-.875 1.009-1.575 1.347-.688.326-1.533.49-2.536.49a8.254 8.254 0 01-2.519-.385c-.805-.269-1.464-.636-1.977-1.102l.805-1.382c.419.396.956.717 1.609.962a6.15 6.15 0 002.082.35c.909 0 1.615-.193 2.116-.578.514-.384.77-.915.77-1.592 0-.676-.251-1.201-.752-1.574-.502-.373-1.26-.56-2.274-.56h-.98v-1.224l3.079-3.779h-5.895v-1.522h8.082v1.19l-3.202 3.953zm9.119-5.143v12.246H324.3V237.75h-2.764v-1.522h4.496zm16.683 8.904c0 .922-.35 1.703-1.05 2.345-.688.641-1.691 1.014-3.009 1.119v1.977h-1.119v-1.977a8.846 8.846 0 01-2.432-.472c-.758-.28-1.364-.63-1.819-1.05l.647-1.364c.42.385.951.705 1.592.962a6.872 6.872 0 002.012.437v-4.058c-.816-.199-1.499-.414-2.047-.648a3.593 3.593 0 01-1.364-1.032c-.362-.454-.543-1.049-.543-1.784 0-.921.333-1.703.998-2.344.676-.642 1.661-1.015 2.956-1.12v-1.994h1.119v1.977a7.517 7.517 0 011.925.315c.63.186 1.172.437 1.627.752l-.578 1.399c-.944-.594-1.936-.921-2.974-.979v4.076c.852.21 1.552.431 2.1.664.548.222 1.008.56 1.382 1.015.385.443.577 1.038.577 1.784zm-7.417-5.615c0 .502.192.892.577 1.172.385.28.939.513 1.662.7v-3.779c-.746.094-1.306.315-1.679.665a1.61 1.61 0 00-.56 1.242zm3.358 7.575c.782-.07 1.365-.269 1.75-.595.396-.338.595-.758.595-1.26 0-.513-.204-.903-.613-1.172-.396-.28-.973-.524-1.732-.734v3.761z" fill="#373943"/><rect x="267.105" y="140.913" width="82" height="30.613" rx="8.747" fill="#199F27"/><path d="M286.057 151.337v9.95h-1.82v-8.386h-5.159v8.386h-1.819v-9.95h8.798zm5.989 10.049c-.768 0-1.459-.166-2.075-.497a3.702 3.702 0 01-1.45-1.379c-.341-.597-.512-1.27-.512-2.018 0-.749.171-1.417.512-2.004a3.695 3.695 0 011.45-1.379c.616-.332 1.307-.498 2.075-.498.777 0 1.473.166 2.089.498a3.592 3.592 0 011.436 1.379c.35.587.526 1.255.526 2.004 0 .748-.176 1.421-.526 2.018a3.599 3.599 0 01-1.436 1.379c-.616.331-1.312.497-2.089.497zm0-1.521c.654 0 1.194-.218 1.62-.654.427-.435.64-1.009.64-1.719 0-.711-.213-1.284-.64-1.72-.426-.436-.966-.654-1.62-.654-.654 0-1.194.218-1.62.654-.417.436-.626 1.009-.626 1.72 0 .71.209 1.284.626 1.719.426.436.966.654 1.62.654zm8.961-1.62h-1.378v3.042h-1.777v-7.59h1.777v3.07h1.421l2.246-3.07h1.904l-2.757 3.653 2.942 3.937h-2.089l-2.289-3.042zm12.364-4.548l-3.553 8.201c-.332.824-.734 1.402-1.208 1.734-.474.341-1.047.512-1.72.512-.379 0-.753-.062-1.123-.185a2.472 2.472 0 01-.909-.512l.71-1.308c.171.162.37.289.597.384.237.095.474.142.711.142.313 0 .568-.08.767-.241.209-.161.398-.431.569-.81l.128-.299-3.312-7.618h1.848l2.388 5.614 2.402-5.614h1.705zm8.512 0v7.59h-1.763v-6.084h-3.738v6.084h-1.777v-7.59h7.278zm5.552 4.548h-1.379v3.042h-1.776v-7.59h1.776v3.07h1.422l2.246-3.07h1.904l-2.757 3.653 2.942 3.937h-2.089l-2.289-3.042zm8.321-4.634c1.118 0 1.971.27 2.558.811.597.53.895 1.336.895 2.416v4.449h-1.677v-.924c-.218.331-.53.587-.938.767-.398.171-.881.256-1.45.256-.568 0-1.066-.095-1.492-.284a2.432 2.432 0 01-.995-.81 2.126 2.126 0 01-.341-1.18c0-.682.251-1.227.753-1.635.512-.416 1.313-.625 2.402-.625h1.962v-.114c0-.53-.161-.938-.483-1.222-.313-.284-.782-.426-1.408-.426-.426 0-.848.066-1.265.199a3.084 3.084 0 00-1.037.554l-.697-1.293a4.3 4.3 0 011.436-.697 6.39 6.39 0 011.777-.242zm-.242 6.482a2.3 2.3 0 001.18-.299c.35-.208.597-.502.739-.881v-.881h-1.834c-1.023 0-1.535.336-1.535 1.009 0 .322.128.578.384.767.256.19.611.285 1.066.285z" fill="#fff"/><rect x="266.012" y="356.3" width="101.68" height="31.707" rx="8.747" fill="#DE4355"/><path d="M290.123 366.959v10.714h-1.959v-9.031h-5.557v9.031h-1.959v-10.714h9.475zm7.338 2.449c.796 0 1.505.173 2.127.52a3.737 3.737 0 011.485 1.47c.357.632.536 1.362.536 2.188 0 .827-.179 1.562-.536 2.205a3.74 3.74 0 01-1.485 1.469c-.622.347-1.331.52-2.127.52-1.102 0-1.975-.367-2.618-1.102v3.965h-1.913V369.5h1.821v1.071a2.968 2.968 0 011.164-.872 4.009 4.009 0 011.546-.291zm-.215 6.735c.705 0 1.281-.235 1.73-.704.459-.47.689-1.087.689-1.853 0-.765-.23-1.382-.689-1.852-.449-.469-1.025-.704-1.73-.704-.459 0-.872.107-1.239.322-.368.204-.659.5-.873.887-.214.388-.321.837-.321 1.347 0 .511.107.96.321 1.347.214.388.505.689.873.904.367.204.78.306 1.239.306zm9.91 1.637c-.826 0-1.571-.178-2.235-.535a3.978 3.978 0 01-1.561-1.485c-.367-.643-.551-1.367-.551-2.174 0-.806.184-1.525.551-2.158a3.992 3.992 0 011.561-1.485c.664-.357 1.409-.535 2.235-.535.837 0 1.587.178 2.25.535a3.88 3.88 0 011.546 1.485c.378.633.566 1.352.566 2.158 0 .807-.188 1.531-.566 2.174a3.866 3.866 0 01-1.546 1.485c-.663.357-1.413.535-2.25.535zm0-1.637c.704 0 1.286-.235 1.745-.704.459-.47.689-1.087.689-1.853 0-.765-.23-1.382-.689-1.852-.459-.469-1.041-.704-1.745-.704-.704 0-1.286.235-1.745.704-.449.47-.673 1.087-.673 1.852 0 .766.224 1.383.673 1.853.459.469 1.041.704 1.745.704zm14.888-.092v3.444h-1.791v-1.822h-6.306v1.822h-1.776v-3.444h.383c.52-.021.872-.352 1.056-.995.194-.653.321-1.572.382-2.755l.108-2.801h6.735v6.551h1.209zm-6.307-3.613c-.04.939-.117 1.705-.229 2.296-.112.592-.317 1.031-.612 1.317h4.025v-4.929h-3.138l-.046 1.316zm11.062-3.03c1.204 0 2.122.291 2.755.872.643.572.964 1.439.964 2.602v4.791h-1.806v-.995c-.235.358-.572.633-1.01.827-.429.184-.949.275-1.562.275-.612 0-1.148-.102-1.607-.306-.459-.214-.816-.505-1.071-.872a2.285 2.285 0 01-.368-1.271c0-.734.271-1.321.812-1.76.551-.449 1.413-.673 2.586-.673h2.113v-.123c0-.571-.174-1.01-.521-1.316-.336-.306-.842-.459-1.515-.459-.459 0-.913.071-1.362.214a3.342 3.342 0 00-1.118.597l-.75-1.393a4.631 4.631 0 011.546-.75 6.861 6.861 0 011.914-.26zm-.261 6.98c.48 0 .903-.108 1.271-.322.377-.224.643-.541.796-.949v-.949h-1.975c-1.102 0-1.653.362-1.653 1.087 0 .347.138.622.413.826.276.205.659.307 1.148.307zm14.108-1.99h-1.377v3.275h-1.898v-3.275h-1.378l-1.99 3.275h-2.265l2.678-4.224-2.479-3.949h2.036l1.989 3.306h1.409V369.5h1.898v3.306h1.393l2.005-3.306h2.036l-2.48 3.949 2.694 4.224h-2.281l-1.99-3.275zm8.589-4.99c1.205 0 2.123.291 2.756.872.643.572.964 1.439.964 2.602v4.791h-1.806v-.995c-.235.358-.572.633-1.01.827-.429.184-.949.275-1.562.275-.612 0-1.148-.102-1.607-.306-.459-.214-.816-.505-1.071-.872a2.285 2.285 0 01-.368-1.271c0-.734.271-1.321.811-1.76.552-.449 1.414-.673 2.587-.673h2.113v-.123c0-.571-.174-1.01-.521-1.316-.337-.306-.842-.459-1.515-.459-.459 0-.913.071-1.362.214a3.342 3.342 0 00-1.118.597l-.75-1.393a4.631 4.631 0 011.546-.75 6.86 6.86 0 011.913-.26zm-.26 6.98c.48 0 .903-.108 1.271-.322.377-.224.643-.541.796-.949v-.949h-1.975c-1.102 0-1.653.362-1.653 1.087 0 .347.138.622.413.826.276.205.658.307 1.148.307z" fill="#fff"/><path d="M106.045 301.907h-4.58a.818.818 0 01-.82-.82v-4.581a.829.829 0 01.24-.58l12.3-12.3a.821.821 0 011.159 0l4.581 4.581a.823.823 0 010 1.159l-12.3 12.3a.807.807 0 01-.58.241zm4.439-15.58l5.74 5.74m-9.893 9.787l-5.636-5.635" stroke="#3E54D8" stroke-width="1.64" stroke-linecap="round" stroke-linejoin="round"/><rect x="90.531" y="273.753" width="38.267" height="38.267" rx="4.92" stroke="#D3E3FF" stroke-width="1.093"/><path d="M175.54 285.507H157.5m6.559 4.919v6.56m4.921-6.56v6.56m4.917-11.479v15.58a.825.825 0 01-.24.58.825.825 0 01-.58.24h-13.12a.823.823 0 01-.82-.82v-15.58m11.481 0v-1.64a1.642 1.642 0 00-1.64-1.64h-4.92a1.64 1.64 0 00-1.64 1.64v1.64" stroke="#3E54D8" stroke-width="1.64" stroke-linecap="round" stroke-linejoin="round"/><rect x="147.387" y="273.753" width="38.267" height="38.267" rx="4.92" stroke="#D3E3FF" stroke-width="1.093"/><path d="M72.492 87.34h375.014" stroke="#D3E3FF" stroke-width="2.187"/><path d="M216.411 50.361v12.245h-1.749v-5.458h-7.033v5.458h-1.749V50.361h1.749v5.266h7.033V50.36h1.749zm7.51 12.35c-.921 0-1.749-.204-2.484-.612a4.52 4.52 0 01-1.732-1.68c-.408-.722-.612-1.539-.612-2.448 0-.91.204-1.72.612-2.432a4.361 4.361 0 011.732-1.68c.735-.407 1.563-.611 2.484-.611s1.744.204 2.467.612a4.246 4.246 0 011.714 1.68c.42.71.63 1.521.63 2.43 0 .91-.21 1.727-.63 2.45a4.398 4.398 0 01-1.714 1.68c-.723.407-1.546.611-2.467.611zm0-1.469c.595 0 1.126-.134 1.592-.402.478-.28.851-.665 1.12-1.155.268-.501.402-1.073.402-1.714 0-.642-.134-1.207-.402-1.697a2.819 2.819 0 00-1.12-1.155c-.466-.268-.997-.402-1.592-.402a3.23 3.23 0 00-1.609.402c-.467.269-.84.653-1.12 1.155-.268.49-.402 1.055-.402 1.697 0 .641.134 1.213.402 1.714.28.49.653.875 1.12 1.155a3.23 3.23 0 001.609.402zm13.551-3.446c1.201.303 1.802 1.055 1.802 2.256 0 .817-.309 1.447-.927 1.89-.607.443-1.516.664-2.729.664h-4.461v-9.271h4.303c1.096 0 1.954.21 2.572.63.618.408.927.991.927 1.75 0 .489-.134.915-.402 1.276-.257.35-.619.618-1.085.805zm-4.671-.472h2.519c.642 0 1.126-.117 1.452-.35.338-.234.507-.572.507-1.015 0-.886-.653-1.33-1.959-1.33h-2.519v2.695zm2.694 3.988c.7 0 1.225-.11 1.575-.332.349-.222.524-.566.524-1.032 0-.479-.163-.834-.489-1.068-.315-.233-.817-.35-1.505-.35h-2.799v2.782h2.694zm10.378 1.4c-.921 0-1.749-.205-2.484-.613a4.52 4.52 0 01-1.732-1.68c-.408-.722-.612-1.539-.612-2.448 0-.91.204-1.72.612-2.432a4.361 4.361 0 011.732-1.68c.735-.407 1.563-.611 2.484-.611.922 0 1.744.204 2.467.612a4.24 4.24 0 011.714 1.68c.42.71.63 1.521.63 2.43 0 .91-.21 1.727-.63 2.45a4.392 4.392 0 01-1.714 1.68c-.723.407-1.545.611-2.467.611zm0-1.47c.595 0 1.126-.134 1.592-.402.478-.28.851-.665 1.12-1.155.268-.501.402-1.073.402-1.714 0-.642-.134-1.207-.402-1.697a2.819 2.819 0 00-1.12-1.155c-.466-.268-.997-.402-1.592-.402a3.23 3.23 0 00-1.609.402c-.467.269-.84.653-1.12 1.155-.268.49-.402 1.055-.402 1.697 0 .641.134 1.213.402 1.714.28.49.653.875 1.12 1.155a3.23 3.23 0 001.609.402zm11.277 1.47c-.945 0-1.79-.205-2.537-.613a4.528 4.528 0 01-1.732-1.68c-.419-.722-.629-1.539-.629-2.448 0-.91.21-1.72.629-2.432a4.368 4.368 0 011.732-1.68c.747-.407 1.592-.611 2.537-.611.84 0 1.586.169 2.239.507a3.596 3.596 0 011.539 1.47l-1.277.821a2.852 2.852 0 00-1.084-.997 3.096 3.096 0 00-1.435-.332c-.606 0-1.154.134-1.644.402a2.929 2.929 0 00-1.137 1.155c-.268.49-.402 1.055-.402 1.697 0 .653.134 1.23.402 1.732.28.49.659.868 1.137 1.137.49.268 1.038.402 1.644.402.525 0 1.003-.11 1.435-.332a2.852 2.852 0 001.084-.997l1.277.804a3.706 3.706 0 01-1.539 1.487c-.653.338-1.399.507-2.239.507zm12.743-7.908h-3.394v7.802h-1.679v-7.802h-3.394v-1.469h8.467v1.47zm1.717-1.469h1.68v6.752l5.685-6.752h1.522v9.271h-1.68v-6.752l-5.667 6.752h-1.54v-9.271z" fill="#24252E"/><path d="M91.844 50.361h2.24v8.694l6.577-8.694h2.117v12.245h-2.239V53.93l-6.578 8.676h-2.117V50.361zm18.373 12.368c-.968 0-1.837-.204-2.607-.612a4.513 4.513 0 01-1.801-1.697c-.432-.735-.648-1.563-.648-2.484 0-.922.216-1.744.648-2.467a4.54 4.54 0 011.784-1.697c.77-.408 1.644-.612 2.624-.612.921 0 1.726.187 2.414.56.7.373 1.225.91 1.574 1.61l-1.679.979a2.575 2.575 0 00-1.015-.962 2.64 2.64 0 00-1.312-.333c-.816 0-1.492.269-2.029.805-.536.525-.804 1.23-.804 2.117 0 .886.262 1.597.787 2.134.536.525 1.218.787 2.046.787.479 0 .916-.105 1.312-.315a2.71 2.71 0 001.015-.98l1.679.98a3.823 3.823 0 01-1.591 1.627c-.688.373-1.487.56-2.397.56zm13.228-7.61h-3.271v7.487h-2.187V55.12h-3.289v-1.854h8.747v1.854zm5.34 7.61c-.945 0-1.796-.204-2.555-.612a4.547 4.547 0 01-1.784-1.697c-.42-.735-.63-1.563-.63-2.484 0-.922.21-1.744.63-2.467a4.547 4.547 0 011.784-1.697c.759-.408 1.61-.612 2.555-.612.956 0 1.813.204 2.571.612a4.424 4.424 0 011.767 1.697c.431.723.647 1.545.647 2.467 0 .921-.216 1.75-.647 2.484a4.423 4.423 0 01-1.767 1.697c-.758.408-1.615.612-2.571.612zm0-1.872c.804 0 1.469-.268 1.994-.805.525-.536.787-1.242.787-2.116 0-.875-.262-1.58-.787-2.117-.525-.536-1.19-.805-1.994-.805-.805 0-1.47.269-1.995.805-.513.536-.769 1.242-.769 2.117 0 .874.256 1.58.769 2.116.525.537 1.19.805 1.995.805zm12.323-7.697c.91 0 1.72.198 2.432.595a4.273 4.273 0 011.697 1.68c.408.722.612 1.556.612 2.5 0 .945-.204 1.785-.612 2.52a4.273 4.273 0 01-1.697 1.68c-.712.396-1.522.594-2.432.594-1.259 0-2.256-.42-2.991-1.26V66h-2.187V53.265h2.082v1.224a3.405 3.405 0 011.329-.997 4.588 4.588 0 011.767-.332zm-.245 7.697c.805 0 1.464-.268 1.977-.805.525-.536.787-1.242.787-2.116 0-.875-.262-1.58-.787-2.117-.513-.536-1.172-.805-1.977-.805-.524 0-.997.123-1.417.368a2.536 2.536 0 00-.997 1.014c-.245.444-.367.957-.367 1.54 0 .583.122 1.096.367 1.54.245.442.578.786.997 1.031.42.233.893.35 1.417.35zm7.162-7.592h2.187v6.158l5.16-6.158h1.995v9.341h-2.187V56.45l-5.143 6.157h-2.012v-9.341zm20.173 0v9.341h-1.96V59.79h-2.466l-1.907 2.816h-2.344l2.204-3.113c-.676-.234-1.195-.59-1.557-1.068-.35-.49-.525-1.09-.525-1.801 0-1.073.379-1.901 1.138-2.484.758-.583 1.801-.875 3.131-.875h4.286zm-4.216 1.837c-1.411 0-2.117.53-2.117 1.592 0 1.05.682 1.574 2.047 1.574h2.326v-3.166h-2.256z" fill="#3E54D8"/><path d="M91.078 76.953h78.72" stroke="#3E54D8" stroke-width="3.28" stroke-linecap="round"/><path d="M100.305 242.106c.677.222 1.213.595 1.61 1.12.396.513.595 1.154.595 1.924 0 1.061-.409 1.883-1.225 2.466-.816.572-2.006.858-3.569.858H91.63v-12.246h5.738c1.446 0 2.56.286 3.341.857.781.56 1.172 1.336 1.172 2.327 0 .607-.14 1.143-.42 1.609-.28.467-.665.828-1.155 1.085zm-6.402-4.093v3.376h3.219c.793 0 1.4-.14 1.819-.42.431-.292.647-.711.647-1.26 0-.559-.215-.979-.647-1.259-.42-.292-1.026-.437-1.82-.437h-3.218zm3.673 8.676c1.762 0 2.642-.589 2.642-1.767 0-1.177-.88-1.766-2.642-1.766h-3.673v3.533h3.673zm7.151-7.557h2.186v9.342h-2.186v-9.342zm1.102-1.539c-.397 0-.729-.123-.997-.368a1.252 1.252 0 01-.403-.944 1.2 1.2 0 01.403-.927c.268-.257.6-.385.997-.385.396 0 .729.122.997.367.268.233.402.531.402.892 0 .385-.134.712-.402.98-.257.256-.589.385-.997.385zm9.57 10.373c-.257.21-.572.368-.945.473a4.115 4.115 0 01-1.154.157c-1.027 0-1.82-.268-2.38-.805-.559-.536-.839-1.317-.839-2.344v-4.496h-1.54v-1.749h1.54v-2.134h2.186v2.134h2.502v1.749h-2.502v4.444c0 .455.111.804.333 1.049.221.234.542.35.962.35.49 0 .898-.128 1.225-.385l.612 1.557zm5.777.63c-.968 0-1.837-.204-2.607-.612a4.513 4.513 0 01-1.801-1.697c-.432-.735-.648-1.563-.648-2.484s.216-1.744.648-2.467a4.547 4.547 0 011.784-1.697c.77-.408 1.644-.612 2.624-.612.921 0 1.726.187 2.414.56.7.373 1.225.91 1.574 1.609l-1.679.98a2.58 2.58 0 00-1.015-.962 2.635 2.635 0 00-1.312-.332c-.816 0-1.492.268-2.029.804-.536.525-.804 1.231-.804 2.117 0 .886.262 1.598.787 2.134.536.525 1.218.787 2.046.787.479 0 .916-.105 1.312-.315a2.707 2.707 0 001.015-.979l1.679.979a3.824 3.824 0 01-1.591 1.627c-.689.373-1.487.56-2.397.56zm9.94 0c-.944 0-1.796-.204-2.554-.612a4.547 4.547 0 01-1.784-1.697c-.42-.735-.63-1.563-.63-2.484s.21-1.744.63-2.467a4.554 4.554 0 011.784-1.697c.758-.408 1.61-.612 2.554-.612.957 0 1.814.204 2.572.612a4.43 4.43 0 011.767 1.697c.431.723.647 1.546.647 2.467s-.216 1.749-.647 2.484a4.423 4.423 0 01-1.767 1.697c-.758.408-1.615.612-2.572.612zm0-1.872c.805 0 1.47-.268 1.995-.804.524-.537.787-1.242.787-2.117s-.263-1.58-.787-2.117c-.525-.536-1.19-.804-1.995-.804-.804 0-1.469.268-1.994.804-.513.537-.77 1.242-.77 2.117s.257 1.58.77 2.117c.525.536 1.19.804 1.994.804zm7.077-7.592h2.187v9.342h-2.187v-9.342zm1.102-1.539c-.396 0-.729-.123-.997-.368a1.255 1.255 0 01-.402-.944c0-.373.134-.682.402-.927.268-.257.601-.385.997-.385.397 0 .729.122.997.367.268.233.403.531.403.892 0 .385-.135.712-.403.98-.256.256-.589.385-.997.385zm9.255 1.434c1.178 0 2.123.344 2.834 1.032.711.688 1.067 1.709 1.067 3.062v5.353h-2.187v-5.073c0-.817-.192-1.429-.577-1.837-.385-.42-.933-.63-1.644-.63-.805 0-1.44.245-1.907.735-.466.478-.7 1.172-.7 2.081v4.724h-2.186v-9.342h2.081v1.207a3.422 3.422 0 011.365-.979c.548-.222 1.166-.333 1.854-.333z" fill="#24252E"/><path d="M168.565 242.124c.711.198 1.271.559 1.679 1.084.408.513.612 1.166.612 1.959 0 1.062-.402 1.878-1.207 2.449-.793.572-1.953.858-3.481.858h-5.843v-12.246h5.493c1.4 0 2.478.28 3.237.84.769.56 1.154 1.335 1.154 2.327 0 .641-.152 1.195-.455 1.661a2.844 2.844 0 01-1.189 1.068zm-6.49-4.479v3.919h3.586c.898 0 1.586-.164 2.064-.49.49-.338.735-.828.735-1.469 0-.642-.245-1.126-.735-1.452-.478-.339-1.166-.508-2.064-.508h-3.586zm4.023 9.412c.991 0 1.738-.164 2.239-.49.502-.327.753-.84.753-1.54 0-1.364-.998-2.046-2.992-2.046h-4.023v4.076h4.023zm9.728-9.307h-4.199v-1.522h10.129v1.522h-4.198v10.724h-1.732V237.75zm13.14 10.864c-1.225 0-2.333-.269-3.324-.805a6.087 6.087 0 01-2.309-2.239c-.56-.957-.84-2.029-.84-3.219s.28-2.257.84-3.201a5.878 5.878 0 012.327-2.239c.991-.549 2.099-.823 3.323-.823.957 0 1.831.164 2.624.49.793.315 1.47.787 2.029 1.417l-1.137 1.102c-.921-.968-2.07-1.452-3.446-1.452-.909 0-1.732.204-2.466.613a4.48 4.48 0 00-1.732 1.696c-.408.712-.612 1.511-.612 2.397 0 .886.204 1.691.612 2.414.42.711.997 1.271 1.732 1.679.734.409 1.557.613 2.466.613 1.365 0 2.513-.49 3.446-1.47l1.137 1.102a5.428 5.428 0 01-2.046 1.435c-.793.326-1.668.49-2.624.49z" fill="#929398"/></g><rect x="72.5" y="28.5" width="373" height="373" rx="35.5" stroke="#D3E3FF"/></g><defs><clipPath id="clip0"><rect x="72" y="28" width="374" height="374" rx="36" fill="#fff"/></clipPath><filter id="filter0_d" x="0" y="0" width="518" height="518" filterUnits="userSpaceOnUse" color-interpolation-filters="sRGB"><feFlood flood-opacity="0" result="BackgroundImageFix"/><feColorMatrix in="SourceAlpha" values="0 0 0 0 0 0 0 0 0 0 0 0 0 0 0 0 0 0 127 0"/><feMorphology radius="17" in="SourceAlpha" result="effect1_dropShadow"/><feOffset dy="44"/><feGaussianBlur stdDeviation="44.5"/><feColorMatrix values="0 0 0 0 0.243137 0 0 0 0 0.329412 0 0 0 0 0.847059 0 0 0 0.06 0"/><feBlend in2="BackgroundImageFix" result="effect1_dropShadow"/><feBlend in="SourceGraphic" in2="effect1_dropShadow" result="shape"/></filter></defs></svg>