<svg width="70" height="70" fill="none" xmlns="http://www.w3.org/2000/svg"><rect width="70" height="70" rx="15" fill="#D1DDFA"/><path d="M25.475 39.2c-.45.45-.45 1.125 0 1.575.225.225.525.3.825.3.3 0 .6-.075.825-.3l4.35-4.35L29.9 34.85l-4.425 4.35zm20.7-11.7l-3.375.45c-.525.075-.75.75-.375 1.125l.6.6-3.6 3.075-3-3a1.088 1.088 0 00-1.575 0l-.75.75 4.5 4.575c.45.45 1.05.45 1.5.075l4.5-3.9.75.75c.375.375 1.05.15 1.125-.375l.45-3.375c.075-.375-.3-.75-.75-.75z" fill="#3E54D8"/><path d="M48.875 44H23v-5.175h.075l6.675-6.675 9.675 9.675c.225.225.525.3.825.3.225 0 .525-.075.75-.3l4.875-4.125c.45-.375.525-1.125.15-1.575-.375-.45-1.125-.525-1.575-.15L40.325 39.5l-9.75-9.75a1.088 1.088 0 00-1.575 0l-6 5.925v-10.05c0-.6-.525-1.125-1.125-1.125s-1.125.525-1.125 1.125v19.5c0 .6.525 1.125 1.125 1.125h27c.6 0 1.125-.525 1.125-1.125S49.475 44 48.875 44z" fill="#3E54D8"/></svg>