<svg width="569" height="487" fill="none" xmlns="http://www.w3.org/2000/svg"><circle cx="91" cy="133" r="74" fill="#F3B63F"/><g filter="url(#filter0_d)"><path d="M63.174 108.592C63.174 95.562 73.737 85 86.766 85h395.642C495.438 85 506 95.563 506 108.592V422.5c0 12.979-10.521 23.5-23.5 23.5H86.674c-12.979 0-23.5-10.521-23.5-23.5V108.592z" fill="#FAFCFF"/><path d="M128.837 118.006h1.193c.602-.005 1.078-.161 1.427-.468.355-.306.532-.75.532-1.33 0-.559-.147-.992-.443-1.299-.29-.311-.737-.467-1.339-.467-.526 0-.959.153-1.298.459-.339.301-.508.697-.508 1.186h-1.959c0-.602.158-1.151.475-1.645a3.228 3.228 0 011.339-1.153c.575-.28 1.218-.42 1.927-.42 1.172 0 2.091.296 2.758.887.672.586 1.008 1.403 1.008 2.452 0 .527-.169 1.024-.508 1.492a3.148 3.148 0 01-1.298 1.048c.645.22 1.134.567 1.467 1.04.339.473.508 1.038.508 1.693 0 1.054-.363 1.893-1.088 2.516-.721.624-1.669.936-2.847.936-1.129 0-2.053-.301-2.774-.903-.72-.602-1.08-1.403-1.08-2.403h1.959c0 .516.172.935.516 1.258.35.322.817.483 1.403.483.608 0 1.086-.161 1.436-.483.349-.323.524-.791.524-1.404 0-.618-.183-1.094-.548-1.427-.366-.333-.909-.5-1.629-.5h-1.153v-1.548zm8.426 4.701c.366 0 .648.105.847.315.199.204.298.462.298.774 0 .306-.099.562-.298.766-.199.199-.481.298-.847.298-.349 0-.626-.099-.83-.298a1.02 1.02 0 01-.307-.766c0-.312.1-.57.299-.774.199-.21.478-.315.838-.315zm0-6.846c.366 0 .648.105.847.314.199.205.298.463.298.775 0 .306-.099.561-.298.766-.199.199-.481.298-.847.298-.349 0-.626-.099-.83-.298a1.022 1.022 0 01-.307-.766c0-.312.1-.57.299-.775.199-.209.478-.314.838-.314zm3.605 3.088l.637-5.918h6.306v1.693h-4.677l-.323 2.806c.543-.312 1.156-.468 1.839-.468 1.118 0 1.986.358 2.604 1.073.624.715.936 1.677.936 2.887 0 1.193-.344 2.145-1.032 2.854-.689.705-1.632 1.057-2.831 1.057-1.075 0-1.967-.304-2.677-.911-.704-.613-1.086-1.42-1.145-2.42h1.895c.075.57.279 1.008.613 1.315.333.301.768.451 1.306.451.602 0 1.07-.215 1.403-.645.339-.43.508-1.016.508-1.758 0-.715-.185-1.279-.556-1.693-.371-.419-.882-.629-1.532-.629-.355 0-.656.048-.903.145-.248.092-.517.274-.807.548l-1.564-.387zm16.514.879c0 1.688-.317 2.962-.951 3.823-.629.854-1.589 1.282-2.879 1.282-1.269 0-2.225-.417-2.871-1.25-.639-.839-.967-2.078-.983-3.718v-2.032c0-1.688.314-2.954.943-3.798.634-.844 1.599-1.266 2.895-1.266 1.285 0 2.242.412 2.871 1.234.634.823.959 2.054.975 3.693v2.032zm-1.959-2.193c0-1.102-.151-1.908-.452-2.419-.301-.516-.779-.774-1.435-.774-.64 0-1.11.244-1.411.734-.301.483-.46 1.241-.476 2.274v2.661c0 1.096.153 1.913.46 2.451.306.538.787.806 1.443.806.629 0 1.094-.247 1.395-.741.301-.5.46-1.28.476-2.339v-2.653z" fill="#000" fill-opacity=".8"/><mask id="a" maskUnits="userSpaceOnUse" x="412" y="109" width="21" height="17"><path fill-rule="evenodd" clip-rule="evenodd" d="M412.34 109.771l10.223 15.336 10.224-15.336H412.34z" fill="#fff"/></mask><g mask="url(#a)" fill-rule="evenodd" clip-rule="evenodd" fill="#000"><path d="M422.564 109.771c-8.434 0-15.335 6.901-15.335 15.336 0 8.434 6.901 15.335 15.335 15.335 8.434 0 15.335-6.901 15.335-15.335 0-8.435-6.901-15.336-15.335-15.336zm0 26.837a11.453 11.453 0 01-11.502-11.501c0-6.39 5.112-11.501 11.502-11.501a11.453 11.453 0 0111.501 11.501c0 6.39-5.112 11.501-11.501 11.501z" opacity=".3"/><g opacity=".9"><path d="M422.563 113.605a11.454 11.454 0 00-11.501 11.502 11.454 11.454 0 0011.501 11.501c6.39 0 11.502-5.112 11.502-11.501 0-6.39-5.112-11.502-11.502-11.502zm-.003 19.17c-4.217 0-7.668-3.451-7.668-7.668 0-4.217 3.451-7.667 7.668-7.667 4.217 0 7.667 3.45 7.667 7.667s-3.45 7.668-7.667 7.668z"/><path d="M422.56 117.439c-4.217 0-7.668 3.451-7.668 7.668 0 4.217 3.451 7.668 7.668 7.668 4.217 0 7.667-3.451 7.667-7.668 0-4.217-3.45-7.668-7.667-7.668zm.004 11.501c-2.173 0-3.834-1.661-3.834-3.833 0-2.173 1.661-3.834 3.834-3.834 2.172 0 3.833 1.661 3.833 3.834 0 2.172-1.661 3.833-3.833 3.833z"/><path d="M422.564 128.941a3.834 3.834 0 10-.001-7.669 3.834 3.834 0 00.001 7.669z"/></g></g><mask id="b" maskUnits="userSpaceOnUse" x="445" y="109" width="16" height="17"><path fill-rule="evenodd" clip-rule="evenodd" d="M460.901 125.107v-15.336l-15.335 15.336h15.335z" fill="#fff"/></mask><g mask="url(#b)" fill-rule="evenodd" clip-rule="evenodd" fill="#000"><path d="M457.066 109.773v15.336h3.834v-15.336h-3.834zm-3.835.002v15.335h3.834v-15.335h-3.834z" opacity=".3"/><g opacity=".9"><path d="M449.398 109.771v15.336h3.834v-15.336h-3.834z"/><path d="M445.566 109.771v15.336h3.834v-15.336h-3.834z"/></g></g><mask id="c" maskUnits="userSpaceOnUse" x="478" y="108" width="12" height="18"><path fill-rule="evenodd" clip-rule="evenodd" d="M487.738 109.87h-1.278v-1.278h-5.112v1.278h-1.278c-.767 0-1.278.511-1.278 1.278v12.779c0 .767.511 1.278 1.278 1.278h7.668c.766 0 1.278-.511 1.278-1.278v-12.779c0-.767-.512-1.278-1.278-1.278z" fill="#fff"/></mask><g mask="url(#c)" fill-rule="evenodd" clip-rule="evenodd" fill="#000"><g opacity=".9"><path d="M478.791 121.371v3.834h10.223v-3.834h-10.223z"/><path d="M478.792 117.537v3.834h10.223v-3.834h-10.223z"/></g><g opacity=".3"><path d="M478.791 113.703v3.834h10.223v-3.834h-10.223zm0-3.834v3.834h10.223v-3.834h-10.223z"/><path d="M481.344 108.592v1.278h5.112v-1.278h-5.112z"/></g></g><circle cx="98.56" cy="119.208" r="10.617" fill="#000"/><path d="M110.356 167.574H96l6.594-6.594-1.675-1.664-9.437 9.437 9.437 9.437 1.663-1.663L96 169.933h14.356v-2.359z" fill="#000" fill-opacity=".5"/><path d="M183.102 224.963v-18.45h6.323c2.087 0 3.675.418 4.765 1.254 1.09.837 1.635 2.083 1.635 3.739 0 .844-.228 1.605-.685 2.28-.456.676-1.123 1.2-2.002 1.572.997.27 1.766.781 2.306 1.533.55.743.824 1.639.824 2.686 0 1.732-.557 3.063-1.673 3.992-1.106.929-2.694 1.394-4.764 1.394h-6.729zm3.206-8.325v5.765h3.561c1.005 0 1.791-.249 2.357-.747.566-.499.849-1.192.849-2.079 0-1.917-.98-2.897-2.94-2.939h-3.827zm0-2.357h3.143c.997 0 1.774-.224 2.331-.672.566-.456.849-1.098.849-1.926 0-.912-.262-1.571-.785-1.977-.516-.405-1.322-.608-2.421-.608h-3.117v5.183zm18.906 10.935c-1.951 0-3.535-.612-4.752-1.837-1.208-1.233-1.812-2.872-1.812-4.917v-.38c0-1.368.262-2.589.786-3.662.532-1.081 1.276-1.922 2.23-2.522.955-.599 2.019-.899 3.194-.899 1.867 0 3.307.595 4.321 1.786 1.022 1.192 1.533 2.877 1.533 5.056v1.242h-8.959c.093 1.132.469 2.028 1.128 2.687.667.659 1.503.988 2.509.988 1.411 0 2.559-.57 3.446-1.711l1.66 1.584a5.579 5.579 0 01-2.204 1.914c-.913.447-1.939.671-3.08.671zm-.367-11.746c-.845 0-1.529.295-2.053.887-.515.591-.845 1.415-.988 2.471h5.867v-.228c-.068-1.031-.342-1.808-.824-2.332-.481-.532-1.149-.798-2.002-.798zm16.46 11.493c-.135-.262-.253-.689-.354-1.28-.98 1.022-2.18 1.533-3.599 1.533-1.377 0-2.501-.392-3.371-1.178-.87-.786-1.305-1.757-1.305-2.915 0-1.461.541-2.58 1.622-3.358 1.09-.785 2.644-1.178 4.663-1.178h1.888v-.9c0-.709-.198-1.275-.595-1.698-.397-.431-1.001-.646-1.812-.646-.702 0-1.276.177-1.724.532-.447.346-.671.79-.671 1.331h-3.08c0-.752.25-1.453.748-2.104.499-.659 1.174-1.174 2.028-1.546.861-.371 1.82-.557 2.876-.557 1.605 0 2.885.405 3.84 1.216.954.803 1.444 1.935 1.47 3.396v6.184c0 1.233.173 2.218.519 2.952v.216h-3.143zm-3.383-2.218c.608 0 1.179-.147 1.711-.443.54-.296.946-.693 1.216-1.191v-2.585h-1.66c-1.14 0-1.998.198-2.572.595-.575.397-.862.959-.862 1.686 0 .591.195 1.064.583 1.419.397.346.925.519 1.584.519zm13.09-14.826v3.333h2.42v2.281h-2.42v7.654c0 .523.101.904.304 1.14.211.228.583.342 1.115.342.355 0 .714-.042 1.077-.126v2.382a7.593 7.593 0 01-2.027.291c-2.366 0-3.548-1.305-3.548-3.915v-7.768h-2.256v-2.281h2.256v-3.333h3.079zm9.238-1.406l5.322 14.142 5.309-14.142h4.144v18.45h-3.193v-6.083l.316-8.135-5.448 14.218h-2.294l-5.436-14.205.317 8.122v6.083h-3.194v-18.45h4.157zm26.471 18.45c-.135-.262-.254-.689-.355-1.28-.98 1.022-2.179 1.533-3.599 1.533-1.377 0-2.5-.392-3.37-1.178-.87-.786-1.306-1.757-1.306-2.915 0-1.461.541-2.58 1.622-3.358 1.09-.785 2.645-1.178 4.664-1.178h1.888v-.9c0-.709-.199-1.275-.596-1.698-.397-.431-1.001-.646-1.812-.646-.701 0-1.276.177-1.723.532-.448.346-.672.79-.672 1.331h-3.079c0-.752.249-1.453.748-2.104.498-.659 1.174-1.174 2.027-1.546.862-.371 1.821-.557 2.877-.557 1.605 0 2.884.405 3.839 1.216.955.803 1.445 1.935 1.47 3.396v6.184c0 1.233.173 2.218.52 2.952v.216h-3.143zm-3.383-2.218a3.46 3.46 0 001.71-.443c.541-.296.946-.693 1.217-1.191v-2.585h-1.66c-1.141 0-1.998.198-2.573.595-.574.397-.861.959-.861 1.686 0 .591.194 1.064.583 1.419.397.346.925.519 1.584.519zm16.409-8.68a7.672 7.672 0 00-1.254-.101c-1.411 0-2.361.54-2.851 1.622v9.377h-3.079v-13.711h2.939l.076 1.533c.744-1.191 1.775-1.786 3.092-1.786.44 0 .803.059 1.09.177l-.013 2.889zm6.4 5.018l-1.369 1.407v4.473h-3.079v-19.464h3.079v11.227l.963-1.204 3.789-4.27h3.7l-5.094 5.715 5.639 7.996h-3.561l-4.067-5.88zm14.889 6.133c-1.951 0-3.535-.612-4.752-1.837-1.208-1.233-1.812-2.872-1.812-4.917v-.38c0-1.368.262-2.589.786-3.662.532-1.081 1.275-1.922 2.23-2.522.954-.599 2.019-.899 3.193-.899 1.867 0 3.307.595 4.321 1.786 1.022 1.192 1.533 2.877 1.533 5.056v1.242h-8.958c.093 1.132.468 2.028 1.127 2.687.668.659 1.504.988 2.509.988 1.411 0 2.56-.57 3.447-1.711l1.66 1.584a5.575 5.575 0 01-2.205 1.914c-.912.447-1.939.671-3.079.671zm-.368-11.746c-.844 0-1.529.295-2.052.887-.516.591-.845 1.415-.989 2.471h5.867v-.228c-.067-1.031-.342-1.808-.823-2.332-.482-.532-1.149-.798-2.003-.798zm12.127-5.551v3.333h2.421v2.281h-2.421v7.654c0 .523.102.904.304 1.14.212.228.583.342 1.116.342.354 0 .713-.042 1.077-.126v2.382a7.6 7.6 0 01-2.028.291c-2.365 0-3.548-1.305-3.548-3.915v-7.768h-2.255v-2.281h2.255v-3.333h3.079z" fill="#000" fill-opacity=".8"/><path d="M185.065 242.79l3.387 9 3.379-9h2.637v11.741h-2.032v-3.87l.201-5.177-3.467 9.047h-1.46l-3.459-9.039.201 5.169v3.87h-2.032V242.79h2.645zm16.846 11.741c-.086-.166-.162-.438-.226-.814a3.053 3.053 0 01-2.29.976c-.877 0-1.592-.25-2.145-.75-.554-.5-.831-1.119-.831-1.855 0-.93.344-1.642 1.032-2.137.694-.5 1.683-.75 2.968-.75h1.201v-.572c0-.452-.126-.812-.379-1.081-.252-.274-.637-.411-1.153-.411-.446 0-.812.113-1.097.338a1.026 1.026 0 00-.427.847h-1.959c0-.478.158-.925.475-1.338.317-.42.748-.748 1.29-.984a4.572 4.572 0 011.831-.355c1.021 0 1.836.258 2.443.774.608.511.92 1.231.936 2.161v3.935c0 .785.11 1.411.33 1.879v.137h-1.999zm-2.154-1.411c.388 0 .75-.094 1.089-.282a1.88 1.88 0 00.774-.758v-1.645h-1.056c-.726 0-1.272.126-1.637.379-.366.252-.548.61-.548 1.072 0 .377.123.678.37.903.253.221.589.331 1.008.331zm10.443-5.524a4.847 4.847 0 00-.798-.064c-.898 0-1.503.344-1.815 1.032v5.967h-1.959v-8.725h1.871l.048.976c.473-.758 1.129-1.137 1.968-1.137.279 0 .51.038.693.113l-.008 1.838zm4.072 3.194l-.871.895v2.846h-1.959v-12.386h1.959v7.145l.613-.766 2.411-2.718h2.355l-3.242 3.637 3.589 5.088h-2.266l-2.589-3.741zm9.475 3.903c-1.241 0-2.249-.39-3.024-1.17-.768-.785-1.153-1.828-1.153-3.128v-.242c0-.871.167-1.648.5-2.331.339-.688.812-1.223 1.419-1.605a3.75 3.75 0 012.033-.572c1.188 0 2.104.379 2.749 1.137.651.758.976 1.83.976 3.217v.791h-5.701c.059.72.298 1.29.718 1.709.424.419.957.629 1.596.629.898 0 1.629-.363 2.194-1.088l1.056 1.008a3.548 3.548 0 01-1.403 1.217c-.581.285-1.234.428-1.96.428zm-.233-7.476c-.538 0-.974.189-1.307.565-.328.376-.537.9-.629 1.572h3.734v-.145c-.043-.656-.218-1.15-.524-1.484-.307-.338-.732-.508-1.274-.508zm7.717-3.532v2.121h1.54v1.452h-1.54v4.87c0 .334.064.575.193.726.135.145.371.218.71.218a3 3 0 00.685-.081v1.516a4.81 4.81 0 01-1.29.186c-1.505 0-2.258-.831-2.258-2.492v-4.943h-1.435v-1.452h1.435v-2.121h1.96zm14.813 6.572c0 1.355-.304 2.433-.911 3.234-.602.801-1.433 1.202-2.492 1.202-1.022 0-1.817-.369-2.387-1.105l-.097.943h-1.774v-12.386h1.96v4.5c.564-.667 1.325-1 2.282-1 1.064 0 1.9.395 2.508 1.185.607.791.911 1.895.911 3.315v.112zm-1.96-.169c0-.946-.166-1.656-.5-2.129-.333-.473-.817-.709-1.451-.709-.85 0-1.446.371-1.79 1.112v3.597c.349.758.951 1.137 1.806 1.137.613 0 1.086-.229 1.419-.686.334-.456.506-1.147.516-2.072v-.25zm7.451 4.605c-1.242 0-2.25-.39-3.024-1.17-.768-.785-1.153-1.828-1.153-3.128v-.242c0-.871.167-1.648.5-2.331.339-.688.812-1.223 1.419-1.605a3.748 3.748 0 012.032-.572c1.189 0 2.105.379 2.75 1.137.651.758.976 1.83.976 3.217v.791h-5.701c.059.72.298 1.29.718 1.709.424.419.956.629 1.596.629.898 0 1.629-.363 2.194-1.088l1.056 1.008c-.35.521-.817.927-1.403 1.217-.581.285-1.234.428-1.96.428zm-.234-7.476c-.537 0-.973.189-1.306.565-.328.376-.537.9-.629 1.572h3.734v-.145c-.043-.656-.218-1.15-.524-1.484-.307-.338-.732-.508-1.275-.508zm10.475 7.314c-.086-.166-.161-.438-.225-.814a3.053 3.053 0 01-2.291.976c-.876 0-1.591-.25-2.145-.75-.553-.5-.83-1.119-.83-1.855 0-.93.344-1.642 1.032-2.137.694-.5 1.683-.75 2.968-.75h1.201v-.572c0-.452-.126-.812-.379-1.081-.253-.274-.637-.411-1.153-.411-.446 0-.812.113-1.097.338a1.026 1.026 0 00-.427.847h-1.96c0-.478.159-.925.476-1.338.317-.42.747-.748 1.29-.984a4.572 4.572 0 011.831-.355c1.021 0 1.836.258 2.443.774.608.511.919 1.231.936 2.161v3.935c0 .785.11 1.411.33 1.879v.137h-2zm-2.153-1.411c.387 0 .75-.094 1.089-.282a1.88 1.88 0 00.774-.758v-1.645h-1.056c-.726 0-1.272.126-1.637.379-.366.252-.549.61-.549 1.072 0 .377.124.678.371.903.253.221.589.331 1.008.331zm8.33-9.435v2.121h1.54v1.452h-1.54v4.87c0 .334.065.575.194.726.134.145.371.218.709.218.226 0 .455-.027.686-.081v1.516a4.81 4.81 0 01-1.29.186c-1.506 0-2.258-.831-2.258-2.492v-4.943h-1.436v-1.452h1.436v-2.121h1.959zm5.129 10.846h-1.96v-8.725h1.96v8.725zm-2.081-10.991c0-.301.094-.551.283-.75.193-.199.467-.298.822-.298.355 0 .629.099.823.298.193.199.29.449.29.75 0 .296-.097.543-.29.742-.194.194-.468.29-.823.29-.355 0-.629-.096-.822-.29a1.035 1.035 0 01-.283-.742zm6.04 2.266l.057 1.008c.645-.779 1.491-1.169 2.54-1.169 1.817 0 2.741 1.04 2.774 3.121v5.765h-1.96v-5.652c0-.554-.121-.963-.363-1.226-.236-.269-.626-.403-1.169-.403-.79 0-1.379.357-1.766 1.072v6.209h-1.959v-8.725h1.846zm7.032 4.298c0-1.355.317-2.435.951-3.241.64-.812 1.487-1.218 2.54-1.218.995 0 1.777.347 2.347 1.04l.089-.879h1.766v8.459c0 1.145-.358 2.048-1.073 2.71-.709.661-1.669.991-2.879.991a4.627 4.627 0 01-1.878-.403c-.608-.263-1.07-.61-1.387-1.04l.927-1.177c.602.715 1.344 1.072 2.226 1.072.65 0 1.163-.177 1.54-.532.376-.349.564-.866.564-1.548v-.589c-.564.629-1.317.944-2.258.944-1.021 0-1.857-.406-2.508-1.218-.645-.812-.967-1.935-.967-3.371zm1.951.17c0 .876.178 1.567.532 2.072.361.5.858.75 1.492.75.791 0 1.377-.339 1.758-1.016v-3.839c-.371-.661-.951-.991-1.742-.991-.645 0-1.147.255-1.508.766-.354.51-.532 1.263-.532 2.258zm16.765 1.886a.887.887 0 00-.435-.798c-.285-.183-.761-.344-1.428-.484-.666-.139-1.223-.317-1.669-.532-.978-.473-1.468-1.158-1.468-2.056 0-.753.318-1.382.952-1.887.634-.505 1.441-.758 2.419-.758 1.043 0 1.884.258 2.524.774.645.516.968 1.185.968 2.008h-1.96c0-.376-.14-.688-.419-.935-.28-.253-.651-.379-1.113-.379-.43 0-.782.099-1.056.298a.943.943 0 00-.403.798c0 .301.126.535.379.702.252.166.763.336 1.532.508.768.166 1.37.368 1.806.605.441.231.766.51.976.838.215.328.322.726.322 1.194 0 .785-.325 1.422-.976 1.911-.65.484-1.502.726-2.556.726-.715 0-1.352-.129-1.911-.388-.559-.258-.994-.612-1.306-1.064a2.52 2.52 0 01-.468-1.46h1.903c.027.463.202.82.524 1.073.323.247.75.371 1.282.371.517 0 .909-.097 1.178-.29a.921.921 0 00.403-.775zm6.096-8.475v2.121h1.54v1.452h-1.54v4.87c0 .334.065.575.194.726.134.145.371.218.709.218.226 0 .455-.027.686-.081v1.516a4.81 4.81 0 01-1.29.186c-1.506 0-2.258-.831-2.258-2.492v-4.943h-1.436v-1.452h1.436v-2.121h1.959zm2.435 6.403c0-.855.17-1.623.509-2.306.338-.688.814-1.215 1.427-1.581.613-.371 1.317-.556 2.113-.556 1.177 0 2.131.379 2.862 1.137.737.758 1.134 1.763 1.194 3.016l.008.459c0 .861-.167 1.629-.5 2.307a3.635 3.635 0 01-1.419 1.572c-.613.371-1.323.557-2.129.557-1.231 0-2.218-.409-2.96-1.226-.736-.823-1.105-1.917-1.105-3.282v-.097zm1.96.169c0 .898.185 1.602.556 2.113.371.505.887.758 1.549.758.661 0 1.174-.258 1.54-.774.371-.516.556-1.271.556-2.266 0-.882-.191-1.58-.572-2.097-.377-.516-.89-.774-1.54-.774-.64 0-1.148.256-1.525.766-.376.506-.564 1.264-.564 2.274zm11.394 2.871c.489 0 .895-.142 1.218-.427.322-.285.494-.637.516-1.057h1.847a2.897 2.897 0 01-.509 1.524 3.34 3.34 0 01-1.29 1.113 3.848 3.848 0 01-1.758.412c-1.22 0-2.188-.396-2.903-1.186-.715-.79-1.072-1.881-1.072-3.274v-.201c0-1.328.355-2.39 1.064-3.186.71-.801 1.678-1.201 2.903-1.201 1.038 0 1.882.304 2.532.911.656.602 1 1.395 1.033 2.379h-1.847c-.022-.5-.194-.911-.516-1.234-.317-.322-.723-.484-1.218-.484-.634 0-1.123.232-1.467.694-.344.457-.519 1.153-.525 2.088v.315c0 .946.17 1.653.508 2.121.344.462.839.693 1.484.693zm7.895-2.338l-.871.895v2.846h-1.96v-12.386h1.96v7.145l.613-.766 2.411-2.718h2.354l-3.241 3.637 3.588 5.088h-2.266l-2.588-3.741zm10.684 1.37a.887.887 0 00-.435-.798c-.285-.183-.761-.344-1.428-.484-.666-.139-1.223-.317-1.669-.532-.978-.473-1.467-1.158-1.467-2.056 0-.753.317-1.382.951-1.887.635-.505 1.441-.758 2.419-.758 1.043 0 1.885.258 2.524.774.645.516.968 1.185.968 2.008h-1.96c0-.376-.139-.688-.419-.935-.279-.253-.65-.379-1.113-.379-.43 0-.782.099-1.056.298a.943.943 0 00-.403.798c0 .301.126.535.379.702.252.166.763.336 1.532.508.769.166 1.371.368 1.806.605.441.231.766.51.976.838.215.328.322.726.322 1.194 0 .785-.325 1.422-.975 1.911-.651.484-1.503.726-2.556.726-.715 0-1.353-.129-1.912-.388-.559-.258-.994-.612-1.306-1.064a2.52 2.52 0 01-.468-1.46h1.903c.027.463.202.82.525 1.073.322.247.749.371 1.282.371.516 0 .908-.097 1.177-.29a.921.921 0 00.403-.775z" fill="#01875F"/><path d="M143.696 320.592h1.667v2.354h-1.667v3.183h-2.921v-3.183h-6.032l-.131-1.839 6.133-9.69h2.951v9.175zm-6.174 0h3.253v-5.194l-.192.333-3.061 4.861zm9.69 4.102c0-.465.155-.842.465-1.132.317-.289.711-.434 1.182-.434.478 0 .873.145 1.182.434.317.29.475.667.475 1.132 0 .458-.155.832-.464 1.122-.31.283-.708.424-1.193.424-.478 0-.872-.141-1.182-.424-.31-.29-.465-.664-.465-1.122zm15.753-11.64l-5.689 13.075h-3.082l5.699-12.348h-7.315v-2.364h10.387v1.637zm14.503-3.87l2.028 4.876 5.265.422-4.011 3.435 1.225 5.137-4.507-2.752-4.507 2.752 1.226-5.137-4.011-3.435 5.264-.422 2.028-4.876z" fill="#000" fill-opacity=".8"/><path d="M125.029 350.262h-1.285v-8.523l-2.578.947v-1.161l3.663-1.375h.2v10.112zm10.341 0h-6.594v-.92l3.483-3.87c.516-.585.871-1.06 1.065-1.424.198-.369.297-.749.297-1.14 0-.526-.159-.957-.477-1.293-.318-.336-.742-.505-1.272-.505-.636 0-1.131.182-1.486.546-.35.36-.525.862-.525 1.507h-1.279c0-.926.297-1.675.892-2.246.599-.571 1.398-.857 2.398-.857.936 0 1.675.246 2.219.739.544.489.815 1.141.815 1.956 0 .991-.631 2.171-1.893 3.539l-2.696 2.924h5.053v1.044zm7.665-4.293c0 1.498-.256 2.611-.767 3.339-.512.728-1.311 1.092-2.399 1.092-1.073 0-1.868-.355-2.384-1.064-.516-.715-.784-1.779-.802-3.194v-1.707c0-1.479.256-2.578.767-3.297.512-.719 1.313-1.078 2.405-1.078 1.083 0 1.88.348 2.392 1.044.511.691.774 1.76.788 3.207v1.658zm-1.279-1.748c0-1.083-.152-1.871-.456-2.364-.304-.498-.786-.747-1.445-.747-.654 0-1.131.247-1.43.74-.3.493-.454 1.251-.463 2.274v2.046c0 1.087.156 1.891.47 2.412.317.516.797.774 1.437.774.631 0 1.099-.244 1.403-.732.309-.489.47-1.258.484-2.309v-2.094zm6.221 2.232c0-.732.143-1.391.428-1.976.291-.586.692-1.037 1.203-1.355.516-.318 1.104-.477 1.763-.477 1.018 0 1.84.352 2.467 1.057.631.705.947 1.643.947 2.813v.09c0 .728-.141 1.383-.422 1.963a3.147 3.147 0 01-1.195 1.348c-.516.323-1.111.484-1.784.484-1.013 0-1.836-.353-2.467-1.058-.627-.705-.94-1.638-.94-2.799v-.09zm1.285.152c0 .83.192 1.496.574 1.998.387.502.903.753 1.548.753.65 0 1.166-.253 1.549-.76.382-.512.573-1.226.573-2.143 0-.82-.196-1.483-.587-1.99-.387-.512-.903-.768-1.548-.768-.632 0-1.141.252-1.528.754s-.581 1.221-.581 2.156zm12.532-2.785h-2.509v6.442h-1.279v-6.442h-2.461v-1.037h6.249v1.037zm5.356 1.009a.982.982 0 00-.401-.829c-.267-.208-.633-.311-1.099-.311-.451 0-.829.117-1.133.352-.3.235-.449.512-.449.829h-1.272c0-.649.272-1.181.815-1.596.544-.415 1.224-.622 2.039-.622.876 0 1.558.189 2.046.567.489.373.733.907.733 1.603 0 .336-.101.645-.304.926-.203.281-.491.505-.864.671.871.295 1.306.875 1.306 1.742 0 .686-.265 1.23-.795 1.631s-1.237.601-2.122.601c-.861 0-1.573-.21-2.135-.629-.558-.424-.837-.995-.837-1.714h1.272c0 .364.161.677.484.94.327.258.733.387 1.216.387.489 0 .883-.113 1.182-.339.3-.225.45-.518.45-.877 0-.42-.127-.719-.381-.899-.248-.184-.638-.276-1.168-.276h-1.278v-1.079h1.389c.871-.023 1.306-.382 1.306-1.078zm4.472.532h1.942c.848.009 1.519.231 2.012.664.493.433.739 1.02.739 1.762 0 .747-.253 1.346-.76 1.797-.507.452-1.189.678-2.046.678h-3.165v-7.479h1.278v2.578zm7.361 4.901h-1.285v-7.479h1.285v7.479zm-7.361-3.857v2.813h1.901c.479 0 .85-.122 1.113-.366.262-.249.394-.588.394-1.016 0-.415-.129-.754-.387-1.016-.254-.268-.611-.406-1.072-.415h-1.949zm9.711 3.857v-7.479h2.917c.995 0 1.758.175 2.288.525.535.346.802.855.802 1.528 0 .346-.104.659-.311.94-.208.276-.514.488-.92.636.452.106.814.313 1.086.622.276.309.414.677.414 1.106 0 .686-.253 1.212-.76 1.576-.502.364-1.214.546-2.136.546h-3.38zm1.279-3.283v2.253h2.115c.535 0 .933-.099 1.196-.297.267-.198.401-.477.401-.837 0-.746-.549-1.119-1.645-1.119h-2.067zm0-1.023h1.652c1.198 0 1.797-.351 1.797-1.051s-.567-1.062-1.7-1.085h-1.749v2.136zm6.352.497c0-.732.143-1.391.429-1.976.29-.586.691-1.037 1.202-1.355.516-.318 1.104-.477 1.763-.477 1.018 0 1.841.352 2.467 1.057.632.705.947 1.643.947 2.813v.09c0 .728-.14 1.383-.421 1.963a3.149 3.149 0 01-1.196 1.348c-.516.323-1.111.484-1.783.484-1.014 0-1.837-.353-2.468-1.058-.627-.705-.94-1.638-.94-2.799v-.09zm1.286.152c0 .83.191 1.496.573 1.998.387.502.904.753 1.549.753.649 0 1.165-.253 1.548-.76.382-.512.574-1.226.574-2.143 0-.82-.196-1.483-.588-1.99-.387-.512-.903-.768-1.548-.768-.631 0-1.141.252-1.528.754s-.58 1.221-.58 2.156zm7.243 3.657v-7.479h2.917c.995 0 1.758.175 2.288.525.534.346.802.855.802 1.528 0 .346-.104.659-.311.94-.208.276-.514.488-.92.636.452.106.814.313 1.086.622.276.309.414.677.414 1.106 0 .686-.253 1.212-.76 1.576-.502.364-1.214.546-2.136.546h-3.38zm1.279-3.283v2.253h2.115c.535 0 .933-.099 1.196-.297.267-.198.401-.477.401-.837 0-.746-.549-1.119-1.645-1.119h-2.067zm0-1.023h1.652c1.198 0 1.797-.351 1.797-1.051s-.567-1.062-1.7-1.085h-1.749v2.136z" fill="#000" fill-opacity=".6"/><path d="M268.536 326.129h-2.92v-11.257l-3.486 1.082v-2.375l6.093-2.183h.313v14.733zm14.692-6.083c0 2.034-.421 3.59-1.263 4.668-.842 1.078-2.074 1.617-3.698 1.617-1.603 0-2.829-.529-3.678-1.586-.849-1.058-1.283-2.574-1.304-4.548v-2.708c0-2.054.425-3.614 1.274-4.678.855-1.064 2.085-1.597 3.688-1.597 1.603 0 2.829.529 3.678 1.587.849 1.051 1.283 2.563 1.303 4.537v2.708zm-2.92-2.971c0-1.219-.168-2.105-.505-2.657-.33-.559-.849-.839-1.556-.839-.687 0-1.196.266-1.526.798-.323.526-.495 1.351-.515 2.476v3.577c0 1.199.161 2.092.485 2.678.33.579.855.869 1.576.869.714 0 1.229-.28 1.546-.839.317-.559.482-1.415.495-2.567v-3.496zm9.822 3.153l-1.576 1.697v4.204h-3.032v-14.712h3.032v6.669l1.333-1.829 3.749-4.84h3.729l-5.224 6.537 5.375 8.175h-3.607l-3.779-5.901zm14.227-2.334h3.648v2.637h-3.648v4.123h-2.779v-4.123h-3.657v-2.637h3.657v-3.951h2.779v3.951z" fill="#000" fill-opacity=".8"/><path d="M251.768 347.066c-.124 1.065-.518 1.887-1.182 2.468-.659.576-1.537.864-2.633.864-1.189 0-2.143-.426-2.862-1.279-.714-.852-1.071-1.993-1.071-3.421v-.968c0-.935.166-1.758.497-2.467.337-.71.811-1.254 1.424-1.631.613-.383 1.323-.574 2.129-.574 1.069 0 1.926.299 2.571.898.645.595 1.021 1.42 1.127 2.475h-1.334c-.115-.802-.366-1.383-.753-1.742-.383-.359-.92-.539-1.611-.539-.848 0-1.514.313-1.997.94-.48.627-.719 1.518-.719 2.675v.974c0 1.092.228 1.961.684 2.606.456.645 1.094.968 1.915.968.737 0 1.301-.166 1.693-.498.396-.336.659-.919.788-1.749h1.334zm3.947.007h-.933v3.187h-1.286v-7.479h1.286v3.166h.836l2.516-3.166h1.548l-2.958 3.594 3.207 3.885h-1.624l-2.592-3.187zm9.932 3.187c-.074-.148-.134-.41-.18-.788-.594.617-1.304.926-2.129.926-.737 0-1.343-.207-1.817-.622a2.038 2.038 0 01-.705-1.59c0-.779.294-1.382.884-1.811.595-.433 1.429-.649 2.502-.649h1.245v-.588c0-.447-.134-.802-.401-1.064-.268-.268-.662-.401-1.182-.401-.456 0-.839.115-1.148.345-.308.231-.463.51-.463.837h-1.285c0-.374.131-.733.394-1.079.267-.35.626-.626 1.078-.829a3.646 3.646 0 011.5-.304c.861 0 1.536.216 2.025.65.488.428.742 1.02.76 1.776v3.442c0 .687.088 1.233.263 1.638v.111h-1.341zm-2.122-.975c.401 0 .781-.103 1.14-.311.36-.207.62-.477.782-.809v-1.534h-1.003c-1.566 0-2.35.459-2.35 1.376 0 .4.134.714.401.94.267.225.611.338 1.03.338zm10.852.975h-1.286v-2.71a6.756 6.756 0 01-1.728.221c-.935 0-1.65-.239-2.143-.718-.488-.48-.737-1.162-.746-2.046v-2.233h1.279v2.274c.023 1.115.559 1.673 1.61 1.673a6.8 6.8 0 001.728-.221v-3.719h1.286v7.479zm6.891-7.479h1.278v7.479h-1.278v-5.454l-3.449 5.454h-1.279v-7.479h1.279v5.461l3.449-5.461zm3.449 7.479v-7.479h2.917c.995 0 1.757.175 2.287.525.535.346.802.855.802 1.528 0 .346-.104.659-.311.94-.207.276-.514.488-.919.636.451.106.813.313 1.085.622.276.309.415.677.415 1.106 0 .686-.254 1.212-.761 1.576-.502.364-1.214.546-2.135.546h-3.38zm1.278-3.283v2.253h2.115c.535 0 .934-.099 1.196-.297.267-.198.401-.477.401-.837 0-.746-.548-1.119-1.645-1.119h-2.067zm0-1.023h1.652c1.198 0 1.797-.351 1.797-1.051s-.566-1.062-1.7-1.085h-1.749v2.136zm11.308 4.306c-.073-.148-.133-.41-.179-.788-.595.617-1.305.926-2.129.926-.738 0-1.344-.207-1.818-.622a2.038 2.038 0 01-.705-1.59c0-.779.295-1.382.885-1.811.594-.433 1.428-.649 2.502-.649h1.244v-.588c0-.447-.134-.802-.401-1.064-.267-.268-.661-.401-1.182-.401-.456 0-.839.115-1.147.345-.309.231-.463.51-.463.837h-1.286c0-.374.131-.733.394-1.079.267-.35.627-.626 1.078-.829a3.646 3.646 0 011.5-.304c.862 0 1.537.216 2.025.65.489.428.742 1.02.76 1.776v3.442c0 .687.088 1.233.263 1.638v.111h-1.341zm-2.122-.975c.401 0 .781-.103 1.141-.311a1.88 1.88 0 00.781-.809v-1.534h-1.002c-1.567 0-2.35.459-2.35 1.376 0 .4.133.714.4.94.268.225.611.338 1.03.338zm11.315.975h-1.279v-3.194h-3.435v3.194h-1.286v-7.479h1.286v3.242h3.435v-3.242h1.279v7.479zm6.898-7.479h1.279v7.479h-1.279v-5.454l-3.449 5.454h-1.279v-7.479h1.279v5.461l3.449-5.461zm8.17 0h1.279v7.479h-1.279v-5.454l-3.449 5.454h-1.279v-7.479h1.279v5.461l3.449-5.461zm.345-2.723c0 .557-.191 1.007-.573 1.348-.378.336-.876.504-1.493.504-.618 0-1.118-.17-1.5-.511-.383-.341-.574-.788-.574-1.341h1.044c0 .322.087.576.263.76.175.18.43.27.767.27.322 0 .573-.09.753-.27.184-.18.277-.433.277-.76h1.036zm64.245 4.548h.961c.603-.009 1.078-.168 1.424-.477.345-.309.518-.726.518-1.251 0-1.18-.587-1.77-1.762-1.77-.553 0-.996.159-1.328.477-.327.314-.49.731-.49 1.251h-1.279c0-.797.29-1.458.871-1.983.585-.53 1.327-.795 2.226-.795.949 0 1.693.251 2.232.753.539.503.809 1.201.809 2.095 0 .437-.143.861-.429 1.271a2.55 2.55 0 01-1.154.92c.553.175.979.465 1.279.871.304.405.456.9.456 1.486 0 .903-.295 1.619-.885 2.149-.59.53-1.357.795-2.302.795-.944 0-1.714-.256-2.308-.767-.59-.512-.885-1.187-.885-2.025h1.286c0 .53.173.953.518 1.271.346.318.809.477 1.389.477.618 0 1.09-.161 1.417-.484.328-.322.491-.785.491-1.389 0-.585-.18-1.034-.539-1.348-.359-.313-.878-.474-1.555-.483h-.961v-1.044zm11.107-4.417v1.085h-.235c-.995.019-1.787.314-2.377.885-.59.571-.931 1.376-1.023 2.412.53-.608 1.253-.912 2.17-.912.876 0 1.574.309 2.094.926.526.618.788 1.415.788 2.392 0 1.036-.283 1.866-.85 2.488-.562.622-1.318.933-2.267.933-.963 0-1.744-.369-2.343-1.106-.599-.742-.899-1.696-.899-2.861v-.491c0-1.853.394-3.267 1.182-4.244.793-.981 1.97-1.484 3.532-1.507h.228zm-1.679 4.534c-.438 0-.841.132-1.21.394a2.057 2.057 0 00-.767.989v.47c0 .829.187 1.497.56 2.004.373.507.839.76 1.396.76.576 0 1.028-.211 1.355-.635.332-.424.498-.98.498-1.666 0-.691-.169-1.249-.505-1.673-.332-.428-.774-.643-1.327-.643zm10.167-4.527l3.29 8.211 3.29-8.211h1.721v10.064h-1.327v-3.919l.125-4.23-3.304 8.149h-1.016l-3.297-8.129.131 4.21v3.919h-1.327v-10.064h1.714zm16.782 1.092h-4.852v3.014h2.502c1.051.014 1.871.283 2.461.808.59.526.884 1.24.884 2.143 0 .908-.297 1.631-.891 2.17-.595.54-1.406.818-2.433.837h-3.857v-10.064h6.186v1.092zm-4.852 4.106v3.781h2.426c.659 0 1.171-.175 1.535-.526.368-.35.553-.82.553-1.41 0-.566-.178-1.013-.533-1.341-.35-.327-.85-.495-1.5-.504h-2.481z" fill="#000" fill-opacity=".6"/><path stroke="#000" stroke-opacity=".3" stroke-width="1.18" d="M219.866 311.486v37.748m131.331-37.748v37.748"/><rect x="86.762" y="379.906" width="395.173" height="37.748" rx="4.718" fill="#01875F"/><path d="M238.778 399.377l3.088-7.787h2.055l-4.746 11.178c-.32.713-.618 1.22-.894 1.521a2.868 2.868 0 01-.977.682c-.369.154-.833.23-1.392.23-.485 0-.795-.027-.931-.083l.056-1.4.838.036c.646 0 1.125-.31 1.438-.93l.23-.48.351-.82-4.571-9.934h1.981l3.474 7.787zm10.368 4.424c.608 0 1.14-.185 1.595-.553.454-.369.706-.83.755-1.383h1.613c-.031.572-.227 1.115-.59 1.631a3.864 3.864 0 01-1.456 1.235 4.15 4.15 0 01-1.917.461c-1.358 0-2.439-.451-3.244-1.355-.798-.909-1.198-2.15-1.198-3.723v-.285c0-.971.178-1.834.535-2.59.356-.756.866-1.343 1.53-1.76.669-.418 1.459-.627 2.368-.627 1.118 0 2.046.335 2.783 1.005.744.669 1.14 1.539 1.189 2.608h-1.613c-.049-.646-.295-1.174-.737-1.586-.436-.417-.977-.626-1.622-.626-.866 0-1.539.313-2.018.94-.473.62-.71 1.52-.71 2.7v.323c0 1.148.237 2.033.71 2.654.473.62 1.149.931 2.027.931zm13.289-7.382h-3.345v8.589h-1.705v-8.589h-3.281v-1.383h8.331v1.383zm7.668 8.589c-.098-.197-.178-.547-.24-1.051-.792.823-1.738 1.235-2.838 1.235-.983 0-1.791-.276-2.424-.829-.627-.559-.94-1.266-.94-2.12 0-1.038.393-1.843 1.18-2.414.792-.578 1.904-.867 3.336-.867h1.659v-.783c0-.596-.179-1.069-.535-1.419-.356-.357-.882-.535-1.576-.535-.608 0-1.118.154-1.53.461-.411.307-.617.679-.617 1.115h-1.714c0-.498.175-.977.525-1.438.356-.467.836-.835 1.438-1.106a4.874 4.874 0 012-.405c1.149 0 2.049.289 2.7.866.651.572.989 1.361 1.014 2.369v4.589c0 .916.116 1.644.35 2.184v.148h-1.788zm-2.829-1.3c.534 0 1.041-.138 1.52-.414.479-.277.827-.636 1.042-1.079v-2.045h-1.337c-2.089 0-3.133.611-3.133 1.833 0 .535.178.953.535 1.254.356.301.814.451 1.373.451zm15.086 1.3h-1.705v-4.258h-4.58v4.258h-1.714v-9.972h1.714v4.323h4.58v-4.323h1.705v9.972zm2.295-5.078c0-.977.19-1.856.571-2.636.387-.78.922-1.382 1.604-1.806.688-.424 1.471-.636 2.35-.636 1.357 0 2.454.47 3.29 1.41.841.94 1.262 2.19 1.262 3.751v.12c0 .97-.187 1.843-.562 2.617a4.202 4.202 0 01-1.594 1.797c-.688.43-1.481.645-2.378.645-1.352 0-2.448-.47-3.29-1.41-.836-.94-1.253-2.184-1.253-3.732v-.12zm1.714.203c0 1.106.255 1.993.765 2.663.516.67 1.204 1.005 2.064 1.005.866 0 1.554-.338 2.064-1.014.51-.682.765-1.634.765-2.857 0-1.094-.261-1.978-.783-2.654-.516-.682-1.204-1.023-2.064-1.023-.842 0-1.521.335-2.037 1.004-.516.67-.774 1.628-.774 2.876zm9.658 4.875v-9.972h3.889c1.327 0 2.344.234 3.05.701.713.461 1.069 1.139 1.069 2.036 0 .461-.138.879-.414 1.254-.277.368-.685.651-1.226.848.602.141 1.084.417 1.447.829.369.412.553.903.553 1.475 0 .915-.338 1.615-1.014 2.101-.67.485-1.619.728-2.848.728h-4.506zm1.705-4.378v3.005h2.82c.713 0 1.244-.132 1.594-.397.357-.264.535-.636.535-1.115 0-.995-.731-1.493-2.194-1.493h-2.755zm0-1.364h2.202c1.598 0 2.397-.467 2.397-1.4 0-.934-.756-1.417-2.268-1.447h-2.331v2.847zm15.372-4.23h1.705v9.972h-1.705v-7.271l-4.599 7.271H306.8v-9.972h1.705v7.281l4.599-7.281zm11.851 1.383h-3.345v8.589h-1.705v-8.589h-3.281v-1.383h8.331v1.383zm3.521 2.055h2.589c1.131.012 2.025.307 2.682.885.658.577.986 1.36.986 2.35 0 .995-.338 1.794-1.013 2.396-.676.602-1.586.903-2.728.903h-4.221v-9.972h1.705v3.438zm0 1.391v3.751h2.534c.639 0 1.134-.163 1.484-.488.35-.332.525-.784.525-1.355 0-.553-.172-1.004-.516-1.355-.338-.356-.814-.54-1.428-.553h-2.599z" fill="#fff"/><path d="M429.446 171.113h-.932l-.33-.319a7.635 7.635 0 001.852-4.99 7.667 7.667 0 00-7.668-7.667 7.668 7.668 0 100 15.335 7.635 7.635 0 004.99-1.852l.318.33v.932l5.898 5.886 1.758-1.757-5.886-5.898zm-7.078 0a5.301 5.301 0 01-5.308-5.309 5.301 5.301 0 015.308-5.308 5.301 5.301 0 015.308 5.308 5.301 5.301 0 01-5.308 5.309zm45.416-7.078a2.366 2.366 0 002.359-2.359 2.366 2.366 0 00-2.359-2.36 2.367 2.367 0 00-2.359 2.36 2.367 2.367 0 002.359 2.359zm0 2.359a2.367 2.367 0 00-2.359 2.359 2.367 2.367 0 002.359 2.36 2.366 2.366 0 002.359-2.36 2.366 2.366 0 00-2.359-2.359zm0 7.078a2.367 2.367 0 00-2.359 2.359 2.366 2.366 0 002.359 2.359 2.365 2.365 0 002.359-2.359 2.366 2.366 0 00-2.359-2.359z" fill="#323232" fill-opacity=".6"/><g filter="url(#filter1_ddd)"><path d="M126.128 265.19c20.209 0 36.592-16.382 36.592-36.591s-16.383-36.591-36.592-36.591c-20.208 0-36.59 16.382-36.59 36.591s16.382 36.591 36.59 36.591z" fill="#F0F5FF"/><path d="M162.47 228.599c0 20.071-16.271 36.342-36.342 36.342-20.071 0-36.341-16.271-36.341-36.342 0-20.071 16.27-36.342 36.341-36.342s36.342 16.271 36.342 36.342z" stroke="#BEDCFF" stroke-width=".498"/></g><g filter="url(#filter2_i)"><path d="M118.512 229.429c1.2.42 2.14 1.08 2.82 1.98.68.88 1.02 1.95 1.02 3.21 0 1.84-.74 3.26-2.22 4.26-1.48 1-3.62 1.5-6.42 1.5h-11.34v-21h10.74c2.68 0 4.72.5 6.12 1.5 1.4.98 2.1 2.31 2.1 3.99 0 1-.25 1.9-.75 2.7-.48.78-1.17 1.4-2.07 1.86zm-10.26-5.76v4.05h4.08c2 0 3-.68 3-2.04 0-1.34-1-2.01-3-2.01h-4.08zm4.98 12.42c2.08 0 3.12-.71 3.12-2.13s-1.04-2.13-3.12-2.13h-4.98v4.26h4.98z" fill="#3E54D8"/><path d="M144.389 240.379l-.06-11.13-5.4 9.06h-2.64l-5.37-8.76v10.83h-5.49v-21h4.89l7.38 12.12 7.2-12.12h4.89l.06 21h-5.46z" fill="#EF7381"/></g><path d="M395.8 316.285l4.904 4.903 4.904-4.903m-4.904-8.176v13.075" stroke="#323233" stroke-width="2.299" stroke-linecap="round" stroke-linejoin="round"/><path d="M410.979 321.188v6.538a.936.936 0 01-.934.934h-18.683a.934.934 0 01-.934-.934v-6.538" stroke="#323233" stroke-width="2.299" stroke-linecap="round" stroke-linejoin="round"/><path d="M63.764 108.592c0-12.704 10.298-23.002 23.002-23.002h395.642c12.704 0 23.003 10.298 23.003 23.002V422.5c0 12.653-10.258 22.91-22.911 22.91H86.674c-12.653 0-22.91-10.257-22.91-22.91V108.592z" stroke="#D3E3FF" stroke-width="1.18"/></g><defs><filter id="filter0_d" x=".174" y="0" width="568.827" height="487" filterUnits="userSpaceOnUse" color-interpolation-filters="sRGB"><feFlood flood-opacity="0" result="BackgroundImageFix"/><feColorMatrix in="SourceAlpha" values="0 0 0 0 0 0 0 0 0 0 0 0 0 0 0 0 0 0 127 0"/><feMorphology radius="5" in="SourceAlpha" result="effect1_dropShadow"/><feOffset dy="-22"/><feGaussianBlur stdDeviation="34"/><feColorMatrix values="0 0 0 0 0.243137 0 0 0 0 0.329412 0 0 0 0 0.847059 0 0 0 0.12 0"/><feBlend in2="BackgroundImageFix" result="effect1_dropShadow"/><feBlend in="SourceGraphic" in2="effect1_dropShadow" result="shape"/></filter><filter id="filter1_ddd" x="82.891" y="187.356" width="86.474" height="86.474" filterUnits="userSpaceOnUse" color-interpolation-filters="sRGB"><feFlood flood-opacity="0" result="BackgroundImageFix"/><feColorMatrix in="SourceAlpha" values="0 0 0 0 0 0 0 0 0 0 0 0 0 0 0 0 0 0 127 0"/><feOffset dy="1.994"/><feGaussianBlur stdDeviation="3.323"/><feColorMatrix values="0 0 0 0 0 0 0 0 0 0.380392 0 0 0 0 0.913725 0 0 0 0.18 0"/><feBlend in2="BackgroundImageFix" result="effect1_dropShadow"/><feColorMatrix in="SourceAlpha" values="0 0 0 0 0 0 0 0 0 0 0 0 0 0 0 0 0 0 127 0"/><feOffset dy=".665"/><feGaussianBlur stdDeviation=".083"/><feColorMatrix values="0 0 0 0 0 0 0 0 0 0.380392 0 0 0 0 0.913725 0 0 0 0.03 0"/><feBlend in2="effect1_dropShadow" result="effect2_dropShadow"/><feColorMatrix in="SourceAlpha" values="0 0 0 0 0 0 0 0 0 0 0 0 0 0 0 0 0 0 127 0"/><feOffset dy="2.957"/><feGaussianBlur stdDeviation="1.478"/><feColorMatrix values="0 0 0 0 0 0 0 0 0 0 0 0 0 0 0 0 0 0 0.07 0"/><feBlend in2="effect2_dropShadow" result="effect3_dropShadow"/><feBlend in="SourceGraphic" in2="effect3_dropShadow" result="shape"/></filter><filter id="filter2_i" x="102.373" y="219.379" width="47.477" height="21.8" filterUnits="userSpaceOnUse" color-interpolation-filters="sRGB"><feFlood flood-opacity="0" result="BackgroundImageFix"/><feBlend in="SourceGraphic" in2="BackgroundImageFix" result="shape"/><feColorMatrix in="SourceAlpha" values="0 0 0 0 0 0 0 0 0 0 0 0 0 0 0 0 0 0 127 0" result="hardAlpha"/><feOffset dy=".8"/><feGaussianBlur stdDeviation=".6"/><feComposite in2="hardAlpha" operator="arithmetic" k2="-1" k3="1"/><feColorMatrix values="0 0 0 0 0 0 0 0 0 0 0 0 0 0 0 0 0 0 0.25 0"/><feBlend in2="shape" result="effect1_innerShadow"/></filter></defs></svg>