<svg width="375" height="358" fill="none" xmlns="http://www.w3.org/2000/svg"><circle cx="41.827" cy="66.827" r="34.827" fill="#F3B63F"/><g filter="url(#filter0_d)"><path d="M24.898 79.85c0-9.566 7.755-17.32 17.32-17.32H332.68c9.565 0 17.32 7.754 17.32 17.32v230.455c0 9.528-7.724 17.253-17.253 17.253H42.151c-9.528 0-17.253-7.725-17.253-17.253V79.85z" fill="#FAFCFF"/><path d="M73.105 86.75h.876c.443-.004.792-.118 1.048-.344.26-.225.391-.55.391-.976 0-.41-.109-.729-.326-.953-.213-.23-.54-.344-.982-.344-.387 0-.705.113-.953.338-.249.22-.373.51-.373.87h-1.439c0-.442.117-.845.35-1.208a2.37 2.37 0 01.982-.846 3.195 3.195 0 011.415-.308c.86 0 1.535.217 2.025.651.493.43.74 1.03.74 1.8 0 .386-.125.751-.373 1.095a2.31 2.31 0 01-.954.77c.474.161.833.416 1.078.763.249.347.373.762.373 1.243 0 .774-.266 1.39-.8 1.847-.528.458-1.225.687-2.089.687-.829 0-1.508-.22-2.036-.663-.53-.442-.794-1.03-.794-1.764h1.439c0 .379.126.687.379.924.256.236.6.355 1.03.355.446 0 .797-.119 1.053-.355.257-.237.385-.58.385-1.03 0-.455-.134-.804-.402-1.048-.269-.245-.667-.368-1.196-.368h-.847V86.75zm6.187 3.451c.268 0 .475.077.621.231.146.15.22.34.22.569a.774.774 0 01-.22.562c-.146.146-.353.219-.621.219-.257 0-.46-.073-.61-.22a.75.75 0 01-.225-.561c0-.23.073-.419.22-.569.145-.154.35-.23.615-.23zm0-5.026c.268 0 .475.077.621.231.146.15.22.34.22.568a.774.774 0 01-.22.563c-.146.146-.353.219-.621.219-.257 0-.46-.073-.61-.22a.75.75 0 01-.225-.562c0-.229.073-.418.22-.568.145-.154.35-.23.615-.23zm2.646 2.267l.468-4.345h4.63v1.243h-3.434l-.237 2.06a2.661 2.661 0 011.35-.343c.82 0 1.458.263 1.912.788.458.525.687 1.231.687 2.119 0 .876-.253 1.575-.758 2.096-.505.517-1.198.775-2.078.775-.79 0-1.445-.223-1.966-.669-.517-.45-.797-1.042-.84-1.776h1.39c.056.419.206.74.45.965.245.221.565.332.96.332.442 0 .785-.158 1.03-.474.249-.316.373-.746.373-1.29 0-.525-.136-.94-.409-1.244-.272-.308-.647-.462-1.124-.462-.26 0-.482.036-.663.107-.182.067-.38.201-.593.403l-1.148-.285zm12.124.646c0 1.24-.233 2.174-.698 2.806-.462.627-1.166.941-2.114.941-.931 0-1.634-.306-2.107-.917-.47-.616-.71-1.526-.722-2.73v-1.491c0-1.24.23-2.17.692-2.789.466-.62 1.174-.93 2.126-.93.943 0 1.645.303 2.107.907.466.603.704 1.507.716 2.71v1.493zm-1.438-1.61c0-.81-.11-1.401-.332-1.776-.22-.38-.572-.569-1.053-.569-.47 0-.816.18-1.037.539-.22.355-.337.912-.349 1.67v1.953c0 .805.113 1.405.338 1.8.225.394.578.592 1.06.592.461 0 .802-.182 1.023-.545.222-.367.338-.94.35-1.717v-1.947z" fill="#000" fill-opacity=".8"/><mask id="a" maskUnits="userSpaceOnUse" x="281" y="80" width="16" height="12"><path fill-rule="evenodd" clip-rule="evenodd" d="M281.24 80.717l7.506 11.258 7.505-11.258H281.24z" fill="#fff"/></mask><g mask="url(#a)" fill-rule="evenodd" clip-rule="evenodd" fill="#000"><path d="M288.744 80.717c-6.192 0-11.259 5.066-11.259 11.258 0 6.192 5.067 11.258 11.259 11.258s11.258-5.066 11.258-11.258c0-6.192-5.066-11.258-11.258-11.258zm.001 19.702a8.409 8.409 0 01-8.444-8.444 8.409 8.409 0 018.444-8.444 8.408 8.408 0 018.443 8.444 8.408 8.408 0 01-8.443 8.444z" opacity=".3"/><g opacity=".9"><path d="M288.745 83.531a8.409 8.409 0 00-8.444 8.444 8.41 8.41 0 008.444 8.444 8.409 8.409 0 008.443-8.444 8.409 8.409 0 00-8.443-8.444zm-.003 14.074c-3.096 0-5.629-2.533-5.629-5.629 0-3.096 2.533-5.63 5.629-5.63 3.096 0 5.629 2.534 5.629 5.63s-2.533 5.63-5.629 5.63z"/><path d="M288.742 86.348c-3.096 0-5.629 2.533-5.629 5.629 0 3.096 2.533 5.629 5.629 5.629 3.096 0 5.629-2.533 5.629-5.63 0-3.095-2.533-5.628-5.629-5.628zm.004 8.442c-1.595 0-2.815-1.22-2.815-2.814 0-1.595 1.22-2.815 2.815-2.815s2.814 1.22 2.814 2.815-1.219 2.814-2.814 2.814z"/><path d="M288.746 94.791a2.814 2.814 0 100-5.628 2.814 2.814 0 000 5.628z"/></g></g><mask id="b" maskUnits="userSpaceOnUse" x="305" y="80" width="12" height="12"><path fill-rule="evenodd" clip-rule="evenodd" d="M316.891 91.975V80.717l-11.259 11.258h11.259z" fill="#fff"/></mask><g mask="url(#b)" fill-rule="evenodd" clip-rule="evenodd" fill="#000"><path d="M314.078 80.719v11.258h2.814V80.719h-2.814zm-2.818 0v11.258h2.814V80.719h-2.814z" opacity=".3"/><path d="M308.448 80.719v11.258h2.814V80.719h-2.814zm-2.816-.002v11.258h2.814V80.717h-2.814z" opacity=".9"/></g><mask id="c" maskUnits="userSpaceOnUse" x="330" y="79" width="8" height="14"><path fill-rule="evenodd" clip-rule="evenodd" d="M336.592 80.788h-.938v-.938h-3.753v.938h-.938c-.563 0-.939.375-.939.938v9.382c0 .563.376.938.939.938h5.629c.563 0 .938-.375.938-.938v-9.382c0-.563-.375-.938-.938-.938z" fill="#fff"/></mask><g mask="url(#c)" fill-rule="evenodd" clip-rule="evenodd" fill="#000"><path d="M330.023 89.232v2.815h7.505v-2.815h-7.505zm0-2.816v2.815h7.506v-2.815h-7.506z" opacity=".9"/><g opacity=".3"><path d="M330.024 83.602v2.814h7.506v-2.814h-7.506zm0-2.815v2.815h7.506v-2.815h-7.506z"/><path d="M331.899 79.85v.938h3.752v-.938h-3.752z"/></g></g><circle cx="50.877" cy="87.644" r="7.794" fill="#000"/><path d="M59.538 123.152h-10.54l4.841-4.841-1.23-1.221-6.928 6.928 6.928 6.928 1.221-1.221-4.832-4.841h10.54v-1.732z" fill="#000" fill-opacity=".5"/><path d="M112.944 165.133v-13.545h4.642c1.532 0 2.698.307 3.498.921.8.614 1.2 1.528 1.2 2.744 0 .62-.167 1.178-.502 1.675-.335.496-.825.88-1.47 1.153.732.199 1.296.574 1.693 1.126.403.546.605 1.203.605 1.972 0 1.271-.409 2.248-1.228 2.93-.813.683-1.979 1.024-3.498 1.024h-4.94zm2.354-6.112v4.233h2.614c.738 0 1.315-.183 1.73-.549.416-.366.624-.875.624-1.526 0-1.408-.72-2.127-2.159-2.158h-2.809zm0-1.731h2.307c.732 0 1.302-.164 1.712-.493.415-.335.623-.806.623-1.414 0-.669-.192-1.153-.577-1.451-.378-.298-.97-.446-1.777-.446h-2.288v3.804zm13.88 8.029c-1.433 0-2.596-.45-3.489-1.349-.887-.906-1.33-2.109-1.33-3.61v-.279c0-1.004.192-1.901.577-2.688.39-.794.936-1.411 1.637-1.852a4.318 4.318 0 012.344-.66c1.371 0 2.428.437 3.173 1.312.75.874 1.125 2.111 1.125 3.712v.911h-6.577c.068.831.344 1.489.828 1.972.49.484 1.104.726 1.842.726 1.036 0 1.879-.419 2.53-1.256l1.219 1.163a4.096 4.096 0 01-1.619 1.405c-.669.329-1.423.493-2.26.493zm-.27-8.624c-.62 0-1.123.217-1.507.651-.378.434-.62 1.039-.726 1.814h4.308v-.167c-.05-.757-.252-1.327-.605-1.712-.354-.391-.844-.586-1.47-.586zm12.085 8.438c-.1-.192-.187-.506-.261-.94-.719.751-1.6 1.126-2.642 1.126-1.011 0-1.836-.289-2.475-.865-.638-.577-.958-1.29-.958-2.14 0-1.073.397-1.895 1.191-2.465.8-.577 1.941-.865 3.423-.865h1.387v-.661c0-.521-.146-.936-.438-1.247-.291-.316-.735-.474-1.33-.474-.515 0-.936.13-1.265.391-.329.254-.493.58-.493.977h-2.261c0-.552.183-1.067.549-1.545.366-.484.862-.862 1.489-1.135.632-.273 1.336-.409 2.111-.409 1.179 0 2.118.298 2.819.893.701.589 1.061 1.42 1.079 2.493v4.54c0 .906.127 1.628.382 2.168v.158h-2.307zm-2.484-1.628a2.55 2.55 0 001.256-.326c.396-.217.694-.508.893-.874v-1.898h-1.219c-.837 0-1.467.146-1.889.437-.421.292-.632.704-.632 1.237 0 .435.142.782.428 1.042.291.255.679.382 1.163.382zm9.61-10.885v2.447h1.776v1.675h-1.776v5.619c0 .384.074.663.223.837.155.167.428.251.819.251.26 0 .524-.031.79-.093v1.749a5.549 5.549 0 01-1.488.214c-1.737 0-2.605-.958-2.605-2.875v-5.702h-1.656v-1.675h1.656v-2.447h2.261zm6.781-1.032l3.908 10.382 3.898-10.382h3.042v13.545h-2.345v-4.466l.233-5.972-4 10.438h-1.684l-3.991-10.429.232 5.963v4.466h-2.344v-13.545h3.051zm19.434 13.545c-.099-.192-.186-.506-.26-.94-.72.751-1.6 1.126-2.642 1.126-1.011 0-1.836-.289-2.475-.865-.639-.577-.958-1.29-.958-2.14 0-1.073.397-1.895 1.191-2.465.8-.577 1.941-.865 3.423-.865h1.386v-.661c0-.521-.145-.936-.437-1.247-.291-.316-.735-.474-1.33-.474-.515 0-.937.13-1.265.391-.329.254-.493.58-.493.977h-2.261c0-.552.183-1.067.549-1.545.366-.484.862-.862 1.488-1.135.633-.273 1.337-.409 2.112-.409 1.178 0 2.118.298 2.819.893.701.589 1.06 1.42 1.079 2.493v4.54c0 .906.127 1.628.381 2.168v.158h-2.307zm-2.484-1.628c.447 0 .866-.109 1.256-.326.397-.217.695-.508.893-.874v-1.898h-1.218c-.838 0-1.467.146-1.889.437-.421.292-.632.704-.632 1.237 0 .435.142.782.428 1.042.291.255.679.382 1.162.382zm12.048-6.373a5.668 5.668 0 00-.921-.074c-1.036 0-1.734.397-2.093 1.191v6.884h-2.261v-10.066h2.158l.056 1.126c.546-.875 1.303-1.312 2.27-1.312.323 0 .589.043.8.13l-.009 2.121zm4.698 3.684l-1.005 1.033v3.284h-2.261v-14.29h2.261v8.243l.707-.884 2.782-3.135h2.716l-3.74 4.196 4.14 5.87h-2.614l-2.986-4.317zm10.931 4.503c-1.433 0-2.596-.45-3.489-1.349-.887-.906-1.33-2.109-1.33-3.61v-.279c0-1.004.192-1.901.577-2.688.39-.794.936-1.411 1.637-1.852a4.318 4.318 0 012.344-.66c1.371 0 2.428.437 3.173 1.312.75.874 1.125 2.111 1.125 3.712v.911h-6.577c.068.831.344 1.489.828 1.972.49.484 1.104.726 1.842.726 1.036 0 1.879-.419 2.53-1.256l1.219 1.163a4.096 4.096 0 01-1.619 1.405c-.669.329-1.423.493-2.26.493zm-.27-8.624c-.62 0-1.123.217-1.507.651-.378.434-.62 1.039-.726 1.814h4.308v-.167c-.05-.757-.252-1.327-.605-1.712-.354-.391-.844-.586-1.47-.586zm8.903-4.075v2.447h1.777v1.675h-1.777v5.619c0 .384.074.663.223.837.155.167.428.251.819.251.26 0 .524-.031.791-.093v1.749a5.556 5.556 0 01-1.489.214c-1.736 0-2.605-.958-2.605-2.875v-5.702h-1.656v-1.675h1.656v-2.447h2.261z" fill="#000" fill-opacity=".8"/><path d="M114.385 178.359l2.487 6.607 2.48-6.607h1.936v8.62h-1.492v-2.842l.148-3.801-2.545 6.643h-1.072l-2.54-6.637.148 3.795v2.842h-1.492v-8.62h1.942zm12.367 8.62c-.063-.123-.118-.322-.166-.598a2.24 2.24 0 01-1.681.716c-.643 0-1.168-.184-1.575-.551a1.762 1.762 0 01-.609-1.361c0-.683.252-1.206.757-1.569.51-.367 1.236-.551 2.179-.551h.882v-.42c0-.331-.093-.596-.278-.793-.186-.202-.468-.302-.847-.302-.327 0-.596.083-.805.248a.754.754 0 00-.314.622h-1.438c0-.351.116-.679.349-.983.233-.308.549-.548.947-.722.403-.174.851-.26 1.344-.26.75 0 1.348.189 1.794.568.446.375.675.904.687 1.587v2.889c0 .576.081 1.036.242 1.379v.101h-1.468zm-1.58-1.036c.284 0 .55-.07.799-.208.252-.138.442-.323.568-.556v-1.208h-.775c-.533 0-.934.093-1.202.278a.901.901 0 00-.403.788c0 .276.091.497.273.663.185.162.432.243.74.243zm7.666-4.056a3.621 3.621 0 00-.586-.047c-.659 0-1.103.252-1.332.758v4.381h-1.439v-6.406h1.374l.035.716c.348-.556.829-.834 1.445-.834.205 0 .375.027.509.082l-.006 1.35zm2.99 2.345l-.64.657v2.09h-1.438v-9.094h1.438v5.245l.45-.562 1.77-1.995h1.729l-2.38 2.67 2.635 3.736h-1.664l-1.9-2.747zm6.956 2.865c-.912 0-1.652-.286-2.22-.858-.565-.577-.847-1.342-.847-2.297v-.178c0-.639.123-1.21.367-1.711a2.834 2.834 0 011.042-1.178c.446-.28.943-.42 1.492-.42.872 0 1.545.278 2.019.834.477.557.716 1.344.716 2.362v.581h-4.185c.043.528.219.947.526 1.255.312.308.703.461 1.173.461.659 0 1.196-.266 1.61-.799l.775.74a2.596 2.596 0 01-1.03.894 3.22 3.22 0 01-1.438.314zm-.172-5.488c-.395 0-.714.138-.959.414-.241.277-.395.661-.462 1.155h2.741v-.107c-.031-.481-.16-.844-.385-1.089-.224-.249-.536-.373-.935-.373zm5.666-2.593v1.557h1.13v1.066h-1.13v3.575c0 .245.047.423.142.533.098.107.272.16.521.16.165 0 .333-.02.503-.059v1.113a3.534 3.534 0 01-.947.136c-1.105 0-1.658-.61-1.658-1.829v-3.629h-1.054v-1.066h1.054v-1.557h1.439zm10.875 4.825c0 .994-.223 1.786-.669 2.374-.442.588-1.052.882-1.83.882-.749 0-1.334-.27-1.752-.811l-.071.693h-1.302v-9.094h1.438v3.304c.415-.49.973-.734 1.676-.734.781 0 1.395.29 1.841.87.446.58.669 1.391.669 2.433v.083zm-1.439-.124c0-.695-.122-1.216-.367-1.563-.245-.348-.6-.521-1.065-.521-.624 0-1.062.272-1.315.817v2.64c.257.557.699.835 1.326.835.45 0 .798-.168 1.042-.503.245-.336.371-.843.379-1.522v-.183zm5.47 3.38c-.911 0-1.651-.286-2.22-.858-.564-.577-.846-1.342-.846-2.297v-.178c0-.639.122-1.21.367-1.711a2.827 2.827 0 011.042-1.178c.446-.28.943-.42 1.492-.42.872 0 1.545.278 2.018.834.478.557.717 1.344.717 2.362v.581h-4.186c.044.528.219.947.527 1.255.312.308.703.461 1.172.461.659 0 1.196-.266 1.61-.799l.776.74a2.61 2.61 0 01-1.03.894 3.225 3.225 0 01-1.439.314zm-.171-5.488c-.395 0-.715.138-.959.414-.241.277-.395.661-.462 1.155h2.741v-.107c-.032-.481-.16-.844-.385-1.089-.225-.249-.537-.373-.935-.373zm7.69 5.37c-.063-.123-.119-.322-.166-.598a2.24 2.24 0 01-1.681.716c-.644 0-1.168-.184-1.575-.551a1.76 1.76 0 01-.61-1.361c0-.683.253-1.206.758-1.569.509-.367 1.235-.551 2.179-.551h.882v-.42c0-.331-.093-.596-.279-.793-.185-.202-.467-.302-.846-.302-.328 0-.596.083-.805.248a.754.754 0 00-.314.622h-1.439c0-.351.117-.679.35-.983.233-.308.548-.548.947-.722a3.35 3.35 0 011.344-.26c.75 0 1.348.189 1.794.568.445.375.674.904.686 1.587v2.889c0 .576.081 1.036.243 1.379v.101h-1.468zm-1.581-1.036c.284 0 .551-.07.799-.208a1.38 1.38 0 00.569-.556v-1.208h-.776c-.533 0-.933.093-1.202.278a.903.903 0 00-.402.788c0 .276.091.497.272.663.186.162.432.243.74.243zm6.116-6.927v1.557h1.13v1.066h-1.13v3.575c0 .245.047.423.142.533.098.107.272.16.521.16.165 0 .333-.02.503-.059v1.113a3.54 3.54 0 01-.947.136c-1.105 0-1.658-.61-1.658-1.829v-3.629h-1.054v-1.066h1.054v-1.557h1.439zm3.765 7.963h-1.439v-6.406h1.439v6.406zm-1.528-8.07c0-.221.069-.404.208-.55.142-.146.343-.219.603-.219.261 0 .462.073.604.219a.757.757 0 01.213.55.75.75 0 01-.213.545c-.142.142-.343.213-.604.213-.26 0-.461-.071-.603-.213a.758.758 0 01-.208-.545zm4.434 1.664l.042.74c.474-.572 1.095-.858 1.865-.858 1.334 0 2.013.763 2.036 2.291v4.233h-1.438v-4.15c0-.407-.089-.707-.267-.9-.173-.198-.46-.296-.858-.296-.58 0-1.012.262-1.297.787v4.559h-1.438v-6.406h1.355zm5.163 3.155c0-.994.233-1.787.698-2.379.47-.596 1.092-.894 1.865-.894.73 0 1.305.254 1.723.763l.065-.645h1.296v6.21c0 .841-.262 1.504-.787 1.989-.521.486-1.225.728-2.113.728-.47 0-.93-.098-1.38-.296-.446-.193-.785-.447-1.018-.763l.681-.865c.442.525.987.788 1.634.788.477 0 .854-.13 1.131-.391.276-.256.414-.635.414-1.137v-.432c-.414.462-.967.693-1.658.693-.75 0-1.363-.298-1.841-.894-.473-.596-.71-1.421-.71-2.475zm1.432.125c0 .643.131 1.15.391 1.521.265.367.63.551 1.095.551.581 0 1.011-.249 1.291-.746v-2.818c-.272-.486-.699-.728-1.279-.728-.473 0-.842.187-1.107.562-.26.375-.391.928-.391 1.658zm12.308 1.385a.65.65 0 00-.319-.586c-.21-.134-.559-.253-1.048-.355a5.416 5.416 0 01-1.226-.391c-.718-.347-1.077-.851-1.077-1.51 0-.552.233-1.014.698-1.385.466-.371 1.058-.556 1.776-.556.766 0 1.384.189 1.853.568a1.8 1.8 0 01.711 1.474h-1.439a.877.877 0 00-.308-.687c-.205-.185-.477-.278-.817-.278-.315 0-.574.073-.775.219a.693.693 0 00-.296.586c0 .221.093.393.278.515.186.123.561.247 1.125.373.564.123 1.006.271 1.326.444.324.17.562.375.716.616.158.241.237.533.237.876 0 .576-.239 1.044-.716 1.403-.478.355-1.103.533-1.877.533a3.32 3.32 0 01-1.403-.284c-.41-.19-.73-.45-.959-.782a1.845 1.845 0 01-.343-1.071h1.397c.02.339.148.602.385.787.236.182.55.272.941.272.379 0 .667-.071.864-.213a.674.674 0 00.296-.568zm4.476-6.222v1.557h1.131v1.066h-1.131v3.575c0 .245.047.423.142.533.099.107.272.16.521.16.166 0 .333-.02.503-.059v1.113a3.534 3.534 0 01-.947.136c-1.105 0-1.658-.61-1.658-1.829v-3.629h-1.054v-1.066h1.054v-1.557h1.439zm1.788 4.701c0-.628.124-1.192.373-1.694a2.7 2.7 0 011.047-1.16c.45-.272.967-.408 1.552-.408.864 0 1.564.278 2.101.834.541.557.833 1.295.876 2.214l.006.338c0 .631-.122 1.196-.367 1.693a2.666 2.666 0 01-1.042 1.154c-.45.273-.971.409-1.563.409-.903 0-1.628-.3-2.172-.9-.541-.604-.811-1.407-.811-2.409v-.071zm1.438.124c0 .659.136 1.176.409 1.551.272.371.651.556 1.136.556.486 0 .863-.189 1.131-.568.272-.379.409-.933.409-1.663 0-.648-.141-1.161-.421-1.54-.276-.379-.653-.568-1.13-.568-.47 0-.843.187-1.119.562-.277.371-.415.928-.415 1.67zm8.365 2.107c.359 0 .657-.104.894-.313.237-.21.363-.468.379-.776h1.356c-.016.399-.14.772-.373 1.119a2.461 2.461 0 01-.947.817 2.829 2.829 0 01-1.291.302c-.896 0-1.606-.29-2.131-.87-.525-.58-.788-1.382-.788-2.404v-.148c0-.975.261-1.754.782-2.338.521-.588 1.231-.882 2.131-.882.762 0 1.381.223 1.859.669.482.442.734 1.024.758 1.746h-1.356c-.016-.367-.142-.669-.379-.906-.233-.237-.531-.355-.894-.355-.465 0-.825.17-1.077.509-.253.336-.381.847-.385 1.533v.231c0 .695.124 1.214.373 1.557.253.34.616.509 1.089.509zm5.796-1.716l-.639.657v2.09h-1.439v-9.094h1.439v5.245l.45-.562 1.77-1.995h1.728l-2.38 2.67 2.635 3.736h-1.664l-1.9-2.747zm7.844 1.006a.648.648 0 00-.32-.586c-.209-.134-.558-.253-1.047-.355a5.416 5.416 0 01-1.226-.391c-.718-.347-1.077-.851-1.077-1.51 0-.552.233-1.014.698-1.385.466-.371 1.058-.556 1.776-.556.766 0 1.384.189 1.853.568a1.8 1.8 0 01.711 1.474h-1.439a.88.88 0 00-.308-.687c-.205-.185-.477-.278-.817-.278-.315 0-.574.073-.775.219a.69.69 0 00-.296.586c0 .221.092.393.278.515.185.123.56.247 1.125.373.564.123 1.006.271 1.326.444.323.17.562.375.716.616.158.241.237.533.237.876 0 .576-.239 1.044-.716 1.403-.478.355-1.103.533-1.877.533-.525 0-.993-.095-1.403-.284-.411-.19-.73-.45-.959-.782a1.845 1.845 0 01-.343-1.071h1.397c.019.339.148.602.384.787.237.182.551.272.942.272.379 0 .667-.071.864-.213a.676.676 0 00.296-.568z" fill="#01875F"/><path d="M84.013 235.009h1.224v1.728h-1.224v2.337H81.87v-2.337h-4.43l-.096-1.35 4.503-7.114h2.166v6.736zm-4.532 0h2.389v-3.813l-.141.245-2.248 3.568zm7.114 3.012c0-.341.114-.618.341-.831.233-.213.522-.319.868-.319.351 0 .64.106.868.319.233.213.349.49.349.831 0 .336-.114.611-.341.823-.228.208-.52.312-.876.312-.35 0-.64-.104-.868-.312a1.075 1.075 0 01-.34-.823zm11.565-8.546l-4.176 9.599H91.72l4.184-9.065h-5.37v-1.736h7.625v1.202zm10.647-2.362l1.489 3.58 3.865.31-2.944 2.522.899 3.771-3.309-2.02-3.308 2.02.899-3.771-2.944-2.522 3.865-.31 1.488-3.58z" fill="#000" fill-opacity=".8"/><path d="M70.309 256.994h-.944v-6.257l-1.893.696v-.853l2.69-1.01h.147v7.424zm7.591 0h-4.84v-.675l2.557-2.841c.379-.43.639-.778.781-1.046.146-.27.218-.549.218-.837 0-.386-.116-.702-.35-.949-.233-.247-.544-.37-.934-.37-.466 0-.83.133-1.09.401-.258.263-.386.632-.386 1.106h-.939c0-.68.218-1.23.655-1.649.44-.42 1.026-.63 1.76-.63.687 0 1.23.181 1.63.543.398.359.598.838.598 1.436 0 .728-.463 1.594-1.39 2.598l-1.98 2.147h3.71v.766zm5.627-3.151c0 1.099-.187 1.916-.563 2.451-.375.534-.962.802-1.76.802-.789 0-1.372-.261-1.751-.782-.379-.524-.575-1.306-.589-2.344v-1.254c0-1.085.188-1.892.563-2.42.376-.528.965-.792 1.766-.792.795 0 1.38.256 1.756.767.376.507.568 1.292.579 2.354v1.218zm-.938-1.284c0-.795-.112-1.373-.335-1.735-.223-.366-.577-.548-1.06-.548-.481 0-.831.181-1.051.543-.22.362-.333.918-.34 1.669v1.502c0 .798.115 1.389.345 1.771.234.379.585.568 1.056.568.463 0 .806-.179 1.03-.537.226-.359.345-.924.355-1.695v-1.538zm4.567 1.639c0-.538.105-1.021.314-1.451a2.39 2.39 0 01.883-.995 2.42 2.42 0 011.294-.35c.748 0 1.352.259 1.812.777.463.517.695 1.206.695 2.065v.066c0 .534-.103 1.015-.31 1.441a2.306 2.306 0 01-.877.989 2.417 2.417 0 01-1.31.356c-.744 0-1.348-.259-1.811-.777-.46-.517-.69-1.202-.69-2.055v-.066zm.944.112c0 .609.14 1.098.42 1.466.285.369.664.553 1.137.553.477 0 .856-.186 1.137-.558.28-.375.421-.9.421-1.573 0-.602-.144-1.089-.431-1.461a1.353 1.353 0 00-1.137-.563c-.463 0-.837.184-1.121.553-.284.368-.426.896-.426 1.583zm9.2-2.045h-1.843v4.729h-.938v-4.729h-1.807v-.761H97.3v.761zm3.932.741a.724.724 0 00-.294-.609c-.197-.152-.466-.229-.807-.229-.332 0-.61.087-.832.259-.22.173-.33.376-.33.609h-.934c0-.477.2-.868.599-1.172.399-.304.898-.457 1.497-.457.643 0 1.143.139 1.502.416.358.274.538.667.538 1.178 0 .247-.075.473-.224.68-.148.206-.36.37-.634.492.639.216.959.643.959 1.279 0 .504-.194.903-.583 1.197-.389.294-.909.442-1.558.442-.633 0-1.156-.154-1.568-.462-.41-.311-.614-.731-.614-1.259h.933c0 .268.119.498.356.69.24.19.538.285.893.285.358 0 .648-.083.867-.249a.772.772 0 00.33-.644c0-.308-.093-.528-.279-.66-.182-.135-.468-.203-.857-.203h-.94v-.792h1.021c.639-.017.959-.28.959-.791zm3.283.39h1.426c.622.007 1.115.17 1.477.488.362.318.542.749.542 1.294 0 .548-.186.987-.558 1.319-.372.331-.872.497-1.502.497h-2.324v-5.49h.939v1.892zm5.404 3.598h-.944v-5.49h.944v5.49zm-5.404-2.831v2.065h1.395c.352 0 .625-.09.817-.269.193-.183.29-.431.29-.746 0-.304-.095-.553-.284-.746-.187-.196-.449-.298-.787-.304h-1.431zm7.129 2.831v-5.49h2.142c.731 0 1.29.128 1.679.385.393.254.589.628.589 1.122 0 .254-.076.484-.228.69-.153.203-.377.358-.675.467.331.078.597.23.797.456.202.227.304.498.304.812 0 .504-.186.89-.558 1.157-.369.268-.892.401-1.568.401h-2.482zm.939-2.41v1.654h1.553c.392 0 .685-.073.878-.218a.72.72 0 00.294-.614c0-.548-.402-.822-1.208-.822h-1.517zm0-.751h1.213c.88 0 1.319-.257 1.319-.771 0-.515-.416-.78-1.248-.797h-1.284v1.568zm4.664.365c0-.538.104-1.021.314-1.451.213-.43.508-.761.883-.995a2.42 2.42 0 011.294-.35c.748 0 1.351.259 1.812.777.463.517.695 1.206.695 2.065v.066c0 .534-.103 1.015-.31 1.441a2.301 2.301 0 01-.878.989 2.416 2.416 0 01-1.309.356c-.744 0-1.348-.259-1.811-.777-.46-.517-.69-1.202-.69-2.055v-.066zm.943.112c0 .609.141 1.098.422 1.466.284.369.663.553 1.136.553.477 0 .856-.186 1.137-.558.281-.375.421-.9.421-1.573 0-.602-.144-1.089-.431-1.461a1.353 1.353 0 00-1.137-.563c-.463 0-.837.184-1.121.553-.285.368-.427.896-.427 1.583zm5.318 2.684v-5.49h2.142c.73 0 1.29.128 1.679.385.393.254.589.628.589 1.122 0 .254-.076.484-.228.69-.153.203-.378.358-.675.467.331.078.597.23.796.456.203.227.305.498.305.812 0 .504-.186.89-.558 1.157-.369.268-.892.401-1.568.401h-2.482zm.939-2.41v1.654H126c.392 0 .685-.073.878-.218a.72.72 0 00.294-.614c0-.548-.403-.822-1.208-.822h-1.517zm0-.751h1.213c.879 0 1.319-.257 1.319-.771 0-.515-.416-.78-1.248-.797h-1.284v1.568z" fill="#000" fill-opacity=".6"/><path d="M175.666 239.074h-2.144v-8.264l-2.559.794v-1.743l4.473-1.603h.23v10.816zm10.786-4.466c0 1.494-.309 2.636-.927 3.428-.618.791-1.523 1.187-2.715 1.187-1.177 0-2.077-.389-2.7-1.165-.623-.777-.942-1.889-.957-3.338v-1.988c0-1.509.311-2.654.934-3.435.629-.782 1.531-1.172 2.708-1.172 1.177 0 2.077.388 2.7 1.164.624.772.943 1.882.957 3.331v1.988zm-2.144-2.181c0-.895-.123-1.545-.37-1.951-.243-.41-.624-.615-1.143-.615-.504 0-.878.195-1.12.586-.237.385-.364.991-.378 1.817v2.626c0 .881.118 1.536.356 1.966.242.425.628.638 1.157.638.524 0 .903-.205 1.135-.616.232-.41.354-1.038.363-1.884v-2.567zm7.211 2.315l-1.157 1.246v3.086h-2.226v-10.801h2.226v4.896l.979-1.342 2.752-3.554h2.738l-3.836 4.8 3.947 6.001h-2.648l-2.775-4.332zm10.445-1.714h2.678v1.936h-2.678v3.027h-2.04v-3.027h-2.685v-1.936h2.685v-2.9h2.04v2.9z" fill="#000" fill-opacity=".8"/><path d="M163.356 254.648c-.091.781-.381 1.385-.868 1.811-.483.423-1.128.635-1.933.635-.873 0-1.573-.313-2.101-.939-.524-.626-.786-1.463-.786-2.512v-.71c0-.687.121-1.291.365-1.812.247-.521.595-.92 1.045-1.197.45-.281.971-.422 1.563-.422.785 0 1.414.22 1.888.66.473.437.749 1.042.827 1.817h-.979c-.085-.589-.269-1.015-.553-1.279-.281-.264-.675-.396-1.183-.396-.622 0-1.111.23-1.466.69-.352.46-.528 1.115-.528 1.964v.716c0 .801.167 1.439.502 1.913.335.473.804.71 1.406.71.541 0 .956-.122 1.243-.365.291-.247.484-.675.579-1.284h.979zm2.897.005h-.685v2.339h-.943v-5.49h.943v2.324h.614l1.847-2.324h1.137l-2.172 2.638 2.355 2.852h-1.193l-1.903-2.339zm7.292 2.339c-.054-.108-.098-.301-.132-.578-.436.453-.957.68-1.563.68-.541 0-.986-.153-1.334-.457a1.497 1.497 0 01-.518-1.167c0-.572.217-1.015.65-1.33.436-.318 1.049-.477 1.837-.477h.913v-.431c0-.328-.098-.589-.294-.781-.196-.197-.486-.295-.868-.295-.335 0-.616.085-.842.254-.227.169-.34.374-.34.614h-.944c0-.274.096-.538.289-.792.196-.257.46-.46.792-.608a2.679 2.679 0 011.101-.224c.633 0 1.128.159 1.487.477.358.315.544.75.558 1.304v2.527c0 .504.064.905.193 1.203v.081h-.985zm-1.558-.715c.295 0 .574-.076.838-.229.264-.152.455-.35.573-.593v-1.127h-.736c-1.15 0-1.725.337-1.725 1.01 0 .294.098.524.294.69.197.166.449.249.756.249zm7.967.715h-.944v-1.989a4.982 4.982 0 01-1.268.162c-.687 0-1.211-.175-1.573-.527-.359-.352-.542-.853-.548-1.502v-1.639h.938v1.669c.017.819.411 1.228 1.183 1.228.433 0 .856-.054 1.268-.162v-2.73h.944v5.49zm5.059-5.49h.939v5.49h-.939v-4.003l-2.532 4.003h-.939v-5.49h.939v4.008l2.532-4.008zm2.532 5.49v-5.49h2.142c.73 0 1.29.128 1.679.385.393.254.589.628.589 1.122 0 .254-.076.484-.228.69-.153.203-.378.359-.675.467.331.078.597.23.796.456.203.227.305.498.305.812 0 .504-.186.89-.558 1.157-.369.268-.892.401-1.568.401h-2.482zm.939-2.41v1.654h1.553c.392 0 .685-.073.878-.218a.72.72 0 00.294-.614c0-.548-.403-.822-1.208-.822h-1.517zm0-.751h1.213c.879 0 1.319-.257 1.319-.771 0-.515-.416-.78-1.248-.797h-1.284v1.568zm8.302 3.161c-.054-.108-.098-.301-.132-.578-.437.453-.958.68-1.563.68-.541 0-.986-.153-1.335-.457a1.497 1.497 0 01-.517-1.167c0-.572.216-1.015.649-1.33.437-.318 1.049-.477 1.837-.477h.914v-.431c0-.328-.099-.589-.295-.781-.196-.197-.485-.295-.867-.295-.335 0-.616.085-.843.254-.226.169-.34.374-.34.614h-.944c0-.274.097-.538.29-.792.196-.257.46-.46.791-.608a2.679 2.679 0 011.101-.224c.633 0 1.129.159 1.487.477.359.315.545.75.558 1.304v2.527c0 .504.065.905.193 1.203v.081h-.984zm-1.558-.715c.294 0 .573-.076.837-.229.264-.152.455-.35.574-.593v-1.127h-.736c-1.15 0-1.725.337-1.725 1.01 0 .294.098.524.294.69.196.166.448.249.756.249zm8.307.715h-.939v-2.344h-2.522v2.344h-.944v-5.49h.944v2.38h2.522v-2.38h.939v5.49zm5.064-5.49h.939v5.49h-.939v-4.003l-2.532 4.003h-.939v-5.49h.939v4.008l2.532-4.008zm5.998 0h.938v5.49h-.938v-4.003l-2.532 4.003h-.939v-5.49h.939v4.008l2.532-4.008zm.253-2c0 .41-.14.74-.421.99-.277.247-.643.37-1.096.37-.453 0-.82-.125-1.101-.375s-.421-.579-.421-.985h.766c0 .237.064.423.193.559.128.132.316.198.563.198.237 0 .421-.066.553-.198.136-.132.203-.318.203-.559h.761zm47.166 3.339h.705c.444-.006.792-.123 1.046-.35.254-.226.38-.533.38-.918 0-.866-.431-1.299-1.294-1.299-.406 0-.73.116-.974.35-.24.23-.36.536-.36.918h-.939c0-.585.213-1.07.639-1.456.43-.389.975-.584 1.634-.584.697 0 1.244.185 1.639.554.396.368.594.881.594 1.537 0 .321-.105.633-.314.934a1.873 1.873 0 01-.848.675c.406.128.719.341.939.639.223.298.335.661.335 1.091 0 .663-.217 1.189-.65 1.578-.433.389-.996.584-1.689.584-.694 0-1.259-.188-1.695-.564-.433-.375-.65-.871-.65-1.486h.944c0 .389.127.7.381.933.253.234.593.35 1.02.35.453 0 .8-.118 1.04-.355s.36-.577.36-1.02c0-.429-.132-.759-.396-.989-.264-.23-.644-.349-1.142-.355h-.705v-.767zm8.155-3.242v.797h-.173c-.731.013-1.312.23-1.745.649-.433.42-.684 1.01-.751 1.771.389-.447.92-.67 1.593-.67.643 0 1.155.227 1.537.68.386.453.579 1.039.579 1.756 0 .761-.208 1.37-.624 1.827-.413.456-.968.685-1.665.685-.707 0-1.28-.271-1.72-.812-.44-.545-.66-1.245-.66-2.101v-.36c0-1.36.29-2.399.868-3.116.582-.72 1.446-1.089 2.593-1.106h.168zm-1.233 3.329c-.322 0-.618.096-.888.289a1.509 1.509 0 00-.564.726v.345c0 .608.137 1.099.411 1.471.274.372.616.558 1.025.558.423 0 .755-.155.995-.467.243-.311.365-.718.365-1.222 0-.508-.123-.917-.37-1.228a1.17 1.17 0 00-.974-.472zm7.464-3.324l2.415 6.028 2.416-6.028h1.263v7.388h-.974v-2.877l.091-3.105-2.425 5.982h-.746l-2.421-5.967.097 3.09v2.877h-.975v-7.388h1.259zm12.32.802h-3.562v2.212h1.837c.771.01 1.374.208 1.807.594.433.385.649.91.649 1.573 0 .666-.218 1.197-.654 1.593-.437.396-1.032.601-1.787.614h-2.831v-7.388h4.541v.802zm-3.562 3.014v2.776h1.781c.484 0 .86-.129 1.127-.386.27-.257.406-.602.406-1.035 0-.416-.13-.745-.391-.985-.257-.24-.624-.363-1.101-.37h-1.822z" fill="#000" fill-opacity=".6"/><path stroke="#000" stroke-opacity=".3" stroke-width=".866" d="M139.935 228.805v27.712m96.416-27.712v27.712"/><rect x="42.216" y="279.035" width="290.117" height="27.713" rx="3.464" fill="#01875F"/><path d="M153.819 293.583l2.266-5.717h1.509l-3.484 8.207c-.235.523-.453.895-.656 1.116a2.101 2.101 0 01-.718.501c-.27.112-.611.169-1.021.169-.357 0-.584-.02-.684-.061l.041-1.028.616.027c.473 0 .825-.228 1.055-.684l.169-.352.257-.602-3.355-7.293h1.454l2.551 5.717zm7.611 3.247c.447 0 .837-.135 1.171-.405.334-.271.519-.609.555-1.015h1.184a2.275 2.275 0 01-.433 1.197 2.853 2.853 0 01-1.069.907 3.06 3.06 0 01-1.408.338c-.996 0-1.79-.331-2.381-.994-.587-.668-.88-1.579-.88-2.734v-.21c0-.712.131-1.346.393-1.901a2.993 2.993 0 011.123-1.292c.491-.307 1.071-.46 1.739-.46.821 0 1.502.246 2.043.737.546.492.837 1.13.873 1.915h-1.184c-.036-.474-.217-.861-.542-1.164-.32-.306-.717-.46-1.19-.46-.636 0-1.13.23-1.482.69-.347.456-.521 1.117-.521 1.983v.237c0 .843.174 1.493.521 1.948.347.456.843.683 1.488.683zm9.757-5.419h-2.456v6.306h-1.252v-6.306h-2.409v-1.015h6.117v1.015zm5.629 6.306c-.072-.145-.131-.402-.176-.772-.582.605-1.277.907-2.084.907-.722 0-1.315-.203-1.779-.609-.46-.41-.69-.929-.69-1.556 0-.762.288-1.353.866-1.773.581-.424 1.398-.636 2.449-.636h1.218v-.575c0-.437-.131-.784-.393-1.042-.261-.261-.647-.392-1.157-.392-.446 0-.821.113-1.123.338-.302.226-.453.499-.453.819h-1.259c0-.365.129-.717.386-1.056a2.676 2.676 0 011.055-.811 3.569 3.569 0 011.469-.298c.843 0 1.504.212 1.982.636.478.419.726.999.744 1.739v3.369c0 .672.086 1.207.257 1.604v.108h-1.312zm-2.077-.954a2.2 2.2 0 001.116-.305 1.84 1.84 0 00.765-.791v-1.502h-.981c-1.534 0-2.301.449-2.301 1.346 0 .393.131.699.393.92.261.221.597.332 1.008.332zm11.075.954h-1.251v-3.126H181.2v3.126h-1.258v-7.321h1.258v3.173h3.363v-3.173h1.251v7.321zm1.685-3.728c0-.717.14-1.362.419-1.935.285-.573.677-1.015 1.178-1.326.505-.311 1.08-.467 1.725-.467.997 0 1.802.345 2.415 1.035.618.69.927 1.608.927 2.754v.088c0 .712-.137 1.353-.412 1.921a3.087 3.087 0 01-1.171 1.32c-.505.315-1.087.473-1.745.473-.993 0-1.798-.345-2.416-1.035-.613-.69-.92-1.604-.92-2.74v-.088zm1.258.149c0 .812.188 1.463.562 1.955.379.492.884.737 1.516.737.635 0 1.141-.248 1.515-.744.374-.5.562-1.2.562-2.097 0-.803-.192-1.453-.575-1.949a1.809 1.809 0 00-1.516-.751c-.618 0-1.116.246-1.495.738-.379.491-.569 1.195-.569 2.111zm7.091 3.579v-7.321h2.855c.974 0 1.721.172 2.24.514.523.339.784.837.784 1.496 0 .338-.101.645-.304.92-.203.27-.503.478-.9.622.442.104.796.307 1.062.609.271.302.406.663.406 1.083 0 .672-.248 1.186-.744 1.542-.492.357-1.188.535-2.091.535h-3.308zm1.252-3.214v2.206h2.07c.523 0 .913-.097 1.17-.291.262-.194.393-.467.393-.819 0-.731-.537-1.096-1.61-1.096H197.1zm0-1.001h1.617c1.172 0 1.759-.343 1.759-1.029 0-.685-.555-1.039-1.665-1.062H197.1v2.091zm11.285-3.106h1.252v7.321h-1.252v-5.338l-3.376 5.338h-1.252v-7.321h1.252v5.345l3.376-5.345zm8.701 1.015h-2.456v6.306h-1.252v-6.306h-2.409v-1.015h6.117v1.015zm2.584 1.509h1.901c.83.009 1.487.225 1.969.649.483.424.724.999.724 1.726 0 .73-.248 1.317-.744 1.759-.496.442-1.164.663-2.003.663h-3.098v-7.321h1.251v2.524zm0 1.021v2.754h1.861c.469 0 .832-.119 1.089-.358.257-.244.386-.576.386-.995 0-.406-.126-.737-.379-.995-.248-.261-.598-.396-1.049-.406h-1.908z" fill="#fff"/><path d="M293.797 125.749h-.684l-.242-.234a5.607 5.607 0 001.359-3.663 5.629 5.629 0 10-5.629 5.629 5.602 5.602 0 003.663-1.36l.234.243v.684l4.33 4.321 1.291-1.29-4.322-4.33zm-5.196 0a3.892 3.892 0 01-3.897-3.897 3.892 3.892 0 013.897-3.897 3.89 3.89 0 013.897 3.897 3.892 3.892 0 01-3.897 3.897zm33.342-5.195c.953 0 1.732-.779 1.732-1.732s-.779-1.732-1.732-1.732-1.732.779-1.732 1.732.779 1.732 1.732 1.732zm0 1.732c-.953 0-1.732.779-1.732 1.732s.779 1.732 1.732 1.732 1.732-.779 1.732-1.732-.779-1.732-1.732-1.732zm0 5.196c-.953 0-1.732.78-1.732 1.732 0 .953.779 1.732 1.732 1.732s1.732-.779 1.732-1.732c0-.952-.779-1.732-1.732-1.732z" fill="#323232" fill-opacity=".6"/><g filter="url(#filter1_ddd)"><path d="M71.117 194.817c14.836 0 26.864-12.028 26.864-26.864S85.953 141.09 71.117 141.09s-26.863 12.027-26.863 26.863 12.027 26.864 26.863 26.864z" fill="#F0F5FF"/><path d="M97.798 167.953c0 14.735-11.946 26.681-26.68 26.681-14.736 0-26.681-11.946-26.681-26.681 0-14.735 11.945-26.68 26.68-26.68s26.68 11.945 26.68 26.68z" stroke="#BEDCFF" stroke-width=".366"/></g><g filter="url(#filter2_i)"><path d="M65.525 168.272c.881.308 1.571.792 2.07 1.453.5.646.75 1.432.75 2.357 0 1.351-.544 2.393-1.63 3.127-1.087.734-2.658 1.102-4.714 1.102h-8.325v-15.418h7.885c1.967 0 3.465.367 4.493 1.102 1.028.719 1.541 1.695 1.541 2.929 0 .734-.183 1.395-.55 1.982-.353.573-.86 1.028-1.52 1.366zm-7.532-4.229v2.973h2.995c1.468 0 2.203-.499 2.203-1.497 0-.984-.735-1.476-2.203-1.476h-2.995zm3.656 9.118c1.527 0 2.29-.521 2.29-1.564 0-1.042-.763-1.563-2.29-1.563h-3.656v3.127h3.656z" fill="#3E54D8"/><path d="M84.522 176.311l-.044-8.172-3.964 6.652h-1.938l-3.942-6.431v7.951h-4.031v-15.418h3.59l5.418 8.898 5.286-8.898h3.59l.044 15.418h-4.009z" fill="#EF7381"/></g><path d="M269.097 232.326l3.6 3.6 3.601-3.6m-3.601-6v9.599m7.544.001v4.8a.687.687 0 01-.686.686h-13.716a.685.685 0 01-.685-.686v-4.8" stroke="#323233" stroke-width="1.688" stroke-linecap="round" stroke-linejoin="round"/><path d="M25.331 79.85c0-9.327 7.561-16.888 16.888-16.888H332.68c9.326 0 16.887 7.561 16.887 16.888v230.455c0 9.289-7.53 16.82-16.82 16.82H42.151c-9.29 0-16.82-7.531-16.82-16.82V79.85z" stroke="#D3E3FF" stroke-width=".866"/></g><defs><filter id="filter0_d" x="-21.353" y=".126" width="417.604" height="357.531" filterUnits="userSpaceOnUse" color-interpolation-filters="sRGB"><feFlood flood-opacity="0" result="BackgroundImageFix"/><feColorMatrix in="SourceAlpha" values="0 0 0 0 0 0 0 0 0 0 0 0 0 0 0 0 0 0 127 0"/><feMorphology radius="3.671" in="SourceAlpha" result="effect1_dropShadow"/><feOffset dy="-16.151"/><feGaussianBlur stdDeviation="24.961"/><feColorMatrix values="0 0 0 0 0.243137 0 0 0 0 0.329412 0 0 0 0 0.847059 0 0 0 0.12 0"/><feBlend in2="BackgroundImageFix" result="effect1_dropShadow"/><feBlend in="SourceGraphic" in2="effect1_dropShadow" result="shape"/></filter><filter id="filter1_ddd" x="39.375" y="137.675" width="63.485" height="63.485" filterUnits="userSpaceOnUse" color-interpolation-filters="sRGB"><feFlood flood-opacity="0" result="BackgroundImageFix"/><feColorMatrix in="SourceAlpha" values="0 0 0 0 0 0 0 0 0 0 0 0 0 0 0 0 0 0 127 0"/><feOffset dy="1.464"/><feGaussianBlur stdDeviation="2.44"/><feColorMatrix values="0 0 0 0 0 0 0 0 0 0.380392 0 0 0 0 0.913725 0 0 0 0.18 0"/><feBlend in2="BackgroundImageFix" result="effect1_dropShadow"/><feColorMatrix in="SourceAlpha" values="0 0 0 0 0 0 0 0 0 0 0 0 0 0 0 0 0 0 127 0"/><feOffset dy=".488"/><feGaussianBlur stdDeviation=".061"/><feColorMatrix values="0 0 0 0 0 0 0 0 0 0.380392 0 0 0 0 0.913725 0 0 0 0.03 0"/><feBlend in2="effect1_dropShadow" result="effect2_dropShadow"/><feColorMatrix in="SourceAlpha" values="0 0 0 0 0 0 0 0 0 0 0 0 0 0 0 0 0 0 127 0"/><feOffset dy="2.171"/><feGaussianBlur stdDeviation="1.085"/><feColorMatrix values="0 0 0 0 0 0 0 0 0 0 0 0 0 0 0 0 0 0 0.07 0"/><feBlend in2="effect2_dropShadow" result="effect3_dropShadow"/><feBlend in="SourceGraphic" in2="effect3_dropShadow" result="shape"/></filter><filter id="filter2_i" x="53.676" y="160.893" width="34.855" height="16.004" filterUnits="userSpaceOnUse" color-interpolation-filters="sRGB"><feFlood flood-opacity="0" result="BackgroundImageFix"/><feBlend in="SourceGraphic" in2="BackgroundImageFix" result="shape"/><feColorMatrix in="SourceAlpha" values="0 0 0 0 0 0 0 0 0 0 0 0 0 0 0 0 0 0 127 0" result="hardAlpha"/><feOffset dy=".587"/><feGaussianBlur stdDeviation=".44"/><feComposite in2="hardAlpha" operator="arithmetic" k2="-1" k3="1"/><feColorMatrix values="0 0 0 0 0 0 0 0 0 0 0 0 0 0 0 0 0 0 0.25 0"/><feBlend in2="shape" result="effect1_innerShadow"/></filter></defs></svg>