<svg width="70" height="70" fill="none" xmlns="http://www.w3.org/2000/svg"><g filter="url(#filter0_d_5954_4249)"><circle cx="34" cy="34" r="33" fill="#fff"/><circle cx="34" cy="34" r="32.806" stroke="#D3E3FF" stroke-width=".388"/></g><g filter="url(#filter1_i_5954_4249)"><path d="M19.067 32.942V19.556h6.846c1.76 0 3.072.325 3.94.975.866.638 1.3 1.48 1.3 2.524 0 .689-.185 1.294-.555 1.817-.357.51-.867.918-1.53 1.224-.65.293-1.428.44-2.333.44l.383-.918c.943 0 1.765.147 2.467.44.7.28 1.243.695 1.625 1.243.395.535.593 1.192.593 1.97 0 1.16-.472 2.065-1.415 2.715-.93.637-2.295.956-4.093.956h-7.228zm3.748-2.735h3.174c.65 0 1.142-.108 1.473-.325.344-.23.516-.573.516-1.032 0-.46-.172-.797-.516-1.014-.331-.23-.822-.344-1.473-.344h-3.442v-2.62h2.869c.637 0 1.115-.108 1.434-.325.319-.217.478-.542.478-.975 0-.434-.16-.752-.478-.956-.319-.217-.797-.325-1.434-.325h-2.6v7.916z" fill="#3E54D8"/><path d="M33.764 32.942V19.556h3.117l5.546 9.102h-1.645l5.393-9.102h3.117l.038 13.386h-3.48l-.039-8.089h.593l-4.035 6.77h-1.683l-4.15-6.77h.727v8.089h-3.499z" fill="#ED6373"/></g><path d="M16.247 49.046c-.49 0-.96-.067-1.405-.201-.44-.134-.785-.298-1.038-.491l.446-.848c.253.171.565.316.937.435.372.12.751.179 1.138.179.498 0 .855-.07 1.07-.212a.664.664 0 00.336-.591.52.52 0 00-.201-.435 1.371 1.371 0 00-.536-.235 7.508 7.508 0 00-.725-.134 15.281 15.281 0 01-.803-.156 3.581 3.581 0 01-.736-.267 1.452 1.452 0 01-.536-.48c-.133-.208-.2-.483-.2-.826 0-.357.1-.669.3-.937.202-.267.484-.472.849-.613.371-.149.81-.223 1.316-.223.387 0 .777.048 1.171.145.402.089.729.22.982.39l-.457.848a2.528 2.528 0 00-.837-.368 3.86 3.86 0 00-.87-.1c-.469 0-.818.078-1.049.234-.23.148-.346.342-.346.58 0 .2.067.357.201.468.142.104.32.186.536.246.223.06.468.111.736.156.268.037.535.09.803.156.268.06.51.145.725.257.223.111.402.267.536.468.14.2.212.469.212.803 0 .357-.105.666-.313.926-.208.26-.502.465-.881.614-.38.14-.833.212-1.361.212zm6.47 0c-.603 0-1.142-.13-1.618-.39a2.883 2.883 0 01-1.104-1.072c-.268-.453-.402-.974-.402-1.561 0-.588.134-1.109.402-1.562a2.803 2.803 0 011.104-1.06c.476-.26 1.015-.39 1.618-.39.535 0 1.011.108 1.427.323.424.208.752.52.982.937l-.814.524a1.763 1.763 0 00-.714-.635 1.925 1.925 0 00-.893-.212c-.386 0-.732.085-1.037.256a1.888 1.888 0 00-.725.725c-.178.305-.268.67-.268 1.094 0 .423.09.792.268 1.104.178.312.42.554.725.725.305.171.65.257 1.037.257.32 0 .618-.067.893-.201a1.85 1.85 0 00.714-.647l.814.513c-.23.409-.558.725-.982.948-.416.216-.892.324-1.427.324zm6.24 0c-.594 0-1.122-.13-1.584-.39a2.905 2.905 0 01-1.093-1.072 3.053 3.053 0 01-.401-1.561c0-.588.134-1.109.401-1.562a2.824 2.824 0 011.093-1.06c.462-.26.99-.39 1.584-.39.588 0 1.112.13 1.573.39a2.72 2.72 0 011.093 1.06c.268.446.402.967.402 1.562 0 .587-.134 1.108-.401 1.561-.26.454-.625.81-1.094 1.071-.46.26-.985.39-1.573.39zm0-.937a2 2 0 001.016-.257 1.81 1.81 0 00.713-.725c.172-.32.257-.688.257-1.104 0-.424-.085-.789-.257-1.094a1.811 1.811 0 00-.713-.725 2 2 0 00-1.015-.256 2 2 0 00-1.016.256 1.911 1.911 0 00-.713.725c-.179.305-.268.67-.268 1.094 0 .416.089.784.268 1.104.178.312.416.554.713.725a2 2 0 001.015.257zm4.55.87v-5.913h1.025v1.607l-.1-.402c.164-.409.439-.721.825-.937.387-.215.863-.323 1.428-.323v1.037a.808.808 0 00-.134-.011h-.111c-.573 0-1.026.171-1.361.513-.335.342-.502.837-.502 1.484v2.945h-1.07zm4.498 0v-5.913h1.071v5.913h-1.07zm.535-7.05a.733.733 0 01-.524-.201.667.667 0 01-.2-.49.68.68 0 01.2-.503.733.733 0 01.525-.2c.208 0 .379.066.513.2a.616.616 0 01.212.48.72.72 0 01-.201.513.709.709 0 01-.524.2zm5.738 1.082c.483 0 .907.093 1.271.279.372.185.662.468.87.847.209.38.313.86.313 1.44v3.402H45.66v-3.28c0-.572-.142-1.004-.424-1.294-.275-.29-.666-.435-1.171-.435-.38 0-.71.074-.993.223a1.56 1.56 0 00-.658.658c-.15.29-.224.651-.224 1.082v3.046h-1.07v-5.913h1.026v1.596l-.167-.424a2.05 2.05 0 01.892-.904c.402-.215.87-.323 1.406-.323zM51.3 51.21c-.543 0-1.07-.078-1.584-.235-.505-.148-.918-.364-1.238-.647l.513-.825a2.97 2.97 0 001.015.558 3.77 3.77 0 001.26.212c.7 0 1.213-.164 1.54-.491.328-.327.491-.826.491-1.495v-1.25l.112-1.17-.056-1.183v-1.617h1.015v5.108c0 1.042-.26 1.808-.78 2.298-.521.491-1.284.737-2.288.737zm-.134-2.477a3.264 3.264 0 01-1.539-.357 2.865 2.865 0 01-1.07-1.015c-.261-.431-.391-.93-.391-1.495 0-.572.13-1.07.39-1.494a2.78 2.78 0 011.071-1.004 3.263 3.263 0 011.54-.357c.505 0 .966.104 1.383.312.416.2.747.513.992.937.253.424.38.96.38 1.606 0 .64-.127 1.172-.38 1.596a2.415 2.415 0 01-.992.959 3.05 3.05 0 01-1.384.312zm.123-.937c.394 0 .744-.082 1.049-.245.305-.164.543-.39.714-.68.178-.29.267-.625.267-1.005 0-.379-.089-.713-.267-1.004a1.722 1.722 0 00-.714-.669 2.183 2.183 0 00-1.049-.245 2.25 2.25 0 00-1.06.245c-.304.156-.546.38-.725.67a1.94 1.94 0 00-.256 1.003c0 .38.085.714.256 1.004.179.29.42.517.725.68a2.25 2.25 0 001.06.246z" fill="#373943"/><defs><filter id="filter0_d_5954_4249" x=".205" y=".205" width="69.178" height="69.178" filterUnits="userSpaceOnUse" color-interpolation-filters="sRGB"><feFlood flood-opacity="0" result="BackgroundImageFix"/><feColorMatrix in="SourceAlpha" values="0 0 0 0 0 0 0 0 0 0 0 0 0 0 0 0 0 0 127 0" result="hardAlpha"/><feOffset dx=".795" dy=".795"/><feGaussianBlur stdDeviation=".795"/><feComposite in2="hardAlpha" operator="out"/><feColorMatrix values="0 0 0 0 0.243137 0 0 0 0 0.329412 0 0 0 0 0.847059 0 0 0 0.31 0"/><feBlend in2="BackgroundImageFix" result="effect1_dropShadow_5954_4249"/><feBlend in="SourceGraphic" in2="effect1_dropShadow_5954_4249" result="shape"/></filter><filter id="filter1_i_5954_4249" x="19.067" y="19.556" width="30.742" height="13.865" filterUnits="userSpaceOnUse" color-interpolation-filters="sRGB"><feFlood flood-opacity="0" result="BackgroundImageFix"/><feBlend in="SourceGraphic" in2="BackgroundImageFix" result="shape"/><feColorMatrix in="SourceAlpha" values="0 0 0 0 0 0 0 0 0 0 0 0 0 0 0 0 0 0 127 0" result="hardAlpha"/><feOffset dx=".479" dy=".719"/><feGaussianBlur stdDeviation=".24"/><feComposite in2="hardAlpha" operator="arithmetic" k2="-1" k3="1"/><feColorMatrix values="0 0 0 0 0 0 0 0 0 0 0 0 0 0 0 0 0 0 0.31 0"/><feBlend in2="shape" result="effect1_innerShadow_5954_4249"/></filter></defs></svg>