<svg width="40" height="40" fill="none" xmlns="http://www.w3.org/2000/svg"><rect x=".5" y=".5" width="39" height="39" rx="7.5" fill="#fff" stroke="#E6EEFF"/><g clip-path="url(#clip0)"><path d="M27.225 13.078a9.985 9.985 0 00-7.228-3.077c-5.514-.007-9.99 4.457-9.997 9.972a9.985 9.985 0 003.077 7.222c.006.006.008.014.014.02.058.055.12.102.18.156.16.143.32.29.49.428.09.072.184.143.277.209.16.119.32.238.487.348.114.072.231.143.347.214.155.093.308.187.467.272.135.071.273.133.41.198.15.07.298.142.452.207.153.064.307.114.463.17.155.055.29.107.439.152.169.051.341.09.513.132.143.035.281.075.428.104.197.04.397.064.597.091.124.017.244.042.37.054.326.032.656.05.989.05.333 0 .663-.018.99-.05.125-.012.245-.037.369-.054.2-.027.4-.052.597-.091.143-.029.285-.072.428-.104.171-.042.344-.081.513-.132.149-.045.293-.101.439-.152.146-.052.311-.108.463-.17.152-.063.302-.137.452-.207.137-.066.275-.127.41-.198.159-.085.312-.179.466-.272.117-.071.234-.136.348-.214.167-.11.327-.229.486-.348.093-.072.188-.136.278-.209.17-.136.33-.28.49-.428.06-.054.122-.1.18-.157.006-.005.008-.013.014-.019 3.982-3.815 4.117-10.135.302-14.117zm-1.605 13.37a8.305 8.305 0 01-.642.508 7.929 7.929 0 01-.69.448l-.383.214a9.68 9.68 0 01-.72.33 7.036 7.036 0 01-.393.143c-.12.042-.241.084-.364.12-.142.044-.292.079-.44.114-.115.028-.23.058-.346.081-.17.033-.342.056-.516.08-.099.012-.196.03-.296.04a8.685 8.685 0 01-.832.042c-.28 0-.559-.016-.833-.042-.099-.01-.197-.028-.295-.04-.174-.024-.347-.047-.516-.08-.117-.023-.231-.053-.347-.08a9.905 9.905 0 01-.44-.114c-.122-.037-.243-.08-.363-.12a9.874 9.874 0 01-.393-.144 7.348 7.348 0 01-.373-.162 6.528 6.528 0 01-.73-.382 8.6 8.6 0 01-1.333-.956c-.031-.024-.06-.054-.09-.081a5.729 5.729 0 013.893-5.352 4.234 4.234 0 003.638 0 5.73 5.73 0 013.894 5.352c-.03.027-.059.054-.09.08zm-8.113-10.722a2.856 2.856 0 113.89 3.89c-.004 0-.008 0-.012.004-.19.105-.39.19-.597.252-.038.011-.072.026-.111.035a3.17 3.17 0 01-.22.044 2.889 2.889 0 01-.42.042h-.08a2.889 2.889 0 01-.42-.042c-.071-.013-.147-.026-.22-.044-.038-.01-.071-.024-.11-.035a3.03 3.03 0 01-.597-.252l-.013-.005a2.856 2.856 0 01-1.09-3.89zm9.47 9.225a7.176 7.176 0 00-3.824-4.922 4.284 4.284 0 10-6.312 0 7.176 7.176 0 00-3.823 4.922 8.564 8.564 0 1115.548-4.954 8.513 8.513 0 01-1.59 4.954z" fill="#3E54D8"/></g><defs><clipPath id="clip0"><path fill="#fff" transform="translate(10 10)" d="M0 0h20v20H0z"/></clipPath></defs></svg>