<svg width="61" height="58" fill="none" xmlns="http://www.w3.org/2000/svg"><path opacity=".1" d="M61 23c0 12.703-10.297 23-23 23H15V0h23c12.703 0 23 10.297 23 23z" fill="#F3B63F"/><path d="M39.688 57.125H2.312a1.438 1.438 0 01-1.437-1.438V18.313a1.438 1.438 0 012.875 0V54.25h35.938a1.438 1.438 0 010 2.875z" fill="#373943"/><path d="M41.01 22.079a1.438 1.438 0 00-1.322-.892h-5.75a1.438 1.438 0 000 2.875h2.285L26.161 34.126H13.812a1.437 1.437 0 00-1.336.906l-5.75 14.375a1.439 1.439 0 002.673 1.063L14.79 37h11.96a1.438 1.438 0 001.02-.417L38.25 26.09v2.286a1.438 1.438 0 102.875 0v-5.75a1.44 1.44 0 00-.115-.546z" fill="#F3B63F"/></svg>