<svg width="61" height="59" fill="none" xmlns="http://www.w3.org/2000/svg"><path opacity=".2" d="M38 0c12.703 0 23 10.297 23 23v23H15V23C15 10.297 25.297 0 38 0z" fill="#199F27"/><path d="M42.594 53.125H5.875V16.406a1.469 1.469 0 10-2.938 0v38.188a1.469 1.469 0 001.47 1.468h38.187a1.468 1.468 0 100-2.937z" fill="#373943"/><path d="M10.281 47.25h1.469v1.469a1.468 1.468 0 102.938 0V47.25h1.468a1.468 1.468 0 001.469-1.469V36.97a1.468 1.468 0 00-1.469-1.469h-1.468V25.219a1.468 1.468 0 10-2.938 0V35.5h-1.469a1.468 1.468 0 00-1.469 1.469v8.812a1.469 1.469 0 001.47 1.469zm1.469-8.813h2.938v5.876H11.75v-5.876z" fill="#373943"/><path d="M23.5 39.906h1.469v7.344a1.47 1.47 0 002.937 0v-7.344h1.469a1.47 1.47 0 001.469-1.468V20.811a1.47 1.47 0 00-1.469-1.468h-1.469v-2.938a1.469 1.469 0 10-2.937 0v2.938H23.5a1.47 1.47 0 00-1.469 1.468v17.625a1.47 1.47 0 001.469 1.47zm1.469-17.625h2.937V36.97H24.97V22.28z" fill="#199F27"/><path d="M42.594 25.219h-1.469v-5.875a1.468 1.468 0 10-2.938 0v5.875H36.72a1.469 1.469 0 00-1.469 1.468v14.688a1.469 1.469 0 001.469 1.469h1.468v1.468a1.469 1.469 0 102.938 0v-1.468h1.469a1.469 1.469 0 001.468-1.469V26.687a1.469 1.469 0 00-1.468-1.468zm-1.469 14.687h-2.938v-11.75h2.938v11.75z" fill="#373943"/></svg>