<svg width="62" height="59" fill="none" xmlns="http://www.w3.org/2000/svg"><path d="M15.938 36.353V34.76a1.593 1.593 0 00-.112-.541 1.594 1.594 0 00-.207-.351l-6.375-7.969a1.593 1.593 0 00-2.486 0L.383 33.867a1.595 1.595 0 00-.208.35c-.09.17-.15.353-.175.542v1.594a7.969 7.969 0 0015.938 0zm-7.97-7.012l3.06 3.825h-6.12l3.06-3.825zm0 11.793a4.781 4.781 0 01-4.78-4.78h9.562a4.781 4.781 0 01-4.781 4.78z" fill="#373943"/><path d="M44.625 28.384a1.593 1.593 0 00-.112-.541 1.59 1.59 0 00-.207-.351l-6.375-7.969a1.592 1.592 0 00-2.486 0l-6.375 7.969a1.594 1.594 0 00-.207.35c-.09.17-.15.353-.175.542v1.594a7.969 7.969 0 0015.937 0v-1.594zm-7.969-5.418l3.06 3.825h-6.12l3.06-3.825zm0 11.793a4.781 4.781 0 01-4.781-4.78h9.563a4.781 4.781 0 01-4.782 4.78z" fill="#3E54D8"/><path d="M30.281 55.478H14.344a1.594 1.594 0 100 3.188H30.28a1.594 1.594 0 100-3.188zM7.969 23.603h.35l9.961-2.215a4.782 4.782 0 002.439 1.928v27.381h-1.594a1.594 1.594 0 100 3.188H25.5a1.594 1.594 0 100-3.188h-1.594v-27.38a4.781 4.781 0 003.188-3.905l9.913-2.184a1.63 1.63 0 10-.686-3.187l-9.96 2.247a4.782 4.782 0 00-8.83 1.944l-9.913 2.184a1.603 1.603 0 10.35 3.187zm14.343-6.375a1.594 1.594 0 110 3.188 1.594 1.594 0 010-3.188z" fill="#373943"/><circle opacity=".1" cx="37.5" cy="24.5" r="24.5" fill="#3E54D8"/></svg>