<svg width="723" height="506" fill="none" xmlns="http://www.w3.org/2000/svg"><circle cx="78" cy="43" r="38" fill="#3E54D8"/><g filter="url(#filter0_d)"><g clip-path="url(#clip0)"><rect x="75" y="31" width="573" height="356" rx="36" fill="#FAFCFF"/><g filter="url(#filter1_d)"><rect x="201" y="49" width="322" height="319.26" rx="9.135" fill="#fff"/><path d="M503.888 68.112l-11.561 11.56m11.561 0l-11.561-11.56" stroke="#3E54D8" stroke-width="1.285" stroke-linecap="round" stroke-linejoin="round"/><g clip-path="url(#clip1)"><rect x="215.844" y="103.123" width="292.312" height="29.688" rx="3.426" fill="#FCFDFF"/><path d="M215.615 105.635a2.74 2.74 0 012.741-2.74h143.872v30.145H218.356a2.74 2.74 0 01-2.741-2.741v-24.664z" fill="#3E54D8"/><path opacity=".9" d="M276.091 118.518h-1.069v2.425h-1.052v-5.755h1.052v2.409h1.102l1.652-2.409h1.135l-1.965 2.787 2.039 2.968h-1.209l-1.685-2.425zm7.592-1.965l-2.056 4.744c-.192.477-.424.811-.698 1.003-.275.197-.606.296-.995.296a2.05 2.05 0 01-.65-.107 1.43 1.43 0 01-.526-.296l.411-.756a1.116 1.116 0 00.757.304c.18 0 .328-.047.443-.14.121-.093.231-.249.329-.469l.074-.172-1.915-4.407h1.069l1.381 3.248 1.389-3.248h.987zm4.923 0v4.39h-1.02v-3.518h-2.162v3.518h-1.028v-4.39h4.21zm1.386 0h1.028v2.894l2.425-2.894h.937v4.39h-1.027v-2.894l-2.417 2.894h-.946v-4.39zm9.25.872h-1.537v3.518h-1.028v-3.518h-1.545v-.872h4.11v.872zm2.949.575c.559 0 .987.126 1.283.378.301.252.452.609.452 1.069 0 .482-.165.855-.493 1.118-.329.263-.792.392-1.39.387l-2.055-.009v-4.39h1.028v1.439l1.175.008zm-.238 2.195c.301.006.531-.057.69-.189.159-.131.239-.323.239-.575 0-.247-.077-.428-.23-.543-.154-.115-.387-.175-.699-.181l-.937-.008v1.488l.937.008z" fill="#fff"/><path opacity=".9" d="M422.94 115.188v5.755h-1.053v-4.85h-2.984v4.85h-1.052v-5.755h5.089zm3.941 1.316c.427 0 .808.093 1.143.279.339.187.605.45.797.79.192.339.288.731.288 1.175 0 .444-.096.839-.288 1.184a2.01 2.01 0 01-.797.789c-.335.187-.716.28-1.143.28-.592 0-1.061-.197-1.406-.592v2.129h-1.028v-5.985h.979v.576c.169-.209.378-.365.624-.469.253-.104.529-.156.831-.156zm-.115 3.617c.378 0 .688-.126.929-.378.246-.252.37-.584.37-.995 0-.411-.124-.742-.37-.995-.241-.252-.551-.378-.929-.378-.247 0-.469.058-.666.173a1.19 1.19 0 00-.469.477 1.47 1.47 0 00-.173.723c0 .274.058.515.173.724.115.208.271.37.469.485.197.109.419.164.666.164zm5.322.88c-.444 0-.844-.096-1.2-.288a2.146 2.146 0 01-.839-.797 2.318 2.318 0 01-.296-1.168c0-.433.099-.819.296-1.159.203-.34.483-.606.839-.797a2.487 2.487 0 011.2-.288c.45 0 .852.096 1.209.288.356.191.633.457.83.797.203.34.304.726.304 1.159 0 .433-.101.822-.304 1.168a2.082 2.082 0 01-.83.797 2.509 2.509 0 01-1.209.288zm0-.88c.378 0 .691-.126.937-.378.247-.252.37-.584.37-.995 0-.411-.123-.742-.37-.995a1.255 1.255 0 00-.937-.378c-.378 0-.69.126-.937.378-.241.253-.362.584-.362.995 0 .411.121.743.362.995.247.252.559.378.937.378zm7.996-.049v1.85h-.962v-.979h-3.387v.979h-.953v-1.85h.205c.28-.011.469-.189.567-.535.105-.35.173-.844.206-1.479l.058-1.505h3.617v3.519h.649zm-3.387-1.94a8.996 8.996 0 01-.123 1.233c-.06.318-.17.553-.329.707h2.162v-2.647h-1.685l-.025.707zm5.941-1.628c.647 0 1.14.156 1.48.468.345.307.518.773.518 1.398v2.573h-.97v-.534c-.126.192-.307.34-.543.444-.23.099-.509.148-.838.148-.329 0-.617-.055-.864-.165a1.407 1.407 0 01-.575-.468 1.223 1.223 0 01-.197-.683c0-.394.145-.709.435-.945.296-.241.76-.362 1.39-.362h1.134v-.065c0-.307-.093-.543-.279-.708-.181-.164-.452-.246-.814-.246-.247 0-.491.038-.732.115a1.81 1.81 0 00-.6.321l-.403-.749c.23-.175.507-.309.831-.402.323-.094.666-.14 1.027-.14zm-.14 3.749c.258 0 .486-.058.683-.173a.969.969 0 00.427-.51v-.509h-1.06c-.592 0-.888.194-.888.583 0 .187.074.335.222.444.148.11.353.165.616.165zm6.887-2.828h-1.537v3.518h-1.028v-3.518h-1.545v-.872h4.11v.872zm2.949.575c.559 0 .987.126 1.283.378.301.252.452.609.452 1.069 0 .482-.165.855-.494 1.118-.328.263-.792.392-1.389.387l-2.055-.009v-4.39h1.027v1.439l1.176.008zm-.238 2.195c.301.006.531-.057.69-.189.159-.131.239-.323.239-.575 0-.247-.077-.428-.231-.543-.153-.115-.386-.175-.698-.181l-.938-.008v1.488l.938.008z" fill="#373943"/></g><rect x="215.844" y="103.123" width="292.312" height="29.688" rx="3.426" stroke="#D3E3FF" stroke-width=".457"/><path opacity=".9" d="M227.44 77.686v4.049h-2.193v-2.12h-7.22v2.12h-2.192l.014-4.049h.41c.613-.02 1.047-.467 1.3-1.344.254-.877.41-2.13.468-3.757l.117-3.2h7.863v8.301h1.433zm-7.323-4.881c-.049 1.218-.151 2.24-.307 3.069-.156.819-.394 1.423-.716 1.812h4.575v-6.372h-3.508l-.044 1.49zm12.324 6.927c-.828 0-1.573-.17-2.236-.511a3.926 3.926 0 01-1.535-1.447c-.37-.614-.555-1.31-.555-2.09 0-.78.185-1.476.555-2.09a3.823 3.823 0 011.535-1.432c.663-.351 1.408-.527 2.236-.527.828 0 1.569.176 2.222.527a3.814 3.814 0 011.534 1.432c.371.614.556 1.31.556 2.09 0 .78-.185 1.476-.556 2.09a3.916 3.916 0 01-1.534 1.447c-.653.341-1.394.511-2.222.511zm0-1.87c.585 0 1.062-.195 1.433-.585.38-.4.57-.93.57-1.593 0-.663-.19-1.189-.57-1.578-.371-.4-.848-.6-1.433-.6-.584 0-1.067.2-1.447.6-.38.39-.57.915-.57 1.578s.19 1.194.57 1.593c.38.39.863.585 1.447.585zm10.425-5.569c.751 0 1.408.156 1.974.468.565.302.998.73 1.3 1.286.312.555.468 1.199.468 1.93 0 .75-.185 1.417-.555 2.002a3.654 3.654 0 01-1.52 1.344c-.653.312-1.394.468-2.222.468-1.374 0-2.455-.438-3.245-1.315-.779-.887-1.169-2.183-1.169-3.888 0-1.579.341-2.836 1.023-3.771.692-.945 1.749-1.564 3.172-1.856l3.741-.746.307 1.959-3.303.658c-.896.175-1.564.467-2.002.877-.429.409-.682.989-.76 1.739.341-.37.75-.653 1.228-.848a3.923 3.923 0 011.563-.307zm-.54 5.73c.584 0 1.052-.19 1.403-.57.36-.38.541-.863.541-1.448 0-.594-.181-1.066-.541-1.417-.351-.35-.819-.526-1.403-.526-.595 0-1.072.175-1.433.526-.36.35-.54.823-.54 1.418 0 .594.185 1.081.555 1.461.37.37.843.555 1.418.555zm8.755-6.388c1.218 0 2.154.293 2.807.877.652.575.979 1.447.979 2.617v4.487h-2.134v-.98c-.429.731-1.228 1.097-2.397 1.097-.604 0-1.13-.103-1.579-.307-.438-.205-.774-.488-1.008-.848a2.205 2.205 0 01-.351-1.228c0-.73.273-1.305.819-1.724.555-.42 1.408-.629 2.557-.629h1.813c0-.497-.151-.877-.453-1.14-.302-.273-.755-.41-1.36-.41-.419 0-.833.069-1.242.205a3.18 3.18 0 00-1.023.527l-.818-1.594a4.94 4.94 0 011.534-.701 6.99 6.99 0 011.856-.249zm-.175 6.563c.39 0 .736-.088 1.038-.263.302-.185.516-.453.643-.804v-.804h-1.564c-.935 0-1.403.307-1.403.92 0 .293.112.527.336.702.234.166.551.249.95.249zm11.948-2.69c.926.312 1.389.936 1.389 1.871 0 .712-.268 1.262-.804 1.652-.536.39-1.335.585-2.397.585h-4.195v-7.864h4.02c.984 0 1.754.18 2.309.541.555.351.833.848.833 1.491 0 .39-.102.736-.307 1.038-.195.292-.477.521-.848.687zm-3.917-.525h1.725c.799 0 1.199-.283 1.199-.848 0-.556-.4-.833-1.199-.833h-1.725v1.68zm1.915 3.083c.838 0 1.257-.287 1.257-.862 0-.302-.097-.521-.292-.658-.195-.146-.502-.219-.921-.219h-1.959v1.74h1.915zm12.629-6.314v7.864h-2.28v-5.993h-2.485l-.073 1.389c-.039 1.032-.136 1.89-.292 2.572-.156.682-.409 1.218-.76 1.608-.351.39-.838.584-1.462.584-.331 0-.726-.058-1.183-.175l.116-1.87c.156.019.268.028.337.028.341 0 .594-.121.76-.365.175-.253.292-.57.35-.95.059-.39.103-.901.132-1.535l.117-3.157h6.723zm9.837 3.961c0 .03-.015.234-.044.614h-5.949c.107.487.361.872.76 1.155.4.282.897.424 1.491.424.409 0 .77-.059 1.082-.176.321-.127.618-.321.891-.584l1.213 1.315c-.74.848-1.822 1.272-3.244 1.272-.887 0-1.672-.171-2.354-.512-.682-.35-1.208-.833-1.578-1.447-.37-.614-.555-1.31-.555-2.09 0-.77.18-1.462.54-2.075a3.84 3.84 0 011.506-1.447 4.412 4.412 0 012.148-.527c.77 0 1.467.166 2.09.497a3.567 3.567 0 011.462 1.433c.36.614.541 1.33.541 2.148zm-4.078-2.353c-.517 0-.95.146-1.301.439-.351.292-.565.691-.643 1.198h3.873c-.078-.497-.292-.891-.643-1.184-.351-.302-.78-.453-1.286-.453zm5.825-1.608h2.266v3.07h3.42v-3.07h2.28v7.864h-2.28v-2.938h-3.42v2.938h-2.266v-7.864zm10.148 0h2.266v4.677l3.829-4.677h2.09v7.864h-2.265v-4.677l-3.815 4.677h-2.105v-7.864zm18.021 3.961c0 .03-.015.234-.044.614h-5.949c.108.487.361.872.761 1.155.399.282.896.424 1.49.424.41 0 .77-.059 1.082-.176.321-.127.619-.321.891-.584l1.213 1.315c-.74.848-1.822 1.272-3.244 1.272-.887 0-1.671-.171-2.353-.512-.682-.35-1.209-.833-1.579-1.447-.37-.614-.555-1.31-.555-2.09 0-.77.18-1.462.541-2.075a3.837 3.837 0 011.505-1.447 4.41 4.41 0 012.149-.527c.769 0 1.466.166 2.09.497a3.57 3.57 0 011.461 1.433c.361.614.541 1.33.541 2.148zm-4.078-2.353c-.516 0-.95.146-1.301.439-.35.292-.565.691-.643 1.198h3.873c-.078-.497-.292-.891-.643-1.184-.35-.302-.779-.453-1.286-.453zm16.571.263h-2.66v5.993h-2.265v-5.993h-2.66v-1.87h7.585v1.87zm5.849-1.988c.73 0 1.393.171 1.987.512a3.547 3.547 0 011.418 1.418c.341.604.512 1.31.512 2.119 0 .809-.171 1.52-.512 2.134a3.672 3.672 0 01-1.418 1.418 4.01 4.01 0 01-1.987.496c-1.004 0-1.793-.316-2.368-.95v3.669h-2.28V71.752h2.178v.907c.565-.683 1.388-1.024 2.47-1.024zm-.395 6.227c.585 0 1.062-.195 1.432-.585.38-.4.57-.93.57-1.593 0-.663-.19-1.189-.57-1.578-.37-.4-.847-.6-1.432-.6s-1.067.2-1.447.6c-.37.39-.555.915-.555 1.578s.185 1.194.555 1.593c.38.39.862.585 1.447.585zm8.836-6.227c1.218 0 2.153.293 2.806.877.653.575.979 1.447.979 2.617v4.487h-2.134v-.98c-.428.731-1.227 1.097-2.397 1.097-.604 0-1.13-.103-1.578-.307-.439-.205-.775-.488-1.009-.848-.233-.36-.35-.77-.35-1.228 0-.73.272-1.305.818-1.724.555-.42 1.408-.629 2.558-.629h1.812c0-.497-.151-.877-.453-1.14-.302-.273-.755-.41-1.359-.41-.419 0-.833.069-1.243.205a3.18 3.18 0 00-1.023.527l-.818-1.594c.429-.302.94-.535 1.535-.701a6.984 6.984 0 011.856-.249zm-.176 6.563c.39 0 .736-.088 1.038-.263.302-.185.516-.453.643-.804v-.804h-1.564c-.935 0-1.403.307-1.403.92 0 .293.112.527.336.702.234.166.551.249.95.249zm5.942-6.446h2.265v3.07h3.42v-3.07h2.28v7.864h-2.28v-2.938h-3.42v2.938h-2.265v-7.864zm15.177 3.771c.468.146.829.37 1.082.672.263.303.395.663.395 1.082 0 .497-.171.936-.512 1.316-.341.37-.809.657-1.403.862-.594.204-1.267.307-2.017.307a8.669 8.669 0 01-1.812-.19 6.882 6.882 0 01-1.652-.57l.614-1.593c.828.4 1.744.599 2.748.599.536 0 .955-.078 1.257-.234.311-.166.467-.395.467-.687a.62.62 0 00-.321-.57c-.215-.136-.526-.204-.936-.204h-1.607v-1.418h1.403c.399 0 .706-.064.921-.19a.608.608 0 00.321-.556c0-.253-.136-.448-.409-.584-.263-.137-.643-.205-1.14-.205-.76 0-1.588.18-2.485.54l-.555-1.578c1.091-.477 2.153-.716 3.186-.716.711 0 1.345.088 1.9.263.565.176 1.009.434 1.33.775.322.331.482.721.482 1.17 0 .37-.112.706-.336 1.008a2.34 2.34 0 01-.921.701zm6.19-3.888c1.218 0 2.153.293 2.806.877.653.575.979 1.447.979 2.617v4.487h-2.134v-.98c-.428.731-1.227 1.097-2.397 1.097-.604 0-1.13-.103-1.578-.307-.439-.205-.775-.488-1.009-.848-.233-.36-.35-.77-.35-1.228 0-.73.273-1.305.818-1.724.556-.42 1.408-.629 2.558-.629h1.812c0-.497-.151-.877-.453-1.14-.302-.273-.755-.41-1.359-.41-.419 0-.833.069-1.242.205-.4.127-.741.302-1.024.527l-.818-1.594c.429-.302.94-.535 1.535-.701a6.984 6.984 0 011.856-.249zm-.176 6.563c.39 0 .736-.088 1.038-.263a1.51 1.51 0 00.643-.804v-.804h-1.564c-.935 0-1.403.307-1.403.92 0 .293.112.527.336.702.234.166.551.249.95.249zm9.406-1.564h-1.184v2.982h-2.28v-7.864h2.28v3.055h1.228l2.134-3.055h2.426l-2.748 3.771 2.938 4.093h-2.69l-2.104-2.982zm14.77 1.11v3.596h-2.119v-1.724h-6.738v-7.864h2.266v5.993h3.171v-5.993h2.28v5.993h1.14zm1.434-5.992h2.266v4.677l3.829-4.677h2.09v7.864h-2.266v-4.677l-3.814 4.677h-2.105v-7.864zm10.377 0h2.265v4.677l3.829-4.677h2.09v7.864h-2.265v-4.677l-3.815 4.677h-2.104v-7.864z" fill="#24252E"/><rect x="215.844" y="223.702" width="202.791" height="25.121" rx="4.339" fill="#fff"/><path d="M229.175 235.074c.565.054.995.23 1.291.526.296.29.444.663.444 1.118 0 .329-.082.627-.247.896-.164.263-.411.474-.74.633-.323.153-.72.23-1.192.23-.411 0-.806-.06-1.184-.181a2.555 2.555 0 01-.929-.518l.378-.649c.198.186.45.337.757.452.307.11.633.164.978.164.428 0 .759-.09.995-.271a.884.884 0 00.362-.748c0-.318-.118-.565-.354-.74-.236-.175-.592-.263-1.069-.263h-.46v-.576l1.447-1.775h-2.771v-.716h3.799v.559l-1.505 1.859zm7.508 1.923h-1.093v1.414h-.798v-1.414h-3.198v-.575l2.944-3.766h.887l-2.819 3.634h2.211v-1.249h.773v1.249h1.093v.707zm2.113-2.047c.822 0 1.425.156 1.809.469.389.307.584.729.584 1.266 0 .34-.082.647-.247.921-.159.268-.403.482-.732.641-.323.153-.723.23-1.2.23-.406 0-.797-.06-1.176-.181a2.645 2.645 0 01-.937-.518l.378-.649c.198.186.45.337.757.452.307.11.63.164.97.164.433 0 .767-.09 1.003-.271a.905.905 0 00.362-.756c0-.346-.132-.606-.395-.781-.263-.181-.713-.272-1.348-.272h-1.308l.305-3.009h3.247v.716h-2.557l-.156 1.578h.641zm9.658 1.891c0 .433-.164.8-.493 1.102-.323.301-.795.477-1.414.526v.929h-.526v-.929a4.153 4.153 0 01-1.143-.222c-.356-.132-.641-.296-.855-.493l.304-.642c.198.181.447.332.749.453.301.115.616.183.945.205v-1.907a6.338 6.338 0 01-.962-.304 1.699 1.699 0 01-.641-.485c-.17-.214-.255-.494-.255-.839 0-.433.156-.8.469-1.102.317-.301.781-.477 1.389-.526v-.937h.526v.929c.313.011.614.06.904.148.296.088.551.205.765.353l-.271.658a2.899 2.899 0 00-1.398-.46v1.915c.4.099.729.203.987.313.257.104.474.263.649.477.181.208.271.487.271.838zm-3.485-2.639c0 .236.09.419.271.551.181.131.441.241.781.329v-1.776c-.351.044-.614.148-.789.312a.757.757 0 00-.263.584zm1.578 3.56c.367-.033.641-.126.822-.28a.746.746 0 00.28-.592.617.617 0 00-.288-.55c-.186-.132-.458-.247-.814-.346v1.768z" fill="#373943"/><rect x="215.844" y="223.702" width="202.791" height="25.121" rx="4.339" stroke="#D3E3FF" stroke-width=".457"/><rect x="426.4" y="223.702" width="81.756" height="25.121" rx="4.339" fill="#F8F8F8"/><path d="M467.415 234.917c.378 0 .715.072 1.011.214a1.649 1.649 0 01.962 1.529c0 .362-.09.68-.271.954a1.774 1.774 0 01-.732.641 2.354 2.354 0 01-1.036.222c-.772 0-1.37-.249-1.792-.748-.416-.499-.625-1.206-.625-2.121 0-.641.113-1.187.337-1.636.231-.455.548-.798.954-1.028.411-.235.888-.353 1.43-.353.28 0 .543.03.79.09.246.055.46.137.641.247l-.312.641c-.274-.181-.642-.271-1.102-.271-.597 0-1.066.186-1.406.559-.34.367-.51.904-.51 1.611 0 .088.003.156.009.206.164-.247.389-.433.674-.559.29-.132.616-.198.978-.198zm-.099 2.894c.379 0 .686-.101.921-.304.236-.203.354-.474.354-.814 0-.34-.121-.608-.362-.806-.236-.202-.554-.304-.954-.304-.257 0-.487.05-.69.148a1.2 1.2 0 00-.469.403 1.02 1.02 0 00-.164.567c0 .203.052.389.156.559.11.165.266.299.469.403.208.099.454.148.739.148z" fill="#24252E"/><path d="M441.586 236.262h7.537m-3.769-3.768v7.536m40.394-3.768h6.908" stroke="#3E54D8" stroke-width=".913" stroke-linecap="round" stroke-linejoin="round"/><rect x="426.4" y="223.702" width="81.756" height="25.121" rx="4.339" stroke="#D3E3FF" stroke-width=".457"/><path d="M222.234 213.032v2.023h-.765v-1.308h-4.957v-5.754h.814v5.039h3.206v-5.039h.814v5.039h.888zm4.804-1.438c0 .06-.006.139-.016.238h-3.536c.05.384.217.693.502.929.29.23.649.345 1.077.345.521 0 .94-.175 1.258-.526l.435.51c-.197.23-.443.405-.739.526a2.527 2.527 0 01-.979.181c-.46 0-.869-.093-1.225-.28a2.076 2.076 0 01-.83-.797 2.3 2.3 0 01-.288-1.151c0-.422.093-.803.28-1.143.191-.34.452-.603.781-.789a2.217 2.217 0 011.126-.288c.417 0 .787.096 1.11.288.329.186.584.449.764.789.187.34.28.729.28 1.168zm-2.154-1.579c-.378 0-.696.115-.954.345-.252.231-.4.532-.444.905h2.796a1.374 1.374 0 00-.453-.896c-.252-.236-.567-.354-.945-.354zm3.378-.625h.79v1.85h2.482v-1.85h.79v4.357h-.79v-1.825h-2.482v1.825h-.79v-4.357zm7.15-.041c.603 0 1.063.148 1.381.444.324.296.485.737.485 1.324v2.63h-.748v-.575c-.131.203-.32.359-.567.469a2.17 2.17 0 01-.863.156c-.488 0-.88-.118-1.176-.354a1.138 1.138 0 01-.436-.929c0-.383.14-.69.42-.92.279-.236.723-.354 1.331-.354h1.25v-.156c0-.34-.099-.6-.296-.781-.197-.181-.488-.272-.871-.272-.258 0-.51.044-.757.132a1.89 1.89 0 00-.624.337l-.329-.592a2.32 2.32 0 01.805-.411c.313-.099.644-.148.995-.148zm-.181 3.839c.302 0 .562-.065.781-.197.22-.137.378-.329.477-.575v-.609h-1.217c-.668 0-1.003.225-1.003.674 0 .22.085.392.255.518.17.126.406.189.707.189zm7.896-3.65c.406 0 .767.091 1.085.271.318.181.565.433.74.757.181.318.272.682.272 1.093 0 .422-.096.798-.288 1.127a1.936 1.936 0 01-.798.756 2.442 2.442 0 01-1.167.271c-.74 0-1.313-.252-1.718-.756-.4-.51-.6-1.225-.6-2.146 0-.893.183-1.592.55-2.096.368-.51.929-.847 1.686-1.012l1.989-.443.115.723-1.833.395c-.57.126-.995.339-1.274.641-.28.301-.439.734-.477 1.299.186-.28.427-.496.723-.65.296-.153.628-.23.995-.23zm-.14 3.618c.28 0 .527-.063.74-.19a1.32 1.32 0 00.51-.517 1.59 1.59 0 00.181-.765c0-.433-.132-.781-.395-1.044s-.608-.395-1.036-.395c-.427 0-.775.132-1.044.395-.263.263-.394.611-.394 1.044 0 .285.06.54.181.765.126.219.298.391.517.517.22.127.466.19.74.19zm7.132-3.766l-2.113 4.793c-.186.444-.405.757-.658.937a1.471 1.471 0 01-.896.272c-.213 0-.422-.036-.624-.107a1.248 1.248 0 01-.494-.296l.337-.592c.225.214.485.321.781.321a.72.72 0 00.477-.157c.132-.098.25-.271.354-.518l.139-.304-1.923-4.349h.822l1.521 3.486 1.504-3.486h.773zm5.831 0v4.357h-.715v-3.181l-1.628 2.688h-.345l-1.611-2.696v3.189h-.724v-4.357h.814l1.71 2.943 1.759-2.943h.74zm3.09-.041c.603 0 1.064.148 1.381.444.324.296.485.737.485 1.324v2.63h-.748v-.575c-.131.203-.32.359-.567.469a2.17 2.17 0 01-.863.156c-.488 0-.88-.118-1.176-.354a1.138 1.138 0 01-.436-.929c0-.383.14-.69.42-.92.279-.236.723-.354 1.332-.354h1.249v-.156c0-.34-.098-.6-.296-.781-.197-.181-.488-.272-.871-.272-.258 0-.51.044-.757.132a1.9 1.9 0 00-.624.337l-.329-.592c.225-.181.493-.318.805-.411.313-.099.644-.148.995-.148zm-.181 3.839c.302 0 .562-.065.781-.197.22-.137.379-.329.477-.575v-.609H258.9c-.668 0-1.002.225-1.002.674 0 .22.084.392.254.518.17.126.406.189.707.189zm6.675-3.107h-2.417v3.666h-.789v-4.357h3.206v.691zm.808-.691h.789v3.174l2.672-3.174h.715v4.357h-.789v-3.173l-2.664 3.173h-.723v-4.357zm162.732 1.825h-1.201v2.532h-.805v-5.754h.805v2.499h1.217l1.809-2.499h.879l-2.055 2.787 2.154 2.967h-.937l-1.866-2.532zm5.324 2.582c-.433 0-.822-.096-1.167-.288a2.128 2.128 0 01-.814-.789 2.3 2.3 0 01-.288-1.151c0-.428.096-.809.288-1.143.197-.34.469-.603.814-.789a2.359 2.359 0 011.167-.288c.433 0 .82.096 1.159.288.346.186.614.449.806.789.197.334.296.715.296 1.143 0 .427-.099.811-.296 1.151-.192.334-.46.597-.806.789a2.312 2.312 0 01-1.159.288zm0-.691a1.394 1.394 0 001.275-.731c.126-.236.189-.505.189-.806 0-.302-.063-.567-.189-.798a1.33 1.33 0 00-.527-.542 1.472 1.472 0 00-.748-.189 1.52 1.52 0 00-.756.189 1.393 1.393 0 00-.526.542 1.637 1.637 0 00-.189.798c0 .301.063.57.189.806.131.23.307.411.526.542.225.126.477.189.756.189zm7.109-3.716v4.357h-.789v-3.666h-1.874l-.05.97a10.378 10.378 0 01-.156 1.472c-.077.389-.203.701-.378.937-.175.235-.419.353-.732.353-.142 0-.304-.024-.485-.074l.05-.666a.85.85 0 00.197.025.534.534 0 00.493-.288c.11-.192.181-.419.214-.682.033-.263.063-.639.09-1.126l.074-1.612h3.346zm1.526 0h.79v3.174l2.672-3.174h.715v4.357h-.789v-3.173l-2.664 3.173h-.724v-4.357zm9.186 0v4.357h-.789v-1.759c-.471.219-.94.329-1.406.329-.542 0-.962-.126-1.258-.378-.296-.252-.444-.63-.444-1.135v-1.414h.79v1.365c0 .301.093.529.279.682.192.154.458.23.798.23.383 0 .797-.095 1.241-.287v-1.99h.789zm5.471 2.204c0 .06-.006.139-.017.238h-3.535c.049.384.216.693.501.929.291.23.65.345 1.077.345.521 0 .94-.175 1.258-.526l.436.51c-.197.23-.444.405-.74.526-.29.121-.616.181-.978.181-.461 0-.869-.093-1.225-.28a2.085 2.085 0 01-.831-.797 2.31 2.31 0 01-.287-1.151c0-.422.093-.803.279-1.143.192-.34.452-.603.781-.789.335-.192.71-.288 1.127-.288.416 0 .786.096 1.109.288.329.186.584.449.765.789.186.34.28.729.28 1.168zm-2.154-1.579a1.38 1.38 0 00-.954.345c-.252.231-.4.532-.444.905h2.795a1.373 1.373 0 00-.452-.896c-.252-.236-.567-.354-.945-.354zm5.277 3.782c-.444 0-.841-.096-1.192-.288a2.128 2.128 0 01-.814-.789 2.255 2.255 0 01-.296-1.151c0-.428.099-.809.296-1.143.197-.34.469-.603.814-.789a2.442 2.442 0 011.192-.288c.395 0 .745.08 1.052.239.313.158.554.389.724.69l-.6.387a1.334 1.334 0 00-.51-.469 1.457 1.457 0 00-.674-.156c-.285 0-.543.063-.773.189a1.372 1.372 0 00-.534.542 1.637 1.637 0 00-.189.798c0 .307.063.578.189.814.131.23.309.408.534.534.23.126.488.189.773.189.246 0 .471-.052.674-.156.203-.104.373-.26.51-.469l.6.379a1.74 1.74 0 01-.724.698 2.253 2.253 0 01-1.052.239zm5.989-3.716h-1.595v3.666h-.789v-3.666h-1.595v-.691h3.979v.691zm3.775 1.406c.564.142.847.496.847 1.06 0 .384-.146.68-.436.888-.285.208-.713.312-1.283.312h-2.096v-4.357h2.022c.516 0 .918.099 1.209.296.29.192.436.466.436.822 0 .23-.063.431-.189.6a1.14 1.14 0 01-.51.379zm-2.195-.222h1.184c.301 0 .528-.055.682-.165a.542.542 0 00.238-.477c0-.416-.307-.624-.92-.624h-1.184v1.266zm1.266 1.874c.329 0 .575-.052.74-.156.164-.104.246-.266.246-.485 0-.225-.076-.392-.23-.502-.148-.109-.384-.164-.707-.164h-1.315v1.307h1.266zm4.877.658c-.433 0-.822-.096-1.167-.288a2.121 2.121 0 01-.814-.789 2.3 2.3 0 01-.288-1.151c0-.428.096-.809.288-1.143a2.04 2.04 0 01.814-.789 2.359 2.359 0 011.167-.288c.433 0 .82.096 1.159.288.346.186.614.449.806.789.197.334.296.715.296 1.143 0 .427-.099.811-.296 1.151-.192.334-.46.597-.806.789a2.312 2.312 0 01-1.159.288zm0-.691c.28 0 .529-.063.748-.189.225-.131.4-.312.526-.542.126-.236.19-.505.19-.806 0-.302-.064-.567-.19-.798a1.321 1.321 0 00-.526-.542 1.472 1.472 0 00-.748-.189c-.279 0-.532.063-.756.189a1.393 1.393 0 00-.526.542 1.637 1.637 0 00-.189.798c0 .301.063.57.189.806.131.23.307.411.526.542.224.126.477.189.756.189zm-258.013 50.152h.814v4.439l3.403-4.439h.756v5.755h-.805v-4.432l-3.412 4.432h-.756v-5.755zm9.884 2.088h-1.595v3.667h-.79v-3.667h-1.595v-.691h3.98v.691zm2.48 3.716c-.433 0-.822-.096-1.167-.288a2.114 2.114 0 01-.814-.789 2.298 2.298 0 01-.288-1.151c0-.427.096-.808.288-1.143.197-.339.468-.603.814-.789a2.359 2.359 0 011.167-.288c.433 0 .82.096 1.159.288.346.186.614.45.806.789.197.335.296.716.296 1.143 0 .428-.099.811-.296 1.151a2.06 2.06 0 01-.806.789 2.312 2.312 0 01-1.159.288zm0-.691c.28 0 .529-.063.748-.189.225-.131.4-.312.526-.542.126-.236.19-.504.19-.806 0-.301-.064-.567-.19-.797a1.318 1.318 0 00-.526-.543 1.472 1.472 0 00-.748-.189c-.279 0-.532.063-.756.189a1.39 1.39 0 00-.526.543c-.126.23-.189.496-.189.797 0 .302.063.57.189.806.131.23.307.411.526.542.224.126.477.189.756.189zm6.607-3.025h-2.417v3.667h-.789v-4.358h3.206v.691zm2.482 3.716c-.433 0-.823-.096-1.168-.288a2.121 2.121 0 01-.814-.789 2.298 2.298 0 01-.288-1.151c0-.427.096-.808.288-1.143.197-.339.469-.603.814-.789a2.362 2.362 0 011.168-.288c.432 0 .819.096 1.159.288.345.186.614.45.805.789.198.335.296.716.296 1.143 0 .428-.098.811-.296 1.151-.191.334-.46.598-.805.789-.34.192-.727.288-1.159.288zm0-.691a1.391 1.391 0 001.274-.731c.126-.236.189-.504.189-.806 0-.301-.063-.567-.189-.797a1.324 1.324 0 00-.526-.543 1.477 1.477 0 00-.748-.189c-.28 0-.532.063-.757.189a1.396 1.396 0 00-.526.543c-.126.23-.189.496-.189.797 0 .302.063.57.189.806.132.23.307.411.526.542.225.126.477.189.757.189z" fill="#929398"/><path d="M223.974 289.262c1.4.228 2.474.753 3.22 1.575.746.807 1.119 1.812 1.119 3.015 0 .929-.244 1.789-.731 2.581-.487.776-1.233 1.4-2.238 1.872-.99.472-2.208.708-3.654.708-1.127 0-2.238-.145-3.334-.434-1.081-.304-2.002-.731-2.763-1.279l1.438-2.831a7.23 7.23 0 002.101 1.073 8.51 8.51 0 002.467.365c.928 0 1.659-.175 2.192-.525.533-.365.799-.875.799-1.53 0-1.309-.997-1.964-2.991-1.964h-1.69v-2.444l3.288-3.722h-6.805v-2.969h11.19v2.398l-3.608 4.111zm18.84-.548c1.02 0 1.949.205 2.786.616a4.83 4.83 0 011.987 1.759c.487.746.731 1.613.731 2.603 0 1.066-.267 2.002-.799 2.809-.533.807-1.264 1.431-2.193 1.873-.913.426-1.933.639-3.06.639-2.238 0-3.989-.685-5.252-2.055-1.264-1.37-1.896-3.327-1.896-5.869 0-1.812.343-3.365 1.028-4.659.685-1.294 1.636-2.276 2.854-2.946 1.234-.67 2.657-1.005 4.271-1.005.853 0 1.667.099 2.443.297.792.183 1.462.449 2.01.799l-1.37 2.718c-.792-.533-1.789-.799-2.992-.799-1.355 0-2.428.395-3.22 1.187-.791.792-1.218 1.941-1.279 3.449.944-.944 2.261-1.416 3.951-1.416zm-.753 7.536c.791 0 1.431-.213 1.918-.64.502-.426.754-1.004.754-1.735 0-.731-.252-1.31-.754-1.736-.487-.441-1.142-.662-1.964-.662-.807 0-1.469.228-1.987.685-.518.442-.776 1.012-.776 1.713 0 .7.251 1.271.753 1.713.503.441 1.188.662 2.056.662zm18.856-.525v3.014h-12.08v-2.398l6.166-5.823c.654-.624 1.096-1.157 1.324-1.599.229-.457.343-.906.343-1.347 0-.64-.221-1.127-.663-1.462-.426-.35-1.058-.525-1.895-.525-.7 0-1.332.137-1.895.411a3.531 3.531 0 00-1.416 1.188l-2.695-1.736c.624-.929 1.484-1.652 2.581-2.17 1.096-.532 2.352-.799 3.768-.799 1.187 0 2.222.198 3.105.594.899.381 1.591.929 2.079 1.644.502.701.753 1.53.753 2.489a5.58 5.58 0 01-.548 2.444c-.365.761-1.073 1.629-2.124 2.603l-3.676 3.472h6.873zm7.008-12.972v15.986h-3.7v-13.017h-3.197v-2.969h6.897zm20.914 11.304c0 1.249-.457 2.322-1.37 3.22-.914.884-2.231 1.432-3.951 1.645v2.557h-2.284v-2.489a12.432 12.432 0 01-3.22-.594c-1.02-.334-1.842-.746-2.466-1.233l1.256-2.786a8.305 8.305 0 002.032 1.074 9.348 9.348 0 002.398.548v-3.814c-1.081-.259-1.994-.548-2.74-.868a4.889 4.889 0 01-1.873-1.393c-.502-.624-.753-1.446-.753-2.466 0-1.264.456-2.345 1.37-3.243.928-.914 2.261-1.469 3.996-1.667v-2.535h2.284v2.489c1.873.152 3.418.617 4.636 1.393l-1.142 2.809c-1.142-.655-2.307-1.05-3.494-1.188v3.883c1.066.243 1.964.525 2.695.845.746.304 1.37.769 1.872 1.393.503.609.754 1.416.754 2.42zm-9.295-6.782c0 .381.145.693.434.936.289.244.708.449 1.256.617v-3.243c-.578.137-1.005.358-1.279.662-.274.29-.411.632-.411 1.028zm3.974 8.632c.548-.122.959-.319 1.233-.593.274-.275.411-.602.411-.982 0-.381-.144-.693-.434-.937-.274-.243-.677-.457-1.21-.639v3.151z" fill="#3E54D8"/><g filter="url(#filter2_d)"><rect x="215.615" y="151.309" width="292.769" height="42.477" rx="3.654" fill="#FCFDFF"/><path d="M230.743 168.98h-4.093v-2.411h11.145v2.411h-4.093v10.378h-2.959V168.98zm12.757 10.597c-1.011 0-1.991-.134-2.941-.402-.938-.28-1.693-.64-2.266-1.078l1.005-2.229c.548.402 1.2.725 1.955.968.755.244 1.51.366 2.265.366.841 0 1.462-.122 1.864-.366.402-.255.603-.59.603-1.004a.918.918 0 00-.366-.75c-.231-.207-.536-.371-.913-.493a17.148 17.148 0 00-1.498-.402c-.975-.231-1.773-.463-2.394-.694a3.952 3.952 0 01-1.607-1.114c-.439-.512-.658-1.194-.658-2.047 0-.743.201-1.412.603-2.009.402-.609 1.005-1.09 1.808-1.444.816-.353 1.809-.529 2.978-.529.816 0 1.614.097 2.394.292.779.195 1.461.475 2.046.84l-.914 2.248c-1.181-.67-2.362-1.005-3.544-1.005-.828 0-1.443.134-1.845.402-.39.268-.585.621-.585 1.059 0 .439.226.768.676.987.463.207 1.163.414 2.101.621.975.231 1.772.463 2.394.694.621.232 1.15.597 1.589 1.096.451.5.676 1.176.676 2.028a3.5 3.5 0 01-.621 2.01c-.402.597-1.011 1.072-1.827 1.425-.816.353-1.809.53-2.978.53zm13.569 0c-1.304 0-2.485-.28-3.545-.841a6.514 6.514 0 01-2.484-2.356c-.597-1.011-.896-2.15-.896-3.417 0-1.266.299-2.399.896-3.398a6.342 6.342 0 012.484-2.357c1.06-.572 2.247-.858 3.563-.858 1.108 0 2.107.195 2.996.584.901.39 1.656.95 2.265 1.681l-1.9 1.754c-.864-.999-1.936-1.498-3.215-1.498-.792 0-1.498.176-2.119.53a3.702 3.702 0 00-1.462 1.443c-.341.621-.511 1.328-.511 2.119 0 .792.17 1.498.511 2.119a3.824 3.824 0 001.462 1.462c.621.341 1.327.512 2.119.512 1.279 0 2.351-.506 3.215-1.517l1.9 1.754a5.925 5.925 0 01-2.265 1.699c-.901.39-1.906.585-3.014.585zm13.204 0c-1.328 0-2.527-.286-3.599-.859a6.47 6.47 0 01-2.503-2.357c-.597-1.011-.895-2.143-.895-3.398 0-1.254.298-2.381.895-3.38a6.435 6.435 0 012.503-2.375c1.072-.572 2.271-.858 3.599-.858 1.327 0 2.521.286 3.581.858a6.442 6.442 0 012.503 2.375c.609.999.913 2.126.913 3.38 0 1.255-.304 2.387-.913 3.398a6.477 6.477 0 01-2.503 2.357c-1.06.573-2.254.859-3.581.859zm0-2.521c.755 0 1.437-.171 2.046-.512a3.73 3.73 0 001.425-1.462c.353-.621.53-1.327.53-2.119 0-.791-.177-1.498-.53-2.119a3.611 3.611 0 00-1.425-1.443c-.609-.354-1.291-.53-2.046-.53-.755 0-1.437.176-2.046.53a3.743 3.743 0 00-1.444 1.443c-.341.621-.511 1.328-.511 2.119 0 .792.17 1.498.511 2.119a3.869 3.869 0 001.444 1.462c.609.341 1.291.512 2.046.512z" fill="#3E54D8"/><path d="M285.675 173.909h-1.973v-.715h4.76v.715h-1.973v5.04h-.814v-5.04zm4.22 1.414a1.34 1.34 0 01.608-.575c.269-.132.595-.197.978-.197v.764a1.645 1.645 0 00-.18-.008c-.428 0-.765.129-1.012.386-.241.252-.361.614-.361 1.086v2.17h-.79v-4.357h.757v.731zm4.138-.772c.603 0 1.063.148 1.381.444.323.296.485.737.485 1.323v2.631h-.748v-.576a1.277 1.277 0 01-.567.469 2.176 2.176 0 01-.864.156c-.487 0-.879-.118-1.175-.353a1.138 1.138 0 01-.436-.929c0-.384.14-.691.419-.921.28-.236.724-.354 1.332-.354h1.25v-.156c0-.34-.099-.6-.296-.781-.197-.181-.488-.271-.872-.271a2.26 2.26 0 00-.756.131 1.896 1.896 0 00-.625.338l-.329-.592c.225-.181.494-.318.806-.411.312-.099.644-.148.995-.148zm-.181 3.839c.301 0 .562-.066.781-.197.219-.137.378-.329.477-.576v-.608h-1.217c-.669 0-1.003.224-1.003.674a.61.61 0 00.255.518c.17.126.405.189.707.189zm5.431.608a2.45 2.45 0 01-1.192-.287 2.117 2.117 0 01-.814-.79 2.24 2.24 0 01-.296-1.151c0-.427.098-.808.296-1.142.197-.34.468-.603.814-.79a2.45 2.45 0 011.192-.287c.394 0 .745.079 1.052.238.313.159.554.389.724.691l-.601.386a1.347 1.347 0 00-.509-.469 1.457 1.457 0 00-.674-.156c-.285 0-.543.063-.773.189a1.377 1.377 0 00-.535.543c-.126.23-.189.496-.189.797 0 .307.063.579.189.814.132.23.31.409.535.535.23.126.488.189.773.189.246 0 .471-.052.674-.156.203-.105.372-.261.509-.469l.601.378c-.17.302-.411.534-.724.699a2.255 2.255 0 01-1.052.238zm5.304-.304a1.217 1.217 0 01-.428.23c-.17.05-.345.074-.526.074-.439 0-.778-.118-1.02-.353-.241-.236-.361-.573-.361-1.011v-2.393h-.74v-.649h.74v-.954h.789v.954h1.25v.649h-1.25v2.36c0 .235.057.416.173.542.12.126.29.189.509.189a.952.952 0 00.617-.205l.247.567zm2.675.304c-.433 0-.822-.096-1.167-.287a2.124 2.124 0 01-.814-.79 2.295 2.295 0 01-.288-1.151c0-.427.096-.808.288-1.142.197-.34.469-.603.814-.79a2.369 2.369 0 011.167-.287c.433 0 .82.096 1.16.287.345.187.614.45.805.79.198.334.296.715.296 1.142 0 .428-.098.812-.296 1.151a2.06 2.06 0 01-.805.79c-.34.191-.727.287-1.16.287zm0-.69c.28 0 .529-.063.749-.189a1.4 1.4 0 00.526-.543c.126-.236.189-.504.189-.806 0-.301-.063-.567-.189-.797a1.324 1.324 0 00-.526-.543 1.478 1.478 0 00-.749-.189 1.52 1.52 0 00-.756.189 1.39 1.39 0 00-.526.543c-.126.23-.189.496-.189.797 0 .302.063.57.189.806.131.23.307.411.526.543.225.126.477.189.756.189zm4.109-2.985c.137-.252.34-.444.609-.575.268-.132.594-.197.978-.197v.764a1.666 1.666 0 00-.181-.008c-.428 0-.765.129-1.011.386-.241.252-.362.614-.362 1.086v2.17h-.789v-4.357h.756v.731zm6.616 3.692c-.433 0-.852-.066-1.258-.198-.4-.137-.715-.312-.945-.526l.304-.641c.219.197.499.359.838.485.346.121.699.181 1.061.181.477 0 .833-.08 1.069-.238.235-.165.353-.381.353-.65a.62.62 0 00-.197-.477 1.225 1.225 0 00-.477-.288 8.83 8.83 0 00-.797-.222 8.539 8.539 0 01-1.053-.312 1.79 1.79 0 01-.682-.477c-.186-.219-.28-.512-.28-.879 0-.307.08-.584.239-.831.164-.246.411-.444.74-.592.329-.148.737-.222 1.225-.222.339 0 .674.044 1.003.132.329.088.611.214.846.378l-.271.658a2.87 2.87 0 00-.773-.346 2.798 2.798 0 00-.805-.123c-.466 0-.817.085-1.053.255a.784.784 0 00-.345.658c0 .197.066.359.197.485.132.12.294.216.485.287.198.066.464.138.798.214.433.104.781.209 1.044.313.263.104.488.263.674.476.192.214.288.502.288.864 0 .301-.082.578-.247.83-.164.247-.414.444-.748.592-.334.142-.745.214-1.233.214zm7.375-4.423v4.357h-.748v-.658c-.159.225-.37.4-.633.526-.258.121-.54.181-.847.181-.581 0-1.038-.159-1.373-.477-.334-.323-.501-.797-.501-1.422v-2.507h.789v2.417c0 .422.101.742.304.962.203.213.493.32.872.32.416 0 .745-.126.986-.378s.362-.608.362-1.069v-2.252h.789zm3.813-.041c.422 0 .8.093 1.134.279.335.186.595.447.781.781.192.334.288.721.288 1.159 0 .439-.096.828-.288 1.168a1.982 1.982 0 01-.781.781 2.29 2.29 0 01-1.134.279c-.313 0-.6-.06-.863-.181a1.79 1.79 0 01-.658-.526v2.253h-.789v-5.952h.756v.69c.175-.241.397-.422.666-.542.269-.126.564-.189.888-.189zm-.066 3.757c.28 0 .529-.063.748-.189.225-.132.4-.313.526-.543a1.62 1.62 0 00.198-.806c0-.301-.066-.567-.198-.797a1.318 1.318 0 00-.526-.543 1.472 1.472 0 00-.748-.189c-.274 0-.523.066-.748.197a1.415 1.415 0 00-.526.535c-.126.23-.189.496-.189.797 0 .302.063.57.189.806.126.23.301.411.526.543.225.126.474.189.748.189zm5.67-3.757c.422 0 .8.093 1.134.279.335.186.595.447.781.781.192.334.288.721.288 1.159 0 .439-.096.828-.288 1.168a1.982 1.982 0 01-.781.781 2.29 2.29 0 01-1.134.279c-.313 0-.6-.06-.863-.181a1.79 1.79 0 01-.658-.526v2.253h-.789v-5.952h.756v.69c.175-.241.397-.422.666-.542.268-.126.564-.189.888-.189zm-.066 3.757c.28 0 .529-.063.748-.189.225-.132.4-.313.526-.543a1.62 1.62 0 00.198-.806c0-.301-.066-.567-.198-.797a1.318 1.318 0 00-.526-.543 1.472 1.472 0 00-.748-.189c-.274 0-.523.066-.748.197a1.415 1.415 0 00-.526.535c-.126.23-.189.496-.189.797 0 .302.063.57.189.806.126.23.301.411.526.543.225.126.474.189.748.189zm3.36-5.459h.789v6.1h-.789v-6.1zm6.152 1.743l-2.113 4.793c-.187.444-.406.756-.658.937-.247.181-.545.271-.896.271-.214 0-.422-.035-.625-.107a1.222 1.222 0 01-.493-.296l.337-.592c.225.214.485.321.781.321a.724.724 0 00.477-.156c.131-.099.249-.271.353-.518l.14-.304-1.924-4.349h.822l1.521 3.486 1.505-3.486h.773z" fill="#373943"/><rect x="215.844" y="151.538" width="292.312" height="42.02" rx="3.426" stroke="#D3E3FF" stroke-width=".457"/></g><g filter="url(#filter3_d)"><rect x="215.615" y="319.845" width="142.959" height="30.145" rx="3.654" fill="#3E54D8"/><path opacity=".9" d="M274.721 335.468h-1.069v2.426H272.6v-5.755h1.052v2.409h1.102l1.652-2.409h1.135l-1.965 2.787 2.039 2.968h-1.209l-1.685-2.426zm7.591-1.965l-2.055 4.744c-.192.477-.425.811-.699 1.003-.274.197-.605.296-.995.296-.219 0-.435-.036-.649-.107a1.43 1.43 0 01-.526-.296l.411-.756a1.095 1.095 0 00.756.304.684.684 0 00.444-.14c.121-.093.23-.249.329-.468l.074-.173-1.916-4.407h1.069l1.381 3.248 1.39-3.248h.986zm4.923 0v4.391h-1.019v-3.519h-2.162v3.519h-1.028v-4.391h4.209zm1.387 0h1.028v2.894l2.425-2.894h.937v4.391h-1.027V335l-2.418 2.894h-.945v-4.391zm9.25.872h-1.537v3.519h-1.028v-3.519h-1.545v-.872h4.11v.872zm2.949.575c.559 0 .986.126 1.282.379.302.252.453.608.453 1.068 0 .483-.165.855-.494 1.118-.329.264-.792.392-1.389.387l-2.055-.008v-4.391h1.027v1.439l1.176.008zm-.239 2.195c.302.006.532-.057.691-.189.159-.131.238-.323.238-.575 0-.247-.076-.428-.23-.543-.153-.115-.386-.175-.699-.181l-.937-.008v1.488l.937.008z" fill="#fff"/></g><path d="M422.333 337.149a3.31 3.31 0 01-1.586-.378 2.862 2.862 0 01-1.513-2.582c0-.559.134-1.063.403-1.512a2.786 2.786 0 011.11-1.061c.471-.258 1-.386 1.586-.386.587 0 1.116.128 1.587.386.471.252.841.603 1.11 1.052.268.45.403.957.403 1.521a2.91 2.91 0 01-.403 1.521c-.269.45-.639.803-1.11 1.061a3.31 3.31 0 01-1.587.378zm0-.937c.384 0 .729-.085 1.036-.255.307-.176.548-.417.724-.724.175-.312.263-.66.263-1.044 0-.383-.088-.729-.263-1.036a1.844 1.844 0 00-.724-.723 2.044 2.044 0 00-1.036-.263c-.383 0-.729.087-1.036.263-.307.17-.548.411-.723.723a2.057 2.057 0 00-.263 1.036c0 .384.088.732.263 1.044.175.307.416.548.723.724.307.17.653.255 1.036.255zm7.564-2.664h-1.538v3.519h-1.028v-3.519h-1.545v-.871h4.111v.871zm5.061 3.519v-2.911l-1.48 2.45h-.444l-1.455-2.458v2.919h-.937v-4.39h1.077l1.562 2.745 1.636-2.745h.962l.008 4.39h-.929zm6.418-2.171c0 .072-.005.173-.016.304h-3.445c.06.324.217.581.469.773.257.187.575.28.953.28.483 0 .88-.159 1.192-.477l.551.633a1.84 1.84 0 01-.748.534 2.713 2.713 0 01-1.019.181c-.483 0-.907-.096-1.275-.288a2.104 2.104 0 01-.855-.797 2.311 2.311 0 01-.296-1.167c0-.428.096-.812.288-1.151.197-.346.469-.614.814-.806a2.359 2.359 0 011.167-.288c.428 0 .809.096 1.143.288.34.186.603.452.789.797.192.34.288.735.288 1.184zm-2.22-1.447c-.328 0-.608.099-.838.296-.225.192-.362.45-.411.773h2.491a1.213 1.213 0 00-.403-.773 1.227 1.227 0 00-.839-.296zm3.344-.772h1.028v1.784h2.211v-1.784h1.028v4.39h-1.028v-1.735h-2.211v1.735H442.5v-4.39zm5.644 0h1.028v2.893l2.425-2.893h.937v4.39h-1.027v-2.894l-2.417 2.894h-.946v-4.39zm9.25.871h-1.537v3.519h-1.028v-3.519h-1.545v-.871h4.11v.871zm2.949.575c.559 0 .987.127 1.283.379.301.252.452.608.452 1.068 0 .483-.165.855-.493 1.119-.329.263-.792.391-1.39.386l-2.055-.008v-4.39h1.028v1.438l1.175.008zm-.238 2.196c.301.005.531-.058.69-.19.159-.131.239-.323.239-.575 0-.247-.077-.428-.23-.543-.154-.115-.387-.175-.699-.181l-.937-.008v1.488l.937.009z" fill="#929398"/><rect x="201.5" y="49.5" width="321" height="318.26" rx="8.635" stroke="#D3E3FF"/></g></g><rect x="75.5" y="31.5" width="572" height="355" rx="35.5" stroke="#D3E3FF"/></g><defs><filter id="filter0_d" x="0" y="0" width="723" height="506" filterUnits="userSpaceOnUse" color-interpolation-filters="sRGB"><feFlood flood-opacity="0" result="BackgroundImageFix"/><feColorMatrix in="SourceAlpha" values="0 0 0 0 0 0 0 0 0 0 0 0 0 0 0 0 0 0 127 0"/><feMorphology radius="14" in="SourceAlpha" result="effect1_dropShadow"/><feOffset dy="44"/><feGaussianBlur stdDeviation="44.5"/><feColorMatrix values="0 0 0 0 0.243137 0 0 0 0 0.329412 0 0 0 0 0.847059 0 0 0 0.12 0"/><feBlend in2="BackgroundImageFix" result="effect1_dropShadow"/><feBlend in="SourceGraphic" in2="effect1_dropShadow" result="shape"/></filter><filter id="filter1_d" x="168.115" y="36.211" width="387.77" height="385.03" filterUnits="userSpaceOnUse" color-interpolation-filters="sRGB"><feFlood flood-opacity="0" result="BackgroundImageFix"/><feColorMatrix in="SourceAlpha" values="0 0 0 0 0 0 0 0 0 0 0 0 0 0 0 0 0 0 127 0"/><feMorphology radius="7.765" in="SourceAlpha" result="effect1_dropShadow"/><feOffset dy="20.096"/><feGaussianBlur stdDeviation="20.325"/><feColorMatrix values="0 0 0 0 0.243137 0 0 0 0 0.329412 0 0 0 0 0.847059 0 0 0 0.06 0"/><feBlend in2="BackgroundImageFix" result="effect1_dropShadow"/><feBlend in="SourceGraphic" in2="effect1_dropShadow" result="shape"/></filter><filter id="filter2_d" x="211.505" y="147.199" width="300.99" height="50.698" filterUnits="userSpaceOnUse" color-interpolation-filters="sRGB"><feFlood flood-opacity="0" result="BackgroundImageFix"/><feColorMatrix in="SourceAlpha" values="0 0 0 0 0 0 0 0 0 0 0 0 0 0 0 0 0 0 127 0"/><feOffset/><feGaussianBlur stdDeviation="2.055"/><feColorMatrix values="0 0 0 0 0.243137 0 0 0 0 0.329412 0 0 0 0 0.847059 0 0 0 0.18 0"/><feBlend in2="BackgroundImageFix" result="effect1_dropShadow"/><feBlend in="SourceGraphic" in2="effect1_dropShadow" result="shape"/></filter><filter id="filter3_d" x="211.505" y="319.845" width="151.18" height="42.477" filterUnits="userSpaceOnUse" color-interpolation-filters="sRGB"><feFlood flood-opacity="0" result="BackgroundImageFix"/><feColorMatrix in="SourceAlpha" values="0 0 0 0 0 0 0 0 0 0 0 0 0 0 0 0 0 0 127 0"/><feMorphology radius="5.938" in="SourceAlpha" result="effect1_dropShadow"/><feOffset dy="8.221"/><feGaussianBlur stdDeviation="5.024"/><feColorMatrix values="0 0 0 0 0.243137 0 0 0 0 0.329412 0 0 0 0 0.847059 0 0 0 0.51 0"/><feBlend in2="BackgroundImageFix" result="effect1_dropShadow"/><feBlend in="SourceGraphic" in2="effect1_dropShadow" result="shape"/></filter><clipPath id="clip0"><rect x="75" y="31" width="573" height="356" rx="36" fill="#fff"/></clipPath><clipPath id="clip1"/></defs></svg>