<svg width="723" height="506" fill="none" xmlns="http://www.w3.org/2000/svg"><path d="M628 428c-33.689 0-61-27.311-61-61s27.311-61 61-61 61 27.311 61 61v61h-61z" fill="#F3B63F"/><g filter="url(#filter0_d)"><rect x="75" y="31" width="573" height="356" rx="36" fill="#FAFCFF"/><g filter="url(#filter1_d)"><rect x="192" y="55" width="267.905" height="57.222" rx="6.936" fill="#fff"/><path opacity=".93" d="M308.113 78.15v10.924h-1.997v-9.207h-5.665v9.207h-1.998V78.15h9.66zm6.576 11.033c-.842 0-1.602-.182-2.278-.546a4.056 4.056 0 01-1.592-1.514c-.375-.655-.562-1.394-.562-2.216 0-.822.187-1.555.562-2.2a4.056 4.056 0 011.592-1.514c.676-.364 1.436-.546 2.278-.546.853 0 1.618.182 2.294.546a3.944 3.944 0 011.577 1.514c.385.645.577 1.378.577 2.2 0 .822-.192 1.56-.577 2.216-.375.645-.9 1.15-1.577 1.514-.676.364-1.441.546-2.294.546zm0-1.67c.718 0 1.311-.239 1.779-.717.469-.479.703-1.108.703-1.889 0-.78-.234-1.41-.703-1.888-.468-.479-1.061-.718-1.779-.718s-1.311.24-1.779.718c-.458.478-.686 1.108-.686 1.888 0 .78.228 1.41.686 1.889.468.478 1.061.717 1.779.717zm15.179-.093v3.511h-1.826v-1.857h-6.429v1.857h-1.811V87.42h.39c.531-.021.89-.36 1.077-1.015.198-.665.328-1.602.39-2.809l.11-2.856h6.866v6.68h1.233zm-6.43-3.683c-.041.957-.119 1.737-.234 2.34-.114.604-.322 1.052-.624 1.343h4.105v-5.025h-3.2l-.047 1.342zm15.976 1.217c0 .135-.011.328-.032.578h-6.539a2.31 2.31 0 00.89 1.467c.489.353 1.092.53 1.81.53.916 0 1.67-.302 2.263-.905l1.046 1.202a3.527 3.527 0 01-1.42 1.014c-.573.229-1.218.343-1.936.343-.915 0-1.721-.182-2.419-.546a4.003 4.003 0 01-1.623-1.514c-.374-.655-.561-1.394-.561-2.216 0-.811.182-1.54.546-2.185a3.961 3.961 0 011.545-1.529c.655-.364 1.394-.546 2.216-.546.811 0 1.535.182 2.169.546a3.68 3.68 0 011.498 1.514c.364.645.547 1.394.547 2.247zm-4.214-2.747c-.624 0-1.155.188-1.592.562-.426.364-.687.853-.78 1.467h4.728c-.083-.603-.338-1.092-.764-1.467-.427-.374-.957-.562-1.592-.562zm13.794-1.467v8.334h-1.951v-6.68h-3.121l-.078 1.655c-.052 1.103-.156 2.029-.312 2.778-.146.739-.401 1.326-.765 1.763-.354.427-.843.64-1.467.64-.291 0-.65-.057-1.077-.172l.094-1.638c.146.031.27.047.374.047.396 0 .692-.156.89-.468.198-.323.323-.703.375-1.14a23.56 23.56 0 00.156-1.904l.14-3.215h6.742zm2.627 0h1.951v5.494l4.604-5.494h1.779v8.334h-1.951v-5.493l-4.588 5.493h-1.795V80.74zm17.559 1.655h-2.918v6.68h-1.951v-6.68h-2.934V80.74h7.803v1.655zm5.598 1.092c1.061 0 1.873.24 2.434.718.573.479.859 1.155.859 2.029 0 .915-.312 1.623-.937 2.122-.624.5-1.503.744-2.637.734l-3.902-.016V80.74h1.951v2.732l2.232.015zm-.453 4.167c.572.01 1.009-.11 1.311-.359.302-.25.453-.614.453-1.092 0-.469-.146-.812-.437-1.03-.292-.219-.734-.333-1.327-.344l-1.779-.015v2.824l1.779.016zm9.253 1.53c-.864 0-1.639-.183-2.326-.547a4.03 4.03 0 01-1.607-1.514c-.385-.655-.578-1.394-.578-2.216 0-.822.193-1.555.578-2.2a4.05 4.05 0 011.592-1.514c.686-.364 1.467-.546 2.341-.546.822 0 1.539.166 2.153.5a3.232 3.232 0 011.405 1.435l-1.498.874a2.304 2.304 0 00-.906-.859 2.354 2.354 0 00-1.17-.296c-.728 0-1.332.24-1.81.718-.479.468-.718 1.097-.718 1.888 0 .791.234 1.426.702 1.904.479.468 1.087.702 1.826.702a2.46 2.46 0 001.17-.28c.365-.198.666-.49.906-.874l1.498.874a3.416 3.416 0 01-1.42 1.45c-.614.334-1.327.5-2.138.5zm12.085-8.444v8.334h-1.748v-2.513h-2.2l-1.701 2.513h-2.092l1.967-2.778c-.604-.208-1.067-.525-1.389-.952-.312-.437-.468-.973-.468-1.607 0-.957.338-1.696 1.014-2.216.676-.52 1.608-.78 2.794-.78h3.823zm-3.761 1.64c-1.259 0-1.888.472-1.888 1.42 0 .936.608 1.404 1.826 1.404h2.075v-2.825h-2.013z" fill="#3E54D8"/><path d="M262.228 87.08a3.468 3.468 0 100-6.937 3.468 3.468 0 000 6.936zm12.138 7.802a3.468 3.468 0 100-6.936 3.468 3.468 0 000 6.936zm0-15.606a3.468 3.468 0 100-6.936 3.468 3.468 0 000 6.936zm-2.918-1.593l-6.304 4.053m0 3.75l6.304 4.053" stroke="#3E54D8" stroke-width="1.734" stroke-linecap="round" stroke-linejoin="round"/><rect x="192.867" y="55.867" width="266.171" height="55.489" rx="6.069" stroke="#9FC1FF" stroke-width="1.734"/></g><g filter="url(#filter2_d)"><rect x="473.777" y="55" width="57.222" height="57.222" rx="6.936" fill="#fff"/><path d="M495.452 78.41v-4.336h13.873v4.335m0 7.803h-13.873v7.37h13.873v-7.37z" stroke="#8C9BEA" stroke-width="1.734" stroke-linecap="round" stroke-linejoin="round"/><path d="M495.452 88.813h-3.901v-8.67c0-.957.841-1.734 1.878-1.734h17.919c1.037 0 1.878.776 1.878 1.734v8.67h-3.901" stroke="#8C9BEA" stroke-width="1.734" stroke-linecap="round" stroke-linejoin="round"/><path d="M508.891 83.611a1.301 1.301 0 100-2.602 1.301 1.301 0 000 2.602z" fill="#8C9BEA"/><rect x="474.644" y="55.867" width="55.489" height="55.489" rx="6.069" stroke="#D3E3FF" stroke-width="1.734"/></g><g filter="url(#filter3_d)"><rect x="192" y="119.158" width="339" height="243.629" rx="8.67" fill="#FCFDFF"/><g clip-path="url(#clip0)"><path d="M244.407 164.243l.771-5.021h-4.818v-3.258c0-1.374.673-2.713 2.831-2.713h2.19v-4.274s-1.988-.339-3.888-.339c-3.967 0-6.561 2.405-6.561 6.758v3.827h-4.41v5.021h4.41v12.138h5.428v-12.138l4.047-.001z" fill="#3E54D8"/></g><path d="M336.269 151.848l-4.579 21.594c-.346 1.524-1.246 1.903-2.526 1.185l-6.977-5.141-3.367 3.238c-.372.373-.683.684-1.402.684l.502-7.105 12.93-11.684c.563-.501-.122-.779-.873-.277l-15.986 10.066-6.882-2.155c-1.496-.467-1.523-1.497.312-2.215l26.918-10.371c1.246-.467 2.336.278 1.93 2.182v-.001z" fill="#3E54D8"/><g clip-path="url(#clip1)"><path d="M404.417 148.637c-3.77 0-4.24.018-5.716.08-1.482.073-2.484.303-3.368.646a6.822 6.822 0 00-2.457 1.603 6.732 6.732 0 00-1.603 2.457c-.343.884-.573 1.886-.646 3.368-.066 1.476-.08 1.945-.08 5.716s.018 4.241.08 5.716c.073 1.478.303 2.484.646 3.369.35.925.897 1.763 1.603 2.456a6.732 6.732 0 002.457 1.603c.884.339 1.891.573 3.368.646 1.476.067 1.946.08 5.716.08 3.771 0 4.241-.018 5.716-.08 1.478-.073 2.484-.308 3.369-.646a6.814 6.814 0 002.456-1.603 6.695 6.695 0 001.603-2.456c.339-.885.573-1.891.646-3.369.067-1.476.081-1.945.081-5.716s-.019-4.24-.081-5.716c-.073-1.477-.308-2.489-.646-3.368a6.81 6.81 0 00-1.603-2.457 6.695 6.695 0 00-2.456-1.603c-.885-.343-1.891-.573-3.369-.646-1.476-.066-1.945-.08-5.716-.08zm0 2.497c3.703 0 4.145.018 5.609.08 1.35.064 2.085.289 2.573.48.604.223 1.15.577 1.599 1.038.46.447.813.992 1.033 1.594.191.488.416 1.223.48 2.573.062 1.464.08 1.907.08 5.609s-.018 4.145-.085 5.609c-.073 1.35-.299 2.085-.489 2.573a4.503 4.503 0 01-1.039 1.599 4.39 4.39 0 01-1.599 1.033c-.482.191-1.228.416-2.583.48-1.471.062-1.904.08-5.617.08s-4.145-.018-5.618-.086c-1.35-.072-2.095-.298-2.583-.488-.659-.262-1.111-.555-1.594-1.039-.489-.488-.799-.953-1.038-1.599-.194-.482-.416-1.228-.488-2.583-.05-1.454-.073-1.905-.073-5.6 0-3.693.023-4.145.073-5.617.072-1.355.294-2.099.488-2.583.239-.66.55-1.111 1.038-1.599.482-.483.935-.795 1.594-1.039.488-.19 1.215-.416 2.57-.483 1.471-.053 1.905-.072 5.612-.072l.057.04zm0 4.254c-.935 0-1.861.184-2.725.541a7.105 7.105 0 00-3.854 3.854 7.127 7.127 0 001.543 7.762 7.12 7.12 0 007.762 1.543 7.105 7.105 0 003.854-3.854 7.136 7.136 0 000-5.451 7.124 7.124 0 00-6.58-4.395zm0 11.745a4.621 4.621 0 01-4.624-4.624 4.621 4.621 0 014.624-4.624 4.621 4.621 0 014.624 4.624 4.621 4.621 0 01-4.624 4.624zm9.073-12.029a1.67 1.67 0 01-2.844 1.178 1.668 1.668 0 01-.361-1.813 1.657 1.657 0 01.901-.901 1.67 1.67 0 012.304 1.536z" fill="#3E54D8"/></g><g clip-path="url(#clip2)"><path d="M497.999 153.919a11.567 11.567 0 01-3.264.895 5.725 5.725 0 002.501-3.148 11.863 11.863 0 01-3.617 1.369 5.688 5.688 0 00-9.692 5.179c-4.727-.221-8.918-2.493-11.721-5.925a5.592 5.592 0 00-.773 2.864 5.68 5.68 0 002.528 4.731 5.65 5.65 0 01-2.573-.708v.069a5.7 5.7 0 004.56 5.581 5.732 5.732 0 01-2.556.098 5.712 5.712 0 005.324 3.951 11.415 11.415 0 01-7.053 2.429 11.35 11.35 0 01-1.355-.076 16.168 16.168 0 008.738 2.555c10.462 0 16.179-8.665 16.179-16.17 0-.239 0-.483-.018-.727a11.398 11.398 0 002.845-2.945l-.053-.022z" fill="#3E54D8"/></g><path d="M215.194 221.97c-.971 0-1.849-.212-2.636-.638a4.829 4.829 0 01-1.831-1.776c-.444-.758-.666-1.609-.666-2.552 0-.943.222-1.789.666-2.539a4.669 4.669 0 011.845-1.775c.786-.435 1.665-.652 2.636-.652.758 0 1.452.129 2.081.388.629.25 1.165.624 1.609 1.124l-.902.874c-.73-.768-1.641-1.152-2.732-1.152-.722 0-1.374.162-1.956.486a3.554 3.554 0 00-1.374 1.346 3.754 3.754 0 00-.485 1.9c0 .703.162 1.341.485 1.914a3.59 3.59 0 001.374 1.332 3.952 3.952 0 001.956.486c1.082 0 1.993-.389 2.732-1.166l.902.874a4.3 4.3 0 01-1.623 1.138 5.412 5.412 0 01-2.081.388zm8.286-.028c-.749 0-1.419-.161-2.011-.485a3.59 3.59 0 01-1.374-1.332c-.333-.573-.499-1.221-.499-1.942 0-.721.166-1.364.499-1.928a3.465 3.465 0 011.374-1.332c.592-.323 1.262-.485 2.011-.485.666 0 1.258.134 1.776.402.527.268.934.657 1.221 1.165l-1.013.652a2.268 2.268 0 00-.86-.791 2.464 2.464 0 00-1.138-.263c-.481 0-.915.106-1.304.319a2.322 2.322 0 00-.901.916c-.213.388-.319.836-.319 1.345 0 .518.106.976.319 1.373.222.389.522.689.901.902.389.213.823.319 1.304.319.416 0 .796-.088 1.138-.263.342-.176.629-.44.86-.791l1.013.638a2.941 2.941 0 01-1.221 1.179c-.518.268-1.11.402-1.776.402zm8.036-4.938c.925.009 1.632.222 2.123.638.49.416.735 1.004.735 1.762 0 .795-.268 1.41-.805 1.845-.527.425-1.285.633-2.275.624l-3.093-.014v-7.352h1.331v2.483l1.984.014zm3.954-2.497h1.331v7.352h-1.331v-7.352zm-4.273 6.353c.601.01 1.054-.111 1.36-.36.314-.25.471-.62.471-1.11 0-.481-.152-.832-.458-1.054-.305-.222-.763-.338-1.373-.347l-1.665-.028v2.886l1.665.013zm14.505-6.353v7.352h-1.331v-6.187h-3.163l-.083 1.637c-.047.99-.135 1.817-.264 2.483-.13.657-.342 1.184-.638 1.582-.296.397-.708.596-1.235.596-.24 0-.513-.041-.818-.125l.083-1.123c.12.027.231.041.333.041.37 0 .647-.161.832-.485.185-.324.305-.708.361-1.152.055-.443.106-1.077.153-1.9l.124-2.719h5.646zm5.433 4.245h-1.526v3.107h-1.332v-7.352h1.332v3.107h1.554l2.386-3.107h1.429l-2.789 3.537 2.983 3.815h-1.568l-2.469-3.107zm7.919-4.314c1.018 0 1.795.249 2.331.749.546.499.818 1.244.818 2.233v4.439h-1.262v-.971a2.145 2.145 0 01-.957.791c-.407.176-.893.263-1.457.263-.823 0-1.484-.198-1.983-.596-.491-.398-.736-.92-.736-1.568 0-.647.236-1.165.708-1.553.472-.398 1.221-.597 2.247-.597h2.109v-.263c0-.574-.167-1.013-.5-1.318-.333-.305-.823-.458-1.47-.458-.435 0-.86.074-1.276.222a3.185 3.185 0 00-1.055.569l-.555-.999c.38-.305.833-.536 1.36-.694a5.557 5.557 0 011.678-.249zm-.305 6.478c.509 0 .948-.111 1.318-.333.37-.231.638-.555.805-.971v-1.027h-2.053c-1.129 0-1.693.38-1.693 1.138 0 .37.144.661.43.874.287.213.685.319 1.193.319zm9.578-6.409h1.332v3.121h4.189v-3.121h1.332v7.352h-1.332v-3.079h-4.189v3.079h-1.332v-7.352zm12.064-.069c1.017 0 1.794.249 2.331.749.545.499.818 1.244.818 2.233v4.439h-1.262v-.971a2.142 2.142 0 01-.958.791c-.406.176-.892.263-1.456.263-.823 0-1.484-.198-1.984-.596-.49-.398-.735-.92-.735-1.568 0-.647.236-1.165.707-1.553.472-.398 1.221-.597 2.248-.597h2.108v-.263c0-.574-.166-1.013-.499-1.318-.333-.305-.823-.458-1.471-.458-.434 0-.86.074-1.276.222a3.19 3.19 0 00-1.054.569l-.555-.999a3.949 3.949 0 011.359-.694 5.563 5.563 0 011.679-.249zm-.305 6.478c.508 0 .948-.111 1.318-.333.37-.231.638-.555.804-.971v-1.027h-2.053c-1.128 0-1.692.38-1.692 1.138 0 .37.143.661.43.874.286.213.684.319 1.193.319zm16.389-6.409v7.352h-1.332v-6.187h-4.148v6.187h-1.332v-7.352h6.812zm5.725 7.435c-.73 0-1.387-.161-1.969-.485a3.59 3.59 0 01-1.374-1.332c-.323-.573-.485-1.221-.485-1.942 0-.721.162-1.364.485-1.928a3.465 3.465 0 011.374-1.332c.582-.323 1.239-.485 1.969-.485.731 0 1.383.162 1.956.485a3.373 3.373 0 011.36 1.332c.333.564.499 1.207.499 1.928 0 .721-.166 1.369-.499 1.942a3.49 3.49 0 01-1.36 1.332c-.573.324-1.225.485-1.956.485zm0-1.165c.472 0 .893-.106 1.263-.319.379-.222.675-.527.888-.915.212-.398.319-.851.319-1.36 0-.509-.107-.957-.319-1.345a2.234 2.234 0 00-.888-.916 2.485 2.485 0 00-1.263-.319 2.56 2.56 0 00-1.276.319c-.37.213-.666.518-.888.916-.212.388-.319.836-.319 1.345s.107.962.319 1.36c.222.388.518.693.888.915a2.56 2.56 0 001.276.319zm9.636-6.339c.712 0 1.351.157 1.915.471a3.355 3.355 0 011.318 1.318c.323.564.485 1.216.485 1.956s-.162 1.397-.485 1.97a3.355 3.355 0 01-1.318 1.318c-.564.314-1.203.471-1.915.471a3.444 3.444 0 01-1.456-.305 3.017 3.017 0 01-1.11-.888v3.801h-1.332v-10.043h1.277v1.165a2.76 2.76 0 011.123-.915 3.478 3.478 0 011.498-.319zm-.111 6.339c.472 0 .893-.106 1.263-.319.379-.222.675-.527.888-.915.222-.398.333-.851.333-1.36 0-.509-.111-.957-.333-1.345a2.234 2.234 0 00-.888-.916 2.485 2.485 0 00-1.263-.319c-.462 0-.883.111-1.262.333-.37.213-.666.513-.888.902-.212.388-.319.836-.319 1.345s.107.962.319 1.36c.213.388.509.693.888.915.379.213.8.319 1.262.319zm10.972-5.105h-2.691v6.187h-1.331v-6.187h-2.692v-1.165h6.714v1.165zm10.318 2.497c0 1.138-.38 2.035-1.138 2.691-.758.657-1.826 1.022-3.204 1.096v2.594h-1.304v-2.594c-1.378-.074-2.447-.434-3.205-1.082-.749-.656-1.123-1.558-1.123-2.705 0-1.137.374-2.025 1.123-2.663.749-.638 1.817-.994 3.205-1.068v-2.872h1.304v2.872c1.378.074 2.446.434 3.204 1.082.758.638 1.138 1.521 1.138 2.649zm-8.657 0c0 .786.25 1.401.749 1.845.509.444 1.263.698 2.262.763v-5.16c-1.008.065-1.762.314-2.262.749-.499.435-.749 1.036-.749 1.803zm4.315 2.622c2.016-.157 3.024-1.031 3.024-2.622 0-.777-.255-1.378-.763-1.803-.509-.435-1.263-.684-2.261-.749v5.174zm12.869-2.566c0 .101-.01.236-.028.402h-5.965c.083.647.365 1.17.846 1.568.49.388 1.096.582 1.817.582.879 0 1.586-.296 2.123-.888l.735.86a3.198 3.198 0 01-1.249.888c-.49.204-1.04.305-1.65.305-.777 0-1.466-.157-2.067-.471a3.506 3.506 0 01-1.401-1.346c-.324-.573-.486-1.221-.486-1.942 0-.712.157-1.355.472-1.928a3.444 3.444 0 011.318-1.332 3.754 3.754 0 011.9-.485c.703 0 1.327.162 1.873.485a3.26 3.26 0 011.29 1.332c.314.573.472 1.23.472 1.97zm-3.635-2.664c-.638 0-1.174.195-1.609.583-.425.388-.675.897-.749 1.526h4.716c-.074-.62-.328-1.124-.763-1.512-.425-.398-.957-.597-1.595-.597zm11.89-1.054v7.352h-1.331v-6.187h-3.163l-.083 1.637c-.047.99-.134 1.817-.264 2.483-.129.657-.342 1.184-.638 1.582-.296.397-.708.596-1.235.596-.24 0-.513-.041-.818-.125l.083-1.123c.12.027.231.041.333.041.37 0 .647-.161.832-.485a3.06 3.06 0 00.361-1.152c.056-.443.106-1.077.153-1.9l.124-2.719h5.646zm5.974 2.497c.934.009 1.646.222 2.136.638.491.416.736 1.004.736 1.762 0 .795-.269 1.41-.805 1.845-.527.425-1.285.633-2.275.624l-3.191-.014v-7.352h1.332v2.483l2.067.014zm-.319 3.856c.601.01 1.054-.111 1.36-.36.314-.25.471-.62.471-1.11 0-.481-.152-.832-.458-1.054-.296-.222-.753-.338-1.373-.347l-1.748-.028v2.886l1.748.013z" fill="#929398"/><path d="M215.926 328.892c-1.092 0-2.081-.239-2.965-.718a5.43 5.43 0 01-2.06-1.997c-.5-.854-.749-1.811-.749-2.872s.249-2.013.749-2.856a5.247 5.247 0 012.075-1.997c.885-.489 1.873-.734 2.966-.734.853 0 1.633.146 2.34.437a4.718 4.718 0 011.811 1.264l-1.015.983c-.822-.863-1.846-1.295-3.074-1.295-.812 0-1.545.182-2.2.546a4.002 4.002 0 00-1.546 1.514c-.364.635-.546 1.347-.546 2.138 0 .791.182 1.509.546 2.154a4.04 4.04 0 001.546 1.498c.655.364 1.388.546 2.2.546 1.217 0 2.242-.437 3.074-1.311l1.015.983c-.5.562-1.108.989-1.826 1.28-.708.291-1.488.437-2.341.437zm9.322-.031c-.843 0-1.597-.182-2.263-.546a4.032 4.032 0 01-1.545-1.499c-.375-.645-.562-1.373-.562-2.184 0-.812.187-1.535.562-2.17a3.885 3.885 0 011.545-1.498c.666-.364 1.42-.546 2.263-.546.749 0 1.415.151 1.997.453a3.213 3.213 0 011.374 1.31l-1.14.734a2.55 2.55 0 00-.967-.89 2.77 2.77 0 00-1.28-.296c-.541 0-1.03.119-1.467.359a2.604 2.604 0 00-1.014 1.03c-.24.437-.359.941-.359 1.514 0 .582.119 1.097.359 1.545.249.437.588.775 1.014 1.014.437.239.926.359 1.467.359.468 0 .895-.099 1.28-.297.385-.197.707-.494.967-.889l1.14.718a3.315 3.315 0 01-1.374 1.326c-.582.302-1.248.453-1.997.453zm9.04-5.556c1.041.01 1.836.25 2.388.718.551.468.827 1.129.827 1.982 0 .895-.302 1.587-.905 2.076-.593.478-1.446.712-2.56.702l-3.48-.016v-8.271h1.498v2.793l2.232.016zm4.448-2.809h1.498v8.271h-1.498v-8.271zm-4.807 7.148c.676.01 1.186-.125 1.53-.406.353-.281.53-.697.53-1.249 0-.541-.171-.936-.515-1.186-.343-.249-.858-.379-1.545-.39l-1.873-.031v3.246l1.873.016zm16.319-7.148v8.271h-1.499v-6.96h-3.558l-.093 1.841c-.052 1.114-.151 2.045-.297 2.794-.146.739-.385 1.332-.718 1.779-.333.447-.796.671-1.389.671-.27 0-.577-.047-.921-.14l.094-1.264c.135.031.26.046.375.046.416 0 .728-.182.936-.546.208-.364.343-.796.406-1.295.062-.5.119-1.212.171-2.138l.141-3.059h6.352zm6.111 4.775h-1.716v3.496h-1.498v-8.271h1.498v3.496h1.748l2.684-3.496h1.607l-3.137 3.98 3.356 4.291h-1.764l-2.778-3.496zm8.91-4.853c1.144 0 2.018.281 2.622.843.613.561.92 1.399.92 2.512v4.994h-1.42v-1.092c-.249.385-.608.681-1.077.889-.457.198-1.004.297-1.638.297-.926 0-1.67-.224-2.232-.671-.551-.448-.827-1.035-.827-1.764 0-.728.265-1.311.796-1.748.53-.447 1.373-.671 2.528-.671h2.372v-.296c0-.645-.187-1.139-.562-1.483-.374-.343-.926-.515-1.654-.515-.489 0-.967.083-1.436.25a3.586 3.586 0 00-1.186.64l-.624-1.124a4.435 4.435 0 011.529-.78 6.247 6.247 0 011.889-.281zm-.344 7.288c.573 0 1.067-.125 1.483-.375.416-.26.718-.624.905-1.092v-1.155h-2.31c-1.269 0-1.903.427-1.903 1.28 0 .416.161.744.483.983.323.239.77.359 1.342.359zm19.187-.25v3.231h-1.405v-1.92h-6.913v1.92h-1.42v-3.231h.437c.53-.031.894-.405 1.092-1.123.198-.718.333-1.733.406-3.044l.125-2.793h6.414v6.96h1.264zm-6.43-4.057c-.041 1.04-.13 1.904-.265 2.59-.125.677-.359 1.166-.702 1.467h4.635v-5.649h-3.59l-.078 1.592zm11.924 5.462c-.822 0-1.56-.182-2.216-.546a4.046 4.046 0 01-1.545-1.499c-.364-.645-.546-1.373-.546-2.184 0-.812.182-1.535.546-2.17a3.898 3.898 0 011.545-1.498c.656-.364 1.394-.546 2.216-.546.822 0 1.556.182 2.201.546a3.789 3.789 0 011.529 1.498c.375.635.562 1.358.562 2.17 0 .811-.187 1.539-.562 2.184a3.928 3.928 0 01-1.529 1.499c-.645.364-1.379.546-2.201.546zm0-1.311c.531 0 1.004-.12 1.42-.359.427-.25.76-.593.999-1.03.24-.447.359-.957.359-1.529 0-.573-.119-1.077-.359-1.514a2.5 2.5 0 00-.999-1.03 2.788 2.788 0 00-1.42-.359c-.53 0-1.009.119-1.435.359-.417.239-.75.582-.999 1.03-.24.437-.359.941-.359 1.514 0 .572.119 1.082.359 1.529.249.437.582.78.999 1.03.426.239.905.359 1.435.359zm10.06 1.311c-.842 0-1.597-.182-2.262-.546a4.032 4.032 0 01-1.545-1.499c-.375-.645-.562-1.373-.562-2.184 0-.812.187-1.535.562-2.17a3.885 3.885 0 011.545-1.498c.665-.364 1.42-.546 2.262-.546.749 0 1.415.151 1.998.453a3.205 3.205 0 011.373 1.31l-1.139.734a2.556 2.556 0 00-.967-.89 2.77 2.77 0 00-1.28-.296c-.541 0-1.03.119-1.467.359a2.606 2.606 0 00-1.015 1.03c-.239.437-.359.941-.359 1.514 0 .582.12 1.097.359 1.545.25.437.588.775 1.015 1.014.437.239.926.359 1.467.359.468 0 .895-.099 1.28-.297.384-.197.707-.494.967-.889l1.139.718a3.306 3.306 0 01-1.373 1.326c-.583.302-1.249.453-1.998.453zm11.369-7.054h-3.028v6.96h-1.498v-6.96h-3.028v-1.311h7.554v1.311zm8.959-1.311l-4.011 9.098c-.353.843-.77 1.436-1.248 1.779-.468.344-1.035.515-1.701.515-.406 0-.801-.067-1.186-.202a2.362 2.362 0 01-.937-.562l.64-1.124c.427.406.921.609 1.483.609.364 0 .666-.099.905-.297.25-.187.473-.515.671-.983l.265-.577-3.652-8.256h1.561l2.887 6.617 2.856-6.617h1.467zm9.197 0v8.271h-1.499v-6.96h-4.666v6.96h-1.498v-8.271h7.663zm2.899 0h1.498v3.511h4.713v-3.511h1.498v8.271h-1.498v-3.464h-4.713v3.464h-1.498v-8.271zm13.572-.078c1.144 0 2.018.281 2.622.843.613.561.92 1.399.92 2.512v4.994h-1.42v-1.092c-.25.385-.608.681-1.077.889-.457.198-1.004.297-1.638.297-.926 0-1.67-.224-2.232-.671-.551-.448-.827-1.035-.827-1.764 0-.728.265-1.311.796-1.748.53-.447 1.373-.671 2.528-.671h2.372v-.296c0-.645-.187-1.139-.562-1.483-.374-.343-.926-.515-1.654-.515-.489 0-.968.083-1.436.25a3.586 3.586 0 00-1.186.64l-.624-1.124a4.435 4.435 0 011.529-.78 6.247 6.247 0 011.889-.281zm-.344 7.288c.573 0 1.067-.125 1.483-.375.416-.26.718-.624.905-1.092v-1.155h-2.31c-1.269 0-1.904.427-1.904 1.28 0 .416.162.744.484.983.323.239.77.359 1.342.359zm19.187-.25v3.231H363.1v-1.92h-6.913v1.92h-1.42v-3.231h.437c.53-.031.894-.405 1.092-1.123.198-.718.333-1.733.406-3.044l.125-2.793h6.414v6.96h1.264zm-6.43-4.057c-.041 1.04-.13 1.904-.265 2.59-.125.677-.359 1.166-.702 1.467h4.635v-5.649h-3.59l-.078 1.592zm15.482-2.903v8.271h-1.498v-6.96h-3.558l-.094 1.841c-.052 1.114-.15 2.045-.296 2.794-.146.739-.385 1.332-.718 1.779-.333.447-.796.671-1.389.671-.27 0-.577-.047-.921-.14l.094-1.264c.135.031.26.046.374.046.417 0 .729-.182.937-.546.208-.364.343-.796.406-1.295.062-.5.119-1.212.171-2.138l.141-3.059h6.351zm9.53 0v8.271h-1.342v-2.622h-2.575l-1.811 2.622h-1.607l2.013-2.824c-.624-.188-1.103-.495-1.436-.921-.332-.437-.499-.978-.499-1.623 0-.947.323-1.665.968-2.154.645-.499 1.534-.749 2.668-.749h3.621zm-5.728 2.95c0 .551.172.962.515 1.232.354.261.88.391 1.577.391h2.294v-3.262h-2.232c-1.436 0-2.154.546-2.154 1.639zm18.476 1.03c1.072.27 1.607.941 1.607 2.013 0 .728-.275 1.29-.827 1.685-.541.396-1.352.593-2.434.593h-3.98v-8.271h3.839c.978 0 1.743.187 2.294.562.552.364.827.884.827 1.56 0 .437-.119.817-.358 1.14-.229.312-.552.551-.968.718zm-4.167-.422h2.247c.573 0 1.004-.104 1.296-.312.301-.208.452-.51.452-.905 0-.791-.582-1.186-1.748-1.186h-2.247v2.403zm2.403 3.558c.625 0 1.093-.098 1.405-.296.312-.198.468-.505.468-.921 0-.426-.145-.744-.437-.952-.281-.208-.728-.312-1.342-.312h-2.497v2.481h2.403zm9.321 1.249c-.842 0-1.597-.182-2.263-.546a4.046 4.046 0 01-1.545-1.499c-.374-.645-.561-1.373-.561-2.184 0-.812.187-1.535.561-2.17a3.898 3.898 0 011.545-1.498c.666-.364 1.421-.546 2.263-.546.749 0 1.415.151 1.998.453a3.205 3.205 0 011.373 1.31l-1.139.734a2.552 2.552 0 00-.968-.89 2.763 2.763 0 00-1.279-.296c-.541 0-1.03.119-1.467.359a2.606 2.606 0 00-1.015 1.03c-.239.437-.359.941-.359 1.514 0 .582.12 1.097.359 1.545.25.437.588.775 1.015 1.014.437.239.926.359 1.467.359.468 0 .895-.099 1.279-.297.385-.197.708-.494.968-.889l1.139.718a3.306 3.306 0 01-1.373 1.326c-.583.302-1.249.453-1.998.453zm12.664-4.183c0 .115-.01.266-.031.453h-6.71c.093.728.41 1.316.952 1.763.551.437 1.232.656 2.044.656.988 0 1.784-.333 2.388-.999l.827.968c-.375.437-.843.77-1.405.999-.551.228-1.17.343-1.857.343-.874 0-1.649-.177-2.325-.531a3.942 3.942 0 01-1.576-1.514c-.365-.645-.547-1.373-.547-2.184 0-.802.177-1.525.531-2.17a3.869 3.869 0 011.483-1.498c.634-.364 1.347-.546 2.138-.546.79 0 1.493.182 2.106.546a3.664 3.664 0 011.452 1.498c.354.645.53 1.384.53 2.216zm-4.088-2.996c-.718 0-1.322.219-1.811.655-.478.437-.759 1.01-.842 1.717h5.306c-.084-.697-.37-1.264-.859-1.701-.478-.447-1.077-.671-1.794-.671zm11.35 7.085l-2.388-3.168-2.419 3.168h-1.67l3.262-4.229-3.106-4.042h1.67l2.278 2.981 2.263-2.981h1.639l-3.121 4.042 3.293 4.229h-1.701z" fill="#373943"/><rect x="209.774" y="235.771" width="247.964" height="47.685" rx="8.237" fill="#FCFDFF"/><path d="M228.401 256.921c.934 0 1.673.273 2.219.818.555.537.832 1.327.832 2.373v4.231h-1.331v-4.079c0-.712-.171-1.248-.514-1.609-.342-.361-.832-.541-1.47-.541-.721 0-1.29.213-1.706.638-.416.416-.625 1.017-.625 1.803v3.788h-1.331v-10.294h1.331v3.982a2.763 2.763 0 011.082-.819 3.811 3.811 0 011.513-.291zm9.65 6.991a2.073 2.073 0 01-.721.389 3.18 3.18 0 01-.888.125c-.74 0-1.314-.199-1.72-.597-.407-.397-.611-.966-.611-1.706v-4.037h-1.248v-1.096h1.248v-1.609h1.332v1.609h2.108v1.096h-2.108v3.982c0 .397.097.702.291.915.204.213.49.319.86.319.407 0 .754-.115 1.041-.347l.416.957zm5.568 0a2.078 2.078 0 01-.722.389 3.168 3.168 0 01-.887.125c-.74 0-1.314-.199-1.721-.597-.407-.397-.61-.966-.61-1.706v-4.037h-1.249v-1.096h1.249v-1.609h1.332v1.609h2.108v1.096h-2.108v3.982c0 .397.097.702.291.915.203.213.49.319.86.319.407 0 .754-.115 1.041-.347l.416.957zm5.508-6.991c.712 0 1.35.157 1.914.472a3.34 3.34 0 011.318 1.317c.324.565.485 1.217.485 1.956 0 .74-.161 1.397-.485 1.97a3.342 3.342 0 01-1.318 1.318c-.564.315-1.202.472-1.914.472a3.463 3.463 0 01-1.457-.305 3.053 3.053 0 01-1.11-.888v3.801h-1.331V256.99h1.276v1.166c.296-.407.67-.713 1.124-.916a3.475 3.475 0 011.498-.319zm-.111 6.34c.471 0 .892-.107 1.262-.32.379-.222.675-.527.888-.915.222-.398.333-.851.333-1.36 0-.508-.111-.957-.333-1.345a2.234 2.234 0 00-.888-.916 2.494 2.494 0 00-1.262-.319c-.463 0-.883.111-1.263.333a2.38 2.38 0 00-.887.902c-.213.388-.319.837-.319 1.345 0 .509.106.962.319 1.36.212.388.508.693.887.915.38.213.8.32 1.263.32zm7.777 1.165a6.34 6.34 0 01-1.734-.236c-.555-.167-.989-.375-1.304-.624l.555-1.055c.324.232.717.417 1.179.555.462.139.93.208 1.401.208 1.165 0 1.748-.333 1.748-.998a.65.65 0 00-.236-.528 1.426 1.426 0 00-.596-.277 10.365 10.365 0 00-.999-.208 10.248 10.248 0 01-1.457-.319 2.233 2.233 0 01-.957-.611c-.268-.286-.402-.688-.402-1.206 0-.666.277-1.198.832-1.596.555-.407 1.3-.61 2.234-.61.49 0 .98.06 1.47.18.49.121.893.282 1.207.486l-.569 1.054c-.601-.388-1.308-.583-2.122-.583-.564 0-.994.093-1.29.278-.296.185-.444.43-.444.735 0 .241.083.43.249.569.167.139.37.24.611.305.25.065.596.139 1.04.222.592.102 1.068.213 1.429.333.37.111.684.305.943.583.259.277.389.665.389 1.165 0 .666-.287 1.197-.86 1.595-.564.389-1.337.583-2.317.583zm5.16-5.605a.931.931 0 01-.666-.263.94.94 0 01-.277-.694.88.88 0 01.277-.666.908.908 0 01.666-.277c.259 0 .476.088.652.264a.917.917 0 01.264.679.941.941 0 01-.278.694.866.866 0 01-.638.263zm0 5.605a.932.932 0 01-.666-.264.94.94 0 01-.277-.693c0-.269.092-.491.277-.666a.909.909 0 01.666-.278c.259 0 .476.088.652.264a.92.92 0 01.264.68.94.94 0 01-.278.693.867.867 0 01-.638.264zm6.415-11.764h1.207l-4.578 13.068h-1.207l4.578-13.068zm3.928 0h1.207l-4.577 13.068h-1.207l4.577-13.068zm5.848 4.259c.713 0 1.351.157 1.915.472a3.346 3.346 0 011.318 1.317c.323.565.485 1.217.485 1.956 0 .74-.162 1.397-.485 1.97a3.348 3.348 0 01-1.318 1.318c-.564.315-1.202.472-1.915.472a3.493 3.493 0 01-1.498-.319 2.887 2.887 0 01-1.123-.93v1.166h-1.277v-10.294h1.332v4.051c.296-.388.666-.68 1.11-.874a3.459 3.459 0 011.456-.305zm-.111 6.34c.472 0 .893-.107 1.263-.32.379-.222.675-.527.888-.915.222-.398.333-.851.333-1.36 0-.508-.111-.957-.333-1.345a2.234 2.234 0 00-.888-.916 2.495 2.495 0 00-1.263-.319c-.462 0-.883.107-1.262.319a2.234 2.234 0 00-.888.916c-.212.388-.319.837-.319 1.345 0 .509.107.962.319 1.36.213.388.509.693.888.915.379.213.8.32 1.262.32zm12.314-2.553c0 .102-.009.236-.028.402h-5.965c.083.648.365 1.17.846 1.568.491.388 1.096.583 1.818.583.878 0 1.586-.296 2.122-.888l.735.86a3.222 3.222 0 01-1.248.888 4.28 4.28 0 01-1.651.305c-.777 0-1.466-.157-2.067-.472a3.51 3.51 0 01-1.401-1.345c-.324-.574-.486-1.221-.486-1.943 0-.712.158-1.354.472-1.928a3.45 3.45 0 011.318-1.332 3.756 3.756 0 011.9-.485c.703 0 1.328.162 1.873.485a3.26 3.26 0 011.29 1.332c.315.574.472 1.23.472 1.97zm-3.635-2.663c-.638 0-1.174.194-1.609.582-.425.389-.675.897-.749 1.526h4.717c-.074-.619-.329-1.123-.763-1.512-.426-.398-.957-.596-1.596-.596zm7.958-1.124c1.018 0 1.794.25 2.331.749.545.499.818 1.244.818 2.233v4.44h-1.262v-.972a2.138 2.138 0 01-.957.791c-.407.176-.893.264-1.457.264-.823 0-1.484-.199-1.984-.597-.49-.397-.735-.92-.735-1.567 0-.648.236-1.166.708-1.554.471-.398 1.22-.596 2.247-.596h2.108v-.264c0-.573-.166-1.013-.499-1.318-.333-.305-.823-.458-1.47-.458-.435 0-.86.074-1.277.222a3.208 3.208 0 00-1.054.569l-.555-.999a3.935 3.935 0 011.36-.693 5.521 5.521 0 011.678-.25zm-.305 6.478c.509 0 .948-.111 1.318-.333.37-.231.638-.555.804-.971v-1.026h-2.053c-1.128 0-1.692.379-1.692 1.137 0 .37.143.661.43.874.287.213.684.319 1.193.319zm10.053.513a2.078 2.078 0 01-.722.389 3.17 3.17 0 01-.888.125c-.739 0-1.313-.199-1.72-.597-.407-.397-.61-.966-.61-1.706v-4.037h-1.249v-1.096h1.249v-1.609h1.332v1.609h2.108v1.096h-2.108v3.982c0 .397.097.702.291.915.203.213.49.319.86.319.407 0 .754-.115 1.04-.347l.417.957zm10.807-6.991c.925 0 1.655.268 2.192.805.545.536.818 1.331.818 2.386v4.231h-1.332v-4.079c0-.712-.166-1.248-.499-1.609-.324-.361-.791-.541-1.401-.541-.675 0-1.212.213-1.609.638-.398.416-.597 1.017-.597 1.803v3.788h-1.332v-4.079c0-.712-.166-1.248-.499-1.609-.324-.361-.791-.541-1.401-.541-.675 0-1.211.213-1.609.638-.398.416-.597 1.017-.597 1.803v3.788h-1.331v-7.353h1.276v1.096a2.525 2.525 0 011.054-.86c.435-.203.93-.305 1.484-.305.574 0 1.082.116 1.526.347.444.231.786.569 1.027 1.012a2.821 2.821 0 011.151-.998 3.815 3.815 0 011.679-.361zm8.138 0c1.017 0 1.794.25 2.33.749.546.499.819 1.244.819 2.233v4.44h-1.263v-.972a2.138 2.138 0 01-.957.791c-.407.176-.892.264-1.456.264-.823 0-1.485-.199-1.984-.597-.49-.397-.735-.92-.735-1.567 0-.648.236-1.166.707-1.554.472-.398 1.221-.596 2.247-.596h2.109v-.264c0-.573-.166-1.013-.499-1.318-.333-.305-.823-.458-1.471-.458-.434 0-.86.074-1.276.222a3.198 3.198 0 00-1.054.569l-.555-.999a3.93 3.93 0 011.359-.693 5.528 5.528 0 011.679-.25zm-.305 6.478c.508 0 .948-.111 1.317-.333.37-.231.639-.555.805-.971v-1.026h-2.053c-1.128 0-1.692.379-1.692 1.137 0 .37.143.661.43.874.286.213.684.319 1.193.319zm7.194-5.174a2.28 2.28 0 011.027-.971c.453-.222 1.003-.333 1.651-.333v1.29a2.653 2.653 0 00-.305-.014c-.722 0-1.291.218-1.707.652-.407.426-.61 1.036-.61 1.831v3.663h-1.332v-7.353h1.276v1.235zm7.177 2.691l-1.526 1.415v2.012h-1.332v-10.294h1.332v6.604l4.009-3.663h1.609l-3.093 3.038 3.398 4.315h-1.637l-2.76-3.427zm12.023-.208c0 .102-.009.236-.027.402h-5.965c.083.648.365 1.17.846 1.568.49.388 1.096.583 1.817.583.879 0 1.586-.296 2.123-.888l.735.86a3.219 3.219 0 01-1.249.888c-.49.203-1.04.305-1.65.305-.777 0-1.466-.157-2.067-.472a3.507 3.507 0 01-1.402-1.345c-.323-.574-.485-1.221-.485-1.943 0-.712.157-1.354.472-1.928a3.448 3.448 0 011.317-1.332 3.76 3.76 0 011.901-.485c.703 0 1.327.162 1.873.485a3.26 3.26 0 011.29 1.332c.314.574.471 1.23.471 1.97zm-3.634-2.663c-.638 0-1.175.194-1.609.582-.426.389-.675.897-.749 1.526h4.716c-.074-.619-.328-1.123-.763-1.512-.425-.398-.957-.596-1.595-.596zm9.618 5.867a2.078 2.078 0 01-.722.389 3.17 3.17 0 01-.888.125c-.739 0-1.313-.199-1.72-.597-.407-.397-.61-.966-.61-1.706v-4.037h-1.249v-1.096h1.249v-1.609h1.332v1.609h2.108v1.096h-2.108v3.982c0 .397.097.702.291.915.203.213.49.319.86.319.407 0 .754-.115 1.04-.347l.417.957zm2.064.514a.932.932 0 01-.666-.264.94.94 0 01-.277-.693c0-.269.092-.491.277-.666a.909.909 0 01.666-.278c.259 0 .476.088.652.264a.92.92 0 01.264.68.94.94 0 01-.278.693.867.867 0 01-.638.264zm5.81 0c-.73 0-1.387-.162-1.969-.486a3.58 3.58 0 01-1.374-1.331c-.323-.574-.485-1.221-.485-1.943 0-.721.162-1.364.485-1.928a3.465 3.465 0 011.374-1.332c.582-.323 1.239-.485 1.969-.485.731 0 1.383.162 1.956.485a3.373 3.373 0 011.36 1.332c.333.564.499 1.207.499 1.928 0 .722-.166 1.369-.499 1.943a3.482 3.482 0 01-1.36 1.331c-.573.324-1.225.486-1.956.486zm0-1.165c.472 0 .893-.107 1.263-.32.379-.222.675-.527.888-.915.212-.398.319-.851.319-1.36 0-.508-.107-.957-.319-1.345a2.234 2.234 0 00-.888-.916 2.495 2.495 0 00-1.263-.319 2.57 2.57 0 00-1.276.319c-.37.213-.666.518-.888.916-.212.388-.319.837-.319 1.345 0 .509.107.962.319 1.36.222.388.518.693.888.915.379.213.805.32 1.276.32zm9.583-6.34c.934 0 1.674.273 2.219.818.555.537.833 1.327.833 2.373v4.231h-1.332v-4.079c0-.712-.171-1.248-.513-1.609-.343-.361-.833-.541-1.471-.541-.721 0-1.29.213-1.706.638-.416.416-.624 1.017-.624 1.803v3.788h-1.332v-7.353h1.276v1.11c.268-.379.629-.67 1.082-.874a3.865 3.865 0 011.568-.305zm12.202 3.787c0 .102-.01.236-.028.402h-5.965c.083.648.365 1.17.846 1.568.49.388 1.096.583 1.817.583.879 0 1.586-.296 2.123-.888l.735.86a3.219 3.219 0 01-1.249.888c-.49.203-1.04.305-1.65.305-.777 0-1.466-.157-2.067-.472a3.51 3.51 0 01-1.401-1.345c-.324-.574-.486-1.221-.486-1.943 0-.712.157-1.354.472-1.928a3.444 3.444 0 011.318-1.332 3.754 3.754 0 011.9-.485c.703 0 1.327.162 1.873.485a3.26 3.26 0 011.29 1.332c.314.574.472 1.23.472 1.97zm-3.635-2.663c-.638 0-1.174.194-1.609.582-.425.389-.675.897-.749 1.526h4.716c-.074-.619-.328-1.123-.763-1.512-.425-.398-.957-.596-1.595-.596zm8.411-5.383h1.207L386.5 265.73h-1.207l4.578-13.068zm4.913 4.259c.712 0 1.35.157 1.914.472a3.333 3.333 0 011.318 1.317c.324.565.486 1.217.486 1.956 0 .74-.162 1.397-.486 1.97a3.335 3.335 0 01-1.318 1.318c-.564.315-1.202.472-1.914.472a3.463 3.463 0 01-1.457-.305 3.042 3.042 0 01-1.109-.888v3.801h-1.332V256.99h1.276v1.166a2.772 2.772 0 011.124-.916 3.475 3.475 0 011.498-.319zm-.111 6.34a2.48 2.48 0 001.262-.32c.38-.222.676-.527.888-.915.222-.398.333-.851.333-1.36 0-.508-.111-.957-.333-1.345a2.222 2.222 0 00-.888-.916 2.489 2.489 0 00-1.262-.319c-.462 0-.883.111-1.262.333-.37.213-.666.513-.888.902-.213.388-.319.837-.319 1.345 0 .509.106.962.319 1.36.213.388.509.693.888.915.379.213.8.32 1.262.32zm8.818 1.165c-.731 0-1.387-.162-1.97-.486a3.577 3.577 0 01-1.373-1.331c-.324-.574-.486-1.221-.486-1.943 0-.721.162-1.364.486-1.928a3.463 3.463 0 011.373-1.332c.583-.323 1.239-.485 1.97-.485.73 0 1.382.162 1.956.485a3.37 3.37 0 011.359 1.332c.333.564.5 1.207.5 1.928 0 .722-.167 1.369-.5 1.943a3.48 3.48 0 01-1.359 1.331c-.574.324-1.226.486-1.956.486zm0-1.165c.471 0 .892-.107 1.262-.32.379-.222.675-.527.888-.915.213-.398.319-.851.319-1.36 0-.508-.106-.957-.319-1.345a2.234 2.234 0 00-.888-.916 2.494 2.494 0 00-1.262-.319c-.472 0-.897.107-1.276.319-.37.213-.666.518-.888.916-.213.388-.319.837-.319 1.345 0 .509.106.962.319 1.36.222.388.518.693.888.915.379.213.804.32 1.276.32zm6.933-5.036a2.273 2.273 0 011.026-.971c.453-.222 1.004-.333 1.651-.333v1.29a2.653 2.653 0 00-.305-.014c-.722 0-1.29.218-1.707.652-.406.426-.61 1.036-.61 1.831v3.663h-1.332v-7.353h1.277v1.235zm8.75 5.687a2.064 2.064 0 01-.721.389 3.18 3.18 0 01-.888.125c-.74 0-1.313-.199-1.72-.597-.407-.397-.611-.966-.611-1.706v-4.037h-1.248v-1.096h1.248v-1.609h1.332v1.609h2.109v1.096h-2.109v3.982c0 .397.097.702.292.915.203.213.49.319.86.319.407 0 .753-.115 1.04-.347l.416.957zm4.301-8.85c-.795 0-1.193.43-1.193 1.29v.638h2.137v1.096h-2.109v6.257h-1.332v-6.257h-1.248v-1.096h1.248v-.652c0-.73.213-1.308.639-1.734.425-.425 1.021-.638 1.789-.638.296 0 .573.037.832.111.259.074.481.18.666.319l-.402 1.013a1.658 1.658 0 00-1.027-.347zm5.24 9.364c-.73 0-1.387-.162-1.97-.486a3.584 3.584 0 01-1.373-1.331c-.324-.574-.485-1.221-.485-1.943 0-.721.161-1.364.485-1.928a3.47 3.47 0 011.373-1.332c.583-.323 1.24-.485 1.97-.485.731 0 1.383.162 1.956.485a3.373 3.373 0 011.36 1.332c.333.564.499 1.207.499 1.928 0 .722-.166 1.369-.499 1.943a3.482 3.482 0 01-1.36 1.331c-.573.324-1.225.486-1.956.486zm0-1.165c.472 0 .893-.107 1.263-.32.379-.222.675-.527.887-.915.213-.398.32-.851.32-1.36 0-.508-.107-.957-.32-1.345a2.226 2.226 0 00-.887-.916 2.495 2.495 0 00-1.263-.319 2.57 2.57 0 00-1.276.319c-.37.213-.666.518-.888.916-.212.388-.319.837-.319 1.345 0 .509.107.962.319 1.36.222.388.518.693.888.915.379.213.805.32 1.276.32zm5.657-9.212h1.332v10.294h-1.332v-10.294zm3.874 2.941h1.332v7.353h-1.332v-7.353zm.666-1.415a.913.913 0 01-.652-.249.834.834 0 01-.25-.611c0-.24.084-.444.25-.61a.885.885 0 01.652-.264c.259 0 .472.084.638.25a.765.765 0 01.264.597.87.87 0 01-.264.638.864.864 0 01-.638.249zm6.358 8.851c-.731 0-1.388-.162-1.97-.486a3.57 3.57 0 01-1.373-1.331c-.324-.574-.486-1.221-.486-1.943 0-.721.162-1.364.486-1.928a3.456 3.456 0 011.373-1.332c.582-.323 1.239-.485 1.97-.485.73 0 1.382.162 1.956.485a3.377 3.377 0 011.359 1.332c.333.564.5 1.207.5 1.928 0 .722-.167 1.369-.5 1.943a3.486 3.486 0 01-1.359 1.331c-.574.324-1.226.486-1.956.486zm0-1.165c.471 0 .892-.107 1.262-.32.379-.222.675-.527.888-.915.213-.398.319-.851.319-1.36 0-.508-.106-.957-.319-1.345a2.234 2.234 0 00-.888-.916 2.494 2.494 0 00-1.262-.319c-.472 0-.897.107-1.277.319a2.356 2.356 0 00-.887.916c-.213.388-.319.837-.319 1.345 0 .509.106.962.319 1.36.222.388.518.693.887.915.38.213.805.32 1.277.32z" fill="#3E54D8"/><rect x="209.774" y="235.771" width="247.964" height="47.685" rx="8.237" stroke="#D3E3FF" stroke-width=".867"/><g clip-path="url(#clip3)"><rect x="439.097" y="309.9" width="44.217" height="26.877" rx="13.439" fill="#3E54D8"/><g filter="url(#filter4_d)"><rect x="458.171" y="311.634" width="23.409" height="23.409" rx="11.705" fill="#fff"/></g></g><path stroke="#E6EEFF" stroke-width=".867" d="M278.267 149.504v26.877m86.701-26.877v26.877m79.765-26.877v26.877"/><rect x="465.541" y="235.771" width="47.685" height="47.685" rx="6.503" fill="#FCFDFF"/><path d="M488.771 253.483l2.146-2.146a4.761 4.761 0 015.197-1.035 4.757 4.757 0 012.582 2.581 4.764 4.764 0 01-.001 3.651 4.783 4.783 0 01-1.035 1.547l-3.065 3.065a4.78 4.78 0 01-3.372 1.397 4.78 4.78 0 01-3.372-1.397" stroke="#373943" stroke-width="1.734" stroke-linecap="round" stroke-linejoin="round"/><path d="M489.997 265.744l-2.146 2.146a4.761 4.761 0 01-5.197 1.035 4.77 4.77 0 01-2.945-4.406 4.783 4.783 0 011.399-3.373l3.065-3.065a4.77 4.77 0 016.744 0" stroke="#373943" stroke-width="1.734" stroke-linecap="round" stroke-linejoin="round"/><rect x="465.541" y="235.771" width="47.685" height="47.685" rx="6.503" stroke="#D3E3FF" stroke-width=".867"/><rect x="192.434" y="119.592" width="338.133" height="242.762" rx="8.237" stroke="#D3E3FF" stroke-width=".867"/></g><rect x="75.5" y="31.5" width="572" height="355" rx="35.5" stroke="#D3E3FF"/></g><defs><filter id="filter0_d" x="0" y="0" width="723" height="506" filterUnits="userSpaceOnUse" color-interpolation-filters="sRGB"><feFlood flood-opacity="0" result="BackgroundImageFix"/><feColorMatrix in="SourceAlpha" values="0 0 0 0 0 0 0 0 0 0 0 0 0 0 0 0 0 0 127 0"/><feMorphology radius="14" in="SourceAlpha" result="effect1_dropShadow"/><feOffset dy="44"/><feGaussianBlur stdDeviation="44.5"/><feColorMatrix values="0 0 0 0 0.243137 0 0 0 0 0.329412 0 0 0 0 0.847059 0 0 0 0.12 0"/><feBlend in2="BackgroundImageFix" result="effect1_dropShadow"/><feBlend in="SourceGraphic" in2="effect1_dropShadow" result="shape"/></filter><filter id="filter1_d" x="189.399" y="55" width="273.107" height="75.43" filterUnits="userSpaceOnUse" color-interpolation-filters="sRGB"><feFlood flood-opacity="0" result="BackgroundImageFix"/><feColorMatrix in="SourceAlpha" values="0 0 0 0 0 0 0 0 0 0 0 0 0 0 0 0 0 0 127 0"/><feMorphology radius="11.271" in="SourceAlpha" result="effect1_dropShadow"/><feOffset dy="15.606"/><feGaussianBlur stdDeviation="6.936"/><feColorMatrix values="0 0 0 0 0.243137 0 0 0 0 0.329412 0 0 0 0 0.847059 0 0 0 0.1 0"/><feBlend in2="BackgroundImageFix" result="effect1_dropShadow"/><feBlend in="SourceGraphic" in2="effect1_dropShadow" result="shape"/></filter><filter id="filter2_d" x="468.575" y="55" width="67.627" height="78.031" filterUnits="userSpaceOnUse" color-interpolation-filters="sRGB"><feFlood flood-opacity="0" result="BackgroundImageFix"/><feColorMatrix in="SourceAlpha" values="0 0 0 0 0 0 0 0 0 0 0 0 0 0 0 0 0 0 127 0"/><feMorphology radius="8.67" in="SourceAlpha" result="effect1_dropShadow"/><feOffset dy="15.606"/><feGaussianBlur stdDeviation="6.936"/><feColorMatrix values="0 0 0 0 0.243137 0 0 0 0 0.329412 0 0 0 0 0.847059 0 0 0 0.1 0"/><feBlend in2="BackgroundImageFix" result="effect1_dropShadow"/><feBlend in="SourceGraphic" in2="effect1_dropShadow" result="shape"/></filter><filter id="filter3_d" x="184.197" y="111.355" width="354.606" height="259.235" filterUnits="userSpaceOnUse" color-interpolation-filters="sRGB"><feFlood flood-opacity="0" result="BackgroundImageFix"/><feColorMatrix in="SourceAlpha" values="0 0 0 0 0 0 0 0 0 0 0 0 0 0 0 0 0 0 127 0"/><feOffset/><feGaussianBlur stdDeviation="3.902"/><feColorMatrix values="0 0 0 0 0.243137 0 0 0 0 0.329412 0 0 0 0 0.847059 0 0 0 0.18 0"/><feBlend in2="BackgroundImageFix" result="effect1_dropShadow"/><feBlend in="SourceGraphic" in2="effect1_dropShadow" result="shape"/></filter><filter id="filter4_d" x="452.102" y="308.166" width="35.547" height="35.547" filterUnits="userSpaceOnUse" color-interpolation-filters="sRGB"><feFlood flood-opacity="0" result="BackgroundImageFix"/><feColorMatrix in="SourceAlpha" values="0 0 0 0 0 0 0 0 0 0 0 0 0 0 0 0 0 0 127 0"/><feOffset dy="2.601"/><feGaussianBlur stdDeviation="3.035"/><feColorMatrix values="0 0 0 0 0 0 0 0 0 0 0 0 0 0 0 0 0 0 0.12 0"/><feBlend in2="BackgroundImageFix" result="effect1_dropShadow"/><feBlend in="SourceGraphic" in2="effect1_dropShadow" result="shape"/></filter><clipPath id="clip0"><path fill="#fff" transform="translate(224.079 148.637)" d="M0 0h27.744v27.744H0z"/></clipPath><clipPath id="clip1"><path fill="#fff" transform="translate(390.545 148.637)" d="M0 0h27.744v27.744H0z"/></clipPath><clipPath id="clip2"><path fill="#fff" transform="translate(470.309 148.637)" d="M0 0h27.744v27.744H0z"/></clipPath><clipPath id="clip3"><rect x="439.097" y="309.9" width="44.217" height="26.877" rx="13.439" fill="#fff"/></clipPath></defs></svg>