<svg width="437" height="736" fill="none" xmlns="http://www.w3.org/2000/svg"><g filter="url(#filter0_d)"><rect x="85" y="41" width="267" height="566" rx="20" fill="#fff"/><rect x="81" y="37" width="275" height="574" rx="24" stroke="#fff" stroke-width="8"/></g><path d="M85 64c0-12.728 0-19.092 3.954-23.046C92.908 37 99.272 37 112 37h220c9.428 0 14.142 0 17.071 2.929C352 42.858 352 47.572 352 57v7H85z" fill="#fff"/><rect x="200" y="48" width="25" height="5" rx="2.5" fill="#EAF1FE"/><rect x="233" y="48" width="5" height="5" rx="2.5" fill="#EAF1FE"/><path d="M103.638 174.076v9.955H102.6v-4.593h-6.229v4.593H95.32v-9.955h1.052v4.437h6.229v-4.437h1.038zm5.693 2.418c.977 0 1.726.246 2.247.739.522.484.782 1.204.782 2.162v4.636h-.967v-1.166a2.304 2.304 0 01-1.009.91c-.437.218-.958.327-1.565.327-.834 0-1.498-.199-1.991-.597-.493-.398-.739-.924-.739-1.579 0-.635.227-1.147.682-1.535.465-.389 1.2-.584 2.205-.584h2.375v-.455c0-.644-.181-1.133-.541-1.464-.36-.342-.886-.512-1.578-.512-.474 0-.93.08-1.366.241-.436.152-.81.365-1.123.64l-.455-.753a3.935 3.935 0 011.365-.74 5.19 5.19 0 011.678-.27zm-.355 6.812c.568 0 1.057-.128 1.464-.384.408-.266.711-.645.911-1.138v-1.223h-2.347c-1.28 0-1.92.446-1.92 1.337 0 .436.166.782.498 1.038.332.247.796.37 1.394.37zm9.699-6.57c.692 0 1.308.156 1.849.469.55.303.976.735 1.28 1.294.303.55.455 1.18.455 1.892 0 .73-.162 1.379-.484 1.948a3.321 3.321 0 01-1.322 1.308c-.569.313-1.224.47-1.963.47-1.242 0-2.204-.437-2.887-1.309-.683-.872-1.024-2.076-1.024-3.612 0-1.602.303-2.83.91-3.683.616-.854 1.574-1.432 2.873-1.736l3.356-.767.171.924-3.157.725c-1.072.237-1.859.659-2.361 1.266-.503.597-.778 1.484-.825 2.659a3.348 3.348 0 011.266-1.351c.54-.331 1.161-.497 1.863-.497zm-.157 6.542c.522 0 .986-.119 1.394-.356.417-.247.74-.588.967-1.024.237-.436.356-.929.356-1.479s-.114-1.033-.342-1.451a2.376 2.376 0 00-.967-.967c-.407-.237-.877-.355-1.408-.355-.531 0-1.005.118-1.422.355-.407.228-.73.55-.967.967-.227.418-.341.901-.341 1.451s.114 1.043.341 1.479c.237.436.564.777.981 1.024.418.237.887.356 1.408.356zm12.447-2.674h-6.258c.057.777.356 1.408.896 1.891.541.474 1.223.711 2.048.711.465 0 .891-.08 1.28-.241a2.886 2.886 0 001.01-.74l.569.654a3.178 3.178 0 01-1.252.91 4.148 4.148 0 01-1.635.313c-.768 0-1.451-.161-2.048-.483a3.605 3.605 0 01-1.38-1.365c-.331-.579-.497-1.233-.497-1.963s.156-1.384.469-1.963a3.518 3.518 0 011.308-1.351 3.697 3.697 0 011.878-.483c.692 0 1.313.161 1.863.483.549.323.981.773 1.294 1.351.313.569.469 1.223.469 1.963l-.014.313zm-3.612-3.243c-.721 0-1.328.233-1.821.697-.483.455-.758 1.053-.825 1.792h5.305c-.066-.739-.346-1.337-.839-1.792-.484-.464-1.09-.697-1.82-.697zm9.715-.867a3.8 3.8 0 011.906.483 3.366 3.366 0 011.337 1.337c.322.579.483 1.237.483 1.977 0 .749-.161 1.413-.483 1.991a3.46 3.46 0 01-1.337 1.351c-.559.313-1.195.469-1.906.469a3.647 3.647 0 01-1.65-.369 3.186 3.186 0 01-1.194-1.11v4.167h-1.01v-10.239h.967v1.479a3.127 3.127 0 011.195-1.138 3.568 3.568 0 011.692-.398zm-.071 6.712c.522 0 .996-.118 1.422-.355.427-.247.759-.593.996-1.038.246-.446.37-.953.37-1.522 0-.569-.124-1.071-.37-1.508a2.567 2.567 0 00-.996-1.038 2.792 2.792 0 00-1.422-.369 2.82 2.82 0 00-1.436.369 2.704 2.704 0 00-.996 1.038c-.237.437-.355.939-.355 1.508 0 .569.118 1.076.355 1.522.247.445.579.791.996 1.038.426.237.905.355 1.436.355zm5.967-6.655h1.009v5.944l4.992-5.944h.896v7.48h-1.01v-5.944l-4.977 5.944h-.91v-7.48zm15.053.896h-2.83v6.584h-1.01v-6.584h-2.83v-.896h6.67v.896zm7.655 3.157h-6.258c.057.777.356 1.408.896 1.891.54.474 1.223.711 2.048.711.465 0 .891-.08 1.28-.241a2.886 2.886 0 001.01-.74l.568.654a3.175 3.175 0 01-1.251.91 4.149 4.149 0 01-1.636.313c-.767 0-1.45-.161-2.047-.483a3.605 3.605 0 01-1.38-1.365c-.332-.579-.498-1.233-.498-1.963s.157-1.384.47-1.963a3.518 3.518 0 011.308-1.351 3.693 3.693 0 011.877-.483c.692 0 1.313.161 1.863.483.55.323.982.773 1.294 1.351.313.569.47 1.223.47 1.963l-.014.313zm-3.613-3.243c-.72 0-1.327.233-1.82.697-.484.455-.759 1.053-.825 1.792h5.305c-.067-.739-.346-1.337-.839-1.792-.484-.464-1.091-.697-1.821-.697zm12.3 3.342h-1.706v3.328h-1.01v-7.48h1.01v3.285h1.721l2.63-3.285h1.096l-2.944 3.626 3.157 3.854h-1.195l-2.759-3.328zm8.37 3.399c-.721 0-1.37-.161-1.949-.483a3.636 3.636 0 01-1.365-1.365c-.332-.579-.498-1.233-.498-1.963s.166-1.384.498-1.963a3.537 3.537 0 011.365-1.351c.579-.322 1.228-.483 1.949-.483.72 0 1.37.161 1.948.483a3.435 3.435 0 011.351 1.351c.332.579.498 1.233.498 1.963s-.166 1.384-.498 1.963a3.53 3.53 0 01-1.351 1.365c-.578.322-1.228.483-1.948.483zm0-.896c.531 0 1.005-.118 1.422-.355.426-.247.758-.593.995-1.038.237-.446.356-.953.356-1.522 0-.569-.119-1.076-.356-1.522a2.475 2.475 0 00-.995-1.024 2.745 2.745 0 00-1.422-.369c-.531 0-1.01.123-1.437.369a2.589 2.589 0 00-.995 1.024c-.237.446-.356.953-.356 1.522 0 .569.119 1.076.356 1.522.246.445.578.791.995 1.038a2.91 2.91 0 001.437.355zm13.209-.056v2.687h-.953v-1.806h-6.698v1.806h-.953v-2.687h.426c.503-.029.844-.399 1.024-1.11.181-.711.304-1.706.37-2.986l.1-2.503h5.518v6.599h1.166zm-5.859-4.039c-.048 1.061-.138 1.938-.271 2.631-.132.682-.369 1.152-.711 1.408h4.665v-5.703h-3.598l-.085 1.664zm7.827-2.56h1.009v5.944l4.992-5.944h.896v7.48h-1.01v-5.944l-4.977 5.944h-.91v-7.48zm13.645-.057a3.8 3.8 0 011.906.483 3.363 3.363 0 011.336 1.337c.323.579.484 1.237.484 1.977 0 .749-.161 1.413-.484 1.991a3.457 3.457 0 01-1.336 1.351c-.56.313-1.195.469-1.906.469a3.644 3.644 0 01-1.65-.369 3.178 3.178 0 01-1.194-1.11v4.167h-1.01v-10.239h.967v1.479a3.12 3.12 0 011.195-1.138 3.568 3.568 0 011.692-.398zm-.071 6.712a2.88 2.88 0 001.422-.355c.427-.247.758-.593.995-1.038.247-.446.37-.953.37-1.522 0-.569-.123-1.071-.37-1.508a2.565 2.565 0 00-.995-1.038 2.797 2.797 0 00-1.422-.369c-.531 0-1.01.123-1.437.369a2.694 2.694 0 00-.995 1.038c-.237.437-.356.939-.356 1.508 0 .569.119 1.076.356 1.522.246.445.578.791.995 1.038a2.91 2.91 0 001.437.355zm9.053.896c-.721 0-1.371-.161-1.949-.483a3.636 3.636 0 01-1.365-1.365c-.332-.579-.498-1.233-.498-1.963s.166-1.384.498-1.963a3.537 3.537 0 011.365-1.351c.578-.322 1.228-.483 1.949-.483.72 0 1.37.161 1.948.483a3.435 3.435 0 011.351 1.351c.332.579.498 1.233.498 1.963s-.166 1.384-.498 1.963a3.53 3.53 0 01-1.351 1.365c-.578.322-1.228.483-1.948.483zm0-.896c.53 0 1.004-.118 1.422-.355.426-.247.758-.593.995-1.038.237-.446.356-.953.356-1.522 0-.569-.119-1.076-.356-1.522a2.475 2.475 0 00-.995-1.024 2.75 2.75 0 00-1.422-.369c-.531 0-1.01.123-1.437.369a2.589 2.589 0 00-.995 1.024c-.237.446-.356.953-.356 1.522 0 .569.119 1.076.356 1.522.246.445.578.791.995 1.038a2.91 2.91 0 001.437.355zm10.719-3.043c1.014.237 1.522.849 1.522 1.835 0 .654-.242 1.156-.726 1.507-.483.351-1.204.526-2.161.526h-3.399v-7.48h3.299c.853 0 1.522.166 2.005.497.484.332.726.806.726 1.423 0 .407-.114.758-.342 1.052-.218.284-.526.498-.924.64zm-3.783-.284h2.247c.578 0 1.019-.109 1.323-.328.312-.218.469-.535.469-.952 0-.418-.157-.73-.469-.939-.304-.209-.745-.313-1.323-.313h-2.247v2.532zm2.375 3.356c.645 0 1.128-.104 1.451-.313.322-.209.483-.536.483-.981 0-.446-.147-.773-.441-.982-.294-.218-.758-.327-1.393-.327h-2.475v2.603h2.375zm8.012-2.532h-1.706v3.328h-1.01v-7.48h1.01v3.285h1.721l2.631-3.285h1.095l-2.944 3.626 3.157 3.854h-1.195l-2.759-3.328zm11.474-4.152l-3.74 8.376c-.304.702-.654 1.2-1.053 1.493-.398.294-.877.441-1.436.441-.36 0-.697-.057-1.01-.17a2.19 2.19 0 01-.81-.512l.469-.754c.379.379.834.569 1.365.569.342 0 .631-.095.868-.285.246-.189.474-.512.682-.967l.328-.725-3.343-7.466h1.053l2.816 6.357 2.816-6.357h.995zm5.295 0h1.01v5.944l4.992-5.944h.896v7.48h-1.01v-5.944l-4.978 5.944h-.91v-7.48zm15.907 0v7.48h-1.01v-6.584h-3.584l-.099 1.848c-.076 1.555-.256 2.75-.541 3.584-.284.835-.791 1.252-1.521 1.252-.2 0-.441-.038-.726-.114l.071-.867c.171.037.29.056.356.056.389 0 .683-.18.882-.54.199-.36.331-.806.398-1.337.066-.531.123-1.232.17-2.105l.128-2.673h5.476zm2.87 0h1.01v5.944l4.992-5.944h.896v7.48h-1.01v-5.944l-4.978 5.944h-.91v-7.48zm-178.325 23h1.01v3.313h4.707v-3.313h1.01v7.48h-1.01v-3.299h-4.707v3.299h-1.01v-7.48zm12.171-.057c.976 0 1.725.246 2.247.739.521.484.782 1.204.782 2.162v4.636h-.967v-1.166a2.307 2.307 0 01-1.01.91c-.436.218-.957.327-1.564.327-.834 0-1.498-.199-1.991-.597-.493-.398-.74-.924-.74-1.579 0-.635.228-1.147.683-1.535.465-.389 1.199-.584 2.204-.584h2.375v-.455c0-.644-.18-1.133-.54-1.464-.36-.342-.887-.512-1.579-.512-.474 0-.929.08-1.365.241a3.339 3.339 0 00-1.123.64l-.456-.753c.38-.323.835-.569 1.366-.74a5.19 5.19 0 011.678-.27zm-.356 6.812c.569 0 1.057-.128 1.465-.384.408-.266.711-.645.91-1.138v-1.223h-2.346c-1.28 0-1.92.446-1.92 1.337 0 .436.166.782.498 1.038.331.247.796.37 1.393.37zm9.561-3.171c.531.123.939.336 1.223.64.294.303.441.673.441 1.109 0 .436-.152.825-.455 1.166-.294.341-.697.607-1.209.796a5.046 5.046 0 01-1.692.271 5.66 5.66 0 01-1.593-.228 4.19 4.19 0 01-1.365-.697l.341-.754c.341.256.739.456 1.195.598.455.142.914.213 1.379.213.692 0 1.256-.128 1.692-.384.446-.265.669-.621.669-1.067 0-.398-.18-.706-.541-.924-.36-.227-.853-.341-1.479-.341h-1.28v-.74h1.223c.56 0 1.01-.104 1.351-.313.342-.218.512-.507.512-.867 0-.398-.194-.711-.583-.939-.379-.227-.877-.341-1.493-.341-.806 0-1.602.204-2.389.611l-.285-.782a5.937 5.937 0 012.774-.697c.569 0 1.08.086 1.536.256.464.162.824.394 1.08.697.266.304.399.654.399 1.053 0 .379-.133.715-.399 1.009-.256.294-.606.512-1.052.655zm8.72.028c1.015.237 1.522.849 1.522 1.835 0 .654-.242 1.156-.725 1.507-.484.351-1.204.526-2.162.526h-3.399v-7.48h3.3c.853 0 1.521.166 2.005.497.483.332.725.806.725 1.423 0 .407-.114.758-.341 1.052-.218.284-.526.498-.925.64zm-3.783-.284h2.247c.579 0 1.02-.109 1.323-.328.313-.218.469-.535.469-.952 0-.418-.156-.73-.469-.939-.303-.209-.744-.313-1.323-.313h-2.247v2.532zm2.375 3.356c.645 0 1.129-.104 1.451-.313.322-.209.484-.536.484-.981 0-.446-.147-.773-.441-.982-.294-.218-.759-.327-1.394-.327h-2.475v2.603h2.375zm7.871-6.741c.976 0 1.725.246 2.247.739.521.484.782 1.204.782 2.162v4.636h-.967v-1.166a2.307 2.307 0 01-1.01.91c-.436.218-.958.327-1.564.327-.835 0-1.498-.199-1.991-.597-.493-.398-.74-.924-.74-1.579 0-.635.228-1.147.683-1.535.464-.389 1.199-.584 2.204-.584h2.375v-.455c0-.644-.18-1.133-.54-1.464-.361-.342-.887-.512-1.579-.512-.474 0-.929.08-1.365.241a3.354 3.354 0 00-1.124.64l-.455-.753a3.94 3.94 0 011.366-.74c.53-.18 1.09-.27 1.678-.27zm-.356 6.812c.569 0 1.057-.128 1.465-.384.408-.266.711-.645.91-1.138v-1.223h-2.346c-1.28 0-1.92.446-1.92 1.337 0 .436.166.782.497 1.038.332.247.797.37 1.394.37zm6.073-6.755h1.01v3.313h4.707v-3.313h1.01v7.48h-1.01v-3.299h-4.707v3.299h-1.01v-7.48zm9.597 0h1.009v5.944l4.992-5.944h.896v7.48h-1.01v-5.944l-4.977 5.944h-.91v-7.48zm16.333 4.053h-6.258c.057.777.356 1.408.896 1.891.541.474 1.223.711 2.048.711.465 0 .891-.08 1.28-.241a2.886 2.886 0 001.01-.74l.569.654a3.178 3.178 0 01-1.252.91 4.148 4.148 0 01-1.635.313c-.768 0-1.451-.161-2.048-.483a3.605 3.605 0 01-1.38-1.365c-.332-.579-.497-1.233-.497-1.963s.156-1.384.469-1.963a3.518 3.518 0 011.308-1.351 3.697 3.697 0 011.878-.483c.692 0 1.313.161 1.863.483.549.323.981.773 1.294 1.351.313.569.469 1.223.469 1.963l-.014.313zm-3.612-3.243c-.721 0-1.328.233-1.821.697-.483.455-.758 1.053-.825 1.792h5.305c-.066-.739-.346-1.337-.839-1.792-.484-.464-1.09-.697-1.82-.697zm17.945-.81v7.48h-.924v-5.916l-3.029 5.006h-.455l-3.029-5.02v5.93h-.925v-7.48h1.024l3.172 5.39 3.228-5.39h.938zm5.96 7.551c-.721 0-1.37-.161-1.948-.483a3.631 3.631 0 01-1.366-1.365c-.332-.579-.498-1.233-.498-1.963s.166-1.384.498-1.963a3.532 3.532 0 011.366-1.351c.578-.322 1.227-.483 1.948-.483.72 0 1.37.161 1.948.483a3.429 3.429 0 011.351 1.351c.332.579.498 1.233.498 1.963s-.166 1.384-.498 1.963a3.523 3.523 0 01-1.351 1.365c-.578.322-1.228.483-1.948.483zm0-.896c.531 0 1.005-.118 1.422-.355.427-.247.759-.593.996-1.038.237-.446.355-.953.355-1.522 0-.569-.118-1.076-.355-1.522a2.471 2.471 0 00-.996-1.024 2.745 2.745 0 00-1.422-.369c-.531 0-1.01.123-1.437.369a2.589 2.589 0 00-.995 1.024c-.237.446-.356.953-.356 1.522 0 .569.119 1.076.356 1.522.246.445.578.791.995 1.038a2.91 2.91 0 001.437.355zm5.955-6.655h1.01v3.313h4.707v-3.313h1.01v7.48h-1.01v-3.299h-4.707v3.299h-1.01v-7.48zm16.139 4.053h-6.258c.057.777.356 1.408.896 1.891.541.474 1.223.711 2.048.711.465 0 .891-.08 1.28-.241a2.886 2.886 0 001.01-.74l.569.654a3.178 3.178 0 01-1.252.91 4.148 4.148 0 01-1.635.313c-.768 0-1.451-.161-2.048-.483a3.605 3.605 0 01-1.38-1.365c-.332-.579-.497-1.233-.497-1.963s.156-1.384.469-1.963a3.518 3.518 0 011.308-1.351 3.696 3.696 0 011.877-.483c.693 0 1.314.161 1.863.483.55.323.982.773 1.295 1.351.313.569.469 1.223.469 1.963l-.014.313zm-3.613-3.243c-.72 0-1.327.233-1.82.697-.483.455-.758 1.053-.825 1.792h5.305c-.066-.739-.346-1.337-.839-1.792-.484-.464-1.09-.697-1.821-.697zm10.791.086h-2.83v6.584h-1.01v-6.584h-2.83v-.896h6.67v.896zm4.603 1.749c.938.009 1.654.218 2.147.626.493.407.74.995.74 1.763 0 .797-.266 1.408-.797 1.835-.531.426-1.289.635-2.275.625l-2.958-.014v-7.48h1.009v2.616l2.134.029zm4.138-2.645h1.01v7.48h-1.01v-7.48zm-4.38 6.727c.692.009 1.213-.128 1.564-.413.361-.294.541-.72.541-1.28 0-.55-.176-.957-.527-1.223-.35-.265-.877-.403-1.578-.412l-1.892-.029v3.328l1.892.029zm8.35-.726a.71.71 0 01.541.228.732.732 0 01.213.54c0 .114-.019.237-.057.37a3.023 3.023 0 01-.142.455l-.597 1.963h-.683l.483-2.063a.72.72 0 01-.369-.256.783.783 0 01-.143-.469c0-.218.072-.398.214-.54a.707.707 0 01.54-.228zm12.297-6.001v7.48h-1.01v-3.114c-.863.379-1.711.569-2.546.569-.9 0-1.602-.204-2.105-.612-.502-.417-.753-1.038-.753-1.863v-2.46h1.009v2.403c0 .56.181.986.541 1.28.36.285.858.427 1.493.427.702 0 1.489-.185 2.361-.555v-3.555h1.01zm8.129.896h-2.83v6.584h-1.01v-6.584h-2.83v-.896h6.67v.896zm4.199 6.655c-.721 0-1.37-.161-1.948-.483a3.631 3.631 0 01-1.366-1.365c-.332-.579-.497-1.233-.497-1.963s.165-1.384.497-1.963a3.532 3.532 0 011.366-1.351c.578-.322 1.227-.483 1.948-.483.72 0 1.37.161 1.948.483a3.429 3.429 0 011.351 1.351c.332.579.498 1.233.498 1.963s-.166 1.384-.498 1.963a3.523 3.523 0 01-1.351 1.365c-.578.322-1.228.483-1.948.483zm0-.896c.531 0 1.005-.118 1.422-.355.427-.247.759-.593.996-1.038.237-.446.355-.953.355-1.522 0-.569-.118-1.076-.355-1.522a2.471 2.471 0 00-.996-1.024 2.745 2.745 0 00-1.422-.369 2.82 2.82 0 00-1.436.369 2.591 2.591 0 00-.996 1.024c-.237.446-.355.953-.355 1.522 0 .569.118 1.076.355 1.522.247.445.578.791.996 1.038.426.237.905.355 1.436.355zm9.582-6.47c.692 0 1.308.156 1.848.469.55.303.977.735 1.28 1.294.304.55.455 1.18.455 1.892 0 .73-.161 1.379-.483 1.948a3.317 3.317 0 01-1.323 1.308c-.569.313-1.223.47-1.962.47-1.242 0-2.205-.437-2.887-1.309-.683-.872-1.024-2.076-1.024-3.612 0-1.602.303-2.83.91-3.683.616-.854 1.574-1.432 2.873-1.736l3.356-.767.171.924-3.158.725c-1.071.237-1.858.659-2.36 1.266-.503.597-.778 1.484-.825 2.659a3.348 3.348 0 011.266-1.351c.54-.331 1.161-.497 1.863-.497zm-.157 6.542c.522 0 .986-.119 1.394-.356.417-.247.739-.588.967-1.024.237-.436.355-.929.355-1.479s-.113-1.033-.341-1.451a2.376 2.376 0 00-.967-.967c-.408-.237-.877-.355-1.408-.355-.531 0-1.005.118-1.422.355-.408.228-.73.55-.967.967-.228.418-.341.901-.341 1.451s.113 1.043.341 1.479c.237.436.564.777.981 1.024a2.8 2.8 0 001.408.356zm9.048-4.082c.938.009 1.654.218 2.147.626.493.407.74.995.74 1.763 0 .797-.266 1.408-.797 1.835-.531.426-1.289.635-2.275.625l-2.958-.014v-7.48h1.009v2.616l2.134.029zm4.138-2.645h1.01v7.48h-1.01v-7.48zm-4.38 6.727c.692.009 1.213-.128 1.564-.413.361-.294.541-.72.541-1.28 0-.55-.176-.957-.527-1.223-.35-.265-.877-.403-1.578-.412l-1.892-.029v3.328l1.892.029zm18.344-6.727l-3.74 8.376c-.304.702-.655 1.2-1.053 1.493-.398.294-.877.441-1.436.441-.36 0-.697-.057-1.01-.17a2.19 2.19 0 01-.81-.512l.469-.754c.379.379.834.569 1.365.569.341 0 .631-.095.868-.285.246-.189.474-.512.682-.967l.327-.725-3.342-7.466h1.053l2.816 6.357 2.815-6.357h.996zm6.337 3.612c1.015.237 1.522.849 1.522 1.835 0 .654-.242 1.156-.725 1.507-.484.351-1.204.526-2.162.526h-3.399v-7.48h3.299c.854 0 1.522.166 2.006.497.483.332.725.806.725 1.423 0 .407-.114.758-.341 1.052-.218.284-.526.498-.925.64zm-3.783-.284h2.247c.579 0 1.02-.109 1.323-.328.313-.218.469-.535.469-.952 0-.418-.156-.73-.469-.939-.303-.209-.744-.313-1.323-.313h-2.247v2.532zm2.375 3.356c.645 0 1.129-.104 1.451-.313.322-.209.484-.536.484-.981 0-.446-.147-.773-.441-.982-.294-.218-.759-.327-1.394-.327h-2.475v2.603h2.375zm5.296-6.684h1.01v5.944l4.992-5.944h.896v7.48h-1.01v-5.944l-4.977 5.944h-.911v-7.48zm17.087 6.599v2.687h-.952v-1.806h-6.699v1.806h-.953v-2.687h.427c.502-.029.844-.399 1.024-1.11.18-.711.303-1.706.37-2.986l.099-2.503h5.518v6.599h1.166zm-5.859-4.039c-.047 1.061-.137 1.938-.27 2.631-.133.682-.37 1.152-.711 1.408h4.664v-5.703h-3.598l-.085 1.664zm14.369 1.493h-6.257c.056.777.355 1.408.896 1.891.54.474 1.223.711 2.047.711.465 0 .892-.08 1.28-.241a2.877 2.877 0 001.01-.74l.569.654a3.178 3.178 0 01-1.252.91 4.148 4.148 0 01-1.635.313c-.768 0-1.451-.161-2.048-.483a3.595 3.595 0 01-1.379-1.365c-.332-.579-.498-1.233-.498-1.963s.156-1.384.469-1.963a3.528 3.528 0 011.309-1.351 3.693 3.693 0 011.877-.483c.692 0 1.313.161 1.863.483.55.323.981.773 1.294 1.351.313.569.469 1.223.469 1.963l-.014.313zm-3.612-3.243c-.721 0-1.328.233-1.821.697-.483.455-.758 1.053-.824 1.792h5.304c-.066-.739-.346-1.337-.839-1.792-.483-.464-1.09-.697-1.82-.697zm10.79.086h-2.83v6.584h-1.01v-6.584h-2.83v-.896h6.67v.896zm4.674 1.749c.939.009 1.65.218 2.133.626.493.407.74.995.74 1.763 0 .797-.266 1.408-.797 1.835-.521.426-1.279.635-2.275.625l-3.015-.014v-7.48h1.01v2.616l2.204.029zm-.256 4.082c.692.009 1.214-.128 1.564-.413.361-.294.541-.72.541-1.28 0-.55-.176-.957-.526-1.223-.351-.265-.877-.403-1.579-.412l-1.948-.029v3.328l1.948.029zm-232.558 20.326h-6.258c.057.777.356 1.408.896 1.891.54.474 1.224.711 2.048.711.465 0 .891-.08 1.28-.241a2.878 2.878 0 001.01-.74l.569.654a3.18 3.18 0 01-1.252.91 4.149 4.149 0 01-1.635.313c-.768 0-1.45-.161-2.048-.483a3.603 3.603 0 01-1.38-1.365c-.331-.579-.497-1.233-.497-1.963s.156-1.384.469-1.963a3.523 3.523 0 011.308-1.351 3.695 3.695 0 011.878-.483c.692 0 1.313.161 1.863.483.55.323.981.773 1.294 1.351.313.569.469 1.223.469 1.963l-.014.313zm-3.612-3.243c-.72 0-1.328.233-1.82.697-.484.455-.76 1.053-.826 1.792h5.305c-.066-.739-.346-1.337-.839-1.792-.483-.464-1.09-.697-1.82-.697zm12.403 3.243h-6.257c.057.777.355 1.408.896 1.891.54.474 1.223.711 2.048.711.464 0 .891-.08 1.28-.241a2.882 2.882 0 001.009-.74l.569.654a3.182 3.182 0 01-1.251.91 4.153 4.153 0 01-1.636.313c-.768 0-1.45-.161-2.048-.483a3.602 3.602 0 01-1.379-1.365c-.332-.579-.498-1.233-.498-1.963s.156-1.384.469-1.963a3.528 3.528 0 011.309-1.351 3.693 3.693 0 011.877-.483c.692 0 1.313.161 1.863.483.55.323.981.773 1.294 1.351.313.569.469 1.223.469 1.963l-.014.313zm-3.612-3.243c-.721 0-1.327.233-1.82.697-.484.455-.759 1.053-.825 1.792h5.304c-.066-.739-.346-1.337-.839-1.792-.483-.464-1.09-.697-1.82-.697zm-1.266-2.304a.629.629 0 01-.441-.17.6.6 0 01-.17-.441.606.606 0 011.038-.427.558.558 0 01.185.427.602.602 0 01-.185.441.578.578 0 01-.427.17zm2.532 0a.625.625 0 01-.441-.17.626.626 0 01-.171-.441c0-.171.062-.313.185-.427a.586.586 0 01.853 0 .555.555 0 01.185.427c0 .18-.061.327-.185.441a.576.576 0 01-.426.17zm13.082 5.106c1.014.237 1.522.849 1.522 1.835 0 .654-.242 1.156-.726 1.507-.483.351-1.204.526-2.161.526h-3.399v-7.48h3.299c.853 0 1.522.166 2.005.497.484.332.726.806.726 1.423 0 .407-.114.758-.342 1.052-.218.284-.526.498-.924.64zm-3.783-.284h2.247c.578 0 1.019-.109 1.322-.328.313-.218.47-.535.47-.952 0-.418-.157-.73-.47-.939-.303-.209-.744-.313-1.322-.313h-2.247v2.532zm2.375 3.356c.645 0 1.128-.104 1.45-.313.323-.209.484-.536.484-.981 0-.446-.147-.773-.441-.982-.294-.218-.758-.327-1.394-.327h-2.474v2.603h2.375zm12.147.867c-.74 0-1.403-.161-1.991-.483a3.532 3.532 0 01-1.366-1.351 3.96 3.96 0 01-.497-1.977c0-.73.166-1.384.497-1.963a3.532 3.532 0 011.366-1.351c.588-.322 1.251-.483 1.991-.483.644 0 1.218.128 1.721.384a2.8 2.8 0 011.208 1.095l-.753.512a2.308 2.308 0 00-.939-.825 2.722 2.722 0 00-1.237-.284c-.541 0-1.029.123-1.465.369a2.566 2.566 0 00-1.01 1.024c-.237.446-.355.953-.355 1.522 0 .578.118 1.09.355 1.536.247.436.583.777 1.01 1.024.436.237.924.355 1.465.355.445 0 .858-.09 1.237-.27.379-.18.692-.455.939-.825l.753.512a2.898 2.898 0 01-1.208 1.11 3.924 3.924 0 01-1.721.369zm11.597-7.551v7.48h-1.01v-6.584h-4.693v6.584h-1.009v-7.48h6.712zm2.87 0h1.01v5.944l4.992-5.944h.896v7.48h-1.01v-5.944l-4.977 5.944h-.911v-7.48zm12.92 7.551c-.739 0-1.403-.161-1.991-.483a3.537 3.537 0 01-1.365-1.351 3.95 3.95 0 01-.498-1.977c0-.73.166-1.384.498-1.963a3.537 3.537 0 011.365-1.351c.588-.322 1.252-.483 1.991-.483.645 0 1.219.128 1.721.384.512.246.915.611 1.209 1.095l-.754.512a2.3 2.3 0 00-.938-.825 2.727 2.727 0 00-1.238-.284c-.54 0-1.028.123-1.464.369a2.56 2.56 0 00-1.01 1.024c-.237.446-.356.953-.356 1.522 0 .578.119 1.09.356 1.536.246.436.583.777 1.01 1.024.436.237.924.355 1.464.355.446 0 .858-.09 1.238-.27a2.3 2.3 0 00.938-.825l.754.512a2.906 2.906 0 01-1.209 1.11 3.921 3.921 0 01-1.721.369zm7.602-3.399h-1.707v3.328h-1.01v-7.48h1.01v3.285h1.721l2.631-3.285h1.095l-2.944 3.626 3.157 3.854h-1.195l-2.758-3.328zm11.825-.099h-6.258c.057.777.356 1.408.896 1.891.541.474 1.223.711 2.048.711.465 0 .891-.08 1.28-.241a2.886 2.886 0 001.01-.74l.569.654a3.178 3.178 0 01-1.252.91 4.148 4.148 0 01-1.635.313c-.768 0-1.451-.161-2.048-.483a3.605 3.605 0 01-1.38-1.365c-.332-.579-.497-1.233-.497-1.963s.156-1.384.469-1.963a3.518 3.518 0 011.308-1.351 3.696 3.696 0 011.877-.483c.693 0 1.314.161 1.863.483.55.323.982.773 1.295 1.351.313.569.469 1.223.469 1.963l-.014.313zm-3.613-3.243c-.72 0-1.327.233-1.82.697-.483.455-.758 1.053-.825 1.792h5.305c-.066-.739-.346-1.337-.839-1.792-.484-.464-1.09-.697-1.821-.697zm5.947 5.191a.71.71 0 01.541.228.732.732 0 01.213.54c0 .114-.019.237-.057.37a3.023 3.023 0 01-.142.455l-.597 1.963h-.683l.484-2.063a.723.723 0 01-.37-.256.783.783 0 01-.142-.469c0-.218.071-.398.213-.54a.707.707 0 01.54-.228zm9.737 1.55c-.721 0-1.37-.161-1.948-.483a3.631 3.631 0 01-1.366-1.365c-.331-.579-.497-1.233-.497-1.963s.166-1.384.497-1.963a3.532 3.532 0 011.366-1.351c.578-.322 1.227-.483 1.948-.483.721 0 1.37.161 1.948.483a3.429 3.429 0 011.351 1.351c.332.579.498 1.233.498 1.963s-.166 1.384-.498 1.963a3.523 3.523 0 01-1.351 1.365c-.578.322-1.227.483-1.948.483zm0-.896c.531 0 1.005-.118 1.422-.355.427-.247.759-.593.996-1.038.237-.446.355-.953.355-1.522 0-.569-.118-1.076-.355-1.522a2.471 2.471 0 00-.996-1.024 2.745 2.745 0 00-1.422-.369 2.82 2.82 0 00-1.436.369 2.591 2.591 0 00-.996 1.024c-.237.446-.355.953-.355 1.522 0 .569.118 1.076.355 1.522.247.445.578.791.996 1.038.426.237.905.355 1.436.355zm10.939-5.759h-2.83v6.584h-1.009v-6.584h-2.831v-.896h6.67v.896zm9.823-.896v7.48h-.925v-5.916l-3.029 5.006h-.455l-3.029-5.02v5.93h-.925v-7.48h1.024l3.172 5.39 3.228-5.39h.939zm9.415 4.053h-6.258c.057.777.356 1.408.896 1.891.541.474 1.223.711 2.048.711.465 0 .891-.08 1.28-.241a2.886 2.886 0 001.01-.74l.569.654a3.178 3.178 0 01-1.252.91 4.148 4.148 0 01-1.635.313c-.768 0-1.451-.161-2.048-.483a3.605 3.605 0 01-1.38-1.365c-.331-.579-.497-1.233-.497-1.963s.156-1.384.469-1.963a3.518 3.518 0 011.308-1.351 3.697 3.697 0 011.878-.483c.692 0 1.313.161 1.863.483.549.323.981.773 1.294 1.351.313.569.469 1.223.469 1.963l-.014.313zm-3.612-3.243c-.721 0-1.328.233-1.821.697-.483.455-.758 1.053-.825 1.792h5.305c-.066-.739-.346-1.337-.839-1.792-.484-.464-1.09-.697-1.82-.697zm10.79.086h-2.83v6.584h-1.01v-6.584h-2.83v-.896h6.67v.896zm4.674 1.749c.938.009 1.65.218 2.133.626.493.407.74.995.74 1.763 0 .797-.266 1.408-.797 1.835-.521.426-1.28.635-2.275.625l-3.015-.014v-7.48h1.009v2.616l2.205.029zm-.256 4.082c.692.009 1.213-.128 1.564-.413.36-.294.541-.72.541-1.28 0-.55-.176-.957-.527-1.223-.35-.265-.877-.403-1.578-.412l-1.949-.029v3.328l1.949.029zm9.567-5.831h-2.83v6.584h-1.01v-6.584h-2.83v-.896h6.67v.896zm7.655 3.157h-6.258c.057.777.356 1.408.896 1.891.541.474 1.223.711 2.048.711.465 0 .892-.08 1.28-.241a2.877 2.877 0 001.01-.74l.569.654a3.178 3.178 0 01-1.252.91 4.148 4.148 0 01-1.635.313c-.768 0-1.451-.161-2.048-.483a3.605 3.605 0 01-1.38-1.365c-.331-.579-.497-1.233-.497-1.963s.156-1.384.469-1.963a3.526 3.526 0 011.308-1.351 3.7 3.7 0 011.878-.483c.692 0 1.313.161 1.863.483.55.323.981.773 1.294 1.351.313.569.469 1.223.469 1.963l-.014.313zm-3.612-3.243c-.721 0-1.328.233-1.821.697-.483.455-.758 1.053-.825 1.792h5.305c-.066-.739-.346-1.337-.839-1.792-.483-.464-1.09-.697-1.82-.697zm5.947 5.191c.218 0 .398.076.54.228a.732.732 0 01.213.54c0 .114-.019.237-.057.37a2.911 2.911 0 01-.142.455l-.597 1.963h-.683l.484-2.063a.723.723 0 01-.37-.256.783.783 0 01-.142-.469c0-.218.071-.398.213-.54a.71.71 0 01.541-.228zm12.296-6.001v7.48h-1.01v-3.114c-.862.379-1.711.569-2.545.569-.901 0-1.603-.204-2.105-.612-.503-.417-.754-1.038-.754-1.863v-2.46h1.01v2.403c0 .56.18.986.54 1.28.361.285.858.427 1.494.427.701 0 1.488-.185 2.36-.555v-3.555h1.01zm8.13.896h-2.831v6.584h-1.009v-6.584h-2.83v-.896h6.67v.896zm4.198 6.655c-.72 0-1.37-.161-1.948-.483a3.636 3.636 0 01-1.365-1.365c-.332-.579-.498-1.233-.498-1.963s.166-1.384.498-1.963a3.537 3.537 0 011.365-1.351c.578-.322 1.228-.483 1.948-.483.721 0 1.37.161 1.949.483a3.442 3.442 0 011.351 1.351c.332.579.498 1.233.498 1.963s-.166 1.384-.498 1.963a3.537 3.537 0 01-1.351 1.365c-.579.322-1.228.483-1.949.483zm0-.896c.531 0 1.005-.118 1.423-.355.426-.247.758-.593.995-1.038.237-.446.356-.953.356-1.522 0-.569-.119-1.076-.356-1.522a2.475 2.475 0 00-.995-1.024 2.752 2.752 0 00-1.423-.369c-.531 0-1.009.123-1.436.369a2.598 2.598 0 00-.996 1.024c-.237.446-.355.953-.355 1.522 0 .569.118 1.076.355 1.522.247.445.579.791.996 1.038.427.237.905.355 1.436.355zm9.582-6.47c.692 0 1.308.156 1.849.469.55.303.976.735 1.28 1.294.303.55.455 1.18.455 1.892 0 .73-.161 1.379-.484 1.948a3.315 3.315 0 01-1.322 1.308c-.569.313-1.223.47-1.963.47-1.242 0-2.204-.437-2.887-1.309-.682-.872-1.024-2.076-1.024-3.612 0-1.602.304-2.83.91-3.683.617-.854 1.574-1.432 2.873-1.736l3.356-.767.171.924-3.157.725c-1.071.237-1.858.659-2.361 1.266-.502.597-.777 1.484-.825 2.659a3.362 3.362 0 011.266-1.351c.54-.331 1.161-.497 1.863-.497zm-.156 6.542c.521 0 .986-.119 1.393-.356.418-.247.74-.588.967-1.024.237-.436.356-.929.356-1.479s-.114-1.033-.341-1.451a2.382 2.382 0 00-.967-.967c-.408-.237-.877-.355-1.408-.355-.531 0-1.005.118-1.423.355-.407.228-.73.55-.967.967-.227.418-.341.901-.341 1.451s.114 1.043.341 1.479c.237.436.565.777.982 1.024.417.237.886.356 1.408.356zm9.047-4.082c.939.009 1.655.218 2.148.626.493.407.739.995.739 1.763 0 .797-.265 1.408-.796 1.835-.531.426-1.29.635-2.276.625l-2.958-.014v-7.48h1.01v2.616l2.133.029zm4.139-2.645h1.009v7.48h-1.009v-7.48zm-4.381 6.727c.692.009 1.214-.128 1.565-.413.36-.294.54-.72.54-1.28 0-.55-.175-.957-.526-1.223-.351-.265-.877-.403-1.579-.412l-1.891-.029v3.328l1.891.029zM102.373 252.15v2.687h-.953v-1.806h-6.698v1.806h-.953v-2.687h.426c.503-.029.844-.399 1.024-1.11.18-.711.304-1.706.37-2.986l.1-2.503h5.518v6.599h1.166zm-5.86-4.039c-.047 1.061-.137 1.938-.27 2.631-.133.682-.37 1.152-.71 1.408h4.664v-5.703h-3.598l-.086 1.664zm10.914 4.991c-.721 0-1.37-.161-1.949-.483a3.636 3.636 0 01-1.365-1.365c-.332-.579-.498-1.233-.498-1.963s.166-1.384.498-1.963a3.537 3.537 0 011.365-1.351c.579-.322 1.228-.483 1.949-.483.72 0 1.37.161 1.948.483a3.435 3.435 0 011.351 1.351c.332.579.498 1.233.498 1.963s-.166 1.384-.498 1.963a3.53 3.53 0 01-1.351 1.365c-.578.322-1.228.483-1.948.483zm0-.896a2.83 2.83 0 001.422-.355c.426-.247.758-.593.995-1.038.237-.446.356-.953.356-1.522 0-.569-.119-1.076-.356-1.522a2.475 2.475 0 00-.995-1.024 2.748 2.748 0 00-1.422-.369c-.531 0-1.01.123-1.437.369a2.589 2.589 0 00-.995 1.024c-.237.446-.356.953-.356 1.522 0 .569.119 1.076.356 1.522.246.445.578.791.995 1.038a2.91 2.91 0 001.437.355zm9.581-6.47c.692 0 1.309.156 1.849.469.55.303.977.735 1.28 1.294.303.55.455 1.18.455 1.892 0 .73-.161 1.379-.483 1.948a3.317 3.317 0 01-1.323 1.308c-.569.313-1.223.47-1.963.47-1.242 0-2.204-.437-2.887-1.309-.682-.872-1.024-2.076-1.024-3.612 0-1.602.304-2.83.911-3.683.616-.854 1.573-1.432 2.872-1.736l3.357-.767.17.924-3.157.725c-1.071.237-1.858.659-2.361 1.266-.502.597-.777 1.484-.825 2.659a3.362 3.362 0 011.266-1.351c.541-.331 1.162-.497 1.863-.497zm-.156 6.542c.521 0 .986-.119 1.394-.356.417-.247.739-.588.967-1.024.237-.436.355-.929.355-1.479s-.114-1.033-.341-1.451a2.382 2.382 0 00-.967-.967c-.408-.237-.877-.355-1.408-.355-.531 0-1.005.118-1.422.355-.408.228-.73.55-.967.967-.228.418-.342.901-.342 1.451s.114 1.043.342 1.479c.237.436.564.777.981 1.024.417.237.886.356 1.408.356zm8.437-6.784c.976 0 1.725.246 2.247.739.521.484.782 1.204.782 2.162v4.636h-.967v-1.166a2.307 2.307 0 01-1.01.91c-.436.218-.957.327-1.564.327-.835 0-1.498-.199-1.991-.597-.493-.398-.74-.924-.74-1.579 0-.635.228-1.147.683-1.535.464-.389 1.199-.584 2.204-.584h2.375v-.455c0-.644-.18-1.133-.54-1.464-.36-.342-.887-.512-1.579-.512-.474 0-.929.08-1.365.241a3.354 3.354 0 00-1.124.64l-.455-.753c.38-.323.835-.569 1.366-.74a5.19 5.19 0 011.678-.27zm-.356 6.812c.569 0 1.057-.128 1.465-.384.408-.266.711-.645.91-1.138v-1.223h-2.346c-1.28 0-1.92.446-1.92 1.337 0 .436.166.782.497 1.038.332.247.797.37 1.394.37zm10.837-3.143c1.015.237 1.522.849 1.522 1.835 0 .654-.242 1.156-.725 1.507-.484.351-1.205.526-2.162.526h-3.399v-7.48h3.299c.854 0 1.522.166 2.006.497.483.332.725.806.725 1.423 0 .407-.114.758-.341 1.052-.219.284-.527.498-.925.64zm-3.783-.284h2.247c.579 0 1.019-.109 1.323-.328.313-.218.469-.535.469-.952 0-.418-.156-.73-.469-.939-.304-.209-.744-.313-1.323-.313h-2.247v2.532zm2.375 3.356c.645 0 1.128-.104 1.451-.313.322-.209.483-.536.483-.981 0-.446-.147-.773-.441-.982-.293-.218-.758-.327-1.393-.327h-2.475v2.603h2.375zm5.296-6.684h1.01v5.944l4.992-5.944h.896v7.48h-1.01v-5.944l-4.978 5.944h-.91v-7.48zm15.054.896h-2.831v6.584h-1.009v-6.584h-2.83v-.896h6.67v.896zm4.674 1.749c.938.009 1.649.218 2.133.626.493.407.739.995.739 1.763 0 .797-.265 1.408-.796 1.835-.522.426-1.28.635-2.276.625l-3.015-.014v-7.48h1.01v2.616l2.205.029zm-.256 4.082c.692.009 1.213-.128 1.564-.413.36-.294.54-.72.54-1.28 0-.55-.175-.957-.526-1.223-.351-.265-.877-.403-1.578-.412l-1.949-.029v3.328l1.949.029zm13.541-3.115c1.015.237 1.522.849 1.522 1.835 0 .654-.242 1.156-.725 1.507-.484.351-1.204.526-2.162.526h-3.399v-7.48h3.299c.854 0 1.522.166 2.006.497.483.332.725.806.725 1.423 0 .407-.114.758-.341 1.052-.218.284-.527.498-.925.64zm-3.783-.284h2.247c.579 0 1.02-.109 1.323-.328.313-.218.469-.535.469-.952 0-.418-.156-.73-.469-.939-.303-.209-.744-.313-1.323-.313h-2.247v2.532zm2.375 3.356c.645 0 1.129-.104 1.451-.313.322-.209.483-.536.483-.981 0-.446-.147-.773-.44-.982-.294-.218-.759-.327-1.394-.327h-2.475v2.603h2.375zm15.731-6.684v7.48h-1.01v-6.584h-4.693v6.584h-1.01v-7.48h6.713zm5.956 7.551c-.72 0-1.37-.161-1.948-.483a3.636 3.636 0 01-1.365-1.365c-.332-.579-.498-1.233-.498-1.963s.166-1.384.498-1.963a3.537 3.537 0 011.365-1.351c.578-.322 1.228-.483 1.948-.483.721 0 1.37.161 1.949.483a3.442 3.442 0 011.351 1.351c.332.579.498 1.233.498 1.963s-.166 1.384-.498 1.963a3.537 3.537 0 01-1.351 1.365c-.579.322-1.228.483-1.949.483zm0-.896c.531 0 1.005-.118 1.423-.355.426-.247.758-.593.995-1.038.237-.446.356-.953.356-1.522 0-.569-.119-1.076-.356-1.522a2.475 2.475 0 00-.995-1.024 2.752 2.752 0 00-1.423-.369c-.531 0-1.009.123-1.436.369a2.589 2.589 0 00-.995 1.024c-.237.446-.356.953-.356 1.522 0 .569.119 1.076.356 1.522.246.445.578.791.995 1.038.427.237.905.355 1.436.355zm9.81-6.712a3.8 3.8 0 011.905.483 3.36 3.36 0 011.337 1.337c.323.579.484 1.237.484 1.977 0 .749-.161 1.413-.484 1.991a3.453 3.453 0 01-1.337 1.351c-.559.313-1.194.469-1.905.469a3.644 3.644 0 01-1.65-.369 3.181 3.181 0 01-1.195-1.11v4.167h-1.009v-10.239h.967v1.479a3.118 3.118 0 011.194-1.138 3.575 3.575 0 011.693-.398zm-.071 6.712a2.88 2.88 0 001.422-.355c.426-.247.758-.593.995-1.038.247-.446.37-.953.37-1.522 0-.569-.123-1.071-.37-1.508a2.571 2.571 0 00-.995-1.038 2.797 2.797 0 00-1.422-.369c-.531 0-1.01.123-1.437.369a2.694 2.694 0 00-.995 1.038c-.237.437-.356.939-.356 1.508 0 .569.119 1.076.356 1.522.246.445.578.791.995 1.038a2.91 2.91 0 001.437.355zm10.95-5.759h-2.83v6.584H209.8v-6.584h-2.831v-.896h6.67v.896zm10.144 2.83c0 1.166-.384 2.081-1.152 2.745-.768.663-1.854 1.023-3.257 1.08v2.688h-.981v-2.673c-1.394-.057-2.475-.418-3.243-1.081-.758-.673-1.137-1.593-1.137-2.759 0-1.157.379-2.062 1.137-2.717.768-.654 1.849-1.009 3.243-1.066v-3.015h.981v3.015c1.403.066 2.489.426 3.257 1.081.768.654 1.152 1.555 1.152 2.702zm-8.775 0c0 .891.285 1.588.853 2.09.579.503 1.423.787 2.532.854v-5.831c-1.1.057-1.939.336-2.517.839-.579.493-.868 1.175-.868 2.048zm4.366 2.944c1.109-.057 1.953-.337 2.532-.839.587-.503.881-1.205.881-2.105 0-.882-.294-1.569-.881-2.062-.579-.493-1.423-.768-2.532-.825v5.831zm13.086-2.617h-6.257c.057.777.355 1.408.896 1.891.54.474 1.223.711 2.048.711.464 0 .891-.08 1.279-.241a2.877 2.877 0 001.01-.74l.569.654a3.182 3.182 0 01-1.251.91 4.153 4.153 0 01-1.636.313c-.768 0-1.45-.161-2.048-.483a3.602 3.602 0 01-1.379-1.365c-.332-.579-.498-1.233-.498-1.963s.156-1.384.469-1.963a3.528 3.528 0 011.309-1.351 3.693 3.693 0 011.877-.483c.692 0 1.313.161 1.863.483.55.323.981.773 1.294 1.351.313.569.469 1.223.469 1.963l-.014.313zm-3.612-3.243c-.721 0-1.327.233-1.82.697-.484.455-.759 1.053-.825 1.792h5.304c-.066-.739-.346-1.337-.839-1.792-.483-.464-1.09-.697-1.82-.697zm11.824-.81v7.48h-1.01v-6.584h-3.584l-.099 1.848c-.076 1.555-.256 2.75-.541 3.584-.284.835-.791 1.252-1.521 1.252a2.9 2.9 0 01-.726-.114l.072-.867c.17.037.289.056.355.056.389 0 .683-.18.882-.54.199-.36.332-.806.398-1.337.066-.531.123-1.232.171-2.105l.128-2.673h5.475zm6.085 2.645c.938.009 1.649.218 2.133.626.493.407.739.995.739 1.763 0 .797-.265 1.408-.796 1.835-.522.426-1.28.635-2.276.625l-3.015-.014v-7.48h1.01v2.616l2.205.029zm-.256 4.082c.692.009 1.213-.128 1.564-.413.36-.294.54-.72.54-1.28 0-.55-.175-.957-.526-1.223-.351-.265-.877-.403-1.578-.412l-1.949-.029v3.328l1.949.029zm5.015.824a.734.734 0 01-.54-.227.78.78 0 01-.214-.555c0-.218.071-.398.214-.54a.735.735 0 01.54-.228c.209 0 .389.076.54.228a.707.707 0 01.228.54.755.755 0 01-.228.555.734.734 0 01-.54.227z" fill="#373943"/><rect x="94.431" y="284.754" width="244.137" height="42.665" rx="7.111" fill="#fff"/><path d="M310.027 311.419a6.222 6.222 0 10-6.222-6.221 6.22 6.22 0 006.222 6.221zm4.399-1.821l3.6 3.6" stroke="#3E54D8" stroke-width="1.185" stroke-linecap="round" stroke-linejoin="round"/><path d="M118.546 311.349c-.995 0-1.896-.218-2.702-.655a4.943 4.943 0 01-1.877-1.82c-.455-.777-.683-1.65-.683-2.617 0-.967.228-1.834.683-2.602a4.789 4.789 0 011.891-1.821c.806-.445 1.707-.668 2.702-.668.778 0 1.489.133 2.134.398a4.3 4.3 0 011.649 1.152l-.924.896c-.749-.787-1.683-1.18-2.802-1.18-.739 0-1.408.166-2.005.497a3.647 3.647 0 00-1.408 1.38 3.842 3.842 0 00-.498 1.948c0 .721.166 1.375.498 1.963a3.68 3.68 0 001.408 1.365c.597.332 1.266.498 2.005.498 1.11 0 2.043-.398 2.802-1.195l.924.896a4.4 4.4 0 01-1.664 1.166 5.535 5.535 0 01-2.133.399zm8.536-.029c-.749 0-1.422-.166-2.02-.498a3.662 3.662 0 01-1.407-1.365c-.332-.588-.498-1.251-.498-1.991 0-.739.166-1.398.498-1.977a3.546 3.546 0 011.407-1.365c.598-.332 1.271-.498 2.02-.498.749 0 1.417.166 2.005.498a3.456 3.456 0 011.394 1.365c.341.579.512 1.238.512 1.977 0 .74-.171 1.403-.512 1.991a3.567 3.567 0 01-1.394 1.365c-.588.332-1.256.498-2.005.498zm0-1.194a2.54 2.54 0 001.294-.328 2.4 2.4 0 00.91-.938 2.91 2.91 0 00.327-1.394c0-.521-.109-.981-.327-1.379a2.282 2.282 0 00-.91-.939 2.55 2.55 0 00-1.294-.327c-.484 0-.92.109-1.308.327-.38.218-.683.531-.911.939-.218.398-.327.858-.327 1.379 0 .522.109.986.327 1.394.228.398.531.711.911.938.388.219.824.328 1.308.328z" fill="#373943"/><path stroke="#666" stroke-width=".79" d="M134.329 297.396v17.382"/><rect x="94.431" y="284.754" width="244.137" height="42.665" rx="7.111" stroke="#D3E3FF" stroke-width="1.58"/><path d="M134.233 116.925v4.093h-1.896v-2.354h-8.485v2.354h-1.912l.015-4.093h.474c.696-.031 1.18-.542 1.454-1.532.285-1.001.458-2.429.522-4.283l.126-3.508h8.106v9.323h1.596zm-8.027-5.625c-.053 1.433-.168 2.628-.348 3.587-.179.948-.463 1.628-.853 2.038h5.61v-7.584h-4.33l-.079 1.959zm13.347 7.474c-.853 0-1.622-.184-2.307-.553a4.109 4.109 0 01-1.612-1.533c-.379-.663-.569-1.411-.569-2.243 0-.833.19-1.575.569-2.229a4.1 4.1 0 011.612-1.532c.685-.369 1.454-.553 2.307-.553.864 0 1.638.184 2.323.553a3.998 3.998 0 011.596 1.532c.389.654.584 1.396.584 2.229 0 .832-.195 1.58-.584 2.243a4.007 4.007 0 01-1.596 1.533c-.685.369-1.459.553-2.323.553zm0-1.691c.727 0 1.327-.242 1.801-.726.474-.485.711-1.122.711-1.912 0-.791-.237-1.428-.711-1.913-.474-.484-1.074-.726-1.801-.726-.727 0-1.327.242-1.802.726-.463.485-.695 1.122-.695 1.913 0 .79.232 1.427.695 1.912.475.484 1.075.726 1.802.726zm11.021-6.447c.801 0 1.507.174 2.118.522a3.552 3.552 0 011.422 1.422c.348.611.521 1.311.521 2.102 0 .811-.189 1.532-.568 2.164a3.89 3.89 0 01-1.596 1.454c-.685.348-1.465.522-2.339.522-1.464 0-2.597-.485-3.397-1.454-.801-.969-1.201-2.365-1.201-4.188 0-1.696.363-3.039 1.09-4.029.727-.99 1.838-1.643 3.334-1.959l3.919-.838.284 1.77-3.555.727c-1.022.21-1.786.569-2.291 1.074-.506.506-.801 1.217-.885 2.133.379-.453.837-.8 1.375-1.042a4.1 4.1 0 011.769-.38zm-.395 6.59c.727 0 1.312-.232 1.754-.696.453-.474.68-1.074.68-1.801 0-.727-.227-1.312-.68-1.754-.442-.443-1.027-.664-1.754-.664-.737 0-1.332.221-1.785.664-.453.442-.68 1.027-.68 1.754 0 .737.227 1.338.68 1.801.463.464 1.058.696 1.785.696zm9.405-7.095c1.243 0 2.191.3 2.844.9.664.59.996 1.486.996 2.687v4.946h-1.865v-1.028c-.242.369-.59.654-1.043.854-.442.189-.98.284-1.612.284-.632 0-1.185-.105-1.659-.316-.474-.221-.843-.521-1.106-.901a2.354 2.354 0 01-.379-1.311c0-.759.279-1.364.837-1.817.569-.464 1.459-.696 2.671-.696h2.18v-.126c0-.59-.179-1.043-.537-1.359-.347-.316-.869-.474-1.564-.474-.474 0-.943.074-1.407.221a3.442 3.442 0 00-1.153.617l-.774-1.438c.442-.338.974-.596 1.596-.775a7.101 7.101 0 011.975-.268zm-.269 7.205c.495 0 .932-.11 1.312-.332.389-.231.663-.558.821-.979v-.98h-2.038c-1.138 0-1.707.374-1.707 1.122 0 .358.143.643.427.853.284.211.68.316 1.185.316zm12.668-3.065c1.043.316 1.564.99 1.564 2.022 0 .759-.284 1.343-.853 1.754-.569.411-1.411.617-2.528.617h-4.298v-8.439h4.124c1.032 0 1.838.19 2.418.569.579.38.869.917.869 1.612 0 .432-.116.806-.348 1.122-.221.316-.537.564-.948.743zm-4.235-.522h2.07c1.022 0 1.533-.353 1.533-1.058 0-.685-.511-1.028-1.533-1.028h-2.07v2.086zm2.26 3.477c1.085 0 1.627-.353 1.627-1.059 0-.369-.126-.643-.379-.822-.253-.189-.648-.284-1.185-.284h-2.323v2.165h2.26zm9.878-4.219c1.075 0 1.896.242 2.465.726.58.485.869 1.17.869 2.055 0 .927-.316 1.643-.948 2.149-.632.505-1.522.753-2.67.742l-3.951-.015v-8.439h1.976v2.766l2.259.016zm-.458 4.219c.579.01 1.022-.111 1.327-.364.306-.253.459-.621.459-1.106 0-.474-.148-.822-.443-1.043-.295-.221-.743-.337-1.343-.348l-1.801-.015v2.86l1.801.016zm11.426-5.326h-2.955v6.764h-1.976V111.9h-2.97v-1.675h7.901v1.675zm8.963 2.592c0 .137-.011.332-.032.585h-6.621c.116.621.416 1.116.901 1.485.495.358 1.106.537 1.833.537.927 0 1.691-.305 2.291-.916l1.059 1.216a3.572 3.572 0 01-1.438 1.028c-.579.231-1.232.347-1.959.347-.927 0-1.744-.184-2.45-.553a4.062 4.062 0 01-1.643-1.533c-.379-.663-.569-1.411-.569-2.243 0-.822.184-1.56.553-2.213a4.015 4.015 0 011.565-1.548c.663-.369 1.411-.553 2.243-.553.822 0 1.554.184 2.197.553a3.732 3.732 0 011.517 1.532c.369.654.553 1.412.553 2.276zm-4.267-2.781c-.632 0-1.169.189-1.611.569-.432.368-.696.863-.79 1.485h4.787c-.084-.611-.342-1.106-.774-1.485-.432-.38-.969-.569-1.612-.569zm14.302 3.571h-1.532v3.382h-1.976v-8.439h1.976v3.414h1.58l2.496-3.414h2.118l-3.066 4.061 3.271 4.378h-2.323l-2.544-3.382zm10.938-5.151c.821 0 1.554.179 2.196.537a3.863 3.863 0 011.533 1.517c.369.653.553 1.406.553 2.26 0 .853-.184 1.611-.553 2.275a3.863 3.863 0 01-1.533 1.517c-.642.358-1.375.537-2.196.537-1.138 0-2.039-.379-2.702-1.138v4.093h-1.976v-11.504h1.881v1.107a3.057 3.057 0 011.201-.901 4.14 4.14 0 011.596-.3zm-.221 6.952c.726 0 1.322-.242 1.785-.726.474-.485.711-1.122.711-1.912 0-.791-.237-1.428-.711-1.913-.463-.484-1.059-.726-1.785-.726-.475 0-.901.11-1.28.331-.38.211-.68.517-.901.917-.221.4-.332.864-.332 1.391 0 .526.111.99.332 1.39.221.4.521.711.901.932.379.211.805.316 1.28.316zm6.469-6.858h1.975v5.563l4.662-5.563h1.801v8.439h-1.975v-5.563l-4.646 5.563h-1.817v-8.439zm19.186 0v8.439h-1.96V111.9h-4.156v6.764h-1.975v-8.439h8.091zm9.349 1.675h-2.955v6.764h-1.975V111.9h-2.971v-1.675h7.901v1.675zm4.823 6.874c-.853 0-1.622-.184-2.307-.553a4.109 4.109 0 01-1.612-1.533c-.379-.663-.569-1.411-.569-2.243 0-.833.19-1.575.569-2.229a4.1 4.1 0 011.612-1.532c.685-.369 1.454-.553 2.307-.553.864 0 1.638.184 2.323.553a3.986 3.986 0 011.596 1.532c.39.654.585 1.396.585 2.229 0 .832-.195 1.58-.585 2.243a3.995 3.995 0 01-1.596 1.533c-.685.369-1.459.553-2.323.553zm0-1.691c.727 0 1.327-.242 1.802-.726.474-.485.711-1.122.711-1.912 0-.791-.237-1.428-.711-1.913-.475-.484-1.075-.726-1.802-.726-.727 0-1.327.242-1.801.726-.464.485-.696 1.122-.696 1.913 0 .79.232 1.427.696 1.912.474.484 1.074.726 1.801.726zm12.57-2.812c1.043.316 1.565.99 1.565 2.022 0 .759-.285 1.343-.854 1.754-.569.411-1.411.617-2.528.617h-4.298v-8.439h4.124c1.033 0 1.838.19 2.418.569.579.38.869.917.869 1.612 0 .432-.116.806-.348 1.122-.221.316-.537.564-.948.743zm-4.235-.522h2.07c1.022 0 1.533-.353 1.533-1.058 0-.685-.511-1.028-1.533-1.028h-2.07v2.086zm2.26 3.477c1.085 0 1.628-.353 1.628-1.059 0-.369-.127-.643-.38-.822-.253-.189-.648-.284-1.185-.284h-2.323v2.165h2.26zm8.788-7.095c1.243 0 2.191.3 2.844.9.664.59.996 1.486.996 2.687v4.946h-1.865v-1.028c-.242.369-.59.654-1.043.854-.442.189-.979.284-1.612.284-.632 0-1.185-.105-1.659-.316-.474-.221-.842-.521-1.106-.901a2.354 2.354 0 01-.379-1.311c0-.759.279-1.364.837-1.817.569-.464 1.459-.696 2.671-.696h2.181v-.126c0-.59-.18-1.043-.538-1.359-.347-.316-.869-.474-1.564-.474-.474 0-.943.074-1.406.221a3.447 3.447 0 00-1.154.617l-.774-1.438c.442-.338.974-.596 1.596-.775a7.101 7.101 0 011.975-.268zm-.269 7.205c.495 0 .933-.11 1.312-.332.39-.231.664-.558.822-.979v-.98h-2.039c-1.138 0-1.706.374-1.706 1.122 0 .358.142.643.426.853.285.211.68.316 1.185.316zm14.201-7.111v8.439h-1.975V111.9h-3.161l-.079 1.675c-.052 1.117-.158 2.055-.316 2.813-.147.748-.405 1.343-.774 1.786-.358.432-.853.648-1.485.648-.295 0-.659-.058-1.091-.174l.095-1.659c.148.031.274.047.379.047.401 0 .701-.158.901-.474.2-.327.327-.711.379-1.154.064-.453.116-1.095.158-1.927l.143-3.256h6.826zm10.371-.094c.843 0 1.596.184 2.26.553a3.907 3.907 0 011.564 1.532c.38.654.569 1.396.569 2.229 0 .832-.189 1.58-.569 2.243a4.05 4.05 0 01-1.564 1.533c-.664.369-1.417.553-2.26.553a4.738 4.738 0 01-2.022-.426 4.127 4.127 0 01-1.517-1.233 4.17 4.17 0 01-.774-1.833h-1.423v3.382h-1.975v-8.439h1.975v3.271h1.454c.127-.663.39-1.248.79-1.754a3.95 3.95 0 011.501-1.185 4.602 4.602 0 011.991-.426zm0 6.968c.464 0 .88-.105 1.249-.316.368-.221.658-.532.869-.932.211-.411.316-.88.316-1.406 0-.801-.232-1.438-.695-1.913-.453-.484-1.033-.726-1.739-.726-.705 0-1.285.242-1.738.726-.453.475-.679 1.112-.679 1.913 0 .8.226 1.443.679 1.927.464.485 1.043.727 1.738.727zm12.707-5.199h-2.955v6.764h-1.975V111.9h-2.971v-1.675h7.901v1.675zm9.459-1.675l-3.951 9.118c-.368.917-.816 1.559-1.343 1.928-.527.379-1.164.569-1.912.569-.421 0-.837-.069-1.248-.206-.411-.137-.748-.326-1.011-.569l.79-1.453a2.155 2.155 0 001.453.584c.348 0 .632-.089.854-.268.231-.179.442-.48.632-.901l.142-.332-3.682-8.47h2.054l2.655 6.242 2.671-6.242h1.896zm-131.727 27.046c1.043.316 1.564.99 1.564 2.022 0 .759-.284 1.343-.853 1.754-.569.411-1.412.617-2.529.617h-4.298v-8.439h4.125c1.032 0 1.838.19 2.417.569.58.38.869.917.869 1.612 0 .432-.115.806-.347 1.122-.221.316-.537.564-.948.743zm-4.235-.522h2.07c1.022 0 1.533-.353 1.533-1.058 0-.685-.511-1.028-1.533-1.028h-2.07v2.086zm2.259 3.477c1.085 0 1.628-.353 1.628-1.059 0-.369-.126-.643-.379-.822-.253-.189-.648-.284-1.185-.284h-2.323v2.165h2.259zm10.321-7.095c.822 0 1.554.179 2.197.537a3.855 3.855 0 011.532 1.517c.369.653.553 1.406.553 2.26 0 .853-.184 1.611-.553 2.275a3.855 3.855 0 01-1.532 1.517c-.643.358-1.375.537-2.197.537-1.138 0-2.038-.379-2.702-1.138v4.093h-1.975v-11.504h1.88v1.107a3.064 3.064 0 011.201-.901c.485-.2 1.017-.3 1.596-.3zm-.221 6.952c.727 0 1.322-.242 1.786-.726.474-.485.711-1.122.711-1.912 0-.791-.237-1.428-.711-1.913-.464-.484-1.059-.726-1.786-.726-.474 0-.901.11-1.28.331a2.299 2.299 0 00-.901.917c-.221.4-.331.864-.331 1.391 0 .526.11.99.331 1.39.222.4.522.711.901.932.379.211.806.316 1.28.316zm14.202-6.858l-3.951 9.118c-.368.917-.816 1.559-1.343 1.928-.526.379-1.164.569-1.912.569-.421 0-.837-.069-1.248-.206-.411-.137-.748-.326-1.011-.569l.79-1.453c.189.179.411.321.663.426.264.106.527.158.791.158.347 0 .632-.089.853-.268.232-.179.442-.48.632-.901l.142-.332-3.682-8.47h2.055l2.654 6.242 2.671-6.242h1.896zm8.53 0v8.439h-1.975v-3.271a5.813 5.813 0 01-2.544.584c-1.085 0-1.918-.247-2.497-.742-.579-.506-.869-1.275-.869-2.307v-2.703h1.975v2.576c0 .537.158.938.474 1.201.316.263.764.395 1.343.395.738 0 1.444-.158 2.118-.474v-3.698h1.975zm2.656 0h1.975v3.429h4.251v-3.429h1.975v8.439h-1.975v-3.335h-4.251v3.335h-1.975v-8.439zm18.813 0l-3.951 9.118c-.369.917-.816 1.559-1.343 1.928-.527.379-1.164.569-1.912.569a3.92 3.92 0 01-1.248-.206 2.757 2.757 0 01-1.012-.569l.79-1.453c.19.179.411.321.664.426a2.1 2.1 0 00.79.158c.348 0 .632-.089.853-.268.232-.179.443-.48.633-.901l.142-.332-3.682-8.47h2.054l2.655 6.242 2.67-6.242h1.897zm9.083-.094c.842 0 1.596.184 2.259.553a3.91 3.91 0 011.565 1.532c.379.654.569 1.396.569 2.229 0 .832-.19 1.58-.569 2.243a4.052 4.052 0 01-1.565 1.533c-.663.369-1.417.553-2.259.553a4.74 4.74 0 01-2.023-.426 4.127 4.127 0 01-1.517-1.233 4.194 4.194 0 01-.774-1.833h-1.422v3.382h-1.976v-8.439h1.976v3.271h1.453c.127-.663.39-1.248.791-1.754.4-.516.9-.911 1.501-1.185a4.596 4.596 0 011.991-.426zm0 6.968c.463 0 .879-.105 1.248-.316.369-.221.658-.532.869-.932.211-.411.316-.88.316-1.406 0-.801-.232-1.438-.695-1.913-.453-.484-1.032-.726-1.738-.726s-1.285.242-1.738.726c-.453.475-.68 1.112-.68 1.913 0 .8.227 1.443.68 1.927.463.485 1.042.727 1.738.727z" fill="#24252E"/><g filter="url(#filter1_d)"><rect x="94" y="335" width="245" height="246" rx="7.901" fill="#FCFDFF"/><path d="M118.923 366.134a7.111 7.111 0 100-14.223 7.111 7.111 0 000 14.223z" stroke="#8C9BEA" stroke-width="1.185" stroke-miterlimit="10"/><path d="M115.961 359.023h5.926m-2.965-2.963v5.925" stroke="#8C9BEA" stroke-width="1.185" stroke-linecap="round" stroke-linejoin="round"/><path d="M118.923 463.314a7.111 7.111 0 100-14.223 7.111 7.111 0 000 14.223z" stroke="#8C9BEA" stroke-width="1.185" stroke-miterlimit="10"/><path d="M115.961 456.203h5.926m-2.965-2.963v5.926" stroke="#8C9BEA" stroke-width="1.185" stroke-linecap="round" stroke-linejoin="round"/><path d="M118.923 528.101a7.111 7.111 0 100-14.223 7.111 7.111 0 000 14.223z" stroke="#8C9BEA" stroke-width="1.185" stroke-miterlimit="10"/><path d="M115.961 520.99h5.926m-2.965-2.963v5.926" stroke="#8C9BEA" stroke-width="1.185" stroke-linecap="round" stroke-linejoin="round"/><path d="M118.923 398.527a7.111 7.111 0 100-14.223 7.111 7.111 0 000 14.223z" stroke="#8C9BEA" stroke-width="1.185" stroke-miterlimit="10"/><path d="M115.961 391.416h5.926m-2.965-2.963v5.926" stroke="#8C9BEA" stroke-width="1.185" stroke-linecap="round" stroke-linejoin="round"/><path d="M118.923 430.921a7.111 7.111 0 100-14.223 7.111 7.111 0 000 14.223z" stroke="#8C9BEA" stroke-width="1.185" stroke-miterlimit="10"/><path d="M115.961 423.81h5.926m-2.965-2.963v5.925" stroke="#8C9BEA" stroke-width="1.185" stroke-linecap="round" stroke-linejoin="round"/><path d="M118.923 495.707a7.11 7.11 0 100-14.221 7.11 7.11 0 100 14.221z" stroke="#8C9BEA" stroke-width="1.185" stroke-miterlimit="10"/><path d="M115.961 488.597h5.926m-2.965-2.963v5.925" stroke="#8C9BEA" stroke-width="1.185" stroke-linecap="round" stroke-linejoin="round"/><path d="M167.487 358.952c.514.143.918.405 1.213.784.295.371.443.843.443 1.416 0 .767-.291 1.357-.872 1.77-.574.413-1.412.619-2.516.619h-4.222v-8.849h3.969c1.011 0 1.791.202 2.339.607.556.404.834.965.834 1.681 0 .464-.109.864-.329 1.201-.21.337-.497.594-.859.771zm-4.69-3.236v2.832h2.591c.649 0 1.146-.118 1.492-.354.354-.245.531-.599.531-1.062 0-.464-.177-.813-.531-1.049-.346-.245-.843-.367-1.492-.367h-2.591zm2.907 6.801c.717 0 1.256-.118 1.618-.354.363-.236.544-.607.544-1.112 0-.986-.721-1.479-2.162-1.479h-2.907v2.945h2.907zm5.219-5.676h1.214v6.7h-1.214v-6.7zm.607-1.289a.83.83 0 01-.594-.228.756.756 0 01-.228-.556c0-.219.076-.405.228-.556a.808.808 0 01.594-.241c.236 0 .43.076.581.228a.695.695 0 01.241.544c0 .227-.08.421-.241.581a.784.784 0 01-.581.228zm6.691 7.597c-.177.152-.396.27-.657.354a2.886 2.886 0 01-.809.114c-.675 0-1.197-.181-1.568-.544-.371-.362-.556-.88-.556-1.555v-3.678h-1.138v-.999h1.138v-1.466h1.213v1.466h1.922v.999h-1.922v3.628c0 .362.089.64.266.834.185.194.447.291.784.291.37 0 .687-.105.948-.316l.379.872zm4.165.468c-.682 0-1.293-.148-1.833-.443a3.263 3.263 0 01-1.251-1.213c-.304-.523-.455-1.113-.455-1.77s.151-1.243.455-1.757c.303-.523.72-.927 1.251-1.214.54-.295 1.151-.442 1.833-.442.607 0 1.146.122 1.618.366.481.245.851.599 1.113 1.062l-.923.594a2.063 2.063 0 00-.784-.72 2.236 2.236 0 00-1.036-.24c-.439 0-.835.097-1.189.29a2.114 2.114 0 00-.821.835 2.51 2.51 0 00-.291 1.226c0 .472.097.889.291 1.252.202.354.476.627.821.821.354.194.75.291 1.189.291.379 0 .724-.08 1.036-.24.312-.16.573-.401.784-.721l.923.582a2.687 2.687 0 01-1.113 1.074c-.472.245-1.011.367-1.618.367zm7.073 0a3.632 3.632 0 01-1.795-.443 3.272 3.272 0 01-1.252-1.213c-.295-.523-.442-1.113-.442-1.77s.147-1.243.442-1.757a3.157 3.157 0 011.252-1.214c.531-.295 1.129-.442 1.795-.442.666 0 1.26.147 1.782.442.531.287.944.691 1.239 1.214.303.514.455 1.1.455 1.757 0 .657-.152 1.247-.455 1.77a3.176 3.176 0 01-1.239 1.213c-.522.295-1.116.443-1.782.443zm0-1.062c.43 0 .813-.097 1.15-.291.346-.202.615-.48.809-.834.194-.362.291-.775.291-1.239a2.51 2.51 0 00-.291-1.226 2.03 2.03 0 00-.809-.835 2.272 2.272 0 00-1.15-.29c-.43 0-.818.097-1.163.29a2.14 2.14 0 00-.809.835 2.51 2.51 0 00-.291 1.226c0 .464.097.877.291 1.239.202.354.472.632.809.834.345.194.733.291 1.163.291zm5.154-5.714h1.214v6.7h-1.214v-6.7zm.607-1.289a.83.83 0 01-.594-.228.755.755 0 01-.227-.556c0-.219.075-.405.227-.556a.808.808 0 01.594-.241c.236 0 .43.076.582.228.16.143.24.324.24.544 0 .227-.08.421-.24.581a.788.788 0 01-.582.228zm6.502 1.226c.851 0 1.525.248 2.022.746.506.489.759 1.209.759 2.161v3.856h-1.214v-3.717c0-.648-.156-1.137-.468-1.466-.311-.329-.758-.493-1.34-.493-.657 0-1.175.194-1.554.582-.38.379-.569.927-.569 1.643v3.451h-1.214v-6.7h1.163v1.011a2.37 2.37 0 01.986-.796 3.523 3.523 0 011.429-.278z" fill="#24252E"/><path d="M216.275 358.952c.514.143.918.405 1.213.784.295.371.443.843.443 1.416 0 .767-.291 1.357-.873 1.77-.573.413-1.411.619-2.515.619h-4.222v-8.849h3.969c1.011 0 1.791.202 2.339.607.556.404.834.965.834 1.681 0 .464-.11.864-.329 1.201-.21.337-.497.594-.859.771zm-4.69-3.236v2.832h2.591c.649 0 1.146-.118 1.492-.354.354-.245.531-.599.531-1.062 0-.464-.177-.813-.531-1.049-.346-.245-.843-.367-1.492-.367h-2.591zm2.907 6.801c.717 0 1.256-.118 1.618-.354.363-.236.544-.607.544-1.112 0-.986-.721-1.479-2.162-1.479h-2.907v2.945h2.907zm7.03-6.725h-3.034v-1.1h7.319v1.1h-3.034v7.749h-1.251v-7.749zm9.495 7.85c-.885 0-1.685-.194-2.402-.581a4.402 4.402 0 01-1.668-1.618c-.405-.692-.607-1.467-.607-2.326 0-.86.202-1.631.607-2.314a4.256 4.256 0 011.681-1.618c.716-.396 1.517-.594 2.402-.594.691 0 1.323.118 1.896.354a3.821 3.821 0 011.467 1.024l-.822.796c-.666-.699-1.496-1.049-2.49-1.049-.658 0-1.252.147-1.783.442a3.235 3.235 0 00-1.251 1.227 3.416 3.416 0 00-.443 1.732c0 .64.148 1.222.443 1.744.303.514.72.919 1.251 1.214a3.607 3.607 0 001.783.442c.986 0 1.816-.354 2.49-1.062l.822.797a3.93 3.93 0 01-1.479 1.036 4.941 4.941 0 01-1.897.354z" fill="#929398"/><circle cx="145.788" cy="359.022" r="7.901" fill="#F7931A"/><path d="M149.269 357.897c.158-1.051-.643-1.616-1.737-1.993l.355-1.425-.867-.216-.346 1.387c-.228-.057-.462-.11-.694-.163l.348-1.396-.867-.216-.355 1.423c-.189-.043-.374-.085-.553-.13l.001-.004-1.196-.299-.231.926s.644.148.63.157c.351.087.415.32.404.504l-.404 1.622a.696.696 0 01.09.029l-.092-.023-.567 2.273c-.043.107-.152.267-.397.206.009.013-.63-.157-.63-.157l-.431.992 1.129.281c.209.053.415.108.618.16l-.359 1.44.866.216.355-1.425c.237.064.466.124.691.179l-.354 1.419.867.216.358-1.438c1.479.28 2.59.167 3.058-1.17.377-1.076-.019-1.697-.796-2.102.566-.131.993-.503 1.106-1.273zm-1.98 2.777c-.268 1.077-2.081.495-2.668.349l.476-1.908c.587.146 2.472.437 2.192 1.559zm.268-2.793c-.245.98-1.753.482-2.242.36l.431-1.731c.489.122 2.065.35 1.811 1.371z" fill="#fff"/><circle cx="145.788" cy="488.596" r="7.901" fill="#F7931A"/><circle cx="145.788" cy="391.416" r="7.901" fill="#F7931A"/><g clip-path="url(#clip0)" fill="#fff"><path d="M143.946 390.66l1.841-1.842 1.843 1.842 1.071-1.071-2.914-2.913-2.912 2.912 1.071 1.071v.001zm-2.899.756l1.071-1.072 1.072 1.072-1.072 1.071-1.071-1.071zm2.899.757l1.841 1.841 1.843-1.842 1.071 1.071-2.914 2.914-2.912-2.913-.002-.002 1.073-1.069zm4.439-.757l1.072-1.071 1.071 1.071-1.071 1.072-1.072-1.072z"/><path d="M146.874 391.415l-1.087-1.088-.804.804-.092.092-.19.19-.002.002.002.001 1.086 1.087 1.087-1.087.001-.001h-.001"/></g><path d="M167.37 391.346c.514.143.918.404 1.213.784.295.37.443.842.443 1.415 0 .767-.291 1.357-.873 1.77-.573.413-1.411.62-2.515.62h-4.223v-8.849h3.97c1.011 0 1.791.202 2.338.606.557.405.835.965.835 1.682 0 .463-.11.864-.329 1.201a2.06 2.06 0 01-.859.771zm-4.69-3.236v2.831h2.591c.649 0 1.146-.118 1.492-.354.354-.244.531-.598.531-1.062 0-.463-.177-.813-.531-1.049-.346-.244-.843-.366-1.492-.366h-2.591zm2.907 6.801c.716 0 1.256-.118 1.618-.354.363-.236.544-.607.544-1.113 0-.986-.721-1.479-2.162-1.479h-2.907v2.946h2.907zm5.219-5.676h1.213v6.7h-1.213v-6.7zm.607-1.29a.833.833 0 01-.594-.227.757.757 0 01-.228-.557c0-.219.076-.404.228-.556.16-.16.358-.24.594-.24s.429.076.581.228c.16.143.24.324.24.543 0 .228-.08.422-.24.582a.79.79 0 01-.581.227zm6.501 1.226c.851 0 1.526.249 2.023.746.505.489.758 1.21.758 2.162v3.856h-1.213v-3.717c0-.649-.156-1.138-.468-1.466-.312-.329-.759-.493-1.34-.493-.657 0-1.176.193-1.555.581-.379.379-.569.927-.569 1.643v3.452h-1.213v-6.7h1.163v1.011c.244-.346.573-.611.986-.796a3.499 3.499 0 011.428-.279zm7.467 0c.927 0 1.635.228 2.124.683.497.455.746 1.134.746 2.035v4.046H187.1v-.885a1.952 1.952 0 01-.872.72c-.371.16-.813.24-1.327.24-.751 0-1.353-.181-1.808-.543-.447-.363-.67-.839-.67-1.429 0-.59.215-1.062.645-1.415.429-.363 1.112-.544 2.047-.544h1.922v-.24c0-.523-.152-.923-.455-1.201-.304-.278-.75-.417-1.34-.417-.396 0-.784.067-1.163.202-.379.126-.7.299-.961.518l-.506-.91a3.59 3.59 0 011.239-.632 5.048 5.048 0 011.53-.228zm-.278 5.904c.463 0 .864-.101 1.201-.303a1.81 1.81 0 00.733-.885v-.936h-1.871c-1.028 0-1.542.346-1.542 1.037 0 .337.13.602.392.796.261.194.623.291 1.087.291zm8.971-5.904c.851 0 1.525.249 2.022.746.506.489.759 1.21.759 2.162v3.856h-1.214v-3.717c0-.649-.156-1.138-.467-1.466-.312-.329-.759-.493-1.34-.493-.658 0-1.176.193-1.555.581-.379.379-.569.927-.569 1.643v3.452h-1.214v-6.7h1.163v1.011c.245-.346.573-.611.986-.796a3.507 3.507 0 011.429-.279zm7.984 6.839c-.683 0-1.294-.147-1.833-.442a3.265 3.265 0 01-1.251-1.214c-.304-.522-.455-1.112-.455-1.769 0-.658.151-1.243.455-1.758.303-.522.72-.927 1.251-1.213.539-.295 1.15-.443 1.833-.443.607 0 1.146.123 1.618.367a2.6 2.6 0 011.113 1.062l-.923.594a2.073 2.073 0 00-.784-.721 2.237 2.237 0 00-1.037-.24 2.43 2.43 0 00-1.188.291 2.127 2.127 0 00-.822.834c-.193.354-.29.763-.29 1.227 0 .472.097.889.29 1.251.203.354.477.628.822.822.354.194.75.291 1.188.291.38 0 .725-.081 1.037-.241.312-.16.573-.4.784-.72l.923.581a2.683 2.683 0 01-1.113 1.075c-.472.244-1.011.366-1.618.366zm10.258-3.387c0 .092-.008.214-.025.366h-5.436c.076.59.333 1.066.771 1.429.447.354.999.531 1.656.531.801 0 1.446-.27 1.934-.81l.67.784a2.916 2.916 0 01-1.137.809 3.881 3.881 0 01-1.505.278c-.707 0-1.335-.143-1.883-.429a3.191 3.191 0 01-1.277-1.227c-.295-.522-.442-1.112-.442-1.769 0-.649.143-1.235.429-1.758a3.14 3.14 0 011.201-1.213 3.419 3.419 0 011.732-.443c.641 0 1.21.148 1.707.443.505.286.897.691 1.175 1.213.287.523.43 1.121.43 1.796zm-3.312-2.428c-.581 0-1.07.177-1.466.531-.388.354-.615.818-.683 1.391h4.298c-.067-.565-.299-1.024-.695-1.378-.388-.362-.872-.544-1.454-.544z" fill="#24252E"/><path d="M221.53 396.036c-.885 0-1.685-.194-2.402-.582a4.388 4.388 0 01-1.668-1.618c-.405-.691-.607-1.466-.607-2.326 0-.86.202-1.631.607-2.313a4.25 4.25 0 011.681-1.618c.716-.396 1.517-.595 2.402-.595.691 0 1.323.118 1.896.354a3.821 3.821 0 011.466 1.024l-.821.797c-.666-.7-1.496-1.049-2.491-1.049-.657 0-1.251.147-1.782.442a3.249 3.249 0 00-1.252 1.226 3.418 3.418 0 00-.442 1.732c0 .641.147 1.222.442 1.745.304.514.721.918 1.252 1.213a3.607 3.607 0 001.782.443c.986 0 1.816-.354 2.491-1.062l.821.796a3.916 3.916 0 01-1.479 1.037 4.933 4.933 0 01-1.896.354zm7.587-.026c-.665 0-1.264-.147-1.795-.442a3.265 3.265 0 01-1.251-1.214c-.295-.522-.443-1.112-.443-1.769 0-.658.148-1.243.443-1.758.303-.522.72-.927 1.251-1.213a3.635 3.635 0 011.795-.443c.666 0 1.26.148 1.783.443.531.286.944.691 1.239 1.213.303.515.455 1.1.455 1.758a3.46 3.46 0 01-.455 1.769 3.179 3.179 0 01-1.239 1.214c-.523.295-1.117.442-1.783.442zm0-1.061c.43 0 .814-.097 1.151-.291.345-.202.615-.481.809-.835a2.58 2.58 0 00.291-1.238c0-.464-.097-.873-.291-1.227a2.039 2.039 0 00-.809-.834 2.266 2.266 0 00-1.151-.291c-.429 0-.817.097-1.163.291a2.15 2.15 0 00-.809.834c-.193.354-.29.763-.29 1.227 0 .463.097.876.29 1.238.203.354.472.633.809.835.346.194.734.291 1.163.291zm5.155-5.714h1.214v6.7h-1.214v-6.7zm.607-1.29a.833.833 0 01-.594-.227.757.757 0 01-.228-.557c0-.219.076-.404.228-.556.16-.16.358-.24.594-.24s.43.076.581.228a.694.694 0 01.241.543.79.79 0 01-.241.582.787.787 0 01-.581.227zm6.501 1.226c.852 0 1.526.249 2.023.746.506.489.758 1.21.758 2.162v3.856h-1.213v-3.717c0-.649-.156-1.138-.468-1.466-.312-.329-.758-.493-1.34-.493-.657 0-1.175.193-1.555.581-.379.379-.569.927-.569 1.643v3.452h-1.213v-6.7h1.163v1.011c.244-.346.573-.611.986-.796a3.499 3.499 0 011.428-.279z" fill="#929398"/><circle cx="145.788" cy="423.809" r="7.901" fill="#C5A522"/><path d="M141.836 427.858v-2.073h1.212v-4.723h-1.206v-1.988h.175c1.631 0 3.251.006 4.882-.005.362 0 .679.096.996.22.64.244 1.201.623 1.648 1.156.397.475.668 1.025.81 1.625.238 1.042.244 2.095-.057 3.126-.396 1.342-1.245 2.265-2.656 2.577-.243.056-.504.09-.758.09h-4.848c-.062-.005-.124-.005-.198-.005zm3.681-2.079c.277 0 .544.017.81-.005.345-.034.657-.142.889-.442.198-.255.373-.51.458-.81.187-.657.114-1.325-.017-1.988a2.336 2.336 0 00-.509-1.059c-.147-.17-.351-.362-.555-.396-.34-.062-.708-.017-1.076-.017v4.717z" fill="#ECE2B9"/><path d="M161.422 419.48h3.729c.935 0 1.765.186 2.49.556a4.033 4.033 0 011.681 1.568c.405.666.607 1.433.607 2.301 0 .868-.202 1.639-.607 2.313a4.055 4.055 0 01-1.681 1.555c-.725.371-1.555.556-2.49.556h-3.729v-8.849zm3.653 7.749c.716 0 1.344-.139 1.884-.417a3.025 3.025 0 001.264-1.163c.295-.506.442-1.087.442-1.744 0-.658-.147-1.235-.442-1.732a2.998 2.998 0 00-1.264-1.176c-.54-.278-1.168-.417-1.884-.417h-2.389v6.649h2.389zm9.483 1.176a3.642 3.642 0 01-1.795-.442 3.265 3.265 0 01-1.251-1.214 3.54 3.54 0 01-.443-1.77c0-.657.148-1.243.443-1.757.303-.523.72-.927 1.251-1.214.531-.295 1.129-.442 1.795-.442.666 0 1.26.147 1.783.442.531.287.943.691 1.238 1.214.304.514.456 1.1.456 1.757 0 .657-.152 1.247-.456 1.77a3.176 3.176 0 01-1.238 1.214c-.523.294-1.117.442-1.783.442zm0-1.062c.43 0 .813-.097 1.151-.291a2.14 2.14 0 00.809-.834c.193-.362.29-.775.29-1.239 0-.463-.097-.872-.29-1.226a2.033 2.033 0 00-.809-.834 2.269 2.269 0 00-1.151-.291c-.43 0-.817.097-1.163.291a2.137 2.137 0 00-.809.834 2.51 2.51 0 00-.291 1.226c0 .464.097.877.291 1.239.202.354.472.632.809.834.346.194.733.291 1.163.291zm11.564-5.714v5.79c0 1.171-.291 2.035-.872 2.591-.582.565-1.45.847-2.604.847a6.093 6.093 0 01-1.808-.265c-.573-.169-1.037-.413-1.391-.733l.582-.936c.312.27.695.481 1.15.632.464.16.94.241 1.429.241.784 0 1.361-.186 1.732-.557.379-.371.569-.935.569-1.694v-.531a2.735 2.735 0 01-1.062.784 3.539 3.539 0 01-1.353.253c-.64 0-1.222-.135-1.745-.405a3.122 3.122 0 01-1.213-1.15c-.295-.497-.443-1.062-.443-1.694 0-.632.148-1.192.443-1.681a3.014 3.014 0 011.213-1.151 3.76 3.76 0 011.745-.404c.506 0 .973.093 1.403.278.438.185.797.459 1.075.822v-1.037h1.15zm-3.489 5.36c.438 0 .83-.093 1.176-.278.354-.185.628-.442.821-.771.203-.337.304-.716.304-1.138 0-.649-.215-1.171-.645-1.567-.43-.405-.982-.607-1.656-.607-.683 0-1.239.202-1.669.607-.429.396-.644.918-.644 1.567 0 .422.097.801.29 1.138.203.329.477.586.822.771.354.185.754.278 1.201.278zm11.863-1.972c0 .093-.008.215-.025.367h-5.436c.076.59.333 1.066.771 1.428.447.354.999.531 1.656.531.801 0 1.446-.27 1.934-.809l.67.784a2.926 2.926 0 01-1.137.809 3.903 3.903 0 01-1.505.278c-.708 0-1.336-.143-1.883-.43a3.195 3.195 0 01-1.277-1.226 3.54 3.54 0 01-.443-1.77c0-.649.144-1.235.43-1.757a3.142 3.142 0 011.201-1.214 3.418 3.418 0 011.732-.442c.641 0 1.209.147 1.707.442.505.287.897.691 1.175 1.214.287.522.43 1.121.43 1.795zm-3.312-2.427c-.581 0-1.07.177-1.466.531-.388.354-.616.817-.683 1.39h4.298c-.067-.564-.299-1.024-.695-1.378-.388-.362-.872-.543-1.454-.543zm7.917 5.815c-.682 0-1.293-.148-1.833-.442a3.265 3.265 0 01-1.251-1.214 3.466 3.466 0 01-.455-1.77c0-.657.152-1.243.455-1.757.303-.523.72-.927 1.251-1.214.54-.295 1.151-.442 1.833-.442.607 0 1.147.122 1.619.367.48.244.851.598 1.112 1.061l-.923.595a2.058 2.058 0 00-.784-.721 2.233 2.233 0 00-1.036-.24c-.438 0-.835.097-1.188.291-.346.193-.62.472-.822.834a2.51 2.51 0 00-.291 1.226c0 .472.097.889.291 1.252.202.354.476.627.822.821.353.194.75.291 1.188.291.379 0 .725-.08 1.036-.24.312-.16.573-.4.784-.721l.923.582a2.678 2.678 0 01-1.112 1.074c-.472.245-1.012.367-1.619.367zm7.073 0a3.642 3.642 0 01-1.795-.442 3.275 3.275 0 01-1.252-1.214c-.295-.523-.442-1.113-.442-1.77s.147-1.243.442-1.757a3.157 3.157 0 011.252-1.214c.531-.295 1.129-.442 1.795-.442.666 0 1.26.147 1.782.442.531.287.944.691 1.239 1.214.304.514.455 1.1.455 1.757 0 .657-.151 1.247-.455 1.77a3.179 3.179 0 01-1.239 1.214c-.522.294-1.116.442-1.782.442zm0-1.062c.43 0 .813-.097 1.15-.291.346-.202.616-.48.809-.834.194-.362.291-.775.291-1.239a2.51 2.51 0 00-.291-1.226 2.02 2.02 0 00-.809-.834 2.262 2.262 0 00-1.15-.291c-.43 0-.817.097-1.163.291a2.137 2.137 0 00-.809.834 2.51 2.51 0 00-.291 1.226c0 .464.097.877.291 1.239.202.354.472.632.809.834.346.194.733.291 1.163.291zm5.155-5.714h1.213v6.7h-1.213v-6.7zm.607-1.289a.833.833 0 01-.595-.228.759.759 0 01-.227-.556c0-.219.076-.405.227-.556a.81.81 0 01.595-.24c.235 0 .429.075.581.227.16.143.24.325.24.544 0 .227-.08.421-.24.581a.787.787 0 01-.581.228zm6.501 1.226c.851 0 1.525.249 2.023.746.505.489.758 1.209.758 2.161v3.856h-1.214v-3.716c0-.649-.155-1.138-.467-1.467-.312-.329-.759-.493-1.34-.493-.658 0-1.176.194-1.555.582-.379.379-.569.927-.569 1.643v3.451h-1.214v-6.7h1.163v1.011c.245-.345.574-.611.986-.796a3.523 3.523 0 011.429-.278z" fill="#24252E"/><path d="M227.036 419.48h3.729c.936 0 1.766.186 2.49.556a4.035 4.035 0 011.682 1.568c.404.666.607 1.433.607 2.301 0 .868-.203 1.639-.607 2.313a4.057 4.057 0 01-1.682 1.555c-.724.371-1.554.556-2.49.556h-3.729v-8.849zm3.653 7.749c.717 0 1.344-.139 1.884-.417a3.02 3.02 0 001.264-1.163c.295-.506.442-1.087.442-1.744 0-.658-.147-1.235-.442-1.732a2.992 2.992 0 00-1.264-1.176c-.54-.278-1.167-.417-1.884-.417H228.3v6.649h2.389zm10.786 1.201c-.894 0-1.699-.194-2.415-.581a4.44 4.44 0 01-1.694-1.631 4.498 4.498 0 01-.607-2.313 4.5 4.5 0 01.607-2.314 4.35 4.35 0 011.694-1.618c.716-.396 1.521-.594 2.415-.594.884 0 1.685.198 2.401.594a4.259 4.259 0 011.682 1.618c.404.683.606 1.454.606 2.314 0 .859-.202 1.635-.606 2.326a4.377 4.377 0 01-1.682 1.618c-.716.387-1.517.581-2.401.581zm0-1.125c.648 0 1.23-.147 1.744-.442.523-.295.931-.7 1.226-1.214a3.403 3.403 0 00.455-1.744c0-.641-.151-1.218-.455-1.732a3.161 3.161 0 00-1.226-1.226 3.442 3.442 0 00-1.744-.443c-.649 0-1.239.148-1.77.443a3.249 3.249 0 00-1.239 1.226 3.416 3.416 0 00-.443 1.732c0 .64.148 1.222.443 1.744a3.29 3.29 0 001.239 1.214 3.582 3.582 0 001.77.442zm12.753-3.451h1.213v3.451a4.683 4.683 0 01-1.529.834 5.72 5.72 0 01-1.821.291c-.893 0-1.698-.194-2.414-.581a4.467 4.467 0 01-1.694-1.618c-.405-.691-.607-1.467-.607-2.326 0-.86.202-1.635.607-2.326a4.346 4.346 0 011.694-1.619c.725-.387 1.538-.581 2.44-.581.708 0 1.348.118 1.921.354a3.856 3.856 0 011.479 1.011l-.784.784c-.708-.683-1.563-1.024-2.566-1.024-.674 0-1.281.148-1.82.443a3.155 3.155 0 00-1.252 1.213 3.372 3.372 0 00-.455 1.745c0 .64.152 1.222.455 1.744.304.514.721.919 1.252 1.214a3.704 3.704 0 001.808.442c.792 0 1.483-.189 2.073-.569v-2.882zm10.055 3.375v1.1h-6.421v-8.849h6.244v1.1h-4.98v2.718h4.437v1.074h-4.437v2.857h5.157z" fill="#929398"/><path d="M161.668 451.873h1.265v8.849h-1.265v-8.849zm7.314 2.086c.852 0 1.526.249 2.023.746.506.489.759 1.209.759 2.162v3.855h-1.214v-3.716c0-.649-.156-1.138-.468-1.467-.312-.328-.758-.493-1.34-.493-.657 0-1.175.194-1.555.582-.379.379-.569.927-.569 1.643v3.451h-1.213v-6.7h1.163v1.012c.244-.346.573-.611.986-.797a3.515 3.515 0 011.428-.278zm8.795 6.371c-.177.152-.397.27-.658.354a2.88 2.88 0 01-.809.114c-.674 0-1.197-.181-1.567-.544-.371-.362-.557-.88-.557-1.554v-3.679h-1.137v-.999h1.137v-1.466h1.214v1.466h1.921v.999H175.4v3.628c0 .362.088.64.265.834.186.194.447.291.784.291.371 0 .687-.105.948-.316l.38.872zm7.3-2.92c0 .093-.009.215-.025.367h-5.436c.076.59.333 1.066.771 1.428.446.354.998.531 1.656.531.8 0 1.445-.27 1.934-.809l.67.784a2.93 2.93 0 01-1.138.809 3.895 3.895 0 01-1.504.278c-.708 0-1.336-.143-1.884-.43a3.192 3.192 0 01-1.276-1.226 3.537 3.537 0 01-.443-1.77c0-.649.143-1.234.43-1.757a3.142 3.142 0 011.201-1.214 3.425 3.425 0 011.732-.442c.64 0 1.209.148 1.706.442.506.287.898.692 1.176 1.214.287.523.43 1.121.43 1.795zm-3.312-2.427c-.582 0-1.071.177-1.467.531-.387.354-.615.817-.682 1.39h4.298c-.068-.564-.299-1.023-.695-1.377-.388-.363-.873-.544-1.454-.544zm6.16.164c.211-.387.522-.682.935-.885.413-.202.915-.303 1.505-.303v1.176a2.241 2.241 0 00-.278-.013c-.658 0-1.176.198-1.555.594-.371.388-.556.944-.556 1.669v3.337h-1.214v-6.7h1.163v1.125zm7.513-1.188c.851 0 1.525.249 2.023.746.505.489.758 1.209.758 2.162v3.855h-1.213v-3.716c0-.649-.156-1.138-.468-1.467-.312-.328-.759-.493-1.34-.493-.658 0-1.176.194-1.555.582-.379.379-.569.927-.569 1.643v3.451h-1.214v-6.7h1.163v1.012c.245-.346.574-.611.987-.797a3.515 3.515 0 011.428-.278zm11.119 3.451c0 .093-.008.215-.025.367h-5.436c.076.59.333 1.066.771 1.428.447.354.999.531 1.656.531.801 0 1.446-.27 1.934-.809l.67.784a2.926 2.926 0 01-1.137.809 3.9 3.9 0 01-1.505.278c-.707 0-1.335-.143-1.883-.43a3.189 3.189 0 01-1.277-1.226c-.295-.523-.442-1.112-.442-1.77a3.6 3.6 0 01.429-1.757 3.149 3.149 0 011.201-1.214 3.428 3.428 0 011.732-.442c.641 0 1.21.148 1.707.442.505.287.897.692 1.175 1.214.287.523.43 1.121.43 1.795zm-3.312-2.427c-.581 0-1.07.177-1.466.531-.388.354-.615.817-.683 1.39h4.298c-.067-.564-.299-1.023-.695-1.377-.388-.363-.872-.544-1.454-.544zm8.765 5.347c-.177.152-.397.27-.658.354a2.88 2.88 0 01-.809.114c-.674 0-1.197-.181-1.567-.544-.371-.362-.557-.88-.557-1.554v-3.679h-1.137v-.999h1.137v-1.466h1.214v1.466h1.921v.999h-1.921v3.628c0 .362.088.64.265.834.186.194.447.291.784.291.371 0 .687-.105.948-.316l.38.872zm8.995.493c-.884 0-1.685-.194-2.401-.581a4.398 4.398 0 01-1.669-1.618c-.405-.691-.607-1.467-.607-2.326 0-.86.202-1.631.607-2.314a4.256 4.256 0 011.681-1.618c.717-.396 1.517-.594 2.402-.594.691 0 1.323.118 1.896.354a3.832 3.832 0 011.467 1.024l-.822.796c-.666-.699-1.496-1.049-2.49-1.049-.658 0-1.252.148-1.783.443a3.232 3.232 0 00-1.251 1.226 3.416 3.416 0 00-.443 1.732c0 .64.148 1.222.443 1.744.303.514.72.919 1.251 1.214a3.607 3.607 0 001.783.442c.986 0 1.816-.354 2.49-1.062l.822.797a3.93 3.93 0 01-1.479 1.036 4.938 4.938 0 01-1.897.354zm7.588-.025c-.666 0-1.264-.147-1.795-.442a3.275 3.275 0 01-1.252-1.214c-.295-.523-.442-1.112-.442-1.77 0-.657.147-1.243.442-1.757a3.164 3.164 0 011.252-1.214 3.642 3.642 0 011.795-.442c.666 0 1.26.148 1.782.442.531.287.944.692 1.239 1.214.303.514.455 1.1.455 1.757 0 .658-.152 1.247-.455 1.77a3.179 3.179 0 01-1.239 1.214c-.522.295-1.116.442-1.782.442zm0-1.062c.43 0 .813-.097 1.15-.291.346-.202.615-.48.809-.834.194-.362.291-.775.291-1.239a2.51 2.51 0 00-.291-1.226 2.027 2.027 0 00-.809-.834 2.262 2.262 0 00-1.15-.291c-.43 0-.818.097-1.163.291a2.137 2.137 0 00-.809.834 2.51 2.51 0 00-.291 1.226c0 .464.097.877.291 1.239.202.354.472.632.809.834.345.194.733.291 1.163.291zm13.536-5.777c.842 0 1.508.244 1.997.733.497.489.746 1.214.746 2.175v3.855h-1.214v-3.716c0-.649-.151-1.138-.455-1.467-.295-.328-.72-.493-1.277-.493-.615 0-1.104.194-1.466.582-.362.379-.544.927-.544 1.643v3.451h-1.213v-3.716c0-.649-.152-1.138-.455-1.467-.295-.328-.721-.493-1.277-.493-.615 0-1.104.194-1.466.582-.363.379-.544.927-.544 1.643v3.451h-1.214v-6.7h1.163v.999c.245-.346.565-.607.961-.784a3.161 3.161 0 011.353-.278c.522 0 .986.105 1.39.316.405.211.717.518.936.923a2.57 2.57 0 011.049-.91 3.483 3.483 0 011.53-.329zm8.528 0c.649 0 1.231.143 1.745.43a3.05 3.05 0 011.201 1.201c.295.514.442 1.108.442 1.782 0 .674-.147 1.273-.442 1.795a3.05 3.05 0 01-1.201 1.201c-.514.287-1.096.43-1.745.43-.48 0-.923-.093-1.327-.278a2.777 2.777 0 01-1.012-.809v3.464h-1.213v-9.153h1.163v1.062c.27-.371.611-.649 1.024-.834a3.17 3.17 0 011.365-.291zm-.101 5.777c.43 0 .813-.097 1.15-.291.346-.202.616-.48.809-.834a2.49 2.49 0 00.304-1.239c0-.463-.101-.872-.304-1.226a2.02 2.02 0 00-.809-.834 2.262 2.262 0 00-1.15-.291c-.421 0-.805.101-1.15.303a2.166 2.166 0 00-.809.822 2.51 2.51 0 00-.291 1.226c0 .464.097.877.291 1.239.193.354.463.632.809.834.345.194.729.291 1.15.291zm11.411-5.714v6.7h-1.151v-1.011a2.484 2.484 0 01-.973.809c-.396.185-.83.278-1.302.278-.894 0-1.597-.244-2.111-.733-.514-.497-.771-1.226-.771-2.187v-3.856h1.213v3.717c0 .649.156 1.142.468 1.479.312.329.758.493 1.34.493.64 0 1.146-.194 1.517-.582.371-.387.556-.935.556-1.643v-3.464h1.214zm6.077 6.308c-.177.152-.396.27-.657.354a2.886 2.886 0 01-.809.114c-.675 0-1.197-.181-1.568-.544-.371-.362-.556-.88-.556-1.554v-3.679h-1.138v-.999h1.138v-1.466h1.213v1.466h1.922v.999h-1.922v3.628c0 .362.089.64.266.834.185.194.447.291.784.291.371 0 .687-.105.948-.316l.379.872zm7.3-2.92c0 .093-.008.215-.025.367h-5.436c.076.59.333 1.066.771 1.428.447.354.999.531 1.656.531.801 0 1.446-.27 1.934-.809l.67.784a2.926 2.926 0 01-1.137.809 3.9 3.9 0 01-1.505.278c-.708 0-1.335-.143-1.883-.43a3.189 3.189 0 01-1.277-1.226c-.295-.523-.442-1.112-.442-1.77a3.6 3.6 0 01.429-1.757 3.149 3.149 0 011.201-1.214 3.428 3.428 0 011.732-.442c.641 0 1.21.148 1.707.442.505.287.897.692 1.175 1.214.287.523.43 1.121.43 1.795zm-3.312-2.427c-.581 0-1.07.177-1.466.531-.388.354-.615.817-.683 1.39h4.298c-.067-.564-.299-1.023-.695-1.377-.388-.363-.872-.544-1.454-.544zm6.16.164a2.08 2.08 0 01.936-.885c.413-.202.914-.303 1.504-.303v1.176a2.23 2.23 0 00-.278-.013c-.657 0-1.176.198-1.555.594-.371.388-.556.944-.556 1.669v3.337h-1.214v-6.7h1.163v1.125z" fill="#24252E"/><path d="M285.786 451.873h1.264v8.849h-1.264v-8.849zm7.87 8.95c-.884 0-1.685-.194-2.401-.581a4.398 4.398 0 01-1.669-1.618c-.405-.691-.607-1.467-.607-2.326 0-.86.202-1.631.607-2.314a4.256 4.256 0 011.681-1.618c.717-.396 1.517-.594 2.402-.594.691 0 1.323.118 1.896.354a3.832 3.832 0 011.467 1.024l-.822.796c-.666-.699-1.496-1.049-2.49-1.049-.658 0-1.252.148-1.783.443a3.232 3.232 0 00-1.251 1.226 3.416 3.416 0 00-.443 1.732c0 .64.148 1.222.443 1.744.303.514.72.919 1.251 1.214a3.607 3.607 0 001.783.442c.986 0 1.816-.354 2.49-1.062l.822.797a3.93 3.93 0 01-1.479 1.036 4.938 4.938 0 01-1.897.354zm8.63-8.95c1.146 0 2.048.274 2.705.822.658.548.986 1.302.986 2.263 0 .96-.328 1.715-.986 2.263-.657.547-1.559.821-2.705.821h-2.187v2.68h-1.264v-8.849h3.451zm-.038 5.069c.801 0 1.412-.168 1.833-.505.422-.346.632-.839.632-1.479 0-.641-.21-1.13-.632-1.467-.421-.345-1.032-.518-1.833-.518h-2.149v3.969h2.149z" fill="#929398"/><circle cx="145.788" cy="456.203" r="7.901" fill="#A4E3D4"/><path d="M149.23 453.236c-.662 0-1.384.353-2.146 1.049-.362.328-.678.68-.908.963 0 0 .371.418.777.867a9.02 9.02 0 01.903-.973c.677-.62 1.118-.746 1.374-.746.953 0 1.725.781 1.725 1.749 0 .958-.772 1.739-1.725 1.749a.733.733 0 01-.165-.02c.275.126.576.217.857.217 1.746 0 2.087-1.18 2.107-1.265.05-.217.08-.444.08-.676-.005-1.608-1.294-2.914-2.879-2.914z" fill="url(#paint0_linear)"/><path d="M143.137 459.048c.662 0 1.384-.353 2.146-1.049.361-.327.677-.68.908-.962 0 0-.371-.419-.777-.868a8.835 8.835 0 01-.903.973c-.677.615-1.124.746-1.374.746a1.736 1.736 0 01-1.726-1.749 1.75 1.75 0 011.726-1.749c.045 0 .1.005.165.02-.276-.126-.577-.217-.858-.217-1.745 0-2.086 1.18-2.106 1.266-.05.216-.08.443-.08.675 0 1.608 1.289 2.914 2.879 2.914z" fill="url(#paint1_linear)"/><path fill-rule="evenodd" clip-rule="evenodd" d="M144.461 455.167c-.19-.181-1.123-.922-2.016-.947-1.591-.04-2.058 1.093-2.099 1.239a2.893 2.893 0 012.791-2.222c1.101 0 2.214 1.057 3.036 2.011a.022.022 0 01.003-.005s.372.418.778.867c0 0 .461.534.953 1.003.19.182 1.118.913 2.011.938 1.635.045 2.086-1.15 2.111-1.24a2.893 2.893 0 01-2.793 2.233c-1.101 0-2.214-1.058-3.04-2.012l-.004.006s-.372-.419-.778-.868c0 0-.461-.534-.953-1.003zm-4.117.303l.002-.011-.002.011z" fill="#29ABE2"/><path d="M167.437 488.527c.514.143.919.404 1.214.784.295.37.442.842.442 1.415 0 .767-.29 1.357-.872 1.77-.573.413-1.411.62-2.515.62h-4.223v-8.849h3.97c1.011 0 1.791.202 2.338.607.557.404.835.964.835 1.681 0 .463-.11.864-.329 1.201a2.057 2.057 0 01-.86.771zm-4.69-3.236v2.831h2.592c.649 0 1.146-.118 1.492-.354.354-.244.531-.598.531-1.061 0-.464-.177-.814-.531-1.05-.346-.244-.843-.366-1.492-.366h-2.592zm2.908 6.801c.716 0 1.256-.118 1.618-.354.362-.236.544-.607.544-1.113 0-.986-.721-1.479-2.162-1.479h-2.908v2.946h2.908zm5.219-5.676h1.213v6.7h-1.213v-6.7zm.607-1.29a.832.832 0 01-.595-.227.759.759 0 01-.227-.556.76.76 0 01.227-.557.81.81 0 01.595-.24c.236 0 .429.076.581.228.16.143.24.324.24.543 0 .228-.08.422-.24.582a.785.785 0 01-.581.227zm6.691 7.598c-.177.152-.396.27-.658.354a2.88 2.88 0 01-.809.114c-.674 0-1.196-.182-1.567-.544-.371-.362-.557-.881-.557-1.555v-3.679h-1.137v-.998h1.137v-1.467h1.214v1.467h1.922v.998h-1.922v3.629c0 .362.089.64.266.834.185.194.446.291.783.291.371 0 .687-.106.948-.316l.38.872zm4.165.468c-.683 0-1.294-.148-1.833-.443a3.272 3.272 0 01-1.252-1.213 3.466 3.466 0 01-.455-1.77c0-.658.152-1.243.455-1.757a3.157 3.157 0 011.252-1.214c.539-.295 1.15-.442 1.833-.442.607 0 1.146.122 1.618.366.48.245.851.599 1.112 1.062l-.923.594c-.21-.32-.471-.56-.783-.72a2.24 2.24 0 00-1.037-.241 2.43 2.43 0 00-1.188.291 2.11 2.11 0 00-.822.835c-.194.353-.291.762-.291 1.226 0 .472.097.889.291 1.251.202.354.476.628.822.822.354.194.75.291 1.188.291.379 0 .725-.08 1.037-.24.312-.161.573-.401.783-.721l.923.581a2.68 2.68 0 01-1.112 1.075c-.472.244-1.011.367-1.618.367zm7.072 0a3.635 3.635 0 01-1.795-.443 3.263 3.263 0 01-1.251-1.213 3.54 3.54 0 01-.443-1.77c0-.658.148-1.243.443-1.757.303-.523.72-.927 1.251-1.214.531-.295 1.13-.442 1.795-.442.666 0 1.26.147 1.783.442.531.287.944.691 1.239 1.214.303.514.455 1.099.455 1.757 0 .657-.152 1.247-.455 1.77a3.176 3.176 0 01-1.239 1.213c-.523.295-1.117.443-1.783.443zm0-1.062c.43 0 .814-.097 1.151-.291a2.14 2.14 0 00.809-.834c.194-.363.291-.776.291-1.239 0-.464-.097-.873-.291-1.226a2.035 2.035 0 00-.809-.835 2.266 2.266 0 00-1.151-.291c-.429 0-.817.097-1.163.291a2.147 2.147 0 00-.809.835c-.194.353-.29.762-.29 1.226 0 .463.096.876.29 1.239.203.354.472.632.809.834.346.194.734.291 1.163.291zm5.155-5.714h1.214v6.7h-1.214v-6.7zm.607-1.29a.828.828 0 01-.594-.227.756.756 0 01-.228-.556c0-.22.076-.405.228-.557.16-.16.358-.24.594-.24s.43.076.581.228c.16.143.241.324.241.543a.793.793 0 01-.241.582.784.784 0 01-.581.227zm6.501 1.227c.851 0 1.526.248 2.023.745.506.489.758 1.21.758 2.162v3.856h-1.213v-3.717c0-.649-.156-1.138-.468-1.466-.312-.329-.758-.493-1.34-.493-.657 0-1.176.194-1.555.581-.379.379-.569.927-.569 1.644v3.451h-1.213v-6.7h1.163v1.011c.244-.345.573-.611.986-.796a3.499 3.499 0 011.428-.278zm12.556 6.864c-.885 0-1.686-.194-2.402-.582a4.398 4.398 0 01-1.669-1.618c-.404-.691-.606-1.466-.606-2.326 0-.859.202-1.631.606-2.313a4.252 4.252 0 011.682-1.618c.716-.396 1.517-.594 2.402-.594.691 0 1.323.118 1.896.354a3.8 3.8 0 011.466 1.024l-.821.796c-.666-.7-1.496-1.049-2.491-1.049-.657 0-1.251.147-1.782.442a3.249 3.249 0 00-1.252 1.226 3.418 3.418 0 00-.442 1.732c0 .641.147 1.222.442 1.745.304.514.721.918 1.252 1.213a3.607 3.607 0 001.782.443c.986 0 1.816-.354 2.491-1.062l.821.796a3.916 3.916 0 01-1.479 1.037 4.933 4.933 0 01-1.896.354zm7.355-6.864c.927 0 1.635.227 2.124.682.497.455.746 1.134.746 2.035v4.046h-1.151v-.885a1.946 1.946 0 01-.872.72c-.371.161-.813.241-1.327.241-.75 0-1.353-.182-1.808-.544-.447-.362-.67-.839-.67-1.428 0-.59.215-1.062.645-1.416.429-.363 1.112-.544 2.048-.544h1.921v-.24c0-.523-.152-.923-.455-1.201-.303-.278-.75-.417-1.34-.417-.396 0-.784.067-1.163.202-.379.126-.7.299-.961.518l-.505-.91a3.577 3.577 0 011.238-.632 5.048 5.048 0 011.53-.227zm-.278 5.903c.463 0 .864-.101 1.201-.303a1.81 1.81 0 00.733-.885v-.936h-1.871c-1.028 0-1.542.346-1.542 1.037 0 .337.13.603.392.796.261.194.623.291 1.087.291zm7.315.936a5.773 5.773 0 01-1.58-.215c-.506-.152-.902-.342-1.189-.569l.506-.961c.295.211.653.379 1.075.506.421.126.847.189 1.276.189 1.062 0 1.593-.303 1.593-.91a.587.587 0 00-.215-.48 1.303 1.303 0 00-.543-.253 9.722 9.722 0 00-.91-.19 9.274 9.274 0 01-1.328-.29 2.037 2.037 0 01-.872-.557c-.244-.261-.367-.627-.367-1.099 0-.607.253-1.092.759-1.454.505-.371 1.184-.556 2.035-.556.447 0 .893.054 1.34.164.447.109.813.257 1.1.442l-.518.961c-.548-.354-1.193-.531-1.935-.531-.514 0-.906.084-1.175.253-.27.169-.405.392-.405.67 0 .219.076.392.228.518.151.127.337.219.556.278.228.059.544.127.948.203a9.01 9.01 0 011.302.303c.337.101.624.278.86.531s.354.607.354 1.062c0 .607-.261 1.091-.784 1.454-.514.354-1.218.531-2.111.531zm7.989-6.839c.851 0 1.525.248 2.023.745.505.489.758 1.21.758 2.162v3.856h-1.214v-3.717c0-.649-.155-1.138-.467-1.466-.312-.329-.759-.493-1.34-.493-.658 0-1.176.194-1.555.581-.379.379-.569.927-.569 1.644v3.451h-1.214v-9.38h1.214v3.628c.253-.32.582-.569.986-.746a3.462 3.462 0 011.378-.265z" fill="#24252E"/><path d="M251.162 488.527c.514.143.919.404 1.214.784.295.37.442.842.442 1.415 0 .767-.291 1.357-.872 1.77-.573.413-1.412.62-2.516.62h-4.222v-8.849h3.969c1.012 0 1.791.202 2.339.607.556.404.834.964.834 1.681 0 .463-.109.864-.328 1.201a2.063 2.063 0 01-.86.771zm-4.69-3.236v2.831h2.592c.648 0 1.146-.118 1.491-.354.354-.244.531-.598.531-1.061 0-.464-.177-.814-.531-1.05-.345-.244-.843-.366-1.491-.366h-2.592zm2.908 6.801c.716 0 1.255-.118 1.618-.354.362-.236.543-.607.543-1.113 0-.986-.72-1.479-2.161-1.479h-2.908v2.946h2.908zm9.352 1.125c-.885 0-1.685-.194-2.402-.582a4.388 4.388 0 01-1.668-1.618c-.405-.691-.607-1.466-.607-2.326 0-.859.202-1.631.607-2.313a4.25 4.25 0 011.681-1.618c.716-.396 1.517-.594 2.402-.594.691 0 1.323.118 1.896.354a3.8 3.8 0 011.466 1.024l-.821.796c-.666-.7-1.496-1.049-2.491-1.049-.657 0-1.251.147-1.782.442a3.249 3.249 0 00-1.252 1.226 3.418 3.418 0 00-.442 1.732c0 .641.147 1.222.442 1.745.304.514.721.918 1.252 1.213a3.607 3.607 0 001.782.443c.986 0 1.816-.354 2.491-1.062l.821.796a3.916 3.916 0 01-1.479 1.037 4.933 4.933 0 01-1.896.354zm12.789-8.95v8.849h-1.264v-3.944h-5.082v3.944h-1.264v-8.849h1.264v3.805h5.082v-3.805h1.264z" fill="#929398"/><path d="M161.656 516.66h1.264v7.749h4.791v1.1h-6.055v-8.849zm7.329 2.149h1.214v6.7h-1.214v-6.7zm.607-1.289a.83.83 0 01-.594-.228.754.754 0 01-.228-.556c0-.219.076-.404.228-.556.16-.16.358-.24.594-.24s.43.076.581.227a.7.7 0 01.24.544c0 .227-.08.421-.24.581a.784.784 0 01-.581.228zm6.691 7.597c-.177.152-.396.27-.658.354-.261.076-.53.114-.809.114-.674 0-1.196-.181-1.567-.543-.371-.363-.556-.881-.556-1.555v-3.679h-1.138v-.999h1.138v-1.466h1.213v1.466h1.922v.999h-1.922v3.628c0 .362.089.641.266.834.185.194.446.291.783.291.371 0 .687-.105.949-.316l.379.872zm7.3-2.92c0 .093-.008.215-.025.367h-5.436c.076.59.333 1.066.771 1.428.447.354.999.531 1.656.531.801 0 1.445-.269 1.934-.809l.67.784a2.912 2.912 0 01-1.138.809 3.895 3.895 0 01-1.504.278c-.708 0-1.336-.143-1.883-.43a3.189 3.189 0 01-1.277-1.226c-.295-.522-.443-1.112-.443-1.77a3.6 3.6 0 01.43-1.757 3.133 3.133 0 011.201-1.213 3.416 3.416 0 011.732-.443c.64 0 1.209.148 1.707.443.505.286.897.691 1.175 1.213.287.523.43 1.121.43 1.795zm-3.312-2.427c-.582 0-1.07.177-1.466.531-.388.354-.616.817-.683 1.391h4.298c-.067-.565-.299-1.024-.695-1.378-.388-.363-.873-.544-1.454-.544zm7.917 5.815c-.682 0-1.293-.147-1.833-.442a3.265 3.265 0 01-1.251-1.214c-.304-.522-.455-1.112-.455-1.77 0-.657.151-1.243.455-1.757.303-.522.72-.927 1.251-1.213.54-.295 1.151-.443 1.833-.443.607 0 1.147.122 1.618.367.481.244.852.598 1.113 1.062l-.923.594a2.065 2.065 0 00-.784-.721 2.236 2.236 0 00-1.036-.24c-.439 0-.835.097-1.189.291a2.118 2.118 0 00-.821.834 2.51 2.51 0 00-.291 1.226c0 .472.097.889.291 1.252.202.354.476.628.821.821.354.194.75.291 1.189.291.379 0 .724-.08 1.036-.24.312-.16.573-.4.784-.72l.923.581a2.677 2.677 0 01-1.113 1.075c-.471.244-1.011.366-1.618.366zm7.073 0c-.666 0-1.264-.147-1.795-.442a3.275 3.275 0 01-1.252-1.214c-.295-.522-.442-1.112-.442-1.77 0-.657.147-1.243.442-1.757a3.155 3.155 0 011.252-1.213 3.632 3.632 0 011.795-.443c.666 0 1.26.148 1.782.443.531.286.944.691 1.239 1.213.304.514.455 1.1.455 1.757 0 .658-.151 1.248-.455 1.77a3.179 3.179 0 01-1.239 1.214c-.522.295-1.116.442-1.782.442zm0-1.062c.43 0 .813-.097 1.15-.291.346-.202.616-.48.809-.834.194-.362.291-.775.291-1.239a2.51 2.51 0 00-.291-1.226 2.027 2.027 0 00-.809-.834 2.262 2.262 0 00-1.15-.291c-.43 0-.818.097-1.163.291a2.144 2.144 0 00-.809.834 2.51 2.51 0 00-.291 1.226c0 .464.097.877.291 1.239.202.354.472.632.809.834.345.194.733.291 1.163.291zm5.155-5.714h1.213v6.7h-1.213v-6.7zm.606-1.289a.83.83 0 01-.594-.228.757.757 0 01-.227-.556c0-.219.076-.404.227-.556.16-.16.358-.24.594-.24s.43.076.582.227a.7.7 0 01.24.544c0 .227-.08.421-.24.581a.788.788 0 01-.582.228zm6.502 1.226c.851 0 1.525.249 2.022.746.506.489.759 1.209.759 2.162v3.855h-1.214v-3.716c0-.649-.156-1.138-.467-1.467-.312-.328-.759-.493-1.34-.493-.658 0-1.176.194-1.555.582-.379.379-.569.927-.569 1.643v3.451h-1.214v-6.7h1.163v1.012c.245-.346.573-.611.986-.797a3.523 3.523 0 011.429-.278z" fill="#24252E"/><path d="M216.123 516.66h1.264v7.749h4.791v1.1h-6.055v-8.849zm8.436 1.1h-3.034v-1.1h7.319v1.1h-3.034v7.749h-1.251v-7.749zm9.495 7.85c-.885 0-1.685-.193-2.402-.581a4.395 4.395 0 01-1.668-1.618c-.405-.691-.607-1.467-.607-2.326 0-.86.202-1.631.607-2.314a4.256 4.256 0 011.681-1.618c.716-.396 1.517-.594 2.402-.594.691 0 1.323.118 1.896.354a3.821 3.821 0 011.466 1.024l-.821.796c-.666-.699-1.496-1.049-2.491-1.049-.657 0-1.251.148-1.782.443a3.242 3.242 0 00-1.252 1.226 3.425 3.425 0 00-.442 1.732c0 .64.148 1.222.442 1.744.304.514.721.919 1.252 1.214a3.606 3.606 0 001.782.442c.986 0 1.817-.354 2.491-1.062l.821.797c-.404.455-.897.8-1.479 1.036a4.933 4.933 0 01-1.896.354z" fill="#929398"/><path d="M121.077 549.151V558h-1.619v-7.458h-4.588V558h-1.619v-8.849h7.826zm5.326 8.937c-.682 0-1.297-.147-1.845-.442a3.289 3.289 0 01-1.29-1.226 3.556 3.556 0 01-.455-1.795c0-.666.152-1.26.455-1.783a3.289 3.289 0 011.29-1.226c.548-.295 1.163-.442 1.845-.442.691 0 1.311.147 1.859.442.547.295.973.704 1.276 1.226.312.523.468 1.117.468 1.783 0 .666-.156 1.264-.468 1.795a3.199 3.199 0 01-1.276 1.226c-.548.295-1.168.442-1.859.442zm0-1.352c.582 0 1.062-.194 1.442-.582.379-.387.568-.897.568-1.529 0-.632-.189-1.142-.568-1.53-.38-.388-.86-.581-1.442-.581-.581 0-1.061.193-1.441.581-.371.388-.556.898-.556 1.53s.185 1.142.556 1.529c.38.388.86.582 1.441.582zm7.971-1.441h-1.227V558h-1.58v-6.751h1.58v2.731h1.265l1.997-2.731h1.694l-2.453 3.249 2.617 3.502h-1.858l-2.035-2.705zm7.4-4.121c.994 0 1.753.24 2.275.72.531.472.797 1.188.797 2.149V558h-1.492v-.822a1.875 1.875 0 01-.834.683c-.354.152-.784.227-1.29.227-.505 0-.948-.084-1.327-.252a2.167 2.167 0 01-.885-.721 1.887 1.887 0 01-.303-1.049c0-.607.223-1.092.67-1.454.455-.371 1.167-.556 2.136-.556h1.745v-.101c0-.472-.144-.835-.43-1.087-.278-.253-.696-.38-1.252-.38-.379 0-.754.059-1.125.177-.362.118-.67.283-.923.493l-.619-1.15c.354-.27.779-.476 1.277-.619a5.653 5.653 0 011.58-.215zm-.215 5.764c.396 0 .746-.088 1.049-.265.312-.186.531-.447.658-.784v-.784h-1.631c-.91 0-1.365.299-1.365.898 0 .286.113.514.341.682.227.169.543.253.948.253zm9.188-2.452c.422.118.746.312.974.581.236.261.354.577.354.948 0 .413-.139.78-.418 1.1-.278.312-.661.556-1.15.733-.489.177-1.045.266-1.669.266a6.598 6.598 0 01-1.529-.177 5.578 5.578 0 01-1.353-.531l.455-1.176c.329.186.7.329 1.113.43a5.2 5.2 0 001.239.152c.531 0 .943-.08 1.238-.24.304-.169.456-.397.456-.683 0-.261-.118-.464-.354-.607-.228-.143-.552-.215-.974-.215h-1.315v-1.062h1.189c.396 0 .703-.067.923-.202.227-.135.341-.324.341-.569 0-.244-.135-.438-.405-.581-.269-.144-.64-.215-1.112-.215-.674 0-1.386.164-2.136.493l-.405-1.163c.885-.413 1.778-.62 2.68-.62.573 0 1.087.08 1.542.241.455.151.809.37 1.062.657.261.278.392.598.392.961 0 .328-.101.623-.303.885-.203.252-.481.45-.835.594zm5.483-3.312c.994 0 1.753.24 2.275.72.531.472.797 1.188.797 2.149V558h-1.492v-.822a1.875 1.875 0 01-.834.683c-.354.152-.784.227-1.29.227-.505 0-.948-.084-1.327-.252a2.167 2.167 0 01-.885-.721 1.887 1.887 0 01-.303-1.049c0-.607.223-1.092.67-1.454.455-.371 1.167-.556 2.136-.556h1.745v-.101c0-.472-.144-.835-.43-1.087-.278-.253-.695-.38-1.252-.38-.379 0-.754.059-1.125.177-.362.118-.67.283-.923.493l-.619-1.15c.354-.27.78-.476 1.277-.619a5.653 5.653 0 011.58-.215zm-.215 5.764c.396 0 .746-.088 1.049-.265.312-.186.531-.447.658-.784v-.784h-1.631c-.91 0-1.365.299-1.365.898 0 .286.113.514.341.682.228.169.544.253.948.253zm10.59-4.349h-2.364V558h-1.581v-5.411h-2.376v-1.34h6.321v1.34zm4.534.885c.859 0 1.517.194 1.972.582.463.388.695.935.695 1.643 0 .742-.253 1.315-.759 1.719-.505.405-1.217.603-2.136.595l-3.16-.013v-6.751h1.58v2.213l1.808.012zm-.367 3.376c.464.008.818-.089 1.062-.291.244-.202.367-.497.367-.885 0-.379-.118-.657-.354-.834-.236-.177-.595-.27-1.075-.278l-1.441-.013v2.288l1.441.013zm14.237-2.187c0 .109-.008.265-.025.467h-5.297c.093.498.333.894.721 1.189.396.286.885.43 1.466.43.742 0 1.353-.245 1.833-.734l.847.974a2.852 2.852 0 01-1.15.821 4.18 4.18 0 01-1.568.278c-.741 0-1.395-.147-1.959-.442a3.245 3.245 0 01-1.315-1.226 3.556 3.556 0 01-.455-1.795c0-.658.147-1.248.442-1.77a3.22 3.22 0 011.252-1.239c.531-.295 1.129-.442 1.795-.442.657 0 1.243.147 1.757.442.523.287.927.695 1.214 1.226.295.523.442 1.13.442 1.821zm-3.413-2.225c-.506 0-.935.151-1.289.455-.346.295-.557.691-.632 1.188h3.83c-.068-.489-.274-.885-.62-1.188-.345-.304-.775-.455-1.289-.455zm15.09-1.189V558h-9.948v-6.751h1.58v5.411h2.616v-5.411h1.581v5.411h2.591v-5.411h1.58zm.974 5.411v2.731h-1.479V558h-1.125v-1.34h2.604zm7.472-1.997c0 .109-.009.265-.026.467h-5.296c.092.498.333.894.72 1.189.396.286.885.43 1.467.43.741 0 1.352-.245 1.833-.734l.847.974a2.855 2.855 0 01-1.151.821 4.175 4.175 0 01-1.567.278c-.742 0-1.395-.147-1.96-.442a3.243 3.243 0 01-1.314-1.226c-.304-.531-.455-1.129-.455-1.795 0-.658.147-1.248.442-1.77a3.218 3.218 0 011.251-1.239c.531-.295 1.13-.442 1.796-.442.657 0 1.243.147 1.757.442.522.287.927.695 1.213 1.226.295.523.443 1.13.443 1.821zm-3.413-2.225c-.506 0-.936.151-1.29.455-.345.295-.556.691-.632 1.188h3.83c-.067-.489-.273-.885-.619-1.188-.346-.304-.775-.455-1.289-.455zm16.017 3.552h-1.567V558h-1.593v-2.01h-4.854v-1.138l4.361-5.701h1.757l-4.108 5.448h2.895v-1.782h1.542v1.782h1.567v1.391zm7.064.619V558h-6.523v-1.1l3.514-3.337c.397-.379.662-.708.797-.986a1.89 1.89 0 00.215-.847c0-.413-.139-.729-.417-.948-.279-.219-.687-.329-1.227-.329-.901 0-1.592.308-2.073.923l-1.15-.885c.345-.464.809-.822 1.39-1.075.59-.261 1.248-.391 1.972-.391.961 0 1.728.227 2.301.682.573.455.86 1.075.86 1.859 0 .48-.101.931-.304 1.352-.202.422-.59.902-1.163 1.441l-2.364 2.25h4.172zm4.716-3.805c.817.102 1.441.38 1.871.835.429.455.644 1.024.644 1.706 0 .514-.13.982-.392 1.404-.261.421-.657.758-1.188 1.011-.522.244-1.163.366-1.921.366a6.344 6.344 0 01-1.833-.265 4.75 4.75 0 01-1.492-.759l.708-1.276c.32.269.708.484 1.163.644.463.152.94.228 1.428.228.582 0 1.037-.118 1.366-.354.337-.244.505-.573.505-.986 0-.413-.16-.733-.48-.961-.312-.236-.792-.354-1.441-.354h-.809v-1.125l2.01-2.389h-4.02v-1.378h6.03v1.1l-2.149 2.553zM243.742 558v-4.475l-2.275 3.767h-.683l-2.237-3.78V558h-1.441v-6.751h1.656l2.401 4.223 2.516-4.223h1.479l.013 6.751h-1.429zm6.557.088c-.683 0-1.298-.147-1.846-.442a3.293 3.293 0 01-1.289-1.226 3.556 3.556 0 01-.455-1.795c0-.666.152-1.26.455-1.783a3.293 3.293 0 011.289-1.226c.548-.295 1.163-.442 1.846-.442.691 0 1.31.147 1.858.442.548.295.974.704 1.277 1.226.312.523.468 1.117.468 1.783 0 .666-.156 1.264-.468 1.795a3.195 3.195 0 01-1.277 1.226c-.548.295-1.167.442-1.858.442zm0-1.352c.581 0 1.062-.194 1.441-.582.379-.387.569-.897.569-1.529 0-.632-.19-1.142-.569-1.53-.379-.388-.86-.581-1.441-.581-.582 0-1.062.193-1.441.581-.371.388-.556.898-.556 1.53s.185 1.142.556 1.529c.379.388.859.582 1.441.582zm5.164-5.487h1.58v2.744h3.4v-2.744h1.581V558h-1.581v-2.667h-3.4V558h-1.58v-6.751zm14.999 3.414c0 .109-.008.265-.025.467h-5.297c.093.498.333.894.721 1.189.396.286.885.43 1.466.43.742 0 1.353-.245 1.833-.734l.847.974a2.852 2.852 0 01-1.15.821 4.18 4.18 0 01-1.568.278c-.742 0-1.395-.147-1.959-.442a3.245 3.245 0 01-1.315-1.226 3.556 3.556 0 01-.455-1.795c0-.658.147-1.248.442-1.77a3.22 3.22 0 011.252-1.239c.531-.295 1.129-.442 1.795-.442.657 0 1.243.147 1.757.442.523.287.927.695 1.214 1.226.295.523.442 1.13.442 1.821zm-3.413-2.225c-.506 0-.936.151-1.289.455-.346.295-.557.691-.633 1.188h3.831c-.068-.489-.274-.885-.62-1.188-.345-.304-.775-.455-1.289-.455zm10.242.151h-2.364V558h-1.58v-5.411h-2.377v-1.34h6.321v1.34zm4.433.885c.859 0 1.517.194 1.972.582.455.388.683.935.683 1.643 0 .742-.253 1.315-.759 1.719-.497.405-1.205.603-2.124.595l-3.059-.013v-6.751h1.58v2.213l1.707.012zm3.527-2.225h1.58V558h-1.58v-6.751zm-3.894 5.601c.464.008.818-.089 1.062-.291.244-.202.367-.497.367-.885 0-.379-.118-.657-.354-.834-.236-.177-.594-.27-1.075-.278l-1.34-.013v2.288l1.34.013z" fill="#3E54D8"/><g clip-path="url(#clip1)"><path d="M145.788 528.036a7.046 7.046 0 100-14.092 7.046 7.046 0 000 14.092z" fill="#fff"/><path d="M145.788 513.09a7.902 7.902 0 107.9 7.901 7.88 7.88 0 00-2.291-5.578 7.892 7.892 0 00-2.55-1.715 7.894 7.894 0 00-3.013-.608h-.046zm.134 8.169l-.823 2.773h4.4a.223.223 0 01.229.215v.072l-.382 1.32a.285.285 0 01-.287.211h-6.734l1.129-3.845-1.263.382.287-.88 1.263-.382 1.587-5.395a.294.294 0 01.287-.211h1.703a.232.232 0 01.086.014.232.232 0 01.124.116.23.23 0 01.02.085v.072l-1.34 4.553 1.263-.382-.268.918-1.281.364z" fill="#345D9D"/></g><path d="M147.75 485.993c-.317-.906-1.184-1.014-2.198-.851l-.318-1.286-.774.194.31 1.254c-.201.054-.41.108-.612.163l-.309-1.262-.774.193.317 1.285a15.12 15.12 0 01-.488.132v-.008l-1.068.271.209.836s.565-.154.557-.139c.31-.077.457.078.527.232l.364 1.471c.031-.007.054-.015.085-.015l-.085.023.503 2.059c.007.101-.008.279-.225.333.016.008-.565.139-.565.139l.077.976 1.007-.256c.186-.046.371-.093.549-.131l.318 1.3.774-.194-.318-1.292c.217-.047.418-.101.62-.147l.317 1.285.774-.194-.317-1.3c1.277-.403 2.105-.968 1.912-2.238-.155-1.022-.728-1.347-1.51-1.339.395-.348.573-.828.341-1.494zm-.395 3.058c.24.975-1.432 1.277-1.95 1.409l-.426-1.727c.526-.123 2.128-.689 2.376.318zm-.952-2.338c.217.882-1.177 1.13-1.61 1.238l-.387-1.563c.433-.116 1.765-.604 1.997.325z" fill="#fff"/><rect x="94.395" y="335.395" width="244.21" height="245.21" rx="7.506" stroke="#D3E3FF" stroke-width=".79"/></g><path d="M94 64.6h246c6.296 0 11.4 5.104 11.4 11.4v506c0 11.267-9.133 20.4-20.4 20.4H103c-11.267 0-20.4-9.133-20.4-20.4V76c0-6.296 5.104-11.4 11.4-11.4z" stroke="#D3E3FF" stroke-width="1.2"/><path d="M83.5 150c7.426-.065 15.266-3.078 20.471-8.375a27.998 27.998 0 00-.346-39.596c-5.296-5.205-12.7-8.094-20.125-8.03V150z" fill="#ED6373"/><defs><linearGradient id="paint0_linear" x1="147.72" y1="453.657" x2="151.704" y2="457.762" gradientUnits="userSpaceOnUse"><stop offset=".21" stop-color="#F15A24"/><stop offset=".684" stop-color="#FBB03B"/></linearGradient><linearGradient id="paint1_linear" x1="144.643" y1="458.625" x2="140.659" y2="454.521" gradientUnits="userSpaceOnUse"><stop offset=".21" stop-color="#ED1E79"/><stop offset=".893" stop-color="#522785"/></linearGradient><clipPath id="clip0"><path fill="#fff" transform="translate(141.047 386.676)" d="M0 0h9.481v9.481H0z"/></clipPath><clipPath id="clip1"><path fill="#fff" transform="translate(137.887 513.09)" d="M0 0h15.802v15.802H0z"/></clipPath><filter id="filter0_d" x="0" y="0" width="437" height="736" filterUnits="userSpaceOnUse" color-interpolation-filters="sRGB"><feFlood flood-opacity="0" result="BackgroundImageFix"/><feColorMatrix in="SourceAlpha" values="0 0 0 0 0 0 0 0 0 0 0 0 0 0 0 0 0 0 127 0"/><feMorphology radius="12" in="SourceAlpha" result="effect1_dropShadow"/><feOffset dy="44"/><feGaussianBlur stdDeviation="44.5"/><feColorMatrix values="0 0 0 0 0.243137 0 0 0 0 0.329412 0 0 0 0 0.847059 0 0 0 0.23 0"/><feBlend in2="BackgroundImageFix" result="effect1_dropShadow"/><feBlend in="SourceGraphic" in2="effect1_dropShadow" result="shape"/></filter><filter id="filter1_d" x="91.63" y="335" width="249.741" height="262.592" filterUnits="userSpaceOnUse" color-interpolation-filters="sRGB"><feFlood flood-opacity="0" result="BackgroundImageFix"/><feColorMatrix in="SourceAlpha" values="0 0 0 0 0 0 0 0 0 0 0 0 0 0 0 0 0 0 127 0"/><feMorphology radius="10.271" in="SourceAlpha" result="effect1_dropShadow"/><feOffset dy="14.222"/><feGaussianBlur stdDeviation="6.321"/><feColorMatrix values="0 0 0 0 0.243137 0 0 0 0 0.329412 0 0 0 0 0.847059 0 0 0 0.1 0"/><feBlend in2="BackgroundImageFix" result="effect1_dropShadow"/><feBlend in="SourceGraphic" in2="effect1_dropShadow" result="shape"/></filter></defs></svg>