<svg width="46" height="46" fill="none" xmlns="http://www.w3.org/2000/svg"><path fill-rule="evenodd" clip-rule="evenodd" d="M23 46C10.297 46 0 35.703 0 23S10.297 0 23 0s23 10.297 23 23-10.297 23-23 23zm9.344-18.466c0-3.627-2.266-5.675-7.566-6.952V14.2c1.639.336 3.207 1.042 4.741 2.15l1.954-3.157a13.642 13.642 0 00-6.555-2.553V8.625h-3.034v1.948c-4.358.336-7.32 2.822-7.32 6.448 0 3.795 2.37 5.643 7.46 6.92v6.583c-2.267-.337-4.149-1.344-6.137-2.89l-2.23 3.057a16.524 16.524 0 008.227 3.326v3.358h3.034V34.05c4.427-.37 7.426-2.822 7.426-6.516zm-10.322-7.658c-2.683-.772-3.345-1.679-3.345-3.09 0-1.477 1.15-2.653 3.347-2.82l-.002 5.91zm6.208 7.892c0 1.613-1.255 2.721-3.452 2.89v-6.08c2.72.774 3.452 1.68 3.452 3.192v-.002z" fill="#199F27"/></svg>