<svg width="210" height="63" fill="none" xmlns="http://www.w3.org/2000/svg"><g clip-path="url(#clip0)"><path d="M0 8.3A8.3 8.3 0 018.3 0h193.4a8.3 8.3 0 018.3 8.3v45.653a8.3 8.3 0 01-8.3 8.3H8.3a8.3 8.3 0 01-8.3-8.3V8.3z" fill="#000"/><path fill-rule="evenodd" clip-rule="evenodd" d="M0 53.953V8.3A8.3 8.3 0 018.3 0h193.4a8.3 8.3 0 018.3 8.3v45.653a8.3 8.3 0 01-8.3 8.3H8.3a8.3 8.3 0 01-8.3-8.3zm1.245 0V8.3A7.055 7.055 0 018.3 1.245h193.4a7.055 7.055 0 017.055 7.055v45.653a7.055 7.055 0 01-7.055 7.055H8.3a7.055 7.055 0 01-7.055-7.055z" fill="#fff" fill-opacity=".3"/><path d="M106.406 33.82c-3.737 0-6.825 2.919-6.825 6.92 0 3.969 3.055 6.92 6.825 6.92 3.769 0 6.824-2.918 6.824-6.92s-3.055-6.92-6.824-6.92zm0 11.087c-2.048 0-3.835-1.74-3.835-4.198 0-2.492 1.788-4.197 3.835-4.197 2.046 0 3.834 1.705 3.834 4.197 0 2.459-1.788 4.197-3.834 4.197zM91.554 33.82c-3.77 0-6.826 2.919-6.826 6.92 0 3.969 3.056 6.92 6.826 6.92 3.77 0 6.824-2.918 6.824-6.92s-3.055-6.92-6.825-6.92zm0 11.087c-2.049 0-3.835-1.74-3.835-4.198 0-2.492 1.788-4.197 3.835-4.197 2.047 0 3.834 1.705 3.834 4.197 0 2.459-1.756 4.197-3.834 4.197zm-17.648-8.955v2.919h6.89c-.196 1.64-.747 2.853-1.56 3.673-1.007 1.017-2.567 2.132-5.33 2.132-4.258 0-7.539-3.476-7.539-7.773s3.283-7.838 7.54-7.838c2.306 0 3.965.918 5.2 2.1l2.046-2.068c-1.723-1.672-4.03-2.95-7.247-2.95-5.818 0-10.693 4.82-10.693 10.691S68.088 47.53 73.906 47.53c3.152 0 5.493-1.05 7.378-3.018 1.917-1.935 2.502-4.658 2.502-6.855 0-.688-.064-1.312-.163-1.837l-9.717.132zm72.214 2.263c-.553-1.542-2.307-4.395-5.819-4.395-3.51 0-6.402 2.788-6.402 6.92 0 3.87 2.892 6.92 6.728 6.92 3.119 0 4.907-1.935 5.654-3.05l-2.306-1.575c-.781 1.149-1.821 1.902-3.348 1.902-1.528 0-2.6-.688-3.283-2.099l9.067-3.837-.291-.786zm-9.231 2.33c-.064-2.658 2.049-4.035 3.542-4.035 1.203 0 2.178.59 2.535 1.476l-6.077 2.558zm-7.377 6.657h2.99v-20.27h-2.99v20.27zm-4.874-11.84h-.097c-.682-.82-1.949-1.542-3.576-1.542-3.412 0-6.499 3.05-6.499 6.92s3.119 6.888 6.499 6.888c1.625 0 2.892-.722 3.576-1.575h.097v.984c0 2.657-1.398 4.067-3.64 4.067-1.82 0-2.958-1.344-3.413-2.46l-2.599 1.116c.747 1.836 2.73 4.1 6.012 4.1 3.509 0 6.467-2.1 6.467-7.184v-12.43h-2.827v1.116zm-3.412 9.544c-2.048 0-3.77-1.738-3.77-4.164 0-2.426 1.723-4.198 3.77-4.198 2.015 0 3.64 1.772 3.64 4.198-.002 2.393-1.626 4.165-3.64 4.165zm38.836-17.973h-7.15v20.269h2.991v-7.676h4.159c3.315 0 6.564-2.427 6.564-6.296 0-3.87-3.249-6.297-6.564-6.297zm.096 9.775h-4.225v-6.955h4.225c2.21 0 3.51 1.87 3.51 3.476-.031 1.575-1.298 3.479-3.51 3.479zm18.396-2.92c-2.145 0-4.387.95-5.297 3.115l2.633 1.116c.585-1.116 1.625-1.476 2.731-1.476 1.56 0 3.119.95 3.152 2.623v.197c-.553-.328-1.69-.788-3.12-.788-2.86 0-5.753 1.607-5.753 4.56 0 2.722 2.34 4.46 4.94 4.46 2.015 0 3.119-.919 3.802-2h.097v1.574h2.891v-7.773c-.032-3.575-2.663-5.61-6.076-5.61v.001zm-.357 11.086c-.975 0-2.341-.493-2.341-1.705 0-1.574 1.689-2.165 3.152-2.165 1.3 0 1.918.296 2.731.689-.228 1.87-1.82 3.18-3.542 3.18zm16.866-10.626l-3.412 8.756h-.097l-3.542-8.757h-3.216l5.329 12.266-3.023 6.855h3.119l8.157-19.12h-3.315zm-26.778 12.954h2.99v-20.27h-2.99v20.27zM72.25 17.433v3.01h-1.244v-1.767h-5.718v1.767h-1.243v-3.01h.93c.31-.434.538-1.058.685-1.871.148-.821.221-1.712.221-2.673v-2.533h5.45v7.077h.918zm-2.22 0v-5.834h-2.86v1.51c0 .869-.07 1.674-.21 2.418-.13.744-.332 1.379-.603 1.906h3.672zm7.495 1.429c-.805 0-1.537-.19-2.196-.57a4.235 4.235 0 01-1.557-1.58 4.43 4.43 0 01-.558-2.196c0-.798.186-1.526.558-2.185a4.251 4.251 0 013.753-2.161 4.19 4.19 0 012.185.58 4.235 4.235 0 011.557 1.581c.38.659.57 1.387.57 2.185s-.19 1.53-.57 2.196a4.149 4.149 0 01-1.545 1.58c-.659.38-1.391.57-2.197.57zm0-1.243c.55 0 1.054-.132 1.511-.395a2.87 2.87 0 001.08-1.093c.264-.472.396-1.01.396-1.615 0-.604-.132-1.139-.395-1.604a2.847 2.847 0 00-1.081-1.104 2.972 2.972 0 00-1.51-.395c-.55 0-1.054.132-1.511.395a2.931 2.931 0 00-1.093 1.104c-.263.465-.395 1-.395 1.604 0 .604.132 1.143.395 1.615a2.971 2.971 0 002.603 1.487zm9.613 1.243c-.806 0-1.542-.19-2.208-.57a4.123 4.123 0 01-1.569-1.568 4.381 4.381 0 01-.569-2.208c0-.806.19-1.542.57-2.208a4.117 4.117 0 011.568-1.569 4.381 4.381 0 012.208-.57c.628 0 1.197.117 1.708.35.52.232.976.569 1.371 1.01l-.93.895a2.797 2.797 0 00-.952-.755 2.69 2.69 0 00-1.197-.256 3.13 3.13 0 00-1.534.384c-.457.255-.821.62-1.092 1.092-.271.465-.407 1.007-.407 1.627 0 .62.136 1.166.407 1.638.271.465.635.826 1.092 1.081a3.13 3.13 0 001.534.384c.93 0 1.72-.388 2.37-1.162l.942.906c-.403.473-.887.84-1.453 1.104a4.35 4.35 0 01-1.859.395zm6.45-7.262h-2.324v-1.244h5.95v1.243h-2.325v7.077h-1.301V11.6zm5.78 7.262c-.286 0-.53-.05-.732-.151v-1.267c.256.14.488.21.698.21.209 0 .375-.04.5-.117.123-.085.236-.24.336-.464l.291-.605-2.766-6.112h1.453l1.94 4.613h.07l1.952-4.613h1.453l-3.184 6.995c-.233.52-.515.903-.849 1.15-.325.241-.712.361-1.162.361zm6.323-8.506h6.194v8.32h-1.302V11.6h-3.59v7.077h-1.302v-8.32zm8.091 0h1.302v3.451h3.858v-3.451h1.29v8.32h-1.29V15.04h-3.858v3.637h-1.302v-8.32zm12.132 8.506c-.806 0-1.538-.19-2.196-.57a4.226 4.226 0 01-1.557-1.58 4.429 4.429 0 01-.558-2.196c0-.798.186-1.526.558-2.185a4.248 4.248 0 013.753-2.161c.806 0 1.534.194 2.185.58a4.241 4.241 0 011.557 1.581c.379.659.569 1.387.569 2.185s-.19 1.53-.569 2.196a4.147 4.147 0 01-1.546 1.58c-.658.38-1.39.57-2.196.57zm0-1.243c.55 0 1.054-.132 1.511-.395a2.866 2.866 0 001.08-1.093c.264-.472.396-1.01.396-1.615 0-.604-.132-1.139-.396-1.604a2.843 2.843 0 00-1.08-1.104 2.973 2.973 0 00-1.511-.395c-.55 0-1.054.132-1.511.395a2.93 2.93 0 00-1.092 1.104c-.263.465-.395 1-.395 1.604 0 .604.132 1.143.395 1.615a2.973 2.973 0 002.603 1.487zm8.522-7.263h3.126a2.6 2.6 0 011.22.29c.38.194.682.461.907.802.224.341.337.717.337 1.127 0 .411-.105.767-.314 1.07a1.92 1.92 0 01-.802.685v.07c.418.147.755.391 1.011.732.263.34.395.74.395 1.197 0 .457-.12.864-.36 1.22-.233.356-.55.635-.953.837-.395.193-.829.29-1.302.29h-3.265v-8.32zm3.068 3.486c.372 0 .67-.116.895-.349.232-.232.348-.5.348-.801a1.08 1.08 0 00-.337-.79c-.217-.233-.503-.35-.86-.35h-1.812v2.29h1.766zm.197 3.626c.396 0 .709-.124.942-.372a1.2 1.2 0 00.36-.86c0-.333-.124-.62-.372-.86-.24-.248-.565-.372-.976-.372h-1.917v2.464h1.963z" fill="#fff"/><path d="M44.28 37.8c4.972-2.755 8.742-4.854 9.067-5.017 1.039-.558 2.112-2.035 0-3.181-.682-.36-4.355-2.395-9.067-5.018l-6.532 6.657 6.532 6.56z" fill="#FFD900"/><path d="M37.747 31.242L16.948 52.397c.488.066 1.04-.065 1.69-.426 1.363-.753 15.826-8.724 25.641-14.168l-6.532-6.56z" fill="#F43249"/><path d="M37.748 31.242l6.532-6.625S20.1 11.3 18.638 10.515a2.508 2.508 0 00-1.721-.33L37.748 31.24z" fill="#00EE76"/><path d="M37.748 31.242L16.917 10.186c-.846.197-1.56.95-1.56 2.491v37.227c0 1.412.553 2.428 1.592 2.526l20.799-21.188z" fill="#00D3FF"/></g><defs><clipPath id="clip0"><path fill="#fff" d="M0 0h210v62.253H0z"/></clipPath></defs></svg>