<svg width="46" height="46" fill="none" xmlns="http://www.w3.org/2000/svg"><path d="M21.822 29.278c2.13-.008 6.785-.025 6.731-2.986-.052-3.028-4.523-2.846-6.703-2.756-.243.01-.46.019-.636.02l.1 5.726c.143-.004.316-.004.508-.004zm-.228-8.345c1.776-.002 5.654-.006 5.608-2.698-.05-2.755-3.774-2.592-5.593-2.511-.205.01-.383.017-.533.019l.09 5.192.428-.002z" fill="#F7931A"/><path fill-rule="evenodd" clip-rule="evenodd" d="M17.044 45.212c12.269 3.287 24.88-3.994 28.166-16.259C48.497 16.686 41.214 4.076 28.946.791 16.685-2.498 4.074 4.785.789 17.054c-3.287 12.264 3.994 24.875 16.257 28.16l-.002-.002zm8.776-32.474c3.357.297 6.015 1.328 6.312 4.408.221 2.255-.723 3.609-2.23 4.376 2.482.596 4.038 2.07 3.731 5.377-.38 4.105-3.442 5.208-7.813 5.457l-.002 4.314-2.6.002v-4.255c-.673 0-1.363-.005-2.078-.021l.002 4.274-2.6.001v-4.32l-.734-.008a73.42 73.42 0 00-1.124-.008l-3.385-.002.516-3.104s1.924.03 1.89 0c.737-.002.932-.53.978-.862l.002-6.819h.186l.088.001a2.1 2.1 0 00-.276-.018v-4.869c-.1-.527-.441-1.139-1.494-1.138.03-.038-1.89 0-1.89 0l-.001-2.776 3.588.001v.014c.539 0 1.093-.01 1.655-.021l.002-4.273 2.599.001v4.187c.694-.013 1.392-.028 2.076-.027V8.47h2.601v4.272-.004z" fill="#F7931A"/></svg>