<svg width="210" height="63" fill="none" xmlns="http://www.w3.org/2000/svg"><g clip-path="url(#clip0)"><path d="M0 8.3A8.3 8.3 0 018.3 0h193.4a8.3 8.3 0 018.3 8.3v45.653a8.3 8.3 0 01-8.3 8.3H8.3a8.3 8.3 0 01-8.3-8.3V8.3z" fill="#000"/><path fill-rule="evenodd" clip-rule="evenodd" d="M0 53.953V8.3A8.3 8.3 0 018.3 0h193.4a8.3 8.3 0 018.3 8.3v45.653a8.3 8.3 0 01-8.3 8.3H8.3a8.3 8.3 0 01-8.3-8.3zm1.245 0V8.3A7.055 7.055 0 018.3 1.245h193.4a7.055 7.055 0 017.055 7.055v45.653a7.055 7.055 0 01-7.055 7.055H8.3a7.055 7.055 0 01-7.055-7.055z" fill="#fff" fill-opacity=".3"/><path d="M47.456 32.394c-.021-3.648 1.632-6.398 4.97-8.426-1.867-2.674-4.692-4.146-8.415-4.43-3.526-.277-7.383 2.055-8.795 2.055-1.493 0-4.906-1.958-7.592-1.958-5.542.086-11.432 4.419-11.432 13.236 0 2.605.476 5.296 1.428 8.067 1.273 3.649 5.863 12.588 10.652 12.444 2.503-.059 4.274-1.776 7.532-1.776 3.162 0 4.8 1.776 7.592 1.776 4.83-.07 8.982-8.196 10.191-11.855-6.479-3.055-6.13-8.945-6.13-9.133zm-5.623-16.317c2.713-3.22 2.467-6.152 2.387-7.206-2.397.14-5.168 1.632-6.747 3.467-1.738 1.969-2.76 4.403-2.54 7.147 2.589.198 4.953-1.134 6.9-3.408zM76.677 45.05H73.93l-1.505-4.752h-5.232L65.76 45.05h-2.675l5.183-16.176h3.201l5.21 16.176zm-4.707-6.745l-1.36-4.224c-.145-.432-.414-1.448-.813-3.048h-.048c-.158.688-.414 1.705-.765 3.048l-1.337 4.224h4.323zm18.037.769c0 1.984-.534 3.552-1.6 4.703-.957 1.025-2.144 1.537-3.56 1.537-1.53 0-2.628-.552-3.297-1.656h-.05v6.145h-2.58V37.226c0-1.248-.032-2.527-.095-3.84h2.269l.144 1.848h.048c.86-1.392 2.166-2.088 3.918-2.088 1.37 0 2.513.544 3.427 1.632.918 1.089 1.375 2.52 1.375 4.296zm-2.628.095c0-1.135-.254-2.071-.765-2.808-.558-.768-1.306-1.152-2.245-1.152-.637 0-1.215.214-1.732.636-.518.425-.856.98-1.015 1.669-.08.32-.12.583-.12.79v1.945c0 .848.26 1.564.777 2.149.518.584 1.19.876 2.018.876.972 0 1.728-.377 2.269-1.128.542-.752.813-1.744.813-2.977zm15.982-.095c0 1.984-.533 3.552-1.602 4.703-.954 1.025-2.141 1.537-3.558 1.537-1.53 0-2.628-.552-3.296-1.656h-.048v6.145h-2.58V37.226c0-1.248-.032-2.527-.095-3.84h2.268l.144 1.848h.049c.859-1.392 2.164-2.088 3.917-2.088 1.369 0 2.512.544 3.429 1.632.914 1.089 1.372 2.52 1.372 4.296zm-2.628.095c0-1.135-.255-2.071-.766-2.808-.557-.768-1.304-1.152-2.244-1.152-.638 0-1.215.214-1.733.636-.517.425-.855.98-1.013 1.669-.08.32-.12.583-.12.79v1.945c0 .848.259 1.564.774 2.149.518.583 1.19.876 2.02.876.972 0 1.728-.377 2.27-1.128.541-.752.812-1.744.812-2.977zm17.559 1.345c0 1.376-.475 2.495-1.43 3.36-1.049.944-2.509 1.416-4.386 1.416-1.733 0-3.122-.336-4.173-1.008l.598-2.16a7.045 7.045 0 003.729 1.033c.971 0 1.727-.221 2.271-.661.54-.44.81-1.03.81-1.768 0-.656-.222-1.209-.669-1.658-.444-.448-1.186-.865-2.221-1.25-2.819-1.057-4.228-2.604-4.228-4.639 0-1.33.494-2.42 1.482-3.268.985-.85 2.299-1.274 3.942-1.274 1.466 0 2.683.256 3.654.768l-.645 2.112c-.907-.495-1.933-.743-3.081-.743-.908 0-1.617.224-2.125.672-.429.4-.645.887-.645 1.464 0 .64.246 1.169.74 1.584.429.385 1.209.8 2.342 1.249 1.385.56 2.403 1.215 3.057 1.966.653.75.978 1.686.978 2.805zm8.528-5.184h-2.843v5.664c0 1.44.501 2.16 1.505 2.16.461 0 .844-.04 1.146-.12l.071 1.968c-.508.19-1.177.286-2.006.286-1.018 0-1.815-.312-2.389-.935-.573-.625-.861-1.673-.861-3.145v-5.88h-1.693v-1.945h1.693v-2.135l2.534-.768v2.903h2.843v1.948zm12.829 3.792c0 1.793-.51 3.265-1.529 4.416-1.068 1.185-2.486 1.776-4.254 1.776-1.704 0-3.06-.568-4.071-1.703-1.012-1.136-1.518-2.569-1.518-4.296 0-1.807.521-3.288 1.565-4.439 1.042-1.152 2.447-1.728 4.215-1.728 1.704 0 3.075.567 4.109 1.704.99 1.102 1.483 2.526 1.483 4.27zm-2.676.084c0-1.076-.229-1.999-.692-2.768-.541-.931-1.314-1.396-2.316-1.396-1.037 0-1.824.466-2.365 1.396-.464.77-.692 1.708-.692 2.816 0 1.076.228 1.999.692 2.767.558.931 1.337 1.395 2.342 1.395.985 0 1.758-.474 2.316-1.42.476-.784.715-1.716.715-2.79zm11.061-3.541a4.453 4.453 0 00-.813-.072c-.907 0-1.609.344-2.103 1.033-.429.608-.645 1.376-.645 2.304v6.12h-2.578l.024-7.991c0-1.344-.033-2.568-.097-3.672h2.247l.094 2.232h.072c.272-.767.702-1.385 1.29-1.848.574-.417 1.195-.625 1.864-.625.239 0 .454.017.645.048v2.47zm11.536 3.001c0 .464-.03.856-.094 1.176h-7.739c.03 1.152.404 2.033 1.123 2.64.652.544 1.495.816 2.531.816 1.146 0 2.191-.183 3.131-.551l.404 1.799c-1.098.481-2.395.72-3.892.72-1.8 0-3.214-.532-4.242-1.596-1.026-1.063-1.54-2.491-1.54-4.283 0-1.759.478-3.224 1.435-4.392 1.002-1.247 2.356-1.87 4.059-1.87 1.673 0 2.94.623 3.8 1.87.682.99 1.024 2.216 1.024 3.671zm-2.46-.672c.017-.768-.151-1.432-.501-1.992-.446-.721-1.132-1.081-2.055-1.081-.844 0-1.53.351-2.054 1.056-.429.56-.684 1.233-.763 2.016h5.373zM65.742 18.656h1.329c1.284 0 2.036.577 2.036 1.55v.013c0 .901-.791 1.491-1.997 1.491-1.232 0-2.017-.486-2.12-1.349l-.007-.052h-1.42l.006.078c.097 1.544 1.472 2.594 3.54 2.594 2.005 0 3.483-1.154 3.483-2.698v-.012c0-1.259-.772-2.147-2.023-2.303v-.051c1.037-.24 1.738-1.11 1.738-2.147v-.013c0-1.446-1.284-2.444-3.165-2.444-1.958 0-3.236.966-3.333 2.548l-.006.09h1.394l.006-.09c.11-.804.791-1.277 1.894-1.277 1.122 0 1.77.499 1.77 1.329v.013c0 .895-.72 1.51-1.835 1.51h-1.29v1.22zm9.547 4.293c.908 0 1.692-.467 2.088-1.2h.032v1.077h1.401v-4.702c0-1.368-1.057-2.25-2.724-2.25-1.679 0-2.697.901-2.794 2.075l-.007.071h1.323l.013-.058c.117-.545.616-.927 1.427-.927.868 0 1.361.454 1.361 1.206v.512l-1.86.11c-1.615.098-2.536.824-2.536 2.01v.014c0 1.225.914 2.062 2.276 2.062zm-.863-2.095v-.013c0-.577.467-.947 1.31-.998l1.673-.104v.532c0 .888-.752 1.556-1.738 1.556-.752 0-1.245-.376-1.245-.973zm11.844-3.735v-1.115h-4.52v6.822h1.4v-5.707h3.12zm2.634 7.976h1.4v-3.417h.033c.402.79 1.187 1.284 2.153 1.284 1.712 0 2.834-1.369 2.834-3.54v-.007c0-2.18-1.116-3.541-2.854-3.541-.972 0-1.724.493-2.133 1.303h-.032v-1.173h-1.401v9.091zm3.203-3.34c-1.057 0-1.809-.92-1.809-2.334v-.006c0-1.42.746-2.341 1.81-2.341 1.102 0 1.79.888 1.79 2.34v.007c0 1.44-.688 2.335-1.79 2.335zm6.506 3.347c1.336 0 2.049-.545 2.555-1.959l2.542-7.14h-1.478l-1.719 5.552h-.045l-1.719-5.551h-1.517l2.484 6.828-.117.324c-.234.662-.597.837-1.258.837-.188 0-.35-.026-.46-.052v1.096c.168.032.46.065.732.065zm9.911-2.14c1.673 0 2.782-.85 2.782-2.12v-.014c0-.797-.493-1.342-1.395-1.524v-.051c.733-.17 1.207-.746 1.207-1.479v-.013c0-1.167-.96-1.887-2.53-1.887-1.536 0-2.541.726-2.704 1.939l-.006.052h1.336l.006-.046c.104-.518.616-.836 1.349-.836.739 0 1.18.343 1.18.927v.013c0 .61-.421.92-1.245.92h-.979v1.019h.986c.946 0 1.4.311 1.4.966v.013c0 .623-.531 1.005-1.394 1.005-.772 0-1.277-.298-1.433-.85l-.019-.064h-1.375l.006.058c.137 1.207 1.232 1.972 2.828 1.972zm5.475-.136h1.381l3.132-4.793h.058v4.793h1.394v-6.822h-1.381l-3.132 4.772h-.065v-4.772h-1.387v6.822zm14.119-6.822h-5.675v1.115h2.134v5.707h1.407v-5.707h2.134v-1.115zm5.267 6.958c1.653 0 2.71-.986 2.924-2.069l.02-.071h-1.336l-.019.052c-.175.512-.727.94-1.557.94-1.115 0-1.822-.752-1.848-2.043h4.831v-.473c0-2.05-1.173-3.424-3.086-3.424-1.913 0-3.146 1.427-3.146 3.56v.006c0 2.153 1.213 3.522 3.217 3.522zm-.065-5.94c.914 0 1.582.577 1.693 1.757h-3.424c.129-1.141.823-1.757 1.731-1.757zm9.906 5.804h3.138c1.479 0 2.4-.766 2.4-1.959v-.013c0-.836-.584-1.446-1.466-1.563v-.052c.655-.123 1.161-.765 1.161-1.472v-.012c0-1.083-.804-1.751-2.134-1.751h-3.099v6.822zm1.388-4.008v-1.777h1.42c.674 0 1.037.305 1.037.87v.012c0 .603-.389.895-1.18.895h-1.277zm0 2.97v-1.952h1.329c.921 0 1.381.305 1.381.96v.013c0 .648-.428.979-1.219.979h-1.491z" fill="#fff"/></g><defs><clipPath id="clip0"><path fill="#fff" d="M0 0h210v62.253H0z"/></clipPath></defs></svg>