<svg width="262" height="250" fill="none" xmlns="http://www.w3.org/2000/svg"><path d="M209.554 68.017c-21.76 0-21.795 30.94 0 30.94 21.794 0 21.794-30.94 0-30.94z" fill="#EBEBEB"/><path d="M222.792 86.389c-1.156 5.324-5.579 9.938-13.238 9.938-18.083 0-18.054-25.68 0-25.68h.358c-16.996.313-16.915 24.633.33 24.633 7.029.006 11.22-4.064 12.55-8.891z" fill="#DBDBDB"/><path d="M209.68 74.035a.577.577 0 01.579.515v.861a8.096 8.096 0 014.191 1.509c.208.15.329.277.329.497a.575.575 0 01-.613.538.615.615 0 01-.422-.15 6.985 6.985 0 00-3.532-1.4v6.03c3.579.688 5.082 1.913 5.082 4.046 0 2.284-2.093 3.897-5.035 3.984V92.1a.581.581 0 01-.925.323.58.58 0 01-.203-.323v-1.677a9.253 9.253 0 01-5.301-2.087.58.58 0 01-.26-.457.578.578 0 01.578-.537.649.649 0 01.428.15 7.878 7.878 0 004.59 1.96v-6.134c-3.532-.71-4.995-1.896-4.995-4.046 0-2.15 2.076-3.833 4.949-3.897v-.82a.543.543 0 01.56-.52zm-.514 8.186v-5.885c-2.284.046-3.792 1.295-3.792 2.844 0 1.55.751 2.37 3.792 3.04zm1.035 1.312v5.943c2.353-.04 3.885-1.29 3.885-2.93 0-1.487-.827-2.389-3.885-3.013z" fill="#DBDBDB"/><path d="M84.223.183c-21.76 0-21.794 30.94 0 30.94s21.794-30.94 0-30.94z" fill="#EBEBEB"/><path d="M97.456 18.573c-1.157 5.318-5.58 9.937-13.239 9.937-18.083 0-18.054-25.679 0-25.679h.359c-16.996.312-16.915 24.633.329 24.633 7.035.006 11.227-4.064 12.55-8.891z" fill="#DBDBDB"/><path d="M84.35 6.213a.578.578 0 01.578.52v.862a8.093 8.093 0 014.191 1.508c.209.15.33.278.33.492a.578.578 0 01-.613.537.578.578 0 01-.428-.15 7.059 7.059 0 00-3.526-1.399v6.053c3.578.694 5.081 1.92 5.081 4.047 0 2.283-2.092 3.902-5.035 3.988v1.677a.578.578 0 01-1.156 0v-1.74a9.25 9.25 0 01-5.295-2.093.579.579 0 01-.26-.45.577.577 0 01.578-.539.618.618 0 01.422.15 7.93 7.93 0 004.596 1.96v-6.139c-3.533-.71-4.995-1.896-4.995-4.046 0-2.151 2.075-3.833 4.942-3.903v-.815a.578.578 0 01.59-.52zm-.514 8.186v-5.88c-2.284.041-3.793 1.295-3.793 2.845 0 1.462.752 2.37 3.793 3.035zm1.034 1.312v5.949c2.353-.047 3.885-1.295 3.885-2.931 0-1.486-.826-2.359-3.885-3.018zM43.305 51.247c-19.597 3.514-14.418 32.54 5.203 29.02 19.62-3.52 14.418-32.541-5.203-29.02z" fill="#DBDBDB"/><path d="M45.143 50.917c-18.672 3.353-13.498 32.373 5.203 29.02 18.702-3.353 13.499-32.35-5.203-29.02z" fill="#EBEBEB"/><path d="M59.59 66.086c-.104 5.203-3.11 10.18-9.683 11.36-15.522 2.786-19.823-21.303-4.324-24.084l.306-.052c-14.533 2.89-10.365 25.708 4.428 23.055 6.041-1.064 8.95-5.527 9.273-10.279z" fill="#DBDBDB"/><path d="M46.265 56.542a.489.489 0 01.578.393l.144.81a6.693 6.693 0 013.85.768c.209.11.33.214.365.416a.52.52 0 01-.434.579.482.482 0 01-.387-.076 5.89 5.89 0 00-3.266-.768l1.017 5.66c3.185.092 4.683 1.01 5.041 2.994.382 2.139-1.156 3.977-3.654 4.509l.284 1.578a.493.493 0 01-.971.173l-.29-1.595a7.712 7.712 0 01-4.896-1.156.515.515 0 01.116-.977.51.51 0 01.393.075 6.642 6.642 0 004.266 1.127l-1.029-5.78c-3.15-.122-4.625-1.007-4.966-3.024-.34-2.018 1.156-3.92 3.584-4.423l-.138-.763a.503.503 0 01.393-.52zm.936 7.752l-.994-5.515c-1.948.393-3.035 1.798-2.77 3.255.244 1.37 1.041 2.104 3.764 2.26zm1.11 1.076l1 5.572c2.012-.399 3.116-1.81 2.839-3.341-.249-1.393-1.11-2.093-3.839-2.231zm123.753 37.553c-16.765 3.011-12.354 27.881 4.457 24.858 16.811-3.024 12.354-27.876-4.457-24.858z" fill="#DBDBDB"/><path d="M173.654 102.639c-15.996 2.891-11.562 27.749 4.463 24.858 16.025-2.89 11.545-27.73-4.463-24.858z" fill="#EBEBEB"/><path d="M186.014 115.658c-.087 4.428-2.665 8.723-8.296 9.729-13.296 2.388-16.979-18.25-3.706-20.632l.266-.04c-12.452 2.491-8.885 22.019 3.793 19.747 5.174-.93 7.665-4.752 7.943-8.804z" fill="#DBDBDB"/><path d="M176.828 107.449a.424.424 0 01.37.468l-.081.7a5.685 5.685 0 012.965 1.584.48.48 0 01.197.433.453.453 0 01-.503.382.42.42 0 01-.301-.162 5.007 5.007 0 00-2.486-1.439l-.578 4.89c2.59.867 3.59 1.995 3.388 3.706-.214 1.85-1.925 2.977-4.116 2.792l-.162 1.364a.422.422 0 01-.159.28.42.42 0 01-.309.09.432.432 0 01-.37-.468l.168-1.382a6.605 6.605 0 01-3.735-2.156.438.438 0 01-.144-.387.448.448 0 01.318-.372.446.446 0 01.468.146 5.689 5.689 0 003.22 1.989l.578-4.977c-2.555-.885-3.521-1.972-3.318-3.718.202-1.745 1.901-2.93 4.046-2.728l.075-.665a.433.433 0 01.159-.28.433.433 0 01.31-.09zm-1.157 6.59l.579-4.769c-1.7-.162-2.937.717-3.082 1.977-.144 1.26.307 1.983 2.498 2.821l.005-.029zm.642 1.157l-.578 4.815c1.734.173 3.006-.705 3.162-2.035.145-1.202-.376-2.012-2.59-2.752l.006-.028z" fill="#DBDBDB"/><path d="M115.48 185.544c-3.127 4.417-2.491 17.921-4.382 19.794-1.89 1.873-21.291 1.694-22.597.578-1.307-1.116-.688-5.873-2.157-6.66-.56-.306 29.136-13.712 29.136-13.712zm-82.83.208c3.909 5.636 1.799 17.684 3.69 19.574 1.89 1.891 21.29 1.694 22.597.578 1.306-1.115.705-6.133 1.48-7.087.41-.497-27.766-13.065-27.766-13.065z" fill="#EBEBEB"/><path d="M86.362 199.256a2.154 2.154 0 01.832 1.44 92.144 92.144 0 0025.98-6.989c.445-3.284 1.092-6.423 2.312-8.157-.011 0-29.703 13.4-29.124 13.706zM32.65 185.752c1.458 2.104 2.082 5.105 2.383 8.128a88.14 88.14 0 0024.95 6.902 4.298 4.298 0 01.434-1.954c.41-.508-27.766-13.076-27.766-13.076z" fill="#DBDBDB"/><path d="M75.378 104.015c39.021 0 53.954 30.541 53.954 48.416 0 17.637-11.343 47.612-53.954 47.612-42.611 0-56.752-25.396-56.752-48.017 0-22.621 17.32-48.011 56.752-48.011z" fill="#EBEBEB"/><path d="M64.353 106.218S46.537 92.552 27.234 94.182c-6.648.578 4.388 14.961 4.59 26.211l32.53-14.175z" fill="#EBEBEB"/><path d="M39.264 114.883c.116.711-6.035 3.347-6.671 2.943-.636-.405-1.278-9.25-6.296-18.707-.74-1.388 11.782 8.151 12.967 15.764z" fill="#DBDBDB"/><path d="M119.07 132.874a37.384 37.384 0 01-.491-3.434 32.403 32.403 0 01-.174-3.469 19.83 19.83 0 01.313-3.59 8.666 8.666 0 011.601-3.781 4.964 4.964 0 011.954-1.479c.37-.158.758-.266 1.156-.324.383-.056.77-.074 1.156-.052a6.807 6.807 0 013.821 1.538c.974.78 1.802 1.728 2.446 2.798a9.787 9.787 0 011.341 3.468c.149.747.093 1.52-.162 2.237a2.424 2.424 0 01-.884 1.122 2.582 2.582 0 01-1.284.422 2.366 2.366 0 01-1.347-.324 2.846 2.846 0 01-.873-.861 5.045 5.045 0 01-.682-1.844 10.182 10.182 0 01.035-3.504 8.232 8.232 0 011.237-3.249 3.881 3.881 0 011.347-1.26 2.856 2.856 0 011.838-.306 5.55 5.55 0 012.931 1.734 18.577 18.577 0 013.469 5.504 18.301 18.301 0 00-3.816-5.122 4.81 4.81 0 00-2.665-1.313 2.278 2.278 0 00-2.162 1.37 7.081 7.081 0 00-.769 2.845 8.52 8.52 0 00.249 2.936c.098.418.278.811.532 1.157.079.101.18.184.295.242a.327.327 0 00.214 0c.098 0 .213-.075.219-.109a.346.346 0 00.064-.162 2.219 2.219 0 00-.07-.995 8.09 8.09 0 00-3.22-4.312 3.678 3.678 0 00-2.156-.671c-.16.007-.319.033-.474.075-.129.031-.254.08-.37.145a1.58 1.58 0 00-.543.532 5.329 5.329 0 00-.642 2.214 15.851 15.851 0 000 2.89c.085 1.003.22 2 .405 2.989.185.989.422 2.029.676 2.931l-4.515 1.012z" fill="#EBEBEB"/><path d="M33.176 141.817c.058-.122.232.219.197.358-.856 3.342-1.272 7.313 1.526 9.105.087.052.04.22-.07.179-3.583-1.335-2.976-6.601-1.653-9.642z" fill="#DBDBDB"/><path d="M36.98 138.984c5.504.786 3.521 11.735-1.577 10.984-5.1-.752-3.035-11.62 1.578-10.984z" fill="#DBDBDB"/><path d="M22.268 134.388c-.85 2.561-8.59.486-10.539 2.104-3.07 2.55-2.22 34.16.579 36.704 1.578 1.428 10.353-.075 12.816 1.659 2.463 1.734-2.856-40.467-2.856-40.467z" fill="#EBEBEB"/><path d="M12.753 168.022c.795 0 1.44-6.243 1.44-13.944 0-7.701-.645-13.943-1.44-13.943-.795 0-1.44 6.242-1.44 13.943s.645 13.944 1.44 13.944zm77.737-53.879c-.128-.046-13.297-4.324-25.524-.977l-1.22-4.457c13.62-3.728 27.616.85 28.206 1.047l-1.463 4.387.734-2.196-.734 2.196z" fill="#DBDBDB"/><path d="M108.751 181.26c17.58-20.198 6.827-43.652 6.359-44.658a2.894 2.894 0 013.542-4.01 2.894 2.894 0 011.661 1.467 48.887 48.887 0 014.145 16.84c.844 12.839-3.405 24.638-13.458 32.668-3.07 2.416-4.503.289-2.249-2.307zm7.672-53.618a3.148 3.148 0 01-1.942 2.905 3.14 3.14 0 01-3.427-.681 3.152 3.152 0 01-.682-3.428 3.146 3.146 0 016.051 1.204z" fill="#fff"/><path d="M136.812 249.764c41.186 0 74.574-4.803 74.574-10.729 0-5.926-33.388-10.729-74.574-10.729s-74.574 4.803-74.574 10.729c0 5.926 33.388 10.729 74.574 10.729z" fill="#EBEBEB"/><path d="M93.079 229.259c0 4.209-17.828 7.626-39.82 7.626-21.99 0-39.818-3.417-39.818-7.626 0-4.208 17.828-7.625 39.819-7.625 21.99 0 39.819 3.429 39.819 7.625z" fill="#EBEBEB"/><path d="M206.166 150.546h-17.331v56.48h17.331v-56.48z" fill="#FFC727"/><path opacity=".1" d="M206.16 150.546h-3.965v56.48h3.965v-56.48z" fill="#000"/><path d="M228.995 132.168h-17.332v74.852h17.332v-74.852z" fill="#FFC727"/><path opacity=".1" d="M228.995 132.168h-3.966v74.852h3.966v-74.852z" fill="#000"/><path d="M183.383 161.495h-17.331v45.531h17.331v-45.531z" fill="#FFC727"/><path opacity=".1" d="M183.378 161.495h-3.966v45.531h3.966v-45.531z" fill="#000"/><path d="M251.83 107.703h-17.331v99.317h17.331v-99.317z" fill="#FFC727"/><path opacity=".1" d="M251.824 107.703h-3.966v99.317h3.966v-99.317z" fill="#000"/><path d="M166.052 177.618v-8.758s58.966-5.023 82.806-70.36h2.527s-15.985 67.597-85.333 79.118z" fill="#C7C7C7"/><path d="M253.437 101.31l-7.452-2.469 6.174-6.15 1.278 8.619z" fill="#C7C7C7"/><path d="M0 207.02l32.72-.139 32.72-.052 65.435-.092 65.435.092 32.72.052 32.72.139-32.72.145-32.72.052-65.435.092-65.435-.092-32.72-.052L0 207.02z" fill="#263238"/><path d="M188.598 231.242h-36.409v8.048h36.409v-8.048z" fill="#FFC727"/><path opacity=".1" d="M153.692 232a18.019 18.019 0 010 6.434 18.065 18.065 0 010-6.434zm2.712 0a18.065 18.065 0 010 6.434 18.065 18.065 0 010-6.434zm1.323 0a18.019 18.019 0 010 6.434 15.609 15.609 0 01-.289-3.22 15.963 15.963 0 01.289-3.214zm7.256 0a18.065 18.065 0 010 6.434 18.019 18.019 0 010-6.434zm1.983 0c.202 1.059.299 2.136.289 3.214a16.035 16.035 0 01-.289 3.22 15.61 15.61 0 01-.29-3.22 15.891 15.891 0 01.29-3.214zm8.133 0c.203 1.059.299 2.136.289 3.214a15.962 15.962 0 01-.289 3.22 15.609 15.609 0 01-.289-3.22c-.01-1.078.087-2.155.289-3.214zm1.879 0c.202 1.059.299 2.136.289 3.214a15.54 15.54 0 01-.289 3.22 15.962 15.962 0 01-.289-3.22c-.01-1.078.087-2.155.289-3.214zm3.451 0c.203 1.059.299 2.136.289 3.214a15.962 15.962 0 01-.289 3.22 15.609 15.609 0 01-.289-3.22c-.01-1.078.087-2.155.289-3.214zm-6.902 0a15.89 15.89 0 01.289 3.214 15.54 15.54 0 01-.289 3.22 15.962 15.962 0 01-.289-3.22c-.01-1.078.087-2.155.289-3.214zm-13.395 0a18.394 18.394 0 010 6.434 18.065 18.065 0 010-6.434zm9.423 0a18.019 18.019 0 010 6.434 18.065 18.065 0 010-6.434zm1.353 0a15.89 15.89 0 01.289 3.214 15.54 15.54 0 01-.289 3.22 15.962 15.962 0 01-.289-3.22c-.01-1.078.087-2.155.289-3.214zm14.019 0a15.89 15.89 0 01.289 3.214 15.54 15.54 0 01-.289 3.22 15.962 15.962 0 01-.289-3.22c-.01-1.078.087-2.155.289-3.214zm2.023 0c.203 1.059.299 2.136.289 3.214a15.962 15.962 0 01-.289 3.22 15.609 15.609 0 01-.289-3.22 15.963 15.963 0 01.289-3.214zm-4.919 0c.205 1.058.301 2.135.289 3.214a15.678 15.678 0 01-.289 3.22 15.963 15.963 0 01-.29-3.22c-.01-1.078.087-2.155.29-3.214zm-18.603 0a18.065 18.065 0 010 6.434 15.54 15.54 0 01-.289-3.22 15.89 15.89 0 01.289-3.214z" fill="#000"/><path opacity=".1" d="M188.598 231.242v1.712l-36.409 1.144v-2.856h36.409z" fill="#000"/><path d="M185.563 223.201h-36.409v8.047h36.409v-8.047z" fill="#FFC727"/><path opacity=".1" d="M183.921 230.375a18.052 18.052 0 010-6.44c.385 2.13.385 4.311 0 6.44zm-2.711 0a18.052 18.052 0 010-6.44c.385 2.13.385 4.311 0 6.44zm-1.324 0a16.401 16.401 0 01-.289-3.22c-.013-1.08.084-2.159.289-3.22a15.54 15.54 0 01.289 3.22 15.956 15.956 0 01-.289 3.22zm-7.272 0a18.052 18.052 0 010-6.44c.385 2.13.385 4.311 0 6.44zm-1.966 0a16.401 16.401 0 01-.289-3.22c-.013-1.08.084-2.159.289-3.22a15.54 15.54 0 01.289 3.22 16.401 16.401 0 01-.289 3.22zm-8.134 0a16.401 16.401 0 01-.289-3.22 15.54 15.54 0 01.289-3.22 15.54 15.54 0 01.289 3.22 16.401 16.401 0 01-.289 3.22zm-1.879 0a16.102 16.102 0 01-.289-3.22c-.015-1.08.082-2.159.289-3.22.206 1.061.302 2.14.29 3.22a16.479 16.479 0 01-.29 3.22zm-3.451 0a16.401 16.401 0 01-.289-3.22 15.54 15.54 0 01.289-3.22c.205 1.061.302 2.14.289 3.22a16.401 16.401 0 01-.289 3.22zm6.903 0a16.03 16.03 0 01-.29-3.22 15.61 15.61 0 01.29-3.22c.385 2.13.385 4.311 0 6.44zm13.394 0a18.098 18.098 0 010-6.44c.385 2.13.385 4.311 0 6.44zm-9.423 0a18.098 18.098 0 010-6.44c.386 2.13.386 4.311 0 6.44zm-1.341 0a15.956 15.956 0 01-.289-3.22 15.54 15.54 0 01.289-3.22c.385 2.13.385 4.311 0 6.44zm-14.03 0a15.956 15.956 0 01-.289-3.22 15.54 15.54 0 01.289-3.22c.385 2.13.385 4.311 0 6.44zm-2.036 0a16.478 16.478 0 01-.289-3.22c-.013-1.08.084-2.159.289-3.22a15.54 15.54 0 01.289 3.22 15.956 15.956 0 01-.289 3.22zm4.932 0a15.956 15.956 0 01-.289-3.22 15.54 15.54 0 01.289-3.22c.385 2.13.385 4.311 0 6.44zm18.603 0a16.401 16.401 0 01-.289-3.22c-.013-1.08.084-2.159.289-3.22.208 1.061.304 2.14.289 3.22a16.102 16.102 0 01-.289 3.22z" fill="#000"/><path opacity=".1" d="M185.557 223.201v1.706l-36.408 1.15v-2.856h36.408z" fill="#000"/><path d="M188.366 215.218h-36.408v8.047h36.408v-8.047z" fill="#FFC727"/><path opacity=".1" d="M153.455 215.958a18.019 18.019 0 010 6.434 18.065 18.065 0 010-6.434zm2.711 0a18.019 18.019 0 010 6.434 18.065 18.065 0 010-6.434zm1.33 0a18.442 18.442 0 010 6.434 18.019 18.019 0 010-6.434zm7.267 0a18.065 18.065 0 010 6.434 18.019 18.019 0 010-6.434zm1.954 0a18.065 18.065 0 010 6.434 18.019 18.019 0 010-6.434zm8.151 0a18.065 18.065 0 010 6.434 18.019 18.019 0 010-6.434zm1.879 0a18.065 18.065 0 010 6.434 18.019 18.019 0 010-6.434zm3.451 0a18.065 18.065 0 010 6.434 18.019 18.019 0 010-6.434zm-6.903 0a18.019 18.019 0 010 6.434 15.62 15.62 0 01-.289-3.214 15.95 15.95 0 01.289-3.22zm-13.4 0a15.95 15.95 0 01.289 3.22 15.483 15.483 0 01-.289 3.214 18.065 18.065 0 010-6.434zm9.423 0a18.065 18.065 0 010 6.434 18.065 18.065 0 010-6.434zm1.358 0a18.019 18.019 0 010 6.434 15.551 15.551 0 01-.289-3.214 15.95 15.95 0 01.289-3.22zm14.019 0a18.019 18.019 0 010 6.434 18.065 18.065 0 010-6.434zm2.035 0a18.019 18.019 0 010 6.434 18.065 18.065 0 010-6.434zm-4.931 0a18.019 18.019 0 010 6.434 15.483 15.483 0 01-.289-3.214 15.95 15.95 0 01.289-3.22zm-18.609 0a18.019 18.019 0 010 6.434 18.442 18.442 0 010-6.434z" fill="#000"/><path opacity=".1" d="M188.361 215.218v1.711l-36.403 1.15v-2.861h36.403z" fill="#000"/><path d="M80.118 221.368H43.71v8.048h36.408v-8.048z" fill="#FFC727"/><path opacity=".1" d="M45.213 222.101a18.08 18.08 0 010 6.44 18.075 18.075 0 010-6.44zm2.711.002c.386 2.129.386 4.31 0 6.44a18.08 18.08 0 010-6.44zm1.324 0c.385 2.129.385 4.31 0 6.44a18.075 18.075 0 010-6.44zm7.272 0c.378 2.13.378 4.31 0 6.44a18.075 18.075 0 010-6.44zm1.966 0a18.08 18.08 0 010 6.44 15.568 15.568 0 01-.289-3.22 16 16 0 01.29-3.22zm8.134 0a18.08 18.08 0 010 6.44 15.56 15.56 0 01-.289-3.22 15.992 15.992 0 01.29-3.22zm1.879 0c.202 1.061.299 2.14.289 3.22a15.97 15.97 0 01-.29 3.22 15.56 15.56 0 01-.288-3.22c-.01-1.08.087-2.159.289-3.22zm3.451 0c.202 1.061.299 2.14.29 3.22a15.97 15.97 0 01-.29 3.22 15.56 15.56 0 01-.289-3.22 15.992 15.992 0 01.29-3.22zm-6.903 0c.202 1.061.299 2.14.29 3.22a15.56 15.56 0 01-.29 3.22 15.962 15.962 0 01-.289-3.22c-.01-1.08.087-2.159.29-3.22zm-13.371 0a18.073 18.073 0 010 6.428 18.08 18.08 0 010-6.44v.012zm9.4 0c.377 2.13.377 4.31 0 6.44a18.075 18.075 0 010-6.44zm1.352 0c.202 1.061.3 2.14.29 3.22a15.568 15.568 0 01-.29 3.22 15.962 15.962 0 01-.289-3.22c-.01-1.08.087-2.159.29-3.22zm14.02 0c.202 1.061.298 2.14.289 3.22a15.568 15.568 0 01-.29 3.22 15.56 15.56 0 01-.288-3.22c-.01-1.08.087-2.159.289-3.22zm2.034 0c.386 2.129.386 4.31 0 6.44a18.08 18.08 0 010-6.44zm-4.931 0c.202 1.061.299 2.14.29 3.22a15.56 15.56 0 01-.29 3.22 15.97 15.97 0 01-.289-3.22c-.01-1.08.087-2.159.29-3.22zm-18.603 0a18.08 18.08 0 010 6.44 18.075 18.075 0 010-6.44z" fill="#000"/><path opacity=".1" d="M80.112 221.368v1.712l-36.402 1.144v-2.856h36.402z" fill="#000"/><path d="M77.626 213.321H41.218v8.047h36.408v-8.047z" fill="#FFC727"/><path opacity=".1" d="M42.721 214.079a18.046 18.046 0 010 6.434 15.497 15.497 0 01-.289-3.214c-.013-1.081.084-2.16.29-3.22zm2.711 0a18.046 18.046 0 010 6.434 15.504 15.504 0 01-.289-3.214 15.92 15.92 0 01.29-3.22zm1.324 0c.203 1.061.3 2.139.29 3.22a15.504 15.504 0 01-.29 3.214 15.504 15.504 0 01-.289-3.214c-.01-1.081.087-2.159.29-3.22zm7.273 0a18.046 18.046 0 010 6.434 18.051 18.051 0 010-6.434zm1.965 0a15.95 15.95 0 01.29 3.22 15.504 15.504 0 01-.29 3.214 15.91 15.91 0 01-.289-3.214c-.01-1.081.087-2.159.29-3.22zm8.134 0a15.95 15.95 0 01.289 3.22 15.497 15.497 0 01-.29 3.214 15.91 15.91 0 01-.288-3.214c-.01-1.081.086-2.159.289-3.22zm1.879 0a18.046 18.046 0 010 6.434 18.046 18.046 0 010-6.434zm3.451 0a15.92 15.92 0 01.289 3.22 15.504 15.504 0 01-.289 3.214 18.046 18.046 0 010-6.434zm-6.903 0a18.051 18.051 0 010 6.434 18.046 18.046 0 010-6.434zm-13.394 0a18.046 18.046 0 010 6.434 18.046 18.046 0 010-6.434zm9.452 0a18.046 18.046 0 010 6.434 15.504 15.504 0 01-.29-3.214 15.92 15.92 0 01.29-3.22zm1.323 0a18.046 18.046 0 010 6.434 18.046 18.046 0 010-6.434zm14.02 0a18.046 18.046 0 010 6.434 18.046 18.046 0 010-6.434zm2.034 0c.203 1.061.3 2.139.29 3.22a15.504 15.504 0 01-.29 3.214 15.91 15.91 0 01-.289-3.214c-.01-1.081.087-2.159.29-3.22zm-4.93 0a18.046 18.046 0 010 6.434 18.046 18.046 0 010-6.434zm-18.604 0c.203 1.061.3 2.139.29 3.22a15.91 15.91 0 01-.29 3.214 15.504 15.504 0 01-.289-3.214c-.01-1.081.087-2.159.29-3.22z" fill="#000"/><path opacity=".1" d="M77.626 213.321v1.712l-36.408 1.15v-2.862h36.408z" fill="#000"/><path d="M83.251 197.302H46.843v8.047h36.408v-8.047z" fill="#FFC727"/><path opacity=".1" d="M48.346 198.037a18.051 18.051 0 010 6.434 18.046 18.046 0 010-6.434zm2.711 0a18.046 18.046 0 010 6.434 18.046 18.046 0 010-6.434zm1.324 0c.203 1.061.3 2.139.29 3.22a15.91 15.91 0 01-.29 3.214 15.503 15.503 0 01-.289-3.214c-.01-1.081.087-2.159.29-3.22zm7.273 0a18.051 18.051 0 010 6.434 18.046 18.046 0 010-6.434zm1.966 0c.202 1.061.299 2.139.289 3.22a15.51 15.51 0 01-.29 3.214 15.91 15.91 0 01-.288-3.214c-.01-1.081.086-2.159.289-3.22zm8.133 0a15.95 15.95 0 01.29 3.22 15.51 15.51 0 01-.29 3.214 15.91 15.91 0 01-.289-3.214c-.01-1.081.087-2.159.29-3.22zm1.879 0a15.95 15.95 0 01.289 3.22 15.51 15.51 0 01-.29 3.214 18.046 18.046 0 010-6.434zm3.451 0c.205 1.06.302 2.139.29 3.22a15.51 15.51 0 01-.29 3.214 15.91 15.91 0 01-.289-3.214c-.01-1.081.087-2.159.29-3.22zm-6.903 0a18.051 18.051 0 010 6.434 18.046 18.046 0 010-6.434zm-13.394 0a18.046 18.046 0 010 6.434 18.046 18.046 0 010-6.434zm9.424 0a18.046 18.046 0 010 6.434 18.046 18.046 0 010-6.434zm1.34 0a18.051 18.051 0 010 6.434 18.046 18.046 0 010-6.434zm14.03 0a18.046 18.046 0 010 6.434 18.046 18.046 0 010-6.434zm2.036 0c.202 1.061.299 2.139.289 3.22a15.51 15.51 0 01-.29 3.214 15.51 15.51 0 01-.288-3.214c-.01-1.081.087-2.159.289-3.22zm-4.931 0a18.046 18.046 0 010 6.434 18.046 18.046 0 010-6.434zm-18.604 0c.203 1.061.3 2.139.29 3.22a15.91 15.91 0 01-.29 3.214 15.51 15.51 0 01-.289-3.214 15.95 15.95 0 01.29-3.22z" fill="#000"/><path opacity=".1" d="M83.251 197.302v1.706l-36.408 1.15v-2.856h36.408z" fill="#000"/><path d="M82.332 189.255H45.924v8.047h36.408v-8.047z" fill="#FFC727"/><path opacity=".1" d="M80.696 196.429a16.386 16.386 0 01-.289-3.22 15.6 15.6 0 01.29-3.219 15.6 15.6 0 01.288 3.219 16.394 16.394 0 01-.289 3.22zm-2.711 0a16.394 16.394 0 01-.289-3.22 15.6 15.6 0 01.29-3.219 15.6 15.6 0 01.288 3.219 16.386 16.386 0 01-.289 3.22zm-1.324 0a15.95 15.95 0 01-.29-3.22c-.014-1.08.082-2.159.29-3.219.385 2.129.385 4.31 0 6.439zm-7.272 0a16.386 16.386 0 01-.29-3.22 15.99 15.99 0 01.29-3.219 15.6 15.6 0 01.289 3.219 16.394 16.394 0 01-.29 3.22zm-1.966 0a18.07 18.07 0 010-6.439c.385 2.129.385 4.31 0 6.439zm-8.133 0a18.074 18.074 0 010-6.439 18.07 18.07 0 010 6.439zm-1.88 0a18.074 18.074 0 010-6.439 18.07 18.07 0 010 6.439zm-3.422 0a18.07 18.07 0 010-6.439c.386 2.129.386 4.31 0 6.439zm6.874 0a18.074 18.074 0 010-6.439c.378 2.13.378 4.309 0 6.439zm13.394 0a16.386 16.386 0 01-.289-3.22 15.99 15.99 0 01.29-3.219c.207 1.06.304 2.139.288 3.219a15.95 15.95 0 01-.289 3.22zm-9.422 0a16.386 16.386 0 01-.29-3.22 15.99 15.99 0 01.29-3.219c.207 1.06.304 2.139.289 3.219a16.386 16.386 0 01-.29 3.22zm-1.354 0a18.07 18.07 0 010-6.439c.378 2.13.378 4.309 0 6.439zm-14.018 0a18.074 18.074 0 010-6.439 18.07 18.07 0 010 6.439zm-2.035 0a18.074 18.074 0 010-6.439 18.07 18.07 0 010 6.439zm4.931 0a18.074 18.074 0 010-6.439c.378 2.13.378 4.309 0 6.439zm18.603 0a15.957 15.957 0 01-.289-3.22 15.6 15.6 0 01.29-3.219 18.07 18.07 0 010 6.439z" fill="#000"/><path opacity=".1" d="M82.332 189.255v1.711l-36.408 1.145v-2.856h36.408z" fill="#000"/><path d="M80.118 181.208H43.71v8.047h36.408v-8.047z" fill="#FFC727"/><path opacity=".1" d="M45.213 181.948a18.046 18.046 0 010 6.434 18.046 18.046 0 010-6.434zm2.711 0a18.046 18.046 0 010 6.434 18.046 18.046 0 010-6.434zm1.324 0c.203 1.061.3 2.14.29 3.22a15.898 15.898 0 01-.29 3.214 15.491 15.491 0 01-.289-3.214c-.013-1.08.084-2.159.29-3.22zm7.272 0a18.046 18.046 0 010 6.434 18.046 18.046 0 010-6.434zm1.966 0c.203 1.061.3 2.14.29 3.22a15.898 15.898 0 01-.29 3.214 15.498 15.498 0 01-.289-3.214c-.01-1.08.087-2.159.29-3.22zm8.134 0c.203 1.061.3 2.14.29 3.22a15.898 15.898 0 01-.29 3.214 15.505 15.505 0 01-.289-3.214c-.01-1.08.087-2.159.289-3.22zm1.879 0c.205 1.061.302 2.14.289 3.22a15.498 15.498 0 01-.29 3.214 15.898 15.898 0 01-.288-3.214c-.01-1.08.086-2.159.289-3.22zm3.451 0c.203 1.061.3 2.14.29 3.22a15.491 15.491 0 01-.29 3.214 15.898 15.898 0 01-.289-3.214c-.01-1.08.087-2.159.29-3.22zm-6.902 0c.205 1.061.302 2.14.289 3.22a15.505 15.505 0 01-.29 3.214 18.046 18.046 0 010-6.434zm-13.372 0a18.046 18.046 0 010 6.434 18.046 18.046 0 010-6.434zm9.4 0a18.051 18.051 0 010 6.434 18.046 18.046 0 010-6.434zm1.353 0c.205 1.061.302 2.14.289 3.22a15.498 15.498 0 01-.29 3.214 18.046 18.046 0 010-6.434zm14.019 0c.205 1.061.302 2.14.289 3.22a15.498 15.498 0 01-.29 3.214 15.898 15.898 0 01-.288-3.214c-.01-1.08.086-2.159.289-3.22zm2.034 0c.203 1.061.3 2.14.29 3.22a15.898 15.898 0 01-.29 3.214 15.505 15.505 0 01-.289-3.214c-.013-1.08.084-2.159.289-3.22zm-4.931 0c.206 1.061.302 2.14.29 3.22a15.498 15.498 0 01-.29 3.214 18.051 18.051 0 010-6.434zm-18.603 0a18.046 18.046 0 010 6.434 15.498 15.498 0 01-.289-3.214c-.013-1.08.084-2.159.29-3.22z" fill="#000"/><path opacity=".1" d="M80.118 181.208v1.711L43.71 184.07v-2.862h36.408z" fill="#000"/><path d="M80.118 205.344H43.71v8.047h36.408v-8.047z" fill="#FFC727"/><path opacity=".1" d="M78.482 212.518a15.933 15.933 0 01-.289-3.22 15.505 15.505 0 01.289-3.214 18.046 18.046 0 010 6.434zm-2.712 0a15.926 15.926 0 01-.288-3.22 15.491 15.491 0 01.289-3.214 18.046 18.046 0 010 6.434zm-1.323 0a18.046 18.046 0 010-6.434 18.046 18.046 0 010 6.434zm-7.272 0a15.933 15.933 0 01-.29-3.22 15.498 15.498 0 01.29-3.214 15.89 15.89 0 01.289 3.214c.01 1.08-.087 2.159-.29 3.22zm-1.965 0a18.046 18.046 0 010-6.434 18.046 18.046 0 010 6.434zm-8.134 0a18.046 18.046 0 010-6.434 18.413 18.413 0 010 6.434zm-1.885 0a18.046 18.046 0 010-6.434 18.046 18.046 0 010 6.434zm-3.451 0a18.408 18.408 0 010-6.434 18.046 18.046 0 010 6.434zm6.902 0a18.051 18.051 0 010-6.434 18.046 18.046 0 010 6.434zm13.401 0a15.926 15.926 0 01-.29-3.22 15.498 15.498 0 01.29-3.214c.205 1.058.301 2.135.289 3.214.01 1.08-.087 2.159-.29 3.22zm-9.423 0a15.926 15.926 0 01-.29-3.22 15.491 15.491 0 01.29-3.214c.204 1.058.301 2.135.288 3.214.01 1.08-.086 2.159-.289 3.22zm-1.359 0a18.046 18.046 0 010-6.434 18.046 18.046 0 010 6.434zm-14.019 0a18.046 18.046 0 010-6.434 18.051 18.051 0 010 6.434zm-2.029 0a18.046 18.046 0 010-6.434 18.046 18.046 0 010 6.434zm4.925 0a18.051 18.051 0 010-6.434 18.046 18.046 0 010 6.434zm18.609 0a18.046 18.046 0 010-6.434 18.046 18.046 0 010 6.434z" fill="#000"/><path opacity=".1" d="M80.118 205.344v1.711l-36.408 1.15v-2.861h36.408z" fill="#000"/><path d="M41.224 198.47c23.962 4.301 17.638 39.802-6.36 35.495-23.996-4.307-17.648-39.819 6.36-35.495z" fill="#FFC727"/><path opacity=".1" d="M41.224 198.47c23.962 4.301 17.638 39.802-6.36 35.495-23.996-4.307-17.648-39.819 6.36-35.495z" fill="#000"/><path d="M38.958 198.048c22.84 4.099 16.504 39.6-6.36 35.495-22.863-4.104-16.504-39.599 6.36-35.495z" fill="#FFC727"/><path opacity=".1" d="M21.303 216.628c.121 6.33 3.78 12.481 11.874 13.898 18.984 3.405 24.24-26.061 5.284-29.483-.122 0-.249-.047-.37-.058 17.77 3.555 12.677 31.442-5.423 28.194-7.411-1.301-10.972-6.764-11.365-12.551z" fill="#000"/><path opacity=".1" d="M37.761 204.748a.579.579 0 01.44.729l-.243.977a8.186 8.186 0 013.89 2.786.688.688 0 01.197.642.643.643 0 01-.787.451.587.587 0 01-.393-.278 7.145 7.145 0 00-3.26-2.497l-1.7 6.821c3.51 1.735 4.723 3.469 4.122 5.868-.642 2.584-3.266 3.868-6.359 3.209l-.474 1.896a.595.595 0 01-1.156-.289l.48-1.925a9.424 9.424 0 01-4.891-3.729.632.632 0 01.619-1.035.635.635 0 01.399.278 8.128 8.128 0 004.197 3.405l1.734-6.938c-3.469-1.734-4.625-3.433-4.047-5.867.578-2.434 3.226-3.804 6.215-3.133l.23-.925a.579.579 0 01.787-.446zm-2.85 9.123l1.66-6.654c-2.377-.538-4.285.485-4.724 2.237-.405 1.659.116 2.891 3.064 4.417zm.7 1.734l-1.677 6.723c2.451.578 4.388-.456 4.845-2.312.427-1.659-.168-2.896-3.163-4.394l-.005-.017z" fill="#000"/><path d="M177.735 215.322c-1.324.427-39.114-.064-40.542-1.001-.549-.341-.797-5.85-.907-12.521v-.208a200.422 200.422 0 01-.046-4.22v-.578l1.832-19.604 25.28.255-2.497 19.418-.029.769-.15 4.047v.41s14.383 6.66 15.845 7.851c1.463 1.19 2.544 4.96 1.214 5.382z" fill="#F7A9A0"/><path d="M177.735 215.322c-1.324.427-39.114-.064-40.542-1-.549-.342-.797-5.851-.907-12.522v-.208a200.422 200.422 0 01-.046-4.22v-.578l24.615.069-.029.769-.15 4.047v.41s14.383 6.66 15.845 7.851c1.463 1.19 2.544 4.96 1.214 5.382z" fill="#EBEBEB"/><path d="M177.741 215.316c-.682.219-10.949.196-20.985 0a842.73 842.73 0 01-5.937-.139c-7.157-.197-13.07-.491-13.62-.85-.549-.358-.792-5.7-.901-12.244v-.491h.028l24.356.046v.416s14.383 6.654 15.839 7.845c1.457 1.191 2.544 4.995 1.22 5.417z" fill="#37474F"/><path d="M177.331 213.847c-6.359-.237-32.079-.578-38.392-.352-.052 0-.052.034 0 .04 6.307.376 32.015.526 38.386.416.139 0 .139-.098.006-.104zm-13.95-12.105c-2.497-.503-5.573-.156-7.515 1.607-.075.064 0 .174.104.145a35.251 35.251 0 017.394-1.434.162.162 0 00.017-.318zm1.798 1.11c-2.503-.497-5.573-.15-7.515 1.607-.075.069 0 .174.104.15a35.27 35.27 0 017.388-1.439.166.166 0 00.1-.048.163.163 0 00.015-.208.162.162 0 00-.092-.062zm1.792 1.116c-2.497-.497-5.573-.156-7.515 1.607-.075.069 0 .173.104.15a35.26 35.26 0 017.394-1.439.164.164 0 00.141-.152.162.162 0 00-.124-.166z" fill="#263238"/><path d="M162.329 201.725h-29.656s6.44-58.538 6.226-59.648c-.11-.578-5.44-8.625-11.776-18.042-3.544-5.273-7.4-10.984-10.828-16.025-5.665-8.348-10.168-14.938-10.168-14.938h29.037s3.908 4.717 9.03 11.394c7.249 9.458 16.933 22.841 21.39 32.31 3.445 7.353-3.255 64.949-3.255 64.949z" fill="#455A64"/><path d="M158.178 140.689c-.578-3.26-2.179-6.116-3.792-8.948-3.336-5.862-18.372-28.206-22.546-33.472l-1.601-2c-.035-.047-.11 0-.075.046 4.087 5.278 18.984 27.419 22.326 33.177 1.647 2.832 3.468 5.694 4.549 8.822 1.116 3.295.96 6.798.787 10.226a1041.536 1041.536 0 01-3.018 42.594c-.081.873-.162 1.734-.237 2.625-.029.277.249.306.277 0 .683-7.105 1.434-14.141 1.966-21.257.532-7.116 1-14.325 1.387-21.494.191-3.41.555-6.914-.023-10.319zm2.943 56.388c-4.157-.087-2.96-.122-7.116-.162-2.035 0-15.407-.133-17.309.179-.04 0-.04.081 0 .087 1.902.312 15.274.196 17.309.179 4.156-.04 2.959-.075 7.116-.162a.06.06 0 00.043-.018.06.06 0 00.018-.042.06.06 0 00-.018-.043.06.06 0 00-.043-.018zm-24.662-58.995c-7.596-11.723-30.332-45.01-30.332-45.01h15.215l15.117 45.01z" fill="#263238"/><path d="M74.76 240.168c1.329.416 39.113-.462 40.529-1.411.544-.352.735-5.861.781-12.533v-.208c0-1.37 3.168-24.465 3.168-24.465l-24.696.503-2.856 24.28v.416s-14.297 6.782-15.73 7.984c-1.434 1.202-2.526 5.024-1.197 5.434z" fill="#F7A9A0"/><path d="M74.76 240.168c1.329.416 39.113-.462 40.529-1.41.544-.353.735-5.862.781-12.533v-.209s.578-4.624.578-4.821l-24.384.434-.55 4.682v.416s-14.325 6.805-15.758 8.007c-1.434 1.203-2.526 5.024-1.197 5.434z" fill="#EBEBEB"/><path d="M74.76 240.168c1.329.416 39.113-.462 40.529-1.411.544-.352.735-5.861.781-12.533v-.208l-24.384.295v.416s-14.297 6.804-15.73 8.007c-1.434 1.202-2.526 5.024-1.197 5.434z" fill="#37474F"/><path d="M75.152 238.694c6.36-.306 32.067-.931 38.386-.746.052 0 .052.035 0 .041-6.302.439-32.01.855-38.386.809-.133 0-.133-.098 0-.104zm13.823-12.25c2.497-.526 5.567-.214 7.515 1.526.075.07 0 .179-.104.151a35.302 35.302 0 00-7.405-1.359.162.162 0 01-.135-.157.161.161 0 01.129-.161zm-1.787 1.133c2.497-.526 5.573-.214 7.515 1.526.075.07 0 .174-.104.151a34.907 34.907 0 00-7.405-1.359.158.158 0 01-.096-.054.16.16 0 01-.004-.206.161.161 0 01.094-.058zm-1.78 1.133c2.491-.526 5.567-.214 7.515 1.526.075.07 0 .174-.104.151a35.372 35.372 0 00-7.406-1.365.158.158 0 01-.11-.043.156.156 0 01.105-.269z" fill="#263238"/><path d="M135.164 93.072s-3.468 21.21-3.717 21.892c0 0-1.295.613-3.63 1.688l-10.308 109.989-27.21.11 15.169-133.68h29.696z" fill="#455A64"/><path d="M116.579 221.802c-4.157-.069-2.96-.11-7.123-.133-2.029 0-15.4-.069-17.302.254-.04 0-.04.075 0 .087 1.908.306 15.273.133 17.308.104 4.157-.058 2.96-.087 7.117-.191a.057.057 0 00.029.002.06.06 0 00.046-.034.055.055 0 00.007-.028.06.06 0 00-.007-.029.06.06 0 00-.046-.034.057.057 0 00-.029.002zM112.26 97.176c-1.058 15.152-2.15 30.304-3.388 45.444-1.237 15.141-2.717 30.368-4.549 45.502-1.023 8.452-2.139 20.361-3.365 28.783 0 .058.081.081.087 0 2.538-14.972 4.324-33.529 5.856-48.652 1.532-15.123 2.752-30.246 3.827-45.392l1.734-25.708c-.005-.104-.196-.098-.202.023zm20.349 17.129a50.053 50.053 0 00-7.781 4.076.09.09 0 00-.027.021.087.087 0 00-.016.03c-.004.011-.005.023-.004.034a.09.09 0 00.009.033.097.097 0 00.052.044c.011.003.023.004.034.003a.09.09 0 00.033-.009c2.625-1.272 5.307-2.503 7.856-3.92a.172.172 0 00.078-.234.17.17 0 00-.101-.087.171.171 0 00-.133.009zm-1.035-12.151c-.428 2.538-.665 5.116-.948 7.671-.069.613-.144 1.231-.208 1.844a3.566 3.566 0 01-.445 1.613c-.549.856-1.538 1.254-2.434 1.648-.104.046-.063.208.052.173a5.908 5.908 0 002.59-1.37c.815-.861.786-2.168.913-3.278.357-2.749.551-5.517.579-8.29.017-.063-.087-.081-.099-.011z" fill="#263238"/><path d="M128.493 102.934c-.092 1.827-.295 3.654-.451 5.48a104.99 104.99 0 00-.19 2.706c-.053.902-.162 1.856-.133 2.769a.051.051 0 00.021.029.055.055 0 00.033.011.055.055 0 00.034-.011.051.051 0 00.021-.029c.151-.867.174-1.769.243-2.648.07-.878.139-1.85.191-2.775.104-1.844.15-3.705.318-5.549-.017-.047-.087-.041-.087.017z" fill="#263238"/><path d="M144.171 104.466l-11.151 1.416-16.765 2.128-12.718 1.613 1.878-16.551h29.697s3.96 4.717 9.059 11.394z" fill="#263238"/><path d="M130.216 63.895c5.11 10.51 15.903 21.534 22.054 21.534 5.781 0 20.315-11.388 27.113-18.082 1.549-1.527-12.585-13.591-14.105-11.822-3.55 4.133-11.851 13.105-14.511 13.105-2.37 0-9.827-5.376-16.354-10.706-7.908-6.47-6.232 1.803-4.197 5.971z" fill="#F7A9A0"/><path d="M179.382 67.347c1.81-1.018 7.273-5.66 10.672-9.961 1.648-2.093 5.746-8.59 4.243-9.978-1.503-1.387-2.89.405-2.89.405s1.318-3.006-.324-4.267c-1.642-1.26-3.677 1.602-3.677 1.602s1.157-3.186-.578-4.325c-1.734-1.138-3.295 2.082-3.295 2.082s1.156-2.89-.647-3.203c-2.191-.41-3.752 5.116-5.689 7.33-.445.509-9.654 9.574-9.654 9.574l11.839 10.74z" fill="#F7A9A0"/><path d="M183.481 42.962c-1.156 4.047-2.364 5.631-5.463 8.4-.057.058 0 .162.075.11 3.284-2.44 5.082-4.197 5.591-8.47.017-.236-.151-.265-.203-.04zm4.047 2.041c-1.572 4.11-2.89 5.833-5.896 8.972-.046.04 0 .122.075.081 3.232-2.833 4.989-4.625 6.018-8.943.04-.197-.133-.3-.197-.11zm3.746 3.162c-1.803 3.874-3.145 5.822-6.48 8.493a.075.075 0 00-.019.049.077.077 0 00.015.05.083.083 0 00.043.03.082.082 0 00.053-.002c3.665-2.393 5.353-4.81 6.504-8.55.075-.278 0-.335-.116-.07z" fill="#263238"/><path d="M216.215 28.376l-42.673.432.311 30.782 42.673-.432-.311-30.782z" fill="#EBEBEB"/><path d="M184.486 35.027l-3.11.032.173 17.053 3.11-.032-.173-17.053zm5.28 16.989l-3.11.034-.11-12.354 3.104-.029.116 12.349zm4.998-9.554l-3.11.031.097 9.515 3.11-.031-.097-9.515zm5.117 1.838l-3.11.032.078 7.624 3.11-.031-.078-7.625zm5.051-4.78l-3.11.032.125 12.353 3.11-.032-.125-12.353zm5.084-2.431l-3.11.032.151 14.705 3.11-.032-.151-14.705z" fill="#FFC727"/><path d="M179.261 33.17c.11 3.156.208 6.312.272 9.474.064 3.163.145 6.32.179 9.476l-.26-.26 8.203-.105 8.198-.052h8.209c2.74 0 5.468.035 8.203.081-2.736.097-5.471.178-8.203.243-2.735.058-5.469.139-8.204.173l-8.197.116-8.226.07h-.266v-.26c-.029-3.163 0-6.32 0-9.481 0-3.163.04-6.319.092-9.475z" fill="#C7C7C7"/><path d="M178.279 34.87a7.378 7.378 0 011.017-.082 6.62 6.62 0 011.012.064 7.154 7.154 0 01-2.029 0v.017zm0 1.733a7.52 7.52 0 011.017-.08c.339-.005.677.016 1.012.063a7.154 7.154 0 01-2.029 0v.017zm0 1.769a6.71 6.71 0 011.017-.08c.339-.005.677.016 1.012.063a7.154 7.154 0 01-2.029 0v.017zm.035 1.746a7.189 7.189 0 012.034 0 7.189 7.189 0 01-2.034 0zm.017 1.746a7.203 7.203 0 012.035 0 7.196 7.196 0 01-2.035 0zm.017 1.746a7.196 7.196 0 012.035 0 7.203 7.203 0 01-2.035 0zm.023 1.746c.335-.053.673-.08 1.012-.081.34-.005.68.017 1.017.064a6.7 6.7 0 01-1.017.08 6.62 6.62 0 01-1.012-.063zm.017 1.746a7.154 7.154 0 012.029 0 6.69 6.69 0 01-1.017.08 6.623 6.623 0 01-1.012-.08zm.018 1.745a7.161 7.161 0 012.029 0 6.71 6.71 0 01-1.017.081 6.6 6.6 0 01-1.012-.08zm.017 1.746a7.154 7.154 0 012.029 0c-.335.05-.673.077-1.011.081a6.55 6.55 0 01-1.018-.08zm9.822-17.955a64.841 64.841 0 013.336-.203c1.11-.046 2.225-.069 3.341-.086 1.116-.018 2.226 0 3.336 0 1.11 0 2.225.052 3.341.133a64.841 64.841 0 01-3.336.202c-1.109.046-2.225.064-3.341.08-1.116.018-2.226 0-3.336 0-1.109 0-2.225-.051-3.341-.126zm2.52 1.52a40.23 40.23 0 018.342-.087c-1.382.17-2.774.258-4.168.26a36.027 36.027 0 01-4.174-.173zm-11.423 21.419v-1.995h1.995v2l-1.995-.005zm.272-1.735v1.422h1.416v-1.416l-1.416-.006zm3.162-.15a252.65 252.65 0 015.087-.168l5.082-.08h5.081c1.7 0 3.393 0 5.087.063a249.1 249.1 0 01-5.081.162l-5.087.087h-5.082a319.556 319.556 0 01-5.087-.064zm.012.832c1.913-.138 3.827-.162 5.74-.202 1.914-.04 3.833 0 5.747.087-1.914.139-3.827.167-5.741.202-1.913.035-3.833.035-5.746-.087zm.006.873c2.347-.139 4.7-.173 7.047-.214 2.347-.04 4.694 0 7.047.07-2.347.144-4.695.179-7.047.22-2.353.04-4.695.023-7.047-.076z" fill="#C7C7C7"/><path d="M179.4 35.736a7.932 7.932 0 012.278-.532 4.817 4.817 0 012.347.301 6.73 6.73 0 011.879 1.457 23.69 23.69 0 011.538 1.78c.982 1.209 1.896 2.469 2.948 3.585a8.628 8.628 0 003.671 2.537c.702.214 1.445.26 2.168.133a7.287 7.287 0 002.098-.792 25.755 25.755 0 003.74-2.682c1.203-.983 2.365-2.023 3.608-2.971a14.728 14.728 0 011.959-1.29 6.662 6.662 0 011.076-.48 3.915 3.915 0 011.156-.173 4.723 4.723 0 00-2.156.786c-.656.41-1.278.87-1.862 1.376-1.191.989-2.312 2.058-3.468 3.087a22.48 22.48 0 01-3.781 2.81 7.71 7.71 0 01-2.243.873 5.287 5.287 0 01-2.44-.122 9.145 9.145 0 01-3.89-2.734 45.536 45.536 0 01-2.891-3.67 27.307 27.307 0 00-1.457-1.805 6.523 6.523 0 00-1.734-1.45 4.626 4.626 0 00-2.208-.4 8.86 8.86 0 00-2.336.376z" fill="#263238"/><path d="M164.237 56.721s3.226-4.174 5.081-5.66c1.856-1.485 10.822-4.485 11.562-2.583.977 2.45-3.856 5.202-6.399 6.237 0 0 2.266 5.666-.775 8.388-3.041 2.723-9.469-6.382-9.469-6.382z" fill="#F7A9A0"/><path d="M180.944 49.24c-.723 2.891-4.151 4.047-6.538 5.203a.244.244 0 00-.076.393c.787 2.44 1.197 6.11-.439 8.267a.07.07 0 00-.012.02.06.06 0 00.001.045.069.069 0 00.014.02.095.095 0 00.02.011.057.057 0 00.022.004.061.061 0 00.042-.019c2.069-2.075 1.965-5.711.931-8.33 2.468-1.156 5.856-2.48 6.064-5.62l-.029.006z" fill="#263238"/><path d="M133.112 56.773c4.272 2.856 14.706 11.955 17.556 11.227 2.85-.729 12.002-10.47 12.002-10.47l14.417 13.638s-16.342 15.539-25.378 14.967c-9.036-.573-18.407-14.453-21.39-20.43-2.982-5.978-4.324-13.678 2.793-8.932z" fill="#FFC727"/><path d="M151.339 75.648a2.428 2.428 0 010-1.648 2.416 2.416 0 010 1.648zm13.643-10.088a2.146 2.146 0 00-.144-.82c-.101.261-.15.54-.145.82a2.3 2.3 0 00.145.821c.098-.262.147-.54.144-.82zm1.735 12.857a2.3 2.3 0 00-.145-.82 2.412 2.412 0 000 1.64 2.3 2.3 0 00.145-.82zm-29.876-6.03c.009-.28-.04-.56-.145-.82a2.412 2.412 0 000 1.641c.101-.261.15-.54.145-.82zm25.58 4.145a2.146 2.146 0 00-.144-.82 2.4 2.4 0 000 1.641c.101-.261.15-.54.144-.82zm-16.186-9.342c.28.002.558-.047.821-.144a2.071 2.071 0 00-.821-.145 2.135 2.135 0 00-.821.145c.266.1.548.15.832.144h-.011zm1.04 11.938c.281.003.559-.046.821-.144a2.405 2.405 0 00-1.642 0c.266.1.549.149.833.144h-.012zm10.337-5.78c.28.004.559-.045.821-.145-.262-.1-.541-.15-.821-.145a2.311 2.311 0 00-.827.145c.268.101.552.152.838.15l-.011-.006zm12.435 1.219c.28.005.559-.044.82-.145a2.403 2.403 0 00-1.641 0c.264.105.547.157.832.15l-.011-.005zm-6.938-13.874a2.25 2.25 0 00.821-.145 2.032 2.032 0 00-.821-.144 2.174 2.174 0 00-.82.144c.257.102.532.157.809.162l.011-.017zm-26.731 2.347a2.246 2.246 0 00-.688-.48c.115.256.278.488.48.682.194.203.426.366.682.48a2.217 2.217 0 00-.485-.665l.011-.017zm5.955 12.793a2.247 2.247 0 00-.682-.48c.24.508.648.916 1.156 1.156a2.237 2.237 0 00-.486-.659l.012-.017zm14.203 2.89a2.185 2.185 0 00-.687-.48c.234.512.644.922 1.156 1.157a2.316 2.316 0 00-.48-.665l.011-.012zm7.805-7.434a2.15 2.15 0 00-.682-.48c.24.508.648.916 1.156 1.157a2.252 2.252 0 00-.474-.677zm-10.603-2.827a2.2 2.2 0 00-.682-.474c.24.508.649.916 1.157 1.156a2.258 2.258 0 00-.475-.664v-.018zm-2.052 14.343a2.245 2.245 0 00-.48.682c.257-.114.488-.277.683-.48.203-.194.366-.425.479-.682a2.235 2.235 0 00-.682.48zm8.805-1.07a2.145 2.145 0 00-.474.682c.507-.24.916-.648 1.156-1.156a2.265 2.265 0 00-.694.474h.012zm-14.915-9.827a2.148 2.148 0 00-.48.682c.257-.114.488-.277.682-.48.203-.194.366-.426.48-.682-.257.1-.493.25-.694.44l.012.04zm25.187-3.718a2.136 2.136 0 00-.474.683c.256-.116.487-.279.683-.48.199-.197.362-.428.479-.682-.257.115-.49.278-.688.48zm-30.465 0a2.228 2.228 0 00-.48.683 2.43 2.43 0 001.156-1.157 2.237 2.237 0 00-.665.475h-.011zm18.354-2.15a2.244 2.244 0 00-.48.682c.259-.114.492-.277.688-.48.2-.196.363-.427.48-.682a2.26 2.26 0 00-.676.48h-.012zm-26.118-6.579a2.257 2.257 0 00-.145-.82c-.103.26-.153.54-.144.82-.006.28.043.56.144.821.103-.261.156-.54.157-.82h-.012zm.283 8.834a2.32 2.32 0 00.827-.145 2.081 2.081 0 00-.827-.145 2.18 2.18 0 00-.821.145c.267.099.549.148.833.145h-.012z" fill="#fff"/><path d="M172.902 72.705c-.439-.578-.988-1.023-1.48-1.531-.491-.51-1.006-1-1.52-1.486-.994-.942-2-1.873-3.006-2.792l-3.041-2.758c-1.046-.948-2.07-1.965-3.191-2.827a.046.046 0 00-.034-.012.05.05 0 00-.033.015.051.051 0 00-.012.034.05.05 0 00.015.033c.937 1.052 2.024 2 3.047 2.977l3.023 2.89a215.51 215.51 0 003.053 2.856c.508.463 1.017.913 1.537 1.359.521.445 1.024.936 1.59 1.323.046.03.087-.04.052-.08zM150.53 85.979c-8.671-1.625-17.343-14.557-20.233-20.269-1.919-3.82-3.133-8.341-1.902-9.873 3.509 4.763 15.776 21.493 22.135 30.142z" fill="#263238"/><path d="M142.853 102.616c-.578.653-39.576.711-39.773.474-.538-.647 8.7-40.524 17.343-47.462 1.856-1.491 8.978-1.266 9.949-.884 1.11.422 4.243 5.723 5.671 10.041 2.844 8.643 7.319 37.259 6.81 37.831z" fill="#FFC727"/><path d="M127.753 78.417a2.277 2.277 0 01-.144-.82c-.007-.281.043-.56.144-.822.102.262.151.54.145.821a2.3 2.3 0 01-.145.821zm4.937 8.556a2.308 2.308 0 00-.144-.827 2.086 2.086 0 00-.145.827c-.005.28.044.559.145.82.097-.262.146-.54.144-.82zm-.144-27.512a2.3 2.3 0 00-.145-.82c-.104.26-.153.54-.145.82-.006.28.043.56.145.821.099-.262.148-.54.145-.82zm-11.921 27.824a2.277 2.277 0 00-.144-.82c-.105.26-.154.54-.145.82-.005.28.044.56.145.82.098-.261.147-.54.144-.82zm20.366 3.89a2.182 2.182 0 00-.144-.826c-.101.264-.15.544-.145.827a2.3 2.3 0 00.145.82c.1-.261.15-.54.144-.82zm-14.065 5.62c.006-.28-.043-.56-.144-.821-.101.261-.15.54-.145.82-.003.28.046.56.145.822.101-.262.151-.54.144-.821zm-11.446 3.867a2.279 2.279 0 00-.144-.82 2.4 2.4 0 000 1.641c.098-.262.147-.541.144-.821zm9.388-33.778c.005-.28-.044-.56-.144-.82a2.417 2.417 0 000 1.647c.101-.264.15-.545.144-.827zm-7.405-4.671a2.256 2.256 0 00-.145-.82 2.412 2.412 0 000 1.64c.099-.261.148-.54.145-.82zm-.145 13.961a2.322 2.322 0 00-.144-.82 2.417 2.417 0 000 1.647c.098-.265.147-.545.144-.827zm-7.792 15.03c.009-.28-.04-.56-.145-.82a2.23 2.23 0 00-.144.82c-.002.28.047.559.144.821.105-.27.154-.56.145-.85v.03zm27.315-18.788c.009-.28-.04-.56-.145-.82a2.412 2.412 0 000 1.641c.105-.27.154-.56.145-.85v.03zm-14.216 2.527c.281.002.559-.047.821-.145a2.42 2.42 0 00-1.647 0c.266.088.546.128.826.116v.029zm-.826 18.302c.282.003.562-.046.826-.144a2.42 2.42 0 00-1.647 0c.264.087.542.127.821.115v.03zm4.451 9.261c.281.006.559-.043.821-.144a2.256 2.256 0 00-.821-.145 2.303 2.303 0 00-.821.145c.262.1.541.149.821.144zm10.227-24.413c.28.003.558-.046.82-.144a2.403 2.403 0 00-1.641 0c.256.1.528.153.803.156l.018-.012zm-20.234-10.007c.281.006.559-.043.821-.144a2.172 2.172 0 00-.821-.145 2.283 2.283 0 00-.821.145c.252.101.521.154.792.156l.029-.011zm10.163-7.515c.28.003.559-.046.821-.144a2.052 2.052 0 00-.821-.145 2.144 2.144 0 00-.821.145c.254.093.522.14.792.138l.029.006zm-10.249 21.702c.28.003.558-.046.82-.145a2.047 2.047 0 00-.82-.144 2.137 2.137 0 00-.821.144c.262.1.54.148.821.145zm-5.735 14.516c.28.005.559-.044.821-.145a2.424 2.424 0 00-1.648 0c.263.103.544.154.827.15v-.005zm22.407-28.5c.282.002.562-.046.826-.145a2.078 2.078 0 00-.826-.144 2.18 2.18 0 00-.821.144c.262.1.54.15.821.15v-.005zm-5.371 15.308c.281.006.56-.043.821-.145a2.405 2.405 0 00-1.642 0c.262.103.54.154.821.15v-.005zm11.736 17.753c.28.006.559-.043.821-.144a2.4 2.4 0 00-1.642 0c.261.101.54.15.821.144zm-6.793-7.966c.28.002.558-.047.821-.145a2.424 2.424 0 00-1.648 0c.266.09.546.132.827.122v.023zm.098 6.527a2.221 2.221 0 00-.682-.48c.114.256.277.488.48.682.194.203.425.366.682.48a2.23 2.23 0 00-.48-.706v.024zm-21.967-14.563a2.238 2.238 0 00-.683-.48c.115.257.278.489.48.683.196.201.427.364.682.48a2.22 2.22 0 00-.491-.706l.012.023zm11.966-4.752a2.11 2.11 0 00-.688-.48c.116.256.279.488.48.683.197.201.431.364.688.48a2.314 2.314 0 00-.491-.706l.011.023zm-6.579 12.54a2.223 2.223 0 00-.682-.48c.24.507.649.916 1.157 1.156a2.245 2.245 0 00-.486-.7l.011.023zm-10.556 6.815c-.196-.2-.43-.362-.687-.474.115.255.278.487.479.682.198.202.431.364.688.48a2.358 2.358 0 00-.491-.711l.011.023zm8.811-27.644a2.173 2.173 0 00-.683-.48c.116.257.279.49.48.688.196.2.427.36.682.474a2.13 2.13 0 00-.491-.706l.012.024zm13.683-1.018a2.108 2.108 0 00-.688-.48c.116.256.279.487.48.682.197.202.431.365.688.48a2.307 2.307 0 00-.48-.682zm9.088 18.962a2.235 2.235 0 00-.682-.48c.114.256.277.488.479.682.194.203.426.366.683.48a2.245 2.245 0 00-.48-.682zm-15.031-26.593a2.128 2.128 0 00-.682-.48c.24.508.649.916 1.156 1.157a2.239 2.239 0 00-.485-.694l.011.017zm10.834 17.245a2.237 2.237 0 00-.682-.48c.114.258.277.492.48.688.196.2.427.362.682.48a2.266 2.266 0 00-.492-.706l.012.018zm-.202-6.556a2.158 2.158 0 00-.48.682c.507-.24.916-.648 1.156-1.156a2.131 2.131 0 00-.688.457l.012.017zM114.555 88.02a2.148 2.148 0 00-.48.682 2.2 2.2 0 00.683-.474c.201-.197.364-.43.479-.688a2.23 2.23 0 00-.693.463l.011.017zm22.633-3.255a2.158 2.158 0 00-.48.683c.257-.116.49-.279.688-.48.199-.196.36-.427.474-.682a2.201 2.201 0 00-.694.462l.012.017zm-15.794 14.274a2.245 2.245 0 00-.48.682 2.366 2.366 0 001.168-1.162 2.258 2.258 0 00-.688.48zm-1.017-28.032a2.158 2.158 0 00-.48.682 2.43 2.43 0 001.156-1.156 2.23 2.23 0 00-.676.445v.029zm6.156 19.273c-.199.196-.36.428-.474.683.257-.114.489-.277.682-.48.203-.194.366-.426.48-.682-.255.107-.488.26-.688.45v.03zm10.406 6.204a2.148 2.148 0 00-.48.682c.508-.24.916-.65 1.156-1.157-.25.106-.48.257-.676.446v.029zM111.844 78.99a2.246 2.246 0 00-.48.682 2.26 2.26 0 00.688-.48c.2-.195.36-.426.474-.681-.253.106-.484.26-.682.45v.03zm17.395-14.157a2.227 2.227 0 00-.48.682 2.43 2.43 0 001.156-1.156 2.23 2.23 0 00-.676.445v.029zm-8.602-7.012a2.14 2.14 0 00-.474.687c.255-.115.487-.278.682-.48.2-.196.362-.427.48-.681a2.237 2.237 0 00-.688.445v.029z" fill="#fff"/><path d="M130.817 65.78l.567-2.498-2.301-2.508-1.781 3.15 1.249 2.15-1.087 25.518 4.781 8.44 2.486-9.498-3.914-24.754zm-7.51-11.094l-17.666 36.49c3.266-12.528 9.145-31.027 14.764-35.547a6.463 6.463 0 012.902-.943z" fill="#263238"/><path d="M120.047 63.196c-2.457 4.405-17.019 20.811-17.389 22.436-.37 1.624 2.833 5.925 2.856 6.573.081 2.636-2.85 20.077-5.324 18.585-3.255-1.971-17.24-16.643-16.326-24.077.914-7.435 29.171-27.338 33.657-29.408 4.486-2.07 4.954 1.52 2.526 5.89z" fill="#F7A9A0"/><path d="M110.399 113.727c1.364-1.567-1.266-2.278-1.266-2.278s4.046.11 4.815-2.052c.769-2.162-2.463-2.832-2.694-2.89.214 0 3.925 0 4.486-2.243.561-2.243-2.769-2.538-2.983-2.55.203-.057 2.891-.89 2.891-2.7.063-3.11-7.77-1.381-9.915-2.7 0 0-.26-4.011-.231-4.132a4.56 4.56 0 01-1.705 2.456c-1.55.92-2.983 1.596-3.469 2.579a2.276 2.276 0 00.451 2.682s-2.185.318-2.682 2.081c-.255.902.965 2.11.965 2.11s-1.734.33-2.081 1.92c-.277 1.271.989 2.312.989 2.312s-1.52 1.087-1.382 2.48c.295 2.781 10.885 6.284 13.811 2.925z" fill="#F7A9A0"/><path d="M98.178 108.49a.023.023 0 00-.011-.004l-.012.001a.038.038 0 00-.01.005.05.05 0 00-.008.009.034.034 0 00-.003.011v.012a.027.027 0 00.006.01 19.342 19.342 0 0011.131 2.967c.122 0 .162-.213 0-.231a39.544 39.544 0 01-11.093-2.78zm.855-4.394c-.04 0-.069.046 0 .075 3.313 2.041 8.001 3.284 12.337 2.474.144 0 .254-.202.081-.185-2.954.324-9.105-.942-12.418-2.364zm14.008-2.544c-4.186.619-8.152-.167-12.106-1.56-.052 0-.069.057-.029.086 1.735 1.209 4.359 1.833 6.435 2.145 1.919.328 3.89.147 5.717-.526.075-.023.069-.156-.017-.145z" fill="#263238"/><path d="M93.252 106.379l11.562-16.597s-1.913-3.237-1.734-4.29c.179-1.051 14.944-17.215 17.62-22.782 2.677-5.567 3.301-8.978-2.983-6.03-6.284 2.949-32.587 23.234-34.107 28.587-1.52 5.354 4.74 13.84 9.642 21.112z" fill="#FFC727"/><path d="M110.422 70.907a2.417 2.417 0 010-1.647 2.417 2.417 0 010 1.647zm7.041-8.67a2.276 2.276 0 00-.144-.822 2.4 2.4 0 000 1.642c.101-.27.15-.556.144-.844v.023zm-16.343 13.96a2.166 2.166 0 00-.144-.82 2.417 2.417 0 000 1.647c.104-.271.153-.56.144-.85v.023zm-11.457 5.636a2.167 2.167 0 00-.145-.82 2.405 2.405 0 000 1.641 2.13 2.13 0 00.145-.844v.023zm9.613 4.076a2.275 2.275 0 00-.144-.82 2.405 2.405 0 000 1.641c.1-.27.15-.556.144-.844v.023zm-9.324 5.677a2.192 2.192 0 00-.145-.827 2.422 2.422 0 000 1.648 2.18 2.18 0 00.145-.844v.023zm9.324 2.81a2.275 2.275 0 00-.144-.821 2.405 2.405 0 000 1.641c.1-.27.15-.556.144-.844v.023zm15.915-35.264c.281.005.559-.044.821-.145a2.31 2.31 0 00-.821-.144 2.257 2.257 0 00-.821.144c.261.108.54.163.821.162v-.017zm1.024 8.977c.28.006.559-.043.82-.144a2.156 2.156 0 00-.82-.145 2.271 2.271 0 00-.821.145c.262.097.541.142.821.133v.011zm-10.574-.71c.281.005.559-.044.821-.145a2.172 2.172 0 00-.821-.145 2.262 2.262 0 00-.821.145c.263.097.541.143.821.133v.011zm3.885 7.359c.282.002.562-.047.827-.145a2.424 2.424 0 00-1.648 0c.263.098.541.147.821.145zm-12.493-.63a2.3 2.3 0 00.821-.145 2.405 2.405 0 00-1.642 0c.262.103.54.156.821.156v-.011zm-2.07 9.607c.281.006.56-.043.822-.144a2.405 2.405 0 00-1.642 0c.26.105.54.158.82.156v-.012zm-2.82 18.499c.28.009.56-.04.82-.144a2.4 2.4 0 00-1.641 0c.26.107.54.162.82.162v-.018zm2-8.89c.28.001.558-.048.82-.145-.261-.1-.54-.15-.82-.145-.28-.006-.56.043-.821.145.261.105.54.16.82.162v-.018zm-8.625-3.301c.282.005.563-.044.826-.145a2.422 2.422 0 00-1.647 0c.26.106.54.161.82.162v-.017zm15.417-19.777a2.221 2.221 0 00-.682-.48c.114.258.277.492.48.688.196.2.427.36.682.474a2.215 2.215 0 00-.48-.665v-.017zM97.137 79.3a2.263 2.263 0 00-.688-.48c.24.508.65.917 1.157 1.157a2.22 2.22 0 00-.469-.66V79.3zm-8.243 17.372a2.15 2.15 0 00-.682-.474c.24.508.648.916 1.156 1.156a2.162 2.162 0 00-.474-.664v-.018zm8.394 1.405a2.167 2.167 0 00-.682-.48c.114.257.277.488.48.682.193.204.425.367.681.48a2.233 2.233 0 00-.48-.665v-.017zM86.206 85.62a2.194 2.194 0 00-.688-.48c.114.257.277.488.48.682.194.202.426.365.682.48a2.22 2.22 0 00-.474-.665v-.017zm9.683 2.786a2.22 2.22 0 00-.682-.474c.111.257.272.489.474.683.197.201.43.364.688.48a2.364 2.364 0 00-.48-.671v-.018zm13.232-24.204a2.246 2.246 0 00-.688-.48c.116.257.279.49.48.688.196.2.427.36.682.474a2.205 2.205 0 00-.474-.665v-.017zm-2.89 14.516a2.167 2.167 0 00-.682-.48c.115.257.278.49.479.688.196.2.427.36.683.474a2.159 2.159 0 00-.486-.665l.006-.017zm6.989-13.933a2.148 2.148 0 00-.48.683c.508-.24.916-.65 1.156-1.157a2.17 2.17 0 00-.682.492l.006-.017zm-7.92 7.481a2.147 2.147 0 00-.48.682c.255-.113.487-.274.682-.474a2.24 2.24 0 00.48-.688 2.24 2.24 0 00-.688.497l.006-.017zm-13.256 5.717c-.2.196-.36.427-.474.682a2.22 2.22 0 00.683-.474c.2-.197.364-.43.48-.687a2.26 2.26 0 00-.694.497l.005-.018zm-1.26 8.967c-.203.196-.366.43-.48.688a2.348 2.348 0 001.156-1.157 2.447 2.447 0 00-.682.486l.006-.017zm9.955 3.283c-.215.2-.386.442-.503.711.257-.113.488-.276.682-.48.2-.192.361-.422.474-.676a2.23 2.23 0 00-.659.463l.006-.018zM92.871 97.5a2.076 2.076 0 00-.48.682c.508-.24.916-.649 1.156-1.156a2.24 2.24 0 00-.682.491l.006-.017zm8.955-15.609a2.228 2.228 0 00-.48.682 2.43 2.43 0 001.156-1.156 2.236 2.236 0 00-.682.468l.006.006zm18.817-24.095c-.202.196-.363.43-.474.688.255-.115.487-.278.682-.48.2-.196.362-.427.48-.682a2.24 2.24 0 00-.694.468l.006.006z" fill="#fff"/><path d="M92.229 102.269c.491-.508.884-1.115 1.324-1.665.44-.549.861-1.156 1.277-1.734a269.15 269.15 0 002.365-3.353c.78-1.121 1.56-2.249 2.312-3.376.752-1.127 1.677-2.312 2.382-3.532a.051.051 0 00.015-.019.039.039 0 00.005-.023.048.048 0 00-.006-.024.047.047 0 00-.015-.018.057.057 0 00-.023-.009.052.052 0 00-.057.035c-.919 1.07-1.734 2.272-2.544 3.41-.809 1.14-1.647 2.25-2.462 3.377a280.005 280.005 0 00-2.428 3.405c-.393.578-.775 1.156-1.156 1.734-.382.578-.793 1.156-1.105 1.734.03.07.081.093.116.058z" fill="#263238"/><path d="M129.586 59.941c-2.047.734-6.018-2.07-7.741-4.509-.115-.168-.052-2.081-.092-4.41-.029-1.411-.093-2.984-.255-4.412-.034-.295 1.029.127 1.029.127l1.902.237 6.29.792a22.852 22.852 0 00-.243 5.59c.023.197.066.39.127.579v.092c.33 1.104.96 5.203-1.017 5.914z" fill="#F7A9A0"/><path d="M130.603 53.946v.093c-.301.08-.609.132-.919.156-6.053.578-7.677-7.047-7.677-7.047l2.399-.168 6.289.792a22.851 22.851 0 00-.242 5.59c.03.2.08.395.15.584z" fill="#263238"/><path d="M119.429 35.574c-.844 3.238 1.237 12.406 3.601 14.366 3.422 2.85 8.833 2.89 11.204-1.156 2.312-3.948-.625-15.846-3.249-17.609-3.856-2.613-10.319-.387-11.556 4.4z" fill="#F7A9A0"/><path d="M127.296 41.055s-.046.04-.034.063c.156.613.231 1.342-.284 1.671v.035c.677-.249.561-1.214.318-1.77z" fill="#263238"/><path d="M126.597 40.529c-1.006.144-.642 2.156.295 2.023.936-.133.555-2.145-.295-2.023zm4.462-.272s.053 0 .058.046c.093.625.307 1.33.902 1.434v.035c-.699.034-.971-.908-.96-1.515z" fill="#263238"/><path d="M131.499 39.494c.983-.26 1.428 1.734.515 1.977-.914.243-1.347-1.752-.515-1.977zm-5.862.26c.251-.124.494-.263.729-.416.277-.162.52-.26.664-.578a.423.423 0 00-.161-.497 1.073 1.073 0 00-1.081.08 1.579 1.579 0 00-.775.833.455.455 0 00-.014.266.465.465 0 00.638.312zm6.451-1.416a8.009 8.009 0 01-.832-.058 1.348 1.348 0 01-.844-.231.43.43 0 01-.069-.52 1.069 1.069 0 011.011-.388 1.59 1.59 0 011.058.416.458.458 0 01-.074.7.46.46 0 01-.25.08zm-4.156 8.486c.18.122.365.295.578.272a1.6 1.6 0 00.636-.278h.035a.843.843 0 01-.728.48.673.673 0 01-.578-.462c-.012-.006.034-.03.057-.012z" fill="#263238"/><path d="M128.25 44.841a2.147 2.147 0 001.59.688c.26.003.519-.033.769-.104l.145-.04.127-.047a.157.157 0 00.104-.162v-.115c-.07-.486-.249-1.203-.249-1.203.191.053 1.156.295 1.099.047a32.752 32.752 0 00-1.989-6.273.058.058 0 00-.071-.033.055.055 0 00-.032.027.055.055 0 00-.007.041c.399 1.994 1.156 3.902 1.59 5.897a3.697 3.697 0 00-1.058-.122c-.064 0 .37 1.388.387 1.607a2.988 2.988 0 01-2.312-.283c-.098-.017-.139.035-.093.075z" fill="#263238"/><path d="M130.297 45.315a2.5 2.5 0 01-.908.92 1.11 1.11 0 01-.688.138c-.514-.063-.578-.52-.578-.925.025-.216.073-.43.145-.636.604.383 1.316.56 2.029.503z" fill="#263238"/><path d="M129.372 46.234a1.11 1.11 0 01-.688.14c-.514-.064-.578-.521-.578-.926a1.19 1.19 0 011.266.786z" fill="#FF9ABB"/><path d="M120.273 42.552c2.121-.416 1.798-4.341 1.798-4.341s3.526-1.29 3.532-4.134c0 0 3.873 1.55 6.405.046 2.532-1.503 1.503-4.81 1.069-5.405-.988-1.364-2.89.994-2.89.994s-3.821-1.422-7.631-.294c-3.104.919-4.122 4.197-4.122 4.197s-1.63.688-1.954 1.983c-.323 1.294 2.446 7.214 3.793 6.954z" fill="#263238"/><path d="M121.221 38.401c2.89-.162 4.393-2.393 4.289-5.168h.052c.399 2.532-1.41 5.781-4.347 5.307a.069.069 0 01-.066-.072c0-.019.008-.036.022-.048a.068.068 0 01.05-.019zm-2.706-4.85s.052.035 0 .052c-.722.515-1.572.96-1.988 1.786-.503.995-.139 2.105.294 3.047.683 1.45 1.844 3.283 3.382 3.92.093.04 0 .167-.058.138-1.821-.653-3.266-3.046-3.838-4.804-.607-1.965.428-3.347 2.208-4.139zm10.313.671a3.943 3.943 0 004.278-.931c1.272-1.422.613-3.22-.312-4.625-.046-.07.041-.173.104-.11 1.127 1.191 1.578 3.25.578 4.666-1 1.416-3.202 1.85-4.734 1.225-.122-.07-.041-.277.086-.225z" fill="#263238"/><path d="M121.724 43.02s-2.278-2.856-3.584-2.029c-1.307.827.531 5.059 2.162 5.55a1.615 1.615 0 001.787-.444c.144-.163.254-.355.323-.562l-.688-2.515z" fill="#F7A9A0"/><path d="M118.694 42.194v.04c1.156.382 1.798 1.382 2.278 2.428a.892.892 0 00-.639-.393.895.895 0 00-.714.231c-.029 0 0 .064.035.058a.993.993 0 011.116.278c.224.26.418.545.578.85.058.098.237.034.19-.076-.075-1.45-1.306-3.37-2.844-3.416z" fill="#263238"/><path d="M130.702 54.276l-1.954 5.55-7.071-6.608-1.826 2.312s7.099 10.672 7.122 10.175l2.04-4.793 3.388 3.128-.618-8.192-1.081-1.572z" fill="#FFC727"/><path d="M132.326 59.959c-.151-1.353-.26-2.718-.468-4.047 0-.046-.087-.064-.093 0-.214 1.318.376 6.474.422 7.717-.139-.133-3.127-2.746-3.156-2.7-.451.77-1.954 4.261-2.053 4.573-1.127-1.693-5.411-7.85-6.723-9.44a.05.05 0 00-.03-.02.047.047 0 00-.036.006.045.045 0 00-.021.03.046.046 0 00.006.036c1.006 1.798 6.689 10.088 6.764 10.065a52.583 52.583 0 002.139-5.07c.509.578 3.544 3.538 3.544 3.336a43.95 43.95 0 00-.295-4.486z" fill="#263238"/><path d="M170.995 14.503a11.725 11.725 0 01-6.457 10.494 11.72 11.72 0 01-12.274-1.083l-5.746 1.468 2.393-5.347a11.732 11.732 0 01-.383-10.279 11.718 11.718 0 0117.931-4.497 11.717 11.717 0 014.513 9.244h.023z" fill="#fff"/><path d="M170.995 14.503c0 2.173-.6 4.303-1.735 6.157-.283.461-.593.905-.93 1.33-.349.408-.724.794-1.122 1.155a11.831 11.831 0 01-5.711 2.949c-.534.107-1.075.175-1.619.202a10.39 10.39 0 01-1.636 0 11.826 11.826 0 01-6.087-2.237l.173.034-5.723 1.527-.509.138.214-.485 2.37-5.36v.25a11.874 11.874 0 012.767-14.697 11.863 11.863 0 0114.952-.322 11.864 11.864 0 014.59 9.353l.006.006zm0 0a11.571 11.571 0 00-9.282-11.37 11.563 11.563 0 00-5.252.16 11.56 11.56 0 00-4.624 2.411 12.08 12.08 0 00-3.041 4.157 11.56 11.56 0 00-.96 5.07 11.787 11.787 0 001.347 4.971l.064.122-.052.121-2.417 5.342-.294-.353 5.78-1.416h.099l.075.063a11.56 11.56 0 005.862 2.313 9.86 9.86 0 001.601.028 11.31 11.31 0 004.631-1.167 10.929 10.929 0 002.653-1.804c.398-.363.774-.75 1.127-1.156.339-.42.652-.86.937-1.318a11.795 11.795 0 001.746-6.174z" fill="#263238"/><path d="M159.693 13.954v-4.33a5.45 5.45 0 012.399 1.034.79.79 0 00.526.186.763.763 0 00.787-.729.772.772 0 00-.399-.642 6.94 6.94 0 00-3.272-1.248V7.79a.753.753 0 00-1.498 0v.387c-2.341.157-4.006 1.573-4.006 3.469s1.214 2.89 4.047 3.52v4.423a6.111 6.111 0 01-3.249-1.486.798.798 0 00-1.064.017.771.771 0 00-.237.515.724.724 0 00.318.578 7.784 7.784 0 004.186 1.735v1.115a.748.748 0 00.748.686.753.753 0 00.749-.686v-1.07c2.422-.167 4.087-1.583 4.087-3.508.012-1.856-1.272-2.943-4.122-3.532zm-1.422-.301c-2.087-.514-2.497-1.156-2.497-2.104 0-1.07 1.035-1.879 2.497-2v4.104zm3.995 3.873c0 1.157-1.047 1.954-2.573 2.076v-4.163c2.139.492 2.573 1.145 2.573 2.087z" fill="#FFC727"/></svg>