<svg width="256" height="273" fill="none" xmlns="http://www.w3.org/2000/svg"><path d="M38.45 54.506c-31.611 0-31.666 44.947 0 44.947 31.668 0 31.661-44.947 0-44.947z" fill="#EBEBEB"/><path d="M57.673 81.195c-1.69 7.73-8.101 14.44-19.228 14.44-26.274 0-26.232-37.31 0-37.31h.512c-24.682.451-24.566 35.778.488 35.778 10.218.013 16.306-5.899 18.228-12.908z" fill="#DBDBDB"/><path d="M38.634 63.242a.806.806 0 01.823.756v1.22c2.2.143 4.313.902 6.1 2.19.306.22.476.403.476.72a.841.841 0 01-.884.781.872.872 0 01-.61-.22 10.194 10.194 0 00-5.13-2.03v8.76c5.197 1 7.387 2.78 7.387 5.85 0 3.318-3.05 5.66-7.32 5.789v2.44a.823.823 0 01-1.641 0v-2.44a13.421 13.421 0 01-7.693-3.05.776.776 0 01-.378-.653.86.86 0 01.854-.787.915.915 0 01.61.22 11.505 11.505 0 006.668 2.848V76.73c-5.125-1.031-7.26-2.752-7.26-5.881 0-3.13 3.008-5.57 7.18-5.661v-1.22a.805.805 0 01.818-.726zm-.75 11.896v-8.54c-3.32.066-5.49 1.878-5.49 4.129-.013 2.153 1.079 3.44 5.49 4.41zm1.506 1.903v8.65c3.416-.06 5.643-1.879 5.643-4.27 0-2.154-1.196-3.471-5.643-4.38zm177.775 111.904c-28.464 5.106-20.948 47.271 7.565 42.153 28.513-5.118 20.942-47.271-7.565-42.153z" fill="#DBDBDB"/><path d="M219.837 188.463c-27.128 4.88-19.606 47.034 7.565 42.153 27.171-4.88 19.6-47.027-7.565-42.153z" fill="#EBEBEB"/><path d="M240.823 210.534c-.147 7.509-4.521 14.787-14.068 16.501-22.571 4.045-28.793-30.947-6.277-34.985a3.94 3.94 0 01.439-.073c-21.107 4.227-15.055 37.34 6.442 33.484 8.766-1.573 12.994-8.058 13.464-14.927z" fill="#DBDBDB"/><path d="M225.248 196.613a.728.728 0 01.611.793l-.141 1.183a9.77 9.77 0 015.027 2.697.813.813 0 01.335.726.764.764 0 01-.854.652.739.739 0 01-.512-.268 8.426 8.426 0 00-4.215-2.44l-.976 8.29c4.392 1.477 6.1 3.386 5.746 6.29-.366 3.135-3.264 5.045-6.979 4.727l-.274 2.312a.716.716 0 01-1.422-.164l.275-2.343a11.192 11.192 0 01-6.32-3.66.751.751 0 01.573-1.312.767.767 0 01.507.269 9.634 9.634 0 005.46 3.373l1.012-8.442c-4.325-1.495-5.966-3.343-5.618-6.302.348-2.959 3.221-4.966 6.844-4.63l.135-1.123a.724.724 0 01.786-.628zm-1.97 11.176l.946-8.083c-2.88-.281-4.972 1.22-5.222 3.349-.238 2.013.561 3.367 4.276 4.734zm1.086 1.958l-.958 8.174c2.965.287 5.094-1.22 5.356-3.452.244-2.044-.646-3.41-4.398-4.722z" fill="#DBDBDB"/><path d="M225.413 174.689l8.15-.171 4.014-.067c1.336-.031 2.66 0 3.99-.037l-.269.275-.036-6.827.305.305-8.095-.036c-2.691 0-5.381-.074-8.077-.104l.171-.165c0 1.117-.055 2.239-.086 3.38l-.067 3.447zm0 0l-.085-3.38c0-1.135-.067-2.288-.08-3.447v-.164h.165c2.696-.031 5.387-.098 8.077-.104l8.077-.037h.305v7.406h-.275c-1.36 0-2.727 0-4.081-.037l-4.063-.067-8.04-.17zm9.01 8.607l8.15-.171 4.014-.067c1.336-.03 2.66 0 3.99-.036l-.268.274-.031-6.826.299.305-8.077-.037c-2.69 0-5.38-.073-8.077-.103l.171-.165c0 1.116-.055 2.239-.079 3.379l-.092 3.447zm0 0l-.085-3.38c0-1.134-.067-2.287-.079-3.446v-.165h.164c2.697-.03 5.387-.098 8.077-.104l8.077-.036h.311v.305l-.037 6.826v.275h-.298c-1.361 0-2.721 0-4.082-.037l-4.062-.067-7.986-.171zm-18.032 0l8.15-.171 4.014-.067c1.33-.03 2.66 0 3.989-.036l-.268.274-.024-6.826.305.305-8.077-.037c-2.69 0-5.387-.073-8.077-.103l.165-.165c0 1.116-.049 2.239-.08 3.379l-.097 3.447zm0 0l-.086-3.38c-.03-1.134-.067-2.287-.079-3.446v-.165h.165c2.69-.03 5.386-.098 8.077-.104l8.076-.036h.305v.305l.013 6.826v.275h-.269c-1.36 0-2.727 0-4.081-.037l-4.063-.067-8.058-.171zm-208.186 0l8.144-.171 4.014-.067c1.336-.03 2.666 0 3.996-.036l-.275.274-.03-6.826.305.305-8.059-.037c-2.696 0-5.386-.073-8.076-.103l.164-.165c0 1.116-.055 2.239-.079 3.379l-.104 3.447zm0 0l-.091-3.38c0-1.134-.067-2.287-.08-3.446v-.165h.171c2.69-.03 5.38-.098 8.077-.104l8.077-.036h.305v.305l-.037 6.826v.275h-.268c-1.36 0-2.727 0-4.087-.037l-4.063-.067-8.004-.171zm138.77-107.469l-8.144.17-4.014.068c-1.336 0-2.665 0-3.995.037l.274-.275.031 6.826-.305-.305 8.077.043c2.696 0 5.386.067 8.076.097l-.164.165c0-1.116.055-2.239.079-3.373l.085-3.453zm0 0l.092 3.38c0 1.14.067 2.287.079 3.446v.165h-.171c-2.69 0-5.38.091-8.076.098l-8.077.036h-.305v-.311l.036-6.826v-.275h4.356l4.063.067 8.003.22zm-9.01-8.607l-8.144.17-4.014.067c-1.336 0-2.666 0-3.995.037l.274-.275.031 6.827-.305-.305 8.076.042c2.691 0 5.387.067 8.077.098l-.164.165c0-1.117.048-2.24.079-3.374l.085-3.453zm0 0l.086 3.379c.03 1.14.073 2.287.079 3.447v.164h-.171c-2.69 0-5.386.092-8.077.098l-8.076.036h-.306v-.304l.037-6.827v-.274h4.386l4.063.067 7.979.213z" fill="#EBEBEB"/><path d="M231.044.897h-.61V73.63h.61V.897z" fill="#C7C7C7"/><path d="M205.483 97.971l2.032 4.466h46.454l2.025-4.466-19.777-13.689h-10.956l-19.778 13.69z" fill="#EBEBEB"/><path d="M223.888 71.093l1.373 13.189h10.956l1.372-13.189h-13.701zM205.49 97.977l2.031 4.465h46.454L256 97.977h-50.51z" fill="#DBDBDB"/><path d="M176.818.897h-.61v58.325h.61V.897z" fill="#C7C7C7"/><path d="M151.258 83.568l2.031 4.466h46.454l2.025-4.466-19.777-13.689h-10.956l-19.777 13.69z" fill="#EBEBEB"/><path d="M169.662 56.69l1.373 13.19h10.956l1.373-13.19h-13.702zm-18.404 26.878l2.031 4.466h46.454l2.025-4.466h-50.51z" fill="#DBDBDB"/><path d="M.013 245.519l31.221-.146 31.215-.055 62.437-.104 62.437.104 31.215.049 31.215.152-31.215.147-31.215.054-62.437.104-62.437-.104-31.215-.054-31.221-.147z" fill="#263238"/><path d="M124.886 272.513c62.251 0 112.716-3.734 112.716-8.339 0-4.606-50.465-8.339-112.716-8.339-62.25 0-112.715 3.733-112.715 8.339 0 4.605 50.464 8.339 112.715 8.339z" fill="#EBEBEB"/><path d="M149.287 196.717v.146c0 .025 0 .098-.03.165v.11c-.02.078-.034.157-.043.238 0 .054 0 .109-.031.17-.03.061-.042.257-.073.403-.03.146-.091.494-.14.787l-.275 1.488c-.03.159-.061.33-.091.507a52.09 52.09 0 01-.134.726c-.049.25-.098.561-.153.86-.037.207-.079.421-.116.64-.116.653-.238 1.349-.378 2.093a.17.17 0 000 .055 387.7 387.7 0 01-.476 2.653c-.043.244-.091.488-.14.732-.049.244-.098.513-.14.769 0 .159-.055.323-.092.488a761.442 761.442 0 01-.75 4.124c-.092.488-.177.982-.269 1.482-.177.976-.36 1.977-.549 3.008a13.82 13.82 0 00-.128.719 843.269 843.269 0 00-.848 4.661c-.036.165-.061.33-.091.494-.141.757-.281 1.519-.415 2.3-.018.06-.03.121-.037.183l-.201 1.11a1571.904 1571.904 0 01-1.043 5.741c-.141.787-.287 1.58-.433 2.379a726.7 726.7 0 00-.549 3.013 459.448 459.448 0 01-.555 3.051c-.098.518-.19 1.037-.287 1.555-.11.61-.226 1.22-.336 1.873H87.759a5383.527 5383.527 0 0111.987-48.803l49.541.08z" fill="#263238"/><path d="M141.32 202.817a11230.253 11230.253 0 01-8.003 42.702h-.732c2.8-14.268 5.685-28.513 8.54-42.763.043-.134.232-.079.195.061z" fill="#263238"/><path d="M149.287 196.717v.146c0 .024 0 .098-.03.165v.11c-.02.078-.034.157-.043.238 0 .054 0 .109-.031.17-.03.061-.048.257-.073.403-.024.146-.091.494-.14.787-.085.433-.171.927-.275 1.488-.03.159-.061.33-.091.507a42.3 42.3 0 01-.134.726c-.049.25-.098.561-.153.86-.036.207-.079.421-.116.64-.122.653-.244 1.348-.378 2.093a.17.17 0 000 .055l-.482 2.641c-.049.244-.091.494-.134.744-.043.25-.098.513-.14.769-.037.159-.061.323-.092.488-.238 1.293-.488 2.672-.75 4.124-.092.488-.177.982-.269 1.482-.183.976-.366 1.977-.549 3.008-.048.237-.091.475-.128.719-.28 1.501-.563 3.055-.848 4.661-.036.165-.061.329-.091.494-.14.757-.281 1.519-.415 2.3-.018.06-.03.121-.037.183l-.201 1.11a643.455 643.455 0 00-.83 4.569c-.073.385-.146.775-.213 1.172-.146.787-.287 1.58-.433 2.379a726.7 726.7 0 00-.549 3.013c-.183 1.019-.372 2.038-.555 3.05-.098.519-.189 1.038-.287 1.556-.11.61-.226 1.22-.342 1.873h-26.463l-2.117-21.668-.073-.769-.085-.83-.415-4.239-.36-3.661-1.72-17.556h40.042z" fill="#455A64"/><path d="M179.24 245.519h-56.861c-.098-5.234-.202-10.297-.33-15.074v-.347s-6.637-3.929-10.212-7.01a12.593 12.593 0 01-1.671-1.659c-2.288-2.916-4.582-14.128-9.328-24.676h69.544c11.298 21.925 10.505 39.543 8.858 48.766z" fill="#263238"/><path d="M108.513 220.654c3.379 1.385 6.423 3.514 9.425 5.57 3.123 2.129 5.984 4.593 8.985 6.881.116.092 0 .281-.122.195-3.166-2.019-6.478-3.794-9.608-5.874-3.05-2.02-6.197-3.984-8.833-6.528-.104-.097.012-.305.153-.244z" fill="#455A64"/><path d="M108.086 201.091c.402 2.165.927 4.313 1.397 6.466.433 2.019.756 4.075 1.293 6.1a10.322 10.322 0 002.83 5.088c.793.738 1.666 1.391 2.508 2.062.457.366.945.714 1.421 1.086-.061-.287-.11-.61-.165-.873l-.421-2.44c-.305-1.83-.61-3.66-.878-5.49-.549-3.593-1.049-7.223-1.83-10.779a.114.114 0 01.02-.076.11.11 0 01.064-.046.12.12 0 01.079.006c.025.011.045.03.056.055.897 3.526 1.885 7.015 2.666 10.572.385 1.738 1.745 10.37 1.83 10.98.086.61.116 1.263.141 1.891a7.633 7.633 0 010 1.934.16.16 0 01-.147.098.163.163 0 01-.088-.027.155.155 0 01-.058-.071 7.545 7.545 0 01-.543-1.867c-.159-.61-.299-1.22-.409-1.866-.043-.22-.073-.452-.104-.684-.847-.518-1.634-1.22-2.44-1.769a31.216 31.216 0 01-2.531-1.903 9.666 9.666 0 01-3.093-4.832 35.264 35.264 0 01-1.013-6.185c-.274-2.44-.476-4.88-.817-7.321-.012-.213.201-.256.232-.109zm57.861 15.08c-.909-.47-4.423.366-10.828-.726a7.33 7.33 0 01-3.453-1.403c-1.665-1.361-2.928-3.551-3.94-5.424a28.325 28.325 0 01-2.758-6.71c-.03-.146-.232-.073-.207.061.238 1.324.366 2.648.72 3.959a24.397 24.397 0 001.323 3.593c.964 2.172 2.093 4.502 4.045 5.973 2.043 1.537 4.88 1.83 7.369 2 1.428.098 7.046-.054 7.802-.854a.312.312 0 00.07-.251.324.324 0 00-.143-.218z" fill="#455A64"/><path d="M113.027 118.486c-5.856 8.657-46.533 60.79-52.42 61.857-15 2.703-28.739-2.44-23.072-15.36 6.601-15.043 43.313-44.868 67.775-58.075 17.52-9.462 13.476 3.032 7.717 11.578z" fill="#DD6A57"/><path d="M93.164 147.231L61.26 132.59s29.519-20.521 43.312-26.768c14.409-6.509 20.235-2.702 7.93 14.232-12.072 16.666-19.338 27.177-19.338 27.177z" fill="#455A64"/><path d="M78.249 121.231c-.067.04-.132.082-.195.129l24.822 12.115.122-.171-24.749-12.073zm-6.863 4.509a1.833 1.833 0 00-.189.122l27.543 13.42.116-.164-27.47-13.378zm-6.765 4.55l-.19.129 30.203 14.738c.03-.055.074-.11.11-.165L64.621 130.29z" fill="#fff"/><path d="M93.56 140.752a25.339 25.339 0 00-2.256-1.14l-2.325-1.141a209.15 209.15 0 00-4.74-2.245c-3.166-1.47-6.332-2.953-9.522-4.362a89.686 89.686 0 00-2.648-1.14c-.884-.36-1.897-.708-2.83-1.092-.055 0-.086.061-.03.091.774.384 1.518.836 2.287 1.22.769.384 1.592.787 2.391 1.171a477.69 477.69 0 004.759 2.209c3.129 1.421 6.258 2.855 9.418 4.209.885.384 1.77.75 2.654 1.129.885.378 1.83.854 2.8 1.159.049.03.092-.043.043-.068z" fill="#263238"/><path d="M112.551 120.036c-12.121 16.684-19.387 27.195-19.387 27.195l-10.2-4.691 34.967-39.042c2.685 1.836 1.416 7.204-5.38 16.538z" fill="#263238"/><path d="M94.519 208.405h82.293s-12.573-78.523-42.91-105.377c-3.745-3.318-12.2-2.562-17.691.177-1.97.982-9.04 10.871-11.06 20.229-2.019 9.358-10.858 84.69-10.632 84.971z" fill="#455A64"/><path d="M169.333 174.878l-36.517-72.625c.389.22.752.48 1.086.775 17.215 15.239 28.708 47.119 35.431 71.85z" fill="#263238"/><path d="M130.376 101.277h-8.37c.391-.073.775-.14 1.166-.201h6.216c.329.055.646.122.988.201zm8.602 6.857h-27.013a3.34 3.34 0 01-.134.201h27.287l-.14-.201zm5.429 7.058h-36.413l-.091.201h36.638l-.134-.201zm4.441 7.058h-43.44c0 .067-.037.134-.055.202h43.617l-.122-.202zm3.806 7.058h-48.509c0 .067 0 .134-.031.202h48.644c-.036-.068-.073-.135-.104-.202zm3.343 7.058h-52.84v.202h52.944c-.049-.067-.104-.135-.104-.202zm2.983 7.065h-56.732v.195h56.8c0-.067-.049-.134-.074-.195h.006zm2.691 7.058h-60.357v.195h60.418c-.019-.067-.043-.128-.067-.195h.006zm2.44 7.058H100.43v.201h63.754a1.966 1.966 0 00-.061-.201h-.012zm2.257 7.058h-66.81v.201h66.877c-.018-.067-.067-.134-.067-.201zm2.074 7.058H98.703v.201h69.8l-.061-.201zm1.916 7.058H97.855v.201h72.594a.407.407 0 01-.085-.201h-.006zm1.763 7.058H97.02v.201h75.155c-.018-.067-.03-.134-.048-.201h-.006zm1.622 7.058H96.214v.201h77.578c-.012-.067-.024-.134-.043-.201h-.006zm1.489 7.058H95.391v.201h79.914l-.073-.201zm1.33 7.058H94.628v.201h81.988a1.222 1.222 0 01-.048-.201h-.006z" fill="#fff"/><path d="M148.177 105.005c20.741 7.668 71.813 28.018 74.424 39.926 1.903 8.754-37.066 14.196-38.176 12.78-.872-1.122-37.059-29.312-49.815-44.483-11.091-13.177 6.936-10.676 13.567-8.223z" fill="#DD6A57"/><path d="M163.849 140.887l27.323-18.911s-32.649-15.056-47.351-18.789c-15.324-3.892-20.393.866-5.319 15.391 14.848 14.287 25.347 22.309 25.347 22.309z" fill="#455A64"/><path d="M170.974 113.106l-21.181 15.934c.055.043.098.091.153.128l21.247-15.977-.219-.085zm7.491 3.196l-23.242 17.484.152.134 23.31-17.526c-.074-.031-.116-.067-.22-.092zm7.424 3.252l-25.097 18.911c.05.046.103.089.159.128l25.145-18.911a1.58 1.58 0 01-.207-.128z" fill="#fff"/><path d="M183.632 120.676c-.732.403-1.422.909-2.117 1.379-.695.47-1.427.964-2.147 1.44-1.452.97-2.892 1.97-4.325 2.97-2.855 2.007-5.729 4.002-8.541 6.058-.775.561-1.549 1.129-2.312 1.714-.762.586-1.562 1.287-2.361 1.904-.049.036 0 .103.061.073.72-.476 1.489-.891 2.215-1.367.726-.476 1.482-.976 2.214-1.482 1.44-.988 2.867-1.989 4.27-3.001 2.8-1.995 5.613-3.984 8.37-6.04l2.306-1.726c.805-.61 1.659-1.171 2.409-1.83.049-.049.013-.122-.042-.092zm-22.309 18.045c-.769-.647-1.482-1.354-2.227-2.025-.744-.671-1.512-1.336-2.263-2.007-1.47-1.306-2.958-2.593-4.435-3.898a1109.449 1109.449 0 01-8.918-7.98c-1.678-1.525-3.325-3.093-5.058-4.557l-.036.037c1.36 1.47 2.824 2.855 4.27 4.234-.305-.189-.61-.385-.903-.61-.293-.226-.646-.464-.958-.714-.311-.25-.61-.531-.963-.763-.055-.036-.104.037-.067.08a8.14 8.14 0 001.915 1.653c.354.238.726.451 1.098.653l.409.189c1.293 1.22 2.594 2.44 3.904 3.66 2.928 2.7 5.915 5.344 8.961 7.93.842.708 1.69 1.403 2.544 2.099.854.695 1.794 1.366 2.666 2.08.043.049.104-.018.061-.061z" fill="#263238"/><path d="M118.828 118.279c4.838.61 12.201-7.436 14.775-13.616.177-.427-.878-4.587-1.927-9.706-.611-3.105-1.221-6.582-1.574-9.79-.067-.66-19.631 7.003-19.631 7.003s2.684 6.52 3.239 12.121c.04.444.04.891 0 1.336v.219c-.152 2.544.445 11.829 5.118 12.433z" fill="#DD6A57"/><path d="M115.784 105.737c-.689.094-1.385.131-2.08.109v-.225a6.426 6.426 0 000-1.33c-.549-5.594-3.227-12.121-3.227-12.121s15.861-6.223 19.069-6.973c-.231 3.776-1.915 19.033-13.762 20.54z" fill="#263238"/><path d="M127.936 60.271c4.057 6.314 6.027 27.311 2.367 33.143-5.307 8.461-16.8 12.365-24.694 5.344-7.656-6.802-9.76-34.21-5.393-39.798 6.369-8.236 21.717-8.04 27.72 1.311z" fill="#DD6A57"/><path d="M114.9 78.602c0-.055.122.061.122.116.097 1.422.445 3.05 1.769 3.368.042 0 .042.085 0 .079-1.586-.061-2.026-2.202-1.891-3.563z" fill="#263238"/><path d="M116.016 77.004c2.257-.396 2.885 4.142.799 4.514-2.086.373-2.69-4.178-.799-4.514zm-9.767 2.586c0-.048-.103.086-.091.141.238 1.403.274 3.05-.933 3.69-.037 0 0 .092 0 .074 1.549-.415 1.476-2.593 1.024-3.904z" fill="#263238"/><path d="M104.785 78.316c-2.281.14-1.83 4.703.287 4.575 2.117-.128 1.635-4.691-.287-4.575zm12.738-3.606a18.558 18.558 0 01-1.83-.378 3.078 3.078 0 01-1.83-.738.968.968 0 010-1.183c.61-.702 1.507-.726 2.367-.61a3.537 3.537 0 012.226 1.22 1.033 1.033 0 01.109 1.163 1.033 1.033 0 01-1.042.526zm-14.806 1.562a17.08 17.08 0 001.739-.72 3.05 3.05 0 001.635-1.067.97.97 0 00-.22-1.165c-.72-.574-1.616-.427-2.44-.116a3.53 3.53 0 00-1.952 1.628 1.041 1.041 0 00.149 1.125 1.033 1.033 0 001.089.315zm15.123 14.763c-.287.378-.561.878-1.068.988a3.774 3.774 0 01-1.561-.14.052.052 0 00-.031.002.055.055 0 00-.023.02.049.049 0 00.005.058 1.925 1.925 0 001.891.518 1.516 1.516 0 00.933-1.403c.013-.08-.103-.098-.146-.043zm-2.062-4.008a4.838 4.838 0 01-2.898 2.574 5.995 5.995 0 01-1.714.317 2.082 2.082 0 01-.335 0h-.311a.36.36 0 01-.33-.274.598.598 0 010-.146v-.122c-.177-1.08-.299-2.74-.299-2.74-.372.25-2.263 1.44-2.306.867-.372-4.722-.78-9.974-.152-14.75a.133.133 0 01.215-.076.125.125 0 01.047.075c.531 4.527.269 9.114.732 13.665a8.598 8.598 0 012.166-.994c.165 0 .183 3.215.299 3.69a.2.2 0 000 .05c1.83 0 3.147-.757 4.746-2.221.097-.116.213-.03.14.085z" fill="#263238"/><path d="M111.728 89.284a5.762 5.762 0 002.519 1.446c.522.126 1.07.085 1.568-.116 1.086-.451.97-1.488.64-2.343a6.245 6.245 0 00-.689-1.28 7.447 7.447 0 01-4.038 2.293z" fill="#263238"/><path d="M114.247 90.73c.522.126 1.07.085 1.568-.116 1.086-.451.97-1.489.64-2.343-1.189.293-2.263 1.275-2.208 2.459z" fill="#FF98B9"/><path d="M131.023 76.248c-3.697.945-6.192-8.028-6.192-8.028s-5.85.787-10.981-5.936c0 0-5.679 6.753-11.999 7.589-9.907 1.3-13.567-10.932-10.858-14.531 3.837-5.106 14.317-2.83 14.317-2.83s12.201-8.023 19.063-.257c0 0 6.052-1.653 8.578 4.801 2.525 6.454.829 18.484-1.928 19.192z" fill="#263238"/><path d="M126.466 68.848c-2.838.4-5.728-.154-8.217-1.574-2.544-1.537-4.667-4.465-4.758-7.503 0-.165-.275-.14-.257 0 .33 3.306 1.532 6.423 4.338 8.4a9.037 9.037 0 008.961.927.14.14 0 00.041-.067.14.14 0 00.001-.078.146.146 0 00-.109-.105zm5.74-15.806c-2.592-1.744-5.521-1.22-8.272-.213-.152.055-.055.31.092.238 2.635-1.22 5.978-.25 8.125 1.537 2.148 1.787 2.672 4.612 2.886 7.217a20.415 20.415 0 01-4.051 14.067c-.049.06.049.14.098.08a20.416 20.416 0 004.636-15.471c-.348-2.703-1.147-5.844-3.514-7.455zm-26.39-.207a9.55 9.55 0 00-6.399-2.288 11.463 11.463 0 00-7.51 3.282 6.473 6.473 0 00-1.549 6.296c.647 2.586 2.599 4.587 4.667 6.1a.054.054 0 00.042.017.055.055 0 00.025-.103c-1.757-1.506-3.33-3.348-3.922-5.66a5.954 5.954 0 011.726-6.1c3.288-2.941 8.998-4.46 12.762-1.367a.129.129 0 00.139-.035.124.124 0 00.031-.068.119.119 0 00-.012-.074z" fill="#263238"/><path d="M128.381 78.444s2.849-7.674 6.217-6.82c3.367.854 2.403 11.151-.72 13.335a3.665 3.665 0 01-4.118.3 3.658 3.658 0 01-1.086-.965l-.293-5.85z" fill="#DD6A57"/><path d="M134.25 74.57a.047.047 0 01.032.003.05.05 0 01.024.023.05.05 0 01.004.032.052.052 0 01-.018.028c-2.171 1.616-2.861 4.197-3.147 6.759.488-1.086 1.342-1.83 2.763-1.287a.083.083 0 01.032.036.087.087 0 01.005.048.085.085 0 01-.024.041.079.079 0 01-.043.021 2.239 2.239 0 00-2.184 1.373 10.785 10.785 0 00-.641 2.226c-.055.244-.476.232-.463-.043a.208.208 0 000-.06c-.861-3.075.396-8.029 3.66-9.2z" fill="#263238"/><path d="M212.956 195.686c-5.801 20.241-22.4 36.687-25.798 38.84-2.892 1.831-4.398 2.77-4.398 2.77-5.125 3.416-8.651 2.489-8.651 2.489s-4.764 5.691-8.68 3.379c-4.399-2.568 3.147-10.053 4.782-16.708 3.74-15.251 4.795-37.963 5.436-42.471l37.309 11.701z" fill="#DD6A57"/><path d="M185.358 213.23c-1.189 4.466-2.245 8.882-4.032 13.165-1.964 4.697-4.636 8.888-7.253 13.219a.12.12 0 00.038.152.124.124 0 00.081.023.12.12 0 00.076-.035c5.984-7.094 10.34-17.245 11.481-26.432.03-.226-.33-.311-.391-.092zm9.529.921c-1.397 4.271-3.904 11.786-12.249 23.06-.031.036 0 .091.061.054a47.946 47.946 0 0012.615-22.955c.067-.275-.329-.439-.427-.159z" fill="#263238"/><path d="M173.554 207.801c-.299-2.178-1.446-2.038-3.422 1.336-1.977 3.373-6.93 18.398-12.024 16.227-5.094-2.172 2.202-23.273 5.924-28.635 3.721-5.362 11.59-12.744 11.59-12.744-.573 4.393-1.006 15.172-2.068 23.816z" fill="#DD6A57"/><path d="M222.589 144.931c4.068 12.78-6.668 41.281-9.633 50.755-1.293 4.13-39.005-6.9-37.596-11.31 2.891-9.023 10.37-25.445 9.053-26.665-1.043-.97 34.473-24.389 38.176-12.78z" fill="#DD6A57"/><path d="M194.747 150.025c-.501.195-1.001.348-1.489.61-.488.262-1.006.47-1.488.732a19.485 19.485 0 00-2.66 1.794 23.945 23.945 0 00-2.391 2.122c-.391.391-.769.793-1.129 1.221a7.06 7.06 0 00-.952 1.287.143.143 0 000 .146s0 .043.037.049c.159.067.25-.067.366-.165l.574-.531c.402-.372.793-.768 1.22-1.146a37.041 37.041 0 012.543-2.148 52.658 52.658 0 012.697-1.934c.457-.311.909-.61 1.372-.933.464-.323.921-.61 1.397-.884.092-.086.019-.269-.097-.22z" fill="#263238"/><path d="M58.392 143.748c-6.1 4.27-24.675 20.905-20.93 29.995 3.746 9.089 18.045 8.87 38.042 5.252l-17.112-35.247z" fill="#DD6A57"/><path d="M57.856 144.144c8.192-6.826 20.094-15.116 24.968-14.854 5.112.275 23.041 1.97 27.08 3.703 4.038 1.732 15.653 13.036 16.842 16.782.952 3.001-4.941 5.832-12.42 1.019-6.997-4.502-8.449-5.924-10.73-6.711-2.282-.787-11.274.94-12.36 4.331-.64 2.001 1.953 7.4 5.558 8.541 3.605 1.141 7.32-1.001 12.402-.726 5.081.274 9.962 5.289 8.98 6.936-.983 1.647-3.258.763-10.194 3.081-4.459 1.494-9.76 4.178-17.307 8.619-7.729 4.545-18.91 4.466-18.91 4.466l-13.91-35.187z" fill="#DD6A57"/><path d="M114.637 151.648c12.201 3.818 6.57 21.906-5.661 18.081-12.23-3.825-6.564-21.912 5.661-18.081z" fill="#FFC727"/><path opacity=".1" d="M114.637 151.648c12.201 3.818 6.57 21.906-5.661 18.081-12.23-3.825-6.564-21.912 5.661-18.081z" fill="#000"/><path d="M113.49 151.288c11.634 3.66 5.997 21.729-5.661 18.081-11.657-3.648-5.99-21.729 5.661-18.081z" fill="#FFC727"/><path opacity=".1" d="M103.053 159.81c-.348 3.3 1.165 6.741 5.258 8.022 9.675 3.05 14.354-11.987 4.698-15.007l-.189-.055c9.028 3.05 4.538 17.221-4.686 14.336a6.925 6.925 0 01-5.081-7.296z" fill="#000"/><path opacity=".1" d="M112.417 154.698a.327.327 0 01.174.167.327.327 0 01.009.242l-.189.494a4.34 4.34 0 011.83 1.708.387.387 0 01.061.354.343.343 0 01-.439.183.338.338 0 01-.189-.171 3.766 3.766 0 00-1.532-1.519l-1.342 3.446c1.721 1.117 2.233 2.123 1.763 3.325-.5 1.306-1.958 1.83-3.514 1.257l-.372.958a.322.322 0 01-.171.181.313.313 0 01-.124.029.34.34 0 01-.126-.021.342.342 0 01-.181-.172.332.332 0 01-.008-.249l.372-.97a4.982 4.982 0 01-2.299-2.263.332.332 0 01-.037-.312.348.348 0 01.427-.189c.082.032.15.093.189.171a4.273 4.273 0 001.964 2.05l1.361-3.502c-1.69-1.122-2.19-2.098-1.714-3.324.475-1.227 1.933-1.769 3.446-1.22l.183-.464a.318.318 0 01.323-.225.32.32 0 01.135.036zm-2.08 4.569l1.299-3.355c-1.22-.439-2.263-.031-2.611.854-.348.884-.128 1.519 1.312 2.501zm.25.958l-1.318 3.398c1.22.451 2.312.048 2.678-.885.366-.933.128-1.537-1.36-2.513z" fill="#000"/><path d="M82.824 129.29c6.027-1.635 18.783-2.879 27.275.439 5.74 2.245 13.884 22.699 10.907 25.109-2.977 2.41-5.49.14-8.784-3.66-1.22-1.385-6.003-10.444-8.577-10.053-3.71.555-12.622 5.886-12.622 5.886l-8.199-17.721z" fill="#DD6A57"/><path d="M121.64 153.404c.915-4.642-1.604-9.858-4.404-14.726-.049-.073-.165 0-.122.061.714 1.22 4.453 10.078 4.435 14.672 0 .061.079.048.091-.007z" fill="#263238"/><path d="M82.824 129.29c6.027-1.635 18.783-2.879 27.275.439 5.74 2.245 9.01 21.906 6.033 24.316-2.977 2.41-6.765-.641-9.48-5.637-.878-1.616-2.44-8.54-4.996-8.174-3.71.561-12.81 2.019-12.81 2.019l-6.022-12.963z" fill="#DD6A57"/><path d="M94.293 141.204c.957-.25 1.293-.342 2.257-.58a36.634 36.634 0 012.898-.61 7.666 7.666 0 012.574-.189 3.817 3.817 0 012.068 1.257c1.263 1.379 1.708 3.386 2.263 5.118.61 1.94 2.227 5.612 4.496 7.284a5.531 5.531 0 002.038 1.043 3.432 3.432 0 001.689.11c2.288-.708 2.745-3.465 2.721-5.741-.049-4.27-1.403-8.54-2.952-12.438-.379-.958-.781-1.91-1.184-2.861a8.35 8.35 0 00-1.83-3.002c-1.434-1.323-5.118-2.007-6.259-2.232-.085 0-.043-.147.043-.128 1.385.25 5.209.451 7.43 2.684.805.817 1.22 1.976 1.671 3.013.452 1.037.952 2.19 1.379 3.307a44.26 44.26 0 012.044 6.643c.457 2.147.86 4.532.5 6.71-.311 1.897-1.623 3.807-3.52 4.368-1.592.482-3.178-.5-3.874-.982a9.379 9.379 0 01-1.83-1.69 38.695 38.695 0 01-2.94-4.801c-.805-1.647-1.165-3.526-2.105-5.1a3.294 3.294 0 00-1.988-1.586 8.68 8.68 0 00-2.575 0 26.84 26.84 0 00-4.88.647c-.42.104-.537-.159-.134-.244z" fill="#263238"/><path d="M78.182 130.467c1.61-.951 10.797-6.71 14.409-7.723 3.611-1.012 17.727-2.971 20.552.244 3.55 4.045-7.052 7.418-11.798 8.461-4.746 1.044-8.931 6.357-8.931 6.357l-14.232-7.339z" fill="#DD6A57"/><path d="M108.665 129.217c-1.592.29-3.167.661-4.722 1.11a30.846 30.846 0 00-4.416 1.299 13.969 13.969 0 00-3.734 2.55 25.953 25.953 0 00-1.574 1.586c-.506.55-1.055 1.257-1.616 1.831-.061.061 0 .164.091.097a35.144 35.144 0 013.416-2.885 18.837 18.837 0 013.96-2.361c2.812-1.22 5.844-1.83 8.662-3.05.116-.031.043-.195-.067-.177zm6.741 25.078c1.086.61 2.312 1.22 3.599 1.165a2.77 2.77 0 001.531-.512c.235-.17.44-.376.61-.61a1.32 1.32 0 00.318-.848c0-.086.115-.079.097 0a3.838 3.838 0 00-.049.525 2.06 2.06 0 01-.122.427 2.22 2.22 0 01-.469.732 2.845 2.845 0 01-1.69.835c-1.519.208-2.849-.61-3.892-1.61a.055.055 0 01-.017-.017.062.062 0 01-.01-.022.049.049 0 010-.024.05.05 0 01.009-.023.085.085 0 01.016-.017.068.068 0 01.047-.01.102.102 0 01.022.009zm-24.462-14.598a54.57 54.57 0 00-3.6 5.978 24.02 24.02 0 00-2.147 6.509c-.384 2.441-.183 4.881-.128 7.37a21.177 21.177 0 01-.14 3.519 14.33 14.33 0 01-.769 2.977 14.028 14.028 0 01-4.081 5.564c-.067.061 0 .171.098.122a14.163 14.163 0 006.039-10.371c.22-2.525-.207-5.057 0-7.588a27.02 27.02 0 011.513-6.747 42.606 42.606 0 013.3-7.321v-.017a.052.052 0 00-.008-.015.046.046 0 00-.028-.017.046.046 0 00-.032.009.043.043 0 00-.017.028zm-22.284-3.813a110.157 110.157 0 00-13.5 9.706 73.648 73.648 0 00-11.591 11.871 49.845 49.845 0 00-4.917 7.931c-.03.055.049.097.085.042a62.541 62.541 0 014.704-6.802 75.331 75.331 0 015.435-6.143 111.27 111.27 0 0112.622-10.828c2.513-1.891 4.819-3.696 7.32-5.594.232-.183.11-.353-.159-.183z" fill="#263238"/><path d="M139.142 252.516c-.042.25-.091.5-.14.757.043-.251.092-.507.134-.757h.006z" fill="#EBEBEB"/><path d="M42.373 185.077c-8.241 11.158-16.83 24.109-18.91 38.103 0 .207.316.28.365.067a82.46 82.46 0 013.66-11.2c5.417-1.495 10.73-2.715 13.58-8.095 2.897-5.527 2.531-12.732 1.982-18.753-.073-.323-.518-.341-.677-.122z" fill="#FFC727"/><path d="M27.537 211.967c3.703-8.302 8.455-16.641 14.495-23.474.042-.048.103 0 .067.068-3.953 4.88-6.96 10.163-9.895 15.549 2.727-2.769 5.716-5.246 8.302-8.186.05-.055.135 0 .086.085-2.568 3.05-5.368 6.424-8.711 8.705a7959.26 7959.26 0 01-2.721 4.972c.226-.128.457-.238.69-.354.036 0 .072.043.036.061-.256.128-.513.268-.775.378-.433.787-.86 1.568-1.312 2.355-.097.14-.341-.012-.262-.159zm2.757-2.928a47.608 47.608 0 006.32-4.221c.055-.043.135.03.08.079a33.555 33.555 0 01-6.308 4.27.08.08 0 01-.091-.128z" fill="#263238"/><path d="M22.498 221.118c0 .171.305.165.3 0 .042-4.612 0-9.242.072-13.872 1.184-2.379 3.715-3.697 5.49-5.606a24.761 24.761 0 003.289-4.582 32.938 32.938 0 003.812-12.713c.488-4.929-1.384-21.192-3.465-20.631-1.073.293-4.563 8.351-5.49 11.017a76.492 76.492 0 00-3.276 13.506c-1.696 10.81-1.555 21.949-.732 32.881z" fill="#FFC727"/><path d="M22.462 201.219c.25-5.832 1.567-11.719 2.794-17.374 1.323-6.1 2.873-11.829 6.008-17.264.061-.104.208 0 .159.092a64.119 64.119 0 00-4.831 13.249c.213-.329.47-.64.683-.951.085-.122.287 0 .207.122a8.54 8.54 0 01-.982 1.379.076.076 0 01-.021.004.076.076 0 01-.022-.004c-1.08 4.355-1.83 8.808-2.513 13.255l.146-.17a.042.042 0 01.026-.01.037.037 0 01.027.008.038.038 0 01.016.023.04.04 0 01-.002.027c-.079.147-.176.293-.262.44-.335 2.257-.646 4.508-.957 6.741 4.038-3.459 7.472-7.479 9.406-12.463h.037c-1.898 5.167-4.88 9.76-9.48 12.902l-.256 1.799c0 .122-.214.092-.214-.03 0-.531 0-1.062.049-1.592-.08-.043-.08-.128-.018-.183z" fill="#263238"/><path d="M24.353 192.77c3.05-4.582 5.935-9.029 8.186-14.092 0-.055.122 0 .098.043-1.891 5.032-4.545 10.126-8.126 14.165-.073.085-.22-.025-.158-.116zm4.081-15.221c1.269-2.251 2.61-4.441 3.806-6.71.037-.061.122 0 .098.055a34.893 34.893 0 01-3.709 6.79c-.085.122-.268-.006-.195-.135zm-.494.977v.037s-.05-.037 0-.037z" fill="#263238"/><path d="M19.35 207.77a46.25 46.25 0 01-1.049 9.078c.05.329.092.658.14.994a43.206 43.206 0 001.63-10.145.31.31 0 000-.311 67.15 67.15 0 00-1.007-13.72c-1.428-8.473-4.545-16.598-10.45-22.949a.418.418 0 00-.36-.093.426.426 0 00-.293.227c-2.385 6.064-1.555 13.293.476 19.338a35.375 35.375 0 004.685 9.187c2.026 2.874 4.612 5.271 6.229 8.394z" fill="#FFC727"/><path d="M9.31 173.578c5.6 9.108 9.491 19.857 9.967 30.587 0 .195-.31.244-.335.049-.134-.964-.28-1.922-.433-2.873-2.312-2.221-4.691-4.563-6.35-7.321 0-.048.042-.103.079-.061a78.428 78.428 0 006.167 6.711 110.236 110.236 0 00-1.434-7.01c-.152-.17-.299-.347-.445-.524-.146-.177.067-.275.165-.165l.134.153a81.23 81.23 0 00-2.922-9.297c-1.428-1.696-3.02-3.166-4.057-5.216 0-.049.043-.085.073-.043.836 1.172 1.641 2.349 2.587 3.435.378.433.793.842 1.183 1.263a72.438 72.438 0 00-4.581-9.554.12.12 0 01-.008-.085.12.12 0 01.05-.07.124.124 0 01.16.021z" fill="#263238"/><path d="M10.444 184.784c1.83 2.441 3.868 4.759 5.551 7.278.05.073-.054.147-.115.092-2.16-2.032-3.99-4.801-5.558-7.321-.049-.055.067-.116.122-.049zm5.807 7.839l.073.079c.055.055-.03.134-.079.085l-.079-.079c-.055-.054.03-.133.085-.085z" fill="#263238"/><path d="M.543 191.043c.446 4.673 2.904 10.261 5.905 13.86a14.747 14.747 0 004.79 3.74c2.073 1.025 4.27 2.208 6.392 3.05a41.908 41.908 0 012.263 8.04c.074-.232.14-.476.208-.714-1.379-11.834-9.035-21.961-18.832-28.439a.47.47 0 00-.726.463z" fill="#FFC727"/><path d="M3.923 194.539c-.067-.061 0-.183.104-.128a40.1 40.1 0 0112.48 15.385c.068.158-.152.299-.243.14a83.528 83.528 0 00-1.391-2.336c-2.239-.421-4.356-1.995-6.015-3.49-.043-.036 0-.103.067-.061a13.768 13.768 0 002.825 1.983c.915.464 1.897.756 2.842 1.128a61.285 61.285 0 00-2.592-3.8 26.083 26.083 0 01-6.71-3.776c-.068-.049 0-.153.06-.11a67.742 67.742 0 006.235 3.343 56.63 56.63 0 00-4.435-5.143c-.763-.402-1.531-.805-2.27-1.22-.06-.03 0-.134.05-.115a8.37 8.37 0 011.738.86c-.86-.915-1.77-1.8-2.745-2.66zm.207 4.087c.134.077.261.167.378.268.037.031 0 .08-.048.061a2.772 2.772 0 01-.39-.219c-.068-.043-.007-.153.06-.11z" fill="#263238"/><path d="M35.388 245.361H8.547l2.165-24.444.476-5.393h21.559l.476 5.393 2.165 24.444z" fill="#455A64"/><path d="M33.223 220.917h-22.51l.475-5.393h21.559l.476 5.393z" fill="#263238"/><path d="M34.034 211.76H9.907v5.338h24.127v-5.338z" fill="#455A64"/><path d="M74.546 198.645c.202-1.038.324-1.965.427-2.953.104-.988.153-1.97.147-2.977a16.963 16.963 0 00-.269-3.087 7.485 7.485 0 00-1.378-3.257 4.342 4.342 0 00-1.66-1.245 4.14 4.14 0 00-1.006-.28 4.757 4.757 0 00-.976-.043 5.868 5.868 0 00-3.288 1.324 9.03 9.03 0 00-2.105 2.409 8.223 8.223 0 00-1.153 2.977 3.568 3.568 0 00.147 1.891c.15.391.416.728.762.964.33.218.71.344 1.104.366a2.1 2.1 0 001.16-.28 2.45 2.45 0 00.75-.745 4.322 4.322 0 00.61-1.58 8.756 8.756 0 000-3.013 7.116 7.116 0 00-1.068-2.8 3.354 3.354 0 00-1.159-1.086 2.436 2.436 0 00-1.586-.262 4.794 4.794 0 00-2.52 1.476 15.958 15.958 0 00-2.976 4.74 15.826 15.826 0 013.282-4.411 4.146 4.146 0 012.293-1.128 1.953 1.953 0 011.83 1.177c.39.758.616 1.589.665 2.44.072.848 0 1.702-.213 2.526-.09.354-.247.688-.464.982a.672.672 0 01-.256.201.245.245 0 01-.177 0c-.085 0-.183-.067-.195-.097a.492.492 0 01-.055-.141 1.99 1.99 0 01.061-.854 6.99 6.99 0 012.77-3.709 3.212 3.212 0 011.83-.61c.14.008.278.028.415.061.11.03.217.073.317.128.19.112.35.269.463.458a4.53 4.53 0 01.555 1.909c.072.812.072 1.629 0 2.44a25.3 25.3 0 01-.347 2.575c-.159.848-.36 1.744-.61 2.519l3.873.995z" fill="#FFC727"/><path opacity=".1" d="M74.546 198.645c.202-1.038.324-1.965.427-2.953.104-.988.153-1.97.147-2.977a16.963 16.963 0 00-.269-3.087 7.485 7.485 0 00-1.378-3.257 4.342 4.342 0 00-1.66-1.245 4.14 4.14 0 00-1.006-.28 4.757 4.757 0 00-.976-.043 5.868 5.868 0 00-3.288 1.324 9.03 9.03 0 00-2.105 2.409 8.223 8.223 0 00-1.153 2.977 3.568 3.568 0 00.147 1.891c.15.391.416.728.762.964.33.218.71.344 1.104.366a2.1 2.1 0 001.16-.28 2.45 2.45 0 00.75-.745 4.322 4.322 0 00.61-1.58 8.756 8.756 0 000-3.013 7.116 7.116 0 00-1.068-2.8 3.354 3.354 0 00-1.159-1.086 2.436 2.436 0 00-1.586-.262 4.794 4.794 0 00-2.52 1.476 15.958 15.958 0 00-2.976 4.74 15.826 15.826 0 013.282-4.411 4.146 4.146 0 012.293-1.128 1.953 1.953 0 011.83 1.177c.39.758.616 1.589.665 2.44.072.848 0 1.702-.213 2.526-.09.354-.247.688-.464.982a.672.672 0 01-.256.201.245.245 0 01-.177 0c-.085 0-.183-.067-.195-.097a.492.492 0 01-.055-.141 1.99 1.99 0 01.061-.854 6.99 6.99 0 012.77-3.709 3.212 3.212 0 011.83-.61c.14.008.278.028.415.061.11.03.217.073.317.128.19.112.35.269.463.458a4.53 4.53 0 01.555 1.909c.072.812.072 1.629 0 2.44a25.3 25.3 0 01-.347 2.575c-.159.848-.36 1.744-.61 2.519l3.873.995z" fill="#000"/><path d="M77.64 243.97c2.69 3.8 2.14 15.409 3.77 17.038 1.628 1.629 18.3 1.452 19.447.494 1.147-.958.61-5.057 1.83-5.728.519-.269-25.048-11.804-25.048-11.804z" fill="#FFC727"/><path opacity=".1" d="M77.64 243.97c2.69 3.8 2.14 15.409 3.77 17.038 1.628 1.629 18.3 1.452 19.447.494 1.147-.958.61-5.057 1.83-5.728.519-.269-25.048-11.804-25.048-11.804z" fill="#000"/><path d="M148.915 244.159c-3.361 4.88-1.543 15.251-3.172 16.849-1.629 1.598-18.301 1.452-19.448.494-1.147-.958-.61-5.277-1.275-6.1-.348-.433 23.895-11.243 23.895-11.243z" fill="#FFC727"/><path opacity=".1" d="M148.915 244.159c-3.361 4.88-1.543 15.251-3.172 16.849-1.629 1.598-18.301 1.452-19.448.494-1.147-.958-.61-5.277-1.275-6.1-.348-.433 23.895-11.243 23.895-11.243z" fill="#000"/><path opacity=".3" d="M102.711 255.774a1.82 1.82 0 00-.719 1.22 79.429 79.429 0 01-22.352-5.984c-.39-2.831-.945-5.527-2-7.022 0-.012 25.566 11.524 25.071 11.786zm46.204-11.615c-1.25 1.83-1.787 4.386-2.05 6.991a75.868 75.868 0 01-21.473 5.935 3.738 3.738 0 00-.366-1.683c-.36-.433 23.889-11.243 23.889-11.243z" fill="#000"/><path d="M112.161 173.804c-33.552 0-46.436 26.286-46.436 41.671 0 15.178 9.76 40.97 46.436 40.97 36.675 0 48.833-21.851 48.833-41.318 0-19.466-14.909-41.323-48.833-41.323z" fill="#FFC727"/><path opacity=".1" d="M112.161 173.804c-33.552 0-46.436 26.286-46.436 41.671 0 15.178 9.76 40.97 46.436 40.97 36.675 0 48.833-21.851 48.833-41.318 0-19.466-14.909-41.323-48.833-41.323z" fill="#000"/><path d="M121.635 175.707s15.336-11.761 31.947-10.37c5.716.482-3.776 12.877-3.953 22.571l-27.994-12.201z" fill="#FFC727"/><path opacity=".1" d="M121.635 175.707s15.336-11.761 31.947-10.37c5.716.482-3.776 12.877-3.953 22.571l-27.994-12.201z" fill="#000"/><path opacity=".3" d="M143.224 183.162c-.098.61 5.197 2.879 5.746 2.532.549-.348 1.098-7.974 5.417-16.099.635-1.196-10.139 6.991-11.163 13.567zm3.33 30.209a2.728 2.728 0 002.203-1.922 4.06 4.06 0 01-1.788 3.05c-.073.049-.036.189.061.159 2.935-1.104 2.617-5.246 1.586-7.888a4.792 4.792 0 00-.177-.433c-.658-1.531-1.83-2.641-3.245-2.44-4.74.683-3.032 10.108 1.36 9.474z" fill="#000"/><path d="M157.828 199.95c.732 2.202 7.393.415 9.071 1.83 2.641 2.196 1.909 29.397-.506 31.587-1.355 1.221-8.907-.067-11.03 1.428-2.123 1.495 2.465-34.845 2.465-34.845z" fill="#FFC727"/><path opacity=".1" d="M157.828 199.95c.732 2.202 7.393.415 9.071 1.83 2.641 2.196 1.909 29.397-.506 31.587-1.355 1.221-8.907-.067-11.03 1.428-2.123 1.495 2.465-34.845 2.465-34.845z" fill="#000"/><path opacity=".3" d="M167.277 216.89c0 6.625-.555 12-1.22 12-.665 0-1.22-5.375-1.22-12s.549-11.999 1.22-11.999c.671 0 1.22 5.374 1.22 11.999zm-68.134-34.369c.11-.036 11.432-3.715 21.961-.835l1.049-3.838c-11.724-3.208-23.79.732-24.273.897l1.257 3.776-.61-1.885.616 1.885z" fill="#000"/><path d="M83.404 240.279c-15.123-17.38-5.868-37.56-5.447-38.432a2.489 2.489 0 00-4.466-2.19 42.092 42.092 0 00-3.569 14.488c-.725 11.054 2.929 21.205 11.591 28.117 2.617 2.086 3.855.256 1.891-1.983zm-6.564-46.143a2.71 2.71 0 105.42.013 2.71 2.71 0 00-5.42-.013z" fill="#fff"/><path d="M211.199 258.074h-19.124v4.227h19.124v-4.227z" fill="#FFC727"/><g opacity=".1" fill="#000"><path opacity=".1" d="M192.862 258.458a4.881 4.881 0 010 3.386 4.881 4.881 0 010-3.386zm1.421 0a4.881 4.881 0 010 3.386 4.881 4.881 0 010-3.386z"/><path opacity=".1" d="M194.978 258.458a4.881 4.881 0 010 3.386 4.881 4.881 0 010-3.386zm3.825 0a4.939 4.939 0 010 3.386 4.881 4.881 0 010-3.386zm1.031 0c.21.54.314 1.116.305 1.696a4.344 4.344 0 01-.305 1.69 4.287 4.287 0 01-.305-1.69 4.507 4.507 0 01.305-1.696zm4.271 0a4.881 4.881 0 010 3.386 4.881 4.881 0 010-3.386zm.988 0a4.881 4.881 0 010 3.386 4.881 4.881 0 010-3.386zm1.812 0a4.881 4.881 0 010 3.386 4.939 4.939 0 010-3.386zm-3.624 0a4.38 4.38 0 01.299 1.702 4.27 4.27 0 01-.305 1.69 4.363 4.363 0 01-.305-1.69 4.485 4.485 0 01.311-1.702zm-7.021 0a4.881 4.881 0 010 3.386 4.881 4.881 0 010-3.386zm4.935 0a4.881 4.881 0 010 3.386 4.27 4.27 0 01-.305-1.69 4.374 4.374 0 01.305-1.696z"/><path opacity=".1" d="M201.909 258.458a4.881 4.881 0 010 3.386 4.881 4.881 0 010-3.386zm7.362 0c.21.54.314 1.116.305 1.696a4.344 4.344 0 01-.305 1.69 4.287 4.287 0 01-.305-1.69 4.393 4.393 0 01.305-1.696zm1.068 0c.21.54.314 1.116.305 1.696a4.27 4.27 0 01-.305 1.69 4.363 4.363 0 01-.305-1.69 4.488 4.488 0 01.305-1.696zm-2.593 0a4.881 4.881 0 010 3.386 4.881 4.881 0 010-3.386zm-9.772 0c.213.54.316 1.116.305 1.696a4.27 4.27 0 01-.305 1.69 4.881 4.881 0 010-3.386z"/></g><path opacity=".1" d="M211.199 258.074v.896l-19.13.604v-1.5h19.13z" fill="#000"/><path d="M209.601 253.846h-19.124v4.228h19.124v-4.228z" fill="#FFC727"/><g opacity=".1" fill="#000"><path opacity=".1" d="M208.741 257.616a4.828 4.828 0 010-3.379 4.828 4.828 0 010 3.379zm-1.422 0a4.378 4.378 0 01-.305-1.69 4.226 4.226 0 01.305-1.689c.214.537.318 1.111.306 1.689a4.458 4.458 0 01-.306 1.69z"/><path opacity=".1" d="M206.63 257.616a4.828 4.828 0 010-3.379 4.828 4.828 0 010 3.379zm-3.825 0a4.828 4.828 0 010-3.379 4.828 4.828 0 010 3.379zm-1.055 0a4.457 4.457 0 01-.305-1.69 4.336 4.336 0 01.305-1.689c.216.536.32 1.111.305 1.689a4.341 4.341 0 01-.305 1.69zm-4.27 0a4.828 4.828 0 010-3.379 4.828 4.828 0 010 3.379zm-.97 0a4.341 4.341 0 01-.305-1.69 4.209 4.209 0 01.305-1.689 4.828 4.828 0 010 3.379zm-1.812 0a4.828 4.828 0 010-3.379 4.828 4.828 0 010 3.379zm3.624 0a4.457 4.457 0 01-.305-1.69 4.192 4.192 0 01.305-1.689c.213.537.317 1.111.305 1.689a4.477 4.477 0 01-.305 1.69zm7.039 0a4.36 4.36 0 01-.305-1.69 4.226 4.226 0 01.305-1.689 4.828 4.828 0 010 3.379zm-4.953 0a4.828 4.828 0 010-3.379 4.828 4.828 0 010 3.379z"/><path opacity=".1" d="M199.7 257.616a4.828 4.828 0 010-3.379 4.919 4.919 0 010 3.379zm-7.369 0a4.828 4.828 0 010-3.379c.216.536.32 1.111.305 1.689a4.341 4.341 0 01-.305 1.69zm-1.067 0a4.457 4.457 0 01-.305-1.69 4.3 4.3 0 01.305-1.689c.216.536.32 1.111.305 1.689a4.378 4.378 0 01-.305 1.69zm2.592 0a4.828 4.828 0 010-3.379 4.828 4.828 0 010 3.379zm9.773 0a4.341 4.341 0 01-.305-1.69 4.226 4.226 0 01.305-1.689c.213.537.317 1.111.305 1.689a4.457 4.457 0 01-.305 1.69z"/></g><path opacity=".1" d="M209.601 253.846v.897l-19.124.604v-1.501h19.124z" fill="#000"/><path d="M211.071 249.655h-19.124v4.228h19.124v-4.228z" fill="#FFC727"/><g opacity=".1" fill="#000"><path opacity=".1" d="M192.74 250.04a4.878 4.878 0 010 3.385 4.878 4.878 0 010-3.385zm1.421 0a4.37 4.37 0 01.305 1.696 4.261 4.261 0 01-.305 1.689 4.878 4.878 0 010-3.385z"/><path opacity=".1" d="M194.857 250.04a4.878 4.878 0 010 3.385 4.878 4.878 0 010-3.385zm3.843 0a4.878 4.878 0 010 3.385 4.878 4.878 0 010-3.385zm1.013 0c.21.54.313 1.116.305 1.696a4.377 4.377 0 01-.305 1.689 4.261 4.261 0 01-.305-1.689 4.37 4.37 0 01.305-1.696zm4.27 0a4.878 4.878 0 010 3.385 4.878 4.878 0 010-3.385zm.988 0a4.878 4.878 0 010 3.385 4.878 4.878 0 010-3.385zm1.812 0a4.878 4.878 0 010 3.385 4.878 4.878 0 010-3.385zm-3.624 0c.21.54.314 1.116.305 1.696a4.261 4.261 0 01-.305 1.689 4.377 4.377 0 01-.305-1.689 4.507 4.507 0 01.305-1.696zm-7.039 0a4.878 4.878 0 010 3.385 4.878 4.878 0 010-3.385zm4.953 0a4.878 4.878 0 010 3.385 4.878 4.878 0 010-3.385z"/><path opacity=".1" d="M201.787 250.04a4.948 4.948 0 010 3.385 4.878 4.878 0 010-3.385zm7.363 0a4.878 4.878 0 010 3.385 4.261 4.261 0 01-.305-1.689 4.37 4.37 0 01.305-1.696zm1.067 0c.211.54.314 1.116.305 1.696a4.34 4.34 0 01-.305 1.689 4.279 4.279 0 01-.305-1.689 4.507 4.507 0 01.305-1.696zm-2.592 0a4.878 4.878 0 010 3.385 4.878 4.878 0 010-3.385zm-9.773 0a4.37 4.37 0 01.305 1.696 4.261 4.261 0 01-.305 1.689 4.358 4.358 0 01-.305-1.689 4.488 4.488 0 01.305-1.696z"/></g><path opacity=".1" d="M211.077 249.655v.897l-19.13.604v-1.501h19.13z" fill="#000"/><path d="M71.325 255.53H52.201v4.227h19.124v-4.227z" fill="#FFC727"/><g opacity=".1" fill="#000"><path opacity=".1" d="M52.988 255.891a4.881 4.881 0 010 3.386 4.88 4.88 0 010-3.386zm1.427-.001c.21.538.313 1.112.305 1.689a4.38 4.38 0 01-.305 1.696 4.264 4.264 0 01-.305-1.696 4.364 4.364 0 01.305-1.689zm.695 0a4.48 4.48 0 01.306 1.689 4.267 4.267 0 01-.305 1.696 4.378 4.378 0 01-.305-1.696 4.48 4.48 0 01.305-1.689zm3.82 0a4.878 4.878 0 010 3.385 4.878 4.878 0 010-3.385zm1.037 0a4.877 4.877 0 010 3.385 4.878 4.878 0 010-3.385zm4.27 0c.212.537.316 1.112.305 1.689a4.266 4.266 0 01-.305 1.696 4.878 4.878 0 010-3.385zm.988 0c.21.538.313 1.112.305 1.689a4.267 4.267 0 01-.305 1.696 4.376 4.376 0 01-.305-1.696 4.48 4.48 0 01.305-1.689zm1.812 0c.212.537.316 1.112.305 1.689a4.267 4.267 0 01-.305 1.696 4.878 4.878 0 010-3.385zm-3.624 0a4.878 4.878 0 010 3.385 4.267 4.267 0 01-.305-1.696 4.365 4.365 0 01.305-1.689zm-7.04 0c.21.538.314 1.112.306 1.689a4.38 4.38 0 01-.306 1.696 4.264 4.264 0 01-.304-1.696 4.48 4.48 0 01.304-1.689zm4.954 0a4.878 4.878 0 010 3.385 4.878 4.878 0 010-3.385z"/><path opacity=".1" d="M62.053 255.89a4.877 4.877 0 010 3.385 4.878 4.878 0 010-3.385zm7.351 0a4.878 4.878 0 010 3.385 4.878 4.878 0 010-3.385zm1.067 0a4.878 4.878 0 010 3.385 4.878 4.878 0 010-3.385zm-2.592 0c.212.537.316 1.112.305 1.689a4.267 4.267 0 01-.305 1.696 4.878 4.878 0 010-3.385zm-9.773 0c.21.538.313 1.112.305 1.689a4.38 4.38 0 01-.305 1.696 4.266 4.266 0 01-.305-1.696 4.365 4.365 0 01.305-1.689z"/></g><path opacity=".1" d="M71.331 255.53v.897l-19.13.604v-1.501h19.13z" fill="#000"/><path d="M70.02 251.302H50.896v4.228H70.02v-4.228z" fill="#FFC727"/><g opacity=".1" fill="#000"><path opacity=".1" d="M51.682 251.687c.21.54.314 1.116.305 1.696a4.263 4.263 0 01-.305 1.689 4.265 4.265 0 01-.305-1.689 4.496 4.496 0 01.305-1.696zm1.422 0a4.878 4.878 0 010 3.385 4.94 4.94 0 010-3.385z"/><path opacity=".1" d="M53.805 251.687a4.878 4.878 0 010 3.385 4.877 4.877 0 010-3.385zm3.819 0a4.878 4.878 0 010 3.385 4.263 4.263 0 01-.305-1.689 4.376 4.376 0 01.305-1.696zm1.031 0a4.877 4.877 0 010 3.385 4.878 4.878 0 010-3.385zm4.276 0a4.878 4.878 0 010 3.385 4.878 4.878 0 010-3.385zm.989 0a4.877 4.877 0 010 3.385 4.878 4.878 0 010-3.385zm1.793 0a4.878 4.878 0 010 3.385 4.878 4.878 0 010-3.385zm-3.611 0a4.878 4.878 0 010 3.385 4.878 4.878 0 010-3.385zm-7.034 0a4.878 4.878 0 010 3.385 4.878 4.878 0 010-3.385zm4.948 0c.212.539.316 1.116.305 1.696a4.263 4.263 0 01-.305 1.689 4.365 4.365 0 01-.305-1.689 4.496 4.496 0 01.305-1.696zm.714 0a4.878 4.878 0 010 3.385 4.265 4.265 0 01-.306-1.689 4.378 4.378 0 01.305-1.696zm7.362 0a4.38 4.38 0 01.305 1.696 4.265 4.265 0 01-.305 1.689 4.877 4.877 0 010-3.385zm1.068 0a4.878 4.878 0 010 3.385 4.878 4.878 0 010-3.385zm-2.587 0a4.878 4.878 0 010 3.385 4.878 4.878 0 010-3.385zm-9.778 0a4.877 4.877 0 010 3.385 4.878 4.878 0 010-3.385z"/></g><path opacity=".1" d="M70.02 251.302v.897l-19.124.604v-1.501H70.02z" fill="#000"/><path d="M72.972 242.884H53.848v4.227h19.124v-4.227z" fill="#FFC727"/><g opacity=".1" fill="#000"><path opacity=".1" d="M54.635 243.268a4.881 4.881 0 010 3.386 4.881 4.881 0 010-3.386zm1.427 0c.21.541.314 1.116.305 1.696a4.368 4.368 0 01-.305 1.69 4.273 4.273 0 01-.305-1.69 4.382 4.382 0 01.305-1.696zm.696 0c.21.541.313 1.116.305 1.696a4.368 4.368 0 01-.305 1.69 4.273 4.273 0 01-.305-1.69 4.5 4.5 0 01.305-1.696zm3.819 0a4.38 4.38 0 01.305 1.696 4.271 4.271 0 01-.305 1.69 4.881 4.881 0 010-3.386zm1.037 0a4.881 4.881 0 010 3.386 4.881 4.881 0 010-3.386zm4.27 0a4.38 4.38 0 01.305 1.696 4.271 4.271 0 01-.305 1.69 4.37 4.37 0 01-.305-1.69 4.5 4.5 0 01.305-1.696zm.988 0c.21.541.314 1.116.305 1.696a4.368 4.368 0 01-.305 1.69 4.273 4.273 0 01-.305-1.69 4.5 4.5 0 01.305-1.696zm1.812 0c.213.54.317 1.116.305 1.696a4.273 4.273 0 01-.305 1.69 4.88 4.88 0 010-3.386zm-3.624 0a4.881 4.881 0 010 3.386 4.88 4.88 0 010-3.386zm-7.04 0c.21.541.314 1.116.306 1.696a4.368 4.368 0 01-.305 1.69 4.273 4.273 0 01-.305-1.69 4.5 4.5 0 01.305-1.696zm4.948 0a4.881 4.881 0 010 3.386 4.942 4.942 0 010-3.386z"/><path opacity=".1" d="M63.682 243.268a4.88 4.88 0 010 3.386 4.881 4.881 0 010-3.386zm7.368 0a4.881 4.881 0 010 3.386 4.881 4.881 0 010-3.386zm1.068 0a4.881 4.881 0 010 3.386 4.881 4.881 0 010-3.386zm-2.592 0c.213.54.316 1.116.305 1.696a4.273 4.273 0 01-.305 1.69 4.368 4.368 0 01-.305-1.69 4.495 4.495 0 01.305-1.696zm-9.773 0a4.5 4.5 0 01.305 1.696 4.372 4.372 0 01-.305 1.69 4.273 4.273 0 01-.305-1.69 4.382 4.382 0 01.305-1.696z"/></g><path opacity=".1" d="M72.972 242.884v.897l-19.124.604v-1.501h19.124z" fill="#000"/><path d="M72.49 238.656H53.367v4.228H72.49v-4.228z" fill="#FFC727"/><g opacity=".1" fill="#000"><path opacity=".1" d="M71.636 242.426a4.83 4.83 0 010-3.379 4.922 4.922 0 010 3.379zm-1.427 0a4.464 4.464 0 01-.305-1.689 4.332 4.332 0 01.305-1.69c.216.536.32 1.111.305 1.69a4.464 4.464 0 01-.305 1.689zm-.696 0a4.349 4.349 0 01-.305-1.689 4.22 4.22 0 01.305-1.69c.214.537.317 1.112.305 1.69a4.464 4.464 0 01-.305 1.689zm-3.8 0a4.83 4.83 0 010-3.379 4.83 4.83 0 010 3.379zm-1.056 0a4.83 4.83 0 010-3.379 4.83 4.83 0 010 3.379zm-4.27 0a4.349 4.349 0 01-.305-1.689 4.217 4.217 0 01.305-1.69 4.83 4.83 0 010 3.379zm-.988 0a4.349 4.349 0 01-.305-1.689 4.217 4.217 0 01.305-1.69c.213.537.317 1.112.305 1.69a4.464 4.464 0 01-.305 1.689zm-1.812 0a4.83 4.83 0 010-3.379 4.83 4.83 0 010 3.379zm3.623 0a4.464 4.464 0 01-.304-1.689 4.332 4.332 0 01.305-1.69c.216.536.32 1.111.305 1.69a4.347 4.347 0 01-.305 1.689zm7.04 0a4.462 4.462 0 01-.305-1.689 4.22 4.22 0 01.306-1.69c.213.537.317 1.112.305 1.69a4.464 4.464 0 01-.305 1.689zm-4.977 0a4.83 4.83 0 010-3.379 4.83 4.83 0 010 3.379z"/><path opacity=".1" d="M62.59 242.426a4.83 4.83 0 010-3.379 4.83 4.83 0 010 3.379zm-7.37 0a4.83 4.83 0 010-3.379 4.83 4.83 0 010 3.379zm-1.067 0a4.83 4.83 0 010-3.379 4.83 4.83 0 010 3.379zm2.592 0a4.83 4.83 0 010-3.379 4.83 4.83 0 010 3.379zm9.773 0a4.464 4.464 0 01-.305-1.689 4.332 4.332 0 01.305-1.69 4.22 4.22 0 01.305 1.69 4.464 4.464 0 01-.305 1.689z"/></g><path opacity=".1" d="M72.49 238.656v.897l-19.124.604v-1.501H72.49z" fill="#000"/><path d="M71.325 234.429H52.201v4.227h19.124v-4.227z" fill="#FFC727"/><g opacity=".1" fill="#000"><path opacity=".1" d="M52.988 234.819a4.833 4.833 0 010 3.38 4.924 4.924 0 010-3.38zm1.427 0c.21.539.314 1.112.305 1.69a4.347 4.347 0 01-.305 1.69 4.273 4.273 0 01-.305-1.69 4.469 4.469 0 01.305-1.69zm.695 0c.214.538.317 1.112.306 1.69a4.273 4.273 0 01-.305 1.69 4.35 4.35 0 01-.305-1.69 4.469 4.469 0 01.305-1.69zm3.82 0a4.833 4.833 0 010 3.38 4.832 4.832 0 010-3.38zm1.037 0a4.833 4.833 0 010 3.38 4.833 4.833 0 010-3.38zm4.27 0a4.832 4.832 0 010 3.38 4.833 4.833 0 010-3.38zm.988 0c.213.538.317 1.112.305 1.69a4.271 4.271 0 01-.305 1.69 4.35 4.35 0 01-.305-1.69 4.469 4.469 0 01.305-1.69zm1.812 0a4.833 4.833 0 010 3.38 4.832 4.832 0 010-3.38zm-3.624 0c.21.539.314 1.112.305 1.69a4.347 4.347 0 01-.305 1.69 4.273 4.273 0 01-.305-1.69 4.354 4.354 0 01.305-1.69zm-7.04 0c.21.539.314 1.112.306 1.69a4.271 4.271 0 01-.306 1.69 4.35 4.35 0 01-.304-1.69 4.469 4.469 0 01.304-1.69zm4.954 0a4.833 4.833 0 010 3.38 4.832 4.832 0 010-3.38z"/><path opacity=".1" d="M62.053 234.819a4.832 4.832 0 010 3.38 4.833 4.833 0 010-3.38zm7.351 0a4.832 4.832 0 010 3.38 4.833 4.833 0 010-3.38zm1.067 0a4.832 4.832 0 010 3.38 4.833 4.833 0 010-3.38zm-2.592 0a4.833 4.833 0 010 3.38 4.832 4.832 0 010-3.38zm-9.773 0c.21.539.314 1.112.305 1.69a4.349 4.349 0 01-.305 1.69 4.273 4.273 0 01-.305-1.69 4.469 4.469 0 01.305-1.69z"/></g><path opacity=".1" d="M71.331 234.429v.903l-19.13.604v-1.507h19.13z" fill="#000"/><path d="M71.325 247.111H52.201v4.228h19.124v-4.228z" fill="#FFC727"/><g opacity=".1" fill="#000"><path opacity=".1" d="M70.471 250.881a4.878 4.878 0 010-3.385 4.878 4.878 0 010 3.385zm-1.427 0a4.878 4.878 0 010-3.385 4.878 4.878 0 010 3.385z"/><path opacity=".1" d="M68.349 250.881a4.878 4.878 0 010-3.385 4.27 4.27 0 01.304 1.69 4.378 4.378 0 01-.305 1.695zm-3.819 0a4.49 4.49 0 01-.305-1.695 4.268 4.268 0 01.305-1.69c.212.537.316 1.112.305 1.69a4.494 4.494 0 01-.305 1.695zm-1.031 0a4.878 4.878 0 010-3.385 4.94 4.94 0 010 3.385zm-4.277 0a4.492 4.492 0 01-.305-1.695 4.367 4.367 0 01.305-1.69 4.27 4.27 0 01.305 1.69 4.494 4.494 0 01-.305 1.695zm-.988 0a4.878 4.878 0 010-3.385 4.27 4.27 0 01.305 1.69 4.378 4.378 0 01-.305 1.695zm-1.812 0a4.494 4.494 0 01-.305-1.695 4.27 4.27 0 01.305-1.69c.213.537.317 1.112.305 1.69a4.492 4.492 0 01-.305 1.695zm3.624 0a4.878 4.878 0 010-3.385 4.878 4.878 0 010 3.385zm7.04 0a4.878 4.878 0 010-3.385 4.27 4.27 0 01.305 1.69 4.377 4.377 0 01-.305 1.695zm-4.948 0a4.878 4.878 0 010-3.385 4.878 4.878 0 010 3.385z"/><path opacity=".1" d="M61.443 250.881a4.377 4.377 0 01-.305-1.695 4.27 4.27 0 01.305-1.69c.212.537.316 1.112.305 1.69a4.492 4.492 0 01-.305 1.695zm-7.381 0a4.877 4.877 0 010-3.385 4.878 4.878 0 010 3.385zm-1.074 0a4.877 4.877 0 010-3.385 4.878 4.878 0 010 3.385zm2.592 0a4.494 4.494 0 01-.305-1.695 4.27 4.27 0 01.305-1.69 4.27 4.27 0 01.305 1.69 4.492 4.492 0 01-.305 1.695zm9.773 0a4.878 4.878 0 010-3.385 4.878 4.878 0 010 3.385z"/></g><path opacity=".1" d="M71.331 247.111v.897l-19.13.604v-1.501h19.13z" fill="#000"/><path d="M50.609 245.007c12.59 2.263 9.26 20.912-3.35 18.649-12.609-2.264-9.266-20.912 3.35-18.649z" fill="#FFC727"/><path opacity=".1" d="M50.609 245.007c12.59 2.263 9.26 20.912-3.35 18.649-12.609-2.264-9.266-20.912 3.35-18.649z" fill="#000"/><path d="M49.425 244.793c12 2.154 8.675 20.808-3.349 18.649-12.023-2.16-8.668-20.802 3.35-18.649z" fill="#FFC727"/><path opacity=".1" d="M40.14 254.56c.068 3.325 2.001 6.539 6.223 7.32 9.974 1.788 12.737-13.695 2.776-15.482l-.196-.031c9.34 1.873 6.662 16.52-2.849 14.812a6.921 6.921 0 01-5.953-6.619z" fill="#000"/><path opacity=".1" d="M48.79 248.313a.326.326 0 01.227.385l-.129.512c.818.27 1.534.78 2.056 1.464a.389.389 0 01.11.342.346.346 0 01-.415.238.329.329 0 01-.207-.153 3.775 3.775 0 00-1.714-1.305l-.891 3.58c1.83.897 2.477 1.831 2.166 3.081-.342 1.36-1.72 2.032-3.331 1.684l-.25 1a.312.312 0 01-.135.225.313.313 0 01-.378-.012.316.316 0 01-.097-.365l.25-1.013a4.928 4.928 0 01-2.569-1.958.331.331 0 01-.073-.305.334.334 0 01.397-.238.297.297 0 01.207.146 4.271 4.271 0 002.209 1.788l.909-3.66c-1.83-.903-2.44-1.831-2.111-3.081.33-1.251 1.69-2.001 3.264-1.647l.122-.488a.323.323 0 01.384-.22zm-1.494 4.795l.867-3.495c-1.22-.281-2.252.256-2.477 1.177-.226.921.055 1.507 1.61 2.318zm.366.921l-.86 3.532c1.281.293 2.3-.244 2.544-1.22.244-.976-.104-1.525-1.684-2.281v-.031z" fill="#000"/></svg>