<svg width="64" height="64" fill="none" xmlns="http://www.w3.org/2000/svg"><circle cx="32" cy="32" r="32" fill="#FCE8EB"/><path d="M33.393 36.562h-6.154a1.846 1.846 0 100 3.692h3.076v2.462a1.846 1.846 0 003.693 0V40.22a5.546 5.546 0 004.923-5.504V32.87c0-1.02-.826-1.846-1.846-1.846h-8c0-1.018.828-1.846 1.846-1.846h6.153a1.846 1.846 0 100-3.693h-3.076v-2.461a1.846 1.846 0 10-3.693 0v2.496a5.546 5.546 0 00-4.922 5.504v1.846c0 1.02.826 1.846 1.846 1.846h8a1.848 1.848 0 01-1.846 1.846z" fill="#3E54D8"/></svg>