<svg width="474" height="458" fill="none" xmlns="http://www.w3.org/2000/svg"><path d="M0 259c0-65.722 53.278-119 119-119v119H0z" fill="#ED6373"/><path d="M30 294c0-8.284 6.716-15 15-15h15v30H45c-8.284 0-15-6.716-15-15z" fill="#F3B63F"/><path d="M465 56c0 26.51-21.49 48-48 48h-48V8h48c26.51 0 48 21.49 48 48z" fill="#199F27"/><circle cx="430" cy="145" r="13" fill="#3E54D8"/><g filter="url(#filter0_d)"><rect x="74" y="28" width="328" height="314" rx="36" fill="#fff"/></g><path opacity=".1" d="M268 104c25.957 0 47 21.043 47 47v38.994h-94V151c0-25.957 21.043-47 47-47z" fill="#199F27"/><path d="M263.201 160.702c0-14.172-11.53-25.702-25.701-25.702-14.172 0-25.702 11.53-25.702 25.702 0 14.172 11.53 25.702 25.702 25.702 14.171 0 25.701-11.53 25.701-25.702zm-45.691 0c0-10.053 7.459-18.396 17.134-19.786v5.906c-4.39 1.246-7.615 5.289-7.615 10.072v3.808a2.856 2.856 0 002.856 2.856h12.375v.952a4.765 4.765 0 01-4.76 4.759h-7.615a2.856 2.856 0 100 5.712h4.759v5.507c-9.675-1.391-17.134-9.733-17.134-19.786zm22.845 19.786v-5.906c4.39-1.247 7.615-5.289 7.615-10.072v-3.808a2.856 2.856 0 00-2.855-2.856H232.74v-.952a4.764 4.764 0 014.76-4.759h7.615a2.856 2.856 0 000-5.712h-4.76v-5.507c9.675 1.39 17.135 9.733 17.135 19.786s-7.46 18.395-17.135 19.786z" fill="#199F27"/><path d="M229.885 215.913h-2.856v-17.085c0-4.577-2.217-8.908-5.93-11.584l-5.822-4.196a2.81 2.81 0 00-.544-.308c-3.173-1.36-6.568-1.431-9.197-.287l-1.979-12.77a12.856 12.856 0 00-12.701-10.885 2.856 2.856 0 00-2.856 2.856v33.633c0 3.582 1.333 7.008 3.753 9.648l6.718 7.329v3.649h-2.856a2.856 2.856 0 00-2.855 2.856v12.375a2.856 2.856 0 002.855 2.856h34.27a2.856 2.856 0 002.855-2.856v-12.375a2.856 2.856 0 00-2.855-2.856zm-26.453-6.689l-7.469-8.148a8.55 8.55 0 01-2.251-5.789v-30.191a7.1 7.1 0 014.201 5.461l3.103 20.025c.098.848.287 1.662.909 2.285l8.797 8.874c1.095 1.105 2.934 1.113 4.039.017a2.855 2.855 0 00.017-4.038l-8.116-8.187c-.016-1.011.445-1.388.618-1.527.838-.681 2.718-.991 4.931-.127l5.548 3.998a8.59 8.59 0 013.558 6.951v17.085h-17.134v-4.759c0-.715-.268-1.404-.751-1.93zm23.597 19.064h-28.558v-6.663h28.558v6.663zm57.115-69.49a12.86 12.86 0 00-8.364 3.093 12.863 12.863 0 00-4.337 7.792l-1.979 12.77c-2.629-1.144-6.025-1.073-9.197.287a2.832 2.832 0 00-.544.308l-5.822 4.196a14.315 14.315 0 00-5.93 11.584v17.085h-2.856a2.856 2.856 0 00-2.855 2.856v12.375a2.856 2.856 0 002.855 2.856h34.27a2.856 2.856 0 002.855-2.856v-12.375a2.856 2.856 0 00-2.855-2.856h-2.856v-3.649l6.718-7.329a14.243 14.243 0 003.753-9.648v-33.633a2.856 2.856 0 00-2.856-2.856zm-7.615 69.49h-28.558v-6.663h28.558v6.663zm4.759-33.001a8.55 8.55 0 01-2.251 5.789l-7.469 8.148a2.854 2.854 0 00-.751 1.93v4.759h-17.135v-17.085a8.587 8.587 0 013.559-6.951l5.547-3.998c2.214-.864 4.093-.553 4.932.127.173.14.633.517.618 1.527l-8.116 8.187a2.855 2.855 0 00.017 4.038c1.105 1.096 2.944 1.088 4.039-.017l8.792-8.869c.627-.624.815-1.439.914-2.29l3.103-20.025a7.1 7.1 0 014.201-5.461v30.191z" fill="#373943"/><defs><filter id="filter0_d" x="2" y="0" width="472" height="458" filterUnits="userSpaceOnUse" color-interpolation-filters="sRGB"><feFlood flood-opacity="0" result="BackgroundImageFix"/><feColorMatrix in="SourceAlpha" values="0 0 0 0 0 0 0 0 0 0 0 0 0 0 0 0 0 0 127 0"/><feMorphology radius="17" in="SourceAlpha" result="effect1_dropShadow"/><feOffset dy="44"/><feGaussianBlur stdDeviation="44.5"/><feColorMatrix values="0 0 0 0 0.243137 0 0 0 0 0.329412 0 0 0 0 0.847059 0 0 0 0.06 0"/><feBlend in2="BackgroundImageFix" result="effect1_dropShadow"/><feBlend in="SourceGraphic" in2="effect1_dropShadow" result="shape"/></filter></defs></svg>