<svg width="481" height="458" fill="none" xmlns="http://www.w3.org/2000/svg"><path d="M27 182c0-20.435 16.566-37 37-37v37H27z" fill="#ED6373"/><path d="M455 185c0 8.284-6.716 15-15 15h-15v-30h15c8.284 0 15 6.716 15 15z" fill="#F3B63F"/><path d="M420 56c26.51 0 48 21.49 48 48v48h-96v-48c0-26.51 21.49-48 48-48z" fill="#199F27"/><circle cx="81" cy="285" r="81" fill="#3E54D8"/><g filter="url(#filter0_d)"><rect x="81" y="28" width="328" height="314" rx="36" fill="#fff"/></g><circle opacity=".1" cx="219.5" cy="153.5" r="49.5" fill="#3E54D8"/><g clip-path="url(#clip0)"><path d="M291.144 225.288h-1.904V161.51h1.904a2.856 2.856 0 002.449-4.326l-14.278-23.797a2.856 2.856 0 00-4.899 0l-14.278 23.797a2.855 2.855 0 002.449 4.326h1.903v63.778h-7.615v-47.596a2.856 2.856 0 00-2.856-2.855h-19.038a2.856 2.856 0 00-2.856 2.855v47.596h-7.615v-32.365a2.856 2.856 0 00-2.856-2.856h-19.039a2.856 2.856 0 00-2.855 2.856v32.365h-1.904a2.856 2.856 0 000 5.712h93.288a2.856 2.856 0 000-5.712zm-85.673 0v-29.509h13.327v29.509h-13.327zm32.366 0v-44.74h13.326v44.74h-13.326zm32.365 0v-66.634a2.857 2.857 0 00-2.58-2.843l9.243-15.404 9.244 15.404a2.857 2.857 0 00-2.58 2.843v66.634h-13.327z" fill="#373943"/><path d="M221.654 160.557h-9.519a2.856 2.856 0 100 5.712h4.759v3.807a2.856 2.856 0 105.712 0v-3.861c4.277-.475 7.615-4.111 7.615-8.514v-2.855a2.855 2.855 0 00-2.856-2.855H214.99a2.86 2.86 0 012.856-2.856h9.519a2.856 2.856 0 100-5.712h-4.759v-3.807a2.856 2.856 0 10-5.712 0v3.861c-4.277.476-7.615 4.111-7.615 8.514v2.855a2.854 2.854 0 002.856 2.855h12.375a2.86 2.86 0 01-2.856 2.856z" fill="#3E54D8"/></g><defs><clipPath id="clip0"><path fill="#fff" transform="translate(195 132)" d="M0 0h99v99H0z"/></clipPath><filter id="filter0_d" x="9" y="0" width="472" height="458" filterUnits="userSpaceOnUse" color-interpolation-filters="sRGB"><feFlood flood-opacity="0" result="BackgroundImageFix"/><feColorMatrix in="SourceAlpha" values="0 0 0 0 0 0 0 0 0 0 0 0 0 0 0 0 0 0 127 0"/><feMorphology radius="17" in="SourceAlpha" result="effect1_dropShadow"/><feOffset dy="44"/><feGaussianBlur stdDeviation="44.5"/><feColorMatrix values="0 0 0 0 0.243137 0 0 0 0 0.329412 0 0 0 0 0.847059 0 0 0 0.06 0"/><feBlend in2="BackgroundImageFix" result="effect1_dropShadow"/><feBlend in="SourceGraphic" in2="effect1_dropShadow" result="shape"/></filter></defs></svg>