<svg width="129" height="46" fill="none" xmlns="http://www.w3.org/2000/svg"><g clip-path="url(#clip0_5954_3844)"><path fill-rule="evenodd" clip-rule="evenodd" d="M129 .193c-.67 1.404-1.242 2.64-1.849 3.862-2.788 5.607-5.552 11.225-8.399 16.802-.699 1.37-.722 2.516-.014 3.906 3.219 6.319 6.344 12.685 9.497 19.035.24.485.446.99.748 1.658H0V.194h129z" fill="#AD475C"/><path d="M23.111 35.272l-5.753-7.893h-1.122v7.893h-6.35V10.436h9.928c2.736 0 4.934.666 6.595 2 1.684 1.333 2.56 3.39 2.63 6.174 0 4.396-1.625 7.109-4.875 8.138l6.77 8.524h-7.823zm-6.875-13.295h3.683c1.24 0 2.117-.468 2.631-1.403.515-.959.515-1.906 0-2.841-.514-.96-1.391-1.439-2.63-1.439h-3.684v5.683zm34.535-3.964c-.024.678-.258 1.415-.702 2.21a4.247 4.247 0 01-1.86 1.824c1.521.772 2.538 1.8 3.053 3.087.514 1.286.666 2.526.456 3.718-.678 4.28-3.625 6.42-8.84 6.42H32.74V10.436h9.962c2.433 0 4.397.69 5.894 2.07 1.52 1.356 2.245 3.192 2.175 5.507zm-11.717 2.14h3.648c.96 0 1.638-.362 2.035-1.087.421-.749.433-1.485.035-2.21-.397-.749-1.087-1.123-2.07-1.123h-3.648v4.42zm0 9.612h3.648c1.193 0 2.023-.421 2.491-1.263.491-.866.491-1.72 0-2.561-.491-.842-1.321-1.263-2.49-1.263h-3.649v5.087zm14.804 2.174c0-.958.34-1.777 1.018-2.455a3.347 3.347 0 012.455-1.017c.96 0 1.777.339 2.456 1.017.701.678 1.052 1.497 1.052 2.455 0 .983-.35 1.825-1.052 2.526a3.346 3.346 0 01-2.456 1.017 3.345 3.345 0 01-2.455-1.017 3.505 3.505 0 01-1.018-2.526zm23.357 3.333l-5.753-7.893H70.34v7.893h-6.35V10.436h9.928c2.736 0 4.934.666 6.595 2 1.683 1.333 2.56 3.39 2.63 6.174 0 4.396-1.625 7.109-4.875 8.138l6.77 8.524h-7.823zM70.34 21.977h3.683c1.24 0 2.117-.468 2.631-1.403.514-.959.514-1.906 0-2.841-.514-.96-1.391-1.439-2.63-1.439H70.34v5.683zm22.713-11.541v16.522c0 .749.245 1.392.737 1.93a3.1 3.1 0 001.753.947 6.36 6.36 0 002.105 0 3.12 3.12 0 001.79-.947 2.763 2.763 0 00.736-1.93V10.436h6.349v16.522c0 1.263-.234 2.42-.701 3.473-.445 1.029-1.053 1.883-1.825 2.56a11.94 11.94 0 01-2.666 1.755 8.969 8.969 0 01-3.121.842 18.986 18.986 0 01-3.263 0 9.301 9.301 0 01-3.157-.842 12.28 12.28 0 01-2.63-1.754c-.75-.678-1.346-1.532-1.79-2.56-.444-1.053-.666-2.21-.666-3.474V10.436h6.349z" fill="#fff"/></g><defs><clipPath id="clip0_5954_3844"><path fill="#fff" transform="translate(0 .193)" d="M0 0h129v45.263H0z"/></clipPath></defs></svg>