<svg width="457" height="750" fill="none" xmlns="http://www.w3.org/2000/svg"><path d="M374.5 387c45.563 0 82.5 36.936 82.5 82.5 0 45.563-36.937 82.5-82.5 82.5S292 515.063 292 469.5V387h82.5z" fill="#ED6373"/><path d="M93.5 0C145.139 0 187 41.86 187 93.5V187H0V93.5C0 41.86 41.861 0 93.5 0z" fill="#F3B63F"/><circle cx="404" cy="229" r="21" fill="#3E54D8"/><path d="M20 346.5c0-12.427 10.074-22.5 22.5-22.5H65v45H42.5C30.074 369 20 358.926 20 346.5z" fill="#199F27"/><g filter="url(#filter0_d)"><rect x="80" y="51" width="283" height="578" rx="20" fill="#fff"/></g><path d="M90 78c0-12.728 0-19.092 3.954-23.046C97.908 51 104.272 51 117 51h220c9.428 0 14.142 0 17.071 2.929C357 56.858 357 61.572 357 70.999v7H90z" fill="#fff"/><rect x="205" y="62" width="25" height="5" rx="2.5" fill="#EAF1FE"/><rect x="238" y="62" width="5" height="5" rx="2.5" fill="#EAF1FE"/><path d="M88.5 93c0-6.351 5.149-11.5 11.5-11.5h243c6.351 0 11.5 5.149 11.5 11.5v511c0 8.008-6.492 14.5-14.5 14.5H103c-8.008 0-14.5-6.492-14.5-14.5V93z" fill="#EAF1FE" stroke="#D3E3FF"/><path opacity=".86" d="M89 94c0-6.627 5.373-12 12-12h241c6.627 0 12 5.373 12 12v37H89V94z" fill="url(#paint0_linear)"/><path opacity=".9" d="M115.886 181.32l-.023-9.546-4.693 7.86h-1.64l-4.694-7.678v9.364h-3.463v-15.949h3.053l5.969 9.911 5.879-9.911h3.053l.022 15.949h-3.463zm12.893.183c-1.291 0-2.453-.266-3.485-.798a6.113 6.113 0 01-2.393-2.256c-.577-.956-.866-2.042-.866-3.258 0-1.215.289-2.301.866-3.258a5.953 5.953 0 012.393-2.233c1.032-.546 2.194-.82 3.485-.82 1.292 0 2.446.274 3.464.82a5.957 5.957 0 012.392 2.233c.577.957.866 2.043.866 3.258 0 1.216-.289 2.302-.866 3.258a6.117 6.117 0 01-2.392 2.256c-1.018.532-2.172.798-3.464.798zm0-2.917c.912 0 1.656-.304 2.233-.911.593-.623.889-1.451.889-2.484s-.296-1.853-.889-2.46c-.577-.623-1.321-.934-2.233-.934-.911 0-1.663.311-2.255.934-.593.607-.889 1.427-.889 2.46s.296 1.861.889 2.484c.592.607 1.344.911 2.255.911zm9.166-9.524h3.532v7.291l5.969-7.291h3.258v12.258h-3.531v-7.291l-5.947 7.291h-3.281v-12.258zm6.152-1.321c-2.673 0-4.017-1.177-4.033-3.532h2.324c.015.532.16.95.433 1.254.289.288.707.432 1.253.432.547 0 .965-.144 1.253-.432.304-.304.456-.722.456-1.254h2.37c-.016 2.355-1.367 3.532-4.056 3.532zm28.666 1.321v12.258h-3.554v-9.341h-5.104v9.341h-3.531v-12.258h12.189zm9.149 12.441c-1.291 0-2.453-.266-3.485-.798a6.113 6.113 0 01-2.393-2.256c-.577-.956-.866-2.042-.866-3.258 0-1.215.289-2.301.866-3.258a5.953 5.953 0 012.393-2.233c1.032-.546 2.194-.82 3.485-.82 1.292 0 2.446.274 3.464.82a5.957 5.957 0 012.392 2.233c.577.957.866 2.043.866 3.258 0 1.216-.289 2.302-.866 3.258a6.117 6.117 0 01-2.392 2.256c-1.018.532-2.172.798-3.464.798zm0-2.917c.912 0 1.656-.304 2.233-.911.593-.623.889-1.451.889-2.484s-.296-1.853-.889-2.46c-.577-.623-1.321-.934-2.233-.934-.911 0-1.663.311-2.255.934-.593.607-.889 1.427-.889 2.46s.296 1.861.889 2.484c.592.607 1.344.911 2.255.911zm16.389-9.706c1.139 0 2.172.266 3.099.798a5.53 5.53 0 012.21 2.21c.531.941.797 2.043.797 3.303 0 1.261-.266 2.37-.797 3.327a5.731 5.731 0 01-2.21 2.21c-.927.516-1.96.775-3.099.775-1.565 0-2.795-.494-3.691-1.481v5.718h-3.554v-16.678h3.394v1.413c.881-1.063 2.165-1.595 3.851-1.595zm-.615 9.706c.911 0 1.655-.304 2.233-.911.592-.623.888-1.451.888-2.484s-.296-1.853-.888-2.46c-.578-.623-1.322-.934-2.233-.934-.912 0-1.663.311-2.256.934-.577.607-.866 1.427-.866 2.46s.289 1.861.866 2.484c.593.607 1.344.911 2.256.911zm19.066-6.607h-4.147v9.341h-3.532v-9.341h-4.146v-2.917h11.825v2.917zm18.311 3.167c0 1.898-.638 3.402-1.914 4.511-1.261 1.094-3.068 1.724-5.423 1.891v4.192h-3.258v-4.192c-2.354-.167-4.169-.79-5.445-1.868-1.261-1.094-1.891-2.605-1.891-4.534 0-1.899.623-3.372 1.868-4.42 1.261-1.048 3.084-1.656 5.468-1.823v-4.488h3.258v4.488c2.355.167 4.162.782 5.423 1.845 1.276 1.064 1.914 2.529 1.914 4.398zm-14.491 0c0 1.093.312 1.936.934 2.529.623.592 1.611.964 2.962 1.116v-7.131c-1.351.137-2.339.493-2.962 1.071-.622.562-.934 1.367-.934 2.415zm7.154 3.645c1.352-.152 2.34-.524 2.962-1.116.638-.593.957-1.436.957-2.529 0-1.048-.319-1.853-.957-2.415-.622-.578-1.61-.934-2.962-1.071v7.131zm21.66-3.554c0 .045-.023.364-.069.957h-9.273a2.89 2.89 0 001.185 1.8c.623.44 1.397.661 2.324.661.638 0 1.2-.092 1.686-.274a4.227 4.227 0 001.39-.911l1.891 2.05c-1.154 1.322-2.84 1.983-5.058 1.983-1.382 0-2.605-.266-3.668-.798-1.064-.547-1.884-1.299-2.461-2.256-.577-.956-.866-2.042-.866-3.258 0-1.2.281-2.278.843-3.235a5.987 5.987 0 012.347-2.256c1.002-.546 2.119-.82 3.349-.82 1.2 0 2.286.258 3.258.775a5.562 5.562 0 012.279 2.233c.562.957.843 2.073.843 3.349zm-6.357-3.668c-.805 0-1.481.228-2.028.683-.547.456-.881 1.079-1.002 1.869h6.037c-.121-.775-.455-1.39-1.002-1.846-.547-.471-1.215-.706-2.005-.706zm20.726-2.507v12.258h-3.554v-9.341h-3.873l-.114 2.164c-.061 1.61-.213 2.947-.456 4.01-.243 1.064-.638 1.899-1.184 2.507-.547.607-1.307.911-2.279.911-.516 0-1.131-.091-1.845-.274l.182-2.916c.243.03.418.046.524.046.532 0 .926-.19 1.185-.57.273-.395.455-.888.547-1.481.091-.607.159-1.405.205-2.392l.182-4.922h10.48zm10.049 3.919c1.594.015 2.817.38 3.668 1.094.85.699 1.276 1.694 1.276 2.985 0 1.351-.479 2.407-1.436 3.167-.941.744-2.27 1.116-3.987 1.116l-6.152-.023v-12.258h3.532v3.919h3.099zm-.798 5.833c.684.015 1.208-.129 1.572-.433.365-.304.547-.759.547-1.367 0-.592-.182-1.025-.547-1.299-.349-.273-.873-.417-1.572-.433l-2.301-.022v3.554h2.301z" fill="#24252E"/><path d="M105.381 214.762h-2.392v6.11h-.977v-6.11h-2.383v-.868h5.752v.868zm5.281 3.498c0 .073-.006.17-.019.289h-4.287c.06.466.263.841.608 1.127.353.279.788.419 1.306.419.631 0 1.14-.213 1.525-.638l.529.618c-.24.279-.539.491-.898.638a3.068 3.068 0 01-1.186.219c-.558 0-1.053-.113-1.485-.339a2.521 2.521 0 01-1.007-.967 2.795 2.795 0 01-.349-1.396c0-.511.113-.973.339-1.385.233-.412.549-.731.947-.957a2.694 2.694 0 011.366-.349c.505 0 .953.116 1.346.349.398.226.707.545.927.957.225.412.338.884.338 1.415zm-2.611-1.913c-.459 0-.844.139-1.156.418-.306.279-.486.645-.539 1.097h3.389a1.664 1.664 0 00-.548-1.087c-.306-.286-.688-.428-1.146-.428zm6.149 2.292h-1.096v2.233h-.957v-5.283h.957v2.233h1.116l1.715-2.233h1.027l-2.004 2.542 2.143 2.741h-1.126l-1.775-2.233zm8.318-3.05l-2.562 5.811c-.226.539-.492.917-.798 1.137-.299.219-.661.329-1.086.329-.259 0-.512-.044-.758-.13a1.504 1.504 0 01-.598-.359l.409-.718c.272.26.588.389.947.389a.88.88 0 00.578-.189c.159-.12.302-.329.429-.628l.169-.369-2.332-5.273h.996l1.844 4.226 1.825-4.226h.937zm8.505 0v5.283h-7.526v-5.283h.957v4.446h2.333v-4.446h.957v4.446h2.322v-4.446h.957zm.788 4.446v1.963h-.898v-1.126h-.887v-.837h1.785zm1.07-4.446h.957v3.848l3.24-3.848h.867v5.283h-.957v-3.848l-3.23 3.848h-.877v-5.283zm6.921 0h.957v3.848l3.24-3.848h.867v5.283h-.957v-3.848l-3.229 3.848h-.878v-5.283zm2.472-.688c-.491 0-.873-.116-1.146-.349-.272-.239-.412-.581-.419-1.026h.648c.007.245.09.445.25.598.166.146.385.219.657.219.273 0 .492-.073.658-.219a.81.81 0 00.26-.598h.667c-.006.445-.149.787-.428 1.026-.279.233-.661.349-1.147.349zm9.429 6.031c-.538 0-1.02-.116-1.445-.349a2.579 2.579 0 01-.987-.957 2.73 2.73 0 01-.359-1.396c0-.518.12-.98.359-1.385.239-.412.568-.731.987-.957a2.957 2.957 0 011.445-.349c.479 0 .904.096 1.276.289.379.193.671.472.877.838l-.728.468a1.617 1.617 0 00-.618-.568 1.762 1.762 0 00-.817-.19c-.345 0-.658.077-.937.23a1.674 1.674 0 00-.648.658 1.976 1.976 0 00-.229.966c0 .373.076.702.229.987.16.279.376.495.648.648.279.153.592.23.937.23.299 0 .572-.064.817-.19.246-.126.452-.316.618-.568l.728.458a2.115 2.115 0 01-.877.848 2.742 2.742 0 01-1.276.289zm7.609-5.343v5.283h-.957v-2.133a4.016 4.016 0 01-1.705.399c-.658 0-1.166-.153-1.525-.459-.359-.306-.538-.764-.538-1.376v-1.714h.957v1.655c0 .365.113.641.339.827.232.186.554.279.966.279.466 0 .967-.116 1.506-.349v-2.412h.957zm6.632 2.671c0 .073-.007.17-.02.289h-4.286c.06.466.262.841.608 1.127.352.279.787.419 1.306.419.631 0 1.139-.213 1.525-.638l.528.618a2.313 2.313 0 01-.897.638 3.072 3.072 0 01-1.186.219c-.558 0-1.054-.113-1.485-.339a2.521 2.521 0 01-1.007-.967 2.785 2.785 0 01-.349-1.396c0-.511.113-.973.339-1.385.232-.412.548-.731.947-.957.405-.233.86-.349 1.365-.349s.954.116 1.346.349c.399.226.708.545.927.957.226.412.339.884.339 1.415zm-2.612-1.913c-.458 0-.844.139-1.156.418-.306.279-.485.645-.538 1.097h3.389a1.669 1.669 0 00-.548-1.087c-.306-.286-.688-.428-1.147-.428zm-.937-1.695a.498.498 0 01-.508-.508c0-.147.05-.27.15-.369.099-.1.219-.15.358-.15.14 0 .26.05.359.15.1.099.15.222.15.369a.498.498 0 01-.509.508zm1.854 0a.498.498 0 01-.508-.508c0-.147.05-.27.15-.369.099-.1.219-.15.358-.15.14 0 .26.05.359.15.1.099.15.222.15.369a.498.498 0 01-.509.508zm6.893 1.774h-1.934v4.446h-.957v-4.446h-1.934v-.837h4.825v.837z" fill="#373943"/><path d="M121.821 255.646c0 1.946-.712 3.62-2.136 5.02-1.424 1.376-3.476 2.231-6.158 2.563v3.987h-3.56v-3.88a19.374 19.374 0 01-5.02-.926c-1.59-.522-2.872-1.163-3.845-1.922l1.958-4.343c.902.664 1.958 1.222 3.169 1.673a14.45 14.45 0 003.738.854v-5.945c-1.685-.403-3.109-.854-4.272-1.353a7.615 7.615 0 01-2.92-2.171c-.783-.973-1.174-2.255-1.174-3.845 0-1.97.712-3.655 2.136-5.055 1.447-1.424 3.524-2.291 6.23-2.599v-3.952h3.56v3.881c2.919.237 5.328.961 7.226 2.171l-1.78 4.379c-1.78-1.02-3.595-1.638-5.446-1.851v6.052c1.661.38 3.061.819 4.2 1.317a7.172 7.172 0 012.92 2.172c.783.949 1.174 2.207 1.174 3.773zm-14.489-10.573c0 .593.226 1.08.677 1.46.451.379 1.103.7 1.958.961v-5.055c-.902.213-1.567.557-1.994 1.032a2.252 2.252 0 00-.641 1.602zm6.195 13.457c.854-.19 1.495-.499 1.922-.926a2.09 2.09 0 00.641-1.531c0-.593-.226-1.079-.677-1.459-.427-.38-1.056-.712-1.886-.997v4.913zm30.363-20.506v24.92h-5.767v-20.292h-4.984v-4.628h10.751zm22.948 20.221v4.699h-18.833v-3.738l9.612-9.078c1.021-.973 1.709-1.803 2.065-2.492.356-.712.534-1.412.534-2.1 0-.997-.344-1.756-1.032-2.279-.665-.545-1.65-.818-2.955-.818-1.092 0-2.077.213-2.955.64-.878.404-1.614 1.021-2.207 1.852l-4.201-2.706c.973-1.448 2.314-2.575 4.023-3.382 1.709-.831 3.667-1.246 5.874-1.246 1.851 0 3.465.309 4.841.926 1.401.593 2.481 1.447 3.24 2.563.783 1.092 1.175 2.385 1.175 3.88a8.68 8.68 0 01-.855 3.809c-.569 1.187-1.673 2.54-3.31 4.059l-5.732 5.411h10.716zm14.021-10.075c2.183.356 3.856 1.175 5.019 2.457 1.163 1.258 1.745 2.824 1.745 4.699a7.53 7.53 0 01-1.14 4.023c-.759 1.21-1.922 2.183-3.488 2.919-1.543.736-3.442 1.103-5.696 1.103-1.757 0-3.489-.225-5.198-.676-1.685-.475-3.121-1.139-4.308-1.994l2.243-4.414c.949.712 2.041 1.27 3.275 1.673 1.258.38 2.54.57 3.845.57 1.448 0 2.587-.273 3.418-.819.83-.57 1.246-1.365 1.246-2.385 0-2.041-1.555-3.062-4.664-3.062h-2.634v-3.809l5.126-5.803h-10.609v-4.628h17.444v3.738l-5.624 6.408zm28.052-.783c3.513 0 6.1.7 7.761 2.1 1.685 1.401 2.528 3.276 2.528 5.625 0 1.519-.38 2.908-1.139 4.165-.76 1.235-1.923 2.231-3.489 2.991-1.543.736-3.453 1.103-5.732 1.103-1.756 0-3.489-.225-5.197-.676-1.686-.475-3.121-1.139-4.308-1.994l2.278-4.414c.95.712 2.041 1.27 3.276 1.673 1.234.38 2.503.57 3.809.57 1.447 0 2.587-.285 3.417-.855.831-.569 1.246-1.364 1.246-2.385 0-1.068-.439-1.875-1.317-2.421-.854-.545-2.349-.818-4.485-.818h-6.373l1.282-14.027h15.201v4.628h-10.395l-.392 4.735h2.029zm23.309 15.984c-2.065 0-3.905-.51-5.518-1.53-1.614-1.021-2.884-2.492-3.81-4.415-.901-1.946-1.352-4.26-1.352-6.942 0-2.682.451-4.984 1.352-6.906.926-1.946 2.196-3.43 3.81-4.45 1.613-1.021 3.453-1.531 5.518-1.531 2.064 0 3.904.51 5.518 1.531 1.613 1.02 2.871 2.504 3.773 4.45.926 1.922 1.389 4.224 1.389 6.906 0 2.682-.463 4.996-1.389 6.942-.902 1.923-2.16 3.394-3.773 4.415-1.614 1.02-3.454 1.53-5.518 1.53zm0-4.877c1.519 0 2.705-.652 3.56-1.958.878-1.305 1.317-3.322 1.317-6.052 0-2.729-.439-4.746-1.317-6.052-.855-1.305-2.041-1.958-3.56-1.958-1.496 0-2.682.653-3.56 1.958-.855 1.306-1.282 3.323-1.282 6.052 0 2.73.427 4.747 1.282 6.052.878 1.306 2.064 1.958 3.56 1.958zm22.026-11.107c3.512 0 6.099.7 7.76 2.1 1.686 1.401 2.528 3.276 2.528 5.625 0 1.519-.38 2.908-1.139 4.165-.76 1.235-1.923 2.231-3.489 2.991-1.543.736-3.453 1.103-5.732 1.103-1.756 0-3.488-.225-5.197-.676-1.685-.475-3.121-1.139-4.308-1.994l2.279-4.414c.949.712 2.041 1.27 3.275 1.673 1.234.38 2.504.57 3.809.57 1.448 0 2.587-.285 3.418-.855.83-.569 1.246-1.364 1.246-2.385 0-1.068-.439-1.875-1.318-2.421-.854-.545-2.349-.818-4.485-.818h-6.373l1.282-14.027h15.201v4.628h-10.395l-.392 4.735h2.03z" fill="#24252E"/><path d="M103.946 301.408c-.704 0-1.339-.153-1.904-.459a3.498 3.498 0 01-1.336-1.286 3.543 3.543 0 01-.478-1.824c0-.671.159-1.279.478-1.824a3.43 3.43 0 011.336-1.276c.565-.312 1.2-.468 1.904-.468a3.85 3.85 0 011.894.468 3.357 3.357 0 011.326 1.276c.319.538.478 1.146.478 1.824 0 .678-.159 1.289-.478 1.834a3.44 3.44 0 01-1.326 1.276 3.911 3.911 0 01-1.894.459zm0-.887c.512 0 .97-.117 1.376-.349.412-.233.734-.552.966-.957.24-.412.359-.871.359-1.376 0-.505-.119-.96-.359-1.365a2.494 2.494 0 00-.966-.967 2.712 2.712 0 00-1.376-.349c-.512 0-.977.116-1.396.349a2.567 2.567 0 00-.976.967c-.233.405-.349.86-.349 1.365s.116.964.349 1.376c.239.405.564.724.976.957.419.232.884.349 1.396.349zm7.841-4.297c.492 0 .931.11 1.316.329.386.22.685.525.897.917.22.386.329.828.329 1.326 0 .512-.116.967-.349 1.366a2.34 2.34 0 01-.967.917c-.412.219-.883.329-1.415.329-.897 0-1.592-.306-2.083-.917-.485-.618-.728-1.485-.728-2.602 0-1.083.223-1.93.668-2.542.445-.618 1.126-1.026 2.043-1.226l2.413-.538.139.877-2.223.479c-.691.152-1.206.412-1.545.777-.339.366-.531.891-.578 1.575.226-.339.518-.601.877-.787a2.57 2.57 0 011.206-.28zm-.169 4.386c.339 0 .638-.076.897-.229.266-.153.472-.362.618-.628.146-.272.219-.581.219-.927 0-.525-.159-.947-.478-1.266-.319-.319-.738-.478-1.256-.478s-.94.159-1.266.478c-.319.319-.479.741-.479 1.266 0 .346.074.655.22.927.153.266.362.475.628.628.266.153.565.229.897.229zm11.604-4.565v5.283h-7.526v-5.283h.957v4.446h2.332v-4.446h.957v4.446h2.323v-4.446h.957zm.787 4.446v1.963h-.897v-1.126h-.887v-.837h1.784zm1.071-4.446h.957v3.848l3.239-3.848h.868v5.283h-.957v-3.848l-3.23 3.848h-.877v-5.283zm6.921 0h.957v3.848l3.239-3.848h.868v5.283h-.957v-3.848l-3.23 3.848h-.877v-5.283zm2.472-.688c-.492 0-.874-.116-1.146-.349-.273-.239-.412-.581-.419-1.026h.648c.007.246.09.445.249.598.166.146.386.219.658.219.273 0 .492-.073.658-.219a.808.808 0 00.259-.598h.668c-.007.445-.15.787-.429 1.026-.279.233-.661.349-1.146.349zm12.499 5.134v2.063h-.897v-1.226h-4.416v1.226h-.907v-2.063h.279c.339-.02.571-.259.698-.718.126-.458.212-1.106.259-1.944l.08-1.784h4.096v4.446h.808zm-4.107-2.592a11.204 11.204 0 01-.169 1.655c-.08.432-.23.744-.449.937h2.96v-3.609h-2.292l-.05 1.017zm7.616 3.489c-.525 0-.997-.116-1.415-.349a2.579 2.579 0 01-.987-.957 2.783 2.783 0 01-.349-1.395c0-.519.116-.981.349-1.386.239-.412.568-.731.987-.957.418-.233.89-.349 1.415-.349s.994.116 1.406.349c.418.226.744.545.977.957.239.405.358.867.358 1.386 0 .518-.119.983-.358 1.395a2.518 2.518 0 01-.977.957 2.807 2.807 0 01-1.406.349zm0-.837c.339 0 .641-.077.907-.23.273-.159.485-.378.638-.658.153-.285.229-.611.229-.976 0-.366-.076-.688-.229-.967a1.6 1.6 0 00-.638-.658 1.785 1.785 0 00-.907-.23c-.339 0-.644.077-.917.23a1.691 1.691 0 00-.638.658 1.978 1.978 0 00-.229.967c0 .365.076.691.229.976.16.28.372.499.638.658.273.153.578.23.917.23zm7.247.777l-1.525-2.023-1.545 2.023h-1.066l2.083-2.701-1.984-2.582h1.067l1.455 1.904 1.446-1.904h1.046l-1.993 2.582 2.103 2.701h-1.087zm4.181.06a2.86 2.86 0 01-1.415-.349 2.579 2.579 0 01-.987-.957 2.783 2.783 0 01-.349-1.395c0-.519.116-.981.349-1.386.239-.412.568-.731.987-.957a2.86 2.86 0 011.415-.349c.525 0 .994.116 1.406.349.418.226.744.545.977.957.239.405.359.867.359 1.386 0 .518-.12.983-.359 1.395a2.518 2.518 0 01-.977.957 2.807 2.807 0 01-1.406.349zm0-.837c.339 0 .642-.077.907-.23.273-.159.486-.378.638-.658.153-.285.23-.611.23-.976 0-.366-.077-.688-.23-.967a1.594 1.594 0 00-.638-.658 1.783 1.783 0 00-.907-.23c-.339 0-.644.077-.917.23a1.691 1.691 0 00-.638.658 1.978 1.978 0 00-.229.967c0 .365.076.691.229.976.16.28.372.499.638.658.273.153.578.23.917.23zm9.457-.06v2.063h-.897v-1.226h-4.416v1.226h-.907v-2.063h.279c.339-.02.572-.259.698-.718.126-.458.213-1.106.259-1.944l.08-1.784h4.097v4.446h.807zm-4.107-2.592a11.07 11.07 0 01-.169 1.655c-.08.432-.229.744-.449.937h2.961v-3.609h-2.293l-.05 1.017z" fill="#373943"/><path d="M108.584 322.462h-2.973v2.905h-2.205v-2.905h-2.956v-2.085h2.956v-2.905h2.205v2.905h2.973v2.085zm7.528-2.563c.763 0 1.458.153 2.085.461a3.62 3.62 0 011.486 1.316c.365.558.547 1.207.547 1.948 0 .797-.199 1.498-.598 2.102a3.959 3.959 0 01-1.64 1.401c-.684.319-1.447.478-2.29.478-1.675 0-2.985-.512-3.93-1.538-.946-1.025-1.419-2.489-1.419-4.391 0-1.356.257-2.518.769-3.486.513-.968 1.225-1.703 2.136-2.204.923-.502 1.988-.752 3.196-.752.638 0 1.247.074 1.828.222.592.137 1.094.336 1.504.598l-1.025 2.033c-.593-.398-1.339-.598-2.239-.598-1.014 0-1.817.296-2.409.889-.593.592-.912 1.452-.957 2.58.706-.706 1.691-1.059 2.956-1.059zm-.564 5.639c.592 0 1.071-.16 1.435-.479.376-.319.564-.752.564-1.298 0-.547-.188-.98-.564-1.299-.364-.33-.854-.496-1.469-.496-.604 0-1.1.171-1.487.513-.387.33-.581.758-.581 1.282s.188.951.564 1.281c.376.331.889.496 1.538.496zm10.299-10.099V327.4h-2.768v-9.74h-2.392v-2.221h5.16zm11.019 4.494c1.686 0 2.927.336 3.725 1.008.809.672 1.213 1.572 1.213 2.7a3.79 3.79 0 01-.547 1.999c-.364.593-.922 1.071-1.674 1.436-.741.353-1.658.529-2.751.529a9.751 9.751 0 01-2.495-.324c-.809-.228-1.498-.547-2.068-.957l1.094-2.119c.455.342.979.609 1.572.803a6.189 6.189 0 001.828.273c.695 0 1.242-.136 1.641-.41.398-.273.598-.655.598-1.145 0-.512-.211-.9-.633-1.162-.41-.262-1.127-.393-2.153-.393h-3.058l.615-6.732h7.296v2.221h-4.989l-.188 2.273h.974zm10.079 0c1.686 0 2.928.336 3.725 1.008.809.672 1.213 1.572 1.213 2.7 0 .729-.182 1.395-.546 1.999-.365.593-.923 1.071-1.675 1.436-.741.353-1.658.529-2.751.529a9.757 9.757 0 01-2.495-.324c-.809-.228-1.498-.547-2.068-.957l1.094-2.119c.456.342.98.609 1.572.803a6.189 6.189 0 001.828.273c.695 0 1.242-.136 1.641-.41.399-.273.598-.655.598-1.145 0-.512-.211-.9-.632-1.162-.41-.262-1.128-.393-2.153-.393h-3.059l.615-6.732h7.297v2.221h-4.99l-.188 2.273h.974zm11.566.376c1.048.171 1.851.564 2.409 1.179.558.604.838 1.356.838 2.255a3.62 3.62 0 01-.547 1.931c-.365.581-.923 1.049-1.675 1.402-.74.353-1.652.529-2.734.529a9.757 9.757 0 01-2.495-.324c-.809-.228-1.498-.547-2.067-.957l1.076-2.119c.456.342.98.609 1.572.803a6.363 6.363 0 001.846.273c.695 0 1.241-.131 1.64-.393.399-.273.598-.655.598-1.145 0-.979-.746-1.469-2.238-1.469h-1.265v-1.828l2.461-2.786h-5.092v-2.221h8.373v1.794l-2.7 3.076zm6.114 3.913c.478 0 .871.154 1.179.461.308.297.461.69.461 1.179 0 .228-.028.456-.085.684-.057.228-.182.57-.376 1.025l-.974 2.461h-1.692l.752-2.717a1.46 1.46 0 01-.683-.547 1.703 1.703 0 01-.24-.906c0-.489.154-.882.462-1.179.319-.307.717-.461 1.196-.461zm11.987.923v2.255h-9.04v-1.794l4.614-4.357c.49-.467.82-.866.991-1.197.171-.341.256-.677.256-1.008 0-.478-.165-.843-.495-1.093-.319-.262-.792-.393-1.418-.393-.524 0-.997.102-1.419.307-.421.194-.774.49-1.059.889l-2.017-1.299c.468-.695 1.111-1.236 1.931-1.623.821-.399 1.76-.598 2.82-.598.888 0 1.663.148 2.324.444.672.285 1.19.695 1.555 1.23.376.524.564 1.145.564 1.863 0 .649-.137 1.259-.41 1.828-.274.57-.803 1.219-1.589 1.948l-2.752 2.598h5.144zm5.346-9.911c1.674 0 2.984.512 3.93 1.538.945 1.013 1.418 2.477 1.418 4.391 0 1.356-.256 2.518-.769 3.486-.501.968-1.213 1.703-2.136 2.205-.922.501-1.988.751-3.195.751a7.948 7.948 0 01-1.829-.205c-.581-.148-1.076-.353-1.486-.615l1.025-2.033c.581.398 1.327.598 2.239.598 1.013 0 1.817-.296 2.409-.889.592-.604.911-1.469.957-2.597-.718.718-1.709 1.076-2.973 1.076-.764 0-1.459-.153-2.085-.461a3.663 3.663 0 01-1.487-1.299c-.364-.569-.547-1.224-.547-1.965 0-.797.2-1.498.598-2.102a3.86 3.86 0 011.624-1.384c.695-.33 1.464-.495 2.307-.495zm.205 5.639c.604 0 1.093-.165 1.469-.496.388-.342.581-.774.581-1.299 0-.524-.188-.951-.564-1.281-.364-.33-.871-.496-1.52-.496-.593 0-1.077.16-1.453.479-.364.319-.547.752-.547 1.298 0 .547.183.986.547 1.316.376.319.872.479 1.487.479zm14.028 9.842c-.684-1.036-1.214-2.238-1.59-3.605-.364-1.367-.546-2.831-.546-4.392 0-1.56.182-3.024.546-4.391.376-1.379.906-2.581 1.59-3.606h2.546a15.465 15.465 0 00-1.572 3.862 16.691 16.691 0 00-.496 4.135c0 1.458.165 2.843.496 4.153.33 1.298.854 2.58 1.572 3.844h-2.546zm11.917-8.253h-2.973v2.905h-2.204v-2.905h-2.957v-2.085h2.957v-2.905h2.204v2.905h2.973v2.085zm5.949-7.023V327.4h-2.768v-9.74h-2.392v-2.221h5.16zm11.443 0v1.794l-4.443 10.167h-3.008l4.289-9.706h-3.964v1.948h-2.461v-4.203h9.587zm1.987 8.783c.478 0 .871.154 1.179.461.307.297.461.69.461 1.179 0 .228-.028.456-.085.684-.057.228-.183.57-.376 1.025l-.974 2.461H226l.752-2.717a1.468 1.468 0 01-.684-.547 1.712 1.712 0 01-.239-.906c0-.489.154-.882.462-1.179.318-.307.717-.461 1.196-.461zm11.235-3.11c.592.296 1.042.683 1.35 1.162.319.478.478 1.031.478 1.657 0 .741-.211 1.39-.632 1.948-.422.547-1.014.975-1.777 1.282-.763.296-1.646.444-2.649.444-1.002 0-1.885-.148-2.649-.444-.751-.307-1.338-.735-1.76-1.282-.41-.558-.615-1.207-.615-1.948 0-.626.154-1.179.462-1.657.319-.479.769-.866 1.35-1.162a2.943 2.943 0 01-1.026-1.025 2.86 2.86 0 01-.359-1.436c0-.695.194-1.298.581-1.811.388-.513.929-.906 1.624-1.179.695-.285 1.492-.427 2.392-.427.911 0 1.715.142 2.41.427.706.273 1.253.666 1.64 1.179s.581 1.116.581 1.811a2.86 2.86 0 01-.359 1.436c-.239.41-.587.752-1.042 1.025zm-3.23-3.845c-.558 0-1.008.137-1.35.41-.33.262-.495.627-.495 1.094 0 .456.165.814.495 1.076.331.262.781.393 1.35.393.57 0 1.025-.131 1.367-.393.342-.262.513-.62.513-1.076 0-.467-.171-.832-.513-1.094-.342-.273-.797-.41-1.367-.41zm0 8.305c.695 0 1.242-.154 1.641-.461.41-.319.615-.741.615-1.265 0-.524-.205-.94-.615-1.247-.399-.308-.946-.462-1.641-.462-.683 0-1.225.154-1.623.462-.399.307-.598.723-.598 1.247 0 .535.199.957.598 1.265.398.307.94.461 1.623.461zm11.913-5.263c1.048.171 1.851.564 2.41 1.179.558.604.837 1.356.837 2.255 0 .695-.182 1.339-.547 1.931-.365.581-.923 1.049-1.675 1.402-.74.353-1.651.529-2.734.529a9.763 9.763 0 01-2.495-.324c-.808-.228-1.498-.547-2.067-.957l1.076-2.119c.456.342.98.609 1.572.803a6.363 6.363 0 001.846.273c.695 0 1.242-.131 1.64-.393.399-.273.599-.655.599-1.145 0-.979-.747-1.469-2.239-1.469h-1.265v-1.828l2.461-2.786h-5.092v-2.221h8.373v1.794l-2.7 3.076zm7.126 1.589c-.877 0-1.595-.296-2.153-.889-.547-.603-.82-1.406-.82-2.409 0-1.002.273-1.8.82-2.392.558-.604 1.276-.906 2.153-.906.878 0 1.59.302 2.136.906.547.592.821 1.39.821 2.392 0 1.003-.274 1.806-.821 2.409-.546.593-1.258.889-2.136.889zm7.126-6.459h2.034l-8.169 11.961h-2.033l8.168-11.961zm-7.126 5.058c.388 0 .69-.16.906-.479.228-.319.342-.791.342-1.418 0-.627-.114-1.099-.342-1.418a1.034 1.034 0 00-.906-.479c-.376 0-.677.165-.905.496-.228.319-.342.786-.342 1.401s.114 1.088.342 1.418c.228.319.529.479.905.479zm8.117 7.04a3.032 3.032 0 01-1.538-.393 2.799 2.799 0 01-1.042-1.162c-.251-.501-.376-1.082-.376-1.743s.125-1.242.376-1.743a2.687 2.687 0 011.042-1.145c.456-.273.969-.41 1.538-.41.877 0 1.589.302 2.136.906.558.592.837 1.39.837 2.392 0 1.003-.279 1.806-.837 2.409-.547.593-1.259.889-2.136.889zm0-1.401c.387 0 .689-.16.906-.479.228-.33.342-.803.342-1.418 0-.615-.114-1.082-.342-1.401a1.026 1.026 0 00-.906-.496c-.376 0-.678.16-.905.479-.228.319-.342.791-.342 1.418 0 .627.114 1.099.342 1.418.227.319.529.479.905.479zm3.271 4.579a15.518 15.518 0 001.572-3.844c.342-1.31.513-2.695.513-4.153 0-1.458-.171-2.836-.513-4.135a15.465 15.465 0 00-1.572-3.862h2.546c.695 1.014 1.225 2.21 1.589 3.589.376 1.367.564 2.836.564 4.408 0 1.572-.182 3.042-.546 4.409-.365 1.356-.9 2.552-1.607 3.588h-2.546z" fill="#199F27"/><path d="M107.229 356.709v2.392h-.927v-1.525h-5.741l-.01 1.525h-.927l.01-2.392h.339c.438-.027.747-.372.927-1.037.179-.671.289-1.615.329-2.831l.069-2.242h4.905v6.11h1.026zm-5.123-3.778c-.033.984-.113 1.798-.239 2.442-.12.645-.316 1.09-.588 1.336h3.937v-5.243h-3.06l-.05 1.465zm6.327-.638h.957v2.243h3.01v-2.243h.957v5.283h-.957v-2.213h-3.01v2.213h-.957v-5.283zm11.559 2.671c0 .074-.006.17-.02.29h-4.286c.06.465.262.84.608 1.126.352.279.788.419 1.306.419.631 0 1.14-.213 1.525-.638l.528.618a2.313 2.313 0 01-.897.638 3.068 3.068 0 01-1.186.219c-.558 0-1.053-.113-1.485-.339a2.521 2.521 0 01-1.007-.967 2.783 2.783 0 01-.349-1.395c0-.512.113-.974.339-1.386.233-.412.548-.731.947-.957a2.701 2.701 0 011.366-.349c.505 0 .953.117 1.345.349.399.226.708.545.927.957.226.412.339.884.339 1.415zm-2.611-1.913c-.459 0-.844.139-1.157.418-.305.279-.485.645-.538 1.097h3.389a1.671 1.671 0 00-.548-1.087c-.306-.285-.688-.428-1.146-.428zm7.694 1.784c.685.173 1.027.601 1.027 1.286 0 .465-.176.824-.528 1.076-.346.253-.864.379-1.555.379h-2.542v-5.283h2.452c.624 0 1.113.12 1.465.359.352.233.528.565.528.997 0 .279-.076.521-.229.727a1.37 1.37 0 01-.618.459zm-2.661-.269h1.435c.366 0 .641-.067.827-.2.193-.132.29-.325.29-.578 0-.505-.373-.757-1.117-.757h-1.435v1.535zm1.535 2.272c.398 0 .698-.063.897-.189.199-.126.299-.322.299-.588 0-.272-.093-.475-.279-.608-.18-.133-.465-.199-.857-.199h-1.595v1.584h1.535zm3.651-4.545h.957v2.243h3.01v-2.243h.957v5.283h-.957v-2.213h-3.01v2.213h-.957v-5.283zm9.047 5.343c-.525 0-.997-.116-1.415-.349a2.579 2.579 0 01-.987-.957 2.783 2.783 0 01-.349-1.395c0-.519.116-.981.349-1.386.239-.412.568-.731.987-.957.418-.232.89-.349 1.415-.349s.994.117 1.406.349c.418.226.744.545.977.957.239.405.358.867.358 1.386 0 .518-.119.983-.358 1.395a2.518 2.518 0 01-.977.957 2.807 2.807 0 01-1.406.349zm0-.837c.339 0 .641-.077.907-.23.273-.159.485-.378.638-.658.153-.285.23-.611.23-.976 0-.366-.077-.688-.23-.967a1.6 1.6 0 00-.638-.658 1.785 1.785 0 00-.907-.229c-.339 0-.644.076-.917.229a1.691 1.691 0 00-.638.658 1.978 1.978 0 00-.229.967c0 .365.076.691.229.976.16.28.372.499.638.658.273.153.578.23.917.23zm4.123-4.506h.957v3.848l3.24-3.848h.867v5.283h-.957v-3.848l-3.23 3.848h-.877v-5.283zm2.472-.688c-.491 0-.874-.116-1.146-.349-.272-.239-.412-.581-.419-1.026h.648c.007.246.09.445.249.598.167.146.386.219.658.219.273 0 .492-.073.658-.219a.804.804 0 00.259-.598h.668c-.006.445-.149.787-.428 1.026-.279.233-.662.349-1.147.349zm12.499 5.134v2.063h-.897v-1.226h-4.416v1.226h-.907v-2.063h.279c.339-.02.572-.259.698-.718.126-.458.213-1.106.259-1.944l.08-1.784h4.097v4.446h.807zm-4.107-2.592a11.07 11.07 0 01-.169 1.655c-.08.432-.229.744-.449.937h2.961v-3.609h-2.293l-.05 1.017zm7.616 3.489a2.86 2.86 0 01-1.415-.349 2.579 2.579 0 01-.987-.957 2.794 2.794 0 01-.349-1.395c0-.519.117-.981.349-1.386.239-.412.568-.731.987-.957a2.87 2.87 0 011.415-.349c.525 0 .994.117 1.406.349.419.226.744.545.977.957.239.405.359.867.359 1.386 0 .518-.12.983-.359 1.395a2.511 2.511 0 01-.977.957 2.807 2.807 0 01-1.406.349zm0-.837c.339 0 .642-.077.908-.23.272-.159.485-.378.637-.658.153-.285.23-.611.23-.976 0-.366-.077-.688-.23-.967a1.598 1.598 0 00-.637-.658 1.789 1.789 0 00-.908-.229c-.338 0-.644.076-.917.229a1.698 1.698 0 00-.638.658 1.989 1.989 0 00-.229.967c0 .365.077.691.229.976.16.28.373.499.638.658.273.153.579.23.917.23zm7.248.777l-1.525-2.023-1.546 2.023h-1.066l2.083-2.701-1.983-2.582h1.066l1.456 1.904 1.445-1.904h1.047l-1.994 2.582 2.103 2.701h-1.086zm4.181.06c-.525 0-.997-.116-1.416-.349a2.586 2.586 0 01-.987-.957 2.794 2.794 0 01-.349-1.395c0-.519.117-.981.349-1.386.24-.412.568-.731.987-.957a2.874 2.874 0 011.416-.349c.525 0 .993.117 1.405.349.419.226.744.545.977.957.239.405.359.867.359 1.386 0 .518-.12.983-.359 1.395a2.511 2.511 0 01-.977.957c-.412.233-.88.349-1.405.349zm0-.837c.339 0 .641-.077.907-.23.272-.159.485-.378.638-.658.152-.285.229-.611.229-.976 0-.366-.077-.688-.229-.967a1.606 1.606 0 00-.638-.658 1.785 1.785 0 00-.907-.229c-.339 0-.645.076-.917.229a1.684 1.684 0 00-.638.658c-.153.279-.23.601-.23.967 0 .365.077.691.23.976.159.28.372.499.638.658.272.153.578.23.917.23zm9.456-.06v2.063h-.897v-1.226h-4.416v1.226h-.907v-2.063h.279c.339-.02.572-.259.698-.718.127-.458.213-1.106.259-1.944l.08-1.784h4.097v4.446h.807zm-4.106-2.592a11.053 11.053 0 01-.17 1.655c-.08.432-.229.744-.448.937h2.96v-3.609h-2.293l-.049 1.017z" fill="#373943"/><path d="M108.584 378.709h-2.973v2.905h-2.205v-2.905h-2.956v-2.084h2.956v-2.905h2.205v2.905h2.973v2.084zm5.949-7.023v11.962h-2.768v-9.74h-2.392v-2.222h5.16zm11.531 0v11.962h-2.768v-9.74h-2.392v-2.222h5.16zm11.442 0v1.795l-4.443 10.167h-3.007l4.289-9.706h-3.964v1.948h-2.461v-4.204h9.586zm6.013 0v11.962h-2.768v-9.74h-2.392v-2.222h5.16zm3.667 8.784c.479 0 .872.153 1.179.461.308.296.462.689.462 1.179 0 .228-.029.456-.086.683-.057.228-.182.57-.376 1.026l-.974 2.46H145.7l.752-2.717a1.466 1.466 0 01-.684-.546 1.712 1.712 0 01-.239-.906c0-.49.154-.883.461-1.179.319-.308.718-.461 1.196-.461zm8.638-3.914c1.048.171 1.851.564 2.41 1.179.558.604.837 1.356.837 2.256 0 .695-.182 1.339-.547 1.931-.364.581-.923 1.048-1.675 1.401-.74.353-1.651.53-2.734.53a9.72 9.72 0 01-2.495-.325c-.808-.228-1.498-.547-2.067-.957l1.076-2.119c.456.342.98.61 1.572.804a6.363 6.363 0 001.846.273c.695 0 1.242-.131 1.64-.393.399-.273.599-.655.599-1.145 0-.98-.747-1.47-2.239-1.47h-1.265v-1.828l2.461-2.785h-5.092v-2.222h8.373v1.795l-2.7 3.075zm12.71.804c.593.296 1.043.683 1.35 1.161.319.479.479 1.031.479 1.658 0 .741-.211 1.39-.633 1.948-.421.547-1.014.974-1.777 1.282-.763.296-1.646.444-2.648.444-1.003 0-1.886-.148-2.649-.444-.752-.308-1.339-.735-1.76-1.282-.41-.558-.615-1.207-.615-1.948 0-.627.153-1.179.461-1.658.319-.478.769-.865 1.35-1.161a2.95 2.95 0 01-1.025-1.026c-.24-.421-.359-.9-.359-1.435 0-.695.194-1.299.581-1.811.387-.513.928-.906 1.623-1.18.695-.284 1.493-.427 2.393-.427.911 0 1.714.143 2.409.427.706.274 1.253.667 1.64 1.18.388.512.581 1.116.581 1.811 0 .535-.119 1.014-.358 1.435-.24.41-.587.752-1.043 1.026zm-3.229-3.845c-.559 0-1.009.136-1.35.41-.331.262-.496.626-.496 1.093 0 .456.165.815.496 1.077.33.262.78.393 1.35.393.569 0 1.025-.131 1.367-.393.341-.262.512-.621.512-1.077 0-.467-.171-.831-.512-1.093-.342-.274-.798-.41-1.367-.41zm0 8.304c.694 0 1.241-.153 1.64-.461.41-.319.615-.74.615-1.264s-.205-.94-.615-1.248c-.399-.307-.946-.461-1.64-.461-.684 0-1.225.154-1.624.461-.399.308-.598.724-.598 1.248 0 .535.199.957.598 1.264.399.308.94.461 1.624.461zm13.881 5.144c-.683-1.037-1.213-2.239-1.589-3.606-.365-1.367-.547-2.831-.547-4.391 0-1.561.182-3.025.547-4.392.376-1.378.906-2.58 1.589-3.605h2.546a15.48 15.48 0 00-1.572 3.861 16.747 16.747 0 00-.495 4.136c0 1.458.165 2.842.495 4.152.33 1.299.855 2.58 1.572 3.845h-2.546zm11.918-8.254h-2.974v2.905h-2.204v-2.905h-2.956v-2.084h2.956v-2.905h2.204v2.905h2.974v2.084zm10.372 2.683v2.256h-9.039v-1.794l4.613-4.358c.49-.467.821-.866.992-1.196.17-.342.256-.678.256-1.008 0-.479-.165-.843-.496-1.094-.319-.262-.791-.393-1.418-.393-.524 0-.997.103-1.418.308-.422.193-.775.49-1.06.888l-2.016-1.298c.467-.695 1.111-1.236 1.931-1.624.82-.398 1.76-.598 2.819-.598.889 0 1.664.148 2.324.445.672.284 1.191.694 1.555 1.23.376.524.564 1.145.564 1.862 0 .65-.137 1.259-.41 1.829-.273.569-.803 1.219-1.589 1.948l-2.751 2.597h5.143zm2.898-.922c.479 0 .872.153 1.18.461.307.296.461.689.461 1.179 0 .228-.029.456-.086.683-.056.228-.182.57-.375 1.026l-.974 2.46h-1.692l.752-2.717a1.466 1.466 0 01-.684-.546 1.712 1.712 0 01-.239-.906c0-.49.154-.883.461-1.179.319-.308.718-.461 1.196-.461zm11.981-8.784v1.795l-4.443 10.167h-3.008l4.289-9.706h-3.964v1.948h-2.461v-4.204h9.587zm6.703 4.87c1.048.171 1.851.564 2.409 1.179.559.604.838 1.356.838 2.256 0 .695-.182 1.339-.547 1.931-.365.581-.923 1.048-1.675 1.401-.74.353-1.651.53-2.734.53a9.72 9.72 0 01-2.495-.325c-.808-.228-1.498-.547-2.067-.957l1.076-2.119c.456.342.98.61 1.572.804a6.363 6.363 0 001.846.273c.695 0 1.242-.131 1.64-.393.399-.273.598-.655.598-1.145 0-.98-.746-1.47-2.238-1.47h-1.265v-1.828l2.461-2.785h-5.092v-2.222h8.373v1.795l-2.7 3.075zm7.126 1.59c-.877 0-1.595-.297-2.153-.889-.547-.604-.82-1.407-.82-2.409 0-1.003.273-1.8.82-2.393.558-.604 1.276-.905 2.153-.905s1.589.301 2.136.905c.547.593.821 1.39.821 2.393 0 1.002-.274 1.805-.821 2.409-.547.592-1.259.889-2.136.889zm7.126-6.46h2.033l-8.168 11.962h-2.033l8.168-11.962zm-7.126 5.058c.388 0 .69-.159.906-.478.228-.319.342-.792.342-1.418 0-.627-.114-1.1-.342-1.419a1.033 1.033 0 00-.906-.478c-.376 0-.678.165-.905.495-.228.319-.342.786-.342 1.402 0 .615.114 1.088.342 1.418.227.319.529.478.905.478zm8.117 7.041a3.032 3.032 0 01-1.538-.393 2.798 2.798 0 01-1.042-1.162c-.251-.502-.376-1.083-.376-1.743 0-.661.125-1.242.376-1.743.25-.502.598-.883 1.042-1.145.456-.274.969-.41 1.538-.41.877 0 1.589.302 2.136.905.558.593.837 1.39.837 2.393 0 1.002-.279 1.805-.837 2.409-.547.592-1.259.889-2.136.889zm0-1.402c.387 0 .689-.159.906-.478.228-.33.342-.803.342-1.418 0-.616-.114-1.083-.342-1.402a1.027 1.027 0 00-.906-.495c-.376 0-.678.159-.906.478-.227.319-.341.792-.341 1.419 0 .626.114 1.099.341 1.418.228.319.53.478.906.478zm3.271 4.58a15.524 15.524 0 001.572-3.845c.342-1.31.513-2.694.513-4.152a16.19 16.19 0 00-.513-4.136 15.443 15.443 0 00-1.572-3.861h2.546c.695 1.013 1.225 2.21 1.589 3.588.376 1.367.564 2.837.564 4.409 0 1.572-.182 3.041-.546 4.408-.365 1.356-.9 2.552-1.607 3.589h-2.546z" fill="#199F27"/><g filter="url(#filter1_d)"><rect x="99.391" y="414.216" width="244.216" height="46.992" rx="5.696" fill="#3E54D8"/><path d="M146.728 446.256a8.544 8.544 0 100-17.089 8.544 8.544 0 000 17.089z" stroke="#fff" stroke-width="1.424" stroke-miterlimit="10"/><path d="M143.168 437.712h7.12m-3.561-3.56v7.12" stroke="#fff" stroke-width="1.424" stroke-linecap="round" stroke-linejoin="round"/><path opacity=".9" d="M176.814 441.303v3.319h-1.538v-1.91h-6.882v1.91h-1.551l.013-3.319h.385c.564-.026.957-.44 1.179-1.244.231-.811.372-1.969.423-3.473l.102-2.845h6.575v7.562h1.294zm-6.51-4.563c-.043 1.162-.137 2.132-.282 2.909-.145.769-.376 1.32-.692 1.654h4.549v-6.152h-3.511l-.064 1.589zm10.825 6.062c-.692 0-1.316-.15-1.871-.449a3.324 3.324 0 01-1.308-1.243 3.607 3.607 0 01-.461-1.82c0-.675.154-1.277.461-1.807a3.33 3.33 0 011.308-1.243c.555-.299 1.179-.448 1.871-.448.7 0 1.328.149 1.884.448.555.299.987.714 1.294 1.243.316.53.474 1.132.474 1.807s-.158 1.282-.474 1.82c-.307.53-.739.944-1.294 1.243-.556.299-1.184.449-1.884.449zm0-1.371c.589 0 1.076-.197 1.461-.59.384-.393.576-.91.576-1.551 0-.64-.192-1.157-.576-1.55-.385-.393-.872-.59-1.461-.59-.59 0-1.077.197-1.461.59-.376.393-.564.91-.564 1.55 0 .641.188 1.158.564 1.551.384.393.871.59 1.461.59zm8.939-5.229c.649 0 1.221.141 1.717.423.496.273.88.658 1.153 1.153.282.496.423 1.064.423 1.705 0 .658-.153 1.243-.461 1.755a3.148 3.148 0 01-1.294 1.18c-.556.281-1.188.422-1.897.422-1.188 0-2.106-.393-2.756-1.179-.649-.786-.974-1.918-.974-3.396 0-1.375.295-2.465.885-3.268.589-.803 1.491-1.333 2.704-1.589l3.178-.679.231 1.435-2.884.59c-.828.17-1.448.461-1.858.871-.41.41-.649.987-.718 1.73.308-.367.68-.649 1.115-.846a3.33 3.33 0 011.436-.307zm-.321 5.344c.59 0 1.064-.188 1.423-.564.367-.384.551-.871.551-1.461 0-.589-.184-1.064-.551-1.422-.359-.359-.833-.539-1.423-.539-.598 0-1.081.18-1.448.539-.367.358-.551.833-.551 1.422 0 .598.184 1.085.551 1.461.376.376.859.564 1.448.564zm7.628-5.754c1.008 0 1.777.243 2.307.73.538.479.807 1.205.807 2.179v4.011h-1.512v-.833c-.197.299-.479.53-.846.692-.359.154-.795.231-1.307.231-.513 0-.961-.085-1.346-.256a2.197 2.197 0 01-.897-.731 1.914 1.914 0 01-.308-1.064c0-.615.227-1.106.68-1.473.461-.376 1.183-.564 2.165-.564h1.769v-.103c0-.478-.145-.846-.436-1.102-.282-.256-.705-.384-1.268-.384a3.73 3.73 0 00-1.141.179c-.367.12-.679.286-.936.5l-.628-1.167a3.896 3.896 0 011.295-.627 5.73 5.73 0 011.602-.218zm-.218 5.844c.401 0 .756-.09 1.064-.269a1.52 1.52 0 00.666-.795v-.795h-1.653c-.923 0-1.384.304-1.384.91 0 .291.115.522.346.692.23.171.551.257.961.257zm10.274-2.487c.846.257 1.269.804 1.269 1.641 0 .615-.231 1.089-.692 1.422-.461.334-1.145.5-2.051.5h-3.486v-6.843h3.345c.838 0 1.491.153 1.961.461.47.307.705.743.705 1.307 0 .35-.094.654-.282.91a1.775 1.775 0 01-.769.602zm-3.434-.422h1.678c.829 0 1.244-.287 1.244-.859 0-.556-.415-.833-1.244-.833h-1.678v1.692zm1.832 2.819c.88 0 1.32-.286 1.32-.859 0-.299-.102-.521-.307-.666-.205-.154-.526-.231-.961-.231h-1.884v1.756h1.832zm4.577-5.677h1.602v4.511l3.781-4.511h1.461v6.843h-1.602v-4.511l-3.768 4.511h-1.474v-6.843zm14.42 1.358h-2.396v5.485h-1.602v-5.485h-2.41v-1.358h6.408v1.358zm4.597.897c.872 0 1.538.197 1.999.59.47.393.705.948.705 1.666 0 .752-.256 1.333-.769 1.743-.512.41-1.234.611-2.166.602l-3.204-.013v-6.843h1.602v2.242l1.833.013zm-.372 3.422c.47.009.829-.09 1.077-.295s.372-.504.372-.897c0-.384-.12-.666-.359-.846-.24-.179-.603-.273-1.09-.282l-1.461-.012v2.319l1.461.013zm11.14 1.256c-.709 0-1.345-.15-1.909-.449a3.303 3.303 0 01-1.32-1.243 3.527 3.527 0 01-.474-1.82c0-.675.158-1.277.474-1.807a3.335 3.335 0 011.307-1.243c.564-.299 1.205-.448 1.922-.448.675 0 1.265.136 1.769.41.513.273.897.666 1.154 1.179l-1.231.718a1.876 1.876 0 00-.743-.705 1.932 1.932 0 00-.961-.244c-.598 0-1.094.197-1.487.59-.393.384-.59.901-.59 1.55 0 .65.193 1.171.577 1.564.393.384.893.577 1.5.577.35 0 .67-.077.961-.231.299-.162.547-.402.743-.718l1.231.718c-.265.513-.654.91-1.167 1.192-.504.273-1.089.41-1.756.41zm9.692-5.575h-2.397v5.485h-1.602v-5.485h-2.409v-1.358h6.408v1.358zm4.955-1.435c.667 0 1.26.145 1.782.435.529.291.944.701 1.243 1.231.299.529.448 1.14.448 1.832 0 .692-.149 1.308-.448 1.846a3.13 3.13 0 01-1.243 1.23c-.522.291-1.115.436-1.782.436-.923 0-1.653-.308-2.191-.923v3.32h-1.602v-9.33h1.525v.897a2.48 2.48 0 01.974-.731 3.362 3.362 0 011.294-.243zm-.179 5.639c.589 0 1.072-.197 1.448-.59.384-.393.577-.91.577-1.551 0-.64-.193-1.157-.577-1.55-.376-.393-.859-.59-1.448-.59-.385 0-.731.09-1.038.269a1.857 1.857 0 00-.731.744c-.179.324-.269.7-.269 1.127 0 .428.09.804.269 1.128.18.325.423.577.731.756.307.171.653.257 1.038.257zm7.709-5.639c1.009 0 1.778.243 2.307.73.539.479.808 1.205.808 2.179v4.011h-1.513v-.833c-.196.299-.478.53-.845.692-.359.154-.795.231-1.308.231-.512 0-.961-.085-1.345-.256a2.184 2.184 0 01-.897-.731 1.914 1.914 0 01-.308-1.064c0-.615.226-1.106.679-1.473.462-.376 1.184-.564 2.166-.564h1.769v-.103c0-.478-.146-.846-.436-1.102-.282-.256-.705-.384-1.269-.384-.384 0-.764.059-1.14.179-.368.12-.68.286-.936.5l-.628-1.167a3.89 3.89 0 011.294-.627 5.74 5.74 0 011.602-.218zm-.217 5.844c.401 0 .756-.09 1.063-.269.316-.188.539-.453.667-.795v-.795h-1.654c-.922 0-1.384.304-1.384.91 0 .291.116.522.346.692.231.171.551.257.962.257zm10.735-4.409h-2.396v5.485h-1.602v-5.485h-2.41v-1.358h6.408v1.358zm7.27 2.102c0 .111-.009.269-.026.474h-5.37c.094.504.338.906.731 1.205.401.29.897.435 1.487.435.751 0 1.371-.247 1.858-.743l.859.987a2.902 2.902 0 01-1.167.833c-.47.188-.999.282-1.589.282-.752 0-1.414-.15-1.986-.449a3.281 3.281 0 01-1.333-1.243c-.308-.538-.462-1.145-.462-1.82 0-.666.15-1.264.449-1.794a3.26 3.26 0 011.269-1.256c.538-.299 1.145-.448 1.82-.448.666 0 1.26.149 1.781.448.53.291.94.705 1.23 1.243.299.53.449 1.145.449 1.846zm-3.46-2.256c-.513 0-.949.154-1.308.462-.35.299-.564.7-.64 1.204h3.883c-.069-.495-.278-.897-.628-1.204-.35-.308-.786-.462-1.307-.462zm10.467.154h-3.653v5.485h-1.602v-6.843h5.255v1.358zm1.166-1.358h1.602v4.511l3.78-4.511h1.461v6.843h-1.602v-4.511l-3.768 4.511h-1.473v-6.843zm15.253-.077c.683 0 1.294.149 1.832.448.539.291.961.705 1.269 1.243.308.53.461 1.132.461 1.807s-.153 1.282-.461 1.82c-.308.53-.73.944-1.269 1.243-.538.299-1.149.449-1.832.449a3.839 3.839 0 01-1.641-.346 3.339 3.339 0 01-1.23-1 3.392 3.392 0 01-.628-1.486h-1.154v2.742h-1.602v-6.843h1.602v2.652h1.179a3.239 3.239 0 01.641-1.422 3.194 3.194 0 011.218-.961 3.72 3.72 0 011.615-.346zm0 5.651a2 2 0 001.012-.256 1.88 1.88 0 00.705-.756c.171-.333.256-.713.256-1.141 0-.649-.188-1.166-.564-1.55-.367-.393-.837-.59-1.409-.59-.573 0-1.043.197-1.41.59-.368.384-.551.901-.551 1.55 0 .65.183 1.171.551 1.564.376.393.846.589 1.41.589z" fill="#fff"/></g><g filter="url(#filter2_d)"><rect x="99.391" y="472.6" width="185.832" height="46.992" rx="5.696" fill="#fff"/><path d="M141.043 498.944a2.848 2.848 0 100-5.696 2.848 2.848 0 000 5.696zm9.969 6.408a2.848 2.848 0 100-5.696 2.848 2.848 0 000 5.696zm0-12.816a2.848 2.848 0 100-5.696 2.848 2.848 0 000 5.696zm-2.397-1.308l-5.177 3.328m0 3.08l5.177 3.328" stroke="#8C9BEA" stroke-width="1.424" stroke-linecap="round" stroke-linejoin="round"/><path opacity=".9" d="M175.878 492.293v8.971h-1.641v-7.561h-4.652v7.561h-1.64v-8.971h7.933zm5.4 9.061c-.692 0-1.316-.15-1.871-.449a3.328 3.328 0 01-1.307-1.243c-.308-.538-.462-1.145-.462-1.82s.154-1.277.462-1.807c.316-.53.752-.944 1.307-1.243.555-.299 1.179-.449 1.871-.449.701 0 1.329.15 1.884.449.555.299.987.713 1.294 1.243.317.53.475 1.132.475 1.807s-.158 1.282-.475 1.82c-.307.53-.739.944-1.294 1.243-.555.299-1.183.449-1.884.449zm0-1.372c.59 0 1.077-.196 1.461-.589.385-.393.577-.91.577-1.551 0-.641-.192-1.158-.577-1.551-.384-.393-.871-.589-1.461-.589-.589 0-1.076.196-1.461.589-.376.393-.564.91-.564 1.551 0 .641.188 1.158.564 1.551.385.393.872.589 1.461.589zm12.465-.076v2.883h-1.499v-1.525h-5.28v1.525h-1.487v-2.883h.32c.436-.018.731-.295.885-.833.162-.547.269-1.316.32-2.307l.09-2.346h5.639v5.486h1.012zm-5.28-3.025c-.034.786-.098 1.427-.192 1.922-.094.496-.265.863-.513 1.103h3.371v-4.127h-2.627l-.039 1.102zm13.119 1c0 .111-.008.269-.026.474h-5.369c.094.504.337.905.73 1.205.402.29.897.435 1.487.435.752 0 1.371-.248 1.858-.743l.859.987a2.902 2.902 0 01-1.167.833 4.241 4.241 0 01-1.589.282c-.752 0-1.414-.15-1.986-.449a3.281 3.281 0 01-1.333-1.243c-.308-.538-.461-1.145-.461-1.82 0-.666.149-1.264.448-1.794a3.266 3.266 0 011.269-1.256c.538-.299 1.145-.449 1.82-.449.666 0 1.26.15 1.781.449.53.29.94.705 1.231 1.243.299.53.448 1.145.448 1.846zm-3.46-2.256c-.513 0-.949.154-1.307.461-.351.299-.564.701-.641 1.205h3.883c-.068-.495-.278-.897-.628-1.205-.35-.307-.786-.461-1.307-.461zm11.328-1.205v6.844h-1.602v-5.485h-2.564l-.064 1.358c-.042.906-.128 1.666-.256 2.282-.12.606-.329 1.089-.628 1.448-.29.35-.692.525-1.205.525-.239 0-.534-.047-.884-.141l.077-1.345c.12.025.222.038.307.038.325 0 .569-.128.731-.384.162-.265.265-.577.308-.936.051-.367.094-.889.128-1.564l.115-2.64h5.537zm2.157 0h1.602v4.512l3.781-4.512h1.461v6.844h-1.602v-4.511l-3.768 4.511h-1.474v-6.844zm14.42 1.359h-2.397v5.485h-1.602v-5.485h-2.409v-1.359h6.408v1.359zm4.597.897c.871 0 1.538.196 1.999.589.47.393.705.949.705 1.667 0 .751-.256 1.332-.769 1.743-.513.41-1.235.61-2.166.602l-3.204-.013v-6.844h1.602v2.243l1.833.013zm-.372 3.422c.47.008.829-.09 1.077-.295.247-.205.371-.504.371-.897 0-.385-.119-.667-.359-.846-.239-.179-.602-.273-1.089-.282l-1.461-.013v2.32l1.461.013zm7.598 1.256c-.709 0-1.345-.15-1.909-.449a3.303 3.303 0 01-1.32-1.243 3.518 3.518 0 01-.475-1.82c0-.675.158-1.277.475-1.807.316-.53.751-.944 1.307-1.243.564-.299 1.205-.449 1.922-.449.675 0 1.265.137 1.769.411a2.65 2.65 0 011.153 1.179l-1.23.717a1.897 1.897 0 00-.743-.705 1.942 1.942 0 00-.962-.243c-.598 0-1.093.196-1.486.589-.393.385-.59.902-.59 1.551 0 .65.192 1.171.577 1.564.393.384.893.576 1.499.576.351 0 .671-.076.962-.23a2 2 0 00.743-.718l1.23.718c-.265.512-.653.91-1.166 1.192-.504.273-1.089.41-1.756.41zm9.925-6.934v6.844h-1.435v-2.063h-1.807l-1.397 2.063h-1.718l1.615-2.281c-.495-.171-.876-.432-1.141-.782-.256-.359-.384-.799-.384-1.32 0-.786.278-1.393.833-1.82.555-.427 1.32-.641 2.294-.641h3.14zm-3.089 1.346c-1.033 0-1.55.389-1.55 1.166 0 .769.499 1.154 1.499 1.154h1.705v-2.32h-1.654z" fill="#373943"/><rect x="100.103" y="473.312" width="184.408" height="45.568" rx="4.984" stroke="#D3E3FF" stroke-width="1.424"/></g><g filter="url(#filter3_d)"><rect x="296.617" y="472.6" width="46.992" height="46.992" rx="5.696" fill="#fff"/><path d="M314.418 491.824v-3.56h11.392v3.56m0 6.408h-11.392v6.052h11.392v-6.052z" stroke="#8C9BEA" stroke-width="1.424" stroke-linecap="round" stroke-linejoin="round"/><path d="M314.419 500.368h-3.204v-7.12c0-.786.691-1.424 1.543-1.424h14.714c.852 0 1.543.638 1.543 1.424v7.12h-3.204" stroke="#8C9BEA" stroke-width="1.424" stroke-linecap="round" stroke-linejoin="round"/><path d="M325.455 496.096a1.068 1.068 0 100-2.136 1.068 1.068 0 000 2.136z" fill="#8C9BEA"/><rect x="297.329" y="473.312" width="45.568" height="45.568" rx="4.984" stroke="#D3E3FF" stroke-width="1.424"/></g><g filter="url(#filter4_d)"><g clip-path="url(#clip0)"><path d="M99 557.816c0-7.078 5.738-12.816 12.816-12.816h219.368c7.078 0 12.816 5.738 12.816 12.816V618H99v-60.184z" fill="#fff"/><path opacity=".9" d="M126.202 588.104c-.914 0-1.739-.196-2.474-.589a4.483 4.483 0 01-1.73-1.654 4.58 4.58 0 01-.628-2.371c0-.871.21-1.657.628-2.358a4.362 4.362 0 011.73-1.653c.735-.402 1.56-.602 2.474-.602.914 0 1.739.2 2.473.602.735.393 1.312.94 1.731 1.641.418.7.628 1.49.628 2.37 0 .881-.21 1.671-.628 2.371a4.479 4.479 0 01-1.731 1.654c-.734.393-1.559.589-2.473.589zm0-1.461c.598 0 1.136-.132 1.615-.397a2.98 2.98 0 001.128-1.128 3.27 3.27 0 00.41-1.628c0-.598-.137-1.136-.41-1.614a2.872 2.872 0 00-1.128-1.128 3.192 3.192 0 00-1.615-.41c-.598 0-1.136.136-1.615.41a2.872 2.872 0 00-1.128 1.128 3.196 3.196 0 00-.41 1.614c0 .599.137 1.141.41 1.628.274.479.65.855 1.128 1.128a3.278 3.278 0 001.615.397zm10.198-5.177c.649 0 1.222.141 1.717.422.496.274.88.658 1.154 1.154.282.495.423 1.064.423 1.704 0 .658-.154 1.244-.462 1.756a3.146 3.146 0 01-1.294 1.179c-.556.282-1.188.423-1.897.423-1.188 0-2.106-.393-2.755-1.179-.65-.786-.974-1.918-.974-3.396 0-1.376.294-2.465.884-3.268.589-.803 1.491-1.333 2.704-1.589l3.178-.68.231 1.436-2.883.589c-.829.171-1.449.462-1.859.872-.41.41-.649.987-.717 1.73a3.1 3.1 0 011.115-.846 3.325 3.325 0 011.435-.307zm-.32 5.344c.589 0 1.063-.188 1.422-.564.367-.385.551-.872.551-1.461 0-.59-.184-1.064-.551-1.423-.359-.359-.833-.538-1.422-.538-.599 0-1.081.179-1.449.538-.367.359-.551.833-.551 1.423 0 .598.184 1.085.551 1.461.376.376.859.564 1.449.564zm15.25-5.678v6.844h-10.086v-6.844h1.602v5.486h2.653v-5.486h1.602v5.486h2.627v-5.486h1.602zm.987 5.486v2.768h-1.499v-1.41h-1.141v-1.358h2.64zm1.168-5.486h1.602v4.512l3.78-4.512h1.461v6.844h-1.602v-4.511l-3.768 4.511h-1.473v-6.844zm8.998 0h1.602v4.512l3.781-4.512h1.461v6.844h-1.602v-4.511l-3.768 4.511h-1.474v-6.844zm3.32-.807c-.692 0-1.222-.158-1.59-.474-.358-.325-.542-.795-.551-1.41h1.064c.009.308.103.551.282.73.188.18.449.27.782.27.324 0 .581-.09.769-.27.196-.179.299-.422.307-.73h1.09c-.009.615-.197 1.085-.564 1.41-.368.316-.897.474-1.589.474zm16.526 6.293v2.883h-1.499v-1.525h-5.281v1.525h-1.486v-2.883h.32c.436-.018.731-.295.884-.833.163-.547.27-1.316.321-2.307l.09-2.346h5.639v5.486h1.012zm-5.28-3.025c-.034.786-.098 1.427-.192 1.922-.094.496-.265.863-.513 1.103h3.371v-4.127h-2.628l-.038 1.102zm9.761 4.473c-.692 0-1.316-.15-1.871-.449a3.328 3.328 0 01-1.307-1.243c-.308-.538-.462-1.145-.462-1.82s.154-1.277.462-1.807c.316-.53.752-.944 1.307-1.243.555-.299 1.179-.449 1.871-.449.701 0 1.329.15 1.884.449.555.299.987.713 1.294 1.243.317.53.475 1.132.475 1.807s-.158 1.282-.475 1.82c-.307.53-.739.944-1.294 1.243-.555.299-1.183.449-1.884.449zm0-1.372c.59 0 1.077-.196 1.461-.589.385-.393.577-.91.577-1.551 0-.641-.192-1.158-.577-1.551-.384-.393-.871-.589-1.461-.589-.589 0-1.076.196-1.461.589-.376.393-.564.91-.564 1.551 0 .641.188 1.158.564 1.551.385.393.872.589 1.461.589zm9.29 1.282l-1.755-2.371-1.769 2.371h-1.769l2.666-3.473-2.55-3.371h1.781l1.679 2.243 1.679-2.243h1.73l-2.563 3.345 2.679 3.499H196.1zm5.779.09c-.692 0-1.316-.15-1.871-.449a3.321 3.321 0 01-1.307-1.243c-.308-.538-.462-1.145-.462-1.82s.154-1.277.462-1.807c.316-.53.751-.944 1.307-1.243.555-.299 1.179-.449 1.871-.449.7 0 1.328.15 1.884.449.555.299.987.713 1.294 1.243.316.53.474 1.132.474 1.807s-.158 1.282-.474 1.82c-.307.53-.739.944-1.294 1.243-.556.299-1.184.449-1.884.449zm0-1.372c.589 0 1.076-.196 1.461-.589.384-.393.577-.91.577-1.551 0-.641-.193-1.158-.577-1.551-.385-.393-.872-.589-1.461-.589-.59 0-1.077.196-1.461.589-.376.393-.564.91-.564 1.551 0 .641.188 1.158.564 1.551.384.393.871.589 1.461.589zm12.465-.076v2.883h-1.499v-1.525h-5.281v1.525h-1.486v-2.883h.32c.436-.018.731-.295.884-.833.163-.547.27-1.316.321-2.307l.09-2.346h5.639v5.486h1.012zm-5.28-3.025c-.034.786-.098 1.427-.192 1.922-.094.496-.265.863-.513 1.103h3.371v-4.127h-2.628l-.038 1.102z" fill="#3E54D8"/><g clip-path="url(#clip1)"><path d="M318.433 584.473a.316.316 0 00.256.115.32.32 0 00.256-.115l2.804-3.471a.25.25 0 00.055-.136.242.242 0 00-.035-.14.29.29 0 00-.115-.104.345.345 0 00-.161-.039h-5.608a.354.354 0 00-.161.039.287.287 0 00-.114.104.238.238 0 00.019.276l2.804 3.471z" fill="#3E54D8"/></g><rect x="111.497" y="562.872" width="220.008" height="39.872" rx="4.984" stroke="#3E54D8" stroke-width="1.424"/></g><path d="M111.816 545.356h219.368c6.881 0 12.46 5.578 12.46 12.46v59.828H99.356v-59.828c0-6.882 5.579-12.46 12.46-12.46z" stroke="#D3E3FF" stroke-width=".712"/></g><g filter="url(#filter5_d)"><path fill="#fff" d="M91 91h262v40H91z"/></g><path d="M89 94c0-6.627 5.373-12 12-12h241c6.627 0 12 5.373 12 12v37H89V94z" fill="#EAF1FE"/><g clip-path="url(#clip2)"><path d="M340.842 98.02a9.953 9.953 0 00-7.205-3.067c-5.497-.007-9.958 4.443-9.965 9.94a9.951 9.951 0 003.067 7.199c.006.006.008.014.014.019.057.056.12.103.178.156.161.143.321.29.489.427.091.072.185.143.277.208.16.119.319.238.486.347.113.072.23.143.346.214.153.093.306.186.465.27.135.072.272.133.409.198.149.071.297.142.45.206.153.064.306.114.461.169.156.056.289.107.438.153.168.05.34.089.511.131.143.035.281.075.427.104.197.039.396.064.595.091.124.017.244.041.368.053.326.032.655.05.987.05.331 0 .66-.018.986-.05.125-.012.245-.036.368-.053.2-.027.399-.052.595-.091.143-.029.285-.072.427-.104.171-.042.343-.081.511-.131.149-.046.293-.101.438-.153.145-.051.31-.106.462-.169.152-.063.3-.136.45-.206.137-.065.274-.126.408-.198.159-.084.312-.177.466-.27.116-.071.233-.136.346-.214.166-.109.326-.228.485-.347.093-.071.187-.135.277-.208.169-.135.329-.279.489-.427.058-.053.121-.1.179-.156.005-.005.008-.013.013-.019 3.97-3.802 4.105-10.103.302-14.072zm-1.6 13.327a8.22 8.22 0 01-1.033.773 7.241 7.241 0 01-.295.18l-.381.214a10.078 10.078 0 01-.719.329 6.687 6.687 0 01-.391.142 9.6 9.6 0 01-.362.121c-.143.042-.292.077-.439.113-.115.027-.229.058-.346.08a8.471 8.471 0 01-.514.079c-.098.013-.195.031-.294.041a8.785 8.785 0 01-.83.042c-.28 0-.557-.016-.83-.042-.099-.01-.197-.028-.295-.041a8.594 8.594 0 01-.514-.079c-.117-.022-.23-.053-.346-.08-.147-.036-.294-.071-.438-.113a9.034 9.034 0 01-.362-.121 8.274 8.274 0 01-.392-.142c-.128-.05-.249-.106-.371-.162a6.86 6.86 0 01-.729-.381 8.934 8.934 0 01-.929-.626 9.482 9.482 0 01-.399-.327c-.031-.024-.06-.053-.09-.081a5.71 5.71 0 013.881-5.334 4.225 4.225 0 003.626 0 5.71 5.71 0 013.881 5.334c-.03.028-.058.055-.089.081zm-8.087-10.687a2.847 2.847 0 113.877 3.877c-.003 0-.008 0-.012.004-.189.105-.388.19-.595.252-.037.011-.071.025-.11.034-.072.019-.146.031-.22.044a2.917 2.917 0 01-.417.042h-.082a2.917 2.917 0 01-.417-.042c-.072-.013-.147-.025-.22-.044-.037-.009-.071-.023-.11-.034a2.994 2.994 0 01-.595-.252l-.013-.004a2.847 2.847 0 01-1.086-3.877zm9.439 9.195a7.156 7.156 0 00-3.811-4.906 4.27 4.27 0 10-6.292 0 7.156 7.156 0 00-3.811 4.906 8.538 8.538 0 1115.498-4.937c0 1.77-.554 3.497-1.584 4.937z" fill="#3E54D8"/></g><rect x="99.747" y="91.036" width="27.768" height="27.768" rx="5.34" fill="#fff"/><path stroke="#3E54D8" stroke-width="1.424" stroke-linecap="round" d="M105.087 107.768h11.392m-11.392-5.696h17.088"/><rect x="99.747" y="91.036" width="27.768" height="27.768" rx="5.34" stroke="#E6EEFF" stroke-width=".712"/><path d="M89 130.484h265" stroke="#fff" stroke-opacity=".3" stroke-width=".712"/><g opacity=".9"><path d="M164.618 100.509c.742.234 1.322.63 1.743 1.186.42.544.63 1.217.63 2.021 0 1.137-.445 2.014-1.335 2.632-.877.606-2.163.908-3.856.908h-6.71V94.28h6.34c1.581 0 2.793.303 3.633.908.853.606 1.279 1.428 1.279 2.466 0 .63-.154 1.193-.463 1.687a3.124 3.124 0 01-1.261 1.168zm-6.544-3.967V99.6h2.985c.741 0 1.304-.13 1.687-.389.383-.26.574-.643.574-1.15 0-.506-.191-.883-.574-1.13-.383-.26-.946-.39-1.687-.39h-2.985zm3.504 8.453c.791 0 1.384-.13 1.779-.39.408-.259.612-.661.612-1.204 0-1.076-.797-1.613-2.391-1.613h-3.504v3.207h3.504zm17.252-2.688c0 .037-.019.296-.056.778h-7.545c.136.618.458 1.106.964 1.465.507.358 1.137.537 1.891.537.519 0 .976-.074 1.372-.222a3.445 3.445 0 001.131-.742l1.538 1.669c-.939 1.075-2.311 1.613-4.115 1.613-1.125 0-2.119-.217-2.985-.649-.865-.445-1.532-1.057-2.002-1.835-.469-.779-.704-1.663-.704-2.651 0-.977.229-1.854.686-2.633a4.864 4.864 0 011.909-1.835c.816-.445 1.724-.667 2.725-.667.977 0 1.86.21 2.651.63a4.525 4.525 0 011.854 1.817c.457.778.686 1.687.686 2.725zm-5.172-2.985c-.655 0-1.205.186-1.65.556-.445.371-.717.878-.816 1.52h4.913c-.099-.63-.371-1.13-.816-1.501-.445-.383-.989-.575-1.631-.575zm10.848-2.187c1.545 0 2.731.37 3.559 1.112.828.73 1.242 1.835 1.242 3.318v5.691h-2.706v-1.242c-.544.927-1.557 1.391-3.04 1.391-.767 0-1.434-.13-2.002-.39-.556-.259-.983-.618-1.279-1.075a2.794 2.794 0 01-.445-1.557c0-.927.346-1.656 1.038-2.187.704-.532 1.786-.798 3.244-.798h2.298c0-.63-.191-1.112-.574-1.445-.383-.347-.958-.52-1.724-.52-.532 0-1.057.087-1.576.26-.507.16-.939.383-1.298.667l-1.038-2.02c.544-.383 1.193-.68 1.947-.89a8.86 8.86 0 012.354-.315zm-.222 8.323c.494 0 .933-.111 1.316-.334.383-.234.655-.574.815-1.019v-1.02h-1.983c-1.186 0-1.78.39-1.78 1.168 0 .371.142.668.427.89.296.21.698.315 1.205.315zm14.073 1.316a3.08 3.08 0 01-1.057.482c-.407.099-.84.149-1.297.149-1.187 0-2.107-.303-2.762-.909-.643-.605-.964-1.495-.964-2.669V99.73h-1.539v-2.224h1.539v-2.429h2.892v2.429h2.484v2.224h-2.484v4.06c0 .42.105.747.315.982.222.223.531.334.927.334.457 0 .846-.124 1.167-.371l.779 2.039z" fill="#3E54D8"/><path d="M211.993 107.256l-.019-7.785-3.819 6.414h-1.353l-3.8-6.248v7.619h-2.818V94.28h2.484l4.857 8.064 4.783-8.064h2.465l.037 12.976h-2.817zm9.715-10.121c1.544 0 2.731.37 3.559 1.112.828.73 1.242 1.835 1.242 3.318v5.691h-2.707v-1.242c-.543.927-1.557 1.391-3.04 1.391-.766 0-1.433-.13-2.002-.39-.556-.259-.982-.618-1.279-1.075a2.802 2.802 0 01-.445-1.557c0-.927.346-1.656 1.038-2.187.705-.532 1.786-.798 3.244-.798h2.299c0-.63-.192-1.112-.575-1.445-.383-.347-.957-.52-1.724-.52-.531 0-1.056.087-1.575.26a4.02 4.02 0 00-1.298.667l-1.038-2.02c.544-.383 1.193-.68 1.946-.89a8.868 8.868 0 012.355-.315zm-.223 8.323c.495 0 .933-.111 1.316-.334.383-.234.655-.574.816-1.019v-1.02h-1.983c-1.187 0-1.78.39-1.78 1.168 0 .371.142.668.426.89.297.21.699.315 1.205.315zm10.403-6.859c.346-.482.81-.846 1.39-1.093.594-.248 1.273-.371 2.04-.371v2.67a10.47 10.47 0 00-.649-.038c-.828 0-1.477.235-1.947.705-.469.457-.704 1.149-.704 2.076v4.708h-2.892v-9.973h2.762V98.6zm9.431 4.746l-1.39 1.372v2.539h-2.892V93.501h2.892v7.786l4.226-4.004h3.448l-4.152 4.227 4.523 5.746h-3.503l-3.152-3.911zm17.29-1.038c0 .037-.018.296-.055.778h-7.545c.136.618.457 1.106.964 1.465.507.358 1.137.537 1.891.537.519 0 .976-.074 1.372-.222a3.452 3.452 0 001.13-.742l1.539 1.669c-.939 1.075-2.311 1.613-4.115 1.613-1.125 0-2.12-.217-2.985-.649-.865-.445-1.532-1.057-2.002-1.835-.469-.779-.704-1.663-.704-2.651 0-.977.228-1.854.686-2.633a4.864 4.864 0 011.909-1.835c.816-.445 1.724-.667 2.725-.667.976 0 1.86.21 2.651.63a4.525 4.525 0 011.854 1.817c.457.778.685 1.687.685 2.725zm-5.171-2.985c-.655 0-1.205.186-1.65.556-.445.371-.717.878-.816 1.52h4.912c-.098-.63-.37-1.13-.815-1.501-.445-.383-.989-.575-1.631-.575zm13.529 7.452c-.284.21-.636.371-1.056.482a5.491 5.491 0 01-1.298.149c-1.186 0-2.107-.303-2.762-.909-.643-.605-.964-1.495-.964-2.669V99.73h-1.539v-2.224h1.539v-2.429h2.892v2.429h2.484v2.224h-2.484v4.06c0 .42.105.747.315.982.222.223.531.334.927.334.457 0 .846-.124 1.168-.371l.778 2.039z" fill="#ED6373"/></g><path d="M158.238 114.484v3.605h-.376v-3.275h-2.281v3.275h-.376v-3.605h3.033zm3.239.896v2.709h-.365v-2.385h-1.298l-.036.67c-.027.563-.092.995-.195 1.297-.103.303-.287.454-.551.454-.073 0-.16-.014-.263-.042l.026-.314a.682.682 0 00.128.021.345.345 0 00.32-.196c.072-.13.12-.292.144-.484.024-.192.044-.446.062-.762l.046-.968h1.982zm1.869-.021c.353 0 .625.09.813.268.189.175.284.436.284.783v1.679h-.351v-.423a.834.834 0 01-.365.33 1.255 1.255 0 01-.567.118c-.302 0-.542-.072-.72-.216a.698.698 0 01-.268-.572c0-.23.082-.415.247-.556.168-.14.434-.211.798-.211h.86v-.165c0-.233-.065-.41-.196-.53-.13-.124-.321-.185-.571-.185-.172 0-.337.029-.495.087a1.207 1.207 0 00-.406.232l-.165-.273c.137-.117.302-.206.494-.268.192-.065.395-.098.608-.098zm-.129 2.467a.972.972 0 00.53-.139.86.86 0 00.33-.412v-.443h-.85c-.463 0-.695.161-.695.484 0 .158.06.283.18.376.121.089.289.134.505.134zm4.001-2.122h-1.025v2.385h-.365v-2.385h-1.025v-.324h2.415v.324zm3.57 1.025c0 .422-.139.754-.417.994-.278.24-.671.371-1.179.391v.974h-.356v-.969c-.504-.02-.896-.151-1.174-.391-.274-.244-.412-.577-.412-.999 0-.419.138-.746.412-.983.278-.237.67-.366 1.174-.387v-1.091h.356v1.091c.508.024.901.155 1.179.392.278.237.417.563.417.978zm-3.177 0c0 .323.103.575.309.757.209.182.515.285.916.309v-2.111c-.398.02-.702.122-.911.304-.21.178-.314.425-.314.741zm1.581 1.066c.401-.021.707-.122.916-.304.213-.182.319-.436.319-.762 0-.319-.106-.568-.319-.746-.209-.179-.515-.279-.916-.299v2.111zm3.383.319a1.42 1.42 0 01-.705-.175 1.316 1.316 0 01-.494-.494 1.395 1.395 0 01-.181-.711c0-.264.06-.501.181-.71.12-.21.285-.373.494-.489.209-.117.445-.176.705-.176.261 0 .496.059.706.176.209.116.372.279.489.489.12.209.18.446.18.71 0 .265-.06.501-.18.711-.117.209-.28.374-.489.494-.21.117-.445.175-.706.175zm0-.324c.193 0 .364-.043.515-.129a.921.921 0 00.361-.376c.086-.161.129-.345.129-.551 0-.206-.043-.389-.129-.551a.888.888 0 00-.361-.37.984.984 0 00-.515-.134c-.192 0-.365.044-.52.134a.93.93 0 00-.36.37 1.155 1.155 0 00-.129.551c0 .206.043.39.129.551a.966.966 0 00.36.376c.155.086.328.129.52.129zm3.449-2.431c.254 0 .484.059.69.176.206.113.367.274.484.484.117.209.175.448.175.715 0 .271-.058.512-.175.721-.117.21-.278.373-.484.489-.202.114-.432.17-.69.17-.22 0-.419-.044-.597-.134a1.153 1.153 0 01-.433-.401v1.509h-.365v-3.708h.35v.536a1.13 1.13 0 01.432-.412c.182-.096.387-.145.613-.145zm-.026 2.431c.189 0 .361-.043.515-.129a.921.921 0 00.361-.376c.089-.161.134-.345.134-.551 0-.206-.045-.388-.134-.546a.925.925 0 00-.361-.375 1.002 1.002 0 00-.515-.134c-.192 0-.365.044-.52.134a.97.97 0 00-.36.375c-.086.158-.129.34-.129.546 0 .206.043.39.129.551a.966.966 0 00.36.376c.155.086.328.129.52.129zm5.086-2.41v2.709h-.335v-2.143l-1.097 1.813h-.165l-1.097-1.818v2.148h-.334v-2.709h.37l1.149 1.952 1.169-1.952h.34zm1.869-.021c.354 0 .625.09.814.268.188.175.283.436.283.783v1.679h-.35v-.423a.842.842 0 01-.366.33 1.254 1.254 0 01-.566.118c-.303 0-.543-.072-.721-.216a.698.698 0 01-.268-.572c0-.23.082-.415.247-.556.168-.14.434-.211.798-.211h.86v-.165c0-.233-.065-.41-.196-.53-.13-.124-.321-.185-.571-.185-.172 0-.337.029-.494.087a1.203 1.203 0 00-.407.232l-.165-.273c.137-.117.302-.206.494-.268a1.89 1.89 0 01.608-.098zm-.129 2.467a.977.977 0 00.531-.139.864.864 0 00.329-.412v-.443h-.85c-.463 0-.695.161-.695.484 0 .158.06.283.181.376.12.089.288.134.504.134zm1.885-1.293h1.349v.32h-1.349v-.32zm4.505-1.153v2.709h-.366v-2.385h-1.699v2.385h-.366v-2.709h2.431zm2.053 2.734c-.261 0-.496-.058-.705-.175a1.31 1.31 0 01-.494-.494 1.395 1.395 0 01-.181-.711c0-.264.06-.501.181-.71.12-.21.284-.373.494-.489.209-.117.444-.176.705-.176.261 0 .496.059.706.176.209.116.372.279.489.489.12.209.18.446.18.71 0 .265-.06.501-.18.711-.117.209-.28.374-.489.494-.21.117-.445.175-.706.175zm0-.324c.193 0 .364-.043.515-.129a.921.921 0 00.361-.376c.086-.161.128-.345.128-.551 0-.206-.042-.389-.128-.551a.888.888 0 00-.361-.37.984.984 0 00-.515-.134c-.192 0-.365.044-.52.134a.93.93 0 00-.36.37 1.155 1.155 0 00-.129.551c0 .206.043.39.129.551a.966.966 0 00.36.376c.155.086.328.129.52.129zm5.081-2.41v2.709h-.334v-2.143l-1.097 1.813h-.165l-1.097-1.818v2.148h-.334v-2.709h.37l1.149 1.952 1.168-1.952h.34zm2.055 2.734c-.261 0-.496-.058-.705-.175a1.312 1.312 0 01-.495-.494c-.12-.21-.18-.446-.18-.711 0-.264.06-.501.18-.71.12-.21.285-.373.495-.489.209-.117.444-.176.705-.176.261 0 .496.059.706.176.209.116.372.279.489.489.12.209.18.446.18.71 0 .265-.06.501-.18.711-.117.209-.28.374-.489.494-.21.117-.445.175-.706.175zm0-.324c.192 0 .364-.043.515-.129a.913.913 0 00.36-.376c.086-.161.129-.345.129-.551 0-.206-.043-.389-.129-.551a.88.88 0 00-.36-.37.987.987 0 00-.515-.134c-.192 0-.365.044-.52.134a.93.93 0 00-.36.37 1.155 1.155 0 00-.129.551c0 .206.043.39.129.551a.966.966 0 00.36.376c.155.086.328.129.52.129zm5.792-2.41v2.709h-3.739v-2.709h.366v2.389h1.328v-2.389h.366v2.389h1.313v-2.389h.366zm.417 2.389v.912h-.345v-.592h-.458v-.32h.803zm.524-2.389h.365v1.2h1.705v-1.2h.365v2.709h-.365v-1.195h-1.705v1.195h-.365v-2.709zm3.371 0h.366v2.152l1.807-2.152h.325v2.709h-.366v-2.153l-1.802 2.153h-.33v-2.709zm4.426 1.504h-.618v1.205h-.365v-2.709h.365v1.19h.623l.953-1.19h.396l-1.066 1.313 1.144 1.396h-.433l-.999-1.205zm3.15-1.504h.366v1.2h1.704v-1.2h.366v2.709h-.366v-1.195h-1.704v1.195h-.366v-2.709zm4.304-.021c.354 0 .625.09.814.268.188.175.283.436.283.783v1.679h-.35v-.423a.842.842 0 01-.366.33 1.254 1.254 0 01-.566.118c-.302 0-.543-.072-.721-.216a.698.698 0 01-.268-.572c0-.23.082-.415.247-.556.168-.14.434-.211.798-.211h.86v-.165c0-.233-.065-.41-.195-.53-.131-.124-.321-.185-.572-.185a1.42 1.42 0 00-.494.087 1.203 1.203 0 00-.407.232l-.165-.273c.137-.117.302-.206.494-.268a1.89 1.89 0 01.608-.098zm-.129 2.467a.977.977 0 00.531-.139.864.864 0 00.329-.412v-.443h-.849c-.464 0-.696.161-.696.484 0 .158.061.283.181.376.12.089.288.134.504.134zm7.285-1.545c0 .477-.17.853-.51 1.128-.336.271-.808.415-1.416.432v.371h-.355v-.371c-.608-.02-1.081-.166-1.421-.437-.337-.271-.505-.646-.505-1.123s.168-.851.505-1.122c.34-.272.813-.417 1.421-.438v-.361h.355v.361c.604.021 1.076.168 1.416.443.34.271.51.643.51 1.117zm-1.926 1.257c.498-.021.883-.139 1.154-.356.271-.216.407-.516.407-.901 0-.384-.138-.685-.412-.901-.272-.216-.654-.333-1.149-.35v2.508zm-1.915-1.257c0 .385.135.685.407.901.274.213.659.332 1.153.356v-2.508c-.501.02-.887.139-1.159.355-.267.213-.401.512-.401.896zm5.633 1.833c-.261 0-.496-.058-.705-.175a1.312 1.312 0 01-.495-.494c-.12-.21-.18-.446-.18-.711 0-.264.06-.501.18-.71.12-.21.285-.373.495-.489.209-.117.444-.176.705-.176.261 0 .496.059.705.176.21.116.373.279.49.489.12.209.18.446.18.71 0 .265-.06.501-.18.711-.117.209-.28.374-.49.494a1.418 1.418 0 01-.705.175zm0-.324c.192 0 .364-.043.515-.129a.92.92 0 00.36-.376c.086-.161.129-.345.129-.551 0-.206-.043-.389-.129-.551a.886.886 0 00-.36-.37.987.987 0 00-.515-.134c-.192 0-.366.044-.52.134a.93.93 0 00-.36.37 1.155 1.155 0 00-.129.551c0 .206.043.39.129.551a.966.966 0 00.36.376c.154.086.328.129.52.129zm2.053-2.41h.366v1.2h1.704v-1.2h.366v2.709h-.366v-1.195h-1.704v1.195h-.366v-2.709zm6.014 2.389v.974h-.345v-.654h-2.426v.654h-.345v-.974h.155c.182-.01.305-.144.371-.401.065-.258.109-.618.133-1.082l.036-.906h1.998v2.389h.423zm-2.122-1.462c-.017.384-.05.702-.098.953-.048.247-.134.417-.257.509h1.689v-2.065h-1.303l-.031.603zm3.849 1.807c-.261 0-.497-.058-.706-.175a1.316 1.316 0 01-.494-.494c-.12-.21-.18-.446-.18-.711 0-.264.06-.501.18-.71.12-.21.285-.373.494-.489.209-.117.445-.176.706-.176.26 0 .496.059.705.176.209.116.372.279.489.489.12.209.18.446.18.71 0 .265-.06.501-.18.711-.117.209-.28.374-.489.494a1.42 1.42 0 01-.705.175zm0-.324c.192 0 .363-.043.514-.129a.921.921 0 00.361-.376c.086-.161.129-.345.129-.551 0-.206-.043-.389-.129-.551a.888.888 0 00-.361-.37.983.983 0 00-.514-.134c-.193 0-.366.044-.521.134a.93.93 0 00-.36.37 1.155 1.155 0 00-.129.551c0 .206.043.39.129.551a.966.966 0 00.36.376c.155.086.328.129.521.129zm3.778-1.102c.367.086.551.307.551.664a.634.634 0 01-.263.546c-.175.127-.436.191-.783.191h-1.23v-2.709h1.194c.309 0 .551.06.726.18.176.12.263.292.263.515a.599.599 0 01-.124.381.707.707 0 01-.334.232zm-1.37-.103h.814c.209 0 .369-.04.479-.118a.394.394 0 00.169-.345c0-.152-.056-.265-.169-.34-.11-.076-.27-.114-.479-.114h-.814v.917zm.86 1.215c.233 0 .409-.038.525-.113.117-.076.175-.194.175-.355 0-.162-.053-.28-.159-.356-.107-.079-.275-.118-.505-.118h-.896v.942h.86zm2.932.314c-.261 0-.496-.058-.705-.175a1.312 1.312 0 01-.495-.494c-.12-.21-.18-.446-.18-.711 0-.264.06-.501.18-.71.12-.21.285-.373.495-.489.209-.117.444-.176.705-.176.261 0 .496.059.705.176.21.116.373.279.49.489.12.209.18.446.18.71 0 .265-.06.501-.18.711-.117.209-.28.374-.49.494a1.418 1.418 0 01-.705.175zm0-.324c.192 0 .364-.043.515-.129a.92.92 0 00.36-.376c.086-.161.129-.345.129-.551 0-.206-.043-.389-.129-.551a.886.886 0 00-.36-.37.987.987 0 00-.515-.134c-.192 0-.366.044-.52.134a.939.939 0 00-.361.37 1.166 1.166 0 00-.128.551c0 .206.043.39.128.551.09.162.21.287.361.376.154.086.328.129.52.129zm5.081-2.41v2.709h-.335v-2.143l-1.096 1.813h-.165l-1.097-1.818v2.148h-.335v-2.709h.371l1.148 1.952 1.169-1.952h.34zm3.578-.021c.254 0 .484.059.69.176.205.113.367.274.484.484.116.209.175.448.175.715 0 .271-.059.512-.175.721a1.25 1.25 0 01-.484.489c-.203.114-.433.17-.69.17a1.31 1.31 0 01-.598-.134 1.143 1.143 0 01-.432-.401v1.509h-.366v-3.708h.35v.536c.11-.179.254-.316.433-.412.182-.096.386-.145.613-.145zm-.026 2.431c.189 0 .36-.043.515-.129a.925.925 0 00.36-.376c.089-.161.134-.345.134-.551 0-.206-.045-.388-.134-.546a.93.93 0 00-.36-.375 1.004 1.004 0 00-.515-.134c-.192 0-.366.044-.52.134a.972.972 0 00-.361.375c-.086.158-.128.34-.128.546 0 .206.042.39.128.551.089.162.21.287.361.376.154.086.328.129.52.129zm3.195-1.452c.34.003.599.079.778.226.178.148.267.361.267.639 0 .288-.096.51-.288.664-.192.155-.467.23-.824.227l-1.071-.005v-2.709h.366v.948l.772.01zm1.499-.958h.365v2.709h-.365v-2.709zm-1.586 2.436c.25.003.439-.047.566-.15.13-.106.196-.261.196-.463 0-.199-.064-.347-.191-.443-.127-.096-.317-.146-.571-.149l-.685-.011v1.205l.685.011zm2.889-2.436h.366v1.2h1.704v-1.2h.366v2.709h-.366v-1.195h-1.704v1.195h-.366v-2.709zm4.355 1.504h-.617v1.205h-.366v-2.709h.366v1.19h.623l.952-1.19h.397l-1.066 1.313 1.143 1.396h-.433l-.999-1.205zm4.179-.036h-2.266a.977.977 0 00.325.684c.195.172.443.258.741.258.169 0 .323-.029.464-.088.14-.061.262-.151.365-.267l.206.236c-.12.145-.271.255-.453.33a1.495 1.495 0 01-.592.113 1.53 1.53 0 01-.741-.175 1.304 1.304 0 01-.5-.494c-.12-.21-.18-.446-.18-.711 0-.264.056-.501.17-.71.116-.21.274-.373.473-.489.203-.117.43-.176.68-.176.251 0 .476.059.675.176.199.116.355.279.468.489.114.206.17.443.17.71l-.005.114zm-1.308-1.174a.926.926 0 00-.659.252.977.977 0 00-.299.649h1.921a.964.964 0 00-.304-.649.913.913 0 00-.659-.252z" fill="#373943"/><circle cx="303.738" cy="93.528" r="2.136" fill="#199F27"/><path d="M298.144 104.475a5.6 5.6 0 015.634-5.607c3.083.023 5.549 2.586 5.549 5.677v.553c0 2.789.584 4.408 1.098 5.292a.622.622 0 01-.536.938h-12.307a.625.625 0 01-.536-.938c.515-.885 1.098-2.503 1.098-5.292v-.623z" stroke="#8C9BEA" stroke-width="1.246" stroke-linecap="round" stroke-linejoin="round"/><path d="M301.246 111.328v.623a2.493 2.493 0 004.984 0v-.623" stroke="#8C9BEA" stroke-width="1.246" stroke-linecap="round" stroke-linejoin="round"/><defs><filter id="filter0_d" x="3" y="18" width="437" height="732" filterUnits="userSpaceOnUse" color-interpolation-filters="sRGB"><feFlood flood-opacity="0" result="BackgroundImageFix"/><feColorMatrix in="SourceAlpha" values="0 0 0 0 0 0 0 0 0 0 0 0 0 0 0 0 0 0 127 0"/><feMorphology radius="12" in="SourceAlpha" result="effect1_dropShadow"/><feOffset dy="44"/><feGaussianBlur stdDeviation="44.5"/><feColorMatrix values="0 0 0 0 0.243137 0 0 0 0 0.329412 0 0 0 0 0.847059 0 0 0 0.23 0"/><feBlend in2="BackgroundImageFix" result="effect1_dropShadow"/><feBlend in="SourceGraphic" in2="effect1_dropShadow" result="shape"/></filter><filter id="filter1_d" x="92.983" y="414.216" width="257.032" height="66.216" filterUnits="userSpaceOnUse" color-interpolation-filters="sRGB"><feFlood flood-opacity="0" result="BackgroundImageFix"/><feColorMatrix in="SourceAlpha" values="0 0 0 0 0 0 0 0 0 0 0 0 0 0 0 0 0 0 127 0"/><feMorphology radius="9.256" in="SourceAlpha" result="effect1_dropShadow"/><feOffset dy="12.816"/><feGaussianBlur stdDeviation="7.832"/><feColorMatrix values="0 0 0 0 0.243137 0 0 0 0 0.329412 0 0 0 0 0.847059 0 0 0 0.51 0"/><feBlend in2="BackgroundImageFix" result="effect1_dropShadow"/><feBlend in="SourceGraphic" in2="effect1_dropShadow" result="shape"/></filter><filter id="filter2_d" x="97.255" y="472.6" width="190.104" height="61.944" filterUnits="userSpaceOnUse" color-interpolation-filters="sRGB"><feFlood flood-opacity="0" result="BackgroundImageFix"/><feColorMatrix in="SourceAlpha" values="0 0 0 0 0 0 0 0 0 0 0 0 0 0 0 0 0 0 127 0"/><feMorphology radius="9.256" in="SourceAlpha" result="effect1_dropShadow"/><feOffset dy="12.816"/><feGaussianBlur stdDeviation="5.696"/><feColorMatrix values="0 0 0 0 0.243137 0 0 0 0 0.329412 0 0 0 0 0.847059 0 0 0 0.1 0"/><feBlend in2="BackgroundImageFix" result="effect1_dropShadow"/><feBlend in="SourceGraphic" in2="effect1_dropShadow" result="shape"/></filter><filter id="filter3_d" x="292.345" y="472.6" width="55.536" height="64.08" filterUnits="userSpaceOnUse" color-interpolation-filters="sRGB"><feFlood flood-opacity="0" result="BackgroundImageFix"/><feColorMatrix in="SourceAlpha" values="0 0 0 0 0 0 0 0 0 0 0 0 0 0 0 0 0 0 127 0"/><feMorphology radius="7.12" in="SourceAlpha" result="effect1_dropShadow"/><feOffset dy="12.816"/><feGaussianBlur stdDeviation="5.696"/><feColorMatrix values="0 0 0 0 0.243137 0 0 0 0 0.329412 0 0 0 0 0.847059 0 0 0 0.1 0"/><feBlend in2="BackgroundImageFix" result="effect1_dropShadow"/><feBlend in="SourceGraphic" in2="effect1_dropShadow" result="shape"/></filter><filter id="filter4_d" x="96.864" y="545" width="249.272" height="87.952" filterUnits="userSpaceOnUse" color-interpolation-filters="sRGB"><feFlood flood-opacity="0" result="BackgroundImageFix"/><feColorMatrix in="SourceAlpha" values="0 0 0 0 0 0 0 0 0 0 0 0 0 0 0 0 0 0 127 0"/><feMorphology radius="9.256" in="SourceAlpha" result="effect1_dropShadow"/><feOffset dy="12.816"/><feGaussianBlur stdDeviation="5.696"/><feColorMatrix values="0 0 0 0 0.243137 0 0 0 0 0.329412 0 0 0 0 0.847059 0 0 0 0.1 0"/><feBlend in2="BackgroundImageFix" result="effect1_dropShadow"/><feBlend in="SourceGraphic" in2="effect1_dropShadow" result="shape"/></filter><filter id="filter5_d" x="86.016" y="91" width="271.968" height="52.104" filterUnits="userSpaceOnUse" color-interpolation-filters="sRGB"><feFlood flood-opacity="0" result="BackgroundImageFix"/><feColorMatrix in="SourceAlpha" values="0 0 0 0 0 0 0 0 0 0 0 0 0 0 0 0 0 0 127 0"/><feMorphology radius="9.256" in="SourceAlpha" result="effect1_dropShadow"/><feOffset dy="7.12"/><feGaussianBlur stdDeviation="7.12"/><feColorMatrix values="0 0 0 0 0.243137 0 0 0 0 0.329412 0 0 0 0 0.847059 0 0 0 0.21 0"/><feBlend in2="BackgroundImageFix" result="effect1_dropShadow"/><feBlend in="SourceGraphic" in2="effect1_dropShadow" result="shape"/></filter><clipPath id="clip0"><path d="M99 557.816c0-7.078 5.738-12.816 12.816-12.816h219.368c7.078 0 12.816 5.738 12.816 12.816V618H99v-60.184z" fill="#fff"/></clipPath><clipPath id="clip1"><path fill="#fff" transform="translate(315.129 579.248)" d="M0 0h7.12v7.12H0z"/></clipPath><clipPath id="clip2"><path fill="#fff" transform="translate(323.672 94.952)" d="M0 0h19.936v19.936H0z"/></clipPath><linearGradient id="paint0_linear" x1="221.5" y1="47.274" x2="221.5" y2="131" gradientUnits="userSpaceOnUse"><stop stop-color="#fff"/><stop offset="1" stop-color="#fff" stop-opacity="0"/></linearGradient></defs></svg>