<svg width="457" height="750" fill="none" xmlns="http://www.w3.org/2000/svg"><path d="M374.5 387c45.563 0 82.5 36.937 82.5 82.5S420.063 552 374.5 552 292 515.063 292 469.5V387h82.5z" fill="#ED6373"/><path d="M93.5 0C145.139 0 187 41.861 187 93.5V187H0V93.5C0 41.861 41.861 0 93.5 0z" fill="#F3B63F"/><circle cx="404" cy="229" r="21" fill="#3E54D8"/><path d="M20 346.5c0-12.426 10.074-22.5 22.5-22.5H65v45H42.5C30.074 369 20 358.926 20 346.5z" fill="#199F27"/><g filter="url(#filter0_d)"><rect x="91" y="55" width="267" height="566" rx="20" fill="#fff"/><rect x="87" y="51" width="275" height="574" rx="24" stroke="#fff" stroke-width="8"/></g><path d="M103 79.5h243c6.351 0 11.5 5.149 11.5 11.5v502c0 11.322-9.178 20.5-20.5 20.5H112c-11.322 0-20.5-9.178-20.5-20.5V91c0-6.351 5.149-11.5 11.5-11.5z" stroke="#D3E3FF"/><path d="M209.126 518.115h-3.251a.584.584 0 01-.582-.582v-3.251a.59.59 0 01.17-.411l8.73-8.73a.586.586 0 01.412-.171c.154 0 .302.062.412.171l3.25 3.251a.578.578 0 010 .823l-8.73 8.73a.58.58 0 01-.411.17zm3.151-11.058l4.074 4.074m-7.023 6.946l-4-4" stroke="#8C9BEA" stroke-width="1.164" stroke-linecap="round" stroke-linejoin="round"/><path d="M91.388 537.388h266.224V593c0 11.384-9.228 20.612-20.612 20.612H112c-11.384 0-20.612-9.228-20.612-20.612v-55.612zm.414-346.553h265.392v58.976H91.802v-58.976z" fill="#F5F6FD" stroke="#D3E3FF" stroke-width=".776"/><path d="M91.802 365.436h265.392v58.976H91.802v-58.976z" fill="#3E54D8" stroke="#D3E3FF" stroke-width=".776"/><path d="M109.594 222.839c.05.062.117.113.194.148a.62.62 0 00.505 0 .523.523 0 00.194-.148l4.889-6.052a.409.409 0 00.035-.481.5.5 0 00-.2-.183.613.613 0 00-.281-.067h-9.779a.625.625 0 00-.28.068.495.495 0 00-.199.182.411.411 0 00.033.481l4.889 6.052z" fill="#8C9BEA"/><path d="M208.304 337.409c.514.123.901.344 1.162.663.268.311.402.713.402 1.206 0 .659-.243 1.169-.728 1.531-.478.362-1.177.544-2.097.544h-3.476v-7.605h3.27c.833 0 1.481.17 1.945.51.47.334.706.815.706 1.445 0 .413-.105.764-.315 1.054-.203.29-.493.507-.869.652zm-3.661-.315h2.118c.529 0 .931-.105 1.206-.315.282-.21.424-.518.424-.924 0-.405-.142-.713-.424-.923-.283-.217-.685-.326-1.206-.326h-2.118v2.488zm2.379 3.4c1.166 0 1.749-.434 1.749-1.303 0-.435-.149-.754-.446-.956-.289-.21-.724-.315-1.303-.315h-2.379v2.574h2.379zm9.43-4.899v5.758h-1.042v-4.846h-2.477l-.066 1.282a13.863 13.863 0 01-.206 1.945c-.101.514-.268.927-.5 1.238-.232.312-.554.467-.967.467-.188 0-.402-.032-.641-.097l.065-.88c.095.021.182.032.261.032.29 0 .507-.126.652-.38.145-.253.239-.554.283-.902.043-.347.083-.843.119-1.488l.098-2.129h4.421zm4.483 5.823a3.114 3.114 0 01-1.542-.381 2.806 2.806 0 01-1.076-1.042 3.037 3.037 0 01-.38-1.521c0-.565.126-1.069.38-1.511a2.703 2.703 0 011.076-1.042c.456-.254.97-.381 1.542-.381.572 0 1.083.127 1.532.381.456.246.811.593 1.065 1.042.26.442.391.946.391 1.511s-.131 1.071-.391 1.521a2.736 2.736 0 01-1.065 1.042c-.449.254-.96.381-1.532.381zm0-.913c.37 0 .699-.083.989-.25.297-.174.529-.413.695-.717.167-.311.25-.666.25-1.064 0-.399-.083-.75-.25-1.054a1.735 1.735 0 00-.695-.717 1.944 1.944 0 00-.989-.25c-.369 0-.702.083-.999.25-.29.166-.522.405-.696.717a2.163 2.163 0 00-.249 1.054c0 .398.083.753.249 1.064.174.304.406.543.696.717.297.167.63.25.999.25zm9.539-1.586h-1.119v2.434h-1.043v-2.434h-1.119l-1.586 2.434h-1.238l1.977-2.977-1.825-2.781h1.108l1.554 2.433h1.129v-2.433h1.043v2.433h1.13l1.554-2.433h1.119l-1.825 2.792 1.977 2.966h-1.239l-1.597-2.434zm8.996-.413c0 .08-.007.185-.021.315h-4.672c.065.507.286.916.663 1.228.384.304.858.456 1.423.456.688 0 1.242-.232 1.662-.695l.576.673a2.518 2.518 0 01-.978.696 3.351 3.351 0 01-1.293.239c-.608 0-1.148-.123-1.618-.37a2.743 2.743 0 01-1.098-1.053 3.047 3.047 0 01-.38-1.521c0-.558.123-1.061.369-1.511a2.694 2.694 0 011.033-1.042 2.927 2.927 0 011.488-.381c.55 0 1.039.127 1.467.381.434.246.771.593 1.01 1.042.246.45.369.964.369 1.543zm-2.846-2.086c-.5 0-.92.152-1.26.457-.333.304-.529.702-.587 1.195h3.694c-.058-.486-.257-.88-.598-1.185-.333-.311-.749-.467-1.249-.467zm4.464-.825h1.043v2.444h3.281v-2.444h1.043v5.758h-1.043v-2.412h-3.281v2.412h-1.043v-5.758zm7.395 0h1.043v4.193l3.531-4.193h.945v5.758h-1.043v-4.194l-3.52 4.194h-.956v-5.758zm12.747 2.911c0 .08-.007.185-.022.315h-4.671c.065.507.286.916.663 1.228.383.304.858.456 1.423.456.688 0 1.242-.232 1.662-.695l.576.673a2.518 2.518 0 01-.978.696 3.351 3.351 0 01-1.293.239c-.608 0-1.148-.123-1.619-.37a2.747 2.747 0 01-1.097-1.053 3.047 3.047 0 01-.38-1.521c0-.558.123-1.061.369-1.511a2.699 2.699 0 011.032-1.042 2.933 2.933 0 011.489-.381c.55 0 1.039.127 1.466.381.435.246.772.593 1.011 1.042.246.45.369.964.369 1.543zm-2.846-2.086c-.5 0-.92.152-1.26.457-.334.304-.529.702-.587 1.195h3.694c-.058-.486-.257-.88-.598-1.185-.333-.311-.749-.467-1.249-.467zm11.304 1.945c.746.188 1.119.655 1.119 1.401 0 .507-.192.898-.576 1.174-.377.275-.942.413-1.695.413h-2.77v-5.758h2.672c.681 0 1.213.13 1.597.391.384.253.576.615.576 1.086 0 .304-.083.569-.25.793a1.505 1.505 0 01-.673.5zm-2.901-.293h1.564c.399 0 .699-.073.902-.218.21-.145.315-.355.315-.63 0-.55-.406-.825-1.217-.825h-1.564v1.673zm1.673 2.477c.435 0 .76-.069.978-.207.217-.137.326-.351.326-.641 0-.297-.102-.518-.305-.662-.195-.145-.507-.218-.934-.218h-1.738v1.728h1.673zm9.83-4.759c.536 0 1.014.12 1.434.359a2.5 2.5 0 01.978.999c.239.42.358.902.358 1.445a2.9 2.9 0 01-.38 1.488 2.55 2.55 0 01-1.054 1c-.449.239-.963.358-1.543.358-.977 0-1.734-.333-2.27-.999-.529-.674-.793-1.619-.793-2.836 0-1.18.242-2.104.728-2.77.485-.673 1.227-1.119 2.227-1.336l2.629-.587.152.956-2.423.522c-.753.166-1.314.449-1.684.847-.369.398-.579.971-.63 1.717.247-.37.565-.656.956-.859.391-.202.83-.304 1.315-.304zm-.185 4.78c.37 0 .695-.083.978-.25.29-.166.514-.394.673-.684.16-.297.239-.634.239-1.01 0-.572-.173-1.032-.521-1.38-.348-.348-.804-.522-1.369-.522s-1.025.174-1.38.522c-.347.348-.521.808-.521 1.38 0 .376.08.713.239 1.01.167.29.395.518.684.684.29.167.616.25.978.25zm9.424-4.975l-2.792 6.333c-.246.587-.536 1-.869 1.239-.326.239-.721.358-1.184.358-.283 0-.558-.047-.826-.141a1.635 1.635 0 01-.652-.391l.446-.782c.297.282.641.423 1.032.423a.955.955 0 00.63-.206c.174-.13.33-.358.467-.684l.185-.402-2.542-5.747h1.086l2.01 4.606 1.988-4.606h1.021zm6.616 4.845v2.249h-.978v-1.336h-4.812v1.336h-.989v-2.249h.304c.37-.022.623-.283.761-.782.137-.5.231-1.206.282-2.119l.087-1.944h4.465v4.845h.88zm-4.476-2.825c-.029.725-.09 1.326-.185 1.804-.086.471-.249.811-.488 1.021h3.226v-3.933h-2.499l-.054 1.108zm10.973-2.02l-2.792 6.333c-.246.587-.536 1-.869 1.239-.326.239-.72.358-1.184.358-.282 0-.558-.047-.826-.141a1.631 1.631 0 01-.651-.391l.445-.782c.297.282.641.423 1.032.423a.952.952 0 00.63-.206c.174-.13.33-.358.467-.684l.185-.402-2.542-5.747h1.086l2.01 4.606 1.988-4.606h1.021zm9.271 0v5.758h-8.203v-5.758h1.043v4.845h2.542v-4.845h1.043v4.845h2.532v-4.845h1.043zm.858 4.845v2.14h-.978v-1.227h-.967v-.913h1.945zm6.371-1.934c0 .08-.008.185-.022.315h-4.672c.065.507.286.916.663 1.228.384.304.858.456 1.423.456.688 0 1.242-.232 1.662-.695l.576.673a2.51 2.51 0 01-.978.696 3.342 3.342 0 01-1.292.239c-.609 0-1.148-.123-1.619-.37a2.734 2.734 0 01-1.097-1.053 3.037 3.037 0 01-.381-1.521c0-.558.123-1.061.37-1.511a2.685 2.685 0 011.032-1.042 2.932 2.932 0 011.488-.381c.551 0 1.039.127 1.467.381.434.246.771.593 1.01 1.042.246.45.37.964.37 1.543zm-2.847-2.086c-.5 0-.92.152-1.26.457-.333.304-.529.702-.587 1.195h3.694c-.058-.486-.257-.88-.597-1.185-.334-.311-.75-.467-1.25-.467zm9.668 2.086c0 .08-.007.185-.021.315h-4.672c.065.507.286.916.663 1.228.384.304.858.456 1.423.456.688 0 1.242-.232 1.662-.695l.576.673a2.518 2.518 0 01-.978.696 3.351 3.351 0 01-1.293.239c-.608 0-1.148-.123-1.618-.37a2.743 2.743 0 01-1.098-1.053 3.047 3.047 0 01-.38-1.521c0-.558.123-1.061.37-1.511a2.685 2.685 0 011.032-1.042 2.93 2.93 0 011.488-.381c.55 0 1.039.127 1.467.381.434.246.771.593 1.01 1.042.246.45.369.964.369 1.543zm-2.846-2.086c-.5 0-.92.152-1.26.457-.333.304-.529.702-.587 1.195h3.694c-.058-.486-.257-.88-.598-1.185-.333-.311-.749-.467-1.249-.467z" fill="#929398"/><path d="M108.089 272.697a3.968 3.968 0 01-1.917-.464 3.52 3.52 0 01-1.331-1.291 3.608 3.608 0 01-.484-1.857c0-.686.161-1.301.484-1.846.323-.551.77-.982 1.342-1.291a3.89 3.89 0 011.916-.474 3.94 3.94 0 011.513.282c.458.182.848.454 1.171.817l-.656.636c-.531-.558-1.194-.837-1.987-.837-.525 0-.999.117-1.423.353a2.593 2.593 0 00-.999.978 2.733 2.733 0 00-.353 1.382c0 .512.118.976.353 1.393.243.41.576.733.999.968.424.235.898.353 1.423.353.786 0 1.449-.282 1.987-.847l.656.635a3.132 3.132 0 01-1.181.827 3.92 3.92 0 01-1.513.283zm7.759-4.58h-1.957v4.499h-.968v-4.499h-1.957v-.847h4.882v.847zm3.044 4.56a2.907 2.907 0 01-1.433-.353 2.617 2.617 0 01-.998-.969 2.816 2.816 0 01-.353-1.412c0-.525.117-.992.353-1.402a2.52 2.52 0 01.998-.969 2.907 2.907 0 011.433-.353c.531 0 1.005.118 1.422.353.424.229.754.552.989.969.242.41.363.877.363 1.402 0 .524-.121.995-.363 1.412-.235.41-.565.733-.989.969a2.846 2.846 0 01-1.422.353zm0-.848c.343 0 .649-.077.918-.232.276-.161.491-.383.646-.665.154-.29.232-.619.232-.989s-.078-.696-.232-.979a1.618 1.618 0 00-.646-.665 1.805 1.805 0 00-.918-.232 1.86 1.86 0 00-.928.232 1.709 1.709 0 00-.646.665 2.015 2.015 0 00-.232.979c0 .37.078.699.232.989.162.282.377.504.646.665.276.155.585.232.928.232zm4.173-4.559h.968v3.894l3.279-3.894h.877v5.346h-.968v-3.894l-3.269 3.894h-.887v-5.346zm13.168 0v5.346h-.878v-3.904l-1.997 3.299h-.424l-1.977-3.309v3.914h-.888v-5.346h.999l2.098 3.611 2.159-3.611h.908zm4.175 5.407a2.904 2.904 0 01-1.433-.353 2.617 2.617 0 01-.998-.969 2.817 2.817 0 01-.354-1.412c0-.525.118-.992.354-1.402a2.52 2.52 0 01.998-.969 2.904 2.904 0 011.433-.353c.531 0 1.005.118 1.422.353.424.229.753.552.989.969.242.41.363.877.363 1.402 0 .524-.121.995-.363 1.412-.236.41-.565.733-.989.969a2.846 2.846 0 01-1.422.353zm0-.848c.343 0 .649-.077.918-.232.275-.161.491-.383.645-.665.155-.29.232-.619.232-.989s-.077-.696-.232-.979a1.616 1.616 0 00-.645-.665 1.805 1.805 0 00-.918-.232c-.343 0-.653.077-.928.232a1.702 1.702 0 00-.646.665 2.004 2.004 0 00-.232.979c0 .37.077.699.232.989.161.282.377.504.646.665.275.155.585.232.928.232zm6.503.848a3.002 3.002 0 01-1.463-.353 2.613 2.613 0 01-.999-.969 2.762 2.762 0 01-.363-1.412c0-.525.121-.992.363-1.402.242-.417.575-.74.999-.969.43-.235.918-.353 1.463-.353.484 0 .914.098 1.291.293.383.195.679.477.888.847l-.737.474a1.648 1.648 0 00-.625-.575 1.782 1.782 0 00-.827-.191c-.35 0-.666.077-.949.232a1.683 1.683 0 00-.655.665 2.004 2.004 0 00-.232.979c0 .377.077.709.232.999.161.282.38.501.655.655.283.155.599.232.949.232.302 0 .578-.064.827-.191.249-.128.457-.32.625-.575l.737.464c-.209.37-.505.655-.888.857a2.769 2.769 0 01-1.291.293zm7.348-4.56h-1.957v4.499h-.968v-4.499h-1.957v-.847h4.882v.847zm3.462.968c.679.007 1.197.162 1.554.464.356.303.534.73.534 1.282 0 .578-.195 1.025-.585 1.341-.383.31-.935.461-1.654.454l-2.32-.01v-5.346h.968v1.805l1.503.01zm-.232 2.805c.437.007.767-.081.989-.262.228-.182.343-.451.343-.807 0-.35-.111-.606-.333-.767-.215-.162-.548-.246-.999-.252l-1.271-.021v2.099l1.271.01zm-49.4 175.406a3.957 3.957 0 01-1.917-.465 3.512 3.512 0 01-1.331-1.291 3.602 3.602 0 01-.484-1.856c0-.686.161-1.301.484-1.846.323-.552.77-.982 1.342-1.291a3.89 3.89 0 011.916-.474 3.94 3.94 0 011.513.282c.458.182.848.454 1.171.817l-.656.636c-.531-.559-1.194-.838-1.987-.838-.525 0-.999.118-1.423.353a2.603 2.603 0 00-.999.979 2.73 2.73 0 00-.353 1.382c0 .511.118.975.353 1.392.243.41.576.733.999.969.424.235.898.353 1.423.353.786 0 1.449-.283 1.987-.848l.656.636a3.132 3.132 0 01-1.181.827 3.94 3.94 0 01-1.513.283zm7.759-4.58h-1.957v4.499h-.968v-4.499h-1.957v-.848h4.882v.848zm3.044 4.559a2.896 2.896 0 01-1.433-.353 2.608 2.608 0 01-.998-.968 2.816 2.816 0 01-.353-1.412c0-.525.117-.992.353-1.403.242-.417.575-.739.998-.968a2.896 2.896 0 011.433-.353c.531 0 1.005.117 1.422.353.424.229.754.551.989.968.242.411.363.878.363 1.403 0 .524-.121.995-.363 1.412a2.53 2.53 0 01-.989.968 2.836 2.836 0 01-1.422.353zm0-.847c.343 0 .649-.077.918-.232.276-.161.491-.383.646-.666a2.07 2.07 0 00.232-.988c0-.37-.078-.697-.232-.979a1.627 1.627 0 00-.646-.666 1.805 1.805 0 00-.918-.232 1.86 1.86 0 00-.928.232 1.718 1.718 0 00-.646.666 2.012 2.012 0 00-.232.979c0 .369.078.699.232.988.162.283.377.505.646.666.276.155.585.232.928.232zm4.173-4.56h.968v3.894l3.279-3.894h.877v5.347h-.968v-3.894l-3.269 3.894h-.887v-5.347zm13.168 0v5.347h-.878v-3.904l-1.997 3.299h-.424l-1.977-3.309v3.914h-.888v-5.347h.999l2.098 3.612 2.159-3.612h.908zm4.175 5.407a2.894 2.894 0 01-1.433-.353 2.608 2.608 0 01-.998-.968 2.817 2.817 0 01-.354-1.412c0-.525.118-.992.354-1.403.242-.417.575-.739.998-.968a2.894 2.894 0 011.433-.353c.531 0 1.005.117 1.422.353.424.229.753.551.989.968.242.411.363.878.363 1.403 0 .524-.121.995-.363 1.412-.236.41-.565.733-.989.968a2.836 2.836 0 01-1.422.353zm0-.847c.343 0 .649-.077.918-.232a1.7 1.7 0 00.645-.666 2.06 2.06 0 00.232-.988c0-.37-.077-.697-.232-.979a1.624 1.624 0 00-.645-.666 1.805 1.805 0 00-.918-.232c-.343 0-.653.077-.928.232a1.711 1.711 0 00-.646.666 2.001 2.001 0 00-.232.979c0 .369.077.699.232.988.161.283.377.505.646.666.275.155.585.232.928.232zm6.503.847a2.99 2.99 0 01-1.463-.353 2.603 2.603 0 01-.999-.968 2.762 2.762 0 01-.363-1.412c0-.525.121-.992.363-1.403.242-.417.575-.739.999-.968a2.99 2.99 0 011.463-.353c.484 0 .914.097 1.291.292.383.195.679.478.888.848l-.737.474a1.64 1.64 0 00-.625-.575 1.783 1.783 0 00-.827-.192c-.35 0-.666.077-.949.232a1.692 1.692 0 00-.655.666 2.001 2.001 0 00-.232.979c0 .376.077.709.232.998.161.283.38.501.655.656.283.155.599.232.949.232.302 0 .578-.064.827-.192.249-.127.457-.319.625-.575l.737.464c-.209.37-.505.656-.888.858a2.768 2.768 0 01-1.291.292zm7.348-4.559h-1.957v4.499h-.968v-4.499h-1.957v-.848h4.882v.848zm3.462.968c.679.007 1.197.161 1.554.464.356.303.534.73.534 1.281 0 .579-.195 1.026-.585 1.342-.383.309-.935.461-1.654.454l-2.32-.01v-5.347h.968v1.806l1.503.01zm-.232 2.805c.437.006.767-.081.989-.263.228-.181.343-.45.343-.807 0-.35-.111-.605-.333-.767-.215-.161-.548-.245-.999-.252l-1.271-.02v2.098l1.271.011zm50.341-174.75v.877h-5.074v-.686l2.875-2.774c.35-.336.585-.625.706-.868a1.69 1.69 0 00.182-.746c0-.37-.131-.656-.394-.858-.255-.208-.625-.312-1.109-.312-.78 0-1.382.255-1.806.766l-.686-.595a2.776 2.776 0 011.079-.787 3.872 3.872 0 011.504-.282c.739 0 1.328.178 1.765.535.437.349.656.827.656 1.432 0 .377-.081.733-.242 1.069-.162.337-.468.72-.918 1.15l-2.159 2.079h3.621zm6.786-.858h-1.342v1.735h-.978v-1.735h-3.924v-.706l3.611-4.62h1.09l-3.46 4.459h2.713v-1.534h.948v1.534h1.342v.867zm5.326-3.611v5.346h-.968v-2.159a4.068 4.068 0 01-1.725.404c-.666 0-1.181-.155-1.544-.464-.363-.31-.545-.774-.545-1.392v-1.735h.969v1.674c0 .37.114.649.343.837.235.189.561.283.978.283.471 0 .979-.118 1.524-.353v-2.441h.968zm2.092 5.407a.677.677 0 01-.484-.192.682.682 0 01-.202-.504.64.64 0 01.202-.485.66.66 0 01.484-.201c.188 0 .346.064.474.191a.67.67 0 01.192.495c0 .201-.067.37-.202.504a.631.631 0 01-.464.192zm5.862-3.329c-.491 0-.887-.179-1.19-.535-.303-.356-.454-.82-.454-1.392s.151-1.036.454-1.392c.303-.357.699-.535 1.19-.535s.885.178 1.181.535c.302.349.454.814.454 1.392s-.152 1.046-.454 1.402c-.296.35-.69.525-1.181.525zm4.258-3.793h.776l-4.822 7.061h-.777l4.823-7.061zm-4.258 3.218c.31 0 .552-.118.727-.353.175-.243.262-.575.262-.999 0-.424-.087-.753-.262-.989a.847.847 0 00-.727-.363.864.864 0 00-.726.363c-.175.242-.262.572-.262.989 0 .417.087.746.262.989a.864.864 0 00.726.363zm4.469 3.904c-.491 0-.887-.175-1.19-.525-.296-.356-.444-.824-.444-1.402s.148-1.042.444-1.392c.303-.357.699-.535 1.19-.535s.888.178 1.191.535c.302.356.454.82.454 1.392s-.152 1.036-.454 1.392c-.303.357-.7.535-1.191.535zm0-.575a.838.838 0 00.717-.363c.181-.243.272-.572.272-.989 0-.417-.091-.747-.272-.989a.838.838 0 00-.717-.363.846.846 0 00-.726.363c-.175.236-.262.565-.262.989 0 .424.087.757.262.999a.855.855 0 00.726.353zM207.83 446.337v.878h-5.074v-.686l2.875-2.774c.35-.337.585-.626.706-.868.121-.249.182-.498.182-.746 0-.37-.131-.656-.394-.858-.255-.208-.625-.313-1.109-.313-.78 0-1.382.256-1.806.767l-.686-.595a2.766 2.766 0 011.079-.787 3.872 3.872 0 011.504-.282c.739 0 1.328.178 1.765.534.437.35.656.827.656 1.433 0 .376-.081.733-.242 1.069-.162.336-.468.72-.918 1.15l-2.159 2.078h3.621zm6.786-.857h-1.342v1.735h-.978v-1.735h-3.924v-.706l3.611-4.621h1.09l-3.46 4.459h2.713v-1.533h.948v1.533h1.342v.868zm5.326-3.612v5.347h-.968v-2.159a4.068 4.068 0 01-1.725.404c-.666 0-1.181-.155-1.544-.465-.363-.309-.545-.773-.545-1.392v-1.735h.969v1.675c0 .37.114.649.343.837.235.188.561.283.978.283.471 0 .979-.118 1.524-.354v-2.441h.968zm2.092 5.407a.68.68 0 01-.484-.191.684.684 0 01-.202-.505c0-.195.067-.356.202-.484a.662.662 0 01.484-.202c.188 0 .346.064.474.192a.67.67 0 01.192.494c0 .202-.067.37-.202.505a.634.634 0 01-.464.191zm5.862-3.329c-.491 0-.887-.178-1.19-.534-.303-.357-.454-.821-.454-1.392 0-.572.151-1.036.454-1.393.303-.356.699-.534 1.19-.534s.885.178 1.181.534c.302.35.454.814.454 1.393 0 .578-.152 1.045-.454 1.402-.296.349-.69.524-1.181.524zm4.258-3.793h.776l-4.822 7.062h-.777l4.823-7.062zm-4.258 3.218c.31 0 .552-.117.727-.353.175-.242.262-.575.262-.998 0-.424-.087-.754-.262-.989a.847.847 0 00-.727-.363.864.864 0 00-.726.363c-.175.242-.262.572-.262.989 0 .416.087.746.262.988a.864.864 0 00.726.363zm4.469 3.904c-.491 0-.887-.174-1.19-.524-.296-.357-.444-.824-.444-1.402 0-.579.148-1.043.444-1.393.303-.356.699-.534 1.19-.534s.888.178 1.191.534c.302.357.454.821.454 1.393 0 .571-.152 1.035-.454 1.392-.303.356-.7.534-1.191.534zm0-.575a.838.838 0 00.717-.363c.181-.242.272-.571.272-.988 0-.417-.091-.747-.272-.989a.838.838 0 00-.717-.363.846.846 0 00-.726.363c-.175.235-.262.565-.262.989 0 .423.087.756.262.998a.853.853 0 00.726.353zm59.456-181.145v.686l-2.855 6.375h-1.07l2.795-6.184h-3.229v1.261h-.968v-2.138h5.327zm6.775 6.214v2.088h-.908v-1.241h-4.469v1.241h-.918v-2.088h.283c.343-.02.578-.262.706-.727.128-.464.215-1.119.262-1.967l.081-1.805h4.146v4.499h.817zm-4.156-2.623a11.162 11.162 0 01-.172 1.675c-.08.437-.232.753-.454.948h2.997v-3.652h-2.321l-.05 1.029zm5.63 3.531a.679.679 0 01-.485-.192.685.685 0 01-.201-.504c0-.195.067-.357.201-.485a.663.663 0 01.485-.201c.188 0 .346.064.474.191a.67.67 0 01.191.495c0 .201-.067.37-.201.504a.633.633 0 01-.464.192zm5.862-3.329c-.491 0-.888-.179-1.19-.535-.303-.356-.454-.82-.454-1.392s.151-1.036.454-1.392c.302-.357.699-.535 1.19-.535s.884.178 1.18.535c.303.349.454.814.454 1.392s-.151 1.046-.454 1.402c-.296.35-.689.525-1.18.525zm4.257-3.793h.777l-4.822 7.061h-.777l4.822-7.061zm-4.257 3.218a.855.855 0 00.726-.353c.175-.243.263-.575.263-.999 0-.424-.088-.753-.263-.989a.846.846 0 00-.726-.363.861.861 0 00-.726.363c-.175.242-.263.572-.263.989 0 .417.088.746.263.989a.861.861 0 00.726.363zm4.469 3.904c-.491 0-.888-.175-1.19-.525-.296-.356-.444-.824-.444-1.402s.148-1.042.444-1.392c.302-.357.699-.535 1.19-.535s.888.178 1.19.535c.303.356.454.82.454 1.392s-.151 1.036-.454 1.392c-.302.357-.699.535-1.19.535zm0-.575a.836.836 0 00.716-.363c.182-.243.273-.572.273-.989 0-.417-.091-.747-.273-.989a.836.836 0 00-.716-.363.845.845 0 00-.726.363c-.175.236-.263.565-.263.989 0 .424.088.757.263.999a.854.854 0 00.726.353zm-18.58 168.051v.686l-2.855 6.376h-1.07l2.795-6.184h-3.229v1.261h-.968v-2.139h5.327zm6.775 6.214v2.089h-.908v-1.241h-4.469v1.241h-.918v-2.089h.283c.343-.02.578-.262.706-.726.128-.464.215-1.12.262-1.967l.081-1.806h4.146v4.499h.817zm-4.156-2.622c-.027.672-.084 1.23-.172 1.674-.08.437-.232.753-.454.948h2.997v-3.651h-2.321l-.05 1.029zm5.63 3.53a.682.682 0 01-.485-.191.687.687 0 01-.201-.505.64.64 0 01.201-.484.664.664 0 01.485-.202c.188 0 .346.064.474.192a.668.668 0 01.191.494c0 .202-.067.37-.201.505a.636.636 0 01-.464.191zm5.862-3.329c-.491 0-.888-.178-1.19-.534-.303-.357-.454-.821-.454-1.392 0-.572.151-1.036.454-1.393.302-.356.699-.534 1.19-.534s.884.178 1.18.534c.303.35.454.814.454 1.393 0 .578-.151 1.045-.454 1.402-.296.349-.689.524-1.18.524zm4.257-3.793h.777l-4.822 7.062h-.777l4.822-7.062zm-4.257 3.218a.853.853 0 00.726-.353c.175-.242.263-.575.263-.998 0-.424-.088-.754-.263-.989a.846.846 0 00-.726-.363.861.861 0 00-.726.363c-.175.242-.263.572-.263.989 0 .416.088.746.263.988a.861.861 0 00.726.363zm4.469 3.904c-.491 0-.888-.174-1.19-.524-.296-.357-.444-.824-.444-1.402 0-.579.148-1.043.444-1.393.302-.356.699-.534 1.19-.534s.888.178 1.19.534c.303.357.454.821.454 1.393 0 .571-.151 1.035-.454 1.392-.302.356-.699.534-1.19.534zm0-.575a.836.836 0 00.716-.363c.182-.242.273-.571.273-.988 0-.417-.091-.747-.273-.989a.836.836 0 00-.716-.363.845.845 0 00-.726.363c-.175.235-.263.565-.263.989 0 .423.088.756.263.998a.851.851 0 00.726.353z" fill="#606371"/><path d="M106.911 286.909c1.242 0 2.152.236 2.732.707.587.464.881 1.101.881 1.912 0 .514-.124.977-.372 1.391-.24.406-.609.728-1.105.968-.489.232-1.093.348-1.813.348a5.806 5.806 0 01-1.775-.273c-.572-.19-1.043-.451-1.416-.782l.571-.981c.298.281.679.509 1.143.683a4.33 4.33 0 001.465.248c.654 0 1.158-.137 1.514-.41.365-.281.547-.662.547-1.142 0-.521-.199-.915-.596-1.179-.398-.274-1.076-.41-2.037-.41h-1.974l.46-4.544h4.904v1.08h-3.861l-.236 2.384h.968zm9.961.67c.496.19.877.464 1.142.82.265.355.397.782.397 1.278 0 .522-.141.977-.422 1.366-.281.381-.683.675-1.204.882-.522.207-1.134.31-1.838.31-.695 0-1.304-.103-1.825-.31-.513-.207-.911-.501-1.192-.882a2.27 2.27 0 01-.422-1.366c0-.496.128-.923.385-1.278.265-.356.645-.63 1.142-.82-.397-.19-.699-.443-.906-.757-.207-.315-.311-.687-.311-1.118 0-.48.129-.898.385-1.254.265-.356.633-.629 1.105-.819.472-.191 1.018-.286 1.639-.286.629 0 1.18.095 1.651.286.48.19.849.463 1.105.819.265.356.398.774.398 1.254 0 .422-.108.795-.323 1.118-.207.314-.509.567-.906.757zm-1.925-3.228c-.588 0-1.051.128-1.391.385a1.194 1.194 0 00-.509 1.018c0 .43.166.77.497 1.018.339.248.807.373 1.403.373.604 0 1.076-.125 1.415-.373.348-.248.522-.588.522-1.018 0-.431-.178-.77-.534-1.018-.348-.257-.815-.385-1.403-.385zm0 6.878c.687 0 1.229-.14 1.627-.422.397-.289.596-.679.596-1.167a1.3 1.3 0 00-.596-1.13c-.398-.281-.94-.422-1.627-.422s-1.225.141-1.614.422c-.389.273-.584.65-.584 1.13 0 .488.195.878.584 1.167.389.282.927.422 1.614.422zm9.915-3.65c.497.19.877.464 1.142.82.265.355.398.782.398 1.278 0 .522-.141.977-.423 1.366-.281.381-.683.675-1.204.882-.521.207-1.134.31-1.838.31-.695 0-1.303-.103-1.825-.31-.513-.207-.91-.501-1.192-.882a2.27 2.27 0 01-.422-1.366c0-.496.129-.923.385-1.278.265-.356.646-.63 1.142-.82-.397-.19-.699-.443-.906-.757-.207-.315-.31-.687-.31-1.118 0-.48.128-.898.385-1.254.264-.356.633-.629 1.105-.819.471-.191 1.018-.286 1.638-.286.63 0 1.18.095 1.652.286.48.19.848.463 1.105.819.265.356.397.774.397 1.254 0 .422-.107.795-.323 1.118-.207.314-.509.567-.906.757zm-1.925-3.228c-.587 0-1.051.128-1.39.385-.34.248-.509.587-.509 1.018 0 .43.165.77.496 1.018.34.248.807.373 1.403.373.605 0 1.076-.125 1.416-.373.348-.248.521-.588.521-1.018 0-.431-.178-.77-.534-1.018-.347-.257-.815-.385-1.403-.385zm0 6.878c.687 0 1.23-.14 1.627-.422.397-.289.596-.679.596-1.167a1.3 1.3 0 00-.596-1.13c-.397-.281-.94-.422-1.627-.422s-1.225.141-1.614.422c-.389.273-.583.65-.583 1.13 0 .488.194.878.583 1.167.389.282.927.422 1.614.422zm8.351-4.37c.571 0 1.08.108 1.527.323.455.215.811.525 1.068.931.256.397.385.857.385 1.378 0 .546-.137 1.027-.41 1.44a2.685 2.685 0 01-1.105.969 3.564 3.564 0 01-1.564.335c-1.168 0-2.07-.377-2.707-1.13-.629-.753-.944-1.821-.944-3.203 0-.969.17-1.792.509-2.471.348-.687.828-1.204 1.441-1.552.62-.356 1.34-.534 2.16-.534.422 0 .819.046 1.192.137.372.083.695.207.968.372l-.471.969c-.414-.273-.969-.41-1.664-.41-.902 0-1.61.281-2.123.844-.514.555-.77 1.366-.77 2.434 0 .132.004.236.012.31a2.328 2.328 0 011.018-.844 3.541 3.541 0 011.478-.298zm-.149 4.37c.571 0 1.035-.153 1.39-.459.356-.306.534-.716.534-1.229 0-.513-.182-.919-.546-1.217-.356-.306-.836-.459-1.44-.459-.389 0-.737.074-1.043.223a1.816 1.816 0 00-.708.609 1.549 1.549 0 00-.248.856c0 .306.078.588.236.845.165.248.401.451.707.608.315.149.687.223 1.118.223zm6.757-7.784v8.691h-1.23v-7.611h-1.961v-1.08h3.191zm2.72 8.765a.832.832 0 01-.596-.236.842.842 0 01-.248-.62c0-.241.083-.439.248-.596a.812.812 0 01.596-.249c.232 0 .426.079.584.236.157.157.236.36.236.609a.839.839 0 01-.249.62.774.774 0 01-.571.236zm4.53-8.765v8.691h-1.229v-7.611h-1.962v-1.08h3.191zm4.596 0v8.691h-1.23v-7.611h-1.961v-1.08h3.191zm11.84 6.319c0 .654-.248 1.209-.745 1.664-.488.455-1.2.72-2.135.795v1.403h-.795v-1.403a6.24 6.24 0 01-1.726-.336c-.538-.198-.968-.447-1.291-.745l.46-.968c.298.273.674.501 1.129.683.456.174.932.277 1.428.31v-2.88a9.468 9.468 0 01-1.452-.46 2.545 2.545 0 01-.969-.732c-.256-.323-.385-.745-.385-1.267 0-.653.236-1.208.708-1.663.48-.456 1.18-.72 2.098-.795v-1.415h.795v1.403c.472.016.927.091 1.366.223.447.133.832.311 1.154.534l-.409.993c-.671-.422-1.374-.654-2.111-.695v2.893a9.96 9.96 0 011.49.472c.389.157.716.397.981.72.273.314.409.737.409 1.266zm-5.264-3.985c0 .356.137.633.41.832.273.198.666.364 1.179.496v-2.682c-.529.067-.927.224-1.192.472-.265.24-.397.534-.397.882zm2.384 5.376c.555-.05.968-.191 1.242-.422a1.13 1.13 0 00.422-.894c0-.364-.145-.642-.435-.832-.281-.199-.691-.373-1.229-.522v2.67zm-48.165 174.501v1.08h-6.246v-.844l3.539-3.414c.43-.414.72-.77.869-1.068.149-.306.224-.613.224-.919 0-.455-.162-.807-.485-1.055-.314-.257-.769-.385-1.365-.385-.961 0-1.701.314-2.223.943l-.844-.732a3.396 3.396 0 011.328-.969 4.772 4.772 0 011.85-.347c.911 0 1.635.219 2.173.658.538.43.807 1.018.807 1.763a3 3 0 01-.298 1.316c-.198.414-.575.886-1.13 1.415l-2.657 2.558h4.458zm6.335-3.476c.496.19.877.463 1.142.819.265.356.397.782.397 1.279 0 .521-.141.977-.422 1.366-.281.38-.683.674-1.204.881-.522.207-1.134.311-1.838.311-.695 0-1.304-.104-1.825-.311-.513-.207-.911-.501-1.192-.881a2.273 2.273 0 01-.422-1.366c0-.497.128-.923.385-1.279.265-.356.645-.629 1.142-.819-.397-.191-.699-.443-.906-.758-.207-.314-.311-.687-.311-1.117 0-.48.129-.898.385-1.254.265-.356.633-.629 1.105-.82.472-.19 1.018-.285 1.639-.285.629 0 1.18.095 1.651.285.48.191.849.464 1.105.82.265.356.398.774.398 1.254 0 .422-.108.794-.323 1.117-.207.315-.509.567-.906.758zm-1.925-3.229c-.588 0-1.051.129-1.391.385a1.197 1.197 0 00-.509 1.019c0 .43.166.769.497 1.018.339.248.807.372 1.403.372.604 0 1.076-.124 1.415-.372.348-.249.522-.588.522-1.018 0-.431-.178-.77-.534-1.019-.348-.256-.815-.385-1.403-.385zm0 6.879c.687 0 1.229-.141 1.627-.422.397-.29.596-.679.596-1.167a1.3 1.3 0 00-.596-1.13c-.398-.282-.94-.422-1.627-.422s-1.225.14-1.614.422c-.389.273-.584.65-.584 1.13 0 .488.195.877.584 1.167.389.281.927.422 1.614.422zm8.351-4.37c.571 0 1.08.107 1.527.322.455.216.811.526 1.067.932.257.397.385.856.385 1.378 0 .546-.136 1.026-.409 1.44a2.682 2.682 0 01-1.105.968 3.552 3.552 0 01-1.565.336c-1.167 0-2.069-.377-2.707-1.13-.629-.753-.943-1.821-.943-3.204 0-.968.17-1.792.509-2.47.348-.687.828-1.205 1.44-1.552.621-.356 1.341-.534 2.161-.534.422 0 .819.045 1.192.136.372.083.695.207.968.373l-.472.968c-.414-.273-.968-.409-1.664-.409-.902 0-1.61.281-2.123.844-.513.554-.77 1.366-.77 2.433 0 .133.005.236.013.311a2.316 2.316 0 011.018-.844 3.538 3.538 0 011.478-.298zm-.149 4.37c.571 0 1.034-.153 1.39-.459.356-.307.534-.716.534-1.23 0-.513-.182-.918-.546-1.216-.356-.307-.836-.46-1.441-.46-.389 0-.736.075-1.043.224a1.818 1.818 0 00-.707.608 1.545 1.545 0 00-.249.857c0 .306.079.587.236.844.166.248.402.451.708.608.315.149.687.224 1.118.224zm6.756-7.785v8.691h-1.229v-7.611h-1.962v-1.08h3.191zm2.721 8.766a.835.835 0 01-.596-.236.843.843 0 01-.249-.621c0-.24.083-.439.249-.596a.813.813 0 01.596-.248.79.79 0 01.583.236.82.82 0 01.236.608.846.846 0 01-.248.621.78.78 0 01-.571.236zm4.53-8.766v8.691h-1.229v-7.611h-1.962v-1.08h3.191zm4.595 0v8.691h-1.229v-7.611h-1.962v-1.08h3.191zm11.841 6.32c0 .654-.248 1.208-.745 1.664-.488.455-1.2.72-2.135.794v1.403h-.795v-1.403a6.269 6.269 0 01-1.726-.335c-.538-.199-.968-.447-1.291-.745l.459-.968c.298.273.675.5 1.13.682a4.88 4.88 0 001.428.311v-2.881a9.383 9.383 0 01-1.453-.459 2.554 2.554 0 01-.968-.733c-.257-.322-.385-.745-.385-1.266 0-.654.236-1.208.708-1.664.48-.455 1.179-.72 2.098-.794v-1.416h.795v1.403c.471.017.927.091 1.365.224a4 4 0 011.155.534l-.41.993a4.37 4.37 0 00-2.11-.695v2.893c.604.148 1.1.306 1.489.471.39.158.716.398.981.72.273.315.41.737.41 1.267zm-5.264-3.986c0 .356.136.634.409.832.274.199.667.364 1.18.497v-2.682c-.53.066-.927.223-1.192.472-.265.24-.397.534-.397.881zm2.384 5.376c.554-.049.968-.19 1.241-.422.282-.24.422-.538.422-.894 0-.364-.145-.641-.434-.832-.282-.198-.691-.372-1.229-.521v2.669z" fill="#373943"/><path d="M205.944 319.173h-1.473v3.107h-.989v-7.061h.989v3.066h1.493l2.219-3.066h1.08l-2.522 3.42 2.643 3.641h-1.15l-2.29-3.107zm6.534 3.168a2.904 2.904 0 01-1.433-.353 2.606 2.606 0 01-.999-.969 2.824 2.824 0 01-.353-1.412c0-.525.118-.992.353-1.402.242-.417.575-.74.999-.969a2.904 2.904 0 011.433-.353c.531 0 1.005.118 1.422.353.424.229.753.552.989.969.242.41.363.877.363 1.402 0 .525-.121.995-.363 1.412a2.539 2.539 0 01-.989.969 2.846 2.846 0 01-1.422.353zm0-.848c.343 0 .649-.077.918-.232.275-.161.49-.383.645-.665.155-.29.232-.619.232-.989s-.077-.696-.232-.979a1.622 1.622 0 00-.645-.665 1.805 1.805 0 00-.918-.232c-.343 0-.653.077-.929.232a1.7 1.7 0 00-.645.665 2.004 2.004 0 00-.232.979c0 .37.077.699.232.989.161.282.376.504.645.665.276.155.586.232.929.232zm10.336-4.559v5.346h-.878v-3.904l-1.997 3.299h-.424l-1.977-3.309v3.914h-.888v-5.346h.999l2.098 3.611 2.159-3.611h.908zm8.049 0v5.346h-.878v-3.904l-1.997 3.299h-.424l-1.977-3.309v3.914h-.888v-5.346h.999l2.098 3.611 2.159-3.611h.908zm6.717 2.703c0 .074-.007.172-.02.293h-4.338a1.7 1.7 0 00.615 1.14c.357.282.797.423 1.322.423.639 0 1.153-.215 1.543-.645l.535.625a2.331 2.331 0 01-.908.646 3.108 3.108 0 01-1.201.222c-.565 0-1.066-.115-1.503-.343a2.555 2.555 0 01-1.019-.979 2.824 2.824 0 01-.353-1.412c0-.518.115-.985.343-1.402.236-.417.555-.74.959-.969a2.73 2.73 0 011.382-.353c.511 0 .965.118 1.362.353.403.229.716.552.938.969.228.417.343.894.343 1.432zm-2.643-1.937c-.464 0-.854.142-1.17.424-.31.282-.491.652-.545 1.11h3.43a1.692 1.692 0 00-.555-1.1c-.31-.289-.696-.434-1.16-.434zm4.145-.766h.969v2.269h3.046v-2.269h.969v5.346h-.969v-2.239h-3.046v2.239h-.969v-5.346zm10.851.847h-1.957v4.499h-.968v-4.499h-1.957v-.847h4.882v.847zm2.897-.898c.74 0 1.305.182 1.695.545.397.363.595.905.595 1.624v3.228h-.918v-.706a1.55 1.55 0 01-.696.575c-.296.128-.649.192-1.059.192-.599 0-1.079-.145-1.443-.434a1.397 1.397 0 01-.534-1.14c0-.471.171-.847.514-1.13.343-.289.888-.434 1.635-.434h1.533v-.191c0-.417-.121-.737-.363-.959-.242-.222-.599-.333-1.07-.333-.316 0-.625.054-.928.162a2.319 2.319 0 00-.766.414l-.404-.727c.276-.222.605-.39.989-.504.383-.121.79-.182 1.22-.182zm-.222 4.711c.37 0 .69-.08.959-.242.269-.168.464-.403.585-.706v-.746h-1.493c-.821 0-1.231.275-1.231.827 0 .269.104.481.313.635.208.155.498.232.867.232zm7.091-4.711c.518 0 .982.115 1.392.343.41.229.73.548.958.959.236.41.354.884.354 1.422 0 .538-.118 1.015-.354 1.432-.228.411-.548.73-.958.959-.41.228-.874.343-1.392.343-.383 0-.736-.074-1.059-.222a2.2 2.2 0 01-.807-.646v2.764h-.969v-7.303h.928v.847c.216-.296.488-.518.817-.666.33-.154.693-.232 1.09-.232zm-.081 4.61c.343 0 .649-.077.918-.232.276-.161.491-.383.646-.665.161-.29.242-.619.242-.989s-.081-.696-.242-.979a1.618 1.618 0 00-.646-.665 1.805 1.805 0 00-.918-.232c-.336 0-.642.08-.918.242a1.72 1.72 0 00-.645.655 2.004 2.004 0 00-.232.979c0 .37.077.699.232.989.154.282.37.504.645.665.276.155.582.232.918.232zm4.192-4.559h.968v3.894l3.279-3.894h.877v5.346h-.968v-3.894l-3.269 3.894h-.887v-5.346zm7.004 0h.969v3.894l3.278-3.894h.878v5.346h-.969v-3.894l-3.268 3.894h-.888v-5.346zm2.502-.696c-.498 0-.885-.118-1.16-.354-.276-.242-.417-.588-.424-1.039h.656a.838.838 0 00.252.606c.168.148.39.222.666.222s.497-.074.666-.222a.82.82 0 00.262-.606h.676c-.007.451-.152.797-.434 1.039-.282.236-.669.354-1.16.354zm-67.372 177.536h-1.473v3.107h-.989v-7.062h.989v3.067h1.493l2.219-3.067h1.08l-2.522 3.42 2.643 3.642h-1.15l-2.29-3.107zm6.534 3.167a2.894 2.894 0 01-1.433-.353 2.603 2.603 0 01-.999-.968 2.827 2.827 0 01-.353-1.412c0-.525.118-.992.353-1.403.242-.417.575-.739.999-.968a2.894 2.894 0 011.433-.353c.531 0 1.005.117 1.422.353.424.229.753.551.989.968.242.411.363.878.363 1.403 0 .524-.121.995-.363 1.412-.236.41-.565.733-.989.968a2.836 2.836 0 01-1.422.353zm0-.847c.343 0 .649-.077.918-.232.275-.161.49-.383.645-.666a2.06 2.06 0 00.232-.988c0-.37-.077-.697-.232-.979a1.63 1.63 0 00-.645-.666 1.815 1.815 0 00-.918-.232c-.343 0-.653.078-.929.232a1.71 1.71 0 00-.645.666 2.001 2.001 0 00-.232.979c0 .369.077.699.232.988.161.283.376.505.645.666.276.155.586.232.929.232zm10.336-4.56v5.347h-.878v-3.904l-1.997 3.299h-.424l-1.977-3.309v3.914h-.888v-5.347h.999l2.098 3.612 2.159-3.612h.908zm8.049 0v5.347h-.878v-3.904l-1.997 3.299h-.424l-1.977-3.309v3.914h-.888v-5.347h.999l2.098 3.612 2.159-3.612h.908zm6.717 2.704c0 .074-.007.171-.02.292h-4.338a1.7 1.7 0 00.615 1.14c.357.283.797.424 1.322.424.639 0 1.153-.215 1.543-.646l.535.626a2.34 2.34 0 01-.908.645 3.108 3.108 0 01-1.201.222c-.565 0-1.066-.114-1.503-.343a2.546 2.546 0 01-1.019-.978 2.827 2.827 0 01-.353-1.412c0-.518.115-.986.343-1.403.236-.417.555-.739.959-.968a2.72 2.72 0 011.382-.353c.511 0 .965.117 1.362.353.403.229.716.551.938.968.228.417.343.895.343 1.433zm-2.643-1.937c-.464 0-.854.141-1.17.424-.31.282-.491.652-.545 1.109h3.43a1.69 1.69 0 00-.555-1.099c-.31-.289-.696-.434-1.16-.434zm4.145-.767h.969v2.27h3.046v-2.27h.969v5.347h-.969v-2.24h-3.046v2.24h-.969v-5.347zm10.851.848h-1.957v4.499h-.968v-4.499h-1.957v-.848h4.882v.848zm2.897-.898c.74 0 1.305.181 1.695.545.397.363.595.904.595 1.624v3.228h-.918v-.706c-.161.249-.393.44-.696.575-.296.127-.649.191-1.059.191-.599 0-1.079-.144-1.443-.433a1.4 1.4 0 01-.534-1.14c0-.471.171-.848.514-1.13.343-.289.888-.434 1.635-.434h1.533v-.192c0-.417-.121-.736-.363-.958-.242-.222-.599-.333-1.07-.333-.316 0-.625.054-.928.161a2.319 2.319 0 00-.766.414l-.404-.726a2.87 2.87 0 01.989-.505c.383-.121.79-.181 1.22-.181zm-.222 4.711c.37 0 .69-.081.959-.242.269-.168.464-.404.585-.706v-.747h-1.493c-.821 0-1.231.276-1.231.827 0 .269.104.481.313.636.208.155.498.232.867.232zm7.091-4.711c.518 0 .982.114 1.392.343.41.228.73.548.958.958.236.41.354.885.354 1.423s-.118 1.015-.354 1.432c-.228.41-.548.73-.958.958-.41.229-.874.343-1.392.343-.383 0-.736-.074-1.059-.222a2.208 2.208 0 01-.807-.645v2.764h-.969v-7.304h.928v.848c.216-.296.488-.518.817-.666a2.53 2.53 0 011.09-.232zm-.081 4.61c.343 0 .649-.077.918-.232.276-.161.491-.383.646-.666.161-.289.242-.619.242-.988 0-.37-.081-.697-.242-.979a1.627 1.627 0 00-.646-.666 1.815 1.815 0 00-.918-.232c-.336 0-.642.081-.918.242a1.73 1.73 0 00-.645.656 2.001 2.001 0 00-.232.979c0 .369.077.699.232.988a1.7 1.7 0 00.645.666c.276.155.582.232.918.232zm4.192-4.56h.968v3.894l3.279-3.894h.877v5.347h-.968v-3.894l-3.269 3.894h-.887v-5.347zm7.004 0h.969v3.894l3.278-3.894h.878v5.347h-.969v-3.894l-3.268 3.894h-.888v-5.347zm2.502-.696c-.498 0-.885-.118-1.16-.353-.276-.242-.417-.588-.424-1.039h.656a.834.834 0 00.252.605c.168.148.39.222.666.222s.497-.074.666-.222a.815.815 0 00.262-.605h.676c-.007.451-.152.797-.434 1.039-.282.235-.669.353-1.16.353zm-163.209-172.22c.478.115.838.32 1.08.616.249.289.373.662.373 1.119 0 .612-.225 1.087-.676 1.423-.444.336-1.093.504-1.947.504h-3.228v-7.061h3.036c.774 0 1.376.158 1.806.474.437.309.656.756.656 1.342 0 .383-.098.709-.293.978a1.689 1.689 0 01-.807.605zm-3.399-.292h1.967c.491 0 .864-.098 1.12-.293.262-.195.393-.481.393-.857 0-.377-.131-.663-.393-.858-.263-.201-.636-.302-1.12-.302h-1.967v2.31zm2.209 3.157c1.083 0 1.624-.403 1.624-1.21 0-.404-.138-.7-.413-.888-.27-.195-.673-.293-1.211-.293h-2.209v2.391h2.209zm6.457.858a2.907 2.907 0 01-1.433-.353 2.61 2.61 0 01-.998-.969 2.814 2.814 0 01-.353-1.412c0-.525.117-.992.353-1.402a2.52 2.52 0 01.998-.969 2.907 2.907 0 011.433-.353c.531 0 1.005.118 1.422.353.424.229.754.552.989.969.242.41.363.877.363 1.402 0 .525-.121.995-.363 1.412a2.532 2.532 0 01-.989.969 2.846 2.846 0 01-1.422.353zm0-.848c.343 0 .649-.077.918-.232.276-.161.491-.383.646-.665.154-.29.232-.619.232-.989s-.078-.696-.232-.979a1.618 1.618 0 00-.646-.665 1.805 1.805 0 00-.918-.232 1.86 1.86 0 00-.928.232 1.709 1.709 0 00-.646.665 2.015 2.015 0 00-.232.979c0 .37.078.699.232.989.162.282.377.504.646.665.276.155.585.232.928.232zm10.524-1.987c.692.175 1.039.609 1.039 1.301 0 .471-.179.834-.535 1.09-.35.255-.874.383-1.574.383h-2.572v-5.346h2.481c.633 0 1.127.121 1.483.363.357.235.535.571.535 1.009 0 .282-.077.528-.232.736a1.394 1.394 0 01-.625.464zm-2.694-.272h1.453c.37 0 .649-.068.837-.202a.668.668 0 00.293-.585c0-.511-.377-.767-1.13-.767h-1.453v1.554zm1.554 2.3c.403 0 .706-.064.908-.192.201-.128.302-.326.302-.595 0-.276-.094-.481-.282-.615-.182-.135-.471-.202-.868-.202h-1.614v1.604h1.554zm8.284-4.6v5.346h-.968v-4.499h-2.3l-.061 1.19c-.033.72-.097 1.322-.191 1.806-.094.478-.249.861-.464 1.15-.215.289-.515.434-.898.434a2.27 2.27 0 01-.595-.091l.06-.817c.088.02.168.03.242.03a.655.655 0 00.606-.353c.134-.235.222-.514.262-.837.04-.323.077-.784.111-1.382l.091-1.977h4.105zm3.78-.051c.739 0 1.304.182 1.694.545.397.363.596.905.596 1.624v3.228h-.918v-.706a1.56 1.56 0 01-.696.575c-.296.128-.649.192-1.06.192-.598 0-1.079-.145-1.442-.434a1.395 1.395 0 01-.535-1.14c0-.471.172-.847.515-1.13.343-.289.887-.434 1.634-.434h1.533v-.191c0-.417-.121-.737-.363-.959-.242-.222-.598-.333-1.069-.333a2.74 2.74 0 00-.928.162 2.314 2.314 0 00-.767.414l-.404-.727a2.86 2.86 0 01.989-.504 4.03 4.03 0 011.221-.182zm-.222 4.711c.37 0 .689-.08.958-.242.269-.168.464-.403.585-.706v-.746h-1.493c-.82 0-1.231.275-1.231.827 0 .269.105.481.313.635.209.155.498.232.868.232zm9.693-.161v2.088h-.908v-1.241h-4.469v1.241h-.918v-2.088h.283c.343-.02.578-.262.706-.726.127-.465.215-1.12.262-1.968l.081-1.805h4.146v4.499h.817zm-4.156-2.623a11.148 11.148 0 01-.172 1.675c-.08.437-.232.753-.454.948h2.996v-3.652h-2.32l-.05 1.029zm10.25.827c0 .074-.007.172-.02.293h-4.338a1.7 1.7 0 00.615 1.14c.357.282.797.423 1.322.423.639 0 1.153-.215 1.543-.645l.535.625a2.331 2.331 0 01-.908.646 3.108 3.108 0 01-1.201.222c-.565 0-1.066-.115-1.503-.343a2.562 2.562 0 01-1.019-.979 2.824 2.824 0 01-.353-1.412c0-.518.115-.985.343-1.402.236-.417.555-.74.959-.969a2.73 2.73 0 011.382-.353c.511 0 .965.118 1.362.353.403.229.716.552.938.969.228.417.343.894.343 1.432zm-2.643-1.937c-.464 0-.854.142-1.17.424-.31.282-.491.652-.545 1.11h3.43a1.692 1.692 0 00-.555-1.1c-.31-.289-.696-.434-1.16-.434zm4.145-.766h.969v2.269h3.046v-2.269h.969v5.346h-.969v-2.239h-3.046v2.239h-.969v-5.346zm6.867 0h.968v3.894l3.279-3.894h.877v5.346h-.968v-3.894l-3.269 3.894h-.887v-5.346zm7.004 0h.969v3.894l3.278-3.894h.878v5.346h-.969v-3.894l-3.268 3.894h-.888v-5.346zm-57.653 176.285c.478.114.838.319 1.08.615.249.289.373.663.373 1.12 0 .612-.225 1.086-.676 1.422-.444.337-1.093.505-1.947.505h-3.228v-7.062h3.036c.774 0 1.376.158 1.806.474.437.31.656.757.656 1.342 0 .383-.098.71-.293.979-.188.269-.457.47-.807.605zm-3.399-.293h1.967c.491 0 .864-.097 1.12-.292.262-.195.393-.481.393-.858 0-.376-.131-.662-.393-.857-.263-.202-.636-.303-1.12-.303h-1.967v2.31zm2.209 3.158c1.083 0 1.624-.404 1.624-1.211 0-.403-.138-.699-.413-.887-.27-.195-.673-.293-1.211-.293h-2.209v2.391h2.209zm6.457.857a2.896 2.896 0 01-1.433-.353 2.608 2.608 0 01-.998-.968 2.816 2.816 0 01-.353-1.412c0-.525.117-.992.353-1.403.242-.417.575-.739.998-.968a2.896 2.896 0 011.433-.353c.531 0 1.005.117 1.422.353.424.229.754.551.989.968.242.411.363.878.363 1.403 0 .524-.121.995-.363 1.412a2.53 2.53 0 01-.989.968 2.836 2.836 0 01-1.422.353zm0-.847c.343 0 .649-.077.918-.232.276-.161.491-.383.646-.666a2.07 2.07 0 00.232-.988c0-.37-.078-.697-.232-.979a1.627 1.627 0 00-.646-.666 1.815 1.815 0 00-.918-.232c-.343 0-.652.078-.928.232a1.718 1.718 0 00-.646.666 2.012 2.012 0 00-.232.979c0 .369.078.699.232.988.162.283.377.505.646.666.276.155.585.232.928.232zm10.524-1.987c.692.175 1.039.608 1.039 1.301 0 .471-.179.834-.535 1.09-.35.255-.874.383-1.574.383h-2.572v-5.347h2.481c.633 0 1.127.121 1.483.363.357.236.535.572.535 1.009 0 .283-.077.528-.232.737a1.401 1.401 0 01-.625.464zm-2.694-.273h1.453c.37 0 .649-.067.837-.201a.669.669 0 00.293-.586c0-.511-.377-.766-1.13-.766h-1.453v1.553zm1.554 2.3c.403 0 .706-.064.908-.191.201-.128.302-.327.302-.596 0-.275-.094-.48-.282-.615-.182-.134-.471-.202-.868-.202h-1.614v1.604h1.554zm8.284-4.6v5.347h-.968v-4.499h-2.3l-.061 1.19c-.033.72-.097 1.322-.191 1.806-.094.477-.249.861-.464 1.15-.215.289-.515.434-.898.434-.175 0-.373-.031-.595-.091l.06-.817c.088.02.168.03.242.03a.657.657 0 00.606-.353c.134-.236.222-.515.262-.837.04-.323.077-.784.111-1.383l.091-1.977h4.105zm3.78-.05c.739 0 1.304.181 1.694.545.397.363.596.904.596 1.624v3.228h-.918v-.706c-.162.249-.394.44-.696.575-.296.127-.649.191-1.06.191-.598 0-1.079-.144-1.442-.433a1.398 1.398 0 01-.535-1.14c0-.471.172-.848.515-1.13.343-.289.887-.434 1.634-.434h1.533v-.192c0-.417-.121-.736-.363-.958-.242-.222-.598-.333-1.069-.333-.316 0-.626.054-.928.161a2.314 2.314 0 00-.767.414l-.404-.726a2.88 2.88 0 01.989-.505 4.03 4.03 0 011.221-.181zm-.222 4.711c.37 0 .689-.081.958-.242.269-.168.464-.404.585-.706v-.747h-1.493c-.82 0-1.231.276-1.231.827 0 .269.105.481.313.636.209.155.498.232.868.232zm9.693-.162v2.089h-.908v-1.241h-4.469v1.241h-.918v-2.089h.283c.343-.02.578-.262.706-.726.127-.464.215-1.12.262-1.967l.081-1.806h4.146v4.499h.817zm-4.156-2.622c-.027.672-.084 1.23-.172 1.674-.08.437-.232.753-.454.948h2.996v-3.651h-2.32l-.05 1.029zm10.25.827c0 .074-.007.171-.02.292h-4.338a1.7 1.7 0 00.615 1.14c.357.283.797.424 1.322.424.639 0 1.153-.215 1.543-.646l.535.626a2.34 2.34 0 01-.908.645 3.108 3.108 0 01-1.201.222c-.565 0-1.066-.114-1.503-.343a2.553 2.553 0 01-1.019-.978 2.827 2.827 0 01-.353-1.412c0-.518.115-.986.343-1.403.236-.417.555-.739.959-.968a2.72 2.72 0 011.382-.353c.511 0 .965.117 1.362.353.403.229.716.551.938.968.228.417.343.895.343 1.433zm-2.643-1.937c-.464 0-.854.141-1.17.424-.31.282-.491.652-.545 1.109h3.43a1.69 1.69 0 00-.555-1.099c-.31-.289-.696-.434-1.16-.434zm4.145-.767h.969v2.27h3.046v-2.27h.969v5.347h-.969v-2.24h-3.046v2.24h-.969v-5.347zm6.867 0h.968v3.894l3.279-3.894h.877v5.347h-.968v-3.894l-3.269 3.894h-.887v-5.347zm7.004 0h.969v3.894l3.278-3.894h.878v5.347h-.969v-3.894l-3.268 3.894h-.888v-5.347z" fill="#606371"/><path d="M203.091 288.212h3.339v1.031h-3.339v-1.031zm7.117-4.767v8.691h-1.229v-7.611h-1.962v-1.08h3.191zm2.72 8.765a.834.834 0 01-.596-.236.842.842 0 01-.248-.62c0-.241.083-.439.248-.596a.814.814 0 01.596-.249c.232 0 .427.079.584.236.157.157.236.36.236.609a.839.839 0 01-.249.62.774.774 0 01-.571.236zm4.477-5.301c1.242 0 2.152.236 2.732.707.587.464.881 1.101.881 1.912 0 .514-.124.977-.372 1.391-.24.406-.609.728-1.105.968-.489.232-1.093.348-1.813.348a5.817 5.817 0 01-1.776-.273c-.571-.19-1.043-.451-1.415-.782l.571-.981c.298.281.679.509 1.142.683a4.34 4.34 0 001.466.248c.653 0 1.158-.137 1.514-.41.364-.281.547-.662.547-1.142 0-.521-.199-.915-.596-1.179-.398-.274-1.076-.41-2.037-.41h-1.974l.46-4.544h4.904v1.08h-3.861l-.236 2.384h.968zm8.396-.05c.571 0 1.08.108 1.527.323.455.215.811.525 1.068.931.257.397.385.857.385 1.378 0 .546-.137 1.027-.41 1.44a2.685 2.685 0 01-1.105.969 3.56 3.56 0 01-1.564.335c-1.167 0-2.07-.377-2.707-1.13-.629-.753-.944-1.821-.944-3.203 0-.969.17-1.792.509-2.471.348-.687.828-1.204 1.441-1.552.621-.356 1.341-.534 2.16-.534.422 0 .82.046 1.192.137.373.083.695.207.968.372l-.471.969c-.414-.273-.969-.41-1.664-.41-.902 0-1.61.281-2.123.844-.513.555-.77 1.366-.77 2.434 0 .132.004.236.012.31a2.325 2.325 0 011.019-.844 3.533 3.533 0 011.477-.298zm-.149 4.37c.571 0 1.035-.153 1.391-.459.356-.306.534-.716.534-1.229 0-.513-.183-.919-.547-1.217-.356-.306-.836-.459-1.44-.459-.389 0-.737.074-1.043.223a1.816 1.816 0 00-.708.609 1.549 1.549 0 00-.248.856c0 .306.079.588.236.845.165.248.401.451.708.608.314.149.687.223 1.117.223zm5.707-3.116c-.604 0-1.092-.219-1.465-.658-.372-.439-.559-1.01-.559-1.713 0-.704.187-1.275.559-1.714.373-.439.861-.658 1.465-.658.604 0 1.089.219 1.453.658.372.431.559 1.002.559 1.714 0 .711-.187 1.287-.559 1.725-.364.431-.849.646-1.453.646zm5.24-4.668h.956l-5.935 8.691h-.956l5.935-8.691zm-5.24 3.96c.381 0 .679-.145.894-.434.215-.298.323-.708.323-1.229 0-.522-.108-.928-.323-1.217-.215-.298-.513-.447-.894-.447-.372 0-.67.149-.894.447-.215.298-.323.703-.323 1.217 0 .513.108.918.323 1.216.224.298.522.447.894.447zm5.5 4.805c-.604 0-1.092-.215-1.465-.645-.364-.439-.546-1.014-.546-1.726s.182-1.283.546-1.714c.373-.438.861-.658 1.465-.658.605 0 1.093.22 1.466.658.372.439.558 1.01.558 1.714 0 .703-.186 1.274-.558 1.713-.373.439-.861.658-1.466.658zm0-.707c.373 0 .667-.149.882-.447.223-.298.335-.704.335-1.217 0-.513-.112-.919-.335-1.217a1.03 1.03 0 00-.882-.447c-.38 0-.678.149-.894.447-.215.29-.322.695-.322 1.217 0 .521.107.931.322 1.229.216.29.514.435.894.435zm-33.768 171.31h3.339v1.03h-3.339v-1.03zm10.592 2.843v1.08h-6.245v-.844l3.538-3.414c.431-.414.72-.77.869-1.068.149-.306.224-.613.224-.919 0-.455-.162-.807-.484-1.055-.315-.257-.77-.385-1.366-.385-.96 0-1.701.314-2.223.943l-.844-.732a3.393 3.393 0 011.329-.969 4.764 4.764 0 011.85-.347c.91 0 1.634.219 2.172.658.538.43.807 1.018.807 1.763a3 3 0 01-.298 1.316c-.198.414-.575.886-1.129 1.415l-2.658 2.558h4.458zm1.961 1.155a.838.838 0 01-.596-.236.846.846 0 01-.248-.621c0-.24.083-.439.248-.596a.817.817 0 01.596-.248.79.79 0 01.584.236c.157.157.236.36.236.608a.843.843 0 01-.249.621.777.777 0 01-.571.236zm5.443-5.116c.852.083 1.502.348 1.949.795.447.439.67 1.002.67 1.689 0 .496-.124.947-.372 1.353-.248.397-.621.716-1.118.956-.488.232-1.088.348-1.8.348a5.852 5.852 0 01-1.788-.273c-.571-.191-1.039-.452-1.403-.783l.571-.981c.298.282.679.509 1.143.683.463.166.956.249 1.477.249.646 0 1.147-.137 1.503-.41.364-.273.546-.65.546-1.13 0-.48-.178-.853-.534-1.117-.356-.265-.894-.398-1.614-.398h-.695v-.869l2.185-2.682h-4.184v-1.08h5.736v.844l-2.272 2.806zm7.044 0c.853.083 1.503.348 1.95.795.447.439.67 1.002.67 1.689 0 .496-.124.947-.372 1.353-.249.397-.621.716-1.118.956-.488.232-1.088.348-1.8.348a5.852 5.852 0 01-1.788-.273c-.571-.191-1.039-.452-1.403-.783l.571-.981c.298.282.679.509 1.142.683.464.166.956.249 1.478.249.645 0 1.146-.137 1.502-.41.364-.273.546-.65.546-1.13 0-.48-.178-.853-.533-1.117-.356-.265-.894-.398-1.615-.398h-.695v-.869l2.185-2.682h-4.184v-1.08h5.736v.844l-2.272 2.806zm5.544 1.019c-.604 0-1.093-.22-1.465-.659-.373-.438-.559-1.009-.559-1.713 0-.703.186-1.275.559-1.713.372-.439.861-.658 1.465-.658.604 0 1.088.219 1.453.658.372.43.558 1.001.558 1.713 0 .712-.186 1.287-.558 1.726-.365.43-.849.646-1.453.646zm5.24-4.669h.956l-5.935 8.691h-.956l5.935-8.691zm-5.24 3.961c.381 0 .679-.145.894-.435.215-.298.323-.707.323-1.229 0-.521-.108-.927-.323-1.217-.215-.298-.513-.447-.894-.447-.372 0-.67.149-.894.447-.215.298-.323.704-.323 1.217 0 .513.108.919.323 1.217.224.298.522.447.894.447zm5.5 4.805c-.604 0-1.092-.215-1.465-.646-.364-.439-.546-1.014-.546-1.726 0-.711.182-1.283.546-1.713.373-.439.861-.658 1.465-.658.605 0 1.093.219 1.465.658.373.439.559 1.01.559 1.713 0 .704-.186 1.275-.559 1.714-.372.438-.86.658-1.465.658zm0-.708c.373 0 .667-.149.882-.447.223-.298.335-.703.335-1.217 0-.513-.112-.918-.335-1.216a1.03 1.03 0 00-.882-.447c-.38 0-.678.149-.894.447-.215.289-.322.695-.322 1.216 0 .522.107.932.322 1.23.216.289.514.434.894.434z" fill="#DE4355"/><path d="M292.586 288.287h-2.26v2.222h-1.043v-2.222h-2.26v-.981h2.26v-2.235h1.043v2.235h2.26v.981zm3.904-4.842v8.691h-1.229v-7.611h-1.962v-1.08h3.191zm5.651 3.414c.571 0 1.08.108 1.527.323.455.215.811.525 1.068.931.256.397.384.857.384 1.378 0 .546-.136 1.027-.409 1.44a2.685 2.685 0 01-1.105.969 3.565 3.565 0 01-1.565.335c-1.167 0-2.069-.377-2.706-1.13-.629-.753-.944-1.821-.944-3.203 0-.969.17-1.792.509-2.471.348-.687.828-1.204 1.44-1.552.621-.356 1.341-.534 2.161-.534.422 0 .819.046 1.192.137.372.083.695.207.968.372l-.472.969c-.414-.273-.968-.41-1.663-.41-.903 0-1.61.281-2.124.844-.513.555-.769 1.366-.769 2.434 0 .132.004.236.012.31a2.322 2.322 0 011.018-.844 3.538 3.538 0 011.478-.298zm-.149 4.37c.571 0 1.034-.153 1.39-.459.356-.306.534-.716.534-1.229 0-.513-.182-.919-.546-1.217-.356-.306-.836-.459-1.44-.459-.389 0-.737.074-1.043.223a1.816 1.816 0 00-.708.609 1.54 1.54 0 00-.248.856c0 .306.078.588.235.845.166.248.402.451.708.608.315.149.687.223 1.118.223zm5.003.981a.83.83 0 01-.596-.236.839.839 0 01-.249-.62c0-.241.083-.439.249-.596a.81.81 0 01.596-.249c.231 0 .426.079.583.236a.82.82 0 01.236.609.842.842 0 01-.248.62.775.775 0 01-.571.236zm5.597-5.351c.572 0 1.081.108 1.528.323a2.484 2.484 0 011.452 2.309c0 .546-.136 1.027-.41 1.44a2.678 2.678 0 01-1.105.969 3.56 3.56 0 01-1.564.335c-1.167 0-2.069-.377-2.707-1.13-.629-.753-.943-1.821-.943-3.203 0-.969.169-1.792.509-2.471.347-.687.828-1.204 1.44-1.552.621-.356 1.341-.534 2.16-.534.423 0 .82.046 1.192.137.373.083.696.207.969.372l-.472.969c-.414-.273-.968-.41-1.664-.41-.902 0-1.61.281-2.123.844-.513.555-.77 1.366-.77 2.434 0 .132.004.236.013.31a2.317 2.317 0 011.018-.844 3.537 3.537 0 011.477-.298zm-.149 4.37c.572 0 1.035-.153 1.391-.459.356-.306.534-.716.534-1.229 0-.513-.182-.919-.546-1.217-.356-.306-.836-.459-1.441-.459-.389 0-.736.074-1.043.223a1.806 1.806 0 00-.707.609 1.542 1.542 0 00-.249.856c0 .306.079.588.236.845.166.248.402.451.708.608.314.149.687.223 1.117.223zm7.39-4.134c.853.083 1.503.347 1.95.794.447.439.67 1.002.67 1.689 0 .497-.124.948-.372 1.353-.249.398-.621.716-1.118.956-.488.232-1.088.348-1.8.348a5.852 5.852 0 01-1.788-.273c-.571-.19-1.039-.451-1.403-.782l.571-.981c.298.281.679.509 1.142.683.464.165.956.248 1.478.248.645 0 1.146-.137 1.502-.41.364-.273.546-.649.546-1.13 0-.48-.178-.852-.533-1.117-.356-.265-.894-.397-1.615-.397h-.695v-.869l2.185-2.682h-4.184v-1.08h5.736v.844l-2.272 2.806zm5.544 1.018c-.604 0-1.093-.219-1.465-.658-.373-.439-.559-1.01-.559-1.713 0-.704.186-1.275.559-1.714.372-.439.861-.658 1.465-.658.604 0 1.088.219 1.453.658.372.431.558 1.002.558 1.714 0 .711-.186 1.287-.558 1.725-.365.431-.849.646-1.453.646zm5.24-4.668h.956l-5.935 8.691h-.956l5.935-8.691zm-5.24 3.96c.381 0 .679-.145.894-.434.215-.298.323-.708.323-1.229 0-.522-.108-.928-.323-1.217-.215-.298-.513-.447-.894-.447-.373 0-.67.149-.894.447-.215.298-.323.703-.323 1.217 0 .513.108.918.323 1.216.224.298.521.447.894.447zm5.5 4.805c-.604 0-1.092-.215-1.465-.645-.364-.439-.546-1.014-.546-1.726s.182-1.283.546-1.714c.373-.438.861-.658 1.465-.658.605 0 1.093.22 1.465.658.373.439.559 1.01.559 1.714 0 .703-.186 1.274-.559 1.713-.372.439-.86.658-1.465.658zm0-.707c.373 0 .667-.149.882-.447.223-.298.335-.704.335-1.217 0-.513-.112-.919-.335-1.217a1.03 1.03 0 00-.882-.447c-.38 0-.678.149-.894.447-.215.29-.323.695-.323 1.217 0 .521.108.931.323 1.229.216.29.514.435.894.435zm-38.291 171.384h-2.26v2.223h-1.043v-2.223h-2.26v-.98h2.26v-2.235h1.043v2.235h2.26v.98zm6.742-.707c.497.19.877.463 1.142.819.265.356.398.782.398 1.279 0 .521-.141.977-.423 1.366-.281.38-.683.674-1.204.881-.521.207-1.134.311-1.838.311-.695 0-1.303-.104-1.825-.311-.513-.207-.91-.501-1.192-.881a2.273 2.273 0 01-.422-1.366c0-.497.129-.923.385-1.279.265-.356.646-.629 1.142-.819-.397-.191-.699-.443-.906-.758-.207-.314-.31-.687-.31-1.117 0-.48.128-.898.385-1.254.264-.356.633-.629 1.105-.82.471-.19 1.018-.285 1.638-.285.63 0 1.18.095 1.652.285.48.191.848.464 1.105.82.265.356.397.774.397 1.254 0 .422-.107.794-.323 1.117-.207.315-.509.567-.906.758zm-1.925-3.229c-.587 0-1.051.129-1.39.385-.34.249-.509.588-.509 1.019 0 .43.165.769.496 1.018.34.248.807.372 1.403.372.605 0 1.076-.124 1.416-.372.348-.249.521-.588.521-1.018 0-.431-.178-.77-.534-1.019-.347-.256-.815-.385-1.403-.385zm0 6.879c.687 0 1.23-.141 1.627-.422.397-.29.596-.679.596-1.167a1.3 1.3 0 00-.596-1.13c-.397-.282-.94-.422-1.627-.422s-1.225.14-1.614.422c-.389.273-.583.65-.583 1.13 0 .488.194.877.583 1.167.389.281.927.422 1.614.422zm5.542.981a.836.836 0 01-.596-.236.842.842 0 01-.248-.621c0-.24.082-.439.248-.596a.815.815 0 01.596-.248c.232 0 .426.078.584.236.157.157.235.36.235.608a.842.842 0 01-.248.621.78.78 0 01-.571.236zm8.223-1.155v1.08h-6.245v-.844l3.539-3.414c.43-.414.72-.77.869-1.068.149-.306.223-.613.223-.919 0-.455-.161-.807-.484-1.055-.314-.257-.77-.385-1.366-.385-.96 0-1.701.314-2.222.943l-.844-.732a3.396 3.396 0 011.328-.969 4.768 4.768 0 011.85-.347c.911 0 1.635.219 2.173.658.538.43.807 1.018.807 1.763a3 3 0 01-.298 1.316c-.199.414-.575.886-1.13 1.415l-2.657 2.558h4.457zm4.735-4.196c.571 0 1.08.107 1.527.322.455.216.811.526 1.067.932.257.397.385.856.385 1.378 0 .546-.136 1.026-.409 1.44a2.682 2.682 0 01-1.105.968 3.552 3.552 0 01-1.565.336c-1.167 0-2.069-.377-2.707-1.13-.629-.753-.943-1.821-.943-3.204 0-.968.17-1.792.509-2.47.348-.687.828-1.205 1.44-1.552.621-.356 1.341-.534 2.161-.534.422 0 .819.045 1.192.136.372.083.695.207.968.373l-.472.968c-.414-.273-.968-.409-1.664-.409-.902 0-1.61.281-2.123.844-.513.554-.77 1.366-.77 2.433 0 .133.005.236.013.311a2.316 2.316 0 011.018-.844 3.538 3.538 0 011.478-.298zm-.149 4.37c.571 0 1.034-.153 1.39-.459.356-.307.534-.716.534-1.23 0-.513-.182-.918-.546-1.216-.356-.307-.836-.46-1.441-.46-.389 0-.736.075-1.043.224a1.818 1.818 0 00-.707.608 1.545 1.545 0 00-.249.857c0 .306.079.587.236.844.166.248.402.451.708.608.315.149.687.224 1.118.224zm5.707-3.116c-.605 0-1.093-.22-1.465-.659-.373-.438-.559-1.009-.559-1.713 0-.703.186-1.275.559-1.713.372-.439.86-.658 1.465-.658.604 0 1.088.219 1.452.658.373.43.559 1.001.559 1.713 0 .712-.186 1.287-.559 1.726-.364.43-.848.646-1.452.646zm5.239-4.669h.956l-5.935 8.691h-.956l5.935-8.691zm-5.239 3.961c.38 0 .678-.145.894-.435.215-.298.322-.707.322-1.229 0-.521-.107-.927-.322-1.217a1.043 1.043 0 00-.894-.447 1.06 1.06 0 00-.894.447c-.216.298-.323.704-.323 1.217 0 .513.107.919.323 1.217.223.298.521.447.894.447zm5.5 4.805c-.604 0-1.093-.215-1.465-.646-.364-.439-.546-1.014-.546-1.726 0-.711.182-1.283.546-1.713.372-.439.861-.658 1.465-.658.604 0 1.093.219 1.465.658.372.439.559 1.01.559 1.713 0 .704-.187 1.275-.559 1.714-.372.438-.861.658-1.465.658zm0-.708c.372 0 .666-.149.881-.447.224-.298.336-.703.336-1.217 0-.513-.112-.918-.336-1.216a1.03 1.03 0 00-.881-.447c-.381 0-.679.149-.894.447-.215.289-.323.695-.323 1.216 0 .522.108.932.323 1.23.215.289.513.434.894.434z" fill="#199F27"/><path d="M112.903 339.826h-1.539v1.974h-1.565v-1.974h-4.767v-1.118l4.283-5.599h1.726l-4.035 5.351h2.843v-1.751h1.515v1.751h1.539v1.366zm4.258-3.129c.803.099 1.416.372 1.838.819.422.447.633 1.006.633 1.676 0 .505-.128.965-.385 1.379-.256.413-.645.745-1.167.993-.513.24-1.142.36-1.887.36a6.22 6.22 0 01-1.8-.261 4.68 4.68 0 01-1.466-.745l.696-1.254a3.6 3.6 0 001.142.633c.455.149.923.224 1.403.224.571 0 1.018-.116 1.341-.348.331-.24.497-.563.497-.968 0-.406-.158-.72-.472-.944-.307-.232-.778-.347-1.416-.347h-.794v-1.105l1.974-2.347h-3.948v-1.353h5.922v1.08l-2.111 2.508zm9.961-3.588v1.08l-3.377 7.611h-1.726l3.266-7.326h-3.415v1.478h-1.502v-2.843h6.754zm4.704 3.327c.571 0 1.085.112 1.54.335.455.216.811.526 1.068.932.256.405.384.873.384 1.403 0 .562-.14 1.059-.422 1.489-.281.423-.662.75-1.142.981a3.661 3.661 0 01-1.614.348c-1.192 0-2.119-.373-2.781-1.117-.654-.745-.981-1.813-.981-3.204 0-.977.178-1.808.534-2.495.356-.696.852-1.221 1.49-1.577.645-.364 1.39-.547 2.235-.547.447 0 .865.05 1.254.149.397.091.74.228 1.03.41l-.596 1.217c-.43-.281-.981-.422-1.651-.422-.836 0-1.49.256-1.962.77-.472.513-.708 1.254-.708 2.222v.012c.257-.298.584-.521.981-.67a3.628 3.628 0 011.341-.236zm-.273 4.222c.505 0 .915-.133 1.229-.398.315-.273.472-.633.472-1.08 0-.455-.157-.815-.472-1.08-.314-.265-.736-.397-1.266-.397-.522 0-.948.14-1.279.422a1.353 1.353 0 00-.484 1.067c0 .423.157.774.472 1.056.322.273.765.41 1.328.41zm5.199 1.229a.999.999 0 01-.72-.286 1.01 1.01 0 01-.298-.745c0-.306.095-.554.285-.745a1.02 1.02 0 01.733-.285c.29 0 .53.095.72.285.199.191.298.439.298.745 0 .298-.099.546-.298.745a1.002 1.002 0 01-.72.286zm8.479-1.453v1.366h-6.407v-1.08l3.452-3.278c.389-.373.65-.696.782-.969.141-.281.211-.558.211-.832 0-.405-.136-.716-.41-.931-.273-.215-.674-.323-1.204-.323-.886 0-1.564.303-2.036.907l-1.13-.869c.339-.456.795-.807 1.366-1.056.579-.256 1.225-.385 1.937-.385.943 0 1.696.224 2.259.671.563.447.845 1.055.845 1.825 0 .472-.1.915-.298 1.329-.199.413-.58.885-1.143 1.415l-2.321 2.21h4.097zm8.497-.608h-1.539v1.974h-1.565v-1.974h-4.768v-1.118l4.284-5.599h1.726l-4.035 5.351h2.843v-1.751h1.515v1.751h1.539v1.366zm10.94-.485c0 .671-.249 1.242-.745 1.714-.489.463-1.201.745-2.136.844v1.391h-1.018v-1.378a6.982 6.982 0 01-1.738-.336c-.547-.182-.981-.414-1.304-.695l.559-1.254a4.26 4.26 0 001.117.633c.439.166.894.269 1.366.311v-2.484a9.78 9.78 0 01-1.478-.459 2.637 2.637 0 01-.98-.745c-.265-.331-.398-.766-.398-1.304 0-.67.244-1.241.733-1.713.488-.472 1.196-.753 2.123-.844v-1.403h1.018v1.378c.464.025.915.103 1.353.236a4.46 4.46 0 011.168.521l-.51 1.254a5.17 5.17 0 00-2.011-.67v2.508a9.405 9.405 0 011.478.459c.397.166.728.414.993.745.273.323.41.753.41 1.291zm-5.153-3.836a.79.79 0 00.323.658c.215.165.525.306.931.422v-2.21c-.422.066-.737.199-.944.397a.976.976 0 00-.31.733zm2.272 5.041c.439-.066.762-.195.969-.385a.906.906 0 00.322-.708.789.789 0 00-.335-.67c-.223-.174-.542-.319-.956-.435v2.198zm-52.683 170.491c.571 0 1.084.111 1.54.335a2.49 2.49 0 011.067.931c.257.406.385.873.385 1.403 0 .563-.14 1.06-.422 1.49a2.81 2.81 0 01-1.142.981 3.661 3.661 0 01-1.614.348c-1.192 0-2.119-.373-2.781-1.118-.654-.745-.981-1.813-.981-3.203 0-.977.178-1.809.534-2.496.355-.695.852-1.221 1.489-1.577.646-.364 1.391-.546 2.235-.546.447 0 .865.05 1.254.149.398.091.741.228 1.031.41l-.596 1.217c-.43-.282-.981-.423-1.651-.423-.836 0-1.49.257-1.962.77s-.708 1.254-.708 2.223v.012c.257-.298.584-.521.981-.67a3.6 3.6 0 011.341-.236zm-.273 4.221c.505 0 .914-.132 1.229-.397.315-.273.472-.633.472-1.08 0-.456-.157-.816-.472-1.081-.315-.264-.737-.397-1.266-.397-.522 0-.948.141-1.279.422a1.357 1.357 0 00-.485 1.068c0 .422.158.774.472 1.055.323.274.766.41 1.329.41zm10.604-7.549v1.08l-3.377 7.611h-1.726l3.265-7.325h-3.414v1.477h-1.502v-2.843h6.754zm4.704 3.328c.571 0 1.084.111 1.54.335a2.49 2.49 0 011.067.931c.257.406.385.873.385 1.403 0 .563-.14 1.06-.422 1.49a2.81 2.81 0 01-1.142.981 3.661 3.661 0 01-1.614.348c-1.192 0-2.119-.373-2.781-1.118-.654-.745-.981-1.813-.981-3.203 0-.977.178-1.809.534-2.496.355-.695.852-1.221 1.489-1.577.646-.364 1.391-.546 2.235-.546.447 0 .865.05 1.254.149.398.091.741.228 1.031.41l-.596 1.217c-.43-.282-.981-.423-1.651-.423-.836 0-1.49.257-1.962.77s-.708 1.254-.708 2.223v.012c.257-.298.584-.521.981-.67a3.6 3.6 0 011.341-.236zm-.273 4.221c.505 0 .914-.132 1.229-.397.315-.273.472-.633.472-1.08 0-.456-.157-.816-.472-1.081-.315-.264-.737-.397-1.266-.397-.522 0-.948.141-1.279.422a1.357 1.357 0 00-.485 1.068c0 .422.158.774.472 1.055.323.274.766.41 1.329.41zm5.199 1.229c-.282 0-.522-.095-.721-.285a1.013 1.013 0 01-.297-.745c0-.306.095-.555.285-.745.199-.191.443-.286.733-.286.289 0 .529.095.72.286.198.19.298.439.298.745 0 .298-.1.546-.298.745-.199.19-.439.285-.72.285zm8.479-1.452v1.365h-6.407v-1.08l3.452-3.278c.389-.372.649-.695.782-.968a1.85 1.85 0 00.211-.832c0-.406-.137-.716-.41-.931-.273-.215-.674-.323-1.204-.323-.886 0-1.565.302-2.036.906l-1.13-.869a3.301 3.301 0 011.365-1.055c.58-.257 1.226-.385 1.937-.385.944 0 1.697.224 2.26.67.563.447.844 1.056.844 1.826 0 .471-.099.914-.298 1.328-.198.414-.579.886-1.142 1.416l-2.322 2.21h4.098zm8.497-.609h-1.54v1.974h-1.564v-1.974h-4.768v-1.117l4.284-5.6h1.725l-4.035 5.351h2.844v-1.75h1.514v1.75h1.54v1.366zm10.939-.484c0 .67-.248 1.242-.745 1.713-.488.464-1.2.745-2.135.845v1.39h-1.018v-1.378a6.953 6.953 0 01-1.739-.335c-.546-.182-.98-.414-1.303-.695l.559-1.254c.306.248.678.459 1.117.633.439.165.894.269 1.366.31v-2.483a10.015 10.015 0 01-1.478-.459 2.659 2.659 0 01-.981-.745c-.265-.331-.397-.766-.397-1.304 0-.67.244-1.242.733-1.713.488-.472 1.196-.754 2.123-.845v-1.403h1.018v1.378c.463.025.914.104 1.353.236.447.133.836.307 1.167.522l-.509 1.254a5.171 5.171 0 00-2.011-.671v2.508a9.275 9.275 0 011.477.46c.398.165.729.414.994.745.273.323.409.753.409 1.291zm-5.152-3.837c0 .274.107.493.323.659.215.165.525.306.931.422v-2.21c-.422.066-.737.198-.944.397a.976.976 0 00-.31.732zm2.272 5.041c.439-.066.761-.194.968-.385a.907.907 0 00.323-.707.793.793 0 00-.335-.671c-.224-.174-.542-.318-.956-.434v2.197z" fill="#24252E"/><g filter="url(#filter1_d)"><rect x="103.832" y="555.168" width="116.4" height="38.8" rx="6.208" fill="#3E54D8"/><path opacity=".9" d="M142.783 575.145h-1.614v3.663h-1.589v-8.691h1.589v3.638h1.664l2.496-3.638h1.713l-2.967 4.209 3.079 4.482h-1.825l-2.546-3.663zm11.465-2.967l-3.104 7.164c-.289.72-.641 1.225-1.055 1.515-.414.297-.915.446-1.502.446-.331 0-.658-.053-.981-.161a2.18 2.18 0 01-.795-.447l.621-1.142c.149.141.323.252.521.335.207.083.414.124.621.124.273 0 .497-.07.671-.211.182-.141.347-.376.496-.708l.112-.26-2.893-6.655h1.614l2.086 4.904 2.098-4.904h1.49zm7.435 0v6.63h-1.539v-5.314h-3.266v5.314h-1.552v-6.63h6.357zm2.094 0h1.552v4.37l3.663-4.37h1.416v6.63h-1.552v-4.371l-3.651 4.371h-1.428v-6.63zm13.97 1.316h-2.321v5.314h-1.552v-5.314h-2.335v-1.316h6.208v1.316zm4.454.869c.844 0 1.49.19 1.936.571.456.381.683.919.683 1.614 0 .729-.248 1.291-.745 1.689-.496.397-1.196.592-2.098.583l-3.104-.012v-6.63h1.552v2.173l1.776.012zm-.36 3.315c.455.008.802-.087 1.042-.286.241-.198.361-.488.361-.869 0-.372-.116-.645-.348-.819-.232-.174-.584-.265-1.055-.273l-1.416-.013v2.248l1.416.012z" fill="#fff"/></g><g filter="url(#filter2_d)"><rect x="229.543" y="555.168" width="115.624" height="38.8" rx="6.208" fill="#fff"/><path opacity=".9" d="M267.946 570.117v8.691h-1.589v-7.326h-4.507v7.326h-1.59v-8.691h7.686zm5.952 1.986c.646 0 1.221.141 1.726.422a3.04 3.04 0 011.204 1.192c.29.513.435 1.105.435 1.776 0 .67-.145 1.266-.435 1.788a3.04 3.04 0 01-1.204 1.192c-.505.281-1.08.422-1.726.422-.894 0-1.602-.298-2.123-.894v3.216h-1.552v-9.039h1.477v.869c.257-.315.571-.551.944-.708a3.26 3.26 0 011.254-.236zm-.174 5.463c.571 0 1.039-.19 1.403-.571.373-.381.559-.881.559-1.502s-.186-1.122-.559-1.503c-.364-.38-.832-.571-1.403-.571a1.96 1.96 0 00-1.006.261 1.802 1.802 0 00-.707.72 2.223 2.223 0 00-.261 1.093c0 .414.087.778.261 1.092.174.315.409.559.707.733.298.165.634.248 1.006.248zm8.038 1.329c-.67 0-1.274-.145-1.812-.435a3.22 3.22 0 01-1.267-1.204 3.49 3.49 0 01-.447-1.763c0-.654.149-1.238.447-1.751a3.22 3.22 0 011.267-1.204 3.757 3.757 0 011.812-.435c.679 0 1.287.145 1.825.435.539.289.957.691 1.254 1.204.307.513.46 1.097.46 1.751a3.41 3.41 0 01-.46 1.763 3.122 3.122 0 01-1.254 1.204c-.538.29-1.146.435-1.825.435zm0-1.329c.571 0 1.043-.19 1.416-.571.372-.381.558-.881.558-1.502s-.186-1.122-.558-1.503c-.373-.38-.845-.571-1.416-.571s-1.043.191-1.415.571c-.364.381-.546.882-.546 1.503 0 .621.182 1.121.546 1.502.372.381.844.571 1.415.571zm12.076-.074v2.793h-1.452v-1.477h-5.116v1.477h-1.44v-2.793h.311c.422-.017.707-.286.856-.807.157-.53.261-1.275.311-2.235l.087-2.272h5.463v5.314h.98zm-5.115-2.93c-.033.761-.095 1.382-.186 1.862-.091.48-.257.836-.497 1.068h3.266v-3.998h-2.546l-.037 1.068zm8.972-2.459c.977 0 1.722.236 2.235.708.522.463.782 1.167.782 2.111v3.886h-1.465v-.807c-.19.29-.463.513-.819.67-.348.149-.77.224-1.267.224-.496 0-.931-.083-1.303-.249a2.11 2.11 0 01-.869-.707 1.853 1.853 0 01-.298-1.031c0-.596.219-1.072.658-1.428.447-.364 1.146-.546 2.098-.546h1.713v-.099c0-.464-.14-.82-.422-1.068-.273-.248-.683-.373-1.229-.373-.372 0-.741.058-1.105.174a2.704 2.704 0 00-.906.485l-.609-1.13a3.778 3.778 0 011.254-.609 5.611 5.611 0 011.552-.211zm-.211 5.662c.389 0 .733-.087 1.031-.261.306-.182.521-.439.645-.77v-.769h-1.601c-.894 0-1.341.293-1.341.881 0 .282.112.505.335.671.224.165.534.248.931.248zm10.401-4.271h-2.322v5.314h-1.552v-5.314h-2.334v-1.316h6.208v1.316zm4.453.869c.844 0 1.49.19 1.937.571.455.381.683.919.683 1.614 0 .729-.248 1.291-.745 1.689-.497.397-1.196.592-2.098.583l-3.104-.012v-6.63h1.552v2.173l1.775.012zm-.36 3.315c.455.008.803-.087 1.043-.286.24-.198.36-.488.36-.869 0-.372-.116-.645-.348-.819-.231-.174-.583-.265-1.055-.273l-1.415-.013v2.248l1.415.012z" fill="#373943"/><rect x="230.319" y="555.944" width="114.072" height="37.248" rx="5.432" stroke="#D3E3FF" stroke-width="1.552"/></g><path d="M91.414 165.616h266.168" stroke="#D3E3FF" stroke-width="1.552"/><path d="M112.4 117.535l-.012-5.761-2.856 4.768h-.72l-2.855-4.693v5.686h-1.528v-8.691h1.329l3.439 5.749 3.402-5.749h1.316l.025 8.691h-1.54zm6.753.087c-.67 0-1.274-.145-1.812-.434a3.223 3.223 0 01-1.267-1.205 3.488 3.488 0 01-.447-1.763c0-.654.149-1.237.447-1.75a3.223 3.223 0 011.267-1.205 3.768 3.768 0 011.812-.434c.679 0 1.288.145 1.826.434.538.29.956.691 1.254 1.205.306.513.459 1.096.459 1.75 0 .654-.153 1.242-.459 1.763a3.137 3.137 0 01-1.254 1.205c-.538.289-1.147.434-1.826.434zm0-1.328c.572 0 1.043-.191 1.416-.571.372-.381.559-.882.559-1.503 0-.62-.187-1.121-.559-1.502-.373-.381-.844-.571-1.416-.571-.571 0-1.043.19-1.415.571-.364.381-.546.882-.546 1.502 0 .621.182 1.122.546 1.503.372.38.844.571 1.415.571zm10.454-5.389v6.63h-1.391v-1.999h-1.751l-1.353 1.999h-1.664l1.565-2.21c-.48-.165-.849-.418-1.105-.757-.249-.348-.373-.774-.373-1.279 0-.761.269-1.349.807-1.763.538-.414 1.279-.621 2.223-.621h3.042zm-2.993 1.304c-1.001 0-1.502.377-1.502 1.13 0 .745.484 1.117 1.453 1.117h1.651v-2.247h-1.602zm11.268 2.669h-1.204v2.657h-1.552v-6.63h1.552v2.682h1.241l1.962-2.682h1.664l-2.409 3.191 2.57 3.439h-1.825l-1.999-2.657zm8.594-4.047c.645 0 1.221.14 1.726.422.513.281.914.679 1.204 1.192.29.513.435 1.105.435 1.775 0 .671-.145 1.267-.435 1.788-.29.513-.691.911-1.204 1.192-.505.282-1.081.422-1.726.422-.894 0-1.602-.298-2.123-.894v3.216h-1.552v-9.039h1.477v.869c.257-.314.571-.55.944-.707a3.242 3.242 0 011.254-.236zm-.174 5.463c.571 0 1.039-.191 1.403-.571.372-.381.559-.882.559-1.503 0-.62-.187-1.121-.559-1.502-.364-.381-.832-.571-1.403-.571-.373 0-.708.087-1.006.261a1.783 1.783 0 00-.707.72 2.216 2.216 0 00-.261 1.092c0 .414.087.778.261 1.093.173.314.409.559.707.732a2.03 2.03 0 001.006.249zm5.083-5.389h1.552v4.371l3.663-4.371h1.415v6.63h-1.552v-4.37l-3.65 4.37h-1.428v-6.63zm15.075 0v6.63h-1.54v-5.314h-3.265v5.314h-1.552v-6.63h6.357zm7.346 1.316h-2.322v5.314h-1.552v-5.314h-2.334v-1.316h6.208v1.316zm3.79 5.401a3.769 3.769 0 01-1.813-.434 3.22 3.22 0 01-1.266-1.205 3.488 3.488 0 01-.447-1.763c0-.654.149-1.237.447-1.75a3.22 3.22 0 011.266-1.205 3.769 3.769 0 011.813-.434c.679 0 1.287.145 1.825.434.538.29.956.691 1.254 1.205.306.513.459 1.096.459 1.75 0 .654-.153 1.242-.459 1.763a3.137 3.137 0 01-1.254 1.205c-.538.289-1.146.434-1.825.434zm0-1.328c.571 0 1.043-.191 1.415-.571.373-.381.559-.882.559-1.503 0-.62-.186-1.121-.559-1.502-.372-.381-.844-.571-1.415-.571-.571 0-1.043.19-1.416.571-.364.381-.546.882-.546 1.502 0 .621.182 1.122.546 1.503.373.38.845.571 1.416.571zm9.877-2.21c.819.248 1.229.778 1.229 1.589 0 .596-.224 1.055-.671 1.378-.447.323-1.109.484-1.986.484h-3.377v-6.63h3.24c.811 0 1.445.149 1.9.447.455.298.683.72.683 1.267 0 .339-.091.633-.273.881a1.725 1.725 0 01-.745.584zm-3.328-.41h1.627c.803 0 1.204-.277 1.204-.832 0-.538-.401-.807-1.204-.807h-1.627v1.639zm1.776 2.732c.852 0 1.278-.278 1.278-.832 0-.29-.099-.505-.298-.646-.198-.149-.509-.223-.931-.223h-1.825v1.701h1.776zm6.905-5.575c.976 0 1.721.236 2.235.707.521.464.782 1.168.782 2.111v3.886h-1.465v-.807c-.191.29-.464.514-.82.671-.347.149-.77.223-1.266.223-.497 0-.931-.082-1.304-.248a2.126 2.126 0 01-.869-.708 1.847 1.847 0 01-.298-1.03c0-.596.219-1.072.658-1.428.447-.364 1.146-.546 2.098-.546h1.714v-.1c0-.463-.141-.819-.422-1.067-.274-.249-.683-.373-1.23-.373-.372 0-.74.058-1.105.174a2.702 2.702 0 00-.906.484l-.608-1.13a3.758 3.758 0 011.254-.608 5.564 5.564 0 011.552-.211zm-.211 5.661c.389 0 .732-.086 1.03-.26.306-.182.522-.439.646-.77v-.77h-1.602c-.894 0-1.341.294-1.341.882 0 .281.112.505.335.67.224.166.534.248.932.248zm11.158-5.587v6.63h-1.552v-5.314h-2.484l-.062 1.316c-.041.878-.124 1.615-.248 2.21-.116.588-.319 1.056-.608 1.404-.282.339-.671.509-1.167.509-.232 0-.518-.046-.857-.137l.074-1.304c.116.025.216.038.298.038.315 0 .551-.125.708-.373.157-.257.257-.559.298-.906.05-.356.091-.861.124-1.515l.112-2.558h5.364zm8.149-.074c.662 0 1.254.145 1.775.434a3.07 3.07 0 011.229 1.205c.298.513.447 1.096.447 1.75 0 .654-.149 1.242-.447 1.763a3.177 3.177 0 01-1.229 1.205c-.521.289-1.113.434-1.775.434-.58 0-1.109-.111-1.589-.335a3.244 3.244 0 01-1.192-.968 3.296 3.296 0 01-.609-1.441h-1.117v2.657h-1.552v-6.63h1.552v2.57h1.142c.099-.521.306-.98.621-1.378a3.1 3.1 0 011.179-.931 3.619 3.619 0 011.565-.335zm0 5.475c.364 0 .691-.083.981-.248.289-.174.517-.418.683-.733.165-.322.248-.691.248-1.105 0-.629-.182-1.13-.546-1.502-.356-.381-.812-.571-1.366-.571-.555 0-1.01.19-1.366.571-.356.372-.534.873-.534 1.502s.178 1.134.534 1.515c.364.381.819.571 1.366.571zm9.984-4.085h-2.322v5.314h-1.552v-5.314h-2.334v-1.316h6.208v1.316zm3.597-1.39c.976 0 1.721.236 2.234.707.522.464.783 1.168.783 2.111v3.886h-1.465v-.807c-.191.29-.464.514-.82.671-.348.149-.77.223-1.266.223-.497 0-.932-.082-1.304-.248a2.12 2.12 0 01-.869-.708 1.847 1.847 0 01-.298-1.03c0-.596.219-1.072.658-1.428.447-.364 1.146-.546 2.098-.546h1.714v-.1c0-.463-.141-.819-.423-1.067-.273-.249-.682-.373-1.229-.373-.372 0-.741.058-1.105.174a2.702 2.702 0 00-.906.484l-.608-1.13a3.758 3.758 0 011.254-.608 5.564 5.564 0 011.552-.211zm-.212 5.661c.39 0 .733-.086 1.031-.26a1.48 1.48 0 00.646-.77v-.77h-1.602c-.894 0-1.341.294-1.341.882 0 .281.112.505.335.67.224.166.534.248.931.248z" fill="#3E54D8"/><path d="M260.026 113.686h-2.26v2.223h-1.043v-2.223h-2.259v-.98h2.259v-2.235h1.043v2.235h2.26v.98zm13.578 3.849l-.012-6.332-3.142 5.277h-.571l-3.141-5.24v6.295h-1.192v-8.691h1.018l3.626 6.109 3.575-6.109h1.019l.012 8.691h-1.192zm6.517.075a3.566 3.566 0 01-1.763-.435 3.207 3.207 0 01-1.229-1.192c-.29-.513-.435-1.092-.435-1.738 0-.645.145-1.221.435-1.726.298-.513.708-.91 1.229-1.192a3.576 3.576 0 011.763-.434c.654 0 1.238.145 1.751.434.521.282.927.679 1.217 1.192.298.505.447 1.081.447 1.726 0 .646-.149 1.225-.447 1.738a3.12 3.12 0 01-1.217 1.192c-.513.29-1.097.435-1.751.435zm0-1.043a2.22 2.22 0 001.13-.286 2.1 2.1 0 00.795-.819c.19-.356.285-.762.285-1.217 0-.455-.095-.857-.285-1.204a2.008 2.008 0 00-.795-.82 2.23 2.23 0 00-1.13-.285c-.422 0-.803.095-1.142.285a2.113 2.113 0 00-.795.82c-.19.347-.285.749-.285 1.204 0 .455.095.861.285 1.217.199.348.464.621.795.819.339.191.72.286 1.142.286zm5.136-5.612h1.192v2.794h3.749v-2.794h1.192v6.58h-1.192v-2.756h-3.749v2.756h-1.192v-6.58zm14.398 3.327c0 .091-.008.211-.025.36h-5.339c.075.58.327 1.048.758 1.403.438.348.981.522 1.626.522.787 0 1.42-.265 1.9-.795l.658.77a2.871 2.871 0 01-1.118.795 3.819 3.819 0 01-1.477.273c-.695 0-1.312-.141-1.85-.422a3.137 3.137 0 01-1.254-1.205c-.29-.513-.435-1.092-.435-1.738 0-.637.141-1.212.423-1.726.289-.513.682-.91 1.179-1.192a3.363 3.363 0 011.701-.434c.629 0 1.188.145 1.676.434.497.282.882.679 1.155 1.192.281.514.422 1.101.422 1.763zm-3.253-2.383c-.571 0-1.051.173-1.44.521-.381.348-.604.803-.671 1.366h4.222c-.066-.555-.294-1.006-.683-1.354-.381-.356-.857-.533-1.428-.533zm9.728.099h-2.409v5.537h-1.192v-5.537h-2.409v-1.043h6.01v1.043zm7.128-1.043l-3.191 7.238c-.282.671-.613 1.143-.994 1.416-.372.273-.823.41-1.353.41-.323 0-.637-.054-.944-.162a1.865 1.865 0 01-.745-.447l.51-.894c.339.323.732.484 1.179.484.29 0 .53-.078.72-.235.199-.149.377-.41.534-.783l.211-.459-2.905-6.568h1.241l2.297 5.264 2.272-5.264h1.168zm-119.695 28.929v8.691h-1.242v-3.874h-4.991v3.874h-1.241v-8.691h1.241v3.737h4.991v-3.737h1.242zm5.33 8.766a3.566 3.566 0 01-1.763-.435 3.214 3.214 0 01-1.229-1.192c-.29-.513-.434-1.092-.434-1.738 0-.646.144-1.221.434-1.726.298-.513.708-.91 1.229-1.192.522-.29 1.109-.434 1.763-.434.654 0 1.238.144 1.751.434.521.282.927.679 1.217 1.192.298.505.447 1.08.447 1.726 0 .646-.149 1.225-.447 1.738-.29.505-.696.902-1.217 1.192-.513.29-1.097.435-1.751.435zm0-1.043a2.22 2.22 0 001.13-.286 2.1 2.1 0 00.795-.819c.19-.356.285-.762.285-1.217 0-.455-.095-.857-.285-1.204a2.002 2.002 0 00-.795-.82 2.23 2.23 0 00-1.13-.285c-.422 0-.803.095-1.142.285a2.113 2.113 0 00-.795.82c-.19.347-.285.749-.285 1.204 0 .455.095.861.285 1.217.199.347.464.621.795.819.339.191.72.286 1.142.286zm9.618-2.446c.853.215 1.279.749 1.279 1.601 0 .58-.219 1.027-.658 1.341-.431.315-1.076.472-1.937.472h-3.166v-6.58h3.054c.778 0 1.387.149 1.825.447.439.289.658.703.658 1.241 0 .348-.095.65-.285.907a1.723 1.723 0 01-.77.571zm-3.315-.335h1.788c.455 0 .799-.083 1.03-.249.24-.165.361-.405.361-.72 0-.629-.464-.944-1.391-.944h-1.788v1.913zm1.912 2.83c.497 0 .869-.078 1.118-.235.248-.158.372-.402.372-.733 0-.339-.116-.592-.348-.757-.223-.166-.579-.249-1.067-.249h-1.987v1.974h1.912zm7.366.994c-.654 0-1.242-.145-1.763-.435a3.207 3.207 0 01-1.229-1.192c-.29-.513-.435-1.092-.435-1.738 0-.646.145-1.221.435-1.726.298-.513.707-.91 1.229-1.192.521-.29 1.109-.434 1.763-.434.654 0 1.237.144 1.751.434.521.282.927.679 1.216 1.192.298.505.447 1.08.447 1.726 0 .646-.149 1.225-.447 1.738a3.118 3.118 0 01-1.216 1.192c-.514.29-1.097.435-1.751.435zm0-1.043a2.22 2.22 0 001.13-.286c.339-.198.604-.472.794-.819.191-.356.286-.762.286-1.217 0-.455-.095-.857-.286-1.204a2 2 0 00-.794-.82 2.23 2.23 0 00-1.13-.285c-.422 0-.803.095-1.142.285a2.113 2.113 0 00-.795.82c-.19.347-.285.749-.285 1.204 0 .455.095.861.285 1.217.199.347.464.621.795.819.339.191.72.286 1.142.286zm8.004 1.043c-.671 0-1.271-.145-1.801-.435a3.214 3.214 0 01-1.229-1.192 3.395 3.395 0 01-.447-1.738c0-.646.149-1.221.447-1.726.298-.513.708-.91 1.229-1.192.53-.29 1.13-.434 1.801-.434.596 0 1.125.12 1.589.36.472.24.836.587 1.092 1.043l-.906.583a2.031 2.031 0 00-.77-.708 2.196 2.196 0 00-1.018-.235c-.43 0-.819.095-1.167.285a2.087 2.087 0 00-.807.82c-.19.347-.285.749-.285 1.204 0 .463.095.873.285 1.229a2.1 2.1 0 00.807.807c.348.191.737.286 1.167.286.373 0 .712-.079 1.018-.236.307-.157.563-.393.77-.708l.906.571c-.256.456-.62.807-1.092 1.056-.464.24-.993.36-1.589.36zm9.044-5.612h-2.409v5.537h-1.192v-5.537h-2.408v-1.043h6.009v1.043zm1.219-1.043h1.192v4.792l4.035-4.792h1.08v6.58h-1.192v-4.792l-4.022 4.792h-1.093v-6.58z" fill="#24252E"/><path d="M105.228 139.884h1.229v6.705l5.14-6.705h1.142v8.691h-1.216v-6.692l-5.153 6.692h-1.142v-8.691zm12.891 8.766c-.671 0-1.271-.145-1.801-.435a3.214 3.214 0 01-1.229-1.192 3.395 3.395 0 01-.447-1.738c0-.646.149-1.221.447-1.726.298-.513.708-.91 1.229-1.192.53-.29 1.13-.434 1.801-.434.596 0 1.125.12 1.589.36.472.24.836.587 1.092 1.043l-.906.583a2.031 2.031 0 00-.77-.708 2.196 2.196 0 00-1.018-.235c-.43 0-.819.095-1.167.285a2.087 2.087 0 00-.807.82c-.19.347-.285.749-.285 1.204 0 .463.095.873.285 1.229a2.1 2.1 0 00.807.807c.348.191.737.286 1.167.286.373 0 .712-.079 1.018-.236.307-.157.563-.393.77-.708l.906.571c-.256.456-.62.807-1.092 1.056-.464.24-.993.36-1.589.36zm9.044-5.612h-2.409v5.537h-1.192v-5.537h-2.408v-1.043h6.009v1.043zm3.746 5.612a3.566 3.566 0 01-1.763-.435 3.214 3.214 0 01-1.229-1.192c-.29-.513-.434-1.092-.434-1.738 0-.646.144-1.221.434-1.726.298-.513.708-.91 1.229-1.192.522-.29 1.109-.434 1.763-.434.654 0 1.238.144 1.751.434.521.282.927.679 1.217 1.192.298.505.447 1.08.447 1.726 0 .646-.149 1.225-.447 1.738-.29.505-.696.902-1.217 1.192-.513.29-1.097.435-1.751.435zm0-1.043a2.22 2.22 0 001.13-.286 2.1 2.1 0 00.795-.819c.19-.356.285-.762.285-1.217 0-.455-.095-.857-.285-1.204a2.002 2.002 0 00-.795-.82 2.23 2.23 0 00-1.13-.285c-.422 0-.803.095-1.142.285a2.113 2.113 0 00-.795.82c-.19.347-.285.749-.285 1.204 0 .455.095.861.285 1.217.199.347.464.621.795.819.339.191.72.286 1.142.286zm8.625-5.674c.637 0 1.208.14 1.713.422.505.281.898.674 1.18 1.179.289.505.434 1.089.434 1.751 0 .662-.145 1.25-.434 1.763a3.003 3.003 0 01-1.18 1.18c-.505.281-1.076.422-1.713.422-.472 0-.907-.091-1.304-.273a2.717 2.717 0 01-.993-.795v3.402h-1.192v-8.989h1.142v1.043c.265-.365.6-.638 1.006-.82.405-.19.852-.285 1.341-.285zm-.1 5.674c.423 0 .799-.095 1.13-.286.34-.198.605-.472.795-.819.199-.356.298-.762.298-1.217 0-.455-.099-.857-.298-1.204a1.995 1.995 0 00-.795-.82 2.227 2.227 0 00-1.13-.285c-.413 0-.79.099-1.129.298-.331.19-.596.459-.795.807-.19.347-.286.749-.286 1.204 0 .455.096.861.286 1.217.19.347.455.621.795.819.339.191.716.286 1.129.286zm5.159-5.612h1.192v4.792l4.035-4.792h1.08v6.58h-1.192v-4.792l-4.022 4.792h-1.093v-6.58zm13.898 0v6.58h-1.068v-2.086h-2.049l-1.44 2.086h-1.279l1.602-2.247c-.497-.149-.878-.393-1.142-.733-.265-.347-.398-.778-.398-1.291 0-.753.257-1.324.77-1.713.513-.398 1.221-.596 2.123-.596h2.881zm-4.557 2.346c0 .439.137.766.41.981.281.207.699.311 1.254.311h1.825v-2.595h-1.776c-1.142 0-1.713.434-1.713 1.303z" fill="#373943"/><path d="M104.609 127.205h126.488" stroke="#3E54D8" stroke-width="2.328" stroke-linecap="round"/><circle cx="137.975" cy="219.936" r="12.416" fill="#F7931A"/><path d="M143.449 218.167c.247-1.652-1.011-2.54-2.731-3.132l.558-2.238-1.362-.34-.544 2.179c-.358-.089-.725-.173-1.091-.257l.547-2.193-1.361-.339-.559 2.237c-.296-.068-.587-.134-.87-.205l.002-.007-1.879-.469-.362 1.455s1.011.232.989.246c.552.138.652.503.635.793l-.636 2.549c.039.01.088.024.142.045l-.144-.035-.891 3.571c-.067.168-.238.419-.624.324.014.02-.99-.247-.99-.247l-.676 1.559 1.772.442c.33.083.653.169.971.251l-.563 2.263 1.36.34.559-2.24c.371.101.732.194 1.085.282l-.556 2.229 1.362.339.564-2.259c2.323.44 4.07.262 4.805-1.839.593-1.691-.029-2.667-1.252-3.303.89-.206 1.561-.791 1.74-2.001zm-3.113 4.365c-.421 1.692-3.269.777-4.193.548l.749-2.999c.923.231 3.884.687 3.444 2.451zm.422-4.389c-.385 1.539-2.755.757-3.524.565l.678-2.72c.769.192 3.246.55 2.846 2.155z" fill="#fff"/><path d="M166.855 220.117c.505.141.902.397 1.192.77.289.364.434.828.434 1.39 0 .754-.285 1.333-.856 1.739-.563.405-1.387.608-2.471.608h-4.147v-8.691h3.898c.994 0 1.759.198 2.297.596.547.397.82.948.82 1.651 0 .455-.108.849-.323 1.18a2.02 2.02 0 01-.844.757zm-4.607-3.178v2.781h2.546c.637 0 1.125-.116 1.465-.348.347-.24.521-.588.521-1.043 0-.455-.174-.799-.521-1.03-.34-.24-.828-.36-1.465-.36h-2.546zm2.856 6.679c.704 0 1.233-.116 1.589-.347.356-.232.534-.596.534-1.093 0-.968-.707-1.453-2.123-1.453h-2.856v2.893h2.856zm5.126-5.574h1.192v6.58h-1.192v-6.58zm.596-1.267a.817.817 0 01-.584-.223.743.743 0 01-.223-.547c0-.215.074-.397.223-.546a.796.796 0 01.584-.236c.232 0 .422.075.571.224.157.14.236.318.236.533a.781.781 0 01-.807.795zm6.572 7.462a1.856 1.856 0 01-.646.348 2.86 2.86 0 01-.795.112c-.662 0-1.175-.178-1.539-.534-.364-.356-.547-.865-.547-1.528v-3.613h-1.117v-.98h1.117v-1.441h1.192v1.441h1.888v.98h-1.888v3.564c0 .356.087.629.261.819.182.191.439.286.77.286.364 0 .674-.104.931-.311l.373.857zm4.09.46c-.67 0-1.27-.145-1.8-.435a3.214 3.214 0 01-1.229-1.192 3.398 3.398 0 01-.447-1.738c0-.646.149-1.221.447-1.726a3.097 3.097 0 011.229-1.192c.53-.29 1.13-.435 1.8-.435.596 0 1.126.12 1.59.361.472.24.836.587 1.092 1.042l-.906.584a2.03 2.03 0 00-.77-.708 2.196 2.196 0 00-1.018-.236c-.43 0-.819.096-1.167.286-.339.19-.608.464-.807.819-.19.348-.286.75-.286 1.205 0 .463.096.873.286 1.229a2.1 2.1 0 00.807.807c.348.19.737.286 1.167.286.373 0 .712-.079 1.018-.236.306-.158.563-.394.77-.708l.906.571c-.256.455-.62.807-1.092 1.055-.464.24-.994.361-1.59.361zm6.947 0c-.654 0-1.242-.145-1.763-.435a3.207 3.207 0 01-1.229-1.192 3.471 3.471 0 01-.435-1.738c0-.646.145-1.221.435-1.726a3.09 3.09 0 011.229-1.192c.521-.29 1.109-.435 1.763-.435.654 0 1.237.145 1.751.435.521.281.927.679 1.216 1.192.298.505.447 1.08.447 1.726 0 .645-.149 1.225-.447 1.738a3.118 3.118 0 01-1.216 1.192c-.514.29-1.097.435-1.751.435zm0-1.043a2.23 2.23 0 001.13-.286c.339-.199.604-.472.794-.819.191-.356.286-.762.286-1.217 0-.455-.095-.857-.286-1.205a1.997 1.997 0 00-.794-.819 2.23 2.23 0 00-1.13-.286c-.422 0-.803.096-1.142.286a2.11 2.11 0 00-.795.819c-.19.348-.286.75-.286 1.205 0 .455.096.861.286 1.217.199.347.464.62.795.819.339.19.72.286 1.142.286zm5.063-5.612h1.192v6.58h-1.192v-6.58zm.596-1.267a.816.816 0 01-.584-.223.743.743 0 01-.223-.547c0-.215.074-.397.223-.546a.794.794 0 01.584-.236c.231 0 .422.075.571.224.157.14.236.318.236.533a.781.781 0 01-.807.795zm6.385 1.204c.836 0 1.498.245 1.987.733.496.48.745 1.188.745 2.123v3.787h-1.192v-3.65c0-.638-.153-1.118-.46-1.441-.306-.322-.745-.484-1.316-.484-.645 0-1.154.191-1.527.571-.372.373-.559.911-.559 1.614v3.39h-1.192v-6.58h1.143v.993c.24-.34.563-.6.968-.782a3.453 3.453 0 011.403-.274z" fill="#373943"/><path d="M214.773 220.117c.505.141.902.397 1.192.77.289.364.434.828.434 1.39 0 .754-.285 1.333-.856 1.739-.563.405-1.387.608-2.471.608h-4.147v-8.691h3.898c.994 0 1.759.198 2.297.596.547.397.82.948.82 1.651 0 .455-.108.849-.323 1.18a2.02 2.02 0 01-.844.757zm-4.607-3.178v2.781h2.546c.637 0 1.125-.116 1.465-.348.347-.24.521-.588.521-1.043 0-.455-.174-.799-.521-1.03-.34-.24-.828-.36-1.465-.36h-2.546zm2.856 6.679c.704 0 1.233-.116 1.589-.347.356-.232.534-.596.534-1.093 0-.968-.707-1.453-2.123-1.453h-2.856v2.893h2.856zm6.904-6.605h-2.98v-1.08h7.189v1.08h-2.98v7.611h-1.229v-7.611zm9.327 7.71c-.87 0-1.656-.19-2.36-.571a4.32 4.32 0 01-1.638-1.589c-.398-.679-.596-1.44-.596-2.285 0-.844.198-1.601.596-2.272a4.18 4.18 0 011.651-1.589c.703-.389 1.49-.584 2.359-.584a4.84 4.84 0 011.862.348 3.765 3.765 0 011.441 1.006l-.807.782c-.654-.687-1.47-1.03-2.446-1.03-.646 0-1.23.144-1.751.434-.522.29-.931.691-1.229 1.204a3.354 3.354 0 00-.435 1.701c0 .63.145 1.201.435 1.714.298.505.707.902 1.229 1.192a3.55 3.55 0 001.751.434c.968 0 1.783-.347 2.446-1.043l.807.783a3.862 3.862 0 01-1.453 1.018 4.862 4.862 0 01-1.862.347z" fill="#929398"/><circle cx="137.975" cy="395.312" r="12.416" fill="#111A44"/><path d="M137.953 387.164l-3.813 5.247-1.597 7.757 5.41 3.292 5.411-3.292-1.63-7.789-3.781-5.215zm-4.53 12.646l1.206-5.899 2.738 8.311-3.944-2.412zm1.597-7.236l2.933-4.041 2.934 4.041-2.934 8.865-2.933-8.865zm3.487 9.648l2.738-8.311 1.206 5.899-3.944 2.412zm28.882-3.575V400h-6.519v-8.691h6.345v1.353h-4.731v2.26h4.197v1.328h-4.197v2.397h4.905zm5.514.993a1.812 1.812 0 01-.67.335c-.257.075-.53.112-.82.112-.728 0-1.291-.19-1.688-.571-.398-.381-.596-.936-.596-1.664v-3.191h-1.093v-1.241h1.093v-1.515h1.552v1.515h1.775v1.241h-1.775v3.154c0 .323.078.571.236.745.157.165.385.248.683.248.347 0 .637-.091.869-.273l.434 1.105zm5.039-6.345c.836 0 1.507.245 2.011.733.505.488.758 1.213.758 2.173V400h-1.552v-3.601c0-.579-.137-1.014-.41-1.303-.273-.298-.662-.447-1.167-.447-.571 0-1.022.174-1.353.521-.331.34-.497.832-.497 1.478V400h-1.552v-9.213h1.552v3.353c.257-.274.571-.48.944-.621.38-.149.803-.224 1.266-.224zm11.031 3.427c0 .108-.008.261-.025.46h-5.202c.091.488.327.877.708 1.167.389.281.869.422 1.44.422.728 0 1.328-.24 1.8-.72l.832.956a2.803 2.803 0 01-1.13.807 4.114 4.114 0 01-1.539.273c-.729 0-1.37-.145-1.925-.435a3.182 3.182 0 01-1.291-1.204 3.488 3.488 0 01-.447-1.763c0-.646.145-1.225.434-1.738a3.155 3.155 0 011.23-1.217c.521-.29 1.109-.435 1.763-.435.645 0 1.221.145 1.726.435.513.281.91.683 1.192 1.204.289.513.434 1.109.434 1.788zm-3.352-2.185c-.497 0-.919.149-1.267.447-.339.29-.546.679-.62 1.167h3.762c-.067-.48-.269-.869-.609-1.167-.339-.298-.761-.447-1.266-.447zm6.32-.199c.447-.695 1.234-1.043 2.359-1.043v1.478a1.946 1.946 0 00-.36-.037c-.604 0-1.076.178-1.415.534-.339.347-.509.852-.509 1.514V400h-1.552v-6.63h1.477v.968zm9.848 2.384c0 .108-.008.261-.025.46h-5.202c.091.488.327.877.708 1.167.389.281.869.422 1.44.422.728 0 1.329-.24 1.8-.72l.832.956a2.797 2.797 0 01-1.13.807 4.114 4.114 0 01-1.539.273c-.729 0-1.37-.145-1.925-.435a3.182 3.182 0 01-1.291-1.204 3.488 3.488 0 01-.447-1.763c0-.646.145-1.225.435-1.738a3.153 3.153 0 011.229-1.217c.521-.29 1.109-.435 1.763-.435.646 0 1.221.145 1.726.435.513.281.91.683 1.192 1.204.289.513.434 1.109.434 1.788zm-3.352-2.185c-.497 0-.919.149-1.267.447-.339.29-.546.679-.62 1.167h3.762c-.067-.48-.269-.869-.609-1.167-.339-.298-.761-.447-1.266-.447zm11.262-1.167V400h-1.477v-.844a2.537 2.537 0 01-.932.695 3.067 3.067 0 01-1.204.236c-.886 0-1.585-.244-2.098-.733-.505-.496-.758-1.229-.758-2.197v-3.787h1.552v3.576c0 .596.133 1.043.398 1.341.273.289.658.434 1.154.434.555 0 .994-.17 1.316-.509.332-.348.497-.844.497-1.49v-3.352h1.552zm10.4-.075c.837 0 1.499.245 1.987.733.488.48.733 1.204.733 2.173V400h-1.552v-3.601c0-.579-.129-1.014-.385-1.303-.257-.298-.625-.447-1.105-.447-.522 0-.94.174-1.254.521-.315.34-.472.828-.472 1.465V400h-1.552v-3.601c0-.579-.128-1.014-.385-1.303-.257-.298-.625-.447-1.105-.447-.53 0-.952.169-1.266.509-.307.339-.46.832-.46 1.477V400h-1.552v-6.63h1.478v.844c.248-.298.558-.525.931-.683a3.163 3.163 0 011.241-.236c.497 0 .936.096 1.317.286.389.182.695.455.918.819a2.718 2.718 0 011.056-.807c.43-.198.906-.298 1.427-.298z" fill="#fff"/><path d="M234.729 398.92V400h-6.307v-8.691h6.133v1.08h-4.892v2.669h4.358v1.056h-4.358v2.806h5.066zm3.736-6.531h-2.979v-1.08h7.188v1.08h-2.979V400h-1.23v-7.611zm13.036-1.08V400h-1.241v-3.874h-4.992V400h-1.241v-8.691h1.241v3.737h4.992v-3.737h1.241z" fill="#fff" fill-opacity=".8"/><path d="M110.488 393.186a.531.531 0 00-.194-.148.62.62 0 00-.505 0 .523.523 0 00-.194.148l-4.889 6.052a.412.412 0 00-.035.481.5.5 0 00.2.183.626.626 0 00.281.067h9.779a.619.619 0 00.28-.068.49.49 0 00.199-.183.41.41 0 00-.033-.48l-4.889-6.052zM91 78c0-12.728 0-19.092 3.954-23.046C98.908 51 105.272 51 118 51h220c9.428 0 14.142 0 17.071 2.929C358 56.858 358 61.572 358 71v7H91z" fill="#fff"/><rect x="206" y="62" width="25" height="5" rx="2.5" fill="#EAF1FE"/><rect x="239" y="62" width="5" height="5" rx="2.5" fill="#EAF1FE"/><defs><filter id="filter0_d" x="6" y="14" width="437" height="736" filterUnits="userSpaceOnUse" color-interpolation-filters="sRGB"><feFlood flood-opacity="0" result="BackgroundImageFix"/><feColorMatrix in="SourceAlpha" values="0 0 0 0 0 0 0 0 0 0 0 0 0 0 0 0 0 0 127 0"/><feMorphology radius="12" in="SourceAlpha" result="effect1_dropShadow"/><feOffset dy="44"/><feGaussianBlur stdDeviation="44.5"/><feColorMatrix values="0 0 0 0 0.243137 0 0 0 0 0.329412 0 0 0 0 0.847059 0 0 0 0.23 0"/><feBlend in2="BackgroundImageFix" result="effect1_dropShadow"/><feBlend in="SourceGraphic" in2="effect1_dropShadow" result="shape"/></filter><filter id="filter1_d" x="96.848" y="555.168" width="130.368" height="59.752" filterUnits="userSpaceOnUse" color-interpolation-filters="sRGB"><feFlood flood-opacity="0" result="BackgroundImageFix"/><feColorMatrix in="SourceAlpha" values="0 0 0 0 0 0 0 0 0 0 0 0 0 0 0 0 0 0 127 0"/><feMorphology radius="10.088" in="SourceAlpha" result="effect1_dropShadow"/><feOffset dy="13.968"/><feGaussianBlur stdDeviation="8.536"/><feColorMatrix values="0 0 0 0 0.243137 0 0 0 0 0.329412 0 0 0 0 0.847059 0 0 0 0.51 0"/><feBlend in2="BackgroundImageFix" result="effect1_dropShadow"/><feBlend in="SourceGraphic" in2="effect1_dropShadow" result="shape"/></filter><filter id="filter2_d" x="227.215" y="555.168" width="120.28" height="55.096" filterUnits="userSpaceOnUse" color-interpolation-filters="sRGB"><feFlood flood-opacity="0" result="BackgroundImageFix"/><feColorMatrix in="SourceAlpha" values="0 0 0 0 0 0 0 0 0 0 0 0 0 0 0 0 0 0 127 0"/><feMorphology radius="10.088" in="SourceAlpha" result="effect1_dropShadow"/><feOffset dy="13.968"/><feGaussianBlur stdDeviation="6.208"/><feColorMatrix values="0 0 0 0 0.243137 0 0 0 0 0.329412 0 0 0 0 0.847059 0 0 0 0.1 0"/><feBlend in2="BackgroundImageFix" result="effect1_dropShadow"/><feBlend in="SourceGraphic" in2="effect1_dropShadow" result="shape"/></filter></defs></svg>