<svg width="120" height="120" fill="none" xmlns="http://www.w3.org/2000/svg"><path d="M47.931 76.184a.964.964 0 00-.876-.526h-6.31C34.258 75.658 29 80.916 29 87.402v5.784c0 .526.35.877.876.877H53.54c.701 0 1.052-.701.877-1.227L47.93 76.184zm30.325-.526h-6.31a.964.964 0 00-.877.526l-6.486 16.652c-.175.526.176 1.227.877 1.227h23.664c.525 0 .876-.35.876-.877v-5.784c0-6.486-5.259-11.744-11.744-11.744zm-18.756.526c-1.402 0-2.63 1.227-2.63 2.63v12.27c0 1.402 1.228 2.629 2.63 2.629s2.63-1.227 2.63-2.63v-12.27c0-1.577-1.228-2.63-2.63-2.63zm17.353-34.882c-1.051-2.63 1.228-7.538-.7-9.466-1.929-1.928-6.837.35-9.466-.7C64.233 30.082 62.305 25 59.5 25c-2.805 0-4.733 5.083-7.187 6.135-2.63 1.052-7.537-1.227-9.465.701s.35 6.836-.701 9.466c-1.052 2.454-6.136 4.382-6.136 7.187 0 2.804 5.084 4.732 6.136 7.186 1.051 2.63-1.227 7.538.7 9.466 1.929 1.928 6.837-.35 9.466.701 2.454 1.052 4.382 6.135 7.187 6.135 2.805 0 4.733-5.083 7.187-6.135 2.63-1.052 7.537 1.227 9.465-.701s-.35-6.836.701-9.466c1.052-2.454 6.136-4.382 6.136-7.186 0-2.805-5.084-4.733-6.136-7.187zM56.871 37.62c0-1.403 1.227-2.63 2.629-2.63s2.63 1.227 2.63 2.63v11.218c0 1.402-1.228 2.63-2.63 2.63s-2.63-1.228-2.63-2.63V37.621zM59.5 62.16a3.516 3.516 0 01-3.506-3.506A3.516 3.516 0 0159.5 55.15a3.516 3.516 0 013.506 3.506 3.516 3.516 0 01-3.506 3.506z" fill="#F3B63F"/><circle opacity=".07" cx="60" cy="60" r="60" fill="#F3B63F"/></svg>