<svg width="120" height="120" fill="none" xmlns="http://www.w3.org/2000/svg"><circle opacity=".07" cx="60" cy="60" r="60" fill="#ED6373"/><path d="M85.667 66.125c-1.313-1.604-3.5-1.896-5.104-.583l-10.355 8.02a2.802 2.802 0 01-1.75.584h-7.437c-1.02 0-1.896-.875-1.896-1.75S60 70.5 60.875 70.5h6.271a3.61 3.61 0 003.646-3.646 3.61 3.61 0 00-3.646-3.645H51.98c-1.896 0-3.792.729-5.396 1.895l-5.105 3.938c-.291.291-.437.729-.145 1.02l9.77 12.397c.146.145.292.291.584.291l11.958.146H67c2.042 0 3.938-.583 5.542-1.896l12.541-9.916c1.605-1.167 1.75-3.355.584-4.959zm-47.104 6.271c-.292-.292-.73-.438-1.021-.146L35.208 74c-.291.292-.437.73-.145 1.021l9.624 12.104c.292.292.73.438 1.021.146l2.334-1.75c.291-.292.437-.73.145-1.02l-9.624-12.105zm35.145-28.292c0 .292.292.584.584.584h4.52c.438 0 .73-.438.584-.73-.73-3.791-3.063-7.145-6.417-9.041-.583-.292-1.166.291-.875.729.875 2.48 1.459 5.396 1.604 8.458zm-14.291 4.521c0-.291-.292-.583-.584-.583h-4.52c-.438 0-.73.437-.584.729.73 3.792 3.063 7.146 6.417 9.042.583.291 1.166-.292.875-.73-.875-2.479-1.459-5.395-1.604-8.458zM60 34.917c-3.354 1.896-5.688 5.104-6.417 9.041-.145.438.292.73.584.73h4.52c.292 0 .584-.292.584-.584a33.933 33.933 0 011.458-8.312c.438-.584-.146-1.167-.729-.875zm6.563-1.021c-1.313 0-3.355 3.792-3.792 10.208 0 .292.291.73.729.73h6.417c.437 0 .729-.292.729-.73-.73-6.416-2.771-10.208-4.084-10.208zm12.25 14.146h-4.521c-.292 0-.584.291-.584.583a33.922 33.922 0 01-1.458 8.313c-.146.583.438 1.02.875.729 3.354-1.896 5.688-5.104 6.417-9.042 0-.291-.292-.583-.73-.583zm-9.042-.146h-6.417c-.437 0-.729.292-.729.73.438 6.416 2.625 10.208 3.792 10.208 1.166 0 3.354-3.792 3.791-10.209.292-.437-.145-.729-.437-.729z" fill="#ED6373"/></svg>