<svg width="120" height="120" fill="none" xmlns="http://www.w3.org/2000/svg"><path d="M93 62.422l-2.317-12.118c-.534-2.851-3.029-4.811-5.88-4.811h-4.99c-2.85 0-5.346 1.96-5.88 4.811.178.535.356 1.07.356 1.604l2.673 14.612c.357 1.782 0 3.386-.713 4.99v.178l.891 11.226c.179 1.604 1.426 2.673 3.03 2.673h4.098c1.604 0 2.852-1.247 3.03-2.673l.89-11.226c0-.535.179-1.07.535-1.426l3.742-5.346c.357-.89.535-1.603.535-2.494zM37.937 41.216c3.92 0 6.95-3.208 6.95-6.95 0-3.92-3.208-6.95-6.95-6.95-3.92 0-6.95 3.208-6.95 6.95s3.03 6.95 6.95 6.95zm44.55 0c3.92 0 6.949-3.208 6.949-6.95 0-3.92-3.208-6.95-6.95-6.95-3.92 0-6.95 3.208-6.95 6.95s3.03 6.95 6.95 6.95zm-42.234 4.099h-4.99c-2.85 0-5.345 1.96-5.88 4.811l-2.316 12.117c-.178.713 0 1.604.534 2.317l3.743 5.346c.356.356.534.89.534 1.425l.891 11.227c.178 1.604 1.426 2.673 3.03 2.673h4.098c1.604 0 2.851-1.247 3.03-2.673l.89-11.227v-.178c-.712-1.604-1.069-3.207-.712-4.99l2.673-14.611c.178-.535.178-1.07.356-1.604-.535-2.495-3.03-4.633-5.88-4.633zm19.959-3.565a8.366 8.366 0 008.375-8.375A8.366 8.366 0 0060.21 25a8.366 8.366 0 00-8.375 8.375 8.366 8.366 0 008.376 8.376zm12.473 25.483L70.012 52.62c-.713-3.386-3.564-5.88-6.95-5.88h-6.058c-3.386 0-6.415 2.494-6.95 5.88l-2.673 14.612c-.178.89 0 1.96.535 2.673l4.455 6.593a3.01 3.01 0 01.534 1.782l1.07 13.543c.178 1.782 1.782 3.208 3.563 3.208h4.812c1.782 0 3.386-1.426 3.564-3.208l1.069-13.543c0-.534.178-1.247.535-1.782l4.454-6.593c.713-.713.892-1.782.713-2.673z" fill="#ED6373"/><circle opacity=".07" cx="60" cy="60" r="60" fill="#ED6373"/></svg>