<svg width="120" height="120" fill="none" xmlns="http://www.w3.org/2000/svg"><circle opacity=".07" cx="60" cy="60" r="60" fill="#F3B63F"/><path d="M75.896 65.25l-10.354 8.02a2.802 2.802 0 01-1.75.584h-7.438c-1.02 0-1.75-.875-1.75-1.896 0-1.02.875-1.75 1.896-1.75h6.27a3.61 3.61 0 003.647-3.645 3.61 3.61 0 00-3.646-3.646H47.313c-1.896 0-3.792.583-5.396 1.896l-4.959 3.937c-.291.292-.437.73-.145 1.02l9.77 12.397c.146.146.292.291.584.291l11.958.146h3.354c2.042 0 3.938-.583 5.542-1.896l12.541-9.916c1.605-1.313 1.896-3.5.584-5.104-1.459-1.459-3.646-1.75-5.25-.438zm8.75-13.562l-9.771-12.396c-.146-.146-.292-.292-.583-.292l-11.959-.146H58.98c-2.041 0-3.937.584-5.541 1.896l-12.396 9.77c-1.605 1.313-1.896 3.5-.584 5.105 1.313 1.604 3.5 1.896 5.105.583l10.354-8.02a2.803 2.803 0 011.75-.584h7.437c1.021 0 1.75.875 1.75 1.896 0 1.02-.875 1.75-1.896 1.75h-6.27a3.61 3.61 0 00-3.646 3.646 3.61 3.61 0 003.645 3.646h15.167c1.896 0 3.792-.584 5.396-1.896l5.104-3.938c.438-.291.584-.729.292-1.02zm-50.75 20.416c-.146-.292-.73-.438-1.021-.146l-2.333 1.75c-.292.292-.438.73-.146 1.021l9.625 12.104c.291.292.729.438 1.02.146l2.334-1.75c.292-.292.438-.73.146-1.02l-9.625-12.105zm57.02-25.375l-9.624-12.104c-.292-.292-.73-.438-1.021-.146l-2.334 1.75c-.291.292-.437.73-.145 1.02l9.625 12.105c.291.292.729.438 1.02.146l2.334-1.75c.437-.292.437-.73.146-1.02z" fill="#F2B640"/></svg>