<svg width="120" height="120" fill="none" xmlns="http://www.w3.org/2000/svg"><circle opacity=".07" cx="60" cy="60" r="60" fill="#3E54D8"/><path d="M80.033 40.722c-1.159-2.815-.165-7.285-2.318-9.437-2.152-2.152-6.457-1.16-9.437-2.318C65.464 27.807 63.146 24 60 24c-3.146 0-5.63 3.808-8.278 4.967-2.815 1.159-7.285.166-9.437 2.318-2.153 2.152-1.16 6.457-2.318 9.437C38.807 43.536 35 45.854 35 49c0 3.146 3.808 5.63 4.967 8.278 1.159 2.815.165 7.285 2.318 9.437 2.152 2.153 6.457 1.16 9.437 2.318C54.536 70.192 56.854 74 60 74c3.146 0 5.63-3.808 8.278-4.967 2.815-1.159 7.285-.165 9.437-2.318 2.153-2.152 1.16-6.457 2.318-9.437C81.193 54.464 85 52.146 85 49c-.166-3.146-3.974-5.464-4.967-8.278zM59.834 63.238c-7.781 0-14.072-6.291-14.072-14.072 0-7.782 6.291-14.073 14.072-14.073 7.782 0 14.073 6.291 14.073 14.072 0 7.782-6.291 14.073-14.073 14.073z" fill="#3E54D8"/><path d="M58.344 55.622l3.146-3.145 6.788-6.789-3.146-3.145-6.788 6.788-3.808-3.808-3.145 3.146 3.808 3.808 3.145 3.145zm18.047 37.086L73.576 72.51c-.331 0-.662 0-.993.165-.994.166-2.153.166-2.815.497-.496.165-1.324.993-2.152 1.656-1.821 1.49-4.305 3.642-7.782 3.642-3.476 0-5.96-2.152-7.781-3.642-.828-.663-1.656-1.325-2.152-1.656-.663-.166-1.822-.331-2.815-.497h-.662l-3.146 20.53c-.165 1.49 1.325 2.483 2.484 1.821l13.245-6.788a1.504 1.504 0 011.655 0l13.08 6.457c1.324.497 2.814-.662 2.649-1.987z" fill="#3E54D8"/></svg>