<svg width="120" height="120" fill="none" xmlns="http://www.w3.org/2000/svg"><circle opacity=".07" cx="60" cy="60" r="60" fill="#3E54D8"/><path d="M47.312 67.291a.802.802 0 00-.729-.437h-3.5c-6.27 0-11.375 5.104-11.375 11.375v5.104c0 .875.73 1.75 1.75 1.75h18.813c.437 0 .875-.437.729-1.02L47.312 67.29zm9.771-32.812c-7.729 0-14 6.27-14 14s6.271 14 14 14c7.73 0 14-6.27 14-14s-6.27-14-14-14zm0 32.667c-1.166 0-2.187 1.02-2.187 2.188V81c0 1.167 1.02 2.188 2.187 2.188 1.167 0 2.188-1.021 2.188-2.188V69.334c0-1.167-1.021-2.188-2.188-2.188zm29.167 2.042c-.583-1.459.73-4.375-.438-5.542-1.166-1.167-3.937.146-5.541-.438-1.459-.583-2.48-3.5-4.23-3.5-1.604 0-2.77 2.917-4.229 3.5-1.458.584-4.375-.729-5.541.438-1.167 1.167.146 3.938-.438 5.542-.583 1.458-3.5 2.479-3.5 4.229 0 1.604 2.917 2.77 3.5 4.229.584 1.458-.729 4.375.438 5.542 1.166 1.166 3.937-.146 5.541.437 1.459.584 2.48 3.5 4.23 3.5 1.604 0 2.77-2.916 4.229-3.5 1.458-.583 4.375.73 5.541-.437 1.167-1.313-.145-4.23.438-5.688.583-1.458 3.5-2.479 3.5-4.229.146-1.604-2.917-2.625-3.5-4.083zM76.187 81.292c-1.166 0-2.187-1.021-2.187-2.188 0-1.166 1.02-2.187 2.187-2.187 1.167 0 2.188 1.02 2.188 2.187 0 1.167-1.02 2.188-2.188 2.188zm2.188-9.042c0 1.167-1.02 2.188-2.188 2.188-1.166 0-2.187-1.021-2.187-2.188V67c0-1.166 1.02-2.187 2.187-2.187 1.167 0 2.188 1.02 2.188 2.187v5.25z" fill="#3E54D8"/></svg>