<svg width="120" height="120" fill="none" xmlns="http://www.w3.org/2000/svg"><circle opacity=".07" cx="60" cy="60" r="60" fill="#199F27"/><path d="M96.876 49.956L83.16 35.248a.799.799 0 00-1.157 0L76.219 40.7a.799.799 0 000 1.157l13.716 14.708a.8.8 0 001.157 0l5.784-5.454c.165-.33.165-.826 0-1.156zm-5.123 1.652c-.66.661-1.818.661-2.479 0-.66-.66-.66-1.818 0-2.479.661-.66 1.818-.66 2.48 0 .825.661.66 1.818 0 2.48zM36.227 37.231c-.33-.33-.826-.165-1.157.165L22.18 53.922c-.33.33-.165.826.165 1.157l6.28 4.957c.33.33.826.166 1.157-.165l12.89-16.526c.33-.33.165-.826-.165-1.156l-6.28-4.958zm-6.114 17.352c-.662.826-1.818.991-2.48.33-.826-.66-.99-1.817-.33-2.478.661-.827 1.818-.992 2.479-.331.826.496.991 1.653.33 2.479zm47.924 16.03L63.825 59.54l-2.644 2.313c-3.636 3.305-6.941 4.132-9.42 4.132-.66 0-1.157 0-1.818-.166-3.47-.66-5.784-2.81-6.775-4.627-1.322-1.983-.826-4.627.826-6.28l10.08-9.254c-1.156-.992-2.643-1.322-3.965-1.322-1.983 0-3.967.826-5.289 2.644l-9.915 12.89c-.826.991-1.157 2.314-.992 3.636l.662 5.123a5.106 5.106 0 001.817 3.305l17.352 13.55a2.79 2.79 0 001.653.496c.66 0 1.487-.33 1.983-.826l.826-.826c.992-1.157.992-2.81-.33-3.801l2.974 2.479c.496.496 1.157.66 1.653.66.66 0 1.322-.33 1.818-.825l.826-.827c1.157-1.156 1.157-2.974-.165-3.966l2.148 1.818c.496.496 1.157.661 1.653.661.66 0 1.322-.33 1.817-.826l.827-.826c1.156-1.157.991-2.975-.166-3.967l1.488 1.157c.496.496 1.157.661 1.818.661.826 0 1.487-.33 1.983-.991l1.156-1.488c1.653-.991 1.488-2.81.331-3.635zm6.94-13.22L73.08 45.162c-.495-.496-1.157-.826-1.983-.991l-6.114-.827a3.049 3.049 0 00-2.644.827l-1.488 1.322-13.716 12.56c-.165.164-.496.495-.165.99l.165.166c.496.992 1.818 2.313 3.8 2.644 2.315.33 4.959-.661 7.603-2.975l5.123-4.627 16.195 12.56 5.123-4.793c1.157-1.322 1.322-3.305 0-4.627z" fill="#199F27"/></svg>