<svg width="831" height="760" fill="none" xmlns="http://www.w3.org/2000/svg"><g filter="url(#filter0_d)"><rect x="147" y="57" width="537" height="467" rx="40" fill="#fff"/><rect x="147.55" y="57.55" width="535.901" height="465.901" rx="39.45" stroke="#D3E3FF" stroke-width="1.099"/></g><path d="M198.966 107.637h-2.65v6.672h-3.809V97.747h3.809v6.696h2.745l4.353-6.696h4.046l-5.418 7.997 5.583 8.565h-4.353l-4.306-6.672zm22.669-6.057l-5.749 13.509c-.584 1.467-1.309 2.5-2.177 3.1-.852.599-1.885.899-3.099.899a6.464 6.464 0 01-1.964-.308c-.647-.205-1.175-.489-1.585-.852l1.349-2.626a3.18 3.18 0 002.082.805c.504 0 .914-.126 1.23-.379.315-.236.599-.639.852-1.206l.047-.119-5.513-12.823h3.809l3.573 8.636 3.596-8.636h3.549zm14.438 0v12.729h-3.691v-9.701h-5.299v9.701h-3.667V101.58h12.657zm3.539 0h3.667v7.571l6.199-7.571h3.383v12.729h-3.667v-7.571l-6.175 7.571h-3.407V101.58zm27.491 3.028h-4.306v9.701h-3.667v-9.701h-4.306v-3.028h12.279v3.028zm13.809 3.384c0 .047-.023.378-.07.993h-9.63a2.998 2.998 0 001.231 1.869c.646.458 1.451.686 2.413.686.662 0 1.246-.094 1.751-.283a4.404 4.404 0 001.443-.947l1.963 2.13c-1.198 1.372-2.949 2.058-5.252 2.058-1.435 0-2.705-.276-3.809-.828-1.104-.568-1.956-1.349-2.555-2.342-.6-.994-.899-2.122-.899-3.384 0-1.246.292-2.366.875-3.359a6.215 6.215 0 012.437-2.343c1.041-.567 2.2-.851 3.478-.851 1.246 0 2.374.268 3.383.804a5.768 5.768 0 012.366 2.319c.584.993.875 2.153.875 3.478zm-6.6-3.81c-.836 0-1.538.237-2.106.71-.568.473-.915 1.12-1.041 1.94h6.27c-.127-.804-.474-1.443-1.041-1.916-.568-.489-1.262-.734-2.082-.734zm20.436-2.839c1.372 0 2.595.284 3.667.852a6.222 6.222 0 012.555 2.342c.615 1.01.923 2.145.923 3.407s-.308 2.398-.923 3.407c-.615 1.01-1.467 1.798-2.555 2.366-1.072.552-2.295.828-3.667.828-1.215 0-2.319-.197-3.312-.591-.978-.41-1.791-.994-2.437-1.751l2.105-1.987c.963.993 2.13 1.49 3.502 1.49.915 0 1.703-.229 2.366-.686a3.38 3.38 0 001.348-1.869h-5.347v-2.532h5.3a3.433 3.433 0 00-1.348-1.798c-.647-.441-1.42-.662-2.319-.662-1.357 0-2.524.505-3.502 1.514l-2.105-1.964a6.076 6.076 0 012.437-1.75c.993-.411 2.097-.616 3.312-.616zm19.881 3.265h-4.306v9.701h-3.667v-9.701h-4.306v-3.028h12.279v3.028zm1.967-3.028h3.667v7.571l6.199-7.571h3.383v12.729h-3.667v-7.571l-6.175 7.571h-3.407V101.58zm28.442-.189c1.972 0 3.486.473 4.543 1.419 1.057.931 1.585 2.343 1.585 4.235v7.264h-3.454v-1.586c-.694 1.183-1.987 1.775-3.88 1.775-.978 0-1.83-.166-2.555-.497-.71-.331-1.254-.789-1.633-1.372a3.577 3.577 0 01-.568-1.988c0-1.183.442-2.113 1.325-2.791.899-.679 2.279-1.018 4.141-1.018h2.933c0-.804-.244-1.419-.733-1.845-.489-.442-1.222-.663-2.2-.663-.679 0-1.349.111-2.011.332-.647.205-1.199.489-1.657.851l-1.324-2.578c.694-.489 1.522-.868 2.484-1.136a11.313 11.313 0 013.004-.402zm-.283 10.623c.63 0 1.19-.142 1.679-.426.489-.3.836-.734 1.041-1.301v-1.302h-2.531c-1.514 0-2.271.497-2.271 1.491 0 .473.181.852.544 1.135.378.269.891.403 1.538.403zm15.225-2.532h-1.917v4.827h-3.691V101.58h3.691v4.945h1.988l3.454-4.945h3.927l-4.448 6.104 4.756 6.625h-4.354l-3.406-4.827zm23.909 1.798v5.82h-3.43v-2.791h-10.907V101.58h3.667v9.7h5.134v-9.7h3.691v9.7h1.845zm2.321-9.7h3.668v7.571l6.198-7.571h3.384v12.729h-3.668v-7.571l-6.175 7.571h-3.407V101.58zm16.797 0h3.668v7.571l6.198-7.571h3.384v12.729h-3.668v-7.571l-6.175 7.571h-3.407V101.58zm36.25 0l-5.749 13.509c-.584 1.467-1.309 2.5-2.177 3.1-.851.599-1.885.899-3.099.899a6.47 6.47 0 01-1.964-.308c-.646-.205-1.175-.489-1.585-.852l1.349-2.626a3.193 3.193 0 002.082.805c.504 0 .915-.126 1.23-.379.315-.236.599-.639.852-1.206l.047-.119-5.513-12.823h3.81l3.572 8.636 3.596-8.636h3.549zm14.538 12.918c-1.357 0-2.579-.276-3.667-.828-1.073-.568-1.917-1.349-2.532-2.342-.599-.994-.899-2.122-.899-3.384s.3-2.389.899-3.383a6.304 6.304 0 012.532-2.319c1.088-.567 2.31-.851 3.667-.851 1.34 0 2.508.284 3.501.851a4.91 4.91 0 012.201 2.39l-2.863 1.538c-.663-1.167-1.617-1.751-2.863-1.751-.962 0-1.759.316-2.39.946-.63.631-.946 1.491-.946 2.579 0 1.089.316 1.948.946 2.579.631.631 1.428.947 2.39.947 1.262 0 2.216-.584 2.863-1.751l2.863 1.561c-.458 1.01-1.191 1.798-2.201 2.366-.993.568-2.161.852-3.501.852zm17.668-6.838c1.499.505 2.248 1.515 2.248 3.029 0 1.151-.434 2.042-1.301 2.673-.868.631-2.161.947-3.88.947h-6.791V101.58h6.507c1.593 0 2.839.292 3.738.875.899.568 1.348 1.373 1.348 2.414 0 .631-.165 1.19-.497 1.679-.315.474-.772.844-1.372 1.112zm-6.34-.851h2.791c1.294 0 1.94-.458 1.94-1.373 0-.899-.646-1.348-1.94-1.348h-2.791v2.721zm3.099 4.992c1.356 0 2.035-.466 2.035-1.396 0-.489-.158-.844-.474-1.065-.315-.236-.812-.355-1.49-.355h-3.17v2.816h3.099zm14.197 2.697c-1.341 0-2.547-.276-3.62-.828a6.348 6.348 0 01-2.484-2.342c-.599-.994-.899-2.122-.899-3.384s.3-2.389.899-3.383a6.175 6.175 0 012.484-2.319c1.073-.567 2.279-.851 3.62-.851 1.341 0 2.539.284 3.596.851a6.175 6.175 0 012.484 2.319c.6.994.9 2.121.9 3.383s-.3 2.39-.9 3.384a6.348 6.348 0 01-2.484 2.342c-1.057.552-2.255.828-3.596.828zm0-3.028c.946 0 1.719-.316 2.319-.947.615-.647.922-1.506.922-2.579 0-1.072-.307-1.924-.922-2.555-.6-.647-1.373-.97-2.319-.97s-1.727.323-2.342.97c-.615.631-.923 1.483-.923 2.555 0 1.073.308 1.932.923 2.579.615.631 1.396.947 2.342.947zm21.892-3.478c0 .047-.024.378-.071.993h-9.629a2.993 2.993 0 001.23 1.869c.646.458 1.451.686 2.413.686.662 0 1.246-.094 1.751-.283a4.404 4.404 0 001.443-.947l1.964 2.13c-1.199 1.372-2.95 2.058-5.253 2.058-1.435 0-2.705-.276-3.809-.828-1.104-.568-1.956-1.349-2.555-2.342-.599-.994-.899-2.122-.899-3.384 0-1.246.292-2.366.875-3.359a6.215 6.215 0 012.437-2.343c1.041-.567 2.201-.851 3.478-.851 1.246 0 2.374.268 3.383.804a5.762 5.762 0 012.366 2.319c.584.993.876 2.153.876 3.478zm-6.601-3.81c-.836 0-1.538.237-2.106.71-.568.473-.915 1.12-1.041 1.94h6.27c-.126-.804-.473-1.443-1.041-1.916-.568-.489-1.262-.734-2.082-.734zm19.627.426h-6.53v9.701h-3.667V101.58h10.197v3.028zm7.387 9.89c-1.341 0-2.548-.276-3.62-.828a6.348 6.348 0 01-2.484-2.342c-.6-.994-.9-2.122-.9-3.384s.3-2.389.9-3.383a6.175 6.175 0 012.484-2.319c1.072-.567 2.279-.851 3.62-.851 1.34 0 2.539.284 3.596.851a6.175 6.175 0 012.484 2.319c.599.994.899 2.121.899 3.383s-.3 2.39-.899 3.384a6.348 6.348 0 01-2.484 2.342c-1.057.552-2.256.828-3.596.828zm0-3.028c.946 0 1.719-.316 2.318-.947.615-.647.923-1.506.923-2.579 0-1.072-.308-1.924-.923-2.555-.599-.647-1.372-.97-2.318-.97-.947 0-1.728.323-2.343.97-.615.631-.922 1.483-.922 2.555 0 1.073.307 1.932.922 2.579.615.631 1.396.947 2.343.947zm-325.095 21.985c1.214 0 2.279.253 3.193.757a5.057 5.057 0 012.106 2.082c.505.9.757 1.941.757 3.123 0 1.215-.299 2.295-.899 3.242-.583.93-1.404 1.656-2.46 2.176-1.057.505-2.256.758-3.597.758-2.223 0-3.974-.71-5.252-2.13-1.262-1.435-1.893-3.533-1.893-6.293 0-2.555.552-4.59 1.657-6.104 1.119-1.53 2.831-2.532 5.134-3.005l6.056-1.207.497 3.171-5.347 1.064c-1.451.284-2.531.758-3.241 1.42-.694.662-1.104 1.601-1.23 2.815a5.489 5.489 0 011.987-1.372 6.365 6.365 0 012.532-.497zm-.876 9.275c.946 0 1.704-.308 2.271-.923.584-.615.876-1.396.876-2.342 0-.962-.292-1.727-.876-2.295-.567-.568-1.325-.852-2.271-.852-.962 0-1.735.284-2.318.852-.584.568-.876 1.333-.876 2.295s.3 1.751.899 2.366c.6.599 1.365.899 2.295.899zm16.937-10.339c1.182 0 2.255.276 3.217.828a5.734 5.734 0 012.295 2.295c.552.978.828 2.121.828 3.43 0 1.309-.276 2.461-.828 3.455a5.946 5.946 0 01-2.295 2.294c-.962.537-2.035.805-3.217.805-1.625 0-2.903-.513-3.833-1.538v5.938h-3.691V132.58h3.525v1.467c.915-1.104 2.248-1.656 3.999-1.656zm-.639 10.079c.946 0 1.719-.316 2.318-.947.615-.647.923-1.506.923-2.579 0-1.072-.308-1.924-.923-2.555-.599-.647-1.372-.97-2.318-.97-.947 0-1.727.323-2.343.97-.599.631-.899 1.483-.899 2.555 0 1.073.3 1.932.899 2.579.616.631 1.396.947 2.343.947zm15.528 3.028c-1.341 0-2.547-.276-3.62-.828a6.348 6.348 0 01-2.484-2.342c-.599-.994-.899-2.122-.899-3.384s.3-2.389.899-3.383a6.175 6.175 0 012.484-2.319c1.073-.567 2.279-.851 3.62-.851 1.341 0 2.539.284 3.596.851a6.175 6.175 0 012.484 2.319c.6.994.899 2.121.899 3.383s-.299 2.39-.899 3.384a6.348 6.348 0 01-2.484 2.342c-1.057.552-2.255.828-3.596.828zm0-3.028c.946 0 1.719-.316 2.319-.947.615-.647.922-1.506.922-2.579 0-1.072-.307-1.924-.922-2.555-.6-.647-1.373-.97-2.319-.97s-1.727.323-2.342.97c-.615.631-.923 1.483-.923 2.555 0 1.073.308 1.932.923 2.579.615.631 1.396.947 2.342.947zm15.125-1.988h-1.916v4.827h-3.691V132.58h3.691v4.945h1.987l3.454-4.945h3.928l-4.448 6.104 4.755 6.625h-4.353l-3.407-4.827zm21.554-1.49c0 .047-.024.378-.071.993h-9.63a2.998 2.998 0 001.231 1.869c.646.458 1.451.686 2.413.686.662 0 1.246-.094 1.751-.283a4.404 4.404 0 001.443-.947l1.964 2.13c-1.199 1.372-2.95 2.058-5.253 2.058-1.435 0-2.705-.276-3.809-.828-1.104-.568-1.956-1.349-2.555-2.342-.599-.994-.899-2.122-.899-3.384 0-1.246.292-2.366.875-3.359a6.215 6.215 0 012.437-2.343c1.041-.567 2.201-.851 3.478-.851 1.246 0 2.374.268 3.383.804a5.768 5.768 0 012.366 2.319c.584.993.876 2.153.876 3.478zm-6.601-3.81c-.836 0-1.538.237-2.106.71-.568.473-.915 1.12-1.041 1.94h6.27c-.126-.804-.473-1.443-1.041-1.916-.568-.489-1.262-.734-2.082-.734zm16.93-2.791c1.183 0 2.255.276 3.217.828a5.734 5.734 0 012.295 2.295c.552.978.828 2.121.828 3.43 0 1.309-.276 2.461-.828 3.455a5.946 5.946 0 01-2.295 2.294c-.962.537-2.034.805-3.217.805-1.625 0-2.902-.513-3.833-1.538v5.938h-3.691V132.58h3.525v1.467c.915-1.104 2.248-1.656 3.999-1.656zm-.639 10.079c.946 0 1.719-.316 2.319-.947.615-.647.922-1.506.922-2.579 0-1.072-.307-1.924-.922-2.555-.6-.647-1.373-.97-2.319-.97s-1.727.323-2.342.97c-.6.631-.899 1.483-.899 2.555 0 1.073.299 1.932.899 2.579.615.631 1.396.947 2.342.947zm14.303-10.079c1.972 0 3.486.473 4.543 1.419 1.056.931 1.585 2.343 1.585 4.235v7.264h-3.455v-1.586c-.694 1.183-1.987 1.775-3.88 1.775-.978 0-1.829-.166-2.555-.497-.71-.331-1.254-.789-1.632-1.372-.379-.584-.568-1.246-.568-1.988 0-1.183.442-2.113 1.325-2.791.899-.679 2.279-1.018 4.14-1.018h2.934c0-.804-.245-1.419-.734-1.845-.489-.442-1.222-.663-2.2-.663-.678 0-1.348.111-2.011.332-.647.205-1.199.489-1.656.851l-1.325-2.578c.694-.489 1.522-.868 2.484-1.136a11.32 11.32 0 013.005-.402zm-.284 10.623c.631 0 1.191-.142 1.68-.426.489-.3.836-.734 1.041-1.301v-1.302h-2.532c-1.514 0-2.271.497-2.271 1.491 0 .473.181.852.544 1.135.379.269.891.403 1.538.403z" fill="#24252E"/><path d="M193.991 173.39c-.58 0-1.105-.127-1.574-.38a2.884 2.884 0 01-1.093-1.06 2.962 2.962 0 01-.397-1.524c0-.563.132-1.068.397-1.515a2.787 2.787 0 011.101-1.06c.47-.26.994-.39 1.574-.39.453 0 .867.078 1.242.232.375.149.696.373.96.671l-.538.522c-.436-.458-.98-.688-1.631-.688-.431 0-.82.097-1.168.29a2.123 2.123 0 00-.819.804c-.194.336-.29.714-.29 1.134 0 .42.096.8.29 1.143.198.336.472.601.819.795.348.193.737.289 1.168.289a2.16 2.16 0 001.631-.695l.538.522a2.564 2.564 0 01-.968.679c-.376.154-.79.231-1.242.231zm6.584-4.455v4.389h-.795v-1.772a3.334 3.334 0 01-1.416.331c-.546 0-.969-.127-1.267-.381-.298-.253-.447-.634-.447-1.142v-1.425h.795v1.375c0 .304.094.533.282.687.193.155.461.232.803.232.386 0 .803-.096 1.25-.29v-2.004h.795zm5.51 2.22c0 .06-.006.14-.017.24h-3.56a1.4 1.4 0 00.505.936c.292.231.654.347 1.085.347.524 0 .946-.176 1.266-.53l.439.514a1.915 1.915 0 01-.745.53 2.557 2.557 0 01-.985.182 2.62 2.62 0 01-1.234-.282 2.095 2.095 0 01-.837-.803 2.318 2.318 0 01-.289-1.159c0-.425.094-.809.281-1.151a2.06 2.06 0 01.787-.795c.337-.193.715-.29 1.134-.29.42 0 .793.097 1.118.29.331.188.588.453.77.795.188.342.282.734.282 1.176zm-2.17-1.59c-.381 0-.701.116-.96.348a1.406 1.406 0 00-.447.91h2.815a1.388 1.388 0 00-.455-.902c-.254-.238-.572-.356-.953-.356zm6.488.066h-1.606v3.693h-.795v-3.693h-1.607v-.696h4.008v.696z" fill="#373943"/><path d="M205.52 197.809c0 1.293-.473 2.405-1.42 3.336-.946.915-2.31 1.483-4.093 1.703v2.65h-2.366v-2.579a12.857 12.857 0 01-3.335-.615c-1.057-.347-1.909-.773-2.556-1.277l1.302-2.887a8.533 8.533 0 002.105 1.112c.805.3 1.633.489 2.484.568v-3.951c-1.119-.268-2.066-.568-2.839-.899a5.063 5.063 0 01-1.94-1.443c-.52-.647-.78-1.499-.78-2.555 0-1.31.473-2.429 1.419-3.36.962-.946 2.342-1.522 4.14-1.727v-2.626h2.366v2.579c1.94.157 3.541.638 4.803 1.443l-1.183 2.91c-1.183-.678-2.389-1.088-3.62-1.23v4.022c1.104.252 2.035.544 2.792.875.773.315 1.42.797 1.94 1.443.521.631.781 1.467.781 2.508zm-9.629-7.027c0 .395.15.718.449.97.3.253.734.466 1.301.639v-3.359c-.599.141-1.041.37-1.324.686a1.493 1.493 0 00-.426 1.064zm4.116 8.943c.568-.126.994-.331 1.278-.615.284-.284.426-.623.426-1.017 0-.394-.15-.718-.45-.97-.284-.252-.702-.473-1.254-.663v3.265zm21.764-7.452c1.057 0 2.019.213 2.887.639a5.014 5.014 0 012.058 1.821c.505.773.757 1.672.757 2.698 0 1.104-.276 2.074-.828 2.91-.552.836-1.309 1.482-2.271 1.94-.947.441-2.003.662-3.17.662-2.319 0-4.133-.71-5.442-2.129-1.309-1.42-1.964-3.447-1.964-6.081 0-1.877.355-3.485 1.065-4.826.71-1.341 1.695-2.358 2.957-3.052 1.278-.694 2.753-1.041 4.425-1.041.883 0 1.727.102 2.531.307.82.19 1.514.466 2.082.829l-1.419 2.815c-.821-.552-1.854-.828-3.1-.828-1.404 0-2.516.41-3.336 1.23-.82.82-1.262 2.011-1.325 3.573.978-.978 2.343-1.467 4.093-1.467zm-.78 7.807c.82 0 1.482-.22 1.987-.662.52-.442.781-1.041.781-1.798 0-.757-.261-1.357-.781-1.798-.505-.458-1.183-.686-2.035-.686-.836 0-1.522.236-2.058.709-.536.458-.804 1.049-.804 1.775 0 .725.26 1.317.78 1.774.521.458 1.231.686 2.13.686zm20.25-7.76c2.334 0 4.054.465 5.158 1.396 1.119.931 1.679 2.177 1.679 3.738a5.25 5.25 0 01-.757 2.768c-.504.82-1.277 1.483-2.318 1.988-1.025.489-2.295.733-3.809.733-1.168 0-2.319-.15-3.455-.449-1.119-.316-2.074-.758-2.862-1.325l1.514-2.934a7.459 7.459 0 002.176 1.112 8.576 8.576 0 002.532.378c.962 0 1.719-.189 2.271-.567.552-.379.828-.907.828-1.586 0-.709-.291-1.246-.875-1.608-.568-.363-1.562-.545-2.981-.545h-4.235l.852-9.321h10.102v3.075h-6.908l-.261 3.147h1.349zm16.013.521c1.452.236 2.564.78 3.336 1.632.773.836 1.16 1.877 1.16 3.123 0 .962-.253 1.853-.757 2.674-.505.804-1.278 1.451-2.319 1.94-1.025.489-2.287.733-3.785.733-1.168 0-2.319-.15-3.455-.449-1.12-.316-2.074-.758-2.862-1.325l1.49-2.934a7.464 7.464 0 002.177 1.112 8.803 8.803 0 002.555.378c.962 0 1.719-.181 2.271-.544.552-.378.828-.907.828-1.585 0-1.356-1.033-2.035-3.099-2.035h-1.751v-2.531l3.407-3.857h-7.05v-3.075h11.593v2.484l-3.739 4.259zm17.598 1.112c.82.41 1.443.946 1.869 1.608.442.663.663 1.428.663 2.295 0 1.026-.292 1.925-.876 2.698-.583.757-1.404 1.348-2.46 1.774-1.057.41-2.28.615-3.668.615-1.388 0-2.61-.205-3.667-.615-1.041-.426-1.853-1.017-2.437-1.774-.567-.773-.851-1.672-.851-2.698 0-.867.213-1.632.638-2.295.442-.662 1.065-1.198 1.87-1.608-.616-.379-1.089-.852-1.42-1.42-.331-.584-.497-1.246-.497-1.987 0-.962.268-1.798.805-2.508.536-.71 1.285-1.254 2.247-1.633.962-.394 2.066-.591 3.312-.591 1.262 0 2.374.197 3.336.591.978.379 1.735.923 2.272 1.633.536.71.804 1.546.804 2.508 0 .741-.166 1.403-.497 1.987-.331.568-.812 1.041-1.443 1.42zm-4.472-5.324c-.772 0-1.395.19-1.869.568-.457.363-.686.868-.686 1.514 0 .631.229 1.128.686 1.491.458.363 1.081.544 1.869.544.789 0 1.42-.181 1.893-.544.473-.363.71-.86.71-1.491 0-.646-.237-1.151-.71-1.514-.473-.378-1.104-.568-1.893-.568zm0 11.499c.963 0 1.72-.213 2.272-.639.568-.442.851-1.025.851-1.751 0-.725-.283-1.301-.851-1.727-.552-.426-1.309-.639-2.272-.639-.946 0-1.695.213-2.247.639-.552.426-.828 1.002-.828 1.727 0 .741.276 1.325.828 1.751.552.426 1.301.639 2.247.639z" fill="#3E54D8"/><path d="M291.942 182.738h3.289l-7.808 22.287h-3.288l7.807-22.287zm22.992 15.237c0 1.277-.473 2.366-1.419 3.265-.931.883-2.287 1.419-4.069 1.608v2.65h-1.941v-2.626a13.264 13.264 0 01-3.312-.639c-1.041-.347-1.869-.788-2.484-1.325l1.065-2.389c.583.473 1.293.875 2.129 1.206a9.731 9.731 0 002.602.592v-4.732c-1.119-.268-2.058-.56-2.815-.875a5.058 5.058 0 01-1.869-1.42c-.505-.631-.757-1.459-.757-2.484 0-1.278.465-2.366 1.396-3.265.93-.899 2.279-1.435 4.045-1.609v-2.673h1.941v2.626c.883.047 1.742.197 2.578.449.852.253 1.593.584 2.224.994l-.97 2.39a9.844 9.844 0 00-3.832-1.278v4.779c1.135.268 2.074.56 2.815.876a4.694 4.694 0 011.893 1.419c.52.615.78 1.435.78 2.461zm-9.818-7.311c0 .521.205.938.615 1.254.41.315 1.002.584 1.774.804v-4.211c-.804.126-1.403.379-1.798.757a1.861 1.861 0 00-.591 1.396zm4.33 9.606c.835-.127 1.451-.371 1.845-.734.41-.363.615-.812.615-1.348 0-.537-.213-.963-.639-1.278-.426-.331-1.033-.607-1.821-.828v4.188zm24.635-6.317c.868.394 1.53.93 1.987 1.608.474.663.71 1.444.71 2.343 0 1.009-.284 1.892-.851 2.65-.553.757-1.341 1.34-2.366 1.75-1.026.395-2.216.592-3.573.592-1.356 0-2.547-.197-3.572-.592-1.01-.41-1.791-.993-2.343-1.75-.552-.758-.828-1.641-.828-2.65 0-.899.229-1.68.686-2.343.458-.678 1.112-1.214 1.964-1.608-.662-.363-1.175-.836-1.538-1.42-.347-.599-.52-1.285-.52-2.058 0-.931.252-1.743.757-2.437.52-.694 1.246-1.23 2.176-1.609.931-.379 2.004-.568 3.218-.568 1.23 0 2.311.189 3.241.568.931.379 1.657.915 2.177 1.609.521.694.781 1.506.781 2.437 0 .773-.182 1.451-.544 2.034-.363.584-.884 1.065-1.562 1.444zm-4.093-5.679c-.962 0-1.727.205-2.295.616-.552.41-.828.985-.828 1.727 0 .709.276 1.277.828 1.703.568.41 1.333.615 2.295.615.978 0 1.751-.205 2.319-.615.567-.426.851-.994.851-1.703 0-.742-.291-1.317-.875-1.727-.568-.411-1.333-.616-2.295-.616zm0 12.209c1.136 0 2.035-.237 2.697-.71.663-.473.994-1.128.994-1.964 0-.82-.331-1.467-.994-1.94-.662-.473-1.561-.71-2.697-.71-1.136 0-2.027.237-2.673.71-.647.473-.97 1.12-.97 1.94 0 .836.323 1.491.97 1.964.646.473 1.537.71 2.673.71zm13.967-7.974c2.334 0 4.062.458 5.181 1.373 1.12.899 1.68 2.129 1.68 3.69 0 .994-.244 1.893-.733 2.698-.489.804-1.223 1.443-2.201 1.916-.977.473-2.184.71-3.619.71-1.183 0-2.327-.166-3.431-.497-1.104-.347-2.035-.82-2.792-1.42l1.302-2.389c.615.505 1.348.907 2.2 1.206a8.538 8.538 0 002.673.426c1.089 0 1.94-.221 2.556-.662.63-.458.946-1.081.946-1.869 0-.852-.339-1.491-1.017-1.917-.663-.441-1.806-.662-3.431-.662h-3.998l.851-9.014h9.724v2.579h-7.121l-.355 3.832h1.585zm15.544 10.387c-1.325 0-2.508-.331-3.549-.994-1.041-.678-1.861-1.656-2.461-2.934-.599-1.293-.899-2.823-.899-4.59 0-1.766.3-3.288.899-4.566.6-1.293 1.42-2.271 2.461-2.933 1.041-.679 2.224-1.018 3.549-1.018 1.325 0 2.508.339 3.549 1.018 1.056.662 1.884 1.64 2.484 2.933.599 1.278.899 2.8.899 4.566 0 1.767-.3 3.297-.899 4.59-.6 1.278-1.428 2.256-2.484 2.934-1.041.663-2.224.994-3.549.994zm0-2.674c1.183 0 2.113-.489 2.792-1.467.694-.977 1.041-2.436 1.041-4.377 0-1.94-.347-3.399-1.041-4.376-.679-.978-1.609-1.467-2.792-1.467-1.167 0-2.098.489-2.792 1.467-.678.977-1.017 2.436-1.017 4.376 0 1.941.339 3.4 1.017 4.377.694.978 1.625 1.467 2.792 1.467zm15.919 2.674c-1.325 0-2.508-.331-3.549-.994-1.041-.678-1.861-1.656-2.461-2.934-.599-1.293-.899-2.823-.899-4.59 0-1.766.3-3.288.899-4.566.6-1.293 1.42-2.271 2.461-2.933 1.041-.679 2.224-1.018 3.549-1.018 1.325 0 2.508.339 3.549 1.018 1.056.662 1.885 1.64 2.484 2.933.599 1.278.899 2.8.899 4.566 0 1.767-.3 3.297-.899 4.59-.599 1.278-1.428 2.256-2.484 2.934-1.041.663-2.224.994-3.549.994zm0-2.674c1.183 0 2.113-.489 2.792-1.467.694-.977 1.041-2.436 1.041-4.377 0-1.94-.347-3.399-1.041-4.376-.679-.978-1.609-1.467-2.792-1.467-1.167 0-2.098.489-2.792 1.467-.678.977-1.017 2.436-1.017 4.376 0 1.941.339 3.4 1.017 4.377.694.978 1.625 1.467 2.792 1.467z" fill="#606371"/><g filter="url(#filter1_d)"><g clip-path="url(#clip0)"><rect x="190.496" y="236.087" width="449.504" height="213.935" rx="10.647" fill="#fff"/><g filter="url(#filter2_d)"><path fill="#FCFDFF" d="M191.088 390.27h600.35v59.148h-600.35z"/></g><g clip-path="url(#clip1)"><path fill-rule="evenodd" clip-rule="evenodd" d="M507.1 426.987a.47.47 0 01.506.073l8.549 7.404a.474.474 0 01-.29.831l-3.155.139 1.828 4.017a.47.47 0 01-.234.626l-2.038.928a.47.47 0 01-.626-.234l-1.832-4.017-2.168 2.287a.474.474 0 01-.736-.061.47.47 0 01-.08-.267v-11.295a.473.473 0 01.276-.431zm.67 1.467v9.075l1.834-1.935a.48.48 0 01.422-.141.482.482 0 01.21.091.48.48 0 01.142.18l1.926 4.223 1.176-.535-1.923-4.224a.47.47 0 01.027-.443.481.481 0 01.383-.226l2.669-.117-6.866-5.948z" fill="#000"/></g><path d="M190.792 236.383h448.912v33.061H190.792v-33.061z" fill="#F5F6FD" stroke="#E6EEFF" stroke-width=".591"/><path d="M210.032 253.699h-3.521l-.729 1.656h-.974l3-6.624h.937l3.009 6.624h-.994l-.728-1.656zm-.332-.757l-1.429-3.246-1.429 3.246h2.858zm4.995.294h-1.041v2.119h-.908v-5.015h.908v2.12h1.06l1.628-2.12h.975l-1.902 2.413 2.034 2.602h-1.069l-1.685-2.119zm9.063 1.325v1.996h-.861v-1.202h-4.495v-5.015h.908v4.221h2.745v-4.221h.908v4.221h.795zm1.178-4.221h.908v3.653l3.076-3.653h.823v5.015h-.908v-3.652l-3.066 3.652h-.833v-5.015zm10.593 0v5.015h-.814v-1.589h-1.562l-1.097 1.589h-.975l1.221-1.712c-.379-.114-.669-.3-.871-.559-.202-.265-.303-.593-.303-.984 0-.574.196-1.009.587-1.306.391-.303.931-.454 1.618-.454h2.196zm-3.473 1.788c0 .335.104.584.312.748.215.158.533.237.956.237h1.391v-1.978h-1.353c-.871 0-1.306.331-1.306.993zm160.363.313h-1.382v2.914h-.927v-6.624h.927v2.877h1.401l2.082-2.877h1.012l-2.366 3.208 2.48 3.416h-1.079l-2.148-2.914zm6.129 2.971a2.72 2.72 0 01-1.344-.331 2.455 2.455 0 01-.937-.908 2.649 2.649 0 01-.331-1.325c0-.493.11-.931.331-1.316.227-.391.54-.694.937-.908a2.722 2.722 0 011.344-.332c.498 0 .943.111 1.334.332.398.214.707.517.928.908.227.385.341.823.341 1.316 0 .492-.114.933-.341 1.325-.221.384-.53.687-.928.908a2.664 2.664 0 01-1.334.331zm0-.795c.322 0 .609-.072.861-.217.259-.152.461-.36.606-.625.145-.271.218-.58.218-.927 0-.347-.073-.653-.218-.918a1.516 1.516 0 00-.606-.625 1.695 1.695 0 00-.861-.218c-.322 0-.612.073-.871.218a1.597 1.597 0 00-.605.625 1.882 1.882 0 00-.218.918c0 .347.073.656.218.927.151.265.353.473.605.625.259.145.549.217.871.217zm8.183-4.277v5.015h-.908v-4.22h-2.158l-.057 1.116c-.031.675-.091 1.24-.179 1.694-.089.448-.234.808-.436 1.079-.202.272-.482.407-.842.407-.164 0-.35-.028-.558-.085l.056-.767c.082.019.158.029.228.029a.614.614 0 00.567-.331c.127-.221.209-.483.246-.786.038-.303.073-.735.105-1.296l.085-1.855h3.851zm1.757 0h.909v3.653l3.075-3.653h.824v5.015h-.909v-3.652l-3.066 3.652h-.833v-5.015zm10.574 0v5.015h-.908v-2.025a3.805 3.805 0 01-1.619.379c-.624 0-1.107-.145-1.448-.436-.34-.29-.511-.725-.511-1.306v-1.627h.909v1.571c0 .347.107.609.322.785.221.177.527.265.918.265.441 0 .918-.11 1.429-.331v-2.29h.908zm6.297 2.536c0 .069-.006.161-.019.274h-4.069a1.6 1.6 0 00.577 1.07c.334.265.748.397 1.24.397.599 0 1.082-.202 1.448-.605l.501.586a2.194 2.194 0 01-.851.606c-.335.139-.71.208-1.127.208-.53 0-1-.107-1.41-.322a2.392 2.392 0 01-.956-.917 2.659 2.659 0 01-.331-1.325c0-.486.108-.925.322-1.316a2.35 2.35 0 01.899-.908 2.558 2.558 0 011.297-.332c.479 0 .905.111 1.277.332.379.214.672.517.88.908.215.391.322.839.322 1.344zm-2.479-1.817c-.436 0-.802.132-1.098.397-.29.265-.461.612-.511 1.041h3.217a1.585 1.585 0 00-.52-1.031c-.29-.271-.653-.407-1.088-.407zm6.075 4.353c-.511 0-.969-.11-1.373-.331a2.462 2.462 0 01-.937-.908 2.593 2.593 0 01-.34-1.325c0-.493.113-.931.34-1.316.228-.391.54-.694.937-.908a2.815 2.815 0 011.373-.332c.454 0 .858.092 1.211.275.36.183.637.448.833.795l-.691.445a1.543 1.543 0 00-.587-.54 1.67 1.67 0 00-.776-.18 1.82 1.82 0 00-.889.218 1.583 1.583 0 00-.616.625 1.882 1.882 0 00-.217.918c0 .353.072.665.217.937.152.264.357.47.616.615.265.145.561.217.889.217.284 0 .543-.06.776-.18.234-.119.429-.299.587-.539l.691.435a2.008 2.008 0 01-.833.805 2.594 2.594 0 01-1.211.274zm6.893-4.277h-1.836v4.22h-.908v-4.22h-1.836v-.795h4.58v.795zm4.346 1.618c.65.164.975.571.975 1.221 0 .441-.168.782-.502 1.022-.328.24-.82.359-1.476.359h-2.414v-5.015h2.328c.593 0 1.057.113 1.392.34.334.221.501.537.501.947 0 .265-.072.495-.217.691a1.313 1.313 0 01-.587.435zm-2.527-.256h1.363c.347 0 .609-.063.785-.189a.625.625 0 00.275-.549c0-.479-.354-.719-1.06-.719h-1.363v1.457zm1.457 2.158c.379 0 .663-.06.852-.18.189-.12.284-.306.284-.558 0-.259-.088-.451-.265-.577-.17-.126-.442-.19-.814-.19h-1.514v1.505h1.457zm5.615.757c-.499 0-.947-.11-1.344-.331a2.448 2.448 0 01-.937-.908 2.649 2.649 0 01-.331-1.325c0-.493.11-.931.331-1.316.227-.391.539-.694.937-.908a2.716 2.716 0 011.344-.332c.498 0 .943.111 1.334.332.398.214.707.517.928.908.227.385.34.823.34 1.316 0 .492-.113.933-.34 1.325-.221.384-.53.687-.928.908a2.664 2.664 0 01-1.334.331zm0-.795c.322 0 .609-.072.861-.217.259-.152.46-.36.606-.625.145-.271.217-.58.217-.927 0-.347-.072-.653-.217-.918a1.522 1.522 0 00-.606-.625 1.695 1.695 0 00-.861-.218c-.322 0-.612.073-.871.218a1.606 1.606 0 00-.606.625 1.882 1.882 0 00-.217.918c0 .347.072.656.217.927.152.265.354.473.606.625.259.145.549.217.871.217zm40.997-5.063h-2.271v5.801h-.927v-5.801h-2.262v-.823h5.46v.823zm5.015 3.322c0 .069-.007.161-.019.274h-4.07c.057.442.25.799.578 1.07.334.265.747.397 1.239.397.6 0 1.082-.202 1.448-.605l.502.586a2.19 2.19 0 01-.852.606c-.334.139-.71.208-1.126.208-.53 0-1-.107-1.41-.322a2.386 2.386 0 01-.956-.917 2.649 2.649 0 01-.331-1.325c0-.486.107-.925.322-1.316.22-.391.52-.694.899-.908a2.556 2.556 0 011.296-.332c.48 0 .906.111 1.278.332.378.214.672.517.88.908.214.391.322.839.322 1.344zm-2.48-1.817c-.435 0-.801.132-1.098.397-.29.265-.46.612-.511 1.041h3.218a1.585 1.585 0 00-.52-1.031c-.291-.271-.653-.407-1.089-.407zm5.839 2.177h-1.041v2.119h-.909v-5.015h.909v2.12h1.06l1.627-2.12h.975l-1.902 2.413 2.035 2.602h-1.07l-1.684-2.119zm7.896-2.896l-2.432 5.517c-.215.511-.467.871-.757 1.079-.284.208-.628.312-1.032.312-.246 0-.486-.041-.719-.123a1.428 1.428 0 01-.568-.341l.388-.681c.259.246.558.369.899.369.221 0 .404-.06.549-.18.151-.113.287-.312.407-.596l.161-.35-2.215-5.006h.947l1.75 4.012 1.732-4.012h.89zm8.075 0v5.015h-7.145v-5.015h.909v4.221h2.214v-4.221h.909v4.221h2.205v-4.221h.908zm.748 4.221v1.864h-.852v-1.07h-.842v-.794h1.694zm2.805-4.269c.694 0 1.224.171 1.59.511.372.341.558.849.558 1.524v3.028h-.861v-.662a1.465 1.465 0 01-.653.539c-.278.12-.609.18-.994.18-.561 0-1.012-.135-1.353-.407a1.31 1.31 0 01-.502-1.069c0-.442.161-.795.483-1.06.322-.271.833-.407 1.533-.407h1.439v-.18c0-.391-.114-.691-.341-.899-.227-.208-.562-.312-1.003-.312-.297 0-.587.05-.871.151a2.176 2.176 0 00-.719.388l-.379-.681c.259-.208.568-.366.928-.473a3.763 3.763 0 011.145-.171zm-.208 4.42c.347 0 .646-.076.899-.227.252-.158.435-.379.549-.663v-.7h-1.401c-.77 0-1.155.259-1.155.776 0 .252.098.451.294.596.195.145.467.218.814.218zm8.014-4.372v5.015h-.814v-1.589h-1.561l-1.098 1.589h-.975l1.221-1.712c-.379-.114-.669-.3-.871-.559-.202-.265-.302-.593-.302-.984 0-.574.195-1.009.586-1.306.391-.303.931-.454 1.619-.454h2.195zm-3.473 1.788c0 .335.104.584.312.748.215.158.533.237.956.237h1.391v-1.978h-1.353c-.871 0-1.306.331-1.306.993zm13.144 2.433v1.996h-.862v-1.202h-4.495v-5.015h.909v4.221h2.744v-4.221h.909v4.221h.795zm5.71-1.685c0 .069-.006.161-.019.274h-4.069a1.6 1.6 0 00.577 1.07c.335.265.748.397 1.24.397.599 0 1.082-.202 1.448-.605l.501.586a2.194 2.194 0 01-.851.606c-.335.139-.71.208-1.126.208-.53 0-1-.107-1.41-.322a2.38 2.38 0 01-.956-.917 2.65 2.65 0 01-.332-1.325c0-.486.108-.925.322-1.316a2.35 2.35 0 01.899-.908 2.558 2.558 0 011.297-.332c.479 0 .905.111 1.277.332.379.214.672.517.88.908.215.391.322.839.322 1.344zm-2.479-1.817c-.436 0-.801.132-1.098.397-.29.265-.461.612-.511 1.041h3.218a1.586 1.586 0 00-.521-1.031c-.29-.271-.653-.407-1.088-.407zm3.889-.719h.908v2.129h2.858v-2.129h.909v5.015h-.909v-2.1h-2.858v2.1h-.908v-5.015zm8.23-.048c.694 0 1.224.171 1.59.511.372.341.558.849.558 1.524v3.028h-.861v-.662a1.465 1.465 0 01-.653.539c-.278.12-.609.18-.994.18-.561 0-1.012-.135-1.353-.407a1.31 1.31 0 01-.502-1.069c0-.442.161-.795.483-1.06.322-.271.833-.407 1.533-.407h1.439v-.18c0-.391-.114-.691-.341-.899-.227-.208-.562-.312-1.003-.312-.297 0-.587.05-.871.151a2.176 2.176 0 00-.719.388l-.379-.681c.259-.208.568-.366.928-.473a3.763 3.763 0 011.145-.171zm-.208 4.42c.347 0 .646-.076.899-.227.252-.158.435-.379.549-.663v-.7H546.3c-.77 0-1.155.259-1.155.776 0 .252.098.451.294.596.195.145.467.218.814.218zm37.866.719a3.719 3.719 0 01-1.798-.435c-.53-.297-.946-.7-1.249-1.211a3.384 3.384 0 01-.454-1.742c0-.643.151-1.221.454-1.732a3.183 3.183 0 011.259-1.211 3.645 3.645 0 011.798-.445c.517 0 .99.089 1.419.265.429.171.795.426 1.098.767l-.615.596c-.499-.524-1.12-.786-1.865-.786a2.7 2.7 0 00-1.334.332 2.43 2.43 0 00-.937.918 2.556 2.556 0 00-.331 1.296c0 .48.11.915.331 1.306.227.385.54.688.937.909.398.221.842.331 1.334.331.739 0 1.36-.265 1.865-.795l.615.596c-.303.341-.672.6-1.107.776a3.69 3.69 0 01-1.42.265zm8.156-5.091l-2.432 5.517c-.215.511-.467.871-.758 1.079-.283.208-.627.312-1.031.312-.246 0-.486-.041-.719-.123a1.421 1.421 0 01-.568-.341l.388-.681c.259.246.558.369.899.369.221 0 .404-.06.549-.18.151-.113.287-.312.407-.596l.161-.35-2.215-5.006h.946l1.751 4.012 1.732-4.012h.89zm6.712 0v5.015h-.823v-3.662l-1.874 3.095h-.397l-1.855-3.104v3.671h-.833v-5.015h.937l1.968 3.388 2.025-3.388h.852zm7.551 0v5.015h-.824v-3.662l-1.873 3.095h-.398l-1.855-3.104v3.671h-.833v-5.015h.937l1.969 3.388 2.025-3.388h.852zm3.557-.048c.694 0 1.224.171 1.59.511.372.341.558.849.558 1.524v3.028h-.861v-.662a1.465 1.465 0 01-.653.539c-.278.12-.609.18-.994.18-.562 0-1.013-.135-1.353-.407a1.307 1.307 0 01-.502-1.069c0-.442.161-.795.483-1.06.322-.271.833-.407 1.533-.407h1.438v-.18c0-.391-.113-.691-.34-.899-.227-.208-.562-.312-1.003-.312-.297 0-.587.05-.871.151a2.176 2.176 0 00-.719.388l-.379-.681c.259-.208.568-.366.928-.473a3.763 3.763 0 011.145-.171zm-.209 4.42c.347 0 .647-.076.899-.227.253-.158.436-.379.549-.663v-.7h-1.4c-.77 0-1.155.259-1.155.776 0 .252.098.451.294.596.195.145.466.218.813.218z" fill="#24252E"/><path d="M210.486 298.346h-3.46l-.66 1.597h-1.768l3.322-7.452h1.703l3.333 7.452h-1.81l-.66-1.597zm-.543-1.309l-1.182-2.853-1.182 2.853h2.364zm10.568 2.906l-.011-4.471-2.193 3.684h-.777l-2.183-3.588v4.375h-1.618v-7.452h1.427l2.789 4.631 2.747-4.631h1.416l.021 7.452h-1.618zm8.294-1.597h-3.46l-.66 1.597h-1.767l3.322-7.452h1.703l3.332 7.452h-1.809l-.661-1.597zm-.543-1.309l-1.181-2.853-1.182 2.853h2.363zm4.956-3.141h-2.385v-1.405h6.495v1.405h-2.385v6.047h-1.725v-6.047zm-22.732 63.006h-3.46l-.66 1.597h-1.768l3.322-7.453h1.703l3.333 7.453h-1.81l-.66-1.597zm-.543-1.309l-1.182-2.854-1.182 2.854h2.364zm10.568 2.906l-.011-4.472-2.193 3.684h-.777l-2.183-3.588v4.376h-1.618v-7.453h1.427l2.789 4.632 2.747-4.632h1.416l.021 7.453h-1.618zm8.422-3.843h1.576v3.023c-.405.305-.873.54-1.405.703a5.472 5.472 0 01-1.608.245c-.774 0-1.469-.163-2.087-.49a3.78 3.78 0 01-1.458-1.373c-.348-.589-.522-1.253-.522-1.991 0-.738.174-1.399.522-1.981a3.657 3.657 0 011.469-1.373c.624-.334 1.327-.5 2.108-.5.653 0 1.246.11 1.778.33.532.22.979.539 1.341.958l-1.107 1.022c-.532-.561-1.175-.841-1.927-.841-.475 0-.898.099-1.267.298a2.14 2.14 0 00-.862.841 2.474 2.474 0 00-.309 1.246c0 .461.103.873.309 1.235.206.362.489.646.851.851.37.199.788.299 1.257.299.497 0 .944-.107 1.341-.32v-2.182zm10.013-3.61v7.453h-1.416l-3.715-4.525v4.525h-1.704v-7.453h1.427l3.705 4.525v-4.525h1.703zm-27.896 62.135c.426.135.76.362 1.001.682.241.312.362.699.362 1.16 0 .653-.256 1.157-.767 1.512-.504.348-1.242.522-2.214.522h-3.854v-7.453h3.641c.908 0 1.604.174 2.087.522.489.347.734.819.734 1.416 0 .362-.088.685-.266.969-.17.283-.412.507-.724.67zm-3.758-2.278v1.757h1.714c.426 0 .749-.075.969-.224.22-.149.33-.369.33-.66 0-.291-.11-.508-.33-.65-.22-.149-.543-.223-.969-.223h-1.714zm2.012 4.855c.454 0 .795-.075 1.022-.224.234-.149.351-.38.351-.692 0-.617-.457-.926-1.373-.926h-2.012v1.842h2.012zm6.139-4.77v1.97h3.45v1.384h-3.45v2.715h-1.724v-7.453h5.632v1.384h-3.908zm8.569 6.196c-.759 0-1.448-.163-2.065-.489a3.796 3.796 0 01-1.448-1.374c-.348-.589-.522-1.253-.522-1.991 0-.738.174-1.398.522-1.98a3.685 3.685 0 011.448-1.373c.617-.334 1.309-.501 2.076-.501.646 0 1.228.114 1.746.341.525.227.965.554 1.32.979l-1.107 1.023c-.504-.582-1.129-.874-1.874-.874-.461 0-.873.103-1.235.309a2.16 2.16 0 00-.852.841 2.533 2.533 0 00-.298 1.235c0 .462.1.873.298 1.235.206.362.49.646.852.852.362.199.774.298 1.235.298.745 0 1.37-.294 1.874-.883l1.107 1.022a3.451 3.451 0 01-1.32.99 4.384 4.384 0 01-1.757.34z" fill="#3E54D8"/><path d="M209.909 313.624h-3.521l-.729 1.656h-.974l3-6.624h.937l3.009 6.624h-.994l-.728-1.656zm-.332-.757l-1.429-3.246-1.429 3.246h2.858zm5.569-2.65c.486 0 .921.107 1.306.322.385.214.684.514.899.899.221.385.331.83.331 1.334 0 .505-.11.953-.331 1.344a2.28 2.28 0 01-.899.899c-.385.215-.82.322-1.306.322-.36 0-.691-.069-.994-.208a2.072 2.072 0 01-.757-.606v2.593h-.908v-6.851h.87v.794a1.9 1.9 0 01.767-.624c.309-.145.65-.218 1.022-.218zm-.076 4.325c.322 0 .609-.072.861-.218.259-.151.461-.359.606-.624.152-.271.227-.581.227-.928 0-.347-.075-.653-.227-.918a1.519 1.519 0 00-.606-.624 1.695 1.695 0 00-.861-.218c-.315 0-.602.076-.861.227-.252.145-.454.35-.606.615a1.882 1.882 0 00-.217.918c0 .347.072.657.217.928.145.265.347.473.606.624.259.146.546.218.861.218zm6.527-4.325c.486 0 .921.107 1.306.322.385.214.684.514.899.899.221.385.331.83.331 1.334 0 .505-.11.953-.331 1.344a2.28 2.28 0 01-.899.899c-.385.215-.82.322-1.306.322-.36 0-.691-.069-.994-.208a2.072 2.072 0 01-.757-.606v2.593h-.909v-6.851h.871v.794a1.9 1.9 0 01.767-.624c.309-.145.65-.218 1.022-.218zm-.076 4.325c.322 0 .609-.072.861-.218.259-.151.461-.359.606-.624.151-.271.227-.581.227-.928 0-.347-.076-.653-.227-.918a1.519 1.519 0 00-.606-.624 1.695 1.695 0 00-.861-.218c-.315 0-.602.076-.861.227a1.62 1.62 0 00-.606.615 1.882 1.882 0 00-.217.918c0 .347.072.657.217.928.145.265.347.473.606.624.259.146.546.218.861.218zm3.867-6.284h.909v7.022h-.909v-7.022zm2.643 2.007h.909v5.015h-.909v-5.015zm.455-.966a.624.624 0 01-.445-.17.564.564 0 01-.17-.416c0-.165.056-.303.17-.417.12-.12.268-.18.445-.18a.59.59 0 01.435.171c.12.107.18.243.18.407 0 .17-.06.315-.18.435a.592.592 0 01-.435.17zm6.722 3.502c0 .069-.007.161-.019.274h-4.07c.057.442.25.798.578 1.07.334.265.747.397 1.239.397.6 0 1.082-.202 1.448-.606l.502.587a2.19 2.19 0 01-.852.606c-.334.139-.71.208-1.126.208-.53 0-1-.107-1.41-.322a2.395 2.395 0 01-.956-.918 2.643 2.643 0 01-.331-1.325c0-.485.107-.924.322-1.315.22-.391.52-.694.899-.909.385-.22.817-.331 1.296-.331.48 0 .906.111 1.278.331.378.215.672.518.88.909.214.391.322.839.322 1.344zm-2.48-1.817c-.435 0-.801.132-1.098.397-.29.265-.46.612-.511 1.041h3.218a1.585 1.585 0 00-.52-1.031c-.291-.272-.653-.407-1.089-.407zm8.473-2.726v7.022h-.871v-.795a1.963 1.963 0 01-.766.634c-.309.146-.65.218-1.022.218-.486 0-.921-.107-1.306-.322a2.344 2.344 0 01-.909-.899 2.754 2.754 0 01-.321-1.344c0-.504.107-.949.321-1.334.221-.385.524-.685.909-.899.385-.215.82-.322 1.306-.322.359 0 .691.07.993.208.303.133.556.332.758.597v-2.764h.908zm-2.584 6.284c.316 0 .603-.072.862-.218a1.6 1.6 0 00.605-.624c.145-.271.218-.581.218-.928 0-.347-.073-.653-.218-.918a1.523 1.523 0 00-.605-.624 1.734 1.734 0 00-.862-.218c-.321 0-.612.073-.87.218a1.604 1.604 0 00-.606.624 1.882 1.882 0 00-.218.918c0 .347.073.657.218.928.152.265.353.473.606.624.258.146.549.218.87.218zm13.119.738l-.01-4.826-2.394 4.022h-.435l-2.394-3.994v4.798h-.909v-6.624h.776l2.763 4.656 2.726-4.656h.776l.009 6.624h-.908zm4.591-5.063c.694 0 1.223.171 1.589.511.373.341.559.849.559 1.524v3.028h-.861v-.662a1.47 1.47 0 01-.653.539c-.278.12-.609.18-.994.18-.562 0-1.013-.136-1.353-.407a1.309 1.309 0 01-.502-1.069c0-.442.161-.795.483-1.06.321-.271.832-.407 1.533-.407h1.438v-.18c0-.391-.113-.691-.34-.899-.228-.208-.562-.312-1.004-.312-.296 0-.586.05-.87.151a2.176 2.176 0 00-.719.388l-.379-.681c.259-.208.568-.366.927-.473.36-.114.742-.171 1.146-.171zm-.209 4.42c.347 0 .647-.076.899-.227.253-.158.436-.379.549-.663v-.7h-1.4c-.77 0-1.155.259-1.155.776 0 .252.098.451.293.596.196.145.467.218.814.218zm6.858.35a1.411 1.411 0 01-.492.265 2.148 2.148 0 01-.606.085c-.504 0-.895-.136-1.173-.407-.278-.271-.416-.659-.416-1.164v-2.754h-.852v-.747h.852v-1.098h.908v1.098h1.439v.747h-1.439v2.716c0 .272.066.48.199.625.139.145.334.218.587.218.277 0 .514-.079.709-.237l.284.653zm5.465-2.186c0 .069-.006.161-.019.274h-4.069c.057.442.249.798.577 1.07.335.265.748.397 1.24.397.599 0 1.082-.202 1.448-.606l.502.587a2.198 2.198 0 01-.852.606c-.335.139-.71.208-1.126.208-.53 0-1-.107-1.41-.322a2.388 2.388 0 01-.956-.918 2.643 2.643 0 01-.331-1.325c0-.485.107-.924.321-1.315.221-.391.521-.694.899-.909.385-.22.817-.331 1.297-.331.479 0 .905.111 1.277.331.379.215.672.518.881.909.214.391.321.839.321 1.344zm-2.479-1.817c-.435 0-.801.132-1.098.397-.29.265-.461.612-.511 1.041h3.218a1.586 1.586 0 00-.521-1.031c-.29-.272-.653-.407-1.088-.407zm4.612.123c.157-.29.391-.511.7-.663.309-.151.684-.227 1.126-.227v.88a1.858 1.858 0 00-.208-.009c-.492 0-.88.148-1.164.445-.278.29-.417.706-.417 1.249v2.498h-.908v-5.015h.871v.842zm2.946-.842h.908v5.015h-.908v-5.015zm.454-.966a.624.624 0 01-.445-.17.568.568 0 01-.17-.416c0-.165.057-.303.17-.417.12-.12.268-.18.445-.18s.322.057.435.171c.12.107.18.243.18.407 0 .17-.06.315-.18.435a.59.59 0 01-.435.17zm4.015.918c.694 0 1.224.171 1.59.511.373.341.559.849.559 1.524v3.028h-.862v-.662a1.46 1.46 0 01-.653.539c-.277.12-.608.18-.993.18-.562 0-1.013-.136-1.354-.407a1.31 1.31 0 01-.501-1.069c0-.442.161-.795.483-1.06.321-.271.832-.407 1.533-.407h1.438v-.18c0-.391-.113-.691-.341-.899-.227-.208-.561-.312-1.003-.312-.296 0-.586.05-.87.151a2.191 2.191 0 00-.72.388l-.378-.681c.259-.208.568-.366.927-.473.36-.114.742-.171 1.145-.171zm-.208 4.42c.347 0 .647-.076.899-.227.253-.158.436-.379.549-.663v-.7h-1.4c-.77 0-1.155.259-1.155.776 0 .252.098.451.293.596.196.145.467.218.814.218zm4.038-6.379h.908v7.022h-.908v-7.022zm4.082 7.079c-.411 0-.805-.054-1.183-.161-.379-.113-.675-.255-.89-.426l.379-.719c.22.158.489.284.804.379.315.094.634.142.956.142.795 0 1.192-.228 1.192-.682a.438.438 0 00-.161-.359.967.967 0 00-.407-.19 7.264 7.264 0 00-.681-.142 6.91 6.91 0 01-.994-.217 1.527 1.527 0 01-.653-.417c-.183-.195-.274-.47-.274-.823 0-.454.189-.817.568-1.088.378-.278.886-.417 1.523-.417.335 0 .669.041 1.004.123.334.082.608.193.823.331l-.388.72c-.41-.265-.893-.398-1.448-.398-.385 0-.678.063-.88.19-.202.126-.303.293-.303.501a.48.48 0 00.17.388c.114.095.253.164.417.208.17.044.407.095.709.152.404.069.729.145.975.227.253.076.467.208.644.397.176.19.265.455.265.795 0 .455-.196.817-.587 1.089-.385.265-.912.397-1.58.397zm6.071-1.296a.56.56 0 01.435.189c.12.12.18.271.18.454 0 .095-.013.186-.038.275-.019.088-.06.223-.123.406l-.445 1.316h-.596l.35-1.41a.631.631 0 01-.293-.218.658.658 0 01-.104-.369.613.613 0 01.634-.643zm4.591-5.385h.946v6.624h-.946v-6.624zm5.475 1.561c.637 0 1.142.186 1.514.559.379.366.568.905.568 1.618v2.886h-.908v-2.782c0-.486-.117-.852-.351-1.098-.233-.246-.567-.369-1.003-.369-.492 0-.88.145-1.164.435-.284.284-.426.694-.426 1.231v2.583h-.908v-5.015h.871v.757c.183-.259.429-.458.738-.597a2.64 2.64 0 011.069-.208zm5.977 5.12a2.81 2.81 0 01-1.372-.331 2.45 2.45 0 01-.937-.909 2.589 2.589 0 01-.341-1.325c0-.492.114-.93.341-1.315.227-.391.54-.694.937-.909.404-.22.861-.331 1.372-.331.455 0 .858.092 1.212.275.359.183.637.448.832.795l-.69.444a1.555 1.555 0 00-.587-.539 1.673 1.673 0 00-.776-.18c-.328 0-.625.073-.89.218a1.591 1.591 0 00-.615.624 1.882 1.882 0 00-.218.918c0 .354.073.666.218.937.152.265.357.47.615.615.265.146.562.218.89.218.284 0 .542-.06.776-.18.233-.12.429-.299.587-.539l.69.435a2.012 2.012 0 01-.832.805 2.598 2.598 0 01-1.212.274zm3.623 0a.636.636 0 01-.454-.18.642.642 0 01-.189-.473.6.6 0 01.189-.454.62.62 0 01.454-.189c.177 0 .325.059.445.179s.18.275.18.464a.64.64 0 01-.19.473.59.59 0 01-.435.18zm-101.729 56.841h-3.521l-.729 1.656h-.974l3-6.625h.937l3.009 6.625h-.994l-.728-1.656zm-.332-.757l-1.429-3.246-1.429 3.246h2.858zm5.569-2.65c.486 0 .921.107 1.306.322.385.214.684.514.899.899.221.385.331.829.331 1.334 0 .505-.11.953-.331 1.344a2.286 2.286 0 01-.899.899c-.385.215-.82.322-1.306.322-.36 0-.691-.07-.994-.208a2.072 2.072 0 01-.757-.606v2.593h-.908v-6.852h.87v.795c.202-.277.458-.486.767-.624.309-.146.65-.218 1.022-.218zm-.076 4.325c.322 0 .609-.073.861-.218.259-.151.461-.359.606-.624.152-.272.227-.581.227-.928 0-.347-.075-.653-.227-.918a1.519 1.519 0 00-.606-.624 1.685 1.685 0 00-.861-.218c-.315 0-.602.076-.861.227-.252.145-.454.35-.606.615a1.882 1.882 0 00-.217.918c0 .347.072.656.217.928.145.265.347.473.606.624.259.145.546.218.861.218zm6.527-4.325c.486 0 .921.107 1.306.322.385.214.684.514.899.899.221.385.331.829.331 1.334 0 .505-.11.953-.331 1.344a2.286 2.286 0 01-.899.899c-.385.215-.82.322-1.306.322-.36 0-.691-.07-.994-.208a2.072 2.072 0 01-.757-.606v2.593h-.909v-6.852h.871v.795c.202-.277.458-.486.767-.624.309-.146.65-.218 1.022-.218zm-.076 4.325c.322 0 .609-.073.861-.218.259-.151.461-.359.606-.624.151-.272.227-.581.227-.928 0-.347-.076-.653-.227-.918a1.519 1.519 0 00-.606-.624 1.685 1.685 0 00-.861-.218c-.315 0-.602.076-.861.227a1.62 1.62 0 00-.606.615 1.882 1.882 0 00-.217.918c0 .347.072.656.217.928.145.265.347.473.606.624.259.145.546.218.861.218zm3.867-6.284h.909v7.022h-.909v-7.022zm2.643 2.006h.909v5.016h-.909v-5.016zm.455-.965a.624.624 0 01-.445-.17.567.567 0 01-.17-.417c0-.164.056-.303.17-.416.12-.12.268-.18.445-.18.176 0 .321.057.435.17.12.108.18.243.18.407 0 .171-.06.316-.18.436a.592.592 0 01-.435.17zm6.722 3.502c0 .069-.007.16-.019.274h-4.07a1.6 1.6 0 00.578 1.069c.334.265.747.398 1.239.398.6 0 1.082-.202 1.448-.606l.502.587a2.19 2.19 0 01-.852.606c-.334.138-.71.208-1.126.208-.53 0-1-.107-1.41-.322a2.395 2.395 0 01-.956-.918 2.646 2.646 0 01-.331-1.325c0-.486.107-.924.322-1.315.22-.391.52-.694.899-.909a2.556 2.556 0 011.296-.331c.48 0 .906.11 1.278.331.378.215.672.518.88.909.214.391.322.839.322 1.344zm-2.48-1.818c-.435 0-.801.133-1.098.398-.29.265-.46.612-.511 1.041h3.218a1.585 1.585 0 00-.52-1.032c-.291-.271-.653-.407-1.089-.407zm8.473-2.725v7.022h-.871v-.795a1.963 1.963 0 01-.766.634c-.309.145-.65.218-1.022.218-.486 0-.921-.107-1.306-.322a2.351 2.351 0 01-.909-.899 2.754 2.754 0 01-.321-1.344c0-.505.107-.949.321-1.334.221-.385.524-.685.909-.899.385-.215.82-.322 1.306-.322.359 0 .691.069.993.208.303.133.556.331.758.596v-2.763h.908zm-2.584 6.284c.316 0 .603-.073.862-.218a1.6 1.6 0 00.605-.624c.145-.272.218-.581.218-.928 0-.347-.073-.653-.218-.918a1.523 1.523 0 00-.605-.624 1.723 1.723 0 00-.862-.218c-.321 0-.612.072-.87.218a1.604 1.604 0 00-.606.624 1.882 1.882 0 00-.218.918c0 .347.073.656.218.928.152.265.353.473.606.624.258.145.549.218.87.218zm13.119.738l-.01-4.826-2.394 4.022h-.435l-2.394-3.994v4.798h-.909v-6.625h.776l2.763 4.657 2.726-4.657h.776l.009 6.625h-.908zm4.912.057c-.498 0-.946-.111-1.344-.331a2.448 2.448 0 01-.936-.909 2.646 2.646 0 01-.332-1.325c0-.492.111-.93.332-1.315.227-.391.539-.694.936-.909a2.72 2.72 0 011.344-.331c.499 0 .943.11 1.335.331.397.215.706.518.927.909.227.385.341.823.341 1.315s-.114.934-.341 1.325c-.221.385-.53.688-.927.909-.392.22-.836.331-1.335.331zm0-.795c.322 0 .609-.073.861-.218.259-.151.461-.359.606-.624.145-.272.218-.581.218-.928 0-.347-.073-.653-.218-.918a1.519 1.519 0 00-.606-.624 1.685 1.685 0 00-.861-.218c-.321 0-.612.072-.87.218a1.597 1.597 0 00-.606.624 1.882 1.882 0 00-.218.918c0 .347.073.656.218.928.151.265.353.473.606.624.258.145.549.218.87.218zm3.859-6.284h.909v7.022h-.909v-7.022zm7.176 4.543c0 .069-.006.16-.018.274h-4.07c.057.442.249.798.577 1.069.335.265.748.398 1.24.398.6 0 1.082-.202 1.448-.606l.502.587a2.19 2.19 0 01-.852.606c-.334.138-.71.208-1.126.208-.53 0-1-.107-1.41-.322a2.395 2.395 0 01-.956-.918 2.646 2.646 0 01-.331-1.325c0-.486.107-.924.321-1.315.221-.391.521-.694.899-.909a2.56 2.56 0 011.297-.331c.479 0 .905.11 1.278.331.378.215.672.518.88.909.214.391.321.839.321 1.344zm-2.479-1.818c-.435 0-.801.133-1.098.398-.29.265-.46.612-.511 1.041h3.218a1.586 1.586 0 00-.521-1.032c-.29-.271-.653-.407-1.088-.407zm5.927 4.354c-.511 0-.968-.111-1.372-.331a2.444 2.444 0 01-.937-.909 2.591 2.591 0 01-.341-1.325c0-.492.114-.93.341-1.315.227-.391.539-.694.937-.909a2.81 2.81 0 011.372-.331c.454 0 .858.091 1.211.274.36.183.638.448.833.795l-.691.445a1.537 1.537 0 00-.586-.539 1.673 1.673 0 00-.776-.18c-.328 0-.625.072-.89.218a1.578 1.578 0 00-.615.624 1.882 1.882 0 00-.218.918c0 .353.073.666.218.937.151.265.356.47.615.615.265.145.562.218.89.218.284 0 .542-.06.776-.18.233-.12.429-.3.586-.539l.691.435a2 2 0 01-.833.804 2.594 2.594 0 01-1.211.275zm7.896-5.073v5.016h-.862v-.757c-.183.259-.426.46-.728.606a2.286 2.286 0 01-.975.208c-.669 0-1.196-.183-1.581-.549-.384-.372-.577-.918-.577-1.637v-2.887h.909v2.783c0 .485.116.854.35 1.107.233.246.568.369 1.003.369.479 0 .858-.145 1.136-.435.277-.291.416-.701.416-1.231v-2.593h.909zm1.729-2.006h.909v7.022h-.909v-7.022zm4.47 1.959c.694 0 1.224.17 1.59.511.372.341.558.849.558 1.524v3.028h-.861v-.662a1.465 1.465 0 01-.653.539c-.278.12-.609.18-.994.18-.561 0-1.012-.136-1.353-.407a1.31 1.31 0 01-.502-1.07c0-.441.161-.795.483-1.059.322-.272.833-.407 1.533-.407h1.438v-.18c0-.391-.113-.691-.34-.899-.227-.208-.562-.313-1.003-.313a2.58 2.58 0 00-.871.152 2.158 2.158 0 00-.719.388l-.379-.682c.259-.208.568-.365.928-.473.359-.113.741-.17 1.145-.17zm-.208 4.419c.347 0 .646-.075.899-.227.252-.157.435-.378.548-.662v-.7h-1.4c-.77 0-1.155.258-1.155.776 0 .252.098.451.294.596.195.145.467.217.814.217zm4.908-3.529c.158-.291.391-.512.7-.663.309-.151.685-.227 1.126-.227v.88a1.846 1.846 0 00-.208-.009c-.492 0-.88.148-1.164.444-.277.291-.416.707-.416 1.25v2.498h-.909v-5.016h.871v.843zm10.275.823h.908v2.583c-.328.272-.71.48-1.145.625a4.28 4.28 0 01-1.363.218c-.668 0-1.271-.145-1.807-.436a3.34 3.34 0 01-1.268-1.211 3.38 3.38 0 01-.455-1.741c0-.644.152-1.224.455-1.742a3.253 3.253 0 011.268-1.211c.542-.29 1.151-.435 1.826-.435.53 0 1.01.088 1.439.265.435.17.804.422 1.107.757l-.587.587a2.667 2.667 0 00-1.921-.767c-.505 0-.959.11-1.363.331a2.374 2.374 0 00-.937.909c-.227.385-.34.82-.34 1.306 0 .479.113.915.34 1.306.228.385.54.687.937.908.404.221.855.331 1.354.331.593 0 1.11-.142 1.552-.425v-2.158zm7.121.871c0 .069-.007.16-.019.274h-4.07a1.6 1.6 0 00.578 1.069c.334.265.747.398 1.239.398.6 0 1.082-.202 1.448-.606l.502.587a2.19 2.19 0 01-.852.606c-.334.138-.71.208-1.126.208-.53 0-1-.107-1.41-.322a2.395 2.395 0 01-.956-.918 2.646 2.646 0 01-.331-1.325c0-.486.107-.924.322-1.315.22-.391.52-.694.899-.909a2.556 2.556 0 011.296-.331c.48 0 .906.11 1.278.331.378.215.672.518.88.909.214.391.322.839.322 1.344zm-2.48-1.818c-.435 0-.801.133-1.098.398-.29.265-.46.612-.511 1.041h3.218a1.585 1.585 0 00-.52-1.032c-.291-.271-.653-.407-1.089-.407zm6.419-.766c.638 0 1.142.186 1.515.558.378.366.567.906.567 1.619v2.886h-.908v-2.782c0-.486-.117-.852-.35-1.098-.234-.246-.568-.369-1.003-.369-.492 0-.88.145-1.164.435-.284.284-.426.694-.426 1.23v2.584h-.909v-5.016h.871v.757c.183-.258.429-.457.738-.596a2.628 2.628 0 011.069-.208zm8.325 2.584c0 .069-.007.16-.019.274h-4.07a1.6 1.6 0 00.578 1.069c.334.265.747.398 1.239.398.6 0 1.082-.202 1.448-.606l.502.587a2.19 2.19 0 01-.852.606c-.334.138-.71.208-1.126.208-.53 0-1-.107-1.41-.322a2.395 2.395 0 01-.956-.918 2.646 2.646 0 01-.331-1.325c0-.486.107-.924.322-1.315.22-.391.52-.694.899-.909a2.553 2.553 0 011.296-.331c.48 0 .906.11 1.278.331.378.215.672.518.88.909.214.391.322.839.322 1.344zm-2.48-1.818c-.435 0-.801.133-1.098.398-.29.265-.46.612-.511 1.041h3.218a1.586 1.586 0 00-.521-1.032c-.29-.271-.653-.407-1.088-.407zm5.18 4.354c-.41 0-.805-.054-1.183-.161-.379-.114-.675-.256-.89-.426l.379-.719c.22.158.489.284.804.378a3.3 3.3 0 00.956.142c.795 0 1.192-.227 1.192-.681a.44.44 0 00-.161-.36.972.972 0 00-.407-.189 7.264 7.264 0 00-.681-.142 6.894 6.894 0 01-.994-.218 1.525 1.525 0 01-.653-.416c-.183-.196-.274-.47-.274-.823 0-.455.189-.817.568-1.089.378-.277.886-.416 1.523-.416.335 0 .669.041 1.004.123a2.7 2.7 0 01.823.331l-.388.719c-.41-.265-.893-.397-1.448-.397-.385 0-.678.063-.88.189-.202.126-.303.294-.303.502a.48.48 0 00.17.388c.114.094.253.164.417.208.17.044.407.095.71.151.403.07.728.146.974.228.253.075.467.208.644.397.176.189.265.454.265.795 0 .454-.196.817-.587 1.088-.385.265-.912.398-1.58.398zm3.302-5.073h.909v5.016h-.909v-5.016zm.454-.965a.623.623 0 01-.444-.17.567.567 0 01-.171-.417.603.603 0 01.615-.596c.177 0 .322.057.436.17.12.108.18.243.18.407 0 .171-.06.316-.18.436a.593.593 0 01-.436.17zm3.628 6.038c-.41 0-.805-.054-1.183-.161-.379-.114-.675-.256-.89-.426l.379-.719a2.7 2.7 0 00.804.378 3.3 3.3 0 00.956.142c.795 0 1.193-.227 1.193-.681a.443.443 0 00-.161-.36.984.984 0 00-.407-.189 7.37 7.37 0 00-.682-.142 6.877 6.877 0 01-.993-.218 1.519 1.519 0 01-.653-.416c-.183-.196-.275-.47-.275-.823 0-.455.189-.817.568-1.089.379-.277.886-.416 1.524-.416.334 0 .668.041 1.003.123.334.082.609.192.823.331l-.388.719c-.41-.265-.893-.397-1.448-.397-.385 0-.678.063-.88.189-.202.126-.303.294-.303.502 0 .164.057.293.171.388.113.094.252.164.416.208.17.044.407.095.71.151.404.07.728.146.975.228.252.075.466.208.643.397.177.189.265.454.265.795 0 .454-.196.817-.587 1.088-.385.265-.911.398-1.58.398zm-119.525 55.066c.385.108.688.303.909.587.22.278.331.631.331 1.06 0 .574-.218 1.016-.653 1.325-.429.309-1.057.464-1.883.464h-3.161v-6.625h2.971c.757 0 1.341.151 1.751.454.417.303.625.723.625 1.259 0 .347-.082.647-.246.899a1.543 1.543 0 01-.644.577zm-3.511-2.422v2.119h1.94c.486 0 .858-.088 1.117-.265.265-.183.397-.447.397-.794 0-.347-.132-.609-.397-.786-.259-.183-.631-.274-1.117-.274h-1.94zm2.177 5.091c.536 0 .94-.088 1.211-.265.271-.177.407-.454.407-.833 0-.738-.539-1.107-1.618-1.107h-2.177v2.205h2.177zm4.777-3.407c.158-.29.392-.511.701-.662.309-.152.684-.227 1.126-.227v.88a1.621 1.621 0 00-.208-.01c-.492 0-.88.148-1.164.445-.278.29-.417.707-.417 1.249v2.499h-.908v-5.016h.87v.842zm5.049 4.23c-.499 0-.947-.11-1.344-.331a2.448 2.448 0 01-.937-.908 2.649 2.649 0 01-.331-1.325c0-.492.11-.931.331-1.316.227-.391.539-.694.937-.908a2.716 2.716 0 011.344-.331c.498 0 .943.11 1.334.331.397.214.707.517.927.908.228.385.341.824.341 1.316 0 .492-.113.933-.341 1.325a2.38 2.38 0 01-.927.908 2.664 2.664 0 01-1.334.331zm0-.795a1.7 1.7 0 00.861-.217c.258-.152.46-.36.605-.625.146-.271.218-.58.218-.927 0-.347-.072-.653-.218-.918a1.52 1.52 0 00-.605-.625 1.7 1.7 0 00-.861-.218c-.322 0-.612.073-.871.218a1.606 1.606 0 00-.606.625 1.882 1.882 0 00-.217.918c0 .347.072.656.217.927.152.265.354.473.606.625.259.145.549.217.871.217zm11.31-4.277l-1.874 5.016h-.871l-1.448-3.805-1.466 3.805h-.871l-1.864-5.016h.861l1.457 3.994 1.514-3.994h.767l1.486 4.012 1.495-4.012h.814zm3.6-.047c.637 0 1.142.186 1.514.558.379.366.568.905.568 1.618v2.887h-.909v-2.783c0-.486-.116-.851-.35-1.098-.233-.246-.568-.369-1.003-.369-.492 0-.88.146-1.164.436-.284.284-.426.694-.426 1.23v2.584h-.908v-5.016h.87v.757a1.77 1.77 0 01.738-.596 2.629 2.629 0 011.07-.208zm3.441 2.072h2.546v.786h-2.546v-.786zm5.024-2.811v2.309h3.322v.814h-3.322v2.679h-.946v-6.625h4.675v.823h-3.729zm6.919 5.858c-.498 0-.946-.11-1.343-.331a2.448 2.448 0 01-.937-.908 2.65 2.65 0 01-.332-1.325c0-.492.111-.931.332-1.316.227-.391.539-.694.937-.908a2.714 2.714 0 011.343-.331c.499 0 .944.11 1.335.331.397.214.706.517.927.908.227.385.341.824.341 1.316 0 .492-.114.933-.341 1.325-.221.384-.53.687-.927.908a2.665 2.665 0 01-1.335.331zm0-.795c.322 0 .609-.072.862-.217.258-.152.46-.36.605-.625.145-.271.218-.58.218-.927 0-.347-.073-.653-.218-.918a1.52 1.52 0 00-.605-.625 1.702 1.702 0 00-.862-.218c-.321 0-.612.073-.87.218a1.593 1.593 0 00-.606.625 1.882 1.882 0 00-.218.918c0 .347.073.656.218.927.151.265.353.473.606.625.258.145.549.217.87.217zm4.73-3.435a1.55 1.55 0 01.7-.662c.309-.152.685-.227 1.126-.227v.88a1.6 1.6 0 00-.208-.01c-.492 0-.88.148-1.164.445-.277.29-.416.707-.416 1.249v2.499h-.909v-5.016h.871v.842zm9.221-.889c.63 0 1.129.182 1.495.548.372.366.558.909.558 1.628v2.887h-.908v-2.783c0-.486-.114-.851-.341-1.098-.221-.246-.539-.369-.956-.369-.46 0-.826.146-1.098.436-.271.284-.407.694-.407 1.23v2.584h-.908v-2.783c0-.486-.114-.851-.341-1.098-.221-.246-.539-.369-.956-.369-.46 0-.826.146-1.097.436-.272.284-.407.694-.407 1.23v2.584h-.909v-5.016h.871v.747c.183-.258.423-.454.719-.586a2.36 2.36 0 011.013-.208c.391 0 .738.078 1.041.236.303.158.536.388.7.691.189-.29.451-.517.785-.681a2.61 2.61 0 011.146-.246zm5.551 0c.694 0 1.224.17 1.59.511.372.34.559.848.559 1.523v3.029h-.862v-.663a1.461 1.461 0 01-.653.54c-.277.119-.608.179-.993.179-.562 0-1.013-.135-1.354-.407a1.31 1.31 0 01-.501-1.069c0-.442.161-.795.482-1.06.322-.271.833-.407 1.534-.407h1.438v-.18c0-.391-.113-.69-.341-.899-.227-.208-.561-.312-1.003-.312-.296 0-.587.05-.87.151a2.191 2.191 0 00-.72.388l-.378-.681a2.68 2.68 0 01.927-.473c.36-.114.742-.17 1.145-.17zm-.208 4.419c.347 0 .647-.076.899-.227.253-.158.436-.379.549-.663v-.7h-1.401c-.769 0-1.154.259-1.154.776 0 .253.098.451.293.596.196.145.467.218.814.218zm6.716-4.419c.637 0 1.142.186 1.514.558.379.366.568.905.568 1.618v2.887h-.908v-2.783c0-.486-.117-.851-.351-1.098-.233-.246-.567-.369-1.003-.369-.492 0-.88.146-1.164.436-.284.284-.426.694-.426 1.23v2.584h-.908v-5.016h.871v.757c.182-.259.429-.457.738-.596a2.624 2.624 0 011.069-.208zm9.4 5.138a3.723 3.723 0 01-1.799-.435c-.53-.297-.946-.7-1.249-1.211a3.384 3.384 0 01-.454-1.742c0-.643.151-1.221.454-1.732a3.19 3.19 0 011.259-1.211 3.659 3.659 0 011.798-.445c.517 0 .991.089 1.42.265.429.171.794.426 1.097.767l-.615.596c-.498-.524-1.12-.785-1.864-.785-.492 0-.937.11-1.335.331a2.428 2.428 0 00-.936.918 2.556 2.556 0 00-.332 1.296c0 .48.111.915.332 1.306.227.385.539.688.936.909.398.221.843.331 1.335.331.738 0 1.359-.265 1.864-.795l.615.596c-.303.341-.672.6-1.107.776a3.686 3.686 0 01-1.419.265zm5.68-.019c-.499 0-.947-.11-1.344-.331a2.448 2.448 0 01-.937-.908 2.649 2.649 0 01-.331-1.325c0-.492.11-.931.331-1.316.227-.391.539-.694.937-.908a2.716 2.716 0 011.344-.331c.498 0 .943.11 1.334.331.397.214.707.517.927.908.227.385.341.824.341 1.316 0 .492-.114.933-.341 1.325a2.38 2.38 0 01-.927.908 2.664 2.664 0 01-1.334.331zm0-.795a1.7 1.7 0 00.861-.217c.258-.152.46-.36.605-.625.146-.271.218-.58.218-.927 0-.347-.072-.653-.218-.918a1.52 1.52 0 00-.605-.625 1.7 1.7 0 00-.861-.218c-.322 0-.612.073-.871.218a1.606 1.606 0 00-.606.625 1.882 1.882 0 00-.217.918c0 .347.072.656.217.927.152.265.354.473.606.625.259.145.549.217.871.217zm4.729-3.435a1.55 1.55 0 01.7-.662c.31-.152.685-.227 1.127-.227v.88a1.628 1.628 0 00-.209-.01c-.492 0-.88.148-1.164.445-.277.29-.416.707-.416 1.249v2.499h-.908v-5.016h.87v.842zm5.606-.889c.485 0 .921.107 1.306.321.385.215.684.514.899.899.221.385.331.83.331 1.335 0 .504-.11.952-.331 1.344a2.293 2.293 0 01-.899.899 2.644 2.644 0 01-1.306.321c-.36 0-.691-.069-.994-.208a2.064 2.064 0 01-.757-.606v2.594h-.909v-6.852h.871v.795c.202-.278.457-.486.767-.625a2.373 2.373 0 011.022-.217zm-.076 4.324c.322 0 .609-.072.861-.217.259-.152.461-.36.606-.625.151-.271.227-.58.227-.927 0-.347-.076-.653-.227-.918a1.516 1.516 0 00-.606-.625 1.695 1.695 0 00-.861-.218 1.667 1.667 0 00-1.467.843 1.882 1.882 0 00-.218.918c0 .347.073.656.218.927.145.265.347.473.606.625.258.145.546.217.861.217zm6.015.795c-.498 0-.946-.11-1.343-.331a2.448 2.448 0 01-.937-.908 2.65 2.65 0 01-.332-1.325c0-.492.111-.931.332-1.316.227-.391.539-.694.937-.908a2.714 2.714 0 011.343-.331c.499 0 .944.11 1.335.331.397.214.706.517.927.908.227.385.341.824.341 1.316 0 .492-.114.933-.341 1.325-.221.384-.53.687-.927.908a2.665 2.665 0 01-1.335.331zm0-.795c.322 0 .609-.072.862-.217.258-.152.46-.36.605-.625.145-.271.218-.58.218-.927 0-.347-.073-.653-.218-.918a1.52 1.52 0 00-.605-.625 1.702 1.702 0 00-.862-.218c-.321 0-.612.073-.87.218a1.6 1.6 0 00-.606.625 1.882 1.882 0 00-.218.918c0 .347.073.656.218.927a1.7 1.7 0 00.606.625c.258.145.549.217.87.217zm4.73-3.435a1.55 1.55 0 01.7-.662c.309-.152.685-.227 1.127-.227v.88a1.628 1.628 0 00-.209-.01c-.492 0-.88.148-1.164.445-.277.29-.416.707-.416 1.249v2.499h-.909v-5.016h.871v.842zm5.606-.889c.485 0 .921.107 1.306.321.384.215.684.514.899.899.22.385.331.83.331 1.335a2.7 2.7 0 01-.331 1.344 2.3 2.3 0 01-.899.899 2.644 2.644 0 01-1.306.321c-.36 0-.691-.069-.994-.208a2.064 2.064 0 01-.757-.606v2.594h-.909v-6.852h.871v.795a1.89 1.89 0 01.766-.625c.31-.145.65-.217 1.023-.217zm-.076 4.324c.322 0 .609-.072.861-.217.259-.152.461-.36.606-.625.151-.271.227-.58.227-.927 0-.347-.076-.653-.227-.918a1.516 1.516 0 00-.606-.625 1.695 1.695 0 00-.861-.218 1.665 1.665 0 00-1.467.843 1.882 1.882 0 00-.218.918c0 .347.073.656.218.927.145.265.347.473.606.625.258.145.545.217.861.217zm6.015.795a2.72 2.72 0 01-1.344-.331 2.452 2.452 0 01-.936-.908 2.65 2.65 0 01-.332-1.325c0-.492.111-.931.332-1.316.227-.391.539-.694.936-.908a2.72 2.72 0 011.344-.331c.499 0 .944.11 1.335.331.397.214.706.517.927.908.227.385.341.824.341 1.316 0 .492-.114.933-.341 1.325-.221.384-.53.687-.927.908a2.665 2.665 0 01-1.335.331zm0-.795c.322 0 .609-.072.861-.217.259-.152.461-.36.606-.625.145-.271.218-.58.218-.927 0-.347-.073-.653-.218-.918a1.516 1.516 0 00-.606-.625 1.695 1.695 0 00-.861-.218c-.321 0-.612.073-.87.218a1.593 1.593 0 00-.606.625 1.882 1.882 0 00-.218.918c0 .347.073.656.218.927.151.265.353.473.606.625.258.145.549.217.87.217zm4.73-3.435a1.55 1.55 0 01.7-.662c.309-.152.685-.227 1.126-.227v.88a1.6 1.6 0 00-.208-.01c-.492 0-.88.148-1.164.445-.277.29-.416.707-.416 1.249v2.499h-.909v-5.016h.871v.842zm4.763-.889c.694 0 1.224.17 1.59.511.372.34.559.848.559 1.523v3.029h-.862v-.663a1.461 1.461 0 01-.653.54c-.277.119-.608.179-.993.179-.562 0-1.013-.135-1.354-.407a1.31 1.31 0 01-.501-1.069c0-.442.161-.795.483-1.06.321-.271.832-.407 1.533-.407h1.438v-.18c0-.391-.113-.69-.341-.899-.227-.208-.561-.312-1.003-.312-.296 0-.586.05-.87.151a2.191 2.191 0 00-.72.388l-.378-.681c.259-.208.568-.366.927-.473.36-.114.742-.17 1.145-.17zm-.208 4.419c.347 0 .647-.076.899-.227.253-.158.436-.379.549-.663v-.7h-1.401c-.769 0-1.154.259-1.154.776 0 .253.098.451.293.596.196.145.467.218.814.218zm6.858.35a1.395 1.395 0 01-.492.265 2.159 2.159 0 01-.606.085c-.504 0-.896-.135-1.173-.407-.278-.271-.417-.659-.417-1.164v-2.754h-.851v-.747h.851v-1.098h.909v1.098h1.438v.747h-1.438v2.717c0 .271.066.479.199.624.138.145.334.218.586.218.278 0 .515-.079.71-.237l.284.653zm1.098-4.722h.909v5.016h-.909v-5.016zm.455-.965a.62.62 0 01-.445-.171.563.563 0 01-.17-.416c0-.164.056-.303.17-.417a.607.607 0 01.445-.179c.176 0 .321.056.435.17.12.107.18.243.18.407 0 .17-.06.315-.18.435a.59.59 0 01-.435.171zm4.337 6.037c-.499 0-.947-.11-1.344-.331a2.455 2.455 0 01-.937-.908 2.649 2.649 0 01-.331-1.325c0-.492.11-.931.331-1.316.227-.391.54-.694.937-.908a2.716 2.716 0 011.344-.331c.498 0 .943.11 1.334.331.398.214.707.517.928.908.227.385.34.824.34 1.316 0 .492-.113.933-.34 1.325-.221.384-.53.687-.928.908a2.664 2.664 0 01-1.334.331zm0-.795c.322 0 .609-.072.861-.217.259-.152.461-.36.606-.625.145-.271.217-.58.217-.927 0-.347-.072-.653-.217-.918a1.516 1.516 0 00-.606-.625 1.695 1.695 0 00-.861-.218c-.322 0-.612.073-.871.218a1.597 1.597 0 00-.605.625 1.871 1.871 0 00-.218.918c0 .347.072.656.218.927.151.265.353.473.605.625.259.145.549.217.871.217zm6.537-4.324c.637 0 1.142.186 1.514.558.379.366.568.905.568 1.618v2.887h-.909v-2.783c0-.486-.116-.851-.35-1.098-.233-.246-.567-.369-1.003-.369-.492 0-.88.146-1.164.436-.284.284-.426.694-.426 1.23v2.584h-.908v-5.016h.87v.757c.183-.259.429-.457.739-.596a2.624 2.624 0 011.069-.208zm5.202 5.119c-.41 0-.805-.053-1.183-.161-.379-.113-.675-.255-.89-.425l.379-.72c.221.158.489.284.804.379a3.3 3.3 0 00.956.142c.795 0 1.192-.227 1.192-.682a.44.44 0 00-.16-.359.972.972 0 00-.407-.189 6.756 6.756 0 00-.682-.142 6.847 6.847 0 01-.993-.218 1.528 1.528 0 01-.653-.416c-.183-.196-.275-.47-.275-.824 0-.454.189-.817.568-1.088.379-.278.886-.416 1.524-.416.334 0 .668.041 1.003.123.334.082.609.192.823.331l-.388.719c-.41-.265-.893-.397-1.448-.397-.385 0-.678.063-.88.189-.202.126-.303.293-.303.501 0 .164.057.294.171.388.113.095.252.164.416.209.17.044.407.094.71.151.404.069.728.145.974.227.253.076.467.208.644.398.177.189.265.454.265.795 0 .454-.196.817-.587 1.088-.385.265-.911.397-1.58.397z" fill="#929398"/><path stroke="#E6EEFF" stroke-width=".591" stroke-linecap="round" d="M204.99 332.008h571.959"/><path d="M482.974 300.179v7.453h-1.054v-6.527h-1.682v-.926h2.736zm6.868 6.527v.926h-5.355v-.724l3.035-2.928c.369-.355.617-.66.745-.916a1.78 1.78 0 00.191-.787c0-.391-.138-.692-.415-.905-.27-.22-.66-.33-1.171-.33-.823 0-1.459.269-1.906.809l-.724-.628a2.914 2.914 0 011.14-.831 4.068 4.068 0 011.586-.298c.781 0 1.402.188 1.863.564.461.369.692.873.692 1.512 0 .398-.085.774-.255 1.129-.171.355-.494.759-.969 1.213l-2.279 2.194h3.822zm6.114 0v.926h-5.355v-.724l3.034-2.928c.369-.355.617-.66.745-.916.128-.262.192-.525.192-.787 0-.391-.139-.692-.415-.905-.27-.22-.66-.33-1.171-.33-.824 0-1.459.269-1.906.809l-.724-.628a2.918 2.918 0 011.139-.831 4.071 4.071 0 011.586-.298c.781 0 1.402.188 1.864.564.461.369.692.873.692 1.512 0 .398-.086.774-.256 1.129s-.493.759-.969 1.213l-2.278 2.194h3.822zm1.682.99a.715.715 0 01-.511-.203.721.721 0 01-.213-.532c0-.206.071-.376.213-.511a.696.696 0 01.511-.213c.199 0 .365.068.5.202a.707.707 0 01.203.522c0 .213-.071.39-.213.532a.667.667 0 01-.49.203zm3.885-7.517v7.453h-1.054v-6.527h-1.683v-.926h2.737zm4.675 7.538a2.84 2.84 0 01-1.576-.447c-.454-.305-.813-.745-1.075-1.32-.263-.575-.394-1.257-.394-2.044 0-.788.131-1.47.394-2.045.262-.575.621-1.011 1.075-1.309a2.793 2.793 0 011.576-.458c.582 0 1.1.153 1.554.458.461.298.823.734 1.086 1.309.263.575.394 1.257.394 2.045 0 .787-.131 1.469-.394 2.044s-.625 1.015-1.086 1.32a2.768 2.768 0 01-1.554.447zm0-.948c.596 0 1.071-.244 1.426-.734.362-.49.543-1.2.543-2.129 0-.93-.181-1.64-.543-2.13-.355-.49-.83-.734-1.426-.734-.604 0-1.086.244-1.448.734-.355.49-.533 1.2-.533 2.13 0 .929.178 1.639.533 2.129.362.49.844.734 1.448.734zm12.579-1.171c0 .561-.213 1.037-.639 1.427-.418.39-1.029.617-1.831.681v1.203h-.681v-1.203a5.36 5.36 0 01-1.48-.287c-.462-.17-.831-.383-1.107-.639l.394-.83c.255.234.578.429.968.585.391.149.799.238 1.225.266v-2.47a8.072 8.072 0 01-1.246-.394 2.178 2.178 0 01-.83-.628c-.22-.276-.33-.638-.33-1.086 0-.56.202-1.036.606-1.426.412-.391 1.012-.618 1.8-.682v-1.213h.681v1.203c.405.014.795.078 1.171.191.383.114.714.266.99.458l-.351.852a3.746 3.746 0 00-1.81-.596v2.48c.518.128.944.263 1.278.405.333.135.614.341.841.617.234.27.351.632.351 1.086zm-4.514-3.417c0 .305.117.543.351.713.235.17.572.312 1.012.426v-2.3c-.455.057-.795.192-1.022.405a.983.983 0 00-.341.756zm2.044 4.61c.476-.043.831-.163 1.065-.362a.97.97 0 00.362-.767c0-.312-.124-.55-.373-.713-.241-.17-.593-.32-1.054-.447v2.289zm67.545-3.684c.49 0 .926.092 1.309.277a2.132 2.132 0 011.246 1.98c0 .469-.117.88-.351 1.235a2.301 2.301 0 01-.948.831 3.057 3.057 0 01-1.341.287c-1.001 0-1.775-.323-2.321-.969-.54-.646-.809-1.561-.809-2.747 0-.83.145-1.536.436-2.118.298-.589.71-1.033 1.235-1.331.532-.305 1.15-.458 1.853-.458a4.3 4.3 0 011.022.117c.319.071.596.178.83.32l-.405.83c-.354-.234-.83-.351-1.426-.351-.774 0-1.381.241-1.821.724-.44.475-.66 1.171-.66 2.086 0 .114.004.203.011.267.213-.32.504-.561.873-.724a3.025 3.025 0 011.267-.256zm-.128 3.748c.49 0 .887-.132 1.192-.394.306-.263.458-.614.458-1.054 0-.44-.156-.788-.468-1.044-.305-.262-.717-.394-1.235-.394-.334 0-.632.064-.895.192a1.56 1.56 0 00-.606.522c-.142.22-.213.465-.213.734 0 .263.067.504.202.724.142.213.344.387.607.522.27.128.589.192.958.192zm5.794-6.676v7.453h-1.054v-6.527h-1.682v-.926h2.736zm4.675 7.538a2.843 2.843 0 01-1.576-.447c-.454-.305-.813-.745-1.075-1.32-.263-.575-.394-1.257-.394-2.044 0-.788.131-1.47.394-2.045.262-.575.621-1.011 1.075-1.309a2.795 2.795 0 011.576-.458c.582 0 1.1.153 1.554.458.462.298.824.734 1.086 1.309.263.575.394 1.257.394 2.045 0 .787-.131 1.469-.394 2.044-.262.575-.624 1.015-1.086 1.32a2.768 2.768 0 01-1.554.447zm0-.948c.596 0 1.072-.244 1.427-.734.362-.49.543-1.2.543-2.129 0-.93-.181-1.64-.543-2.13-.355-.49-.831-.734-1.427-.734-.603 0-1.086.244-1.448.734-.355.49-.532 1.2-.532 2.13 0 .929.177 1.639.532 2.129.362.49.845.734 1.448.734zm4.634.927a.715.715 0 01-.511-.203.721.721 0 01-.213-.532c0-.206.071-.376.213-.511a.696.696 0 01.511-.213.68.68 0 01.5.202.707.707 0 01.203.522c0 .213-.071.39-.213.532a.667.667 0 01-.49.203zm3.839-4.546c1.064 0 1.845.202 2.342.606.504.398.756.944.756 1.64 0 .44-.106.838-.319 1.192-.206.348-.522.625-.948.831-.419.199-.937.298-1.554.298a4.987 4.987 0 01-1.523-.234c-.49-.163-.894-.387-1.214-.671l.49-.841a2.9 2.9 0 00.98.586c.397.141.816.212 1.256.212.561 0 .994-.117 1.299-.351.312-.241.468-.568.468-.979 0-.448-.17-.785-.511-1.012-.34-.234-.922-.351-1.746-.351h-1.693l.394-3.897h4.206v.926h-3.311l-.203 2.045h.831zm12.507 2.448c0 .561-.213 1.037-.639 1.427-.418.39-1.029.617-1.831.681v1.203h-.681v-1.203a5.36 5.36 0 01-1.48-.287c-.461-.17-.831-.383-1.107-.639l.394-.83c.255.234.578.429.968.585.391.149.799.238 1.225.266v-2.47a8.072 8.072 0 01-1.246-.394 2.178 2.178 0 01-.83-.628c-.22-.276-.33-.638-.33-1.086 0-.56.202-1.036.606-1.426.412-.391 1.012-.618 1.8-.682v-1.213h.681v1.203c.405.014.795.078 1.171.191.384.114.714.266.99.458l-.351.852a3.746 3.746 0 00-1.81-.596v2.48c.518.128.944.263 1.278.405.333.135.614.341.841.617.234.27.351.632.351 1.086zm-4.514-3.417c0 .305.117.543.351.713.235.17.572.312 1.012.426v-2.3c-.454.057-.795.192-1.022.405a.983.983 0 00-.341.756zm2.044 4.61c.476-.043.831-.163 1.065-.362a.97.97 0 00.362-.767c0-.312-.124-.55-.373-.713-.241-.17-.592-.32-1.054-.447v2.289zm-129.186 54.482c.731.071 1.288.298 1.672.682.383.376.575.858.575 1.448 0 .425-.107.812-.32 1.16-.213.341-.532.614-.958.82-.419.199-.933.298-1.544.298a5.023 5.023 0 01-1.533-.234c-.49-.164-.891-.387-1.203-.671l.49-.841c.255.241.582.436.979.585.398.142.82.213 1.267.213.554 0 .983-.117 1.288-.351.313-.234.469-.557.469-.969 0-.412-.153-.731-.458-.958-.305-.227-.766-.341-1.384-.341h-.596v-.745l1.874-2.3h-3.588v-.926h4.918v.724l-1.948 2.406zm6.041 0c.731.071 1.288.298 1.671.682.384.376.575.858.575 1.448 0 .425-.106.812-.319 1.16-.213.341-.532.614-.958.82-.419.199-.934.298-1.544.298a5.023 5.023 0 01-1.533-.234c-.49-.164-.891-.387-1.203-.671l.49-.841c.255.241.582.436.979.585.397.142.82.213 1.267.213.554 0 .983-.117 1.288-.351.312-.234.469-.557.469-.969 0-.412-.153-.731-.458-.958-.305-.227-.767-.341-1.384-.341h-.596v-.745l1.873-2.3h-3.588v-.926h4.919v.724l-1.948 2.406zm9.723 2.491h-1.416v1.832h-1.033v-1.832h-4.141v-.745l3.811-4.876h1.15L494 362.849h2.864v-1.618h1.001v1.618h1.416v.915zm1.549 1.896a.715.715 0 01-.511-.203.721.721 0 01-.213-.532c0-.206.071-.376.213-.511a.696.696 0 01.511-.213c.199 0 .365.067.5.202a.707.707 0 01.203.522c0 .213-.071.39-.213.532a.669.669 0 01-.49.203zm3.884-7.517v7.453h-1.054v-6.527h-1.682v-.926h2.736zm4.676 7.538c-.59 0-1.115-.149-1.576-.447-.454-.305-.813-.746-1.075-1.32-.263-.575-.394-1.257-.394-2.045 0-.787.131-1.469.394-2.044.262-.575.621-1.011 1.075-1.309a2.79 2.79 0 011.576-.458c.582 0 1.1.153 1.554.458.461.298.823.734 1.086 1.309.263.575.394 1.257.394 2.044 0 .788-.131 1.47-.394 2.045-.263.574-.625 1.015-1.086 1.32a2.768 2.768 0 01-1.554.447zm0-.948c.596 0 1.071-.245 1.426-.734.362-.49.543-1.2.543-2.13 0-.929-.181-1.639-.543-2.129-.355-.49-.83-.735-1.426-.735-.604 0-1.086.245-1.448.735-.355.49-.533 1.2-.533 2.129 0 .93.178 1.64.533 2.13.362.489.844.734 1.448.734zm12.579-1.171c0 .561-.213 1.036-.639 1.427-.419.39-1.029.617-1.831.681v1.203h-.681v-1.203a5.352 5.352 0 01-1.48-.287c-.462-.171-.831-.384-1.108-.639l.394-.83c.256.234.579.429.969.585.391.149.799.238 1.225.266v-2.47a8.072 8.072 0 01-1.246-.394 2.18 2.18 0 01-.83-.628c-.221-.277-.331-.639-.331-1.086 0-.56.203-1.036.607-1.426.412-.391 1.012-.618 1.8-.682v-1.214h.681v1.204c.405.014.795.078 1.171.191.383.114.713.266.99.458l-.351.852a3.746 3.746 0 00-1.81-.596v2.48c.518.128.944.263 1.278.405.333.135.614.34.841.617.234.27.351.632.351 1.086zm-4.514-3.417c0 .305.117.543.351.713.234.17.572.312 1.012.426v-2.3c-.455.057-.795.192-1.022.405a.98.98 0 00-.341.756zm2.044 4.61c.476-.043.83-.164 1.065-.362a.97.97 0 00.362-.767c0-.312-.125-.55-.373-.713-.241-.171-.593-.32-1.054-.447v2.289zm67.621-.991h-1.416v1.832h-1.032v-1.832h-4.142v-.745l3.812-4.876h1.149l-3.651 4.706h2.864v-1.618h1v1.618h1.416v.915zm3.683 1.917a2.837 2.837 0 01-1.575-.447c-.455-.305-.813-.746-1.076-1.32-.262-.575-.393-1.257-.393-2.045 0-.787.131-1.469.393-2.044.263-.575.621-1.011 1.076-1.309a2.79 2.79 0 011.575-.458c.582 0 1.101.153 1.555.458.461.298.823.734 1.086 1.309.262.575.394 1.257.394 2.044 0 .788-.132 1.47-.394 2.045-.263.574-.625 1.015-1.086 1.32a2.771 2.771 0 01-1.555.447zm0-.948c.597 0 1.072-.245 1.427-.734.362-.49.543-1.2.543-2.13 0-.929-.181-1.639-.543-2.129-.355-.49-.83-.735-1.427-.735-.603 0-1.086.245-1.447.735-.355.49-.533 1.2-.533 2.129 0 .93.178 1.64.533 2.13.361.489.844.734 1.447.734zm7.102.948a2.84 2.84 0 01-1.576-.447c-.454-.305-.813-.746-1.075-1.32-.263-.575-.394-1.257-.394-2.045 0-.787.131-1.469.394-2.044.262-.575.621-1.011 1.075-1.309a2.793 2.793 0 011.576-.458c.582 0 1.1.153 1.554.458.461.298.823.734 1.086 1.309.263.575.394 1.257.394 2.044 0 .788-.131 1.47-.394 2.045-.263.574-.625 1.015-1.086 1.32a2.768 2.768 0 01-1.554.447zm0-.948c.596 0 1.071-.245 1.426-.734.362-.49.543-1.2.543-2.13 0-.929-.181-1.639-.543-2.129-.355-.49-.83-.735-1.426-.735-.604 0-1.086.245-1.448.735-.355.49-.533 1.2-.533 2.129 0 .93.178 1.64.533 2.13.362.489.844.734 1.448.734zm6.473-6.675c1 0 1.771.323 2.31.969.547.646.82 1.561.82 2.747 0 .83-.149 1.54-.447 2.129a3.078 3.078 0 01-1.235 1.331c-.526.298-1.14.447-1.842.447-.362 0-.703-.036-1.022-.107a2.932 2.932 0 01-.831-.33l.405-.83c.362.234.841.351 1.437.351.774 0 1.377-.238 1.81-.713.44-.483.66-1.182.66-2.097v-.267c-.213.32-.507.565-.884.735a3.152 3.152 0 01-1.266.245c-.49 0-.93-.092-1.321-.277a2.171 2.171 0 01-.905-.788 2.236 2.236 0 01-.319-1.192c0-.469.114-.88.341-1.235.234-.355.55-.628.947-.82a2.958 2.958 0 011.342-.298zm.096 3.748c.333 0 .631-.064.894-.192a1.47 1.47 0 00.607-.522 1.28 1.28 0 00.223-.734c0-.263-.071-.501-.213-.714a1.373 1.373 0 00-.607-.521c-.262-.135-.582-.203-.958-.203-.489 0-.887.132-1.192.394-.298.263-.447.614-.447 1.054 0 .44.152.792.457 1.054.306.256.717.384 1.236.384zm4.636 3.854a.715.715 0 01-.511-.203.721.721 0 01-.213-.532c0-.206.071-.376.213-.511a.696.696 0 01.511-.213.68.68 0 01.5.202.706.706 0 01.202.522c0 .213-.071.39-.212.532a.669.669 0 01-.49.203zm7.051-.991v.927h-5.355v-.724l3.034-2.928c.369-.355.618-.66.746-.916.127-.262.191-.525.191-.788 0-.39-.138-.692-.415-.904-.27-.221-.66-.331-1.171-.331-.823 0-1.459.27-1.906.81l-.724-.629a2.926 2.926 0 011.139-.83 4.076 4.076 0 011.587-.298c.78 0 1.402.188 1.863.564.461.369.692.873.692 1.512 0 .397-.085.774-.256 1.129-.17.354-.493.759-.968 1.213l-2.279 2.193h3.822zm9.399-1.107c0 .561-.213 1.036-.639 1.427-.419.39-1.029.617-1.831.681v1.203h-.682v-1.203a5.352 5.352 0 01-1.479-.287c-.462-.171-.831-.384-1.108-.639l.394-.83c.256.234.579.429.969.585.39.149.799.238 1.224.266v-2.47a8.057 8.057 0 01-1.245-.394 2.184 2.184 0 01-.831-.628c-.22-.277-.33-.639-.33-1.086 0-.56.203-1.036.607-1.426.412-.391 1.012-.618 1.799-.682v-1.214h.682v1.204a4.61 4.61 0 011.171.191c.383.114.713.266.99.458l-.351.852a3.746 3.746 0 00-1.81-.596v2.48a8.57 8.57 0 011.277.405c.334.135.614.34.841.617.235.27.352.632.352 1.086zm-4.514-3.417c0 .305.117.543.351.713.234.17.571.312 1.011.426v-2.3c-.454.057-.795.192-1.022.405a.982.982 0 00-.34.756zm2.044 4.61c.475-.043.83-.164 1.064-.362a.967.967 0 00.362-.767c0-.312-.124-.55-.372-.713-.241-.171-.593-.32-1.054-.447v2.289zm-137.188 58.472v.926h-5.355v-.724l3.034-2.927c.369-.355.618-.661.745-.916.128-.263.192-.525.192-.788 0-.39-.138-.692-.415-.905-.27-.22-.66-.33-1.171-.33-.824 0-1.459.27-1.906.809l-.724-.628a2.906 2.906 0 011.139-.83 4.071 4.071 0 011.586-.298c.781 0 1.402.188 1.864.564.461.369.692.873.692 1.512 0 .397-.086.773-.256 1.128-.17.355-.493.76-.969 1.214l-2.278 2.193h3.822zm3.729-3.396c.731.071 1.288.298 1.671.681.383.376.575.859.575 1.448 0 .426-.106.813-.319 1.161-.213.34-.533.614-.959.819-.418.199-.933.298-1.543.298a5.013 5.013 0 01-1.533-.234c-.49-.163-.891-.387-1.203-.67l.489-.842c.256.242.582.437.98.586.397.142.82.213 1.267.213.553 0 .983-.117 1.288-.351.312-.235.468-.558.468-.969 0-.412-.152-.731-.457-.958-.306-.228-.767-.341-1.384-.341h-.597v-.745l1.874-2.3h-3.588v-.926h4.919v.724l-1.948 2.406zm9.723 2.491h-1.416v1.831h-1.033v-1.831h-4.141v-.745l3.811-4.876h1.15l-3.652 4.705h2.864v-1.618h1.001v1.618h1.416v.916zm1.549 1.895a.714.714 0 01-.511-.202.721.721 0 01-.213-.532c0-.206.071-.377.213-.511a.696.696 0 01.511-.213.68.68 0 01.5.202.706.706 0 01.202.522c0 .213-.071.39-.213.532a.664.664 0 01-.489.202zm3.884-7.516v7.452h-1.054v-6.526h-1.682v-.926h2.736zm4.675 7.537a2.837 2.837 0 01-1.575-.447c-.455-.305-.813-.745-1.076-1.32-.262-.575-.394-1.256-.394-2.044s.132-1.469.394-2.044c.263-.575.621-1.012 1.076-1.31a2.79 2.79 0 011.575-.457c.582 0 1.1.152 1.555.457.461.298.823.735 1.086 1.31.262.575.394 1.256.394 2.044s-.132 1.469-.394 2.044c-.263.575-.625 1.015-1.086 1.32a2.774 2.774 0 01-1.555.447zm0-.947c.597 0 1.072-.245 1.427-.735.362-.489.543-1.199.543-2.129 0-.93-.181-1.64-.543-2.129-.355-.49-.83-.735-1.427-.735-.603 0-1.086.245-1.448.735-.355.489-.532 1.199-.532 2.129 0 .93.177 1.64.532 2.129.362.49.845.735 1.448.735zm12.58-1.171c0 .561-.213 1.036-.639 1.426-.419.391-1.029.618-1.831.682v1.203h-.682v-1.203a5.353 5.353 0 01-1.479-.288c-.462-.17-.831-.383-1.108-.638l.394-.831c.256.234.579.43.969.586.39.149.799.237 1.224.266v-2.47a8.167 8.167 0 01-1.245-.394 2.184 2.184 0 01-.831-.628c-.22-.277-.33-.639-.33-1.086 0-.561.203-1.036.607-1.427.412-.39 1.012-.617 1.799-.681v-1.214h.682v1.203c.404.014.795.078 1.171.192.383.113.713.266.99.458l-.351.851a3.76 3.76 0 00-1.81-.596v2.481a8.58 8.58 0 011.277.404c.334.135.614.341.841.618.235.27.352.632.352 1.086zm-4.514-3.418c0 .305.117.543.351.714.234.17.571.312 1.011.425v-2.299c-.454.057-.795.191-1.022.404a.982.982 0 00-.34.756zm2.044 4.61c.475-.042.83-.163 1.064-.362a.965.965 0 00.362-.766c0-.313-.124-.55-.372-.714-.242-.17-.593-.319-1.054-.447v2.289zm66.303-.085v.926h-5.356v-.724l3.035-2.927c.369-.355.617-.661.745-.916.128-.263.192-.525.192-.788 0-.39-.139-.692-.416-.905-.269-.22-.66-.33-1.171-.33-.823 0-1.458.27-1.905.809l-.724-.628c.291-.355.67-.632 1.139-.83a4.068 4.068 0 011.586-.298c.781 0 1.402.188 1.863.564.462.369.692.873.692 1.512 0 .397-.085.773-.255 1.128-.171.355-.494.76-.969 1.214l-2.278 2.193h3.822zm3.185-6.526v7.452h-1.054v-6.526h-1.682v-.926h2.736zm4.675 7.537a2.837 2.837 0 01-1.575-.447c-.455-.305-.813-.745-1.076-1.32-.262-.575-.394-1.256-.394-2.044s.132-1.469.394-2.044c.263-.575.621-1.012 1.076-1.31a2.79 2.79 0 011.575-.457c.582 0 1.101.152 1.555.457.461.298.823.735 1.086 1.31.262.575.394 1.256.394 2.044s-.132 1.469-.394 2.044c-.263.575-.625 1.015-1.086 1.32a2.771 2.771 0 01-1.555.447zm0-.947c.597 0 1.072-.245 1.427-.735.362-.489.543-1.199.543-2.129 0-.93-.181-1.64-.543-2.129-.355-.49-.83-.735-1.427-.735-.603 0-1.086.245-1.448.735-.354.489-.532 1.199-.532 2.129 0 .93.178 1.64.532 2.129.362.49.845.735 1.448.735zm7.272-3.662c.49 0 .926.092 1.309.276a2.13 2.13 0 011.246 1.981c0 .468-.117.88-.351 1.235a2.306 2.306 0 01-.948.83 3.04 3.04 0 01-1.341.287c-1.001 0-1.775-.322-2.321-.968-.54-.646-.809-1.562-.809-2.747 0-.831.145-1.537.436-2.119.298-.589.71-1.033 1.235-1.331.533-.305 1.15-.457 1.853-.457a4.3 4.3 0 011.022.117c.319.071.596.177.83.319l-.404.83c-.355-.234-.831-.351-1.427-.351-.774 0-1.381.241-1.821.724-.44.476-.66 1.171-.66 2.087 0 .113.004.202.011.266.213-.319.504-.561.873-.724.376-.17.799-.255 1.267-.255zm-.128 3.747c.49 0 .887-.131 1.193-.394.305-.262.457-.614.457-1.054 0-.44-.156-.788-.468-1.043-.305-.263-.717-.394-1.235-.394a2.01 2.01 0 00-.894.192 1.546 1.546 0 00-.607.521c-.142.22-.213.465-.213.735 0 .262.067.504.202.724.142.213.344.387.607.521.27.128.589.192.958.192zm4.29.841a.716.716 0 01-.511-.202.721.721 0 01-.213-.532c0-.206.071-.377.213-.511a.698.698 0 01.511-.213.68.68 0 01.501.202.706.706 0 01.202.522c0 .213-.071.39-.213.532a.666.666 0 01-.49.202zm4.126-7.601c1.001 0 1.771.322 2.311.968.546.646.82 1.562.82 2.747 0 .831-.149 1.54-.448 2.13a3.07 3.07 0 01-1.235 1.33c-.525.298-1.139.447-1.841.447-.362 0-.703-.035-1.023-.106a2.937 2.937 0 01-.83-.33l.405-.83c.362.234.841.351 1.437.351.774 0 1.377-.238 1.81-.713.44-.483.66-1.182.66-2.098v-.266a2.06 2.06 0 01-.884.735 3.154 3.154 0 01-1.267.245c-.489 0-.929-.093-1.32-.277a2.178 2.178 0 01-.905-.788 2.237 2.237 0 01-.319-1.193c0-.468.113-.88.34-1.235.235-.354.551-.628.948-.819a2.954 2.954 0 011.341-.298zm.096 3.747c.334 0 .632-.064.895-.192.262-.127.465-.301.606-.521.15-.22.224-.465.224-.735 0-.262-.071-.5-.213-.713a1.382 1.382 0 00-.607-.522c-.262-.135-.582-.202-.958-.202-.49 0-.887.131-1.192.394-.298.262-.447.614-.447 1.054 0 .44.152.791.457 1.054.306.255.717.383 1.235.383zm12.582 1.757c0 .561-.213 1.036-.639 1.426-.419.391-1.029.618-1.831.682v1.203h-.682v-1.203a5.353 5.353 0 01-1.479-.288c-.462-.17-.831-.383-1.108-.638l.394-.831c.256.234.579.43.969.586.39.149.799.237 1.224.266v-2.47a8.167 8.167 0 01-1.245-.394 2.184 2.184 0 01-.831-.628c-.22-.277-.33-.639-.33-1.086 0-.561.203-1.036.607-1.427.412-.39 1.012-.617 1.799-.681v-1.214h.682v1.203c.404.014.795.078 1.171.192.383.113.713.266.99.458l-.351.851a3.756 3.756 0 00-1.81-.596v2.481a8.58 8.58 0 011.277.404c.334.135.614.341.842.618.234.27.351.632.351 1.086zm-4.514-3.418c0 .305.117.543.351.714.234.17.571.312 1.011.425v-2.299c-.454.057-.794.191-1.022.404a.982.982 0 00-.34.756zm2.044 4.61c.475-.042.83-.163 1.064-.362a.965.965 0 00.362-.766c0-.313-.124-.55-.372-.714-.241-.17-.593-.319-1.054-.447v2.289zM391.718 302.56c1.065 0 1.846.202 2.343.607.504.397.756.944.756 1.639 0 .44-.107.838-.32 1.193-.206.347-.521.624-.947.83-.419.199-.937.298-1.555.298a4.985 4.985 0 01-1.522-.234c-.49-.163-.894-.387-1.214-.671l.49-.841c.255.241.582.437.979.586.398.142.817.213 1.257.213.56 0 .993-.117 1.299-.352.312-.241.468-.568.468-.979 0-.447-.17-.785-.511-1.012-.341-.234-.923-.351-1.746-.351h-1.693l.394-3.897h4.205v.927h-3.311l-.202 2.044h.83zm.181 55.583v7.453h-1.054v-6.527h-1.682v-.926h2.736zm6.869 6.526v.927h-5.355v-.724l3.034-2.928c.369-.355.617-.66.745-.916.128-.262.192-.525.192-.788 0-.39-.139-.692-.416-.904-.269-.221-.66-.331-1.171-.331-.823 0-1.458.27-1.905.81l-.724-.629c.291-.354.67-.631 1.139-.83a4.068 4.068 0 011.586-.298c.781 0 1.402.188 1.863.564.462.369.692.873.692 1.512 0 .397-.085.774-.255 1.129-.17.354-.493.759-.969 1.213l-2.278 2.193h3.822zm-6.762 51.947c1.001 0 1.771.322 2.31.968.547.646.82 1.562.82 2.747 0 .831-.149 1.54-.447 2.13a3.075 3.075 0 01-1.235 1.33c-.525.298-1.139.447-1.842.447a4.7 4.7 0 01-1.022-.106 2.937 2.937 0 01-.83-.33l.404-.83c.362.234.841.351 1.437.351.774 0 1.377-.238 1.81-.713.44-.483.66-1.182.66-2.098v-.266a2.058 2.058 0 01-.883.735 3.157 3.157 0 01-1.267.245c-.49 0-.93-.093-1.32-.277a2.172 2.172 0 01-.905-.788 2.238 2.238 0 01-.32-1.193c0-.468.114-.88.341-1.235.234-.354.55-.628.947-.819a2.958 2.958 0 011.342-.298zm.096 3.747c.333 0 .631-.064.894-.192.263-.127.465-.301.607-.521.149-.22.224-.465.224-.735 0-.262-.071-.5-.213-.713a1.387 1.387 0 00-.607-.522c-.263-.135-.582-.202-.958-.202-.49 0-.888.131-1.193.394-.298.262-.447.614-.447 1.054 0 .44.153.791.458 1.054.305.255.717.383 1.235.383z" fill="#373943"/></g><rect x="190.792" y="236.383" width="448.912" height="213.344" rx="10.351" stroke="#D3E3FF" stroke-width=".591"/></g><g filter="url(#filter3_d)"><rect x="374.946" y="479.066" width="81.167" height="81.167" rx="16.233" fill="#3E54D8"/></g><path opacity=".9" d="M403.665 534.787c-2.354 0-4.451-.582-6.29-1.745-1.84-1.164-3.288-2.841-4.343-5.033-1.028-2.218-1.542-4.856-1.542-7.913 0-3.058.514-5.682 1.542-7.874 1.055-2.218 2.503-3.909 4.343-5.072 1.839-1.164 3.936-1.746 6.29-1.746s4.451.582 6.291 1.746c1.839 1.163 3.273 2.854 4.301 5.072 1.056 2.192 1.583 4.816 1.583 7.874 0 3.057-.527 5.695-1.583 7.913-1.028 2.192-2.462 3.869-4.301 5.033-1.84 1.163-3.937 1.745-6.291 1.745zm0-5.56c1.732 0 3.084-.744 4.058-2.232 1.002-1.488 1.502-3.788 1.502-6.899 0-3.112-.5-5.411-1.502-6.9-.974-1.488-2.326-2.232-4.058-2.232-1.704 0-3.057.744-4.058 2.232-.974 1.489-1.461 3.788-1.461 6.9 0 3.111.487 5.411 1.461 6.899 1.001 1.488 2.354 2.232 4.058 2.232zm36.357-.284v5.357h-21.469v-4.261l10.958-10.349c1.163-1.109 1.948-2.056 2.354-2.841.405-.812.608-1.61.608-2.394 0-1.137-.392-2.003-1.177-2.598-.757-.622-1.88-.933-3.368-.933-1.245 0-2.367.243-3.368.73-1.002.46-1.84 1.164-2.517 2.111l-4.788-3.085c1.109-1.65 2.637-2.935 4.585-3.855 1.948-.947 4.181-1.421 6.697-1.421 2.11 0 3.95.352 5.519 1.056 1.596.676 2.827 1.65 3.693 2.922.893 1.244 1.339 2.719 1.339 4.423a9.9 9.9 0 01-.974 4.343c-.649 1.352-1.907 2.895-3.774 4.626l-6.534 6.169h12.216z" fill="#fff"/><defs><filter id="filter0_d" x=".6" y=".067" width="829.8" height="759.8" filterUnits="userSpaceOnUse" color-interpolation-filters="sRGB"><feFlood flood-opacity="0" result="BackgroundImageFix"/><feColorMatrix in="SourceAlpha" values="0 0 0 0 0 0 0 0 0 0 0 0 0 0 0 0 0 0 127 0"/><feMorphology radius="34.567" in="SourceAlpha" result="effect1_dropShadow"/><feOffset dy="89.467"/><feGaussianBlur stdDeviation="90.483"/><feColorMatrix values="0 0 0 0 0.243137 0 0 0 0 0.329412 0 0 0 0 0.847059 0 0 0 0.06 0"/><feBlend in2="BackgroundImageFix" result="effect1_dropShadow"/><feBlend in="SourceGraphic" in2="effect1_dropShadow" result="shape"/></filter><filter id="filter1_d" x="188.722" y="236.087" width="453.053" height="221.033" filterUnits="userSpaceOnUse" color-interpolation-filters="sRGB"><feFlood flood-opacity="0" result="BackgroundImageFix"/><feColorMatrix in="SourceAlpha" values="0 0 0 0 0 0 0 0 0 0 0 0 0 0 0 0 0 0 127 0"/><feMorphology radius="7.689" in="SourceAlpha" result="effect1_dropShadow"/><feOffset dy="5.323"/><feGaussianBlur stdDeviation="4.732"/><feColorMatrix values="0 0 0 0 0.243137 0 0 0 0 0.329412 0 0 0 0 0.847059 0 0 0 0.22 0"/><feBlend in2="BackgroundImageFix" result="effect1_dropShadow"/><feBlend in="SourceGraphic" in2="effect1_dropShadow" result="shape"/></filter><filter id="filter2_d" x="185.765" y="384.946" width="610.996" height="69.794" filterUnits="userSpaceOnUse" color-interpolation-filters="sRGB"><feFlood flood-opacity="0" result="BackgroundImageFix"/><feColorMatrix in="SourceAlpha" values="0 0 0 0 0 0 0 0 0 0 0 0 0 0 0 0 0 0 127 0"/><feOffset/><feGaussianBlur stdDeviation="2.662"/><feColorMatrix values="0 0 0 0 0.243137 0 0 0 0 0.329412 0 0 0 0 0.847059 0 0 0 0.18 0"/><feBlend in2="BackgroundImageFix" result="effect1_dropShadow"/><feBlend in="SourceGraphic" in2="effect1_dropShadow" result="shape"/></filter><filter id="filter3_d" x="356.684" y="479.066" width="117.692" height="142.042" filterUnits="userSpaceOnUse" color-interpolation-filters="sRGB"><feFlood flood-opacity="0" result="BackgroundImageFix"/><feColorMatrix in="SourceAlpha" values="0 0 0 0 0 0 0 0 0 0 0 0 0 0 0 0 0 0 127 0"/><feMorphology radius="26.379" in="SourceAlpha" result="effect1_dropShadow"/><feOffset dy="42.612"/><feGaussianBlur stdDeviation="22.321"/><feColorMatrix values="0 0 0 0 0.243137 0 0 0 0 0.329412 0 0 0 0 0.847059 0 0 0 0.51 0"/><feBlend in2="BackgroundImageFix" result="effect1_dropShadow"/><feBlend in="SourceGraphic" in2="effect1_dropShadow" result="shape"/></filter><clipPath id="clip0"><rect x="190.496" y="236.087" width="449.504" height="213.935" rx="10.647" fill="#fff"/></clipPath><clipPath id="clip1"><path fill="#fff" transform="translate(503.982 426.941)" d="M0 0h14.195v14.195H0z"/></clipPath></defs></svg>