<svg width="832" height="761" fill="none" xmlns="http://www.w3.org/2000/svg"><g filter="url(#filter0_d)"><rect x="147" y="57" width="538" height="468" rx="40" fill="#fff"/><rect x="147.55" y="57.55" width="536.901" height="466.901" rx="39.45" stroke="#D3E3FF" stroke-width="1.099"/></g><path d="M316.052 94.428c1.864 0 3.477.311 4.84.932 1.384.622 2.446 1.504 3.188 2.646.741 1.143 1.112 2.496 1.112 4.059 0 1.544-.371 2.897-1.112 4.06-.742 1.142-1.804 2.024-3.188 2.646-1.363.601-2.976.902-4.84.902h-4.24v5.803h-4.871V94.428h9.111zm-.271 11.276c1.463 0 2.576-.311 3.337-.932.762-.642 1.143-1.544 1.143-2.707 0-1.182-.381-2.084-1.143-2.706-.761-.641-1.874-.962-3.337-.962h-3.969v7.307h3.969zm27.96 1.744c0 .06-.031.481-.091 1.262h-12.237c.22 1.003.741 1.794 1.563 2.376.822.581 1.844.872 3.067.872.842 0 1.584-.121 2.225-.361a5.59 5.59 0 001.834-1.203l2.496 2.706c-1.523 1.744-3.748 2.616-6.675 2.616-1.824 0-3.438-.351-4.841-1.052-1.403-.722-2.486-1.714-3.247-2.977-.762-1.263-1.143-2.696-1.143-4.3 0-1.583.371-3.006 1.113-4.269a7.892 7.892 0 013.097-2.977c1.323-.722 2.796-1.082 4.42-1.082 1.583 0 3.016.34 4.299 1.022a7.343 7.343 0 013.007 2.947c.742 1.262 1.113 2.736 1.113 4.42zm-8.389-4.841c-1.063 0-1.955.3-2.676.902-.722.601-1.163 1.423-1.323 2.465h7.968c-.161-1.022-.602-1.834-1.323-2.435-.722-.622-1.604-.932-2.646-.932zm24.943.541h-8.299v12.328h-4.66V99.299h12.959v3.849zm2.486-3.849h4.66v9.622l7.878-9.622h4.3v16.177h-4.661v-9.622l-7.847 9.622h-4.33V99.299zm29.044 16.417c-1.724 0-3.277-.351-4.66-1.052-1.364-.722-2.436-1.714-3.218-2.977-.761-1.263-1.142-2.696-1.142-4.3 0-1.603.381-3.036 1.142-4.299.782-1.263 1.854-2.245 3.218-2.947 1.383-.722 2.936-1.082 4.66-1.082 1.704 0 3.187.36 4.45 1.082 1.283.702 2.215 1.714 2.796 3.037l-3.638 1.954c-.842-1.483-2.055-2.225-3.638-2.225-1.223 0-2.235.401-3.037 1.203s-1.203 1.894-1.203 3.277c0 1.384.401 2.476 1.203 3.278s1.814 1.202 3.037 1.202c1.604 0 2.816-.741 3.638-2.225l3.638 1.985c-.581 1.283-1.513 2.285-2.796 3.007-1.263.721-2.746 1.082-4.45 1.082zm23.628-12.568h-5.472v12.328h-4.66v-12.328h-5.473v-3.849h15.605v3.849zm12.032-4.09c1.504 0 2.867.351 4.089 1.053a7.299 7.299 0 012.917 2.917c.701 1.242 1.052 2.696 1.052 4.359 0 1.664-.351 3.127-1.052 4.39a7.558 7.558 0 01-2.917 2.917c-1.222.681-2.585 1.022-4.089 1.022-2.064 0-3.688-.651-4.871-1.954v7.547h-4.69v-22.01h4.48v1.864c1.162-1.403 2.856-2.104 5.081-2.104zm-.812 12.809c1.203 0 2.185-.4 2.947-1.202.782-.822 1.173-1.915 1.173-3.278s-.391-2.445-1.173-3.247c-.762-.822-1.744-1.233-2.947-1.233-1.202 0-2.195.411-2.976 1.233-.762.802-1.143 1.884-1.143 3.247s.381 2.456 1.143 3.278c.781.802 1.774 1.202 2.976 1.202zm18.178-12.808c2.505 0 4.43.601 5.773 1.804 1.343 1.182 2.014 2.976 2.014 5.382v9.231h-4.39v-2.015c-.882 1.503-2.525 2.255-4.931 2.255-1.243 0-2.325-.21-3.247-.631-.902-.421-1.594-1.003-2.075-1.744-.481-.742-.721-1.584-.721-2.526 0-1.503.561-2.686 1.683-3.548 1.143-.862 2.897-1.293 5.262-1.293h3.729c0-1.022-.311-1.804-.933-2.345-.621-.561-1.553-.842-2.796-.842-.862 0-1.714.14-2.556.421-.821.261-1.523.621-2.104 1.082l-1.684-3.277c.882-.621 1.934-1.102 3.157-1.443a14.382 14.382 0 013.819-.511zm-.361 13.5c.802 0 1.513-.18 2.135-.541.621-.381 1.062-.932 1.323-1.654v-1.654h-3.218c-1.924 0-2.886.632-2.886 1.895 0 .601.23 1.082.691 1.443.481.341 1.133.511 1.955.511zm30.444-.932v7.397h-4.36v-3.548h-13.861V99.299h4.66v12.328h6.525V99.299h4.69v12.328h2.346zm2.949-12.328h4.661v9.622l7.878-9.622h4.299v16.177h-4.66v-9.622l-7.848 9.622h-4.33V99.299zm35.72 0v16.177h-4.18v-4.631h-3.458l-3.067 4.631h-4.991l3.699-5.292c-1.123-.441-1.985-1.073-2.586-1.895-.582-.841-.872-1.854-.872-3.036 0-1.905.681-3.368 2.044-4.39 1.384-1.043 3.278-1.564 5.683-1.564h7.728zm-7.638 3.819c-1.002 0-1.764.18-2.285.541-.501.361-.751.942-.751 1.744s.24 1.393.721 1.774c.501.361 1.253.541 2.255.541h3.518v-4.6h-3.458z" fill="#3E54D8"/><g filter="url(#filter1_d)"><rect x="227.195" y="373.459" width="376.805" height="43.63" rx="5.288" fill="#3E54D8"/><path d="M355.037 395.66c.499.158.888.416 1.166.773.285.349.428.762.428 1.238 0 .499-.162.936-.488 1.309-.325.365-.761.646-1.309.844a5.083 5.083 0 01-1.773.298 6.45 6.45 0 01-1.677-.226 5.702 5.702 0 01-1.547-.702l.5-1.131c.364.246.769.437 1.213.572.444.126.885.19 1.321.19.627 0 1.146-.123 1.559-.369.42-.246.63-.583.63-1.011 0-.365-.15-.643-.452-.833-.301-.191-.718-.286-1.249-.286h-1.94v-1.214h1.821c.46 0 .821-.095 1.083-.285a.907.907 0 00.392-.774c0-.388-.178-.69-.535-.904-.349-.214-.797-.321-1.345-.321a4.28 4.28 0 00-1.154.166 4.323 4.323 0 00-1.118.464l-.488-1.249c.428-.23.88-.401 1.356-.512a6.013 6.013 0 011.44-.178 4.89 4.89 0 011.702.285c.523.191.94.465 1.249.821.309.35.464.762.464 1.238 0 .412-.111.773-.333 1.083a2.14 2.14 0 01-.916.714zm5.55-2.083c.936 0 1.65.227 2.141.679.5.444.75 1.118.75 2.023v3.724h-1.404v-.774a1.76 1.76 0 01-.785.643c-.334.143-.738.214-1.214.214s-.893-.079-1.249-.238a2.022 2.022 0 01-.833-.678 1.773 1.773 0 01-.286-.988c0-.571.21-1.027.631-1.368.428-.349 1.098-.524 2.011-.524h1.642v-.095c0-.444-.135-.785-.405-1.023-.262-.238-.654-.357-1.178-.357-.357 0-.71.055-1.059.167a2.585 2.585 0 00-.869.464l-.583-1.083a3.62 3.62 0 011.202-.583 5.344 5.344 0 011.488-.203zm-.203 5.426c.373 0 .702-.083.988-.249.293-.175.5-.421.619-.738v-.738h-1.535c-.857 0-1.285.282-1.285.845 0 .27.107.484.321.642.214.159.512.238.892.238zm8.457-5.426c.618 0 1.17.135 1.654.405.492.27.876.65 1.154 1.142.278.492.416 1.059.416 1.702 0 .642-.138 1.214-.416 1.713a2.91 2.91 0 01-1.154 1.143c-.484.269-1.036.404-1.654.404-.857 0-1.535-.285-2.035-.857v3.082h-1.487v-8.662h1.416v.833c.246-.302.547-.528.904-.678a3.112 3.112 0 011.202-.227zm-.167 5.236c.548 0 .996-.182 1.345-.547.357-.365.535-.845.535-1.44s-.178-1.075-.535-1.44c-.349-.365-.797-.547-1.345-.547-.357 0-.678.083-.964.25a1.72 1.72 0 00-.678.69c-.167.301-.25.65-.25 1.047 0 .397.083.746.25 1.047.167.301.393.535.678.702.286.159.607.238.964.238zm10.821-1.951c0 .103-.008.249-.024.44h-4.985c.087.468.313.841.678 1.118.373.27.833.405 1.38.405.698 0 1.273-.23 1.726-.69l.797.916a2.687 2.687 0 01-1.083.773 3.932 3.932 0 01-1.475.262c-.698 0-1.313-.139-1.845-.416a3.058 3.058 0 01-1.237-1.154 3.342 3.342 0 01-.429-1.69c0-.619.139-1.174.417-1.666.285-.5.678-.888 1.178-1.166a3.417 3.417 0 011.69-.417c.618 0 1.17.139 1.653.417.492.27.873.654 1.143 1.154.277.492.416 1.063.416 1.714zm-3.212-2.095c-.476 0-.881.143-1.214.429-.325.277-.524.65-.595 1.118h3.605a1.75 1.75 0 00-.583-1.118c-.325-.286-.73-.429-1.213-.429zm9.718.143h-3.392v5.093h-1.487v-6.354h4.879v1.261zm1.082-1.261h1.488v4.188l3.51-4.188h1.356v6.354h-1.487v-4.189l-3.498 4.189h-1.369v-6.354zm11.247 6.437c-.659 0-1.25-.139-1.773-.416a3.08 3.08 0 01-1.226-1.154 3.28 3.28 0 01-.44-1.69c0-.627.147-1.186.44-1.678a3.093 3.093 0 011.214-1.154c.523-.278 1.118-.417 1.785-.417.626 0 1.174.127 1.642.381.476.254.833.619 1.071 1.095l-1.143.666a1.754 1.754 0 00-.69-.654 1.795 1.795 0 00-.892-.226c-.556 0-1.016.182-1.381.547-.364.357-.547.837-.547 1.44s.179 1.087.536 1.452c.364.357.829.535 1.392.535.325 0 .622-.071.892-.214.278-.151.508-.373.69-.667l1.143.667a2.597 2.597 0 01-1.083 1.106c-.468.254-1.012.381-1.63.381zm8.997-5.176h-2.225v5.093h-1.487v-5.093h-2.237v-1.261h5.949v1.261zm4.601-1.333c.619 0 1.171.135 1.654.405.492.27.877.65 1.155 1.142.277.492.416 1.059.416 1.702 0 .642-.139 1.214-.416 1.713a2.912 2.912 0 01-1.155 1.143c-.483.269-1.035.404-1.654.404-.856 0-1.535-.285-2.034-.857v3.082h-1.488v-8.662h1.416v.833a2.3 2.3 0 01.905-.678 3.11 3.11 0 011.201-.227zm-.166 5.236c.547 0 .995-.182 1.344-.547.357-.365.536-.845.536-1.44s-.179-1.075-.536-1.44c-.349-.365-.797-.547-1.344-.547-.357 0-.678.083-.964.25a1.707 1.707 0 00-.678.69c-.167.301-.25.65-.25 1.047 0 .397.083.746.25 1.047.166.301.392.535.678.702.286.159.607.238.964.238zm4.871-5.164h1.488v4.188l3.51-4.188h1.357v6.354H421.5v-4.189l-3.498 4.189h-1.369v-6.354zm11.878-.072c.618 0 1.17.135 1.653.405.492.27.877.65 1.155 1.142.277.492.416 1.059.416 1.702 0 .642-.139 1.214-.416 1.713a2.912 2.912 0 01-1.155 1.143c-.483.269-1.035.404-1.653.404-.857 0-1.535-.285-2.035-.857v3.082h-1.488v-8.662h1.416v.833a2.3 2.3 0 01.905-.678 3.112 3.112 0 011.202-.227zm-.167 5.236c.547 0 .995-.182 1.345-.547.357-.365.535-.845.535-1.44s-.178-1.075-.535-1.44c-.35-.365-.798-.547-1.345-.547-.357 0-.678.083-.964.25a1.713 1.713 0 00-.678.69c-.167.301-.25.65-.25 1.047 0 .397.083.746.25 1.047.166.301.393.535.678.702.286.159.607.238.964.238zm7.703 1.273a3.614 3.614 0 01-1.737-.416 3.098 3.098 0 01-1.213-1.154 3.342 3.342 0 01-.429-1.69c0-.627.143-1.186.429-1.678a3.09 3.09 0 011.213-1.154 3.603 3.603 0 011.737-.417c.651 0 1.234.139 1.75.417.515.278.916.662 1.201 1.154.294.492.441 1.051.441 1.678a3.27 3.27 0 01-.441 1.69 3.013 3.013 0 01-1.201 1.154c-.516.277-1.099.416-1.75.416zm0-1.273c.548 0 1-.182 1.357-.547.357-.365.535-.845.535-1.44s-.178-1.075-.535-1.44c-.357-.365-.809-.547-1.357-.547-.547 0-.999.182-1.356.547-.349.365-.524.845-.524 1.44s.175 1.075.524 1.44c.357.365.809.547 1.356.547zm9.466-2.118c.785.238 1.178.746 1.178 1.523 0 .571-.214 1.011-.643 1.321-.428.309-1.062.464-1.903.464h-3.237v-6.354h3.106c.777 0 1.384.143 1.82.428.437.286.655.69.655 1.214 0 .325-.088.607-.262.845a1.654 1.654 0 01-.714.559zm-3.189-.393h1.559c.769 0 1.154-.265 1.154-.797 0-.516-.385-.773-1.154-.773h-1.559v1.57zm1.702 2.618c.817 0 1.225-.266 1.225-.797 0-.278-.095-.484-.285-.619-.191-.143-.488-.214-.893-.214h-1.749v1.63h1.702zm6.617-5.343c.936 0 1.65.227 2.142.679.5.444.75 1.118.75 2.023v3.724h-1.404v-.774a1.769 1.769 0 01-.786.643c-.333.143-.737.214-1.213.214-.476 0-.893-.079-1.25-.238a2.028 2.028 0 01-.833-.678 1.78 1.78 0 01-.285-.988c0-.571.21-1.027.63-1.368.429-.349 1.099-.524 2.011-.524h1.642v-.095c0-.444-.135-.785-.404-1.023-.262-.238-.655-.357-1.178-.357-.357 0-.71.055-1.059.167a2.585 2.585 0 00-.869.464l-.583-1.083a3.61 3.61 0 011.202-.583 5.342 5.342 0 011.487-.203zm-.202 5.426c.373 0 .702-.083.988-.249.293-.175.499-.421.618-.738v-.738h-1.535c-.856 0-1.285.282-1.285.845 0 .27.107.484.321.642.215.159.512.238.893.238zm9.968-4.093h-2.226v5.093h-1.487v-5.093h-2.237v-1.261h5.95v1.261zm4.267.833c.81 0 1.428.183 1.857.547.436.365.654.881.654 1.547 0 .698-.238 1.238-.714 1.619-.476.38-1.146.567-2.011.559l-2.975-.012v-6.354h1.488v2.082l1.701.012zm-.345 3.177c.437.008.77-.083 1-.274.23-.19.345-.468.345-.833 0-.356-.111-.618-.333-.785-.222-.166-.559-.254-1.012-.262l-1.356-.012v2.154l1.356.012zm7.055 1.166c-.658 0-1.249-.139-1.773-.416a3.08 3.08 0 01-1.226-1.154 3.28 3.28 0 01-.44-1.69c0-.627.147-1.186.44-1.678a3.093 3.093 0 011.214-1.154c.524-.278 1.119-.417 1.785-.417.627 0 1.174.127 1.642.381.476.254.833.619 1.071 1.095l-1.142.666a1.763 1.763 0 00-.691-.654 1.792 1.792 0 00-.892-.226c-.555 0-1.015.182-1.38.547-.365.357-.548.837-.548 1.44s.179 1.087.536 1.452c.365.357.829.535 1.392.535.325 0 .623-.071.892-.214.278-.151.508-.373.691-.667l1.142.667a2.597 2.597 0 01-1.083 1.106c-.468.254-1.011.381-1.63.381zm9.215-6.437v6.354h-1.333v-1.916h-1.678l-1.297 1.916h-1.594l1.499-2.118c-.46-.159-.813-.401-1.059-.726-.238-.333-.357-.742-.357-1.226 0-.729.258-1.293.773-1.689.516-.397 1.226-.595 2.13-.595h2.916zm-2.868 1.249c-.96 0-1.44.361-1.44 1.083 0 .714.464 1.071 1.392 1.071h1.583v-2.154h-1.535z" fill="#fff"/></g><path d="M304.725 442.916l-3.701 6.866c-.294.547-.639.955-1.035 1.225-.397.27-.829.405-1.297.405-.365 0-.738-.084-1.119-.25l.31-.952c.293.103.555.155.785.155.523 0 .956-.278 1.297-.833l.19-.298-3.355-6.318h1.273l2.701 5.283 2.773-5.283h1.178zm6.558 5.664h-1.225v2.665h-1.143v-2.665h-1.225l-1.737 2.665h-1.357l2.166-3.26-1.999-3.046h1.213l1.702 2.665h1.237v-2.665h1.143v2.665h1.237l1.702-2.665h1.225l-1.999 3.058 2.166 3.248h-1.356l-1.75-2.665zm9.853-.452c0 .087-.007.202-.023.345h-5.117c.071.555.313 1.003.726 1.344.42.333.94.5 1.559.5.753 0 1.36-.254 1.82-.762l.631.738a2.768 2.768 0 01-1.071.762c-.42.174-.892.262-1.416.262-.666 0-1.257-.135-1.773-.405a3.01 3.01 0 01-1.202-1.154 3.336 3.336 0 01-.416-1.666c0-.611.135-1.162.404-1.654a2.95 2.95 0 011.131-1.142 3.212 3.212 0 011.63-.417c.603 0 1.138.139 1.606.417.476.269.845.65 1.107 1.142.27.492.404 1.055.404 1.69zm-3.117-2.285c-.547 0-1.008.167-1.38.5-.365.333-.579.769-.643 1.309h4.046c-.064-.532-.282-.964-.655-1.297-.365-.342-.821-.512-1.368-.512zm13.785 2.285c0 .087-.008.202-.024.345h-5.117c.072.555.314 1.003.726 1.344.421.333.94.5 1.559.5.754 0 1.361-.254 1.821-.762l.63.738a2.753 2.753 0 01-1.071.762c-.42.174-.892.262-1.416.262-.666 0-1.257-.135-1.773-.405a3.007 3.007 0 01-1.201-1.154 3.326 3.326 0 01-.417-1.666c0-.611.135-1.162.405-1.654a2.94 2.94 0 011.13-1.142 3.212 3.212 0 011.63-.417c.603 0 1.139.139 1.607.417.476.269.844.65 1.106 1.142.27.492.405 1.055.405 1.69zm-3.118-2.285c-.547 0-1.007.167-1.38.5-.365.333-.579.769-.643 1.309h4.046c-.063-.532-.281-.964-.654-1.297-.365-.342-.821-.512-1.369-.512zm7.639 5.474c-.643 0-1.218-.139-1.726-.417a3.085 3.085 0 01-1.178-1.142 3.262 3.262 0 01-.428-1.666c0-.619.143-1.17.428-1.654a2.968 2.968 0 011.178-1.142c.508-.278 1.083-.417 1.726-.417.571 0 1.079.115 1.523.345.452.23.801.563 1.047 1l-.869.559a1.933 1.933 0 00-.738-.678 2.096 2.096 0 00-.975-.226c-.413 0-.786.091-1.119.273a1.995 1.995 0 00-.773.786 2.358 2.358 0 00-.274 1.154c0 .444.091.837.274 1.178.19.333.448.591.773.773.333.183.706.274 1.119.274.357 0 .682-.075.975-.226a1.94 1.94 0 00.738-.678l.869.547a2.526 2.526 0 01-1.047 1.011c-.444.23-.952.346-1.523.346zm8.668-5.379h-2.309v5.307h-1.142v-5.307h-2.309v-.999h5.76v.999zm4.083 1.142c.801.008 1.412.191 1.832.548.421.357.631.86.631 1.511 0 .682-.23 1.21-.69 1.583-.452.364-1.103.543-1.952.535l-2.736-.012v-6.306h1.142v2.13l1.773.011zm-.274 3.308c.516.008.905-.095 1.166-.309.27-.214.405-.531.405-.952 0-.412-.131-.714-.393-.904-.254-.191-.646-.29-1.178-.298l-1.499-.024v2.475l1.499.012zm9.647-5.509c.873 0 1.539.214 1.999.643.469.428.703 1.067.703 1.915v3.808h-1.083v-.833c-.191.294-.464.52-.821.678-.349.151-.766.227-1.25.227-.706 0-1.273-.171-1.701-.512-.421-.341-.631-.789-.631-1.345 0-.555.202-.999.607-1.332.404-.342 1.047-.512 1.928-.512h1.808v-.226c0-.492-.143-.869-.428-1.131-.286-.261-.706-.392-1.261-.392-.373 0-.738.063-1.095.19a2.73 2.73 0 00-.904.488l-.476-.857c.325-.262.713-.46 1.166-.595a4.745 4.745 0 011.439-.214zm-.261 5.557c.436 0 .813-.095 1.13-.286a1.7 1.7 0 00.69-.833v-.88h-1.761c-.968 0-1.452.325-1.452.976 0 .317.123.567.369.749.246.183.587.274 1.024.274zm7.471-1.856h-1.309v2.665h-1.143v-6.306h1.143v2.665h1.333l2.046-2.665h1.226l-2.392 3.034 2.558 3.272h-1.344l-2.118-2.665zm7.111 0h-1.309v2.665h-1.142v-6.306h1.142v2.665h1.333l2.047-2.665h1.225l-2.391 3.034 2.558 3.272h-1.345l-2.118-2.665zm6.793-3.701c.873 0 1.539.214 1.999.643.468.428.702 1.067.702 1.915v3.808h-1.082v-.833c-.191.294-.464.52-.821.678-.349.151-.766.227-1.25.227-.706 0-1.273-.171-1.701-.512-.421-.341-.631-.789-.631-1.345 0-.555.202-.999.607-1.332.404-.342 1.047-.512 1.927-.512h1.809v-.226c0-.492-.143-.869-.428-1.131-.286-.261-.706-.392-1.262-.392-.372 0-.737.063-1.094.19a2.746 2.746 0 00-.905.488l-.476-.857c.326-.262.714-.46 1.167-.595a4.745 4.745 0 011.439-.214zm-.261 5.557c.436 0 .813-.095 1.13-.286a1.7 1.7 0 00.69-.833v-.88h-1.761c-.968 0-1.452.325-1.452.976 0 .317.123.567.369.749.246.183.587.274 1.024.274zm10.648-5.497l-3.058 6.937c-.27.642-.587 1.094-.952 1.356-.357.262-.79.393-1.297.393-.31 0-.611-.052-.905-.155a1.802 1.802 0 01-.714-.428l.488-.857c.326.31.702.464 1.131.464.277 0 .507-.075.69-.226.19-.143.361-.393.512-.75l.202-.44-2.785-6.294h1.19l2.202 5.045 2.177-5.045h1.119zm1.169 0h1.143v2.677h3.593v-2.677h1.142v6.306h-1.142v-2.641h-3.593v2.641h-1.143v-6.306zm12.8.999h-2.309v5.307h-1.142v-5.307h-2.308v-.999h5.759v.999zm2.774 2.677c0-.317.052-.595.155-.833.111-.245.242-.452.392-.618.159-.167.365-.365.619-.595.318-.278.552-.516.702-.714.151-.206.226-.452.226-.738 0-.389-.15-.698-.452-.928-.301-.238-.718-.357-1.249-.357-.928 0-1.638.313-2.13.94l-.869-.619a3.277 3.277 0 011.273-.987c.524-.23 1.127-.345 1.809-.345.865 0 1.551.19 2.059.571.507.373.761.888.761 1.547 0 .325-.055.614-.166.868-.104.246-.23.452-.381.619a8.792 8.792 0 01-.607.595 5.121 5.121 0 00-.726.773c-.151.222-.226.496-.226.821h-1.19zm.607 2.702a.78.78 0 01-.559-.215.764.764 0 01-.214-.547c0-.214.071-.393.214-.535a.758.758 0 01.559-.227c.222 0 .405.076.547.227a.724.724 0 01.215.535.744.744 0 01-.227.547.724.724 0 01-.535.215z" fill="#373943"/><path d="M420.777 449.317h-4.165l-.821 1.928h-1.594l3.748-8.329h1.523l3.76 8.329h-1.618l-.833-1.928zm-.512-1.213l-1.57-3.641-1.559 3.641h3.129zm8.679-.167c.785.238 1.178.746 1.178 1.523 0 .571-.214 1.012-.643 1.321-.428.309-1.063.464-1.904.464h-3.236v-6.354h3.106c.777 0 1.384.143 1.82.428.436.286.655.691.655 1.214 0 .325-.088.607-.262.845a1.654 1.654 0 01-.714.559zm-3.189-.393h1.559c.769 0 1.154-.265 1.154-.797 0-.515-.385-.773-1.154-.773h-1.559v1.57zm1.701 2.618c.818 0 1.226-.265 1.226-.797 0-.278-.095-.484-.285-.619-.191-.142-.488-.214-.893-.214h-1.749v1.63h1.701zm9.283-4.01h-2.225v5.093h-1.487v-5.093h-2.237v-1.261h5.949v1.261zm3.632 5.176a3.602 3.602 0 01-1.737-.416 3.1 3.1 0 01-1.214-1.154 3.351 3.351 0 01-.428-1.69c0-.627.143-1.186.428-1.678a3.1 3.1 0 011.214-1.154 3.602 3.602 0 011.737-.416c.651 0 1.234.138 1.75.416.515.278.916.662 1.201 1.154.294.492.441 1.051.441 1.678a3.27 3.27 0 01-.441 1.69 3.007 3.007 0 01-1.201 1.154c-.516.278-1.099.416-1.75.416zm0-1.273c.548 0 1-.182 1.357-.547.357-.365.535-.845.535-1.44s-.178-1.075-.535-1.44c-.357-.365-.809-.547-1.357-.547-.547 0-.999.182-1.356.547-.349.365-.524.845-.524 1.44s.175 1.075.524 1.44c.357.365.809.547 1.356.547zm8.383-5.235c.619 0 1.17.134 1.654.404.492.27.877.651 1.154 1.142.278.492.417 1.06.417 1.702 0 .643-.139 1.214-.417 1.714a2.908 2.908 0 01-1.154 1.142c-.484.27-1.035.404-1.654.404-.857 0-1.535-.285-2.035-.856v3.082h-1.487v-8.663h1.416v.833c.246-.302.547-.528.904-.678a3.115 3.115 0 011.202-.226zm-.166 5.235c.547 0 .995-.182 1.344-.547.357-.365.536-.845.536-1.44s-.179-1.075-.536-1.44c-.349-.365-.797-.547-1.344-.547-.357 0-.679.083-.964.25a1.707 1.707 0 00-.678.69c-.167.301-.25.65-.25 1.047 0 .397.083.746.25 1.047.166.302.392.536.678.702.285.159.607.238.964.238zm4.871-5.164h1.488v4.188l3.51-4.188h1.356v6.354h-1.487v-4.188l-3.498 4.188h-1.369v-6.354zm12.07 3.046c.396.111.702.294.916.548.222.245.333.543.333.892 0 .389-.131.734-.393 1.035-.261.294-.622.524-1.083.69-.46.167-.983.25-1.57.25-.492 0-.972-.055-1.44-.166a5.205 5.205 0 01-1.273-.5l.428-1.107c.31.175.659.31 1.047.405.389.095.778.143 1.166.143.5 0 .889-.076 1.167-.226.285-.159.428-.373.428-.643a.634.634 0 00-.333-.571c-.214-.135-.52-.202-.917-.202h-1.237v-1h1.118c.373 0 .663-.063.869-.19.214-.127.321-.306.321-.536 0-.23-.127-.412-.38-.547-.254-.135-.603-.202-1.047-.202-.635 0-1.305.154-2.011.464l-.381-1.095c.833-.389 1.674-.583 2.522-.583.54 0 1.024.075 1.452.226.428.143.762.349 1 .619.246.261.368.563.368.904 0 .309-.095.587-.285.833-.19.238-.452.424-.785.559zm2.792-3.046h1.488v4.188l3.51-4.188h1.357v6.354h-1.488v-4.188l-3.498 4.188h-1.369v-6.354zm11.877-.071c.619 0 1.171.134 1.654.404.492.27.877.651 1.155 1.142.277.492.416 1.06.416 1.702 0 .643-.139 1.214-.416 1.714a2.916 2.916 0 01-1.155 1.142c-.483.27-1.035.404-1.654.404-.856 0-1.535-.285-2.034-.856v3.082h-1.488v-8.663h1.416v.833a2.3 2.3 0 01.905-.678 3.11 3.11 0 011.201-.226zm-.166 5.235c.547 0 .995-.182 1.344-.547.357-.365.536-.845.536-1.44s-.179-1.075-.536-1.44c-.349-.365-.797-.547-1.344-.547-.357 0-.678.083-.964.25a1.707 1.707 0 00-.678.69c-.167.301-.25.65-.25 1.047 0 .397.083.746.25 1.047.166.302.392.536.678.702.286.159.607.238.964.238zm7.703 1.273a3.602 3.602 0 01-1.737-.416 3.1 3.1 0 01-1.214-1.154 3.351 3.351 0 01-.428-1.69c0-.627.143-1.186.428-1.678a3.1 3.1 0 011.214-1.154 3.602 3.602 0 011.737-.416c.651 0 1.234.138 1.75.416.515.278.916.662 1.201 1.154.294.492.441 1.051.441 1.678a3.27 3.27 0 01-.441 1.69 3.007 3.007 0 01-1.201 1.154c-.516.278-1.099.416-1.75.416zm0-1.273c.548 0 1-.182 1.357-.547.357-.365.535-.845.535-1.44s-.178-1.075-.535-1.44c-.357-.365-.809-.547-1.357-.547-.547 0-.999.182-1.356.547-.349.365-.524.845-.524 1.44s.175 1.075.524 1.44c.357.365.809.547 1.356.547zm9.466-2.118c.785.238 1.178.746 1.178 1.523 0 .571-.214 1.012-.643 1.321-.428.309-1.063.464-1.903.464h-3.237v-6.354h3.106c.777 0 1.384.143 1.82.428.437.286.655.691.655 1.214 0 .325-.088.607-.262.845a1.654 1.654 0 01-.714.559zm-3.189-.393h1.559c.769 0 1.154-.265 1.154-.797 0-.515-.385-.773-1.154-.773h-1.559v1.57zm1.702 2.618c.817 0 1.225-.265 1.225-.797 0-.278-.095-.484-.285-.619-.191-.142-.488-.214-.893-.214h-1.749v1.63h1.702zm6.617-5.342c.936 0 1.65.226 2.142.678.5.444.75 1.118.75 2.023v3.724h-1.404v-.773a1.767 1.767 0 01-.786.642c-.333.143-.738.214-1.214.214-.475 0-.892-.079-1.249-.238a2.022 2.022 0 01-.833-.678 1.777 1.777 0 01-.285-.987c0-.572.21-1.028.63-1.369.429-.349 1.099-.523 2.011-.523h1.642v-.096c0-.444-.135-.785-.404-1.023-.262-.238-.655-.357-1.178-.357-.357 0-.71.056-1.059.167a2.585 2.585 0 00-.869.464l-.583-1.083a3.61 3.61 0 011.202-.583 5.342 5.342 0 011.487-.202zm-.202 5.426c.373 0 .702-.084.987-.25.294-.175.5-.421.619-.738v-.738H502.2c-.856 0-1.285.282-1.285.845 0 .27.107.484.321.643.215.158.512.238.893.238zm9.968-4.094h-2.226v5.093h-1.487v-5.093h-2.237v-1.261h5.95v1.261zm4.267.833c.81 0 1.428.183 1.857.548.436.365.654.88.654 1.546 0 .699-.238 1.238-.714 1.619s-1.146.567-2.011.559l-2.975-.012v-6.354h1.488v2.082l1.701.012zm-.345 3.177c.437.008.77-.083 1-.273.23-.191.345-.468.345-.833 0-.357-.111-.619-.333-.786-.222-.166-.56-.254-1.012-.261l-1.356-.012v2.153l1.356.012zm7.055 1.166c-.659 0-1.25-.138-1.773-.416a3.073 3.073 0 01-1.226-1.154 3.28 3.28 0 01-.44-1.69c0-.627.147-1.186.44-1.678a3.093 3.093 0 011.214-1.154c.524-.278 1.119-.416 1.785-.416.627 0 1.174.127 1.642.38.476.254.833.619 1.071 1.095l-1.142.666a1.763 1.763 0 00-.691-.654 1.792 1.792 0 00-.892-.226c-.555 0-1.015.182-1.38.547-.365.357-.548.837-.548 1.44s.179 1.087.536 1.452c.365.357.829.535 1.392.535.325 0 .623-.071.892-.214.278-.151.508-.373.691-.666l1.142.666a2.604 2.604 0 01-1.083 1.107c-.468.253-1.011.38-1.63.38zm9.215-6.437v6.354h-1.333v-1.916h-1.678l-1.297 1.916h-1.594l1.499-2.118c-.46-.159-.813-.401-1.059-.726-.238-.333-.357-.741-.357-1.225 0-.73.258-1.293.773-1.69.516-.397 1.226-.595 2.13-.595h2.916zm-2.868 1.249c-.96 0-1.44.361-1.44 1.083 0 .714.464 1.071 1.392 1.071h1.583v-2.154h-1.535z" fill="#3E54D8"/><rect x="227.526" y="166.217" width="376.144" height="36.358" rx="6.28" fill="#FCFDFF"/><path d="M249.669 184.184c.548.119.968.357 1.261.714.302.349.453.801.453 1.356 0 .714-.266 1.266-.798 1.654-.523.381-1.301.571-2.332.571h-3.831v-8.329h3.593c.928 0 1.646.187 2.154.559.516.373.773.901.773 1.583 0 .46-.115.853-.345 1.178a2.012 2.012 0 01-.928.714zm-4.367-3.308v3.022h2.654c.674 0 1.194-.127 1.558-.38.365-.262.548-.639.548-1.131s-.183-.865-.548-1.118c-.364-.262-.884-.393-1.558-.393h-2.654zm2.939 6.878c.746 0 1.309-.127 1.69-.381s.571-.651.571-1.19c0-1.039-.753-1.559-2.261-1.559h-2.939v3.13h2.939zm10.423-2.142h-5.236c.048.65.298 1.178.75 1.582.452.397 1.023.595 1.713.595.389 0 .746-.067 1.071-.202.325-.143.607-.349.845-.619l.476.548a2.672 2.672 0 01-1.047.761 3.473 3.473 0 01-1.369.262c-.642 0-1.213-.135-1.713-.405a3 3 0 01-1.154-1.142 3.236 3.236 0 01-.417-1.642c0-.611.131-1.158.393-1.642.27-.484.635-.861 1.095-1.13.468-.27.991-.405 1.57-.405.58 0 1.099.135 1.559.405.46.269.821.646 1.083 1.13.262.476.393 1.023.393 1.642l-.012.262zm-3.023-2.713c-.602 0-1.11.194-1.523.583-.404.381-.634.88-.69 1.499h4.439c-.056-.619-.29-1.118-.703-1.499-.404-.389-.912-.583-1.523-.583zm6.769-.726c.817 0 1.444.206 1.88.619.437.404.655 1.007.655 1.808v3.879h-.809v-.975a1.932 1.932 0 01-.845.761c-.365.183-.801.274-1.309.274-.698 0-1.253-.167-1.666-.5-.412-.333-.619-.773-.619-1.321 0-.531.191-.959.572-1.285.388-.325 1.003-.488 1.844-.488h1.987v-.38c0-.54-.151-.948-.452-1.226-.302-.285-.742-.428-1.321-.428-.397 0-.777.067-1.142.202a2.8 2.8 0 00-.94.535l-.381-.63c.317-.27.698-.476 1.142-.619a4.34 4.34 0 011.404-.226zm-.297 5.7c.476 0 .884-.107 1.226-.322.341-.222.595-.539.761-.952v-1.023h-1.963c-1.071 0-1.607.373-1.607 1.119 0 .365.139.654.417.868.277.207.666.31 1.166.31zm8.423.226a1.656 1.656 0 01-.595.333c-.23.071-.472.107-.726.107-.587 0-1.039-.159-1.357-.476-.317-.317-.476-.765-.476-1.345v-3.783h-1.118v-.714h1.118v-1.369h.845v1.369h1.904v.714h-1.904v3.736c0 .373.091.658.274.857.19.19.46.285.809.285.175 0 .341-.028.5-.083.166-.056.309-.135.428-.238l.298.607zm6.535-8.02c1.063 0 2.011.222 2.844.666a4.763 4.763 0 011.963 1.856c.468.794.703 1.702.703 2.725 0 1.008-.175 1.797-.524 2.368-.349.563-.833.845-1.452.845-.388 0-.706-.115-.952-.345-.238-.23-.369-.547-.392-.952a2.539 2.539 0 01-.976.964 2.918 2.918 0 01-1.404.333 2.959 2.959 0 01-1.511-.393 2.94 2.94 0 01-1.059-1.106 3.265 3.265 0 01-.381-1.583c0-.587.127-1.11.381-1.571a2.857 2.857 0 011.059-1.094 2.959 2.959 0 011.511-.393c.508 0 .964.111 1.368.333.413.214.742.52.988.916v-1.201h.773v4.509c0 .318.068.548.203.691a.703.703 0 00.535.214c.373 0 .666-.222.881-.667.222-.444.333-1.063.333-1.856 0-.92-.207-1.729-.619-2.427a4.234 4.234 0 00-1.737-1.642c-.738-.389-1.583-.583-2.535-.583-.96 0-1.812.202-2.558.606a4.259 4.259 0 00-1.725 1.69c-.413.722-.619 1.547-.619 2.475 0 .928.202 1.757.607 2.487a4.36 4.36 0 001.713 1.702c.738.404 1.583.606 2.535.606.372 0 .761-.043 1.166-.13a4.378 4.378 0 001.118-.393l.203.583a4.83 4.83 0 01-1.19.405 6.202 6.202 0 01-1.297.142c-1.079 0-2.035-.23-2.868-.69a4.988 4.988 0 01-1.952-1.916c-.46-.825-.69-1.757-.69-2.796 0-1.047.234-1.975.702-2.784a4.879 4.879 0 011.964-1.904c.849-.46 1.812-.69 2.891-.69zm-.083 7.77c.428 0 .813-.099 1.154-.298.341-.198.611-.476.809-.833.199-.364.298-.785.298-1.261 0-.468-.099-.88-.298-1.237a2.044 2.044 0 00-.809-.833 2.247 2.247 0 00-1.154-.298c-.436 0-.829.099-1.178.298a2.146 2.146 0 00-.809.833c-.191.357-.286.769-.286 1.237 0 .468.095.885.286 1.25.198.356.468.638.809.844.349.199.742.298 1.178.298zm13.175-5.628v5.497c0 1.063-.262 1.848-.786 2.356-.515.516-1.297.773-2.344.773-.579 0-1.13-.087-1.654-.261-.515-.167-.936-.401-1.261-.702l.428-.643c.302.27.667.48 1.095.631.436.15.892.226 1.368.226.794 0 1.377-.187 1.75-.559.372-.365.559-.937.559-1.714v-.797a2.542 2.542 0 01-1.035.904c-.421.206-.889.31-1.405.31a3.402 3.402 0 01-1.606-.381 2.962 2.962 0 01-1.13-1.083 3.11 3.11 0 01-.405-1.583c0-.587.135-1.11.405-1.57.277-.46.654-.817 1.13-1.071a3.36 3.36 0 011.606-.381c.532 0 1.012.107 1.44.321.429.214.774.524 1.036.928v-1.201h.809zm-3.201 5.271a2.6 2.6 0 001.225-.286c.365-.198.647-.472.845-.821.206-.349.31-.745.31-1.19 0-.444-.104-.837-.31-1.178a2.03 2.03 0 00-.845-.809 2.482 2.482 0 00-1.225-.297c-.452 0-.861.095-1.226.285-.357.191-.638.46-.845.809a2.37 2.37 0 00-.297 1.19c0 .445.099.841.297 1.19.207.349.488.623.845.821.365.191.774.286 1.226.286zm13.369-5.319c.785 0 1.4.226 1.844.678.453.452.679 1.119.679 1.999v3.629h-.845v-3.545c0-.651-.159-1.147-.476-1.488-.31-.341-.75-.511-1.321-.511-.65 0-1.162.202-1.535.606-.373.397-.559.948-.559 1.654v3.284h-.845v-3.545c0-.651-.159-1.147-.476-1.488-.309-.341-.754-.511-1.333-.511-.642 0-1.154.202-1.535.606-.373.397-.559.948-.559 1.654v3.284h-.845v-6.258h.809v1.142c.222-.381.532-.674.928-.881.397-.206.853-.309 1.369-.309.523 0 .976.111 1.356.333.389.222.679.551.869.988.23-.413.559-.734.988-.964a3.054 3.054 0 011.487-.357zm7.003 0c.817 0 1.444.206 1.88.619.437.404.655 1.007.655 1.808v3.879h-.809v-.975a1.932 1.932 0 01-.845.761c-.365.183-.802.274-1.309.274-.698 0-1.254-.167-1.666-.5-.413-.333-.619-.773-.619-1.321 0-.531.191-.959.571-1.285.389-.325 1.004-.488 1.845-.488h1.987v-.38c0-.54-.151-.948-.452-1.226-.302-.285-.742-.428-1.321-.428-.397 0-.778.067-1.142.202a2.79 2.79 0 00-.94.535l-.381-.63c.317-.27.698-.476 1.142-.619a4.33 4.33 0 011.404-.226zm-.297 5.7c.476 0 .884-.107 1.225-.322.341-.222.595-.539.762-.952v-1.023h-1.964c-1.07 0-1.606.373-1.606 1.119 0 .365.139.654.417.868.277.207.666.31 1.166.31zm5.126-5.652h.845v6.258h-.845v-6.258zm.429-1.369a.599.599 0 01-.441-.178.584.584 0 01-.178-.429.57.57 0 01.178-.416.6.6 0 01.441-.179c.174 0 .321.06.44.179a.532.532 0 01.178.404.599.599 0 01-.178.441.598.598 0 01-.44.178zm2.767-1.202h.845v8.829h-.845v-8.829zm3.279 8.889a.614.614 0 01-.452-.19.655.655 0 01-.179-.464c0-.183.06-.334.179-.453a.614.614 0 01.452-.19c.174 0 .325.063.452.19.127.119.19.27.19.453a.632.632 0 01-.19.464.618.618 0 01-.452.19zm4.858 0a3.404 3.404 0 01-1.666-.405 2.939 2.939 0 01-1.142-1.13 3.302 3.302 0 01-.417-1.654c0-.611.139-1.158.417-1.642a2.939 2.939 0 011.142-1.13 3.404 3.404 0 011.666-.405c.539 0 1.019.107 1.44.321.428.206.765.512 1.011.916l-.631.429a1.918 1.918 0 00-.785-.69 2.275 2.275 0 00-1.035-.238c-.452 0-.861.103-1.226.309a2.145 2.145 0 00-.845.857 2.672 2.672 0 00-.297 1.273c0 .484.099.912.297 1.285.207.365.488.651.845.857a2.53 2.53 0 001.226.297c.373 0 .718-.075 1.035-.226.317-.15.579-.381.785-.69l.631.428a2.438 2.438 0 01-1.011.929 3.284 3.284 0 01-1.44.309zm6.564 0a3.287 3.287 0 01-1.63-.405 3.025 3.025 0 01-1.142-1.142 3.236 3.236 0 01-.417-1.642c0-.611.139-1.158.417-1.642a2.939 2.939 0 011.142-1.13 3.287 3.287 0 011.63-.405c.603 0 1.147.135 1.63.405.484.269.861.646 1.131 1.13.278.484.416 1.031.416 1.642s-.138 1.158-.416 1.642c-.27.484-.647.865-1.131 1.142a3.285 3.285 0 01-1.63.405zm0-.75c.445 0 .841-.099 1.19-.297a2.14 2.14 0 00.833-.869c.198-.373.298-.797.298-1.273 0-.476-.1-.9-.298-1.273a2.062 2.062 0 00-.833-.857 2.295 2.295 0 00-1.19-.309c-.444 0-.845.103-1.202.309a2.16 2.16 0 00-.832.857 2.661 2.661 0 00-.298 1.273c0 .476.099.9.298 1.273.206.373.483.663.832.869.357.198.758.297 1.202.297zm12.708-5.616c.785 0 1.4.226 1.844.678.453.452.679 1.119.679 1.999v3.629h-.845v-3.545c0-.651-.159-1.147-.476-1.488-.31-.341-.75-.511-1.321-.511-.65 0-1.162.202-1.535.606-.373.397-.559.948-.559 1.654v3.284h-.845v-3.545c0-.651-.159-1.147-.476-1.488-.309-.341-.754-.511-1.333-.511-.642 0-1.154.202-1.535.606-.373.397-.559.948-.559 1.654v3.284h-.845v-6.258h.809v1.142c.222-.381.532-.674.928-.881.397-.206.853-.309 1.369-.309.523 0 .976.111 1.356.333.389.222.679.551.869.988.23-.413.559-.734.988-.964a3.054 3.054 0 011.487-.357z" fill="#929398"/><rect x="227.526" y="166.217" width="376.144" height="36.358" rx="6.28" stroke="#D3E3FF" stroke-width=".661"/><rect x="227.526" y="240.916" width="376.144" height="36.358" rx="6.28" fill="#FCFDFF"/><path d="M245.921 258.487l1.475.833-.273.499-1.488-.868v1.689h-.547l.012-1.689-1.487.868-.286-.499 1.487-.833-1.487-.833.286-.512 1.487.881-.012-1.69h.547v1.69l1.488-.881.273.512-1.475.833zm5.179 0l1.476.833-.274.499-1.487-.868v1.689h-.548l.012-1.689-1.487.868-.286-.499 1.488-.833-1.488-.833.286-.512 1.487.881-.012-1.69h.548v1.69l1.487-.881.274.512-1.476.833zm5.18 0l1.475.833-.274.499-1.487-.868v1.689h-.547l.012-1.689-1.488.868-.285-.499 1.487-.833-1.487-.833.285-.512 1.488.881-.012-1.69h.547v1.69l1.487-.881.274.512-1.475.833zm5.179 0l1.476.833-.274.499-1.488-.868v1.689h-.547l.012-1.689-1.487.868-.286-.499 1.487-.833-1.487-.833.286-.512 1.487.881-.012-1.69h.547v1.69l1.488-.881.274.512-1.476.833zm5.179 0l1.476.833-.274.499-1.487-.868v1.689h-.548l.012-1.689-1.487.868-.286-.499 1.488-.833-1.488-.833.286-.512 1.487.881-.012-1.69h.548v1.69l1.487-.881.274.512-1.476.833zm5.18 0l1.475.833-.273.499-1.488-.868v1.689h-.547l.012-1.689-1.488.868-.285-.499 1.487-.833-1.487-.833.285-.512 1.488.881-.012-1.69h.547v1.69l1.488-.881.273.512-1.475.833zm5.179 0l1.476.833-.274.499-1.487-.868v1.689h-.548l.012-1.689-1.487.868-.286-.499 1.488-.833-1.488-.833.286-.512 1.487.881-.012-1.69h.548v1.69l1.487-.881.274.512-1.476.833z" fill="#929398"/><g clip-path="url(#clip0)" stroke="#8C9BEA" stroke-width=".992" stroke-linecap="round" stroke-linejoin="round"><path d="M580.2 254.633c-4.958 0-6.941 4.462-6.941 4.462s1.983 4.462 6.941 4.462 6.941-4.462 6.941-4.462-1.983-4.462-6.941-4.462z"/><path d="M580.197 261.576a2.48 2.48 0 100-4.958 2.48 2.48 0 000 4.958z"/></g><rect x="227.526" y="240.916" width="376.144" height="36.358" rx="6.28" stroke="#D3E3FF" stroke-width=".661"/><rect x="227.526" y="315.618" width="376.144" height="36.358" rx="6.28" fill="#FCFDFF"/><path d="M245.921 333.315l1.475.833-.273.5-1.488-.869v1.69h-.547l.012-1.69-1.487.869-.286-.5 1.487-.833-1.487-.833.286-.512 1.487.881-.012-1.69h.547v1.69l1.488-.881.273.512-1.475.833zm5.179 0l1.476.833-.274.5-1.487-.869v1.69h-.548l.012-1.69-1.487.869-.286-.5 1.488-.833-1.488-.833.286-.512 1.487.881-.012-1.69h.548v1.69l1.487-.881.274.512-1.476.833zm5.18 0l1.475.833-.274.5-1.487-.869v1.69h-.547l.012-1.69-1.488.869-.285-.5 1.487-.833-1.487-.833.285-.512 1.488.881-.012-1.69h.547v1.69l1.487-.881.274.512-1.475.833zm5.179 0l1.476.833-.274.5-1.488-.869v1.69h-.547l.012-1.69-1.487.869-.286-.5 1.487-.833-1.487-.833.286-.512 1.487.881-.012-1.69h.547v1.69l1.488-.881.274.512-1.476.833zm5.179 0l1.476.833-.274.5-1.487-.869v1.69h-.548l.012-1.69-1.487.869-.286-.5 1.488-.833-1.488-.833.286-.512 1.487.881-.012-1.69h.548v1.69l1.487-.881.274.512-1.476.833zm5.18 0l1.475.833-.273.5-1.488-.869v1.69h-.547l.012-1.69-1.488.869-.285-.5 1.487-.833-1.487-.833.285-.512 1.488.881-.012-1.69h.547v1.69l1.488-.881.273.512-1.475.833zm5.179 0l1.476.833-.274.5-1.487-.869v1.69h-.548l.012-1.69-1.487.869-.286-.5 1.488-.833-1.488-.833.286-.512 1.487.881-.012-1.69h.548v1.69l1.487-.881.274.512-1.476.833z" fill="#929398"/><g clip-path="url(#clip1)" stroke="#8C9BEA" stroke-width=".992" stroke-linecap="round" stroke-linejoin="round"><path d="M580.2 328.82c-4.958 0-6.941 4.463-6.941 4.463s1.983 4.462 6.941 4.462 6.941-4.462 6.941-4.462-1.983-4.463-6.941-4.463z"/><path d="M580.197 335.765a2.48 2.48 0 100-4.958 2.48 2.48 0 000 4.958z"/></g><rect x="227.526" y="315.618" width="376.144" height="36.358" rx="6.28" stroke="#D3E3FF" stroke-width=".661"/><path d="M290.543 223.953v6.479h-.657v-5.183l-2.545 4.359h-.324l-2.545-4.331v5.155h-.657v-6.479h.564l2.814 4.804 2.785-4.804h.565zm2.026 1.611h.657v3.868l3.248-3.868h.583v4.868h-.657v-3.869l-3.239 3.869h-.592v-4.868zm6.372 0h.657v2.156h3.063v-2.156h.657v4.868h-.657v-2.147h-3.063v2.147h-.657v-4.868zm6.245 0h.657v3.868l3.248-3.868h.583v4.868h-.657v-3.869l-3.239 3.869h-.592v-4.868zm11.813 0v4.868h-.601v-3.85l-1.971 3.257h-.297l-1.971-3.267v3.86h-.601v-4.868h.666l2.064 3.507 2.101-3.507h.61zm6.007 0l-2.434 5.451c-.197.456-.426.78-.685.971-.259.192-.57.287-.934.287-.235 0-.454-.037-.658-.111a1.426 1.426 0 01-.527-.333l.305-.49c.247.246.543.37.889.37.222 0 .41-.062.564-.185.161-.124.309-.333.445-.63l.212-.472-2.174-4.858h.684l1.833 4.137 1.832-4.137h.648zm6.466 0v4.868h-.602v-3.85l-1.971 3.257h-.296l-1.972-3.267v3.86h-.601v-4.868h.666l2.064 3.507 2.101-3.507h.611zm6.522.99c.426 0 .802.08 1.129.24.333.161.593.389.778.685.185.29.277.63.277 1.018 0 .395-.095.744-.287 1.046a1.914 1.914 0 01-.796.704c-.333.16-.709.24-1.129.24-.857 0-1.514-.281-1.971-.842-.456-.568-.685-1.367-.685-2.397 0-.722.124-1.333.37-1.832.247-.5.593-.877 1.037-1.13.444-.259.962-.388 1.555-.388.641 0 1.154.117 1.536.351l-.268.537c-.309-.203-.728-.305-1.259-.305-.716 0-1.277.228-1.684.685-.408.45-.611 1.107-.611 1.971 0 .154.009.33.028.527a1.72 1.72 0 01.768-.814 2.437 2.437 0 011.212-.296zm-.055 3.369c.469 0 .848-.127 1.138-.38.296-.259.444-.601.444-1.027 0-.426-.148-.765-.444-1.018-.29-.253-.685-.38-1.185-.38-.327 0-.617.062-.87.186a1.468 1.468 0 00-.583.509 1.281 1.281 0 00-.213.721c0 .247.065.475.195.685.136.21.333.38.592.509.259.13.568.195.926.195zm7.923.555c-.482 0-.913-.105-1.296-.315a2.294 2.294 0 01-.888-.879 2.568 2.568 0 01-.324-1.286c0-.475.108-.901.324-1.278.215-.376.512-.669.888-.879.383-.21.814-.314 1.296-.314.419 0 .792.083 1.119.249.334.161.596.398.787.713l-.49.333a1.514 1.514 0 00-.611-.537 1.78 1.78 0 00-.805-.185c-.352 0-.67.081-.954.241a1.671 1.671 0 00-.657.666 2.08 2.08 0 00-.231.991c0 .376.077.709.231.999.161.284.38.506.657.666.284.155.602.232.954.232.29 0 .558-.059.805-.176.247-.117.45-.296.611-.537l.49.333a1.88 1.88 0 01-.787.722 2.537 2.537 0 01-1.119.241zm3.178-4.914h.658v3.868l3.248-3.868h.583v4.868h-.657v-3.869l-3.239 3.869h-.593v-4.868zm11.814 0v4.868h-.601v-3.85l-1.972 3.257h-.296l-1.971-3.267v3.86h-.602v-4.868h.667l2.063 3.507 2.101-3.507h.611zm4.97 2.35c.66.155.991.553.991 1.194 0 .426-.158.753-.472.981-.315.228-.784.343-1.407.343h-2.212v-4.868h2.147c.555 0 .99.108 1.305.324.315.215.472.524.472.925 0 .265-.074.494-.222.685a1.272 1.272 0 01-.602.416zm-2.461-.185h1.462c.376 0 .663-.071.86-.213.204-.142.306-.348.306-.62 0-.271-.102-.475-.306-.611-.197-.135-.484-.203-.86-.203h-1.462v1.647zm1.545 2.184c.42 0 .734-.067.944-.203.21-.136.315-.349.315-.639 0-.29-.096-.503-.287-.638-.191-.142-.494-.213-.907-.213h-1.61v1.693h1.545zm5.455.565c-.469 0-.892-.105-1.268-.315a2.368 2.368 0 01-.889-.888 2.53 2.53 0 01-.323-1.277c0-.475.108-.901.323-1.278.216-.376.513-.669.889-.879.376-.21.799-.314 1.268-.314s.891.104 1.268.314c.376.21.669.503.879.879.216.377.324.803.324 1.278s-.108.9-.324 1.277a2.3 2.3 0 01-.879.888 2.56 2.56 0 01-1.268.315zm0-.583c.345 0 .654-.077.925-.232a1.66 1.66 0 00.648-.675c.154-.29.232-.62.232-.99a2.08 2.08 0 00-.232-.991 1.601 1.601 0 00-.648-.666 1.787 1.787 0 00-.925-.241 1.84 1.84 0 00-.935.241 1.69 1.69 0 00-.648.666 2.08 2.08 0 00-.231.991c0 .37.077.7.231.99.161.29.377.515.648.675.278.155.589.232.935.232zm7.828-4.331v4.868h-.657v-4.285h-2.333l-.064 1.203c-.05 1.012-.167 1.789-.352 2.332-.185.543-.515.814-.99.814-.13 0-.287-.024-.472-.074l.046-.564c.111.025.188.037.231.037.253 0 .445-.117.574-.352.13-.234.216-.524.259-.87.043-.345.08-.802.111-1.369l.084-1.74h3.563zm3.876 4.914c-.469 0-.892-.105-1.268-.315a2.366 2.366 0 01-.888-.888 2.52 2.52 0 01-.324-1.277c0-.475.108-.901.324-1.278a2.3 2.3 0 01.888-.879c.376-.21.799-.314 1.268-.314s.892.104 1.268.314c.376.21.669.503.879.879.216.377.324.803.324 1.278s-.108.9-.324 1.277a2.3 2.3 0 01-.879.888c-.376.21-.799.315-1.268.315zm0-.583c.346 0 .654-.077.925-.232a1.66 1.66 0 00.648-.675c.155-.29.232-.62.232-.99 0-.371-.077-.701-.232-.991a1.601 1.601 0 00-.648-.666 1.785 1.785 0 00-.925-.241 1.84 1.84 0 00-.935.241 1.69 1.69 0 00-.648.666 2.08 2.08 0 00-.231.991c0 .37.077.7.231.99.161.29.377.515.648.675.278.155.589.232.935.232zm6.976-1.981c.66.155.99.553.99 1.194 0 .426-.157.753-.472.981-.315.228-.784.343-1.407.343h-2.212v-4.868h2.148c.555 0 .99.108 1.304.324.315.215.472.524.472.925 0 .265-.074.494-.222.685a1.27 1.27 0 01-.601.416zm-2.462-.185h1.462c.377 0 .664-.071.861-.213.204-.142.305-.348.305-.62 0-.271-.101-.475-.305-.611-.197-.135-.484-.203-.861-.203h-1.462v1.647zm1.546 2.184c.419 0 .734-.067.944-.203.209-.136.314-.349.314-.639 0-.29-.095-.503-.287-.638-.191-.142-.493-.213-.907-.213h-1.61v1.693h1.546zm-105.492-80.659v6.478h-.676v-2.989h-4.053v2.989h-.685v-6.478h.685v2.888h4.053v-2.888h.676zm3.705 1.573c.635 0 1.123.161 1.462.482.339.314.509.783.509 1.406v3.017h-.629v-.758c-.148.252-.367.45-.657.592-.284.142-.624.213-1.018.213-.543 0-.975-.13-1.296-.389a1.255 1.255 0 01-.481-1.027c0-.414.148-.747.444-1 .302-.253.78-.379 1.434-.379h1.546v-.296c0-.42-.117-.738-.352-.954-.234-.222-.577-.333-1.027-.333-.309 0-.605.053-.889.157a2.192 2.192 0 00-.731.417l-.296-.491c.247-.209.543-.37.889-.481a3.377 3.377 0 011.092-.176zm-.232 4.433c.371 0 .688-.083.954-.249.265-.173.462-.42.592-.741v-.796h-1.527c-.833 0-1.25.29-1.25.87a.81.81 0 00.324.676c.216.16.519.24.907.24zm7.698-4.433c.487 0 .925.108 1.314.324.395.21.703.503.925.879.229.377.343.799.343 1.268s-.114.895-.343 1.278c-.222.376-.53.672-.925.888a2.66 2.66 0 01-1.314.324c-.407 0-.781-.062-1.12-.185a2.378 2.378 0 01-.861-.555l.389-.389c.413.389.935.583 1.564.583.352 0 .669-.074.953-.222a1.85 1.85 0 00.704-.62c.185-.266.293-.562.324-.889h-2.601v-.5h2.591a1.804 1.804 0 00-.648-1.184c-.364-.309-.805-.463-1.323-.463-.629 0-1.151.194-1.564.583l-.389-.379c.235-.241.522-.423.861-.546.339-.13.713-.195 1.12-.195zm7.207.62h-1.842v4.285h-.657v-4.285h-1.841v-.583h4.34v.583zm2.733 4.332c-.469 0-.892-.105-1.268-.315a2.361 2.361 0 01-.889-.888 2.524 2.524 0 01-.324-1.278c0-.475.108-.9.324-1.277.216-.376.512-.669.889-.879.376-.21.799-.315 1.268-.315.468 0 .891.105 1.267.315.377.21.67.503.88.879.216.377.324.802.324 1.277 0 .475-.108.901-.324 1.278-.21.376-.503.672-.88.888-.376.21-.799.315-1.267.315zm0-.583c.345 0 .654-.077.925-.232a1.66 1.66 0 00.648-.675c.154-.29.231-.62.231-.991 0-.37-.077-.7-.231-.99a1.601 1.601 0 00-.648-.666 1.778 1.778 0 00-.925-.241c-.346 0-.658.08-.935.241a1.676 1.676 0 00-.648.666c-.154.29-.231.62-.231.99 0 .371.077.701.231.991.16.29.376.515.648.675.277.155.589.232.935.232zm7.118-3.749h-1.841v4.285h-.657v-4.285h-1.842v-.583h4.34v.583zm5.048-.62c.635 0 1.123.161 1.462.482.339.314.509.783.509 1.406v3.017h-.629v-.758c-.148.252-.367.45-.657.592-.284.142-.623.213-1.018.213-.543 0-.975-.13-1.296-.389a1.255 1.255 0 01-.481-1.027c0-.414.148-.747.444-1 .302-.253.78-.379 1.434-.379h1.546v-.296c0-.42-.117-.738-.352-.954-.234-.222-.577-.333-1.027-.333-.308 0-.605.053-.888.157a2.187 2.187 0 00-.732.417l-.296-.491c.247-.209.543-.37.889-.481a3.377 3.377 0 011.092-.176zm-.232 4.433c.371 0 .688-.083.954-.249.265-.173.462-.42.592-.741v-.796h-1.527c-.833 0-1.249.29-1.249.87 0 .284.108.509.323.676.216.16.519.24.907.24zm8.7-.101v1.749h-.62v-1.176h-4.359v1.176h-.62v-1.749h.278c.327-.019.549-.26.666-.722.117-.463.197-1.111.241-1.944l.064-1.629h3.591v4.295h.759zm-3.813-2.629a12.175 12.175 0 01-.176 1.712c-.086.445-.24.75-.462.917h3.035v-3.712h-2.341l-.056 1.083zm7.602-1.703c.456 0 .87.105 1.24.315.37.204.66.494.87.87.21.376.314.805.314 1.286 0 .488-.104.92-.314 1.296-.21.376-.5.67-.87.879a2.494 2.494 0 01-1.24.306c-.395 0-.753-.081-1.074-.241a2.065 2.065 0 01-.777-.722v2.712h-.657v-6.664h.629v.963c.197-.321.457-.568.777-.741a2.333 2.333 0 011.102-.259zm-.047 4.369c.34 0 .648-.077.926-.232a1.66 1.66 0 00.648-.675c.16-.29.24-.62.24-.991 0-.37-.08-.697-.24-.981a1.66 1.66 0 00-.648-.675 1.812 1.812 0 00-.926-.241c-.345 0-.657.08-.934.241a1.74 1.74 0 00-.648.675 2.026 2.026 0 00-.232.981c0 .371.078.701.232.991.16.29.376.515.648.675.277.155.589.232.934.232zm8.141-1.694h-4.073c.037.506.232.916.583 1.231.352.308.796.463 1.333.463.302 0 .58-.053.833-.158.253-.111.472-.271.657-.481l.37.426a2.08 2.08 0 01-.814.592 2.702 2.702 0 01-1.064.204c-.5 0-.944-.105-1.333-.315a2.343 2.343 0 01-.898-.888 2.524 2.524 0 01-.324-1.278c0-.475.102-.9.306-1.277.209-.376.493-.669.851-.879a2.4 2.4 0 011.222-.315c.45 0 .854.105 1.212.315.358.21.639.503.842.879.204.37.306.796.306 1.277l-.009.204zm-2.351-2.11c-.469 0-.864.151-1.185.453-.314.297-.493.685-.537 1.166h3.452c-.043-.481-.225-.869-.546-1.166-.314-.302-.709-.453-1.184-.453zm5.85 4.387c-.481 0-.913-.105-1.295-.315a2.296 2.296 0 01-.889-.879 2.574 2.574 0 01-.324-1.287c0-.475.108-.9.324-1.277.216-.376.512-.669.889-.879.382-.21.814-.315 1.295-.315.42 0 .793.084 1.12.25.333.161.596.398.787.713l-.491.333a1.496 1.496 0 00-.61-.537 1.784 1.784 0 00-.806-.185c-.351 0-.669.08-.953.241a1.659 1.659 0 00-.657.666c-.154.29-.231.62-.231.99 0 .377.077.71.231 1 .16.284.379.506.657.666.284.155.602.232.953.232.29 0 .559-.059.806-.176.246-.117.45-.296.61-.537l.491.333a1.893 1.893 0 01-.787.722c-.333.16-.706.241-1.12.241zm11.043-4.915v4.868h-.601v-3.85l-1.972 3.258h-.296l-1.971-3.267v3.859h-.602v-4.868h.667l2.064 3.508 2.1-3.508h.611zm3.915 1.722c.611.006 1.077.142 1.398.407.321.265.481.648.481 1.148 0 .518-.173.916-.518 1.193-.346.278-.839.414-1.481.408l-1.925-.01v-4.868h.657v1.703l1.388.019zm2.694-1.722h.657v4.868h-.657v-4.868zm-2.851 4.378c.45.006.79-.083 1.018-.268.235-.192.352-.469.352-.833 0-.358-.114-.624-.343-.796-.228-.173-.57-.263-1.027-.269l-1.231-.018v2.165l1.231.019zm9.809.537c-.469 0-.892-.105-1.268-.315a2.366 2.366 0 01-.888-.888 2.524 2.524 0 01-.324-1.278c0-.475.108-.9.324-1.277a2.3 2.3 0 01.888-.879c.376-.21.799-.315 1.268-.315s.892.105 1.268.315c.376.21.669.503.879.879.216.377.324.802.324 1.277 0 .475-.108.901-.324 1.278a2.3 2.3 0 01-.879.888c-.376.21-.799.315-1.268.315zm0-.583c.346 0 .654-.077.926-.232.277-.16.493-.385.647-.675.155-.29.232-.62.232-.991 0-.37-.077-.7-.232-.99a1.605 1.605 0 00-.647-.666 1.781 1.781 0 00-.926-.241c-.345 0-.657.08-.935.241a1.69 1.69 0 00-.648.666c-.154.29-.231.62-.231.99 0 .371.077.701.231.991.161.29.377.515.648.675.278.155.59.232.935.232zm7.119-3.749h-1.842v4.285h-.657v-4.285h-1.842v-.583h4.341v.583zm5.318-.583v4.868h-.657v-4.285h-3.054v4.285h-.657v-4.868h4.368zm4.376-.037c.457 0 .87.105 1.24.315.371.204.661.494.87.87.21.376.315.805.315 1.286 0 .488-.105.92-.315 1.296-.209.376-.499.67-.87.879a2.492 2.492 0 01-1.24.306 2.37 2.37 0 01-1.073-.241 2.075 2.075 0 01-.778-.722v2.712h-.657v-6.664h.63v.963a2.03 2.03 0 01.777-.741 2.33 2.33 0 011.101-.259zm-.046 4.369c.339 0 .648-.077.925-.232a1.66 1.66 0 00.648-.675c.161-.29.241-.62.241-.991 0-.37-.08-.697-.241-.981a1.66 1.66 0 00-.648-.675 1.808 1.808 0 00-.925-.241c-.346 0-.657.08-.935.241-.271.16-.487.385-.648.675a2.025 2.025 0 00-.231.981c0 .371.077.701.231.991.161.29.377.515.648.675.278.155.589.232.935.232zm5.531-4.369c.635 0 1.123.161 1.462.482.339.314.509.783.509 1.406v3.017h-.629v-.758c-.148.252-.367.45-.657.592-.284.142-.623.213-1.018.213-.543 0-.975-.13-1.296-.389a1.255 1.255 0 01-.481-1.027c0-.414.148-.747.444-1 .302-.253.78-.379 1.434-.379h1.546v-.296c0-.42-.117-.738-.352-.954-.234-.222-.577-.333-1.027-.333-.308 0-.605.053-.888.157a2.187 2.187 0 00-.732.417l-.296-.491c.247-.209.543-.37.889-.481a3.377 3.377 0 011.092-.176zm-.232 4.433c.371 0 .688-.083.954-.249.265-.173.462-.42.592-.741v-.796h-1.527c-.833 0-1.249.29-1.249.87a.81.81 0 00.324.676c.215.16.518.24.906.24zm7.053-2.045c.66.154.99.552.99 1.194 0 .426-.157.753-.472.981-.315.228-.784.342-1.407.342h-2.212v-4.868h2.148c.555 0 .99.108 1.304.324.315.216.472.525.472.926 0 .265-.074.493-.222.685a1.27 1.27 0 01-.601.416zm-2.462-.185h1.462c.377 0 .663-.071.861-.213.204-.142.305-.348.305-.62 0-.271-.101-.475-.305-.611-.198-.135-.484-.203-.861-.203h-1.462v1.647zm1.546 2.184c.419 0 .734-.068.944-.203.209-.136.314-.349.314-.639 0-.29-.095-.503-.287-.639-.191-.142-.493-.212-.907-.212h-1.61v1.693h1.546zm3.446-4.35h.657v3.869l3.249-3.869h.583v4.868h-.657v-3.868l-3.24 3.868h-.592v-4.868zm11.814 0v4.868h-.602v-3.85l-1.971 3.258h-.296l-1.972-3.267v3.859h-.601v-4.868h.666l2.064 3.508 2.101-3.508h.611zm8.66 0v4.868h-.657v-4.285h-3.054v4.285h-.657v-4.868h4.368zm1.868 0h.657v3.869l3.248-3.869h.583v4.868h-.657v-3.868l-3.239 3.868h-.592v-4.868zm8.408 4.915c-.482 0-.914-.105-1.296-.315a2.303 2.303 0 01-.889-.879 2.584 2.584 0 01-.323-1.287c0-.475.108-.9.323-1.277.216-.376.513-.669.889-.879.382-.21.814-.315 1.296-.315.419 0 .792.084 1.119.25.334.161.596.398.787.713l-.49.333a1.499 1.499 0 00-.611-.537 1.78 1.78 0 00-.805-.185 1.9 1.9 0 00-.954.241 1.671 1.671 0 00-.657.666c-.154.29-.231.62-.231.99 0 .377.077.71.231 1 .161.284.38.506.657.666.284.155.602.232.954.232.29 0 .558-.059.805-.176.247-.117.45-.296.611-.537l.49.333a1.887 1.887 0 01-.787.722c-.333.16-.706.241-1.119.241zm5.27-3.193c.611.006 1.074.142 1.388.407.321.265.482.648.482 1.148 0 .518-.173.916-.519 1.193-.339.278-.833.414-1.481.408l-1.962-.01v-4.868h.658v1.703l1.434.019zm-.167 2.656c.451.006.79-.083 1.018-.268.235-.192.352-.469.352-.833 0-.358-.114-.624-.342-.796-.229-.173-.571-.263-1.028-.269l-1.267-.018v2.165l1.267.019zm8.732-4.378v4.868h-.601v-3.85l-1.972 3.258h-.296l-1.971-3.267v3.859h-.602v-4.868h.667l2.064 3.508 2.1-3.508h.611zm3.878 4.915a2.56 2.56 0 01-1.268-.315 2.366 2.366 0 01-.888-.888 2.524 2.524 0 01-.324-1.278c0-.475.108-.9.324-1.277a2.3 2.3 0 01.888-.879 2.56 2.56 0 011.268-.315c.469 0 .892.105 1.268.315.377.21.67.503.879.879.216.377.324.802.324 1.277 0 .475-.108.901-.324 1.278a2.287 2.287 0 01-.879.888c-.376.21-.799.315-1.268.315zm0-.583c.346 0 .654-.077.926-.232.277-.16.493-.385.648-.675.154-.29.231-.62.231-.991 0-.37-.077-.7-.231-.99a1.613 1.613 0 00-.648-.666 1.781 1.781 0 00-.926-.241c-.345 0-.657.08-.934.241a1.676 1.676 0 00-.648.666c-.154.29-.232.62-.232.99 0 .371.078.701.232.991.16.29.376.515.648.675.277.155.589.232.934.232zm8.334.583a2.65 2.65 0 01-1.296-.315 2.3 2.3 0 01-.888-.879 2.574 2.574 0 01-.324-1.287c0-.475.108-.9.324-1.277a2.3 2.3 0 01.888-.879 2.65 2.65 0 011.296-.315c.42 0 .793.084 1.12.25.333.161.595.398.786.713l-.49.333a1.493 1.493 0 00-.611-.537 1.78 1.78 0 00-.805-.185c-.352 0-.669.08-.953.241a1.659 1.659 0 00-.657.666c-.155.29-.232.62-.232.99 0 .377.077.71.232 1 .16.284.379.506.657.666.284.155.601.232.953.232.29 0 .558-.059.805-.176.247-.117.451-.296.611-.537l.49.333a1.89 1.89 0 01-.786.722c-.333.16-.707.241-1.12.241zm9.969-4.915v4.868h-.657v-4.285h-3.054v4.285h-.657v-4.868h4.368zm3.876 4.915c-.468 0-.891-.105-1.267-.315a2.361 2.361 0 01-.889-.888 2.524 2.524 0 01-.324-1.278c0-.475.108-.9.324-1.277.216-.376.512-.669.889-.879.376-.21.799-.315 1.267-.315.469 0 .892.105 1.268.315.377.21.67.503.88.879.216.377.324.802.324 1.277 0 .475-.108.901-.324 1.278-.21.376-.503.672-.88.888-.376.21-.799.315-1.268.315zm0-.583c.346 0 .654-.077.926-.232a1.66 1.66 0 00.648-.675c.154-.29.231-.62.231-.991 0-.37-.077-.7-.231-.99a1.601 1.601 0 00-.648-.666 1.781 1.781 0 00-.926-.241c-.345 0-.657.08-.934.241a1.676 1.676 0 00-.648.666c-.154.29-.231.62-.231.99 0 .371.077.701.231.991.16.29.376.515.648.675.277.155.589.232.934.232zm8.596-.037v1.749h-.62v-1.176h-4.359v1.176h-.62v-1.749h.278c.327-.019.549-.26.666-.722.118-.463.198-1.111.241-1.944l.065-1.629h3.591v4.295h.758zm-3.813-2.629c-.03.691-.089 1.262-.175 1.712-.087.445-.241.75-.463.917h3.035v-3.712h-2.341l-.056 1.083zm8.518-1.083h-1.841v4.285h-.657v-4.285h-1.842v-.583h4.34v.583zm4.051 1.768c.66.154.99.552.99 1.194 0 .426-.157.753-.472.981-.315.228-.784.342-1.407.342h-2.212v-4.868h2.148c.555 0 .99.108 1.304.324.315.216.472.525.472.926 0 .265-.074.493-.222.685a1.27 1.27 0 01-.601.416zm-2.462-.185h1.462c.377 0 .664-.071.861-.213.204-.142.305-.348.305-.62 0-.271-.101-.475-.305-.611-.197-.135-.484-.203-.861-.203h-1.462v1.647zm1.546 2.184c.419 0 .734-.068.944-.203.209-.136.314-.349.314-.639 0-.29-.095-.503-.287-.639-.191-.142-.493-.212-.907-.212h-1.61v1.693h1.546zm7.703-1.712h-4.072c.037.506.232.916.583 1.231.352.308.796.463 1.333.463.302 0 .58-.053.833-.158.253-.111.472-.271.657-.481l.37.426a2.08 2.08 0 01-.814.592 2.703 2.703 0 01-1.065.204c-.499 0-.944-.105-1.332-.315a2.343 2.343 0 01-.898-.888 2.524 2.524 0 01-.324-1.278c0-.475.102-.9.305-1.277.21-.376.494-.669.852-.879a2.4 2.4 0 011.222-.315c.45 0 .854.105 1.212.315.358.21.639.503.842.879.204.37.306.796.306 1.277l-.01.204zm-2.35-2.11c-.469 0-.864.151-1.185.453-.315.297-.494.685-.537 1.166h3.452c-.043-.481-.225-.869-.546-1.166-.314-.302-.709-.453-1.184-.453zm6.322-.565c.457 0 .87.105 1.24.315.37.204.66.494.87.87.21.376.315.805.315 1.286 0 .488-.105.92-.315 1.296-.21.376-.5.67-.87.879a2.492 2.492 0 01-1.24.306c-.395 0-.753-.081-1.073-.241a2.075 2.075 0 01-.778-.722v2.712h-.657v-6.664h.629v.963a2.04 2.04 0 01.778-.741 2.33 2.33 0 011.101-.259zm-.046 4.369c.339 0 .648-.077.925-.232a1.66 1.66 0 00.648-.675c.161-.29.241-.62.241-.991 0-.37-.08-.697-.241-.981a1.66 1.66 0 00-.648-.675 1.808 1.808 0 00-.925-.241c-.346 0-.657.08-.935.241-.271.16-.487.385-.648.675a2.025 2.025 0 00-.231.981c0 .371.077.701.231.991.161.29.377.515.648.675.278.155.589.232.935.232zm7.977-1.629h-1.055v2.165h-.657v-2.165h-1.055l-1.49 2.165h-.786l1.749-2.508-1.611-2.36h.713l1.425 2.138h1.055v-2.138h.657v2.138h1.055l1.435-2.138h.713l-1.611 2.37 1.749 2.498h-.786l-1.5-2.165zm8.128 1.592v1.749h-.62v-1.176h-4.359v1.176h-.62v-1.749h.277c.327-.019.549-.26.667-.722.117-.463.197-1.111.24-1.944l.065-1.629h3.591v4.295h.759zm-3.813-2.629c-.031.691-.09 1.262-.176 1.712-.086.445-.241.75-.463.917h3.036v-3.712h-2.342l-.055 1.083zm9.351.972h-4.073c.037.506.232.916.584 1.231.351.308.795.463 1.332.463.303 0 .58-.053.833-.158.253-.111.472-.271.657-.481l.37.426a2.073 2.073 0 01-.814.592 2.702 2.702 0 01-1.064.204c-.5 0-.944-.105-1.333-.315a2.343 2.343 0 01-.898-.888 2.524 2.524 0 01-.324-1.278c0-.475.102-.9.306-1.277a2.29 2.29 0 01.851-.879 2.4 2.4 0 011.222-.315c.45 0 .854.105 1.212.315.358.21.639.503.842.879.204.37.306.796.306 1.277l-.009.204zm-2.351-2.11c-.469 0-.864.151-1.185.453-.314.297-.493.685-.537 1.166h3.453c-.044-.481-.226-.869-.547-1.166-.314-.302-.709-.453-1.184-.453zm3.814-.528h.657v2.157h3.064v-2.157h.657v4.868h-.657v-2.147h-3.064v2.147h-.657v-4.868zm6.246 0h.657v3.869l3.248-3.869h.583v4.868h-.657v-3.868l-3.239 3.868h-.592v-4.868zm10.629 2.638h-4.073c.037.506.232.916.584 1.231.351.308.795.463 1.332.463.303 0 .58-.053.833-.158.253-.111.472-.271.657-.481l.37.426a2.08 2.08 0 01-.814.592 2.702 2.702 0 01-1.064.204c-.5 0-.944-.105-1.333-.315a2.343 2.343 0 01-.898-.888 2.524 2.524 0 01-.324-1.278c0-.475.102-.9.306-1.277a2.29 2.29 0 01.851-.879 2.4 2.4 0 011.222-.315c.45 0 .854.105 1.212.315.358.21.639.503.842.879.204.37.306.796.306 1.277l-.009.204zm-2.351-2.11c-.469 0-.864.151-1.185.453-.314.297-.493.685-.537 1.166h3.453c-.044-.481-.226-.869-.547-1.166-.314-.302-.709-.453-1.184-.453zm9.256-.528v4.868h-.601v-3.85l-1.972 3.258h-.296l-1.971-3.267v3.859h-.602v-4.868h.667l2.064 3.508 2.1-3.508h.611z" fill="#929398"/><path d="M234.489 154.392v1.035h-6.044v-8.33h5.878v1.036h-4.688v2.558h4.176v1.011h-4.176v2.69h4.854zm1.124-2.725h3.2v.987h-3.2v-.987zm12.848-2.606c.794 0 1.42.23 1.88.69.469.46.703 1.142.703 2.047v3.629h-1.143v-3.499c0-.61-.143-1.07-.428-1.38-.278-.309-.678-.464-1.202-.464-.579 0-1.039.183-1.38.547-.341.357-.512.873-.512 1.547v3.249h-1.142v-3.499c0-.61-.143-1.07-.429-1.38-.277-.309-.678-.464-1.201-.464-.58 0-1.04.183-1.381.547-.341.357-.511.873-.511 1.547v3.249h-1.143v-6.307h1.095v.94a2.17 2.17 0 01.904-.737 2.966 2.966 0 011.274-.262c.491 0 .928.099 1.308.297.381.199.675.488.881.869a2.42 2.42 0 01.988-.857 3.277 3.277 0 011.439-.309zm6.981 0c.873 0 1.539.214 1.999.642.468.429.702 1.067.702 1.916v3.808h-1.083v-.833a1.84 1.84 0 01-.821.678c-.349.151-.765.226-1.249.226-.706 0-1.273-.17-1.702-.512-.42-.341-.63-.789-.63-1.344s.202-1 .606-1.333c.405-.341 1.047-.511 1.928-.511h1.809v-.227c0-.491-.143-.868-.429-1.13-.285-.262-.706-.393-1.261-.393-.373 0-.738.064-1.095.191a2.723 2.723 0 00-.904.488l-.476-.857c.325-.262.714-.46 1.166-.595a4.746 4.746 0 011.44-.214zm-.262 5.557c.436 0 .813-.096 1.131-.286a1.7 1.7 0 00.69-.833v-.88h-1.761c-.968 0-1.452.325-1.452.975 0 .318.123.567.369.75.246.182.587.274 1.023.274zm5.077-5.498h1.142v6.307h-1.142v-6.307zm.571-1.213a.782.782 0 01-.559-.215.71.71 0 01-.214-.523c0-.206.071-.381.214-.524a.762.762 0 01.559-.226c.222 0 .405.072.547.214a.658.658 0 01.227.512.744.744 0 01-.227.547.74.74 0 01-.547.215zm2.752-1.309h1.143v8.829h-1.143v-8.829zm-27.913 75.199v8.329h-1.166v-7.294h-4.831v7.294h-1.178v-8.329h7.175zm4.656 1.963c.873 0 1.539.214 2 .643.468.428.702 1.066.702 1.915v3.808h-1.083v-.833c-.191.294-.464.52-.821.678-.349.151-.766.226-1.25.226-.706 0-1.273-.17-1.701-.511-.421-.341-.631-.79-.631-1.345 0-.555.202-.999.607-1.333.404-.341 1.047-.511 1.928-.511h1.808v-.226c0-.492-.143-.869-.428-1.131-.286-.262-.706-.392-1.261-.392-.373 0-.738.063-1.095.19a2.73 2.73 0 00-.904.488l-.476-.857c.325-.262.713-.46 1.166-.595a4.745 4.745 0 011.439-.214zm-.261 5.557c.436 0 .813-.095 1.13-.286a1.7 1.7 0 00.69-.833v-.88h-1.761c-.968 0-1.452.325-1.452.976 0 .317.123.567.369.749.246.183.587.274 1.024.274zm8.363-5.557c.611 0 1.158.135 1.642.405.484.269.861.646 1.131 1.13.277.484.416 1.043.416 1.678 0 .634-.139 1.198-.416 1.689-.27.484-.647.861-1.131 1.131s-1.031.404-1.642.404a2.97 2.97 0 01-1.249-.261 2.608 2.608 0 01-.952-.762v3.26h-1.142v-8.615h1.094v1c.254-.349.575-.611.964-.785a2.98 2.98 0 011.285-.274zm-.095 5.438c.405 0 .765-.091 1.083-.274.325-.19.579-.452.761-.785.191-.341.286-.73.286-1.166 0-.437-.095-.821-.286-1.154a1.91 1.91 0 00-.761-.786 2.139 2.139 0 00-1.083-.274c-.397 0-.758.096-1.083.286-.317.183-.571.44-.761.774a2.355 2.355 0 00-.274 1.154c0 .436.091.825.274 1.166.182.333.436.595.761.785.325.183.686.274 1.083.274zm7.645.999c-.627 0-1.19-.138-1.69-.416a3.085 3.085 0 01-1.178-1.142 3.338 3.338 0 01-.416-1.666c0-.619.139-1.17.416-1.654a2.97 2.97 0 011.178-1.143 3.427 3.427 0 011.69-.416c.627 0 1.186.139 1.678.416.499.27.888.651 1.166 1.143.285.484.428 1.035.428 1.654 0 .618-.143 1.174-.428 1.666a3.005 3.005 0 01-1.166 1.142c-.492.278-1.051.416-1.678.416zm0-.999c.404 0 .765-.091 1.083-.274.325-.19.579-.452.761-.785.183-.341.274-.73.274-1.166 0-.437-.091-.821-.274-1.154a1.91 1.91 0 00-.761-.786 2.142 2.142 0 00-1.083-.274c-.405 0-.77.092-1.095.274a2.014 2.014 0 00-.761.786 2.355 2.355 0 00-.274 1.154c0 .436.091.825.274 1.166.19.333.444.595.761.785.325.183.69.274 1.095.274zm10.289-5.379v6.307h-1.142v-5.307h-2.713l-.071 1.404c-.04.849-.115 1.559-.227 2.13-.111.563-.293 1.015-.547 1.357-.254.341-.607.511-1.059.511a2.72 2.72 0 01-.702-.107l.071-.964c.104.024.199.036.286.036a.773.773 0 00.714-.417c.159-.277.262-.606.309-.987.048-.381.092-.924.131-1.63l.107-2.333h4.843zm5.124 2.142c.801.008 1.412.191 1.833.548.42.357.63.86.63 1.511 0 .682-.23 1.21-.69 1.582-.452.365-1.102.544-1.951.536l-2.737-.012v-6.307h1.142v2.13l1.773.012zm-.273 3.308c.515.008.904-.095 1.166-.309.269-.214.404-.532.404-.952 0-.413-.131-.714-.392-.904-.254-.191-.647-.29-1.178-.298l-1.5-.024v2.475l1.5.012zm-35.448 67.228v8.329h-1.166v-7.294h-4.831v7.294h-1.178v-8.329h7.175zm5.109 8.401c-.627 0-1.19-.139-1.69-.417a3.078 3.078 0 01-1.178-1.142 3.326 3.326 0 01-.417-1.666c0-.619.139-1.17.417-1.654a2.961 2.961 0 011.178-1.142 3.417 3.417 0 011.69-.417c.626 0 1.186.139 1.677.417.5.269.889.65 1.167 1.142.285.484.428 1.035.428 1.654s-.143 1.174-.428 1.666a2.994 2.994 0 01-1.167 1.142c-.491.278-1.051.417-1.677.417zm0-1c.404 0 .765-.091 1.082-.274.326-.19.58-.452.762-.785a2.44 2.44 0 00.274-1.166 2.37 2.37 0 00-.274-1.154 1.912 1.912 0 00-.762-.786 2.135 2.135 0 00-1.082-.273c-.405 0-.77.091-1.095.273a2.03 2.03 0 00-.762.786 2.369 2.369 0 00-.273 1.154c0 .436.091.825.273 1.166.191.333.445.595.762.785.325.183.69.274 1.095.274zm9.217-2.344c.817.206 1.226.718 1.226 1.535 0 .555-.211.984-.631 1.285-.413.301-1.031.452-1.856.452h-3.035v-6.306h2.928c.745 0 1.328.142 1.749.428.42.278.63.674.63 1.19 0 .333-.091.623-.273.869a1.65 1.65 0 01-.738.547zm-3.177-.321h1.713c.437 0 .766-.08.988-.238.23-.159.345-.389.345-.69 0-.603-.444-.905-1.333-.905h-1.713v1.833zm1.832 2.713c.476 0 .833-.076 1.071-.226.238-.151.357-.385.357-.702 0-.326-.111-.568-.333-.726-.214-.159-.555-.238-1.023-.238h-1.904v1.892h1.832zm9.059-4.427h-2.309v5.307h-1.142v-5.307h-2.309v-.999h5.76v.999zm3.59 5.379c-.627 0-1.19-.139-1.69-.417a3.078 3.078 0 01-1.178-1.142 3.336 3.336 0 01-.416-1.666c0-.619.139-1.17.416-1.654a2.961 2.961 0 011.178-1.142 3.417 3.417 0 011.69-.417c.627 0 1.186.139 1.678.417.499.269.888.65 1.166 1.142.285.484.428 1.035.428 1.654s-.143 1.174-.428 1.666a2.998 2.998 0 01-1.166 1.142c-.492.278-1.051.417-1.678.417zm0-1c.404 0 .765-.091 1.083-.274.325-.19.579-.452.761-.785.183-.341.274-.73.274-1.166 0-.436-.091-.821-.274-1.154a1.916 1.916 0 00-.761-.786 2.141 2.141 0 00-1.083-.273c-.405 0-.77.091-1.095.273a2.02 2.02 0 00-.761.786 2.358 2.358 0 00-.274 1.154c0 .436.091.825.274 1.166.19.333.444.595.761.785.325.183.69.274 1.095.274zm8.265-5.438c.611 0 1.159.135 1.642.405.484.269.861.646 1.131 1.13.277.484.416 1.043.416 1.678s-.139 1.198-.416 1.69c-.27.483-.647.86-1.131 1.13-.483.27-1.031.405-1.642.405a2.97 2.97 0 01-1.249-.262 2.608 2.608 0 01-.952-.762v3.261h-1.142v-8.615h1.094v.999a2.38 2.38 0 01.964-.785 2.98 2.98 0 011.285-.274zm-.095 5.438c.405 0 .766-.091 1.083-.274.325-.19.579-.452.761-.785.191-.341.286-.73.286-1.166 0-.436-.095-.821-.286-1.154a1.916 1.916 0 00-.761-.786 2.136 2.136 0 00-1.083-.273c-.397 0-.757.095-1.083.285a2.043 2.043 0 00-.761.774 2.358 2.358 0 00-.274 1.154c0 .436.091.825.274 1.166.182.333.436.595.761.785.326.183.686.274 1.083.274zm4.944-5.378h1.142v4.593l3.867-4.593h1.036v6.306h-1.143v-4.593l-3.855 4.593h-1.047v-6.306zm12.962.999h-2.308v5.307h-1.143v-5.307h-2.308v-.999h5.759v.999zm6.589 2.19c0 .087-.008.202-.024.345h-5.117c.072.555.314 1.003.726 1.344.421.333.94.5 1.559.5.754 0 1.361-.254 1.821-.761l.63.737a2.753 2.753 0 01-1.071.762c-.42.174-.892.262-1.416.262-.666 0-1.257-.135-1.773-.405a3.007 3.007 0 01-1.201-1.154 3.326 3.326 0 01-.417-1.666c0-.611.135-1.162.405-1.654a2.94 2.94 0 011.13-1.142 3.212 3.212 0 011.63-.417c.603 0 1.139.139 1.607.417.476.269.845.65 1.106 1.142.27.492.405 1.055.405 1.69zm-3.118-2.285c-.547 0-1.007.167-1.38.5-.365.333-.579.769-.643 1.309h4.046c-.063-.532-.281-.964-.654-1.297-.365-.341-.821-.512-1.369-.512zm13.928-.904v6.306h-1.142v-5.307h-3.558v5.307h-1.142v-6.306h5.842zm4.459-.06c.873 0 1.539.214 1.999.643.468.428.702 1.067.702 1.915v3.808h-1.082v-.833c-.191.294-.464.52-.821.678-.35.151-.766.227-1.25.227-.706 0-1.273-.171-1.701-.512-.421-.341-.631-.789-.631-1.345 0-.555.202-.999.607-1.332.404-.341 1.047-.512 1.927-.512h1.809v-.226c0-.492-.143-.869-.428-1.131-.286-.261-.706-.392-1.262-.392-.372 0-.737.063-1.094.19a2.746 2.746 0 00-.905.488l-.476-.857c.326-.261.714-.46 1.167-.595a4.776 4.776 0 011.439-.214zm-.261 5.557c.436 0 .813-.095 1.13-.286.317-.198.547-.476.69-.832v-.881h-1.761c-.968 0-1.452.325-1.452.976 0 .317.123.567.369.749.246.183.587.274 1.024.274zm8.363-5.557c.611 0 1.158.135 1.642.405.484.269.861.646 1.13 1.13.278.484.417 1.043.417 1.678s-.139 1.198-.417 1.69a2.87 2.87 0 01-1.13 1.13 3.312 3.312 0 01-1.642.405c-.452 0-.869-.088-1.249-.262a2.6 2.6 0 01-.952-.762v3.261h-1.143v-8.615h1.095v.999c.254-.349.575-.611.964-.785a2.98 2.98 0 011.285-.274zm-.095 5.438c.404 0 .765-.091 1.083-.274.325-.19.579-.452.761-.785.191-.341.286-.73.286-1.166 0-.436-.095-.821-.286-1.154a1.916 1.916 0 00-.761-.786 2.141 2.141 0 00-1.083-.273c-.397 0-.758.095-1.083.285a2.053 2.053 0 00-.762.774 2.369 2.369 0 00-.273 1.154c0 .436.091.825.273 1.166.183.333.437.595.762.785.325.183.686.274 1.083.274zm7.645 1c-.627 0-1.19-.139-1.69-.417a3.078 3.078 0 01-1.178-1.142 3.325 3.325 0 01-.416-1.666c0-.619.138-1.17.416-1.654a2.961 2.961 0 011.178-1.142 3.417 3.417 0 011.69-.417c.626 0 1.186.139 1.677.417.5.269.889.65 1.167 1.142.285.484.428 1.035.428 1.654s-.143 1.174-.428 1.666a2.994 2.994 0 01-1.167 1.142c-.491.278-1.051.417-1.677.417zm0-1c.404 0 .765-.091 1.083-.274.325-.19.579-.452.761-.785.183-.341.274-.73.274-1.166 0-.436-.091-.821-.274-1.154a1.916 1.916 0 00-.761-.786 2.141 2.141 0 00-1.083-.273c-.405 0-.77.091-1.095.273a2.03 2.03 0 00-.762.786 2.369 2.369 0 00-.273 1.154c0 .436.091.825.273 1.166.191.333.445.595.762.785.325.183.69.274 1.095.274zm10.289-5.378v6.306h-1.142v-5.307h-2.713l-.072 1.404c-.039.849-.115 1.559-.226 2.13-.111.563-.293 1.016-.547 1.357-.254.341-.607.511-1.059.511-.206 0-.44-.035-.702-.107l.071-.964c.103.024.199.036.286.036a.774.774 0 00.714-.416c.158-.278.262-.607.309-.988.048-.381.091-.924.131-1.63l.107-2.332h4.843zm5.124 2.141c.801.008 1.412.191 1.833.548.42.357.63.861.63 1.511 0 .682-.23 1.21-.69 1.583-.452.365-1.103.543-1.951.535l-2.737-.012v-6.306h1.142v2.13l1.773.011zm-.274 3.308c.516.008.905-.095 1.167-.309.269-.214.404-.531.404-.952 0-.412-.131-.714-.393-.904-.253-.191-.646-.29-1.178-.298l-1.499-.023v2.475l1.499.011z" fill="#24252E"/><g filter="url(#filter2_d)"><rect x="375.301" y="480.199" width="81.333" height="81.333" rx="16.267" fill="#3E54D8"/></g><path opacity=".9" d="M408.108 536.955c-2.358 0-4.459-.583-6.303-1.749-1.843-1.166-3.294-2.847-4.351-5.043-1.03-2.223-1.546-4.866-1.546-7.93 0-3.063.516-5.693 1.546-7.889 1.057-2.223 2.508-3.917 4.351-5.083 1.844-1.166 3.945-1.749 6.303-1.749 2.359 0 4.46.583 6.304 1.749 1.843 1.166 3.28 2.86 4.31 5.083 1.058 2.196 1.586 4.826 1.586 7.889 0 3.064-.528 5.707-1.586 7.93-1.03 2.196-2.467 3.877-4.31 5.043-1.844 1.166-3.945 1.749-6.304 1.749zm0-5.572c1.736 0 3.091-.745 4.067-2.236 1.003-1.491 1.505-3.796 1.505-6.914 0-3.117-.502-5.422-1.505-6.913-.976-1.491-2.331-2.237-4.067-2.237-1.708 0-3.063.746-4.066 2.237-.976 1.491-1.464 3.796-1.464 6.913 0 3.118.488 5.423 1.464 6.914 1.003 1.491 2.358 2.236 4.066 2.236zM434.251 508v28.467h-6.588v-23.18h-5.693V508h12.281z" fill="#fff"/><defs><filter id="filter0_d" x=".6" y=".067" width="830.8" height="760.8" filterUnits="userSpaceOnUse" color-interpolation-filters="sRGB"><feFlood flood-opacity="0" result="BackgroundImageFix"/><feColorMatrix in="SourceAlpha" values="0 0 0 0 0 0 0 0 0 0 0 0 0 0 0 0 0 0 127 0"/><feMorphology radius="34.567" in="SourceAlpha" result="effect1_dropShadow"/><feOffset dy="89.467"/><feGaussianBlur stdDeviation="90.483"/><feColorMatrix values="0 0 0 0 0.243137 0 0 0 0 0.329412 0 0 0 0 0.847059 0 0 0 0.06 0"/><feBlend in2="BackgroundImageFix" result="effect1_dropShadow"/><feBlend in="SourceGraphic" in2="effect1_dropShadow" result="shape"/></filter><filter id="filter1_d" x="221.246" y="373.459" width="388.704" height="61.479" filterUnits="userSpaceOnUse" color-interpolation-filters="sRGB"><feFlood flood-opacity="0" result="BackgroundImageFix"/><feColorMatrix in="SourceAlpha" values="0 0 0 0 0 0 0 0 0 0 0 0 0 0 0 0 0 0 127 0"/><feMorphology radius="8.594" in="SourceAlpha" result="effect1_dropShadow"/><feOffset dy="11.899"/><feGaussianBlur stdDeviation="7.272"/><feColorMatrix values="0 0 0 0 0.243137 0 0 0 0 0.329412 0 0 0 0 0.847059 0 0 0 0.51 0"/><feBlend in2="BackgroundImageFix" result="effect1_dropShadow"/><feBlend in="SourceGraphic" in2="effect1_dropShadow" result="shape"/></filter><filter id="filter2_d" x="357.001" y="480.199" width="117.933" height="142.333" filterUnits="userSpaceOnUse" color-interpolation-filters="sRGB"><feFlood flood-opacity="0" result="BackgroundImageFix"/><feColorMatrix in="SourceAlpha" values="0 0 0 0 0 0 0 0 0 0 0 0 0 0 0 0 0 0 127 0"/><feMorphology radius="26.433" in="SourceAlpha" result="effect1_dropShadow"/><feOffset dy="42.7"/><feGaussianBlur stdDeviation="22.367"/><feColorMatrix values="0 0 0 0 0.243137 0 0 0 0 0.329412 0 0 0 0 0.847059 0 0 0 0.51 0"/><feBlend in2="BackgroundImageFix" result="effect1_dropShadow"/><feBlend in="SourceGraphic" in2="effect1_dropShadow" result="shape"/></filter><clipPath id="clip0"><path fill="#fff" transform="translate(572.265 251.162)" d="M0 0h15.866v15.866H0z"/></clipPath><clipPath id="clip1"><path fill="#fff" transform="translate(572.265 325.35)" d="M0 0h15.866v15.866H0z"/></clipPath></defs></svg>