<svg width="384" height="374" fill="none" xmlns="http://www.w3.org/2000/svg"><g filter="url(#filter0_d)"><rect x="72" y="28" width="240" height="230" rx="36" fill="#fff"/></g><path d="M163.76 82.7c.546 0 1.02.09 1.422.27.408.18.72.438.936.774.216.336.324.735.324 1.197 0 .456-.108.855-.324 1.197a2.07 2.07 0 01-.936.774c-.402.18-.876.27-1.422.27h-1.422V89h-1.17v-6.3h2.592zm-.054 3.492c.51 0 .897-.108 1.161-.324.264-.216.396-.525.396-.927s-.132-.711-.396-.927c-.264-.216-.651-.324-1.161-.324h-1.368v2.502h1.368zm8.199.432c0 .078-.006.189-.018.333h-3.771c.066.354.237.636.513.846.282.204.63.306 1.044.306.528 0 .963-.174 1.305-.522l.603.693a2.032 2.032 0 01-.819.585c-.33.132-.702.198-1.116.198-.528 0-.993-.105-1.395-.315a2.309 2.309 0 01-.936-.873 2.53 2.53 0 01-.324-1.278c0-.468.105-.888.315-1.26.216-.378.513-.672.891-.882.378-.21.804-.315 1.278-.315.468 0 .885.105 1.251.315.372.204.66.495.864.873.21.372.315.804.315 1.296zm-2.43-1.584c-.36 0-.666.108-.918.324-.246.21-.396.492-.45.846h2.727a1.326 1.326 0 00-.441-.846c-.246-.216-.552-.324-.918-.324zm7.35.108h-2.565V89h-1.125v-4.806h3.69v.954zm.819-.954h1.125v3.168l2.655-3.168h1.026V89h-1.125v-3.168L178.679 89h-1.035v-4.806zm8.507 4.869c-.498 0-.945-.105-1.341-.315a2.323 2.323 0 01-.927-.873 2.476 2.476 0 01-.333-1.278c0-.474.111-.897.333-1.269.222-.372.528-.663.918-.873.396-.21.846-.315 1.35-.315.474 0 .888.096 1.242.288.36.192.63.468.81.828l-.864.504a1.328 1.328 0 00-.522-.495 1.36 1.36 0 00-.675-.171c-.42 0-.768.138-1.044.414-.276.27-.414.633-.414 1.089 0 .456.135.822.405 1.098.276.27.627.405 1.053.405.246 0 .471-.054.675-.162.21-.114.384-.282.522-.504l.864.504c-.186.36-.459.639-.819.837-.354.192-.765.288-1.233.288zm6.805-3.915h-1.683V89h-1.125v-3.852h-1.692v-.954h4.5v.954zm3.48-1.008c.468 0 .885.102 1.251.306.372.204.663.492.873.864.21.372.315.801.315 1.287 0 .486-.105.918-.315 1.296-.21.372-.501.66-.873.864a2.526 2.526 0 01-1.251.306c-.648 0-1.161-.216-1.539-.648v2.331h-1.125v-6.552h1.071v.63c.186-.228.414-.399.684-.513.276-.114.579-.171.909-.171zm-.126 3.96c.414 0 .753-.138 1.017-.414.27-.276.405-.639.405-1.089 0-.45-.135-.813-.405-1.089-.264-.276-.603-.414-1.017-.414-.27 0-.513.063-.729.189-.216.12-.387.294-.513.522a1.61 1.61 0 00-.189.792c0 .3.063.564.189.792.126.228.297.405.513.531.216.12.459.18.729.18zm5.414-3.96c.708 0 1.248.171 1.62.513.378.336.567.846.567 1.53V89h-1.062v-.585c-.138.21-.336.372-.594.486-.252.108-.558.162-.918.162s-.675-.06-.945-.18a1.537 1.537 0 01-.63-.513 1.343 1.343 0 01-.216-.747c0-.432.159-.777.477-1.035.324-.264.831-.396 1.521-.396h1.242v-.072c0-.336-.102-.594-.306-.774-.198-.18-.495-.27-.891-.27-.27 0-.537.042-.801.126a1.963 1.963 0 00-.657.351l-.441-.819a2.73 2.73 0 01.909-.441 4.045 4.045 0 011.125-.153zm-.153 4.104c.282 0 .531-.063.747-.189.222-.132.378-.318.468-.558v-.558h-1.161c-.648 0-.972.213-.972.639 0 .204.081.366.243.486.162.12.387.18.675.18zm9.006-.198v2.061h-1.053V89h-4.221v-4.806h1.125v3.852h2.295v-3.852h1.125v3.852h.729zm1.002-3.852h1.125v3.168l2.655-3.168h1.026V89h-1.125v-3.168L212.614 89h-1.035v-4.806zm10.378 0V89h-1.008v-1.449h-1.269L218.699 89h-1.206l1.134-1.602c-.348-.12-.615-.303-.801-.549-.18-.252-.27-.561-.27-.927 0-.552.195-.978.585-1.278.39-.3.927-.45 1.611-.45h2.205zm-2.169.945c-.726 0-1.089.273-1.089.819 0 .54.351.81 1.053.81h1.197v-1.629h-1.161zm-40.123 27.056c.243.05.428.148.555.295.127.143.19.332.19.565 0 .303-.108.537-.325.7-.213.163-.528.245-.945.245h-1.55v-3.5h1.455c.373 0 .665.077.875.23.21.153.315.375.315.665 0 .197-.05.363-.15.5a.904.904 0 01-.42.3zm-1.71-.11h1.07c.27 0 .477-.055.62-.165.147-.11.22-.27.22-.48 0-.21-.073-.37-.22-.48-.143-.11-.35-.165-.62-.165h-1.07v1.29zm1.185 1.62c.603 0 .905-.225.905-.675 0-.44-.302-.66-.905-.66h-1.185v1.335h1.185zm3.015-2.355c.343 0 .607.087.79.26.183.17.275.423.275.76V114h-.34v-.41a.81.81 0 01-.355.32 1.213 1.213 0 01-.55.115c-.293 0-.527-.07-.7-.21a.68.68 0 01-.26-.555c0-.223.08-.403.24-.54.163-.137.422-.205.775-.205h.835v-.16c0-.227-.063-.398-.19-.515-.127-.12-.312-.18-.555-.18-.167 0-.327.028-.48.085a1.168 1.168 0 00-.395.225l-.16-.265c.133-.113.293-.2.48-.26.187-.063.383-.095.59-.095zm-.125 2.395c.2 0 .372-.045.515-.135a.837.837 0 00.32-.4v-.43h-.825c-.45 0-.675.157-.675.47 0 .153.058.275.175.365.117.087.28.13.49.13zm5.765-2.375V114h-3.63v-2.63h.355v2.32h1.29v-2.32h.355v2.32h1.275v-2.32h.355zm4.602 1.425h-2.2a.95.95 0 00.315.665c.19.167.43.25.72.25.164 0 .314-.028.45-.085a1.01 1.01 0 00.355-.26l.2.23c-.116.14-.263.247-.44.32-.173.073-.365.11-.575.11-.27 0-.51-.057-.72-.17a1.278 1.278 0 01-.485-.48 1.366 1.366 0 01-.175-.69c0-.257.055-.487.165-.69.114-.203.267-.362.46-.475.197-.113.417-.17.66-.17.244 0 .462.057.655.17.194.113.345.272.455.475.11.2.165.43.165.69l-.005.11zm-1.27-1.14a.901.901 0 00-.64.245.951.951 0 00-.29.63h1.865a.933.933 0 00-.295-.63.888.888 0 00-.64-.245zm1.852.835h1.31v.31h-1.31v-.31zm5.384-1.14c.33 0 .588.095.775.285.19.19.285.47.285.84V114h-.355v-1.49c0-.273-.067-.482-.2-.625-.13-.143-.315-.215-.555-.215-.273 0-.488.085-.645.255-.157.167-.235.398-.235.695V114h-.355v-1.49c0-.273-.067-.482-.2-.625-.13-.143-.317-.215-.56-.215-.27 0-.485.085-.645.255-.157.167-.235.398-.235.695V114h-.355v-2.63h.34v.48a.947.947 0 01.39-.37c.167-.087.358-.13.575-.13.22 0 .41.047.57.14a.859.859 0 01.365.415c.097-.173.235-.308.415-.405.183-.1.392-.15.625-.15zm2.943 0c.343 0 .606.087.79.26.183.17.275.423.275.76V114h-.34v-.41a.815.815 0 01-.355.32 1.216 1.216 0 01-.55.115c-.294 0-.527-.07-.7-.21a.676.676 0 01-.26-.555c0-.223.08-.403.24-.54.163-.137.421-.205.775-.205h.835v-.16c0-.227-.064-.398-.19-.515-.127-.12-.312-.18-.555-.18-.167 0-.327.028-.48.085a1.158 1.158 0 00-.395.225l-.16-.265c.133-.113.293-.2.48-.26.186-.063.383-.095.59-.095zm-.125 2.395a.95.95 0 00.515-.135.837.837 0 00.32-.4v-.43h-.825c-.45 0-.675.157-.675.47 0 .153.058.275.175.365.116.087.28.13.49.13zm2.154-2.375h.355V114h-.355v-2.63zm.18-.575a.252.252 0 01-.185-.075.245.245 0 010-.355.252.252 0 01.185-.075c.073 0 .135.025.185.075.05.047.075.103.075.17a.252.252 0 01-.075.185.252.252 0 01-.185.075zm1.163-.505h.355V114h-.355v-3.71zm-26.013 31.905c.243.05.428.148.555.295.127.143.19.332.19.565 0 .303-.108.537-.325.7-.213.163-.528.245-.945.245h-1.55v-3.5h1.455c.373 0 .665.077.875.23.21.153.315.375.315.665 0 .197-.05.363-.15.5a.904.904 0 01-.42.3zm-1.71-.11h1.07c.27 0 .477-.055.62-.165.147-.11.22-.27.22-.48 0-.21-.073-.37-.22-.48-.143-.11-.35-.165-.62-.165h-1.07v1.29zm1.185 1.62c.603 0 .905-.225.905-.675 0-.44-.302-.66-.905-.66h-1.185v1.335h1.185zm3.015-2.355c.343 0 .607.087.79.26.183.17.275.423.275.76V144h-.34v-.41a.81.81 0 01-.355.32 1.213 1.213 0 01-.55.115c-.293 0-.527-.07-.7-.21a.68.68 0 01-.26-.555c0-.223.08-.403.24-.54.163-.137.422-.205.775-.205h.835v-.16c0-.227-.063-.398-.19-.515-.127-.12-.312-.18-.555-.18-.167 0-.327.028-.48.085a1.168 1.168 0 00-.395.225l-.16-.265c.133-.113.293-.2.48-.26.187-.063.383-.095.59-.095zm-.125 2.395c.2 0 .372-.045.515-.135a.837.837 0 00.32-.4v-.43h-.825c-.45 0-.675.157-.675.47 0 .153.058.275.175.365.117.087.28.13.49.13zm5.765-2.375V144h-3.63v-2.63h.355v2.32h1.29v-2.32h.355v2.32h1.275v-2.32h.355zm4.682 0V144h-.355v-2.315h-1.65V144h-.355v-2.63h2.36zm1.914-.02c.344 0 .607.087.79.26.184.17.275.423.275.76V144h-.34v-.41a.81.81 0 01-.355.32 1.21 1.21 0 01-.55.115c-.293 0-.526-.07-.7-.21a.68.68 0 01-.26-.555c0-.223.08-.403.24-.54.164-.137.422-.205.775-.205h.835v-.16c0-.227-.063-.398-.19-.515-.126-.12-.311-.18-.555-.18-.166 0-.326.028-.48.085a1.168 1.168 0 00-.395.225l-.16-.265c.134-.113.294-.2.48-.26.187-.063.384-.095.59-.095zm-.125 2.395c.2 0 .372-.045.515-.135a.831.831 0 00.32-.4v-.43h-.825c-.45 0-.675.157-.675.47 0 .153.059.275.175.365.117.087.28.13.49.13zm3.49-2.395c.247 0 .47.057.67.17.2.11.357.267.47.47.114.203.17.435.17.695 0 .263-.056.497-.17.7-.113.203-.27.362-.47.475-.196.11-.42.165-.67.165-.213 0-.406-.043-.58-.13a1.12 1.12 0 01-.42-.39v1.465h-.355v-3.6h.34v.52c.107-.173.247-.307.42-.4.177-.093.375-.14.595-.14zm-.025 2.36c.184 0 .35-.042.5-.125a.899.899 0 00.35-.365c.087-.157.13-.335.13-.535s-.043-.377-.13-.53a.899.899 0 00-.35-.365.976.976 0 00-.5-.13.99.99 0 00-.505.13.953.953 0 00-.35.365c-.083.153-.125.33-.125.53s.042.378.125.535a.953.953 0 00.35.365c.15.083.319.125.505.125zm3.183.315c-.253 0-.481-.057-.685-.17a1.286 1.286 0 01-.48-.48 1.366 1.366 0 01-.175-.69c0-.257.059-.487.175-.69.117-.203.277-.362.48-.475.204-.113.432-.17.685-.17.254 0 .482.057.685.17a1.2 1.2 0 01.475.475c.117.203.175.433.175.69 0 .257-.058.487-.175.69a1.238 1.238 0 01-.475.48c-.203.113-.431.17-.685.17zm0-.315a.995.995 0 00.5-.125.899.899 0 00.35-.365c.084-.157.125-.335.125-.535s-.041-.378-.125-.535a.862.862 0 00-.35-.36.958.958 0 00-.5-.13.99.99 0 00-.505.13.912.912 0 00-.35.36 1.126 1.126 0 00-.125.535c0 .2.042.378.125.535a.953.953 0 00.35.365c.15.083.319.125.505.125zm4.229-2.34V144h-.355v-2.315h-1.26l-.035.65c-.026.547-.09.967-.19 1.26-.1.293-.278.44-.535.44-.07 0-.155-.013-.255-.04l.025-.305c.06.013.102.02.125.02.137 0 .24-.063.31-.19s.117-.283.14-.47c.024-.187.044-.433.06-.74l.045-.94h1.925zm2.139.93c.33.003.58.077.75.22.174.143.26.35.26.62 0 .28-.093.495-.28.645-.183.15-.45.223-.8.22l-1.06-.005v-2.63h.355v.92l.775.01zm-.09 1.435c.244.003.427-.045.55-.145.127-.103.19-.253.19-.45 0-.193-.061-.337-.185-.43-.123-.093-.308-.142-.555-.145l-.685-.01v1.17l.685.01zM169.535 170.5v3.5h-.365v-3.18h-2.215V174h-.365v-3.5h2.945zm2.181 3.525c-.253 0-.482-.057-.685-.17a1.286 1.286 0 01-.48-.48 1.356 1.356 0 01-.175-.69c0-.257.058-.487.175-.69.117-.203.277-.362.48-.475.203-.113.432-.17.685-.17.253 0 .482.057.685.17.203.113.362.272.475.475.117.203.175.433.175.69 0 .257-.058.487-.175.69a1.245 1.245 0 01-.475.48c-.203.113-.432.17-.685.17zm0-.315a.998.998 0 00.5-.125.899.899 0 00.35-.365c.083-.157.125-.335.125-.535s-.042-.378-.125-.535a.862.862 0 00-.35-.36.96.96 0 00-.5-.13.987.987 0 00-.505.13.906.906 0 00-.35.36 1.126 1.126 0 00-.125.535c0 .2.042.378.125.535a.946.946 0 00.35.365c.15.083.318.125.505.125zm3.769-1.07c.356.083.535.298.535.645 0 .23-.085.407-.255.53-.17.123-.424.185-.76.185h-1.195v-2.63h1.16c.3 0 .535.058.705.175a.57.57 0 01.255.5c0 .143-.04.267-.12.37a.69.69 0 01-.325.225zm-1.33-.1h.79c.203 0 .358-.038.465-.115a.383.383 0 00.165-.335.37.37 0 00-.165-.33c-.107-.073-.262-.11-.465-.11h-.79v.89zm.835 1.18c.226 0 .396-.037.51-.11.113-.073.17-.188.17-.345 0-.157-.052-.272-.155-.345-.104-.077-.267-.115-.49-.115h-.87v.915h.835zm3.712-2.035h-.995V174h-.355v-2.315h-.995v-.315h2.345v.315zm1.476 2.34c-.253 0-.482-.057-.685-.17a1.286 1.286 0 01-.48-.48 1.356 1.356 0 01-.175-.69c0-.257.058-.487.175-.69.117-.203.277-.362.48-.475.203-.113.432-.17.685-.17.253 0 .482.057.685.17.203.113.362.272.475.475.117.203.175.433.175.69 0 .257-.058.487-.175.69a1.245 1.245 0 01-.475.48c-.203.113-.432.17-.685.17zm0-.315a.998.998 0 00.5-.125.899.899 0 00.35-.365c.083-.157.125-.335.125-.535s-.042-.378-.125-.535a.862.862 0 00-.35-.36.96.96 0 00-.5-.13.987.987 0 00-.505.13.906.906 0 00-.35.36 1.126 1.126 0 00-.125.535c0 .2.042.378.125.535a.946.946 0 00.35.365c.15.083.318.125.505.125zm3.449-2.36c.246 0 .47.057.67.17.2.11.356.267.47.47.113.203.17.435.17.695 0 .263-.057.497-.17.7a1.22 1.22 0 01-.47.475 1.35 1.35 0 01-.67.165c-.214 0-.407-.043-.58-.13a1.12 1.12 0 01-.42-.39v1.465h-.355v-3.6h.34v.52a1.09 1.09 0 01.42-.4c.176-.093.375-.14.595-.14zm-.025 2.36c.183 0 .35-.042.5-.125a.905.905 0 00.35-.365c.086-.157.13-.335.13-.535s-.044-.377-.13-.53a.905.905 0 00-.35-.365.979.979 0 00-.5-.13.939.939 0 00-.855.495c-.084.153-.125.33-.125.53s.041.378.125.535a.939.939 0 00.35.365c.15.083.318.125.505.125zm2.097-2.34h.355v2.09l1.755-2.09h.315V174h-.355v-2.09l-1.75 2.09h-.32v-2.63zm5.293.315h-.995V174h-.355v-2.315h-.995v-.315h2.345v.315zm2.691 1.11h-2.2a.95.95 0 00.315.665c.19.167.43.25.72.25.163 0 .313-.028.45-.085a1.01 1.01 0 00.355-.26l.2.23a1.12 1.12 0 01-.44.32c-.173.073-.365.11-.575.11-.27 0-.51-.057-.72-.17a1.27 1.27 0 01-.485-.48 1.356 1.356 0 01-.175-.69c0-.257.055-.487.165-.69a1.236 1.236 0 011.12-.645c.243 0 .462.057.655.17.193.113.345.272.455.475.11.2.165.43.165.69l-.005.11zm-1.27-1.14a.9.9 0 00-.64.245.946.946 0 00-.29.63h1.865a.938.938 0 00-.295-.63.888.888 0 00-.64-.245zm5.729-.285V174h-.355v-2.315h-1.65V174h-.355v-2.63h2.36zm1.914-.02c.344 0 .607.087.79.26.184.17.275.423.275.76V174h-.34v-.41a.81.81 0 01-.355.32 1.21 1.21 0 01-.55.115c-.293 0-.526-.07-.7-.21a.68.68 0 01-.26-.555c0-.223.08-.403.24-.54.164-.137.422-.205.775-.205h.835v-.16c0-.227-.063-.398-.19-.515-.126-.12-.311-.18-.555-.18-.166 0-.326.028-.48.085a1.168 1.168 0 00-.395.225l-.16-.265c.134-.113.294-.2.48-.26.187-.063.384-.095.59-.095zm-.125 2.395c.2 0 .372-.045.515-.135a.831.831 0 00.32-.4v-.43h-.825c-.45 0-.675.157-.675.47 0 .153.059.275.175.365.117.087.28.13.49.13zm3.491-2.395c.246 0 .47.057.67.17.2.11.356.267.47.47.113.203.17.435.17.695 0 .263-.057.497-.17.7a1.22 1.22 0 01-.47.475 1.35 1.35 0 01-.67.165c-.214 0-.407-.043-.58-.13a1.12 1.12 0 01-.42-.39v1.465h-.355v-3.6h.34v.52a1.09 1.09 0 01.42-.4c.176-.093.375-.14.595-.14zm-.025 2.36c.183 0 .35-.042.5-.125a.905.905 0 00.35-.365c.086-.157.13-.335.13-.535s-.044-.377-.13-.53a.905.905 0 00-.35-.365.979.979 0 00-.5-.13.939.939 0 00-.855.495c-.084.153-.125.33-.125.53s.041.378.125.535a.939.939 0 00.35.365c.15.083.318.125.505.125zm3.182.315c-.253 0-.481-.057-.685-.17a1.286 1.286 0 01-.48-.48 1.366 1.366 0 01-.175-.69c0-.257.059-.487.175-.69.117-.203.277-.362.48-.475.204-.113.432-.17.685-.17.254 0 .482.057.685.17a1.2 1.2 0 01.475.475c.117.203.175.433.175.69 0 .257-.058.487-.175.69a1.238 1.238 0 01-.475.48c-.203.113-.431.17-.685.17zm0-.315a.995.995 0 00.5-.125.899.899 0 00.35-.365c.084-.157.125-.335.125-.535s-.041-.378-.125-.535a.862.862 0 00-.35-.36.958.958 0 00-.5-.13.99.99 0 00-.505.13.912.912 0 00-.35.36 1.126 1.126 0 00-.125.535c0 .2.042.378.125.535a.953.953 0 00.35.365c.15.083.319.125.505.125zm4.229-2.34V174h-.355v-2.315h-1.26l-.035.65c-.026.547-.09.967-.19 1.26-.1.293-.278.44-.535.44-.07 0-.155-.013-.255-.04l.025-.305c.06.013.102.02.125.02.137 0 .24-.063.31-.19s.117-.283.14-.47c.024-.187.044-.433.06-.74l.045-.94h1.925zm2.14.93c.33.003.58.077.75.22.173.143.26.35.26.62 0 .28-.094.495-.28.645-.184.15-.45.223-.8.22l-1.06-.005v-2.63h.355v.92l.775.01zm-.09 1.435c.243.003.426-.045.55-.145.126-.103.19-.253.19-.45 0-.193-.062-.337-.185-.43-.124-.093-.309-.142-.555-.145l-.685-.01v1.17l.685.01z" fill="#373943"/><g filter="url(#filter1_d)"><rect x="171" y="236" width="40" height="40" rx="8" fill="#3E54D8"/></g><g filter="url(#filter2_d)"><rect x="147" y="193" width="89" height="21" rx="8" fill="#3E54D8"/></g><path opacity=".9" d="M187.135 263.24c-1.16 0-2.193-.287-3.1-.86-.906-.573-1.62-1.4-2.14-2.48-.506-1.093-.76-2.393-.76-3.9 0-1.507.254-2.8.76-3.88.52-1.093 1.234-1.927 2.14-2.5.907-.573 1.94-.86 3.1-.86 1.16 0 2.194.287 3.1.86.907.573 1.614 1.407 2.12 2.5.52 1.08.78 2.373.78 3.88 0 1.507-.26 2.807-.78 3.9-.506 1.08-1.213 1.907-2.12 2.48-.906.573-1.94.86-3.1.86zm0-2.74c.854 0 1.52-.367 2-1.1.494-.733.74-1.867.74-3.4s-.246-2.667-.74-3.4c-.48-.733-1.146-1.1-2-1.1-.84 0-1.506.367-2 1.1-.48.733-.72 1.867-.72 3.4s.24 2.667.72 3.4c.494.733 1.16 1.1 2 1.1zm12.858-11.5v14h-3.241v-11.4h-2.799V249h6.04z" fill="#fff"/><g opacity=".9"><path d="M161.488 60.281c.533-.429.858-1.04.858-1.82 0-1.521-1.235-2.561-2.769-2.561h-3.588V65h3.861c1.573 0 2.834-1.079 2.834-2.639 0-.949-.468-1.664-1.196-2.08zm-1.911-2.704c.572 0 .975.429.975 1.001 0 .572-.416 1.001-.975 1.001h-1.794v-2.002h1.794zm.273 5.746h-2.067v-2.145h2.067c.611 0 1.053.455 1.053 1.066 0 .624-.442 1.079-1.053 1.079zm5.45-.884h4.901c.039-.221.065-.442.065-.689 0-1.911-1.365-3.432-3.289-3.432-2.041 0-3.432 1.495-3.432 3.432 0 1.937 1.378 3.432 3.562 3.432 1.248 0 2.223-.507 2.834-1.391l-1.352-.78c-.286.377-.806.65-1.456.65-.884 0-1.599-.364-1.833-1.222zm-.026-1.3c.195-.832.806-1.313 1.703-1.313.702 0 1.404.377 1.612 1.313h-3.315zm11.052-2.639v.767c-.468-.585-1.17-.949-2.119-.949-1.729 0-3.159 1.495-3.159 3.432 0 1.937 1.43 3.432 3.159 3.432.949 0 1.651-.364 2.119-.949V65h1.677v-6.5h-1.677zm-1.807 5.083c-1.027 0-1.794-.741-1.794-1.833s.767-1.833 1.794-1.833c1.04 0 1.807.741 1.807 1.833s-.767 1.833-1.807 1.833zm8.723-3.471V58.5h-1.469v-1.82l-1.677.507V58.5h-1.131v1.612h1.131v2.704c0 1.755.793 2.444 3.146 2.184v-1.521c-.962.052-1.469.039-1.469-.663v-2.704h1.469z" fill="#3E54D8"/><path d="M193.509 55.9h-1.846l-2.6 4.303-2.613-4.303h-1.846V65h1.794v-5.889l2.561 4.212h.208l2.561-4.225V65h1.781v-9.1zm6.557 2.6v.767c-.468-.585-1.17-.949-2.119-.949-1.729 0-3.159 1.495-3.159 3.432 0 1.937 1.43 3.432 3.159 3.432.949 0 1.651-.364 2.119-.949V65h1.677v-6.5h-1.677zm-1.807 5.083c-1.027 0-1.794-.741-1.794-1.833s.767-1.833 1.794-1.833c1.04 0 1.807.741 1.807 1.833s-.767 1.833-1.807 1.833zm6.682-3.965V58.5h-1.677V65h1.677v-3.107c0-1.365 1.105-1.755 1.976-1.651V58.37c-.819 0-1.638.364-1.976 1.248zm8.95 5.382l-2.691-3.289 2.613-3.211h-2.002l-2.236 2.86V55.9h-1.677V65h1.677v-2.951L211.941 65h1.95zm1.784-2.561h4.901c.039-.221.065-.442.065-.689 0-1.911-1.365-3.432-3.289-3.432-2.041 0-3.432 1.495-3.432 3.432 0 1.937 1.378 3.432 3.562 3.432 1.248 0 2.223-.507 2.834-1.391l-1.352-.78c-.286.377-.806.65-1.456.65-.884 0-1.599-.364-1.833-1.222zm-.026-1.3c.195-.832.806-1.313 1.703-1.313.702 0 1.404.377 1.612 1.313h-3.315zm9.69-1.027V58.5h-1.469v-1.82l-1.677.507V58.5h-1.131v1.612h1.131v2.704c0 1.755.793 2.444 3.146 2.184v-1.521c-.962.052-1.469.039-1.469-.663v-2.704h1.469z" fill="#ED6373"/></g><rect x="132.25" y="101.25" width="118.5" height="22.5" rx="5.75" stroke="#EAF1FE" stroke-width=".5"/><rect x="132.25" y="131.25" width="118.5" height="22.5" rx="5.75" stroke="#EAF1FE" stroke-width=".5"/><rect x="132.25" y="161.25" width="118.5" height="22.5" rx="5.75" stroke="#EAF1FE" stroke-width=".5"/><path d="M175.93 201.5c.303 0 .567.05.79.15.227.1.4.243.52.43s.18.408.18.665c0 .253-.06.475-.18.665-.12.187-.293.33-.52.43-.223.1-.487.15-.79.15h-.79V205h-.65v-3.5h1.44zm-.03 1.94c.283 0 .498-.06.645-.18.147-.12.22-.292.22-.515 0-.223-.073-.395-.22-.515-.147-.12-.362-.18-.645-.18h-.76v1.39h.76zm4.555.24c0 .043-.003.105-.01.185h-2.095a.742.742 0 00.285.47c.157.113.35.17.58.17a.975.975 0 00.725-.29l.335.385c-.12.143-.272.252-.455.325-.183.073-.39.11-.62.11-.293 0-.552-.058-.775-.175a1.283 1.283 0 01-.52-.485c-.12-.21-.18-.447-.18-.71 0-.26.058-.493.175-.7.12-.21.285-.373.495-.49.21-.117.447-.175.71-.175.26 0 .492.058.695.175.207.113.367.275.48.485.117.207.175.447.175.72zm-1.35-.88a.74.74 0 00-.76.65h1.515a.738.738 0 00-.245-.47.746.746 0 00-.51-.18zm4.084.06h-1.425V205h-.625v-2.67h2.05v.53zm.455-.53h.625v1.76l1.475-1.76h.57V205h-.625v-1.76l-1.47 1.76h-.575v-2.67zm4.725 2.705c-.276 0-.525-.058-.745-.175a1.295 1.295 0 01-.7-1.195 1.308 1.308 0 01.695-1.19c.22-.117.47-.175.75-.175.264 0 .494.053.69.16.2.107.35.26.45.46l-.48.28a.734.734 0 00-.29-.275.757.757 0 00-.375-.095.79.79 0 00-.58.23c-.153.15-.23.352-.23.605s.075.457.225.61c.154.15.349.225.585.225.137 0 .262-.03.375-.09a.77.77 0 00.29-.28l.48.28c-.103.2-.255.355-.455.465-.196.107-.425.16-.685.16zm3.781-2.175h-.935V205h-.625v-2.14h-.94v-.53h2.5v.53zm1.934-.56c.26 0 .491.057.695.17.206.113.368.273.485.48.116.207.175.445.175.715 0 .27-.059.51-.175.72a1.224 1.224 0 01-.485.48c-.204.113-.435.17-.695.17-.36 0-.645-.12-.855-.36v1.295h-.625v-3.64h.595v.35a.962.962 0 01.38-.285c.153-.063.321-.095.505-.095zm-.07 2.2a.75.75 0 00.565-.23c.15-.153.225-.355.225-.605s-.075-.452-.225-.605a.75.75 0 00-.565-.23.789.789 0 00-.405.105.724.724 0 00-.285.29.895.895 0 00-.105.44c0 .167.035.313.105.44.07.127.165.225.285.295.12.067.255.1.405.1zm3.007-2.2c.394 0 .694.095.9.285.21.187.315.47.315.85V205h-.59v-.325a.73.73 0 01-.33.27c-.14.06-.31.09-.51.09s-.375-.033-.525-.1a.858.858 0 01-.35-.285.746.746 0 01-.12-.415c0-.24.089-.432.265-.575.18-.147.462-.22.845-.22h.69v-.04c0-.187-.056-.33-.17-.43-.11-.1-.275-.15-.495-.15-.15 0-.298.023-.445.07a1.106 1.106 0 00-.365.195l-.245-.455c.14-.107.309-.188.505-.245.197-.057.405-.085.625-.085zm-.085 2.28a.808.808 0 00.415-.105.59.59 0 00.26-.31v-.31h-.645c-.36 0-.54.118-.54.355a.32.32 0 00.135.27c.09.067.215.1.375.1zm5.004-.11v1.145h-.585V205h-2.345v-2.67h.625v2.14h1.275v-2.14h.625v2.14h.405zm.556-2.14h.625v1.76l1.475-1.76h.57V205h-.625v-1.76l-1.47 1.76h-.575v-2.67zm5.766 0V205h-.56v-.805h-.705l-.545.805h-.67l.63-.89a.912.912 0 01-.445-.305.864.864 0 01-.15-.515c0-.307.108-.543.325-.71.217-.167.515-.25.895-.25h1.225zm-1.205.525c-.403 0-.605.152-.605.455 0 .3.195.45.585.45h.665v-.905h-.645z" fill="#fff"/><defs><filter id="filter0_d" x="0" y="0" width="384" height="374" filterUnits="userSpaceOnUse" color-interpolation-filters="sRGB"><feFlood flood-opacity="0" result="BackgroundImageFix"/><feColorMatrix in="SourceAlpha" values="0 0 0 0 0 0 0 0 0 0 0 0 0 0 0 0 0 0 127 0"/><feMorphology radius="17" in="SourceAlpha" result="effect1_dropShadow"/><feOffset dy="44"/><feGaussianBlur stdDeviation="44.5"/><feColorMatrix values="0 0 0 0 0.243137 0 0 0 0 0.329412 0 0 0 0 0.847059 0 0 0 0.06 0"/><feBlend in2="BackgroundImageFix" result="effect1_dropShadow"/><feBlend in="SourceGraphic" in2="effect1_dropShadow" result="shape"/></filter><filter id="filter1_d" x="162" y="236" width="58" height="70" filterUnits="userSpaceOnUse" color-interpolation-filters="sRGB"><feFlood flood-opacity="0" result="BackgroundImageFix"/><feColorMatrix in="SourceAlpha" values="0 0 0 0 0 0 0 0 0 0 0 0 0 0 0 0 0 0 127 0"/><feMorphology radius="13" in="SourceAlpha" result="effect1_dropShadow"/><feOffset dy="21"/><feGaussianBlur stdDeviation="11"/><feColorMatrix values="0 0 0 0 0.243137 0 0 0 0 0.329412 0 0 0 0 0.847059 0 0 0 0.51 0"/><feBlend in2="BackgroundImageFix" result="effect1_dropShadow"/><feBlend in="SourceGraphic" in2="effect1_dropShadow" result="shape"/></filter><filter id="filter2_d" x="138" y="193" width="107" height="51" filterUnits="userSpaceOnUse" color-interpolation-filters="sRGB"><feFlood flood-opacity="0" result="BackgroundImageFix"/><feColorMatrix in="SourceAlpha" values="0 0 0 0 0 0 0 0 0 0 0 0 0 0 0 0 0 0 127 0"/><feMorphology radius="13" in="SourceAlpha" result="effect1_dropShadow"/><feOffset dy="21"/><feGaussianBlur stdDeviation="11"/><feColorMatrix values="0 0 0 0 0.243137 0 0 0 0 0.329412 0 0 0 0 0.847059 0 0 0 0.51 0"/><feBlend in2="BackgroundImageFix" result="effect1_dropShadow"/><feBlend in="SourceGraphic" in2="effect1_dropShadow" result="shape"/></filter></defs></svg>