<svg width="384" height="374" fill="none" xmlns="http://www.w3.org/2000/svg"><g filter="url(#filter0_d)"><rect x="72" y="28" width="240" height="230" rx="36" fill="#fff"/></g><path d="M99.78 67.09a3.605 3.605 0 01-1.728-.414 3.159 3.159 0 01-1.206-1.161 3.234 3.234 0 01-.432-1.665c0-.618.147-1.173.441-1.665a3.093 3.093 0 011.206-1.152 3.543 3.543 0 011.728-.423c.516 0 .987.09 1.413.27.426.18.786.441 1.08.783l-.756.711a2.205 2.205 0 00-1.683-.738 2.33 2.33 0 00-1.161.288 2.011 2.011 0 00-.801.783 2.262 2.262 0 00-.288 1.143c0 .426.096.807.288 1.143.192.336.459.6.801.792a2.39 2.39 0 001.161.279c.666 0 1.227-.249 1.683-.747l.756.72a2.867 2.867 0 01-1.089.783c-.426.18-.897.27-1.413.27zm5.429-.027c-.486 0-.924-.105-1.314-.315a2.338 2.338 0 01-.918-.873 2.53 2.53 0 01-.324-1.278c0-.474.108-.897.324-1.269.222-.372.528-.663.918-.873.39-.21.828-.315 1.314-.315.492 0 .933.105 1.323.315.39.21.693.501.909.873.222.372.333.795.333 1.269 0 .474-.111.9-.333 1.278a2.275 2.275 0 01-.909.873c-.39.21-.831.315-1.323.315zm0-.963c.414 0 .756-.138 1.026-.414.27-.276.405-.639.405-1.089 0-.45-.135-.813-.405-1.089s-.612-.414-1.026-.414c-.414 0-.756.138-1.026.414-.264.276-.396.639-.396 1.089 0 .45.132.813.396 1.089.27.276.612.414 1.026.414zm7.159-1.602c.594.18.891.564.891 1.152 0 .432-.162.765-.486.999-.324.234-.804.351-1.44.351h-2.448v-4.806h2.349c.588 0 1.047.108 1.377.324.33.216.495.522.495.918 0 .246-.066.459-.198.639-.126.18-.306.321-.54.423zm-2.412-.297h1.179c.582 0 .873-.201.873-.603 0-.39-.291-.585-.873-.585h-1.179v1.188zm1.287 1.98c.618 0 .927-.201.927-.603 0-.21-.072-.366-.216-.468-.144-.108-.369-.162-.675-.162h-1.323v1.233h1.287zm7.714-1.557c0 .078-.006.189-.018.333h-3.771c.066.354.237.636.513.846.282.204.63.306 1.044.306.528 0 .963-.174 1.305-.522l.603.693a2.032 2.032 0 01-.819.585c-.33.132-.702.198-1.116.198-.528 0-.993-.105-1.395-.315a2.309 2.309 0 01-.936-.873 2.53 2.53 0 01-.324-1.278c0-.468.105-.888.315-1.26.216-.378.513-.672.891-.882.378-.21.804-.315 1.278-.315.468 0 .885.105 1.251.315.372.204.66.495.864.873.21.372.315.804.315 1.296zm-2.43-1.584c-.36 0-.666.108-.918.324-.246.21-.396.492-.45.846h2.727a1.326 1.326 0 00-.441-.846c-.246-.216-.552-.324-.918-.324zm7.292.108h-1.683V67h-1.125v-3.852h-1.692v-.954h4.5v.954zm.816-.954h1.125v1.953h2.421v-1.953h1.125V67h-1.125v-1.899h-2.421V67h-1.125v-4.806zm6.179 0h1.125v3.168l2.655-3.168h1.026V67h-1.125v-3.168L131.849 67h-1.035v-4.806zm8.317 2.88h-.873V67h-1.125v-4.806h1.125v1.944h.9l1.422-1.944h1.206l-1.746 2.313L141.903 67h-1.323l-1.449-1.926zM98.83 86.065h-1.95l-.42.935h-.385l1.6-3.5h.365l1.6 3.5h-.39l-.42-.935zm-.135-.3l-.84-1.88-.84 1.88h1.68zm2.486.065h-.6V87h-.355v-2.63h.355v1.155h.605l.925-1.155h.385l-1.035 1.275 1.11 1.355h-.42l-.97-1.17zm4.69.86v.97h-.335V87h-2.405v-2.63h.355v2.32h1.605v-2.32h.355v2.32h.425zm.678-2.32h.355v2.09l1.755-2.09h.315V87h-.355v-2.09l-1.75 2.09h-.32v-2.63zm3.442 0h.355v2.09l1.755-2.09h.315V87h-.355v-2.09l-1.75 2.09h-.32v-2.63zm-11.866 32.66c-.347 0-.662-.077-.945-.23-.28-.157-.5-.37-.66-.64a1.779 1.779 0 01-.235-.91c0-.337.078-.64.235-.91a1.7 1.7 0 01.66-.635c.283-.157.598-.235.945-.235a1.9 1.9 0 01.935.23c.28.153.5.367.66.64.16.27.24.573.24.91 0 .337-.08.642-.24.915a1.7 1.7 0 01-.66.635 1.9 1.9 0 01-.935.23zm0-.33c.277 0 .527-.062.75-.185.223-.127.398-.3.525-.52.127-.223.19-.472.19-.745s-.063-.52-.19-.74a1.335 1.335 0 00-.525-.52 1.49 1.49 0 00-.75-.19c-.277 0-.528.063-.755.19a1.37 1.37 0 00-.53.52c-.127.22-.19.467-.19.74 0 .273.063.522.19.745.13.22.307.393.53.52.227.123.478.185.755.185zm3.908-2.265c.243 0 .46.055.65.165.193.107.343.258.45.455.107.193.16.415.16.665 0 .257-.057.485-.17.685-.11.197-.265.35-.465.46-.2.11-.43.165-.69.165-.437 0-.775-.153-1.015-.46-.24-.307-.36-.73-.36-1.27 0-.563.107-.995.32-1.295.217-.3.553-.503 1.01-.61l1.18-.27.06.325-1.11.255c-.377.083-.653.232-.83.445-.177.21-.273.522-.29.935a1.18 1.18 0 01.445-.475c.19-.117.408-.175.655-.175zm-.055 2.3a.96.96 0 00.49-.125.887.887 0 00.34-.36c.083-.153.125-.327.125-.52s-.04-.363-.12-.51a.831.831 0 00-.34-.34.968.968 0 00-.495-.125.998.998 0 00-.5.125.875.875 0 00-.34.34 1.05 1.05 0 00-.12.51c0 .193.04.367.12.52a.92.92 0 00.345.36.99.99 0 00.495.125zm5.706-2.365V117h-3.63v-2.63h.355v2.32h1.29v-2.32h.355v2.32h1.275v-2.32h.355zm.405 2.32v.885h-.335V117h-.445v-.31h.78zm.608-2.32h.355v2.09l1.755-2.09h.315V117h-.355v-2.09l-1.75 2.09h-.32v-2.63zm3.443 0h.355v2.09l1.755-2.09h.315V117h-.355v-2.09l-1.75 2.09h-.32v-2.63zm1.195-.38c-.227 0-.407-.057-.54-.17-.134-.113-.202-.273-.205-.48h.255c.003.13.05.235.14.315.09.077.206.115.35.115a.52.52 0 00.35-.115.413.413 0 00.145-.315h.255c-.004.207-.074.367-.21.48-.134.113-.314.17-.54.17zm6.121 2.7v.945h-.335V117h-2.355v.635h-.335v-.945h.15c.176-.01.296-.14.36-.39.063-.25.106-.6.13-1.05l.035-.88h1.94v2.32h.41zm-2.06-1.42a6.778 6.778 0 01-.095.925c-.047.24-.13.405-.25.495h1.64v-2.005h-1.265l-.03.585zm3.837 1.755c-.254 0-.482-.057-.685-.17a1.271 1.271 0 01-.48-.48 1.356 1.356 0 01-.175-.69c0-.257.058-.487.175-.69.116-.203.276-.362.48-.475.203-.113.431-.17.685-.17.253 0 .481.057.685.17.203.113.361.272.475.475.116.203.175.433.175.69 0 .257-.059.487-.175.69a1.252 1.252 0 01-.475.48c-.204.113-.432.17-.685.17zm0-.315a1 1 0 00.5-.125.905.905 0 00.35-.365c.083-.157.125-.335.125-.535s-.042-.378-.125-.535a.868.868 0 00-.35-.36.963.963 0 00-.5-.13.987.987 0 00-.505.13.9.9 0 00-.35.36 1.115 1.115 0 00-.125.535c0 .2.041.378.125.535a.939.939 0 00.35.365c.15.083.318.125.505.125zm3.646.29l-.835-1.1-.84 1.1h-.4l1.04-1.35-.99-1.28h.4l.79 1.03.79-1.03h.39l-.99 1.28 1.05 1.35h-.405zm1.979.025c-.254 0-.482-.057-.685-.17a1.271 1.271 0 01-.48-.48 1.356 1.356 0 01-.175-.69c0-.257.058-.487.175-.69.116-.203.276-.362.48-.475.203-.113.431-.17.685-.17.253 0 .481.057.685.17.203.113.361.272.475.475.116.203.175.433.175.69 0 .257-.059.487-.175.69a1.252 1.252 0 01-.475.48c-.204.113-.432.17-.685.17zm0-.315a1 1 0 00.5-.125.905.905 0 00.35-.365c.083-.157.125-.335.125-.535s-.042-.378-.125-.535a.868.868 0 00-.35-.36.963.963 0 00-.5-.13.987.987 0 00-.505.13.9.9 0 00-.35.36 1.115 1.115 0 00-.125.535c0 .2.041.378.125.535a.939.939 0 00.35.365c.15.083.318.125.505.125zm4.644-.02v.945h-.335V117h-2.355v.635h-.335v-.945h.15c.176-.01.296-.14.36-.39.063-.25.106-.6.13-1.05l.035-.88h1.94v2.32h.41zm-2.06-1.42a6.778 6.778 0 01-.095.925c-.047.24-.13.405-.25.495h1.64v-2.005h-1.265l-.03.585zm2.776-.375a.262.262 0 01-.19-.08.273.273 0 01-.075-.195.262.262 0 01.265-.27.26.26 0 01.19.08c.054.05.08.113.08.19a.262.262 0 01-.08.195.26.26 0 01-.19.08zm0 2.13a.262.262 0 01-.19-.08.273.273 0 01-.075-.195.262.262 0 01.265-.27.26.26 0 01.19.08c.054.05.08.113.08.19a.262.262 0 01-.08.195.26.26 0 01-.19.08z" fill="#373943"/><path d="M137.027 116.01c0 .27-.1.5-.3.69-.197.187-.484.3-.86.34v.56h-.41v-.555a2.83 2.83 0 01-.7-.135 1.526 1.526 0 01-.525-.28l.225-.505c.123.1.273.185.45.255.176.067.36.108.55.125v-1a3.97 3.97 0 01-.595-.185 1.058 1.058 0 01-.395-.3c-.107-.133-.16-.308-.16-.525 0-.27.098-.5.295-.69.196-.19.481-.303.855-.34v-.565h.41v.555c.186.01.368.042.545.095.18.053.336.123.47.21l-.205.505a2.077 2.077 0 00-.81-.27v1.01c.24.057.438.118.595.185a1 1 0 01.4.3c.11.13.165.303.165.52zm-2.075-1.545c0 .11.043.198.13.265.086.067.211.123.375.17v-.89c-.17.027-.297.08-.38.16a.39.39 0 00-.125.295zm.915 2.03c.176-.027.306-.078.39-.155a.368.368 0 00.13-.285.32.32 0 00-.135-.27 1.135 1.135 0 00-.385-.175v.885zm1.682-1.145h1.375v.52h-1.375v-.52zm3.354 1.7c-.28 0-.53-.07-.75-.21a1.448 1.448 0 01-.52-.62 2.284 2.284 0 01-.19-.97c0-.373.063-.695.19-.965.126-.273.3-.48.52-.62.22-.143.47-.215.75-.215s.53.072.75.215c.223.14.398.347.525.62.126.27.19.592.19.965a2.3 2.3 0 01-.19.97c-.127.27-.302.477-.525.62-.22.14-.47.21-.75.21zm0-.565a.68.68 0 00.59-.31c.146-.207.22-.515.22-.925 0-.41-.074-.718-.22-.925a.68.68 0 00-.59-.31.686.686 0 00-.59.31c-.144.207-.215.515-.215.925 0 .41.071.718.215.925.146.207.343.31.59.31zm2.24-.28a.39.39 0 01.29.115.406.406 0 01.115.3c0 .053-.008.11-.025.17a1.952 1.952 0 01-.09.26l-.255.705h-.405l.2-.765a.39.39 0 01-.175-.14.438.438 0 01-.06-.23.393.393 0 01.405-.415zm2.227.845c-.28 0-.53-.07-.75-.21a1.455 1.455 0 01-.52-.62 2.3 2.3 0 01-.19-.97c0-.373.064-.695.19-.965.127-.273.3-.48.52-.62.22-.143.47-.215.75-.215s.53.072.75.215c.224.14.399.347.525.62.127.27.19.592.19.965s-.063.697-.19.97a1.43 1.43 0 01-.525.62c-.22.14-.47.21-.75.21zm0-.565a.68.68 0 00.59-.31c.147-.207.22-.515.22-.925 0-.41-.073-.718-.22-.925a.68.68 0 00-.59-.31.689.689 0 00-.59.31c-.143.207-.215.515-.215.925 0 .41.072.718.215.925.147.207.344.31.59.31zm3.085-3.035c.48 0 .851.15 1.115.45.266.3.4.73.4 1.29 0 .393-.072.73-.215 1.01a1.509 1.509 0 01-.605.635 1.81 1.81 0 01-.895.215c-.18 0-.35-.018-.51-.055a1.428 1.428 0 01-.41-.17l.24-.49c.173.113.395.17.665.17.336 0 .6-.103.79-.31.19-.207.285-.505.285-.895v-.005a.995.995 0 01-.395.275c-.16.06-.34.09-.54.09-.23 0-.437-.043-.62-.13a1.033 1.033 0 01-.43-.38 1.028 1.028 0 01-.155-.565c0-.227.056-.425.17-.595.113-.173.266-.307.46-.4.193-.093.41-.14.65-.14zm.05 1.7a.75.75 0 00.51-.17.541.541 0 00.2-.43c0-.17-.065-.31-.195-.42-.127-.113-.304-.17-.53-.17a.725.725 0 00-.495.165.533.533 0 00-.19.43c0 .183.063.328.19.435.126.107.296.16.51.16z" fill="#3E54D8"/><path d="M152.601 117.97a3.68 3.68 0 01-.455-1.055 5.136 5.136 0 01-.155-1.285c0-.457.052-.885.155-1.285a3.61 3.61 0 01.455-1.055h.595c-.203.36-.353.732-.45 1.115a5.14 5.14 0 00-.14 1.225c0 .437.047.847.14 1.23.097.38.247.75.45 1.11h-.595zm.979-2.62h1.375v.52h-1.375v-.52zm3.353 1.7c-.28 0-.53-.07-.75-.21a1.455 1.455 0 01-.52-.62 2.284 2.284 0 01-.19-.97c0-.373.063-.695.19-.965.127-.273.3-.48.52-.62.22-.143.47-.215.75-.215s.53.072.75.215c.223.14.398.347.525.62.127.27.19.592.19.965s-.063.697-.19.97c-.127.27-.302.477-.525.62-.22.14-.47.21-.75.21zm0-.565a.68.68 0 00.59-.31c.147-.207.22-.515.22-.925 0-.41-.073-.718-.22-.925a.68.68 0 00-.59-.31.687.687 0 00-.59.31c-.143.207-.215.515-.215.925 0 .41.072.718.215.925.147.207.343.31.59.31zm2.241-.28a.393.393 0 01.405.415c0 .053-.009.11-.025.17a2.3 2.3 0 01-.09.26l-.255.705h-.405l.2-.765a.38.38 0 01-.175-.14.438.438 0 01-.06-.23c0-.123.038-.223.115-.3a.39.39 0 01.29-.115zm2.227.845c-.28 0-.53-.07-.75-.21a1.448 1.448 0 01-.52-.62 2.284 2.284 0 01-.19-.97c0-.373.063-.695.19-.965.126-.273.3-.48.52-.62.22-.143.47-.215.75-.215s.53.072.75.215c.223.14.398.347.525.62.126.27.19.592.19.965a2.3 2.3 0 01-.19.97c-.127.27-.302.477-.525.62-.22.14-.47.21-.75.21zm0-.565a.68.68 0 00.59-.31c.146-.207.22-.515.22-.925 0-.41-.074-.718-.22-.925a.68.68 0 00-.59-.31.686.686 0 00-.59.31c-.144.207-.215.515-.215.925 0 .41.071.718.215.925.146.207.343.31.59.31zm3.09-2.985v3.5h-.65v-2.955h-.74v-.545h1.39zm1.474 1.885a.76.76 0 01-.605-.265c-.153-.177-.23-.408-.23-.695s.077-.518.23-.695a.76.76 0 01.605-.265.76.76 0 01.605.265c.157.173.235.405.235.695 0 .29-.078.523-.235.7a.77.77 0 01-.605.26zm2.1-1.885h.49l-2.39 3.5h-.49l2.39-3.5zm-2.1 1.535a.358.358 0 00.315-.16c.077-.107.115-.257.115-.45s-.038-.343-.115-.45a.358.358 0 00-.315-.16.372.372 0 00-.315.165c-.077.107-.115.255-.115.445s.038.34.115.45c.08.107.185.16.315.16zm2.295 2a.76.76 0 01-.605-.265c-.153-.177-.23-.408-.23-.695s.077-.518.23-.695a.76.76 0 01.605-.265.76.76 0 01.605.265c.157.177.235.408.235.695s-.078.518-.235.695a.76.76 0 01-.605.265zm0-.35a.367.367 0 00.315-.16c.077-.11.115-.26.115-.45s-.038-.338-.115-.445a.365.365 0 00-.315-.165.367.367 0 00-.315.16c-.077.107-.115.257-.115.45s.038.343.115.45c.077.107.182.16.315.16zm1.019 1.285c.203-.36.353-.732.45-1.115a4.98 4.98 0 00.145-1.225 4.98 4.98 0 00-.145-1.225 4.527 4.527 0 00-.45-1.115h.595c.197.297.347.647.45 1.05.107.4.16.83.16 1.29 0 .46-.053.89-.16 1.29a3.544 3.544 0 01-.45 1.05h-.595z" fill="#ED6373"/><path d="M99.805 126.68v1.105h-.345V127h-3.055l-.005.785h-.345l.005-1.105h.175c.23-.013.39-.195.48-.545.09-.353.145-.853.165-1.5l.04-1.135h2.36v3.18h.525zm-2.595-2.01a8.628 8.628 0 01-.125 1.32c-.063.343-.172.573-.325.69h2.155v-2.86H97.24l-.03.85zm3.265-.3h.355v1.165h1.655v-1.165h.355V127h-.355v-1.16h-1.655V127h-.355v-2.63zm5.674 1.425h-2.2a.95.95 0 00.315.665c.19.167.43.25.72.25.163 0 .313-.028.45-.085a1.02 1.02 0 00.355-.26l.2.23c-.117.14-.264.247-.44.32a1.47 1.47 0 01-.575.11c-.27 0-.51-.057-.72-.17a1.264 1.264 0 01-.485-.48 1.356 1.356 0 01-.175-.69c0-.257.055-.487.165-.69.113-.203.266-.362.46-.475.196-.113.416-.17.66-.17.243 0 .461.057.655.17.193.113.345.272.455.475.11.2.165.43.165.69l-.005.11zm-1.27-1.14a.898.898 0 00-.64.245.946.946 0 00-.29.63h1.865a.942.942 0 00-.295-.63.89.89 0 00-.64-.245zm3.736.985c.356.083.535.298.535.645 0 .23-.085.407-.255.53-.17.123-.424.185-.76.185h-1.195v-2.63h1.16c.3 0 .535.058.705.175a.57.57 0 01.255.5c0 .143-.04.267-.12.37a.69.69 0 01-.325.225zm-1.33-.1h.79c.203 0 .358-.038.465-.115a.383.383 0 00.165-.335.37.37 0 00-.165-.33c-.107-.073-.262-.11-.465-.11h-.79v.89zm.835 1.18c.226 0 .396-.037.51-.11.113-.073.17-.188.17-.345 0-.157-.052-.272-.155-.345-.104-.077-.267-.115-.49-.115h-.87v.915h.835zm1.862-2.35h.355v1.165h1.655v-1.165h.355V127h-.355v-1.16h-1.655V127h-.355v-2.63zm4.459 2.655c-.254 0-.482-.057-.685-.17a1.271 1.271 0 01-.48-.48 1.356 1.356 0 01-.175-.69c0-.257.058-.487.175-.69.116-.203.276-.362.48-.475.203-.113.431-.17.685-.17.253 0 .481.057.685.17.203.113.361.272.475.475.116.203.175.433.175.69 0 .257-.059.487-.175.69a1.252 1.252 0 01-.475.48c-.204.113-.432.17-.685.17zm0-.315a1 1 0 00.5-.125.905.905 0 00.35-.365c.083-.157.125-.335.125-.535s-.042-.378-.125-.535a.868.868 0 00-.35-.36.963.963 0 00-.5-.13.987.987 0 00-.505.13.9.9 0 00-.35.36 1.115 1.115 0 00-.125.535c0 .2.041.378.125.535a.939.939 0 00.35.365c.15.083.318.125.505.125zm2.093-2.34h.355v2.09l1.755-2.09h.315V127h-.355v-2.09l-1.75 2.09h-.32v-2.63zm1.195-.38c-.226 0-.406-.057-.54-.17-.133-.113-.201-.273-.205-.48h.255c.004.13.05.235.14.315a.52.52 0 00.35.115c.144 0 .26-.038.35-.115a.406.406 0 00.145-.315h.255c-.003.207-.073.367-.21.48-.133.113-.313.17-.54.17zm6.121 2.7v.945h-.335V127h-2.355v.635h-.335v-.945h.15c.177-.01.297-.14.36-.39.064-.25.107-.6.13-1.05l.035-.88h1.94v2.32h.41zm-2.06-1.42a6.473 6.473 0 01-.095.925c-.046.24-.13.405-.25.495h1.64v-2.005h-1.265l-.03.585zm3.837 1.755c-.253 0-.482-.057-.685-.17a1.286 1.286 0 01-.48-.48 1.356 1.356 0 01-.175-.69c0-.257.058-.487.175-.69.117-.203.277-.362.48-.475.203-.113.432-.17.685-.17.253 0 .482.057.685.17.203.113.362.272.475.475.117.203.175.433.175.69 0 .257-.058.487-.175.69a1.245 1.245 0 01-.475.48c-.203.113-.432.17-.685.17zm0-.315a.998.998 0 00.5-.125.899.899 0 00.35-.365c.083-.157.125-.335.125-.535s-.042-.378-.125-.535a.862.862 0 00-.35-.36.96.96 0 00-.5-.13.987.987 0 00-.505.13.906.906 0 00-.35.36 1.126 1.126 0 00-.125.535c0 .2.042.378.125.535a.946.946 0 00.35.365c.15.083.318.125.505.125zm3.646.29l-.835-1.1-.84 1.1h-.4l1.04-1.35-.99-1.28h.4l.79 1.03.79-1.03h.39l-.99 1.28 1.05 1.35h-.405zm1.979.025c-.253 0-.482-.057-.685-.17a1.286 1.286 0 01-.48-.48 1.356 1.356 0 01-.175-.69c0-.257.058-.487.175-.69.117-.203.277-.362.48-.475.203-.113.432-.17.685-.17.253 0 .482.057.685.17.203.113.362.272.475.475.117.203.175.433.175.69 0 .257-.058.487-.175.69a1.245 1.245 0 01-.475.48c-.203.113-.432.17-.685.17zm0-.315a.998.998 0 00.5-.125.899.899 0 00.35-.365c.083-.157.125-.335.125-.535s-.042-.378-.125-.535a.862.862 0 00-.35-.36.96.96 0 00-.5-.13.987.987 0 00-.505.13.906.906 0 00-.35.36 1.126 1.126 0 00-.125.535c0 .2.042.378.125.535a.946.946 0 00.35.365c.15.083.318.125.505.125zm4.644-.02v.945h-.335V127h-2.355v.635h-.335v-.945h.15c.177-.01.297-.14.36-.39.064-.25.107-.6.13-1.05l.035-.88h1.94v2.32h.41zm-2.06-1.42a6.473 6.473 0 01-.095.925c-.046.24-.13.405-.25.495h1.64v-2.005h-1.265l-.03.585zm2.777-.375a.26.26 0 01-.19-.08.273.273 0 01-.075-.195c0-.077.025-.14.075-.19a.26.26 0 01.19-.08.26.26 0 01.19.08.25.25 0 01.08.19.266.266 0 01-.08.195.26.26 0 01-.19.08zm0 2.13a.26.26 0 01-.19-.08.273.273 0 01-.075-.195c0-.077.025-.14.075-.19a.26.26 0 01.19-.08.26.26 0 01.19.08.25.25 0 01.08.19.266.266 0 01-.08.195.26.26 0 01-.19.08z" fill="#373943"/><path d="M141.421 126.01c0 .27-.1.5-.3.69-.196.187-.483.3-.86.34v.56h-.41v-.555a2.838 2.838 0 01-.7-.135 1.526 1.526 0 01-.525-.28l.225-.505c.124.1.274.185.45.255.177.067.36.108.55.125v-1a4.008 4.008 0 01-.595-.185 1.074 1.074 0 01-.395-.3c-.106-.133-.16-.308-.16-.525 0-.27.099-.5.295-.69.197-.19.482-.303.855-.34v-.565h.41v.555c.187.01.369.042.545.095.18.053.337.123.47.21l-.205.505a2.066 2.066 0 00-.81-.27v1.01c.24.057.439.118.595.185.16.067.294.167.4.3.11.13.165.303.165.52zm-2.075-1.545c0 .11.044.198.13.265.087.067.212.123.375.17v-.89c-.17.027-.296.08-.38.16a.394.394 0 00-.125.295zm.915 2.03c.177-.027.307-.078.39-.155a.365.365 0 00.13-.285.32.32 0 00-.135-.27 1.126 1.126 0 00-.385-.175v.885zm1.683-1.145h1.375v.52h-1.375v-.52zm3.353 1.7c-.28 0-.53-.07-.75-.21a1.455 1.455 0 01-.52-.62 2.3 2.3 0 01-.19-.97c0-.373.064-.695.19-.965.127-.273.3-.48.52-.62.22-.143.47-.215.75-.215s.53.072.75.215c.224.14.399.347.525.62.127.27.19.592.19.965s-.063.697-.19.97a1.43 1.43 0 01-.525.62c-.22.14-.47.21-.75.21zm0-.565a.68.68 0 00.59-.31c.147-.207.22-.515.22-.925 0-.41-.073-.718-.22-.925a.68.68 0 00-.59-.31.689.689 0 00-.59.31c-.143.207-.215.515-.215.925 0 .41.072.718.215.925.147.207.344.31.59.31zm2.241-.28a.392.392 0 01.405.415c0 .053-.008.11-.025.17a1.952 1.952 0 01-.09.26l-.255.705h-.405l.2-.765a.384.384 0 01-.175-.14.438.438 0 01-.06-.23.392.392 0 01.405-.415zm1.962-2.705v3.5h-.65v-2.955h-.74v-.545h1.39zm3.335 0v.435l-1.36 3.065h-.695l1.315-2.95h-1.375v.595h-.605V123.5h2.72z" fill="#3E54D8"/><path d="M155.428 127.97a3.68 3.68 0 01-.455-1.055 5.136 5.136 0 01-.155-1.285c0-.457.052-.885.155-1.285a3.61 3.61 0 01.455-1.055h.595c-.203.36-.353.732-.45 1.115a5.14 5.14 0 00-.14 1.225c0 .437.047.847.14 1.23.097.38.247.75.45 1.11h-.595zm.979-2.62h1.375v.52h-1.375v-.52zm3.353 1.7c-.28 0-.53-.07-.75-.21a1.455 1.455 0 01-.52-.62 2.284 2.284 0 01-.19-.97c0-.373.063-.695.19-.965.127-.273.3-.48.52-.62.22-.143.47-.215.75-.215s.53.072.75.215c.223.14.398.347.525.62.127.27.19.592.19.965s-.063.697-.19.97c-.127.27-.302.477-.525.62-.22.14-.47.21-.75.21zm0-.565a.68.68 0 00.59-.31c.147-.207.22-.515.22-.925 0-.41-.073-.718-.22-.925a.68.68 0 00-.59-.31.687.687 0 00-.59.31c-.143.207-.215.515-.215.925 0 .41.072.718.215.925.147.207.343.31.59.31zm2.241-.28a.393.393 0 01.405.415c0 .053-.009.11-.025.17a2.3 2.3 0 01-.09.26l-.255.705h-.405l.2-.765a.38.38 0 01-.175-.14.438.438 0 01-.06-.23c0-.123.038-.223.115-.3a.39.39 0 01.29-.115zm2.227.845c-.28 0-.53-.07-.75-.21a1.455 1.455 0 01-.52-.62 2.284 2.284 0 01-.19-.97c0-.373.063-.695.19-.965.127-.273.3-.48.52-.62.22-.143.47-.215.75-.215s.53.072.75.215c.223.14.398.347.525.62.127.27.19.592.19.965s-.063.697-.19.97c-.127.27-.302.477-.525.62-.22.14-.47.21-.75.21zm0-.565a.68.68 0 00.59-.31c.147-.207.22-.515.22-.925 0-.41-.073-.718-.22-.925a.68.68 0 00-.59-.31.687.687 0 00-.59.31c-.143.207-.215.515-.215.925 0 .41.072.718.215.925.147.207.343.31.59.31zm4.415-.035v.55h-2.58v-.435l1.39-1.32c.156-.15.261-.28.315-.39a.753.753 0 00.085-.335.45.45 0 00-.165-.375c-.11-.087-.272-.13-.485-.13-.357 0-.63.122-.82.365l-.455-.35a1.33 1.33 0 01.55-.425c.233-.103.493-.155.78-.155.38 0 .683.09.91.27a.89.89 0 01.34.735c0 .19-.04.368-.12.535-.08.167-.234.357-.46.57l-.935.89h1.65zm1.204-1.065a.76.76 0 01-.605-.265c-.154-.177-.23-.408-.23-.695s.076-.518.23-.695a.76.76 0 01.605-.265c.25 0 .451.088.605.265.156.173.235.405.235.695 0 .29-.079.523-.235.7a.77.77 0 01-.605.26zm2.1-1.885h.49l-2.39 3.5h-.49l2.39-3.5zm-2.1 1.535a.36.36 0 00.315-.16c.076-.107.115-.257.115-.45s-.039-.343-.115-.45a.36.36 0 00-.315-.16.372.372 0 00-.315.165c-.077.107-.115.255-.115.445s.038.34.115.45c.08.107.185.16.315.16zm2.295 2a.76.76 0 01-.605-.265c-.154-.177-.23-.408-.23-.695s.076-.518.23-.695a.76.76 0 01.605-.265c.25 0 .451.088.605.265.156.177.235.408.235.695s-.079.518-.235.695a.762.762 0 01-.605.265zm0-.35a.367.367 0 00.315-.16c.076-.11.115-.26.115-.45s-.039-.338-.115-.445a.365.365 0 00-.315-.165.365.365 0 00-.315.16c-.077.107-.115.257-.115.45s.038.343.115.45c.076.107.181.16.315.16zm1.019 1.285c.203-.36.353-.732.45-1.115.096-.383.145-.792.145-1.225 0-.433-.049-.842-.145-1.225a4.527 4.527 0 00-.45-1.115h.595c.196.297.346.647.45 1.05.106.4.16.83.16 1.29 0 .46-.054.89-.16 1.29a3.597 3.597 0 01-.45 1.05h-.595z" fill="#ED6373"/><path d="M158.12 87.03c-.347 0-.66-.077-.94-.23a1.71 1.71 0 01-.655-.635 1.803 1.803 0 01-.235-.915c0-.337.078-.64.235-.91.16-.273.38-.487.66-.64.28-.153.593-.23.94-.23.26 0 .5.043.72.13.22.087.407.213.56.38l-.235.235c-.273-.277-.618-.415-1.035-.415a1.52 1.52 0 00-.755.19c-.227.127-.405.3-.535.52-.127.22-.19.467-.19.74 0 .273.063.52.19.74.13.22.308.393.535.52.227.127.478.19.755.19.42 0 .765-.14 1.035-.42l.235.235a1.535 1.535 0 01-.565.385c-.22.087-.46.13-.72.13zm3.861-2.66V87h-.355v-1.095a2.21 2.21 0 01-.895.2c-.316 0-.563-.072-.74-.215-.176-.147-.265-.365-.265-.655v-.865h.355v.845c0 .197.064.347.19.45.127.1.302.15.525.15.247 0 .524-.065.83-.195v-1.25h.355zm3.308 1.425h-2.2a.95.95 0 00.315.665c.19.167.43.25.72.25a1.007 1.007 0 00.805-.345l.2.23c-.116.14-.263.247-.44.32a1.46 1.46 0 01-.575.11c-.27 0-.51-.057-.72-.17a1.273 1.273 0 01-.485-.48 1.368 1.368 0 01-.175-.69c0-.257.055-.487.165-.69.114-.203.267-.362.46-.475a1.3 1.3 0 01.66-.17c.244 0 .462.057.655.17.194.113.345.272.455.475.11.2.165.43.165.69l-.005.11zm-1.27-1.14a.9.9 0 00-.64.245.951.951 0 00-.29.63h1.865a.933.933 0 00-.295-.63.887.887 0 00-.64-.245zm3.794.03h-.995V87h-.355v-2.315h-.995v-.315h2.345v.315z" fill="#373943"/><path d="M101.346 99.218c0 .486-.18.9-.54 1.242-.354.336-.87.54-1.548.612v1.008h-.738v-.999a5.044 5.044 0 01-1.26-.243c-.396-.132-.711-.3-.945-.504l.405-.909c.222.18.492.333.81.459.318.12.648.195.99.225v-1.8a7.169 7.169 0 01-1.071-.333 1.918 1.918 0 01-.711-.54c-.192-.24-.288-.555-.288-.945 0-.486.177-.9.531-1.242.354-.342.867-.546 1.539-.612V93.62h.738v.999c.336.018.663.075.981.171.324.096.606.222.846.378l-.369.909a3.745 3.745 0 00-1.458-.486v1.818c.432.102.789.213 1.071.333.288.12.528.3.72.54.198.234.297.546.297.936zm-3.735-2.781c0 .198.078.357.234.477.156.12.381.222.675.306v-1.602c-.306.048-.534.144-.684.288a.707.707 0 00-.225.531zm1.647 3.654c.318-.048.552-.141.702-.279a.658.658 0 00.234-.513.574.574 0 00-.243-.486c-.162-.126-.393-.231-.693-.315v1.593zm7.463-5.391v6.3h-1.17v-5.319h-1.332V94.7h2.502zm3.428 0v6.3h-1.17v-5.319h-1.332V94.7h2.502zm5.915 0v6.3h-1.17v-5.319h-1.332V94.7h2.502zm3.878 6.39a2.46 2.46 0 01-1.35-.378c-.396-.258-.708-.63-.936-1.116-.228-.492-.342-1.074-.342-1.746 0-.672.114-1.251.342-1.737.228-.492.54-.864.936-1.116a2.418 2.418 0 011.35-.387c.504 0 .954.129 1.35.387.402.252.717.624.945 1.116.228.486.342 1.065.342 1.737 0 .672-.114 1.254-.342 1.746-.228.486-.543.858-.945 1.116a2.46 2.46 0 01-1.35.378zm0-1.017c.45 0 .804-.186 1.062-.558.264-.372.396-.927.396-1.665s-.132-1.293-.396-1.665a1.224 1.224 0 00-1.062-.558c-.444 0-.798.186-1.062.558-.258.372-.387.927-.387 1.665s.129 1.293.387 1.665c.264.372.618.558 1.062.558zm8.136-5.373v.783L125.63 101h-1.251l2.367-5.31h-2.475v1.071h-1.089V94.7h4.896zm.977 6.363a.727.727 0 01-.522-.207.733.733 0 01-.216-.54.73.73 0 01.207-.54.738.738 0 01.531-.207c.21 0 .384.069.522.207a.714.714 0 01.216.54.733.733 0 01-.216.54.727.727 0 01-.522.207zm7.067-1.494h-1.116V101h-1.134v-1.431h-3.456v-.81l3.105-4.059h1.251l-2.925 3.879h2.061V97.31h1.098v1.269h1.116v.99zm5.029.441v.99h-4.644v-.783l2.502-2.376c.282-.27.471-.504.567-.702.102-.204.153-.405.153-.603 0-.294-.099-.519-.297-.675-.198-.156-.489-.234-.873-.234-.642 0-1.134.219-1.476.657l-.819-.63c.246-.33.576-.585.99-.765a3.43 3.43 0 011.404-.279c.684 0 1.23.162 1.638.486.408.324.612.765.612 1.323 0 .342-.072.663-.216.963-.144.3-.42.642-.828 1.026l-1.683 1.602h2.97z" fill="#3E54D8"/><path d="M161.346 99.218c0 .486-.18.9-.54 1.242-.354.336-.87.54-1.548.612v1.008h-.738v-.999a5.044 5.044 0 01-1.26-.243c-.396-.132-.711-.3-.945-.504l.405-.909c.222.18.492.333.81.459.318.12.648.195.99.225v-1.8a7.169 7.169 0 01-1.071-.333 1.918 1.918 0 01-.711-.54c-.192-.24-.288-.555-.288-.945 0-.486.177-.9.531-1.242.354-.342.867-.546 1.539-.612V93.62h.738v.999c.336.018.663.075.981.171.324.096.606.222.846.378l-.369.909a3.745 3.745 0 00-1.458-.486v1.818c.432.102.789.213 1.071.333.288.12.528.3.72.54.198.234.297.546.297.936zm-3.735-2.781c0 .198.078.357.234.477.156.12.381.222.675.306v-1.602c-.306.048-.534.144-.684.288a.707.707 0 00-.225.531zm1.647 3.654c.318-.048.552-.141.702-.279a.658.658 0 00.234-.513.574.574 0 00-.243-.486c-.162-.126-.393-.231-.693-.315v1.593zm7.463-5.391v6.3h-1.17v-5.319h-1.332V94.7h2.502zm3.428 0v6.3h-1.17v-5.319h-1.332V94.7h2.502zm5.708 2.439c.888 0 1.545.174 1.971.522.426.342.639.81.639 1.404 0 .378-.093.72-.279 1.026-.186.306-.465.549-.837.729-.372.18-.831.27-1.377.27-.45 0-.885-.063-1.305-.189a3.274 3.274 0 01-1.062-.54l.495-.909c.234.192.513.345.837.459.33.108.669.162 1.017.162.414 0 .738-.084.972-.252a.832.832 0 00.36-.711c0-.324-.129-.567-.387-.729-.252-.168-.687-.252-1.305-.252h-1.521l.324-3.429h3.699v.981h-2.709l-.135 1.458h.603zm5.913 3.951a2.46 2.46 0 01-1.35-.378c-.396-.258-.708-.63-.936-1.116-.228-.492-.342-1.074-.342-1.746 0-.672.114-1.251.342-1.737.228-.492.54-.864.936-1.116a2.418 2.418 0 011.35-.387c.504 0 .954.129 1.35.387.402.252.717.624.945 1.116.228.486.342 1.065.342 1.737 0 .672-.114 1.254-.342 1.746-.228.486-.543.858-.945 1.116a2.46 2.46 0 01-1.35.378zm0-1.017c.45 0 .804-.186 1.062-.558.264-.372.396-.927.396-1.665s-.132-1.293-.396-1.665a1.224 1.224 0 00-1.062-.558c-.444 0-.798.186-1.062.558-.258.372-.387.927-.387 1.665s.129 1.293.387 1.665c.264.372.618.558 1.062.558zm6.056 1.017a2.46 2.46 0 01-1.35-.378c-.396-.258-.708-.63-.936-1.116-.228-.492-.342-1.074-.342-1.746 0-.672.114-1.251.342-1.737.228-.492.54-.864.936-1.116a2.418 2.418 0 011.35-.387c.504 0 .954.129 1.35.387.402.252.717.624.945 1.116.228.486.342 1.065.342 1.737 0 .672-.114 1.254-.342 1.746-.228.486-.543.858-.945 1.116a2.46 2.46 0 01-1.35.378zm0-1.017c.45 0 .804-.186 1.062-.558.264-.372.396-.927.396-1.665s-.132-1.293-.396-1.665a1.224 1.224 0 00-1.062-.558c-.444 0-.798.186-1.062.558-.258.372-.387.927-.387 1.665s.129 1.293.387 1.665c.264.372.618.558 1.062.558z" fill="#98AACB"/><path d="M239.302 103c-.558 0-1.053.258-1.302.652l.267.136c.184-.318.584-.53 1.035-.53.71 0 1.187.431 1.247.988h-1.646v.25h1.646c-.06.557-.537.989-1.247.989-.451 0-.851-.212-1.035-.53l-.267.132c.245.394.739.655 1.302.655.925 0 1.557-.613 1.557-1.371 0-.757-.632-1.371-1.557-1.371zm4.438 1.75c0-.527-.443-.936-1.127-.989v-.716h-.283v.716c-.684.053-1.127.462-1.127.989 0 .527.443.936 1.127.989v.716h.283v-.716c.684-.053 1.127-.462 1.127-.989zm-2.253 0c0-.386.314-.697.843-.742v1.484c-.529-.045-.843-.356-.843-.742zm1.126.742v-1.484c.529.045.843.356.843.742s-.314.697-.843.742zm4.006-.742c0-.527-.442-.936-1.126-.989v-.716h-.284v.716c-.683.053-1.126.462-1.126.989 0 .527.443.936 1.126.989v.716h.284v-.716c.684-.053 1.126-.462 1.126-.989zm-2.252 0c0-.386.314-.697.842-.742v1.484c-.528-.045-.842-.356-.842-.742zm1.126.742v-1.484c.529.045.843.356.843.742s-.314.697-.843.742zm2.592-1.734c-.666 0-1.122.435-1.122.992 0 .572.464.992 1.143.992.435 0 .766-.178.946-.435l-.249-.129c-.116.182-.353.322-.692.322-.456 0-.796-.239-.856-.625h1.887a.936.936 0 00.009-.117c0-.519-.408-1-1.066-1zm0 .242c.37 0 .713.216.774.633h-1.604c.056-.372.379-.633.83-.633zm3.254 1.697l-1.152-.985 1.109-.909h-.387l-1.023.837v-.837h-.284v1.894h.284v-.913l1.075.913h.378zm1.935-1.894h-1.806v.242h.761v1.652h.284v-1.652h.761v-.242zm1.91 0l-1.281 1.458v-1.458h-.283v1.894h.24l1.281-1.458v1.458h.284v-1.894h-.241zm2.208.92a.438.438 0 00.249-.412c0-.288-.228-.508-.657-.508h-.959v1.894h1.044c.456 0 .675-.239.675-.53 0-.205-.12-.368-.352-.444zm-.408-.678c.245 0 .373.107.373.281 0 .189-.124.295-.373.295h-.675v-.576h.675zm.085 1.41h-.76v-.591h.76c.254 0 .392.113.392.288 0 .189-.134.303-.392.303zm2.627-1.652v.826h-1.238v-.826h-.284v1.894h.284v-.826h1.238v.826h.284v-1.894h-.284zm1.885 1.939c.628 0 1.131-.431 1.131-.992 0-.561-.503-.992-1.131-.992-.627 0-1.13.431-1.13.992 0 .561.503.992 1.13.992zm0-.242c-.477 0-.847-.33-.847-.75s.37-.75.847-.75.847.33.847.75-.37.75-.847.75zm2.607.242c.421 0 .787-.193.963-.492l-.236-.121c-.138.219-.4.371-.727.371-.477 0-.847-.33-.847-.75s.37-.75.847-.75c.322 0 .593.148.709.371l.232-.117c-.154-.299-.515-.496-.941-.496-.649 0-1.13.431-1.13.992 0 .561.481.992 1.13.992zm2.876-1.939h-1.806v.242h.761v1.652h.284v-1.652h.761v-.242zm1.218.72h-.589v-.72h-.283v1.894h.872c.391 0 .718-.239.718-.587 0-.349-.327-.587-.718-.587zm0 .932h-.589v-.69h.589c.232 0 .434.129.434.345 0 .216-.202.345-.434.345zm-21.794 2.893h-1.806v1.894h.284v-1.651h1.238v1.651h.284v-1.894zm1.601 1.94c.628 0 1.131-.432 1.131-.993 0-.56-.503-.992-1.131-.992-.627 0-1.13.432-1.13.992 0 .561.503.993 1.13.993zm0-.243c-.477 0-.847-.329-.847-.75 0-.42.37-.75.847-.75s.847.33.847.75c0 .421-.37.75-.847.75zm2.758-1.742c-.383 0-.688.163-.869.417v-.372h-.283V111h.283v-1.129c.181.254.486.417.869.417.606 0 1.109-.432 1.109-.993 0-.56-.503-.992-1.109-.992zm-.022 1.742c-.477 0-.847-.329-.847-.75 0-.42.37-.75.847-.75s.847.33.847.75c0 .421-.37.75-.847.75zm3.066-1.697h-1.806v.243h.761v1.651h.284v-1.651h.761v-.243zm2.669.947c0-.526-.443-.935-1.126-.988v-.716h-.284v.716c-.684.053-1.126.462-1.126.988 0 .527.442.936 1.126.989V111h.284v-.716c.683-.053 1.126-.462 1.126-.989zm-2.253 0c0-.386.314-.697.843-.742v1.485c-.529-.046-.843-.356-.843-.743zm1.127.743v-1.485c.528.045.842.356.842.742 0 .387-.314.697-.842.743zm2.591-1.735c-.666 0-1.122.436-1.122.992 0 .572.465.993 1.144.993.434 0 .765-.178.946-.436l-.25-.129c-.116.182-.352.322-.692.322-.455 0-.795-.238-.855-.625h1.887a1.13 1.13 0 00.008-.117c0-.519-.408-1-1.066-1zm0 .242c.37 0 .714.216.774.633h-1.603c.056-.371.378-.633.829-.633zm3.196-.197h-1.539v1.088c0 .481-.176.598-.481.572v.234c.43.027.765-.132.765-.806v-.845h.971v1.651h.284v-1.894zm2.149 0h-.873c-.391 0-.718.239-.718.588 0 .31.258.526.593.572l-.679.734h.361l.662-.727h.37v.727h.284v-1.894zm-.873.932c-.232 0-.434-.128-.434-.344 0-.216.202-.345.434-.345h.589v.689h-.589zM237 88.957v1.264h3.03l-2.331 5.439h1.479l2.402-5.582v-1.12H237zm5.632 5.381h-1.418L240.808 97h1.064l.76-2.662zm3.337-2.939h-.73l.092-1.206h2.725v-1.236h-4.022l-.284 3.725h2.148c.689 0 1.094.373 1.094.91 0 .545-.405.91-1.135.91-.709 0-1.104-.288-1.276-.805l-1.196.66c.405.977 1.368 1.437 2.472 1.437 1.338 0 2.534-.766 2.534-2.203 0-1.436-1.125-2.192-2.422-2.192zm6.159 5.218L256.181 88h-.578l-4.053 8.617h.578zm8.901-7.66l-1.865.623.345 1.13 1.337-.355v5.305h1.399v-6.703h-1.216zm5.134 6.837c1.814 0 2.837-1.417 2.837-3.486 0-2.068-1.023-3.485-2.837-3.485-1.804 0-2.837 1.417-2.837 3.486 0 2.068 1.033 3.485 2.837 3.485zm0-1.293c-.953 0-1.439-.776-1.439-2.193s.486-2.202 1.439-2.202c.952 0 1.449.785 1.449 2.203 0 1.416-.497 2.192-1.449 2.192z" opacity=".9" fill="#24252E"/><path d="M288 99.5c0 19.054-15.446 34.5-34.5 34.5-19.054 0-34.5-15.446-34.5-34.5 0-19.054 15.446-34.5 34.5-34.5 19.054 0 34.5 15.446 34.5 34.5zm-62.767 0c0 15.612 12.655 28.267 28.267 28.267s28.267-12.655 28.267-28.267-12.655-28.267-28.267-28.267-28.267 12.655-28.267 28.267z" fill="#EAF1FE"/><path d="M288 99.5a34.496 34.496 0 01-23.172 32.587 34.498 34.498 0 01-45.783-30.829 34.504 34.504 0 0121.481-33.726 34.5 34.5 0 0120.926-1.603l-1.462 6.173a28.154 28.154 0 00-30.238 12.272 28.155 28.155 0 0032.993 41.721A28.154 28.154 0 00281.656 99.5H288z" fill="#3E54D8"/><g filter="url(#filter1_d)"><rect x="172" y="236" width="40" height="40" rx="8" fill="#3E54D8"/></g><path opacity=".9" d="M186.173 263.24c-1.16 0-2.194-.287-3.1-.86-.907-.573-1.62-1.4-2.14-2.48-.507-1.093-.76-2.393-.76-3.9 0-1.507.253-2.8.76-3.88.52-1.093 1.233-1.927 2.14-2.5.906-.573 1.94-.86 3.1-.86 1.16 0 2.193.287 3.1.86.906.573 1.613 1.407 2.12 2.5.52 1.08.78 2.373.78 3.88 0 1.507-.26 2.807-.78 3.9-.507 1.08-1.214 1.907-2.12 2.48-.907.573-1.94.86-3.1.86zm0-2.74c.853 0 1.52-.367 2-1.1.493-.733.74-1.867.74-3.4s-.247-2.667-.74-3.4c-.48-.733-1.147-1.1-2-1.1-.84 0-1.507.367-2 1.1-.48.733-.72 1.867-.72 3.4s.24 2.667.72 3.4c.493.733 1.16 1.1 2 1.1zm13.918-5.8c1.227.2 2.167.66 2.82 1.38.654.707.98 1.587.98 2.64a4.23 4.23 0 01-.64 2.26c-.426.68-1.08 1.227-1.96 1.64-.866.413-1.933.62-3.2.62-.986 0-1.96-.127-2.92-.38-.946-.267-1.753-.64-2.42-1.12l1.26-2.48c.534.4 1.147.713 1.84.94a7.45 7.45 0 002.16.32c.814 0 1.454-.153 1.92-.46.467-.32.7-.767.7-1.34 0-1.147-.873-1.72-2.62-1.72h-1.48v-2.14l2.88-3.26h-5.96V249h9.8v2.1l-3.16 3.6z" fill="#fff"/><path d="M98.74 160.19h-1.75l-.345.81h-.67l1.575-3.5h.64l1.58 3.5h-.68l-.35-.81zm-.215-.51l-.66-1.53-.655 1.53h1.315zm4.705-2.18l-1.525 3.5h-.64l-1.53-3.5h.705l1.165 2.7 1.175-2.7h.65zm2.72 1.71h.615v1.395c-.18.143-.39.253-.63.33-.24.077-.487.115-.74.115-.357 0-.678-.077-.965-.23a1.746 1.746 0 01-.675-.645 1.771 1.771 0 01-.245-.925c0-.343.082-.652.245-.925.163-.273.388-.487.675-.64.29-.157.615-.235.975-.235.293 0 .56.048.8.145.24.097.442.238.605.425l-.41.4a1.314 1.314 0 00-.965-.4 1.38 1.38 0 00-.66.155c-.19.103-.34.248-.45.435-.107.187-.16.4-.16.64 0 .233.053.443.16.63.11.187.26.333.45.44.193.107.412.16.655.16.273 0 .513-.06.72-.18v-1.09zm3.107 1.84c-.357 0-.678-.077-.965-.23a1.746 1.746 0 01-.675-.645 1.79 1.79 0 01-.245-.925c0-.34.082-.647.245-.92a1.69 1.69 0 01.675-.645c.287-.157.608-.235.965-.235s.678.078.965.235c.287.153.512.367.675.64.163.273.245.582.245.925 0 .343-.082.652-.245.925a1.746 1.746 0 01-.675.645c-.287.153-.608.23-.965.23zm0-.57c.233 0 .443-.052.63-.155.187-.107.333-.253.44-.44.107-.19.16-.402.16-.635 0-.233-.053-.443-.16-.63a1.115 1.115 0 00-.44-.44 1.245 1.245 0 00-.63-.16c-.233 0-.443.053-.63.16-.187.103-.333.25-.44.44-.107.187-.16.397-.16.63 0 .233.053.445.16.635.107.187.253.333.44.44.187.103.397.155.63.155zm43.013.21v.945h-.335V161h-2.355v.635h-.335v-.945h.15c.177-.01.297-.14.36-.39s.107-.6.13-1.05l.035-.88h1.94v2.32h.41zm-2.06-1.42a6.622 6.622 0 01-.095.925c-.047.24-.13.405-.25.495h1.64v-2.005h-1.265l-.03.585zm5.052.525h-2.2a.95.95 0 00.315.665c.19.167.43.25.72.25.163 0 .313-.028.45-.085a1.01 1.01 0 00.355-.26l.2.23a1.12 1.12 0 01-.44.32c-.173.073-.365.11-.575.11-.27 0-.51-.057-.72-.17a1.27 1.27 0 01-.485-.48 1.356 1.356 0 01-.175-.69c0-.257.055-.487.165-.69a1.236 1.236 0 011.12-.645c.243 0 .462.057.655.17.193.113.345.272.455.475.11.2.165.43.165.69l-.005.11zm-1.27-1.14a.9.9 0 00-.64.245.946.946 0 00-.29.63h1.865a.938.938 0 00-.295-.63.888.888 0 00-.64-.245zm3.416-.305c.246 0 .47.057.67.17.2.11.356.267.47.47.113.203.17.435.17.695 0 .263-.057.497-.17.7a1.22 1.22 0 01-.47.475 1.35 1.35 0 01-.67.165c-.214 0-.407-.043-.58-.13a1.12 1.12 0 01-.42-.39v1.465h-.355v-3.6h.34v.52a1.09 1.09 0 01.42-.4c.176-.093.375-.14.595-.14zm-.025 2.36c.183 0 .35-.042.5-.125a.905.905 0 00.35-.365c.086-.157.13-.335.13-.535s-.044-.377-.13-.53a.905.905 0 00-.35-.365.979.979 0 00-.5-.13.939.939 0 00-.855.495c-.084.153-.125.33-.125.53s.041.378.125.535a.939.939 0 00.35.365c.15.083.318.125.505.125zm4.31-.88h-.57V161h-.355v-1.17h-.57l-.805 1.17h-.425l.945-1.355-.87-1.275h.385l.77 1.155h.57v-1.155h.355v1.155h.57l.775-1.155h.385l-.87 1.28.945 1.35h-.425l-.81-1.17zm2.682-1.48c.343 0 .606.087.79.26.183.17.275.423.275.76V161h-.34v-.41a.815.815 0 01-.355.32 1.216 1.216 0 01-.55.115c-.294 0-.527-.07-.7-.21a.676.676 0 01-.26-.555c0-.223.08-.403.24-.54.163-.137.421-.205.775-.205h.835v-.16c0-.227-.064-.398-.19-.515-.127-.12-.312-.18-.555-.18-.167 0-.327.028-.48.085a1.158 1.158 0 00-.395.225l-.16-.265c.133-.113.293-.2.48-.26.186-.063.383-.095.59-.095zm-.125 2.395a.95.95 0 00.515-.135.837.837 0 00.32-.4v-.43h-.825c-.45 0-.675.157-.675.47 0 .153.058.275.175.365.116.087.28.13.49.13zm3.985-2.06h-.995V161h-.355v-2.315h-.995v-.315h2.345v.315zm1.643.615c.33.003.58.077.75.22.173.143.26.35.26.62 0 .28-.093.495-.28.645-.183.15-.45.223-.8.22l-1.06-.005v-2.63h.355v.92l.775.01zm-.09 1.435c.243.003.427-.045.55-.145.127-.103.19-.253.19-.45 0-.193-.062-.337-.185-.43-.123-.093-.308-.142-.555-.145l-.685-.01v1.17l.685.01zm19.647-.655h-.7v.92h-.36v-.92H186.2v-.26l1.855-2.32h.4l-1.79 2.26h1.52v-.81h.35v.81h.7v.32zm2.552-2.58v.255L190.322 161h-.39l1.44-3.18h-1.8v.655h-.355v-.975h2.57zm1.301 1.435c.507 0 .875.092 1.105.275.234.18.35.433.35.76 0 .203-.048.385-.145.545a.966.966 0 01-.425.38c-.19.09-.423.135-.7.135-.25 0-.488-.04-.715-.12a1.481 1.481 0 01-.54-.33l.175-.285c.117.12.27.218.46.295.19.073.395.11.615.11.29 0 .514-.065.67-.195.16-.13.24-.303.24-.52 0-.24-.09-.422-.27-.545-.176-.123-.476-.185-.9-.185h-.745l.18-1.755h1.915v.32h-1.6l-.12 1.115h.45zm2.182 2.09a.262.262 0 01-.19-.08.273.273 0 01-.075-.195.262.262 0 01.265-.27.26.26 0 01.19.08c.054.05.08.113.08.19a.262.262 0 01-.08.195.26.26 0 01-.19.08zm1.88-3.555c.463 0 .818.153 1.065.46.246.303.37.733.37 1.29 0 .39-.067.72-.2.99a1.42 1.42 0 01-.56.615c-.24.137-.52.205-.84.205-.347 0-.624-.063-.83-.19l.145-.29c.166.11.393.165.68.165.386 0 .69-.122.91-.365.22-.247.33-.603.33-1.07 0-.087-.005-.182-.015-.285a.96.96 0 01-.415.445c-.19.103-.409.155-.655.155-.23 0-.435-.043-.615-.13a1.004 1.004 0 01-.415-.365c-.1-.16-.15-.345-.15-.555 0-.213.051-.402.155-.565.103-.163.245-.288.425-.375.183-.09.388-.135.615-.135zm.04 1.82c.176 0 .331-.033.465-.1a.79.79 0 00.32-.275.702.702 0 00.005-.76.756.756 0 00-.315-.275 1.108 1.108 0 00-.5-.105c-.254 0-.46.07-.62.21a.692.692 0 00-.235.55c0 .23.078.413.235.55.16.137.375.205.645.205zm2.837-.355c.506 0 .875.092 1.105.275.233.18.35.433.35.76 0 .203-.049.385-.145.545a.971.971 0 01-.425.38 1.63 1.63 0 01-.7.135c-.25 0-.489-.04-.715-.12a1.465 1.465 0 01-.54-.33l.175-.285c.116.12.27.218.46.295.19.073.395.11.615.11.29 0 .513-.065.67-.195.16-.13.24-.303.24-.52 0-.24-.09-.422-.27-.545-.177-.123-.477-.185-.9-.185h-.745l.18-1.755h1.915v.32h-1.6l-.12 1.115h.45zm24.208 1.145h-.7v.92h-.36v-.92H221.2v-.26l1.855-2.32h.4l-1.79 2.26h1.52v-.81h.35v.81h.7v.32zm2.552-2.58v.255L225.322 161h-.39l1.44-3.18h-1.8v.655h-.355v-.975h2.57zm1.301 1.435c.507 0 .875.092 1.105.275.234.18.35.433.35.76 0 .203-.048.385-.145.545a.966.966 0 01-.425.38c-.19.09-.423.135-.7.135-.25 0-.488-.04-.715-.12a1.481 1.481 0 01-.54-.33l.175-.285c.117.12.27.218.46.295.19.073.395.11.615.11.29 0 .514-.065.67-.195.16-.13.24-.303.24-.52 0-.24-.09-.422-.27-.545-.176-.123-.476-.185-.9-.185h-.745l.18-1.755h1.915v.32h-1.6l-.12 1.115h.45zm2.182 2.09a.262.262 0 01-.19-.08.273.273 0 01-.075-.195.262.262 0 01.265-.27.26.26 0 01.19.08c.054.05.08.113.08.19a.262.262 0 01-.08.195.26.26 0 01-.19.08zm1.88-3.555c.463 0 .818.153 1.065.46.246.303.37.733.37 1.29 0 .39-.067.72-.2.99a1.42 1.42 0 01-.56.615c-.24.137-.52.205-.84.205-.347 0-.624-.063-.83-.19l.145-.29c.166.11.393.165.68.165.386 0 .69-.122.91-.365.22-.247.33-.603.33-1.07 0-.087-.005-.182-.015-.285a.96.96 0 01-.415.445c-.19.103-.409.155-.655.155-.23 0-.435-.043-.615-.13a1.004 1.004 0 01-.415-.365c-.1-.16-.15-.345-.15-.555 0-.213.051-.402.155-.565.103-.163.245-.288.425-.375.183-.09.388-.135.615-.135zm.04 1.82c.176 0 .331-.033.465-.1a.79.79 0 00.32-.275.702.702 0 00.005-.76.756.756 0 00-.315-.275 1.108 1.108 0 00-.5-.105c-.254 0-.46.07-.62.21a.692.692 0 00-.235.55c0 .23.078.413.235.55.16.137.375.205.645.205zm2.837-.355c.506 0 .875.092 1.105.275.233.18.35.433.35.76 0 .203-.049.385-.145.545a.971.971 0 01-.425.38 1.63 1.63 0 01-.7.135c-.25 0-.489-.04-.715-.12a1.465 1.465 0 01-.54-.33l.175-.285c.116.12.27.218.46.295.19.073.395.11.615.11.29 0 .513-.065.67-.195.16-.13.24-.303.24-.52 0-.24-.09-.422-.27-.545-.177-.123-.477-.185-.9-.185h-.745l.18-1.755h1.915v.32h-1.6l-.12 1.115h.45zm20.623 1.745v.32h-2.455v-.255l1.455-1.425c.183-.18.307-.335.37-.465a.883.883 0 00.1-.4.577.577 0 00-.215-.48c-.14-.117-.342-.175-.605-.175-.41 0-.728.13-.955.39l-.255-.22c.137-.16.31-.283.52-.37a1.89 1.89 0 01.72-.13c.357 0 .638.085.845.255.21.167.315.397.315.69 0 .18-.04.353-.12.52-.08.167-.232.358-.455.575l-1.19 1.17h1.925zm22.532.37c-.28 0-.53-.07-.75-.21a1.455 1.455 0 01-.52-.62 2.284 2.284 0 01-.19-.97c0-.373.063-.695.19-.965.127-.273.3-.48.52-.62.22-.143.47-.215.75-.215s.53.072.75.215c.223.14.398.347.525.62.127.27.19.592.19.965s-.063.697-.19.97c-.127.27-.302.477-.525.62-.22.14-.47.21-.75.21zm0-.565a.68.68 0 00.59-.31c.147-.207.22-.515.22-.925 0-.41-.073-.718-.22-.925a.68.68 0 00-.59-.31.687.687 0 00-.59.31c-.143.207-.215.515-.215.925 0 .41.072.718.215.925.147.207.343.31.59.31zm2.236.55a.401.401 0 01-.41-.415c0-.123.038-.223.115-.3a.408.408 0 01.295-.115c.116 0 .213.038.29.115.08.077.12.177.12.3a.403.403 0 01-.41.415zm2.232.015c-.28 0-.53-.07-.75-.21a1.448 1.448 0 01-.52-.62 2.284 2.284 0 01-.19-.97c0-.373.063-.695.19-.965.126-.273.3-.48.52-.62.22-.143.47-.215.75-.215s.53.072.75.215c.223.14.398.347.525.62.126.27.19.592.19.965a2.3 2.3 0 01-.19.97c-.127.27-.302.477-.525.62-.22.14-.47.21-.75.21zm0-.565a.68.68 0 00.59-.31c.146-.207.22-.515.22-.925 0-.41-.074-.718-.22-.925a.68.68 0 00-.59-.31.686.686 0 00-.59.31c-.144.207-.215.515-.215.925 0 .41.071.718.215.925.146.207.343.31.59.31zm3.364.565c-.28 0-.53-.07-.75-.21a1.455 1.455 0 01-.52-.62 2.284 2.284 0 01-.19-.97c0-.373.063-.695.19-.965.127-.273.3-.48.52-.62.22-.143.47-.215.75-.215s.53.072.75.215c.223.14.398.347.525.62.127.27.19.592.19.965s-.063.697-.19.97c-.127.27-.302.477-.525.62-.22.14-.47.21-.75.21zm0-.565a.68.68 0 00.59-.31c.147-.207.22-.515.22-.925 0-.41-.073-.718-.22-.925a.68.68 0 00-.59-.31.687.687 0 00-.59.31c-.143.207-.215.515-.215.925 0 .41.072.718.215.925.147.207.343.31.59.31zm2.684-1.1a.762.762 0 01-.605-.265c-.153-.177-.23-.408-.23-.695s.077-.518.23-.695a.762.762 0 01.605-.265.76.76 0 01.605.265c.157.173.235.405.235.695 0 .29-.078.523-.235.7a.77.77 0 01-.605.26zm2.1-1.885h.49l-2.39 3.5h-.49l2.39-3.5zm-2.1 1.535a.358.358 0 00.315-.16c.077-.107.115-.257.115-.45s-.038-.343-.115-.45a.358.358 0 00-.315-.16.372.372 0 00-.315.165c-.076.107-.115.255-.115.445s.039.34.115.45c.08.107.185.16.315.16zm2.295 2a.762.762 0 01-.605-.265c-.153-.177-.23-.408-.23-.695s.077-.518.23-.695a.762.762 0 01.605-.265.76.76 0 01.605.265c.157.177.235.408.235.695s-.078.518-.235.695a.76.76 0 01-.605.265zm0-.35a.365.365 0 00.315-.16c.077-.11.115-.26.115-.45s-.038-.338-.115-.445a.362.362 0 00-.315-.165.367.367 0 00-.315.16c-.076.107-.115.257-.115.45s.039.343.115.45c.077.107.182.16.315.16z" fill="#373943"/><path opacity=".4" d="M97.665 164.917c.138.03.244.09.318.18a.505.505 0 01.114.342c0 .18-.067.319-.201.417-.132.096-.328.144-.588.144h-.966v-2.1h.906c.234 0 .415.047.543.141.13.094.195.227.195.399a.501.501 0 01-.087.297.507.507 0 01-.234.18zm-1.101-.834v.762h.669c.17 0 .301-.032.393-.096a.33.33 0 00.138-.285.322.322 0 00-.138-.282c-.092-.066-.223-.099-.393-.099h-.669zm.741 1.734c.188 0 .33-.032.426-.096.096-.064.144-.164.144-.3 0-.262-.19-.393-.57-.393h-.741v.789h.741zm1.458-1.086a.518.518 0 01.222-.24.768.768 0 01.369-.081v.207l-.051-.003a.504.504 0 00-.39.153c-.094.102-.141.245-.141.429V166h-.213v-1.578h.204v.309zm1.607 1.284a.832.832 0 01-.411-.102.766.766 0 01-.288-.288.817.817 0 01-.105-.414c0-.154.035-.292.105-.414a.744.744 0 01.288-.285.832.832 0 01.411-.102.83.83 0 01.411.102.723.723 0 01.285.285c.07.122.105.26.105.414a.817.817 0 01-.105.414.744.744 0 01-.285.288.83.83 0 01-.411.102zm0-.189a.596.596 0 00.3-.075.54.54 0 00.21-.219.673.673 0 00.075-.321.673.673 0 00-.075-.321.52.52 0 00-.21-.216.578.578 0 00-.3-.078.595.595 0 00-.303.078.545.545 0 00-.21.216.673.673 0 00-.075.321c0 .12.025.227.075.321a.566.566 0 00.21.219c.09.05.191.075.303.075zm1.779-1.416c.206 0 .364.052.474.156.11.102.165.254.165.456V166h-.204v-.246a.487.487 0 01-.213.192.73.73 0 01-.33.069.65.65 0 01-.42-.126.407.407 0 01-.156-.333c0-.134.048-.242.144-.324.098-.082.253-.123.465-.123h.501v-.096c0-.136-.038-.239-.114-.309-.076-.072-.187-.108-.333-.108a.824.824 0 00-.525.186l-.096-.159a.832.832 0 01.288-.156c.112-.038.23-.057.354-.057zm-.075 1.437a.57.57 0 00.309-.081.501.501 0 00.192-.24v-.258h-.495c-.27 0-.405.094-.405.282 0 .092.035.165.105.219.07.052.168.078.294.078zm2.738-2.073V166h-.204v-.312a.647.647 0 01-.255.243.735.735 0 01-.354.084.801.801 0 01-.402-.102.729.729 0 01-.282-.285.842.842 0 01-.102-.417c0-.156.034-.295.102-.417a.709.709 0 01.282-.282.801.801 0 01.402-.102c.128 0 .243.027.345.081a.642.642 0 01.255.231v-.948h.213zm-.795 2.052a.59.59 0 00.297-.075.54.54 0 00.21-.219.652.652 0 00.078-.321.652.652 0 00-.078-.321.573.573 0 00-.507-.294.595.595 0 00-.303.078.546.546 0 00-.21.216.673.673 0 00-.075.321c0 .12.025.227.075.321a.568.568 0 00.21.219c.09.05.191.075.303.075zm2.042.189a.859.859 0 01-.42-.102.744.744 0 01-.288-.285.833.833 0 01-.105-.417c0-.154.035-.292.105-.414a.744.744 0 01.288-.285.859.859 0 01.42-.102c.136 0 .257.027.363.081a.594.594 0 01.255.231l-.159.108a.486.486 0 00-.198-.174.617.617 0 00-.57.018.54.54 0 00-.213.216.673.673 0 00-.075.321c0 .122.025.23.075.324a.567.567 0 00.522.291.6.6 0 00.261-.057.486.486 0 00.198-.174l.159.108a.613.613 0 01-.255.234.826.826 0 01-.363.078zm1.655 0a.83.83 0 01-.411-.102.766.766 0 01-.288-.288.817.817 0 01-.105-.414c0-.154.035-.292.105-.414a.744.744 0 01.288-.285.83.83 0 01.411-.102.83.83 0 01.411.102.723.723 0 01.285.285c.07.122.105.26.105.414a.817.817 0 01-.105.414.744.744 0 01-.285.288.83.83 0 01-.411.102zm0-.189a.596.596 0 00.3-.075.54.54 0 00.21-.219.673.673 0 00.075-.321.673.673 0 00-.075-.321.52.52 0 00-.21-.216.578.578 0 00-.3-.078.595.595 0 00-.303.078.546.546 0 00-.21.216.673.673 0 00-.075.321c0 .12.025.227.075.321a.568.568 0 00.21.219c.09.05.191.075.303.075zm3.204-1.416c.198 0 .353.057.465.171.114.114.171.282.171.504V166h-.213v-.894c0-.164-.04-.289-.12-.375-.078-.086-.189-.129-.333-.129a.5.5 0 00-.387.153c-.094.1-.141.239-.141.417V166h-.213v-.894c0-.164-.04-.289-.12-.375-.078-.086-.19-.129-.336-.129a.506.506 0 00-.387.153c-.094.1-.141.239-.141.417V166h-.213v-1.578h.204v.288a.57.57 0 01.234-.222.737.737 0 01.345-.078c.132 0 .246.028.342.084a.514.514 0 01.219.249.607.607 0 01.249-.243.77.77 0 01.375-.09zm2.044-.51h.222v2.1h-.222v-2.1zm1.664.51c.198 0 .355.058.471.174.118.114.177.281.177.501V166h-.213v-.894c0-.164-.041-.289-.123-.375-.082-.086-.199-.129-.351-.129a.541.541 0 00-.405.153c-.098.1-.147.239-.147.417V166h-.213v-1.578h.204v.291a.585.585 0 01.24-.222.77.77 0 01.36-.081zm1.887 1.605a.859.859 0 01-.42-.102.744.744 0 01-.288-.285.833.833 0 01-.105-.417c0-.154.035-.292.105-.414a.744.744 0 01.288-.285.859.859 0 01.42-.102c.136 0 .257.027.363.081a.594.594 0 01.255.231l-.159.108a.486.486 0 00-.198-.174.617.617 0 00-.57.018.54.54 0 00-.213.216.673.673 0 00-.075.321c0 .122.025.23.075.324a.567.567 0 00.522.291.6.6 0 00.261-.057.486.486 0 00.198-.174l.159.108a.613.613 0 01-.255.234.826.826 0 01-.363.078zm1.116 0a.156.156 0 01-.114-.048.165.165 0 01-.045-.117c0-.046.015-.084.045-.114a.156.156 0 01.114-.048c.044 0 .082.016.114.048a.15.15 0 01.048.114.16.16 0 01-.048.117.156.156 0 01-.114.048z" fill="#373943"/><path stroke="#EAF1FE" stroke-width=".5" d="M96 174.75h196"/><path d="M98.95 186.18c.193.063.347.17.46.32.113.147.17.33.17.55a.817.817 0 01-.35.705c-.233.163-.573.245-1.02.245h-1.74v-3.5h1.64c.413 0 .732.082.955.245.223.16.335.382.335.665 0 .173-.04.327-.12.46a.822.822 0 01-.33.31zm-1.83-1.17v.965h.92c.227 0 .4-.04.52-.12a.407.407 0 00.185-.36.4.4 0 00-.185-.36c-.12-.083-.293-.125-.52-.125h-.92zm1.05 2.48c.503 0 .755-.168.755-.505 0-.337-.252-.505-.755-.505h-1.05v1.01h1.05zm4.26.51l-.95-1.33-.94 1.33h-.74l1.3-1.785-1.23-1.715h.735l.895 1.245.885-1.245h.705l-1.225 1.69 1.315 1.81h-.75zm2.584-3.5c.304 0 .567.05.79.15.227.1.4.243.52.43s.18.408.18.665c0 .253-.06.475-.18.665-.12.187-.293.33-.52.43-.223.1-.486.15-.79.15h-.79V188h-.65v-3.5h1.44zm-.03 1.94c.284 0 .499-.06.645-.18.147-.12.22-.292.22-.515 0-.223-.073-.395-.22-.515-.146-.12-.361-.18-.645-.18h-.76v1.39h.76zm47.086 1.25v.945h-.335V188h-2.355v.635h-.335v-.945h.15c.177-.01.297-.14.36-.39s.107-.6.13-1.05l.035-.88h1.94v2.32h.41zm-2.06-1.42a6.622 6.622 0 01-.095.925c-.047.24-.13.405-.25.495h1.64v-2.005h-1.265l-.03.585zm5.052.525h-2.2a.95.95 0 00.315.665c.19.167.43.25.72.25.163 0 .313-.028.45-.085a1.01 1.01 0 00.355-.26l.2.23a1.12 1.12 0 01-.44.32c-.173.073-.365.11-.575.11-.27 0-.51-.057-.72-.17a1.27 1.27 0 01-.485-.48 1.356 1.356 0 01-.175-.69c0-.257.055-.487.165-.69a1.236 1.236 0 011.12-.645c.243 0 .462.057.655.17.193.113.345.272.455.475.11.2.165.43.165.69l-.005.11zm-1.27-1.14a.9.9 0 00-.64.245.946.946 0 00-.29.63h1.865a.938.938 0 00-.295-.63.888.888 0 00-.64-.245zm3.416-.305c.246 0 .47.057.67.17.2.11.356.267.47.47.113.203.17.435.17.695 0 .263-.057.497-.17.7a1.22 1.22 0 01-.47.475 1.35 1.35 0 01-.67.165c-.214 0-.407-.043-.58-.13a1.12 1.12 0 01-.42-.39v1.465h-.355v-3.6h.34v.52a1.09 1.09 0 01.42-.4c.176-.093.375-.14.595-.14zm-.025 2.36c.183 0 .35-.042.5-.125a.905.905 0 00.35-.365c.086-.157.13-.335.13-.535s-.044-.377-.13-.53a.905.905 0 00-.35-.365.979.979 0 00-.5-.13.939.939 0 00-.855.495c-.084.153-.125.33-.125.53s.041.378.125.535a.939.939 0 00.35.365c.15.083.318.125.505.125zm4.31-.88h-.57V188h-.355v-1.17h-.57l-.805 1.17h-.425l.945-1.355-.87-1.275h.385l.77 1.155h.57v-1.155h.355v1.155h.57l.775-1.155h.385l-.87 1.28.945 1.35h-.425l-.81-1.17zm2.682-1.48c.343 0 .606.087.79.26.183.17.275.423.275.76V188h-.34v-.41a.815.815 0 01-.355.32 1.216 1.216 0 01-.55.115c-.294 0-.527-.07-.7-.21a.676.676 0 01-.26-.555c0-.223.08-.403.24-.54.163-.137.421-.205.775-.205h.835v-.16c0-.227-.064-.398-.19-.515-.127-.12-.312-.18-.555-.18-.167 0-.327.028-.48.085a1.158 1.158 0 00-.395.225l-.16-.265c.133-.113.293-.2.48-.26.186-.063.383-.095.59-.095zm-.125 2.395a.95.95 0 00.515-.135.837.837 0 00.32-.4v-.43h-.825c-.45 0-.675.157-.675.47 0 .153.058.275.175.365.116.087.28.13.49.13zm3.985-2.06h-.995V188h-.355v-2.315h-.995v-.315h2.345v.315zm1.643.615c.33.003.58.077.75.22.173.143.26.35.26.62 0 .28-.093.495-.28.645-.183.15-.45.223-.8.22l-1.06-.005v-2.63h.355v.92l.775.01zm-.09 1.435c.243.003.427-.045.55-.145.127-.103.19-.253.19-.45 0-.193-.062-.337-.185-.43-.123-.093-.308-.142-.555-.145l-.685-.01v1.17l.685.01zm17.642-3.235v3.5h-.36v-3.18h-.825v-.32h1.185zm2.232 3.53c-.27 0-.512-.072-.725-.215a1.43 1.43 0 01-.495-.615 2.376 2.376 0 01-.175-.95c0-.363.058-.678.175-.945.12-.27.285-.477.495-.62.213-.143.455-.215.725-.215.27 0 .51.072.72.215.213.143.38.35.5.62.12.267.18.582.18.945s-.06.68-.18.95c-.12.267-.287.472-.5.615a1.25 1.25 0 01-.72.215zm0-.33a.88.88 0 00.535-.17c.156-.113.278-.278.365-.495.086-.217.13-.478.13-.785 0-.307-.044-.568-.13-.785a1.094 1.094 0 00-.365-.495.88.88 0 00-.535-.17.897.897 0 00-.54.17 1.094 1.094 0 00-.36.495c-.087.217-.13.478-.13.785 0 .307.043.568.13.785.086.217.206.382.36.495.156.113.336.17.54.17zm4.89-.62h-.7v.92h-.36v-.92h-1.975v-.26l1.855-2.32h.4l-1.79 2.26h1.52v-.81h.35v.81h.7v.32zm.699.945a.26.26 0 01-.19-.08.273.273 0 01-.075-.195c0-.077.025-.14.075-.19a.26.26 0 01.19-.08c.073 0 .136.027.19.08a.25.25 0 01.08.19.266.266 0 01-.08.195.262.262 0 01-.19.08zm2.13.005c-.27 0-.511-.072-.725-.215a1.43 1.43 0 01-.495-.615 2.393 2.393 0 01-.175-.95c0-.363.059-.678.175-.945.12-.27.285-.477.495-.62.214-.143.455-.215.725-.215.27 0 .51.072.72.215.214.143.38.35.5.62.12.267.18.582.18.945s-.06.68-.18.95c-.12.267-.286.472-.5.615a1.25 1.25 0 01-.72.215zm0-.33a.876.876 0 00.535-.17 1.08 1.08 0 00.365-.495c.087-.217.13-.478.13-.785 0-.307-.043-.568-.13-.785a1.08 1.08 0 00-.365-.495.876.876 0 00-.535-.17.901.901 0 00-.54.17 1.108 1.108 0 00-.36.495c-.086.217-.13.478-.13.785 0 .307.044.568.13.785.087.217.207.382.36.495.157.113.337.17.54.17zm2.836-1.765c.507 0 .875.092 1.105.275.233.18.35.433.35.76 0 .203-.048.385-.145.545a.966.966 0 01-.425.38c-.19.09-.423.135-.7.135-.25 0-.488-.04-.715-.12a1.481 1.481 0 01-.54-.33l.175-.285c.117.12.27.218.46.295.19.073.395.11.615.11.29 0 .513-.065.67-.195.16-.13.24-.303.24-.52 0-.24-.09-.422-.27-.545-.177-.123-.477-.185-.9-.185h-.745l.18-1.755h1.915v.32h-1.6l-.12 1.115h.45zm22.213-1.435v3.5h-.36v-3.18h-.825v-.32h1.185zm2.232 3.53c-.27 0-.512-.072-.725-.215a1.43 1.43 0 01-.495-.615 2.376 2.376 0 01-.175-.95c0-.363.058-.678.175-.945.12-.27.285-.477.495-.62.213-.143.455-.215.725-.215.27 0 .51.072.72.215.213.143.38.35.5.62.12.267.18.582.18.945s-.06.68-.18.95c-.12.267-.287.472-.5.615a1.25 1.25 0 01-.72.215zm0-.33a.88.88 0 00.535-.17c.156-.113.278-.278.365-.495.086-.217.13-.478.13-.785 0-.307-.044-.568-.13-.785a1.094 1.094 0 00-.365-.495.88.88 0 00-.535-.17.897.897 0 00-.54.17 1.094 1.094 0 00-.36.495c-.087.217-.13.478-.13.785 0 .307.043.568.13.785.086.217.206.382.36.495.156.113.336.17.54.17zm4.89-.62h-.7v.92h-.36v-.92h-1.975v-.26l1.855-2.32h.4l-1.79 2.26h1.52v-.81h.35v.81h.7v.32zm.699.945a.26.26 0 01-.19-.08.273.273 0 01-.075-.195c0-.077.025-.14.075-.19a.26.26 0 01.19-.08c.073 0 .136.027.19.08a.25.25 0 01.08.19.266.266 0 01-.08.195.262.262 0 01-.19.08zm2.13.005c-.27 0-.511-.072-.725-.215a1.43 1.43 0 01-.495-.615 2.393 2.393 0 01-.175-.95c0-.363.059-.678.175-.945.12-.27.285-.477.495-.62.214-.143.455-.215.725-.215.27 0 .51.072.72.215.214.143.38.35.5.62.12.267.18.582.18.945s-.06.68-.18.95c-.12.267-.286.472-.5.615a1.25 1.25 0 01-.72.215zm0-.33a.876.876 0 00.535-.17 1.08 1.08 0 00.365-.495c.087-.217.13-.478.13-.785 0-.307-.043-.568-.13-.785a1.08 1.08 0 00-.365-.495.876.876 0 00-.535-.17.901.901 0 00-.54.17 1.108 1.108 0 00-.36.495c-.086.217-.13.478-.13.785 0 .307.044.568.13.785.087.217.207.382.36.495.157.113.337.17.54.17zm2.836-1.765c.507 0 .875.092 1.105.275.233.18.35.433.35.76 0 .203-.048.385-.145.545a.966.966 0 01-.425.38c-.19.09-.423.135-.7.135-.25 0-.488-.04-.715-.12a1.481 1.481 0 01-.54-.33l.175-.285c.117.12.27.218.46.295.19.073.395.11.615.11.29 0 .513-.065.67-.195.16-.13.24-.303.24-.52 0-.24-.09-.422-.27-.545-.177-.123-.477-.185-.9-.185h-.745l.18-1.755h1.915v.32h-1.6l-.12 1.115h.45zm17.213-1.435v3.5h-.36v-3.18h-.825v-.32h1.185zm2.232 3.53c-.27 0-.512-.072-.725-.215a1.43 1.43 0 01-.495-.615 2.376 2.376 0 01-.175-.95c0-.363.058-.678.175-.945.12-.27.285-.477.495-.62.213-.143.455-.215.725-.215.27 0 .51.072.72.215.213.143.38.35.5.62.12.267.18.582.18.945s-.06.68-.18.95c-.12.267-.287.472-.5.615a1.25 1.25 0 01-.72.215zm0-.33a.88.88 0 00.535-.17c.156-.113.278-.278.365-.495.086-.217.13-.478.13-.785 0-.307-.044-.568-.13-.785a1.094 1.094 0 00-.365-.495.88.88 0 00-.535-.17.897.897 0 00-.54.17 1.094 1.094 0 00-.36.495c-.087.217-.13.478-.13.785 0 .307.043.568.13.785.086.217.206.382.36.495.156.113.336.17.54.17z" fill="#373943"/><path d="M276.601 186.35h1.375v.52h-1.375v-.52zm3.353 1.7c-.28 0-.53-.07-.75-.21a1.455 1.455 0 01-.52-.62 2.3 2.3 0 01-.19-.97c0-.373.064-.695.19-.965.127-.273.3-.48.52-.62.22-.143.47-.215.75-.215s.53.072.75.215c.224.14.399.347.525.62.127.27.19.592.19.965s-.063.697-.19.97a1.43 1.43 0 01-.525.62c-.22.14-.47.21-.75.21zm0-.565a.68.68 0 00.59-.31c.147-.207.22-.515.22-.925 0-.41-.073-.718-.22-.925a.68.68 0 00-.59-.31.689.689 0 00-.59.31c-.143.207-.215.515-.215.925 0 .41.072.718.215.925.147.207.344.31.59.31zm2.236.55a.403.403 0 01-.41-.415c0-.123.038-.223.115-.3a.408.408 0 01.295-.115c.117 0 .213.038.29.115.08.077.12.177.12.3a.403.403 0 01-.41.415zm1.968-3.535v3.5h-.65v-2.955h-.74v-.545h1.39zm3.334 0v.435l-1.36 3.065h-.695l1.315-2.95h-1.375v.595h-.605V184.5h2.72zm1.206 1.885a.762.762 0 01-.605-.265c-.153-.177-.23-.408-.23-.695s.077-.518.23-.695a.762.762 0 01.605-.265.76.76 0 01.605.265c.157.173.235.405.235.695 0 .29-.078.523-.235.7a.77.77 0 01-.605.26zm2.1-1.885h.49l-2.39 3.5h-.49l2.39-3.5zm-2.1 1.535a.358.358 0 00.315-.16c.077-.107.115-.257.115-.45s-.038-.343-.115-.45a.358.358 0 00-.315-.16.372.372 0 00-.315.165c-.076.107-.115.255-.115.445s.039.34.115.45c.08.107.185.16.315.16zm2.295 2a.762.762 0 01-.605-.265c-.153-.177-.23-.408-.23-.695s.077-.518.23-.695a.762.762 0 01.605-.265.76.76 0 01.605.265c.157.177.235.408.235.695s-.078.518-.235.695a.76.76 0 01-.605.265zm0-.35a.365.365 0 00.315-.16c.077-.11.115-.26.115-.45s-.038-.338-.115-.445a.362.362 0 00-.315-.165.367.367 0 00-.315.16c-.076.107-.115.257-.115.45s.039.343.115.45c.077.107.182.16.315.16z" fill="#ED6373"/><path opacity=".4" d="M96.993 192.013l-.429.435V193h-.222v-2.1h.222v1.269l1.233-1.269h.255l-.909.951.972 1.149h-.264l-.858-.987zm1.482-1.113h.222v1.908h1.176V193h-1.398v-2.1zm3.089 1.539h-1.17l-.252.561h-.23l.959-2.1h.219l.96 2.1h-.234l-.252-.561zm-.081-.18l-.504-1.128-.504 1.128h1.008zm.709-.165h.786v.186h-.786v-.186zm1.619-1.002h-.738v-.192h1.698v.192h-.738V193h-.222v-1.908zm2.479 1.185h-1.32a.57.57 0 00.189.399c.114.1.258.15.432.15a.606.606 0 00.483-.207l.12.138a.674.674 0 01-.264.192.877.877 0 01-.345.066.895.895 0 01-.432-.102.76.76 0 01-.291-.288.817.817 0 01-.105-.414c0-.154.033-.292.099-.414a.742.742 0 01.672-.387c.146 0 .277.034.393.102a.72.72 0 01.273.285c.066.12.099.258.099.414l-.003.066zm-.762-.684a.539.539 0 00-.384.147.569.569 0 00-.174.378h1.119a.563.563 0 00-.177-.378.532.532 0 00-.384-.147zm2.003-.183c.198 0 .355.058.471.174.118.114.177.281.177.501V193h-.213v-.894c0-.164-.041-.289-.123-.375-.082-.086-.199-.129-.351-.129a.541.541 0 00-.405.153c-.098.1-.147.239-.147.417V193h-.213v-1.578h.204v.291a.585.585 0 01.24-.222.77.77 0 01.36-.081zm1.886 1.605a.859.859 0 01-.42-.102.744.744 0 01-.288-.285.833.833 0 01-.105-.417c0-.154.035-.292.105-.414a.744.744 0 01.288-.285.859.859 0 01.42-.102c.136 0 .257.027.363.081a.594.594 0 01.255.231l-.159.108a.486.486 0 00-.198-.174.617.617 0 00-.57.018.54.54 0 00-.213.216.673.673 0 00-.075.321c0 .122.025.23.075.324a.567.567 0 00.522.291.6.6 0 00.261-.057.486.486 0 00.198-.174l.159.108a.613.613 0 01-.255.234.826.826 0 01-.363.078zm1.655 0a.83.83 0 01-.411-.102.766.766 0 01-.288-.288.817.817 0 01-.105-.414c0-.154.035-.292.105-.414a.744.744 0 01.288-.285.83.83 0 01.411-.102.83.83 0 01.411.102.723.723 0 01.285.285c.07.122.105.26.105.414a.817.817 0 01-.105.414.744.744 0 01-.285.288.83.83 0 01-.411.102zm0-.189a.596.596 0 00.3-.075.54.54 0 00.21-.219.673.673 0 00.075-.321.673.673 0 00-.075-.321.52.52 0 00-.21-.216.578.578 0 00-.3-.078.595.595 0 00-.303.078.546.546 0 00-.21.216.673.673 0 00-.075.321c0 .12.025.227.075.321a.568.568 0 00.21.219c.09.05.191.075.303.075zm1.44-1.095a.518.518 0 01.222-.24.768.768 0 01.369-.081v.207l-.051-.003a.504.504 0 00-.39.153c-.094.102-.141.245-.141.429V193h-.213v-1.578h.204v.309zm2.742 1.287c-.208 0-.396-.046-.564-.138a1.028 1.028 0 01-.534-.93c0-.202.047-.384.141-.546.096-.164.228-.292.396-.384.168-.092.356-.138.564-.138.156 0 .3.026.432.078a.895.895 0 01.336.228l-.141.141a.836.836 0 00-.621-.249.913.913 0 00-.453.114.844.844 0 00-.321.312.874.874 0 00-.114.444c0 .164.038.312.114.444a.844.844 0 00.321.312.913.913 0 00.453.114.825.825 0 00.621-.252l.141.141a.921.921 0 01-.339.231 1.168 1.168 0 01-.432.078zm1.774-.003a.83.83 0 01-.411-.102.766.766 0 01-.288-.288.817.817 0 01-.105-.414c0-.154.035-.292.105-.414a.744.744 0 01.288-.285.83.83 0 01.411-.102.83.83 0 01.411.102.723.723 0 01.285.285c.07.122.105.26.105.414a.817.817 0 01-.105.414.744.744 0 01-.285.288.83.83 0 01-.411.102zm0-.189a.596.596 0 00.3-.075.54.54 0 00.21-.219.673.673 0 00.075-.321.673.673 0 00-.075-.321.52.52 0 00-.21-.216.578.578 0 00-.3-.078.595.595 0 00-.303.078.546.546 0 00-.21.216.673.673 0 00-.075.321c0 .12.025.227.075.321a.568.568 0 00.21.219c.09.05.191.075.303.075zm1.44-1.095a.518.518 0 01.222-.24.768.768 0 01.369-.081v.207l-.051-.003a.504.504 0 00-.39.153c-.094.102-.141.245-.141.429V193h-.213v-1.578h.204v.309zm1.789-.321c.148 0 .282.034.402.102.12.066.214.16.282.282a.842.842 0 01.102.417.848.848 0 01-.102.42.729.729 0 01-.282.285.81.81 0 01-.402.099.767.767 0 01-.348-.078.672.672 0 01-.252-.234v.879h-.213v-2.16h.204v.312a.66.66 0 01.252-.24.752.752 0 01.357-.084zm-.015 1.416c.11 0 .21-.025.3-.075a.54.54 0 00.21-.219.652.652 0 00.078-.321.635.635 0 00-.078-.318.54.54 0 00-.21-.219.589.589 0 00-.3-.078.568.568 0 00-.513.297.655.655 0 00-.075.318c0 .12.025.227.075.321a.568.568 0 00.21.219c.09.05.191.075.303.075zm1.881.189a.83.83 0 01-.411-.102.766.766 0 01-.288-.288.817.817 0 01-.105-.414c0-.154.035-.292.105-.414a.744.744 0 01.288-.285.83.83 0 01.411-.102.83.83 0 01.411.102.723.723 0 01.285.285c.07.122.105.26.105.414a.817.817 0 01-.105.414.744.744 0 01-.285.288.83.83 0 01-.411.102zm0-.189a.596.596 0 00.3-.075.54.54 0 00.21-.219.673.673 0 00.075-.321.673.673 0 00-.075-.321.52.52 0 00-.21-.216.578.578 0 00-.3-.078.595.595 0 00-.303.078.546.546 0 00-.21.216.673.673 0 00-.075.321c0 .12.025.227.075.321a.568.568 0 00.21.219c.09.05.191.075.303.075zm1.44-1.095a.518.518 0 01.222-.24.768.768 0 01.369-.081v.207l-.051-.003a.504.504 0 00-.39.153c-.094.102-.141.245-.141.429V193h-.213v-1.578h.204v.309zm1.525-.321c.206 0 .364.052.474.156.11.102.165.254.165.456V193h-.204v-.246a.487.487 0 01-.213.192.73.73 0 01-.33.069.65.65 0 01-.42-.126.407.407 0 01-.156-.333c0-.134.048-.242.144-.324.098-.082.253-.123.465-.123h.501v-.096c0-.136-.038-.239-.114-.309-.076-.072-.187-.108-.333-.108a.824.824 0 00-.525.186l-.096-.159a.832.832 0 01.288-.156c.112-.038.23-.057.354-.057zm-.075 1.437a.57.57 0 00.309-.081.501.501 0 00.192-.24v-.258h-.495c-.27 0-.405.094-.405.282 0 .092.035.165.105.219.07.052.168.078.294.078zm2.124.057a.419.419 0 01-.15.084.614.614 0 01-.183.027c-.148 0-.262-.04-.342-.12a.458.458 0 01-.12-.339v-.954h-.282v-.18h.282v-.345h.213v.345h.48v.18h-.48v.942c0 .094.023.166.069.216.048.048.116.072.204.072a.379.379 0 00.234-.081l.075.153zm.388-1.482h.213V193h-.213v-1.578zm.108-.345a.15.15 0 01-.111-.045.147.147 0 010-.213.15.15 0 01.111-.045.15.15 0 01.111.045c.03.028.045.062.045.102a.15.15 0 01-.045.111.15.15 0 01-.111.045zm1.342 1.938a.83.83 0 01-.411-.102.766.766 0 01-.288-.288.817.817 0 01-.105-.414c0-.154.035-.292.105-.414a.744.744 0 01.288-.285.83.83 0 01.411-.102.83.83 0 01.411.102.723.723 0 01.285.285c.07.122.105.26.105.414a.817.817 0 01-.105.414.744.744 0 01-.285.288.83.83 0 01-.411.102zm0-.189a.596.596 0 00.3-.075.54.54 0 00.21-.219.673.673 0 00.075-.321.673.673 0 00-.075-.321.52.52 0 00-.21-.216.578.578 0 00-.3-.078.595.595 0 00-.303.078.546.546 0 00-.21.216.673.673 0 00-.075.321c0 .12.025.227.075.321a.568.568 0 00.21.219c.09.05.191.075.303.075zm2.04-1.416c.198 0 .355.058.471.174.118.114.177.281.177.501V193h-.213v-.894c0-.164-.041-.289-.123-.375-.082-.086-.199-.129-.351-.129a.541.541 0 00-.405.153c-.098.1-.147.239-.147.417V193h-.213v-1.578h.204v.291a.585.585 0 01.24-.222.77.77 0 01.36-.081z" fill="#373943"/><path stroke="#EAF1FE" stroke-width=".5" d="M96 201.75h196"/><path d="M99.58 211.5v3.5h-.65v-1.5h-1.81v1.5h-.65v-3.5h.65v1.445h1.81V211.5h.65zm3.228 3.5l-.715-1.025a1.44 1.44 0 01-.135.005h-.79V215h-.65v-3.5h1.44c.303 0 .567.05.79.15.227.1.4.243.52.43s.18.408.18.665c0 .263-.065.49-.195.68a1.13 1.13 0 01-.55.425l.805 1.15h-.7zm-.015-2.255c0-.223-.073-.395-.22-.515-.147-.12-.362-.18-.645-.18h-.76v1.395h.76c.283 0 .498-.06.645-.18.147-.123.22-.297.22-.52zm1.382-1.245h.65v2.95h1.83v.55h-2.48v-3.5zm47.895 3.19v.945h-.335V215h-2.355v.635h-.335v-.945h.15c.177-.01.297-.14.36-.39s.107-.6.13-1.05l.035-.88h1.94v2.32h.41zm-2.06-1.42a6.622 6.622 0 01-.095.925c-.047.24-.13.405-.25.495h1.64v-2.005h-1.265l-.03.585zm5.052.525h-2.2a.95.95 0 00.315.665c.19.167.43.25.72.25.163 0 .313-.028.45-.085a1.01 1.01 0 00.355-.26l.2.23a1.12 1.12 0 01-.44.32c-.173.073-.365.11-.575.11-.27 0-.51-.057-.72-.17a1.27 1.27 0 01-.485-.48 1.356 1.356 0 01-.175-.69c0-.257.055-.487.165-.69a1.236 1.236 0 011.12-.645c.243 0 .462.057.655.17.193.113.345.272.455.475.11.2.165.43.165.69l-.005.11zm-1.27-1.14a.9.9 0 00-.64.245.946.946 0 00-.29.63h1.865a.938.938 0 00-.295-.63.888.888 0 00-.64-.245zm3.416-.305c.246 0 .47.057.67.17.2.11.356.267.47.47.113.203.17.435.17.695 0 .263-.057.497-.17.7a1.22 1.22 0 01-.47.475 1.35 1.35 0 01-.67.165c-.214 0-.407-.043-.58-.13a1.12 1.12 0 01-.42-.39v1.465h-.355v-3.6h.34v.52a1.09 1.09 0 01.42-.4c.176-.093.375-.14.595-.14zm-.025 2.36c.183 0 .35-.042.5-.125a.905.905 0 00.35-.365c.086-.157.13-.335.13-.535s-.044-.377-.13-.53a.905.905 0 00-.35-.365.979.979 0 00-.5-.13.939.939 0 00-.855.495c-.084.153-.125.33-.125.53s.041.378.125.535a.939.939 0 00.35.365c.15.083.318.125.505.125zm4.31-.88h-.57V215h-.355v-1.17h-.57l-.805 1.17h-.425l.945-1.355-.87-1.275h.385l.77 1.155h.57v-1.155h.355v1.155h.57l.775-1.155h.385l-.87 1.28.945 1.35h-.425l-.81-1.17zm2.682-1.48c.343 0 .606.087.79.26.183.17.275.423.275.76V215h-.34v-.41a.815.815 0 01-.355.32 1.216 1.216 0 01-.55.115c-.294 0-.527-.07-.7-.21a.676.676 0 01-.26-.555c0-.223.08-.403.24-.54.163-.137.421-.205.775-.205h.835v-.16c0-.227-.064-.398-.19-.515-.127-.12-.312-.18-.555-.18-.167 0-.327.028-.48.085a1.158 1.158 0 00-.395.225l-.16-.265c.133-.113.293-.2.48-.26.186-.063.383-.095.59-.095zm-.125 2.395a.95.95 0 00.515-.135.837.837 0 00.32-.4v-.43h-.825c-.45 0-.675.157-.675.47 0 .153.058.275.175.365.116.087.28.13.49.13zm3.985-2.06h-.995V215h-.355v-2.315h-.995v-.315h2.345v.315zm1.643.615c.33.003.58.077.75.22.173.143.26.35.26.62 0 .28-.093.495-.28.645-.183.15-.45.223-.8.22l-1.06-.005v-2.63h.355v.92l.775.01zm-.09 1.435c.243.003.427-.045.55-.145.127-.103.19-.253.19-.45 0-.193-.062-.337-.185-.43-.123-.093-.308-.142-.555-.145l-.685-.01v1.17l.685.01zM187.45 213c.367.02.645.12.835.3.193.177.29.408.29.695 0 .2-.048.378-.145.535a.999.999 0 01-.43.365c-.19.09-.422.135-.695.135a2.15 2.15 0 01-.72-.12 1.481 1.481 0 01-.54-.33l.175-.285c.117.12.272.218.465.295.193.073.4.11.62.11.287 0 .508-.062.665-.185a.632.632 0 00.235-.52.612.612 0 00-.235-.51c-.157-.123-.393-.185-.71-.185h-.25v-.265l.97-1.215h-1.79v-.32h2.25v.255l-.99 1.245zm4.607 1.08h-.7v.92h-.36v-.92h-1.975v-.26l1.855-2.32h.4l-1.79 2.26h1.52v-.81h.35v.81h.7v.32zm2.552-2.58v.255L193.144 215h-.39l1.44-3.18h-1.8v.655h-.355v-.975h2.57zm.481 3.525a.26.26 0 01-.19-.08.273.273 0 01-.075-.195c0-.077.025-.14.075-.19a.26.26 0 01.19-.08c.073 0 .136.027.19.08a.25.25 0 01.08.19.266.266 0 01-.08.195.262.262 0 01-.19.08zm1.709-2.09c.507 0 .875.092 1.105.275.233.18.35.433.35.76 0 .203-.048.385-.145.545a.966.966 0 01-.425.38c-.19.09-.423.135-.7.135-.25 0-.488-.04-.715-.12a1.481 1.481 0 01-.54-.33l.175-.285c.117.12.27.218.46.295.19.073.395.11.615.11.29 0 .513-.065.67-.195.16-.13.24-.303.24-.52 0-.24-.09-.422-.27-.545-.177-.123-.477-.185-.9-.185h-.745l.18-1.755h1.915v.32h-1.6l-.12 1.115h.45zm2.882-1.435v3.5h-.36v-3.18h-.825v-.32h1.185zm22.769 1.5c.367.02.645.12.835.3.193.177.29.408.29.695 0 .2-.048.378-.145.535a.999.999 0 01-.43.365c-.19.09-.422.135-.695.135a2.15 2.15 0 01-.72-.12 1.481 1.481 0 01-.54-.33l.175-.285c.117.12.272.218.465.295.193.073.4.11.62.11.287 0 .508-.062.665-.185a.632.632 0 00.235-.52.612.612 0 00-.235-.51c-.157-.123-.393-.185-.71-.185h-.25v-.265l.97-1.215h-1.79v-.32h2.25v.255l-.99 1.245zm4.607 1.08h-.7v.92h-.36v-.92h-1.975v-.26l1.855-2.32h.4l-1.79 2.26h1.52v-.81h.35v.81h.7v.32zm2.552-2.58v.255L228.144 215h-.39l1.44-3.18h-1.8v.655h-.355v-.975h2.57zm.481 3.525a.26.26 0 01-.19-.08.273.273 0 01-.075-.195c0-.077.025-.14.075-.19a.26.26 0 01.19-.08c.073 0 .136.027.19.08a.25.25 0 01.08.19.266.266 0 01-.08.195.262.262 0 01-.19.08zm1.709-2.09c.507 0 .875.092 1.105.275.233.18.35.433.35.76 0 .203-.048.385-.145.545a.966.966 0 01-.425.38c-.19.09-.423.135-.7.135-.25 0-.488-.04-.715-.12a1.481 1.481 0 01-.54-.33l.175-.285c.117.12.27.218.46.295.19.073.395.11.615.11.29 0 .513-.065.67-.195.16-.13.24-.303.24-.52 0-.24-.09-.422-.27-.545-.177-.123-.477-.185-.9-.185h-.745l.18-1.755h1.915v.32h-1.6l-.12 1.115h.45zm2.882-1.435v3.5h-.36v-3.18h-.825v-.32h1.185zm18.499 1.435c.507 0 .875.092 1.105.275.233.18.35.433.35.76 0 .203-.048.385-.145.545a.966.966 0 01-.425.38c-.19.09-.423.135-.7.135-.25 0-.488-.04-.715-.12a1.481 1.481 0 01-.54-.33l.175-.285c.117.12.27.218.46.295.19.073.395.11.615.11.29 0 .513-.065.67-.195.16-.13.24-.303.24-.52 0-.24-.09-.422-.27-.545-.177-.123-.477-.185-.9-.185h-.745l.18-1.755h1.915v.32h-1.6l-.12 1.115h.45zm25.002 2.115c-.28 0-.53-.07-.75-.21a1.455 1.455 0 01-.52-.62 2.284 2.284 0 01-.19-.97c0-.373.063-.695.19-.965.127-.273.3-.48.52-.62.22-.143.47-.215.75-.215s.53.072.75.215c.223.14.398.347.525.62.127.27.19.592.19.965s-.063.697-.19.97c-.127.27-.302.477-.525.62-.22.14-.47.21-.75.21zm0-.565a.68.68 0 00.59-.31c.147-.207.22-.515.22-.925 0-.41-.073-.718-.22-.925a.68.68 0 00-.59-.31.687.687 0 00-.59.31c-.143.207-.215.515-.215.925 0 .41.072.718.215.925.147.207.343.31.59.31zm2.236.55a.401.401 0 01-.41-.415c0-.123.038-.223.115-.3a.408.408 0 01.295-.115c.116 0 .213.038.29.115.08.077.12.177.12.3a.403.403 0 01-.41.415zm2.232.015c-.28 0-.53-.07-.75-.21a1.448 1.448 0 01-.52-.62 2.284 2.284 0 01-.19-.97c0-.373.063-.695.19-.965.126-.273.3-.48.52-.62.22-.143.47-.215.75-.215s.53.072.75.215c.223.14.398.347.525.62.126.27.19.592.19.965a2.3 2.3 0 01-.19.97c-.127.27-.302.477-.525.62-.22.14-.47.21-.75.21zm0-.565a.68.68 0 00.59-.31c.146-.207.22-.515.22-.925 0-.41-.074-.718-.22-.925a.68.68 0 00-.59-.31.686.686 0 00-.59.31c-.144.207-.215.515-.215.925 0 .41.071.718.215.925.146.207.343.31.59.31zm3.364.565c-.28 0-.53-.07-.75-.21a1.455 1.455 0 01-.52-.62 2.284 2.284 0 01-.19-.97c0-.373.063-.695.19-.965.127-.273.3-.48.52-.62.22-.143.47-.215.75-.215s.53.072.75.215c.223.14.398.347.525.62.127.27.19.592.19.965s-.063.697-.19.97c-.127.27-.302.477-.525.62-.22.14-.47.21-.75.21zm0-.565a.68.68 0 00.59-.31c.147-.207.22-.515.22-.925 0-.41-.073-.718-.22-.925a.68.68 0 00-.59-.31.687.687 0 00-.59.31c-.143.207-.215.515-.215.925 0 .41.072.718.215.925.147.207.343.31.59.31zm2.684-1.1a.762.762 0 01-.605-.265c-.153-.177-.23-.408-.23-.695s.077-.518.23-.695a.762.762 0 01.605-.265.76.76 0 01.605.265c.157.173.235.405.235.695 0 .29-.078.523-.235.7a.77.77 0 01-.605.26zm2.1-1.885h.49l-2.39 3.5h-.49l2.39-3.5zm-2.1 1.535a.358.358 0 00.315-.16c.077-.107.115-.257.115-.45s-.038-.343-.115-.45a.358.358 0 00-.315-.16.372.372 0 00-.315.165c-.076.107-.115.255-.115.445s.039.34.115.45c.08.107.185.16.315.16zm2.295 2a.762.762 0 01-.605-.265c-.153-.177-.23-.408-.23-.695s.077-.518.23-.695a.762.762 0 01.605-.265.76.76 0 01.605.265c.157.177.235.408.235.695s-.078.518-.235.695a.76.76 0 01-.605.265zm0-.35a.365.365 0 00.315-.16c.077-.11.115-.26.115-.45s-.038-.338-.115-.445a.362.362 0 00-.315-.165.367.367 0 00-.315.16c-.076.107-.115.257-.115.45s.039.343.115.45c.077.107.182.16.315.16z" fill="#373943"/><path opacity=".4" d="M98.097 217.9v2.1h-.219v-.969h-1.314V220h-.222v-2.1h.222v.936h1.314v-.936h.219zm1.285 2.115a.83.83 0 01-.41-.102.766.766 0 01-.289-.288.817.817 0 01-.105-.414c0-.154.035-.292.105-.414a.744.744 0 01.288-.285.83.83 0 01.411-.102.83.83 0 01.411.102.722.722 0 01.285.285c.07.122.105.26.105.414a.817.817 0 01-.105.414.743.743 0 01-.285.288.83.83 0 01-.41.102zm0-.189a.596.596 0 00.3-.075.54.54 0 00.21-.219.673.673 0 00.075-.321.673.673 0 00-.075-.321.52.52 0 00-.21-.216.578.578 0 00-.3-.078.595.595 0 00-.303.078.546.546 0 00-.21.216.673.673 0 00-.075.321c0 .12.025.227.075.321a.568.568 0 00.21.219c.09.05.191.075.303.075zm1.44-1.095a.518.518 0 01.222-.24.768.768 0 01.369-.081v.207l-.051-.003a.504.504 0 00-.39.153c-.094.102-.141.245-.141.429V220h-.213v-1.578h.204v.309zm2.945-.321c.198 0 .353.057.465.171.114.114.171.282.171.504V220h-.213v-.894c0-.164-.04-.289-.12-.375-.078-.086-.189-.129-.333-.129a.5.5 0 00-.387.153c-.094.1-.141.239-.141.417V220h-.213v-.894c0-.164-.04-.289-.12-.375-.078-.086-.19-.129-.336-.129a.506.506 0 00-.387.153c-.094.1-.141.239-.141.417V220h-.213v-1.578h.204v.288a.57.57 0 01.234-.222.737.737 0 01.345-.078c.132 0 .246.028.342.084a.514.514 0 01.219.249.607.607 0 01.249-.243.77.77 0 01.375-.09zm2.593.867h-1.32a.57.57 0 00.189.399c.114.1.258.15.432.15a.606.606 0 00.483-.207l.12.138a.674.674 0 01-.264.192.877.877 0 01-.345.066.895.895 0 01-.432-.102.76.76 0 01-.291-.288.817.817 0 01-.105-.414c0-.154.033-.292.099-.414a.742.742 0 01.672-.387c.146 0 .277.034.393.102a.72.72 0 01.273.285c.066.12.099.258.099.414l-.003.066zm-.762-.684a.539.539 0 00-.384.147.569.569 0 00-.174.378h1.119a.563.563 0 00-.177-.378.532.532 0 00-.384-.147zm1.199-.819h.213V220h-.213v-2.226zm1.858.318v.825h1.086v.192h-1.086V220h-.222v-2.1h1.44v.192h-1.218zm2.224 1.923a.83.83 0 01-.411-.102.766.766 0 01-.288-.288.817.817 0 01-.105-.414c0-.154.035-.292.105-.414a.744.744 0 01.288-.285.83.83 0 01.411-.102.83.83 0 01.411.102.723.723 0 01.285.285c.07.122.105.26.105.414a.817.817 0 01-.105.414.744.744 0 01-.285.288.83.83 0 01-.411.102zm0-.189a.596.596 0 00.3-.075.54.54 0 00.21-.219.673.673 0 00.075-.321.673.673 0 00-.075-.321.52.52 0 00-.21-.216.578.578 0 00-.3-.078.595.595 0 00-.303.078.546.546 0 00-.21.216.673.673 0 00-.075.321c0 .12.025.227.075.321a.568.568 0 00.21.219c.09.05.191.075.303.075zm1.88.189a.83.83 0 01-.411-.102.766.766 0 01-.288-.288.817.817 0 01-.105-.414c0-.154.035-.292.105-.414a.744.744 0 01.288-.285.83.83 0 01.411-.102.83.83 0 01.411.102.723.723 0 01.285.285c.07.122.105.26.105.414a.817.817 0 01-.105.414.744.744 0 01-.285.288.83.83 0 01-.411.102zm0-.189a.596.596 0 00.3-.075.54.54 0 00.21-.219.673.673 0 00.075-.321.673.673 0 00-.075-.321.52.52 0 00-.21-.216.578.578 0 00-.3-.078.595.595 0 00-.303.078.546.546 0 00-.21.216.673.673 0 00-.075.321c0 .12.025.227.075.321a.568.568 0 00.21.219c.09.05.191.075.303.075zm2.676-2.052V220h-.204v-.312a.647.647 0 01-.255.243.735.735 0 01-.354.084.801.801 0 01-.402-.102.729.729 0 01-.282-.285.842.842 0 01-.102-.417c0-.156.034-.295.102-.417a.709.709 0 01.282-.282.801.801 0 01.402-.102c.128 0 .243.027.345.081a.642.642 0 01.255.231v-.948h.213zm-.795 2.052a.59.59 0 00.297-.075.54.54 0 00.21-.219.652.652 0 00.078-.321.652.652 0 00-.078-.321.573.573 0 00-.507-.294.595.595 0 00-.303.078.546.546 0 00-.21.216.673.673 0 00-.075.321c0 .12.025.227.075.321a.568.568 0 00.21.219c.09.05.191.075.303.075zm1.811.189c-.128 0-.251-.018-.369-.054a.81.81 0 01-.273-.141l.096-.168a.832.832 0 00.249.129c.1.032.204.048.312.048.144 0 .25-.022.318-.066a.218.218 0 00.105-.192.167.167 0 00-.057-.135.353.353 0 00-.144-.075 1.816 1.816 0 00-.231-.051 2.92 2.92 0 01-.309-.072.477.477 0 01-.201-.129.359.359 0 01-.081-.249.39.39 0 01.165-.324c.11-.084.263-.126.459-.126.102 0 .204.014.306.042a.817.817 0 01.252.105l-.093.171a.796.796 0 00-.465-.135.547.547 0 00-.309.072.221.221 0 00-.102.189c0 .06.019.108.057.144.04.036.089.063.147.081.058.016.138.033.24.051.126.024.227.048.303.072a.445.445 0 01.195.123.338.338 0 01.081.24.384.384 0 01-.174.33c-.114.08-.273.12-.477.12zm2.787.003c-.208 0-.396-.046-.564-.138a1.028 1.028 0 01-.534-.93c0-.202.047-.384.141-.546.096-.164.228-.292.396-.384.168-.092.356-.138.564-.138.156 0 .3.026.432.078a.895.895 0 01.336.228l-.141.141a.836.836 0 00-.621-.249.913.913 0 00-.453.114.844.844 0 00-.321.312.874.874 0 00-.114.444c0 .164.038.312.114.444a.844.844 0 00.321.312.913.913 0 00.453.114.825.825 0 00.621-.252l.141.141a.921.921 0 01-.339.231 1.168 1.168 0 01-.432.078zm1.774-.003a.83.83 0 01-.411-.102.766.766 0 01-.288-.288.817.817 0 01-.105-.414c0-.154.035-.292.105-.414a.744.744 0 01.288-.285.83.83 0 01.411-.102.83.83 0 01.411.102.723.723 0 01.285.285c.07.122.105.26.105.414a.817.817 0 01-.105.414.744.744 0 01-.285.288.83.83 0 01-.411.102zm0-.189a.596.596 0 00.3-.075.54.54 0 00.21-.219.673.673 0 00.075-.321.673.673 0 00-.075-.321.52.52 0 00-.21-.216.578.578 0 00-.3-.078.595.595 0 00-.303.078.546.546 0 00-.21.216.673.673 0 00-.075.321c0 .12.025.227.075.321a.568.568 0 00.21.219c.09.05.191.075.303.075zm1.44-1.095a.518.518 0 01.222-.24.768.768 0 01.369-.081v.207l-.051-.003a.504.504 0 00-.39.153c-.094.102-.141.245-.141.429V220h-.213v-1.578h.204v.309zm1.79-.321c.148 0 .282.034.402.102.12.066.214.16.282.282a.842.842 0 01.102.417.848.848 0 01-.102.42.729.729 0 01-.282.285.81.81 0 01-.402.099.767.767 0 01-.348-.078.672.672 0 01-.252-.234v.879h-.213v-2.16h.204v.312a.66.66 0 01.252-.24.752.752 0 01.357-.084zm-.015 1.416c.11 0 .21-.025.3-.075a.54.54 0 00.21-.219.652.652 0 00.078-.321.635.635 0 00-.078-.318.54.54 0 00-.21-.219.589.589 0 00-.3-.078.568.568 0 00-.513.297.655.655 0 00-.075.318c0 .12.025.227.075.321a.568.568 0 00.21.219c.09.05.191.075.303.075zm1.88.189a.83.83 0 01-.411-.102.766.766 0 01-.288-.288.817.817 0 01-.105-.414c0-.154.035-.292.105-.414a.744.744 0 01.288-.285.83.83 0 01.411-.102.83.83 0 01.411.102.723.723 0 01.285.285c.07.122.105.26.105.414a.817.817 0 01-.105.414.744.744 0 01-.285.288.83.83 0 01-.411.102zm0-.189a.596.596 0 00.3-.075.54.54 0 00.21-.219.673.673 0 00.075-.321.673.673 0 00-.075-.321.52.52 0 00-.21-.216.578.578 0 00-.3-.078.595.595 0 00-.303.078.546.546 0 00-.21.216.673.673 0 00-.075.321c0 .12.025.227.075.321a.568.568 0 00.21.219c.09.05.191.075.303.075zm1.44-1.095a.518.518 0 01.222-.24.768.768 0 01.369-.081v.207l-.051-.003a.504.504 0 00-.39.153c-.094.102-.141.245-.141.429V220h-.213v-1.578h.204v.309zm1.526-.321c.206 0 .364.052.474.156.11.102.165.254.165.456V220h-.204v-.246a.487.487 0 01-.213.192.73.73 0 01-.33.069.65.65 0 01-.42-.126.407.407 0 01-.156-.333c0-.134.048-.242.144-.324.098-.082.253-.123.465-.123h.501v-.096c0-.136-.038-.239-.114-.309-.076-.072-.187-.108-.333-.108a.824.824 0 00-.525.186l-.096-.159a.832.832 0 01.288-.156c.112-.038.23-.057.354-.057zm-.075 1.437a.57.57 0 00.309-.081.501.501 0 00.192-.24v-.258h-.495c-.27 0-.405.094-.405.282 0 .092.035.165.105.219.07.052.168.078.294.078zm2.123.057a.419.419 0 01-.15.084.614.614 0 01-.183.027c-.148 0-.262-.04-.342-.12a.458.458 0 01-.12-.339v-.954h-.282v-.18h.282v-.345h.213v.345h.48v.18h-.48v.942c0 .094.023.166.069.216.048.048.116.072.204.072a.379.379 0 00.234-.081l.075.153zm.388-1.482h.213V220h-.213v-1.578zm.108-.345a.15.15 0 01-.111-.045.147.147 0 010-.213.15.15 0 01.111-.045.15.15 0 01.111.045c.03.028.045.062.045.102a.15.15 0 01-.045.111.15.15 0 01-.111.045zm1.343 1.938a.83.83 0 01-.411-.102.766.766 0 01-.288-.288.817.817 0 01-.105-.414c0-.154.035-.292.105-.414a.744.744 0 01.288-.285.83.83 0 01.411-.102.83.83 0 01.411.102.723.723 0 01.285.285c.07.122.105.26.105.414a.817.817 0 01-.105.414.744.744 0 01-.285.288.83.83 0 01-.411.102zm0-.189a.596.596 0 00.3-.075.54.54 0 00.21-.219.673.673 0 00.075-.321.673.673 0 00-.075-.321.52.52 0 00-.21-.216.578.578 0 00-.3-.078.595.595 0 00-.303.078.546.546 0 00-.21.216.673.673 0 00-.075.321c0 .12.025.227.075.321a.568.568 0 00.21.219c.09.05.191.075.303.075zm2.039-1.416c.198 0 .355.058.471.174.118.114.177.281.177.501V220h-.213v-.894c0-.164-.041-.289-.123-.375-.082-.086-.199-.129-.351-.129a.541.541 0 00-.405.153c-.098.1-.147.239-.147.417V220h-.213v-1.578h.204v.291a.585.585 0 01.24-.222.77.77 0 01.36-.081z" fill="#373943"/><defs><filter id="filter0_d" x="0" y="0" width="384" height="374" filterUnits="userSpaceOnUse" color-interpolation-filters="sRGB"><feFlood flood-opacity="0" result="BackgroundImageFix"/><feColorMatrix in="SourceAlpha" values="0 0 0 0 0 0 0 0 0 0 0 0 0 0 0 0 0 0 127 0"/><feMorphology radius="17" in="SourceAlpha" result="effect1_dropShadow"/><feOffset dy="44"/><feGaussianBlur stdDeviation="44.5"/><feColorMatrix values="0 0 0 0 0.243137 0 0 0 0 0.329412 0 0 0 0 0.847059 0 0 0 0.06 0"/><feBlend in2="BackgroundImageFix" result="effect1_dropShadow"/><feBlend in="SourceGraphic" in2="effect1_dropShadow" result="shape"/></filter><filter id="filter1_d" x="163" y="236" width="58" height="70" filterUnits="userSpaceOnUse" color-interpolation-filters="sRGB"><feFlood flood-opacity="0" result="BackgroundImageFix"/><feColorMatrix in="SourceAlpha" values="0 0 0 0 0 0 0 0 0 0 0 0 0 0 0 0 0 0 127 0"/><feMorphology radius="13" in="SourceAlpha" result="effect1_dropShadow"/><feOffset dy="21"/><feGaussianBlur stdDeviation="11"/><feColorMatrix values="0 0 0 0 0.243137 0 0 0 0 0.329412 0 0 0 0 0.847059 0 0 0 0.51 0"/><feBlend in2="BackgroundImageFix" result="effect1_dropShadow"/><feBlend in="SourceGraphic" in2="effect1_dropShadow" result="shape"/></filter></defs></svg>