<svg width="384" height="374" fill="none" xmlns="http://www.w3.org/2000/svg"><g filter="url(#filter0_d)"><rect x="72" y="28" width="240" height="230" rx="36" fill="#fff"/></g><path d="M100.204 64.345h-1.17V67h-1.152v-6.3h1.152v2.637h1.206l1.809-2.637h1.242l-2.151 3.051L103.372 67h-1.323l-1.845-2.655zm8.311-2.151l-2.25 5.193c-.21.522-.465.888-.765 1.098-.3.216-.663.324-1.089.324-.24 0-.477-.039-.711-.117a1.571 1.571 0 01-.576-.324l.45-.828a1.238 1.238 0 00.828.333c.198 0 .36-.051.486-.153.132-.102.252-.273.36-.513l.081-.189-2.097-4.824h1.17l1.512 3.555 1.521-3.555h1.08zm5.389 0V67h-1.116v-3.852h-2.367V67h-1.125v-4.806h4.608zm1.518 0h1.125v3.168l2.655-3.168h1.026V67h-1.125v-3.168L116.457 67h-1.035v-4.806zm10.126.954h-1.683V67h-1.125v-3.852h-1.692v-.954h4.5v.954zm5.105 1.476c0 .078-.006.189-.018.333h-3.771c.066.354.237.636.513.846.282.204.63.306 1.044.306.528 0 .963-.174 1.305-.522l.603.693a2.032 2.032 0 01-.819.585c-.33.132-.702.198-1.116.198-.528 0-.993-.105-1.395-.315a2.309 2.309 0 01-.936-.873 2.53 2.53 0 01-.324-1.278c0-.468.105-.888.315-1.26.216-.378.513-.672.891-.882.378-.21.804-.315 1.278-.315.468 0 .885.105 1.251.315.372.204.66.495.864.873.21.372.315.804.315 1.296zm-2.43-1.584c-.36 0-.666.108-.918.324-.246.21-.396.492-.45.846h2.727a1.326 1.326 0 00-.441-.846c-.246-.216-.552-.324-.918-.324zm7.642-.918c.504 0 .957.108 1.359.324a2.38 2.38 0 011.287 2.151c0 .474-.114.9-.342 1.278a2.415 2.415 0 01-.945.891 2.89 2.89 0 01-1.359.315c-.438 0-.834-.072-1.188-.216a2.445 2.445 0 01-.9-.621l.648-.63c.378.378.843.567 1.395.567.408 0 .756-.108 1.044-.324.294-.222.483-.516.567-.882h-2.223v-.81h2.214a1.42 1.42 0 00-.567-.837c-.288-.21-.633-.315-1.035-.315a1.88 1.88 0 00-1.395.576l-.648-.63c.24-.276.537-.483.891-.621.36-.144.759-.216 1.197-.216zm7.367 1.026h-1.683V67h-1.125v-3.852h-1.692v-.954h4.5v.954zm.816-.954h1.125v3.168l2.655-3.168h1.026V67h-1.125v-3.168L145.083 67h-1.035v-4.806zm10.598-.054c.708 0 1.248.171 1.62.513.378.336.567.846.567 1.53V67h-1.062v-.585c-.138.21-.336.372-.594.486-.252.108-.558.162-.918.162s-.675-.06-.945-.18a1.537 1.537 0 01-.63-.513 1.343 1.343 0 01-.216-.747c0-.432.159-.777.477-1.035.324-.264.831-.396 1.521-.396h1.242v-.072c0-.336-.102-.594-.306-.774-.198-.18-.495-.27-.891-.27-.27 0-.537.042-.801.126a1.963 1.963 0 00-.657.351l-.441-.819a2.73 2.73 0 01.909-.441 4.045 4.045 0 011.125-.153zm-.153 4.104c.282 0 .531-.063.747-.189.222-.132.378-.318.468-.558v-.558h-1.161c-.648 0-.972.213-.972.639 0 .204.081.366.243.486.162.12.387.18.675.18zm5.73-1.17h-.873V67h-1.125v-4.806h1.125v1.944h.9l1.422-1.944h1.206l-1.746 2.313L162.995 67h-1.323l-1.449-1.926zm8.839.972v2.061h-1.053V67h-4.221v-4.806h1.125v3.852h2.295v-3.852h1.125v3.852h.729zm1.002-3.852h1.125v3.168l2.655-3.168h1.026V67h-1.125v-3.168L171.099 67h-1.035v-4.806zm6.319 0h1.125v3.168l2.655-3.168h1.026V67h-1.125v-3.168L177.418 67h-1.035v-4.806zm13.343 0l-2.25 5.193c-.21.522-.465.888-.765 1.098-.3.216-.663.324-1.089.324-.24 0-.477-.039-.711-.117a1.571 1.571 0 01-.576-.324l.45-.828a1.238 1.238 0 00.828.333c.198 0 .36-.051.486-.153.132-.102.252-.273.36-.513l.081-.189-2.097-4.824h1.17l1.512 3.555 1.521-3.555h1.08zm5.455 4.869c-.498 0-.945-.105-1.341-.315a2.323 2.323 0 01-.927-.873 2.476 2.476 0 01-.333-1.278c0-.474.111-.897.333-1.269.222-.372.528-.663.918-.873.396-.21.846-.315 1.35-.315.474 0 .888.096 1.242.288.36.192.63.468.81.828l-.864.504a1.328 1.328 0 00-.522-.495 1.36 1.36 0 00-.675-.171c-.42 0-.768.138-1.044.414-.276.27-.414.633-.414 1.089 0 .456.135.822.405 1.098.276.27.627.405 1.053.405.246 0 .471-.054.675-.162.21-.114.384-.282.522-.504l.864.504c-.186.36-.459.639-.819.837-.354.192-.765.288-1.233.288zm6.526-2.565c.594.18.891.564.891 1.152 0 .432-.162.765-.486.999-.324.234-.804.351-1.44.351h-2.448v-4.806h2.349c.588 0 1.047.108 1.377.324.33.216.495.522.495.918 0 .246-.066.459-.198.639-.126.18-.306.321-.54.423zm-2.412-.297h1.179c.582 0 .873-.201.873-.603 0-.39-.291-.585-.873-.585h-1.179v1.188zm1.287 1.98c.618 0 .927-.201.927-.603 0-.21-.072-.366-.216-.468-.144-.108-.369-.162-.675-.162h-1.323v1.233h1.287zm5.356.882c-.486 0-.924-.105-1.314-.315a2.338 2.338 0 01-.918-.873 2.53 2.53 0 01-.324-1.278c0-.474.108-.897.324-1.269.222-.372.528-.663.918-.873.39-.21.828-.315 1.314-.315.492 0 .933.105 1.323.315.39.21.693.501.909.873.222.372.333.795.333 1.269 0 .474-.111.9-.333 1.278a2.275 2.275 0 01-.909.873c-.39.21-.831.315-1.323.315zm0-.963c.414 0 .756-.138 1.026-.414.27-.276.405-.639.405-1.089 0-.45-.135-.813-.405-1.089s-.612-.414-1.026-.414c-.414 0-.756.138-1.026.414-.264.276-.396.639-.396 1.089 0 .45.132.813.396 1.089.27.276.612.414 1.026.414zm8.176-1.476c0 .078-.006.189-.018.333h-3.771c.066.354.237.636.513.846.282.204.63.306 1.044.306.528 0 .963-.174 1.305-.522l.603.693a2.032 2.032 0 01-.819.585c-.33.132-.702.198-1.116.198-.528 0-.993-.105-1.395-.315a2.309 2.309 0 01-.936-.873 2.53 2.53 0 01-.324-1.278c0-.468.105-.888.315-1.26.216-.378.513-.672.891-.882.378-.21.804-.315 1.278-.315.468 0 .885.105 1.251.315.372.204.66.495.864.873.21.372.315.804.315 1.296zm-2.43-1.584c-.36 0-.666.108-.918.324-.246.21-.396.492-.45.846h2.727a1.326 1.326 0 00-.441-.846c-.246-.216-.552-.324-.918-.324zm7.351.108h-2.565V67h-1.125v-4.806h3.69v.954zm2.75 3.915c-.486 0-.924-.105-1.314-.315a2.338 2.338 0 01-.918-.873 2.53 2.53 0 01-.324-1.278c0-.474.108-.897.324-1.269.222-.372.528-.663.918-.873.39-.21.828-.315 1.314-.315.492 0 .933.105 1.323.315.39.21.693.501.909.873.222.372.333.795.333 1.269 0 .474-.111.9-.333 1.278a2.275 2.275 0 01-.909.873c-.39.21-.831.315-1.323.315zm0-.963c.414 0 .756-.138 1.026-.414.27-.276.405-.639.405-1.089 0-.45-.135-.813-.405-1.089s-.612-.414-1.026-.414c-.414 0-.756.138-1.026.414-.264.276-.396.639-.396 1.089 0 .45.132.813.396 1.089.27.276.612.414 1.026.414zm8.764-3.672c.456 0 .858.099 1.206.297.348.192.618.462.81.81.198.348.297.747.297 1.197 0 .462-.108.873-.324 1.233a2.21 2.21 0 01-.909.828c-.39.198-.834.297-1.332.297-.834 0-1.479-.276-1.935-.828-.456-.552-.684-1.347-.684-2.385 0-.966.207-1.731.621-2.295.414-.564 1.047-.936 1.899-1.116l2.232-.477.162 1.008-2.025.414c-.582.12-1.017.324-1.305.612-.288.288-.456.693-.504 1.215.216-.258.477-.456.783-.594a2.337 2.337 0 011.008-.216zm-.225 3.753c.414 0 .747-.132.999-.396.258-.27.387-.612.387-1.026 0-.414-.129-.747-.387-.999-.252-.252-.585-.378-.999-.378-.42 0-.759.126-1.017.378-.258.252-.387.585-.387.999 0 .42.129.762.387 1.026.264.264.603.396 1.017.396zm6.291-4.041c.468 0 .885.102 1.251.306.372.204.663.492.873.864.21.372.315.801.315 1.287 0 .486-.105.918-.315 1.296-.21.372-.501.66-.873.864a2.526 2.526 0 01-1.251.306c-.648 0-1.161-.216-1.539-.648v2.331h-1.125v-6.552h1.071v.63c.186-.228.414-.399.684-.513.276-.114.579-.171.909-.171zm-.126 3.96c.414 0 .753-.138 1.017-.414.27-.276.405-.639.405-1.089 0-.45-.135-.813-.405-1.089-.264-.276-.603-.414-1.017-.414-.27 0-.513.063-.729.189-.216.12-.387.294-.513.522a1.61 1.61 0 00-.189.792c0 .3.063.564.189.792.126.228.297.405.513.531.216.12.459.18.729.18zm5.827.963c-.486 0-.924-.105-1.314-.315a2.338 2.338 0 01-.918-.873 2.53 2.53 0 01-.324-1.278c0-.474.108-.897.324-1.269.222-.372.528-.663.918-.873.39-.21.828-.315 1.314-.315.492 0 .933.105 1.323.315.39.21.693.501.909.873.222.372.333.795.333 1.269 0 .474-.111.9-.333 1.278a2.275 2.275 0 01-.909.873c-.39.21-.831.315-1.323.315zm0-.963c.414 0 .756-.138 1.026-.414.27-.276.405-.639.405-1.089 0-.45-.135-.813-.405-1.089s-.612-.414-1.026-.414c-.414 0-.756.138-1.026.414-.264.276-.396.639-.396 1.089 0 .45.132.813.396 1.089.27.276.612.414 1.026.414zm5.674-1.026h-.873V67h-1.125v-4.806h1.125v1.944h.9l1.422-1.944h1.206l-1.746 2.313L250.762 67h-1.323l-1.449-1.926zm7.908-.45c0 .078-.006.189-.018.333h-3.771c.066.354.237.636.513.846.282.204.63.306 1.044.306.528 0 .963-.174 1.305-.522l.603.693a2.032 2.032 0 01-.819.585c-.33.132-.702.198-1.116.198-.528 0-.993-.105-1.395-.315a2.309 2.309 0 01-.936-.873 2.53 2.53 0 01-.324-1.278c0-.468.105-.888.315-1.26.216-.378.513-.672.891-.882.378-.21.804-.315 1.278-.315.468 0 .885.105 1.251.315.372.204.66.495.864.873.21.372.315.804.315 1.296zm-2.43-1.584c-.36 0-.666.108-.918.324-.246.21-.396.492-.45.846h2.727a1.326 1.326 0 00-.441-.846c-.246-.216-.552-.324-.918-.324zm6.324-.9c.468 0 .885.102 1.251.306.372.204.663.492.873.864.21.372.315.801.315 1.287 0 .486-.105.918-.315 1.296-.21.372-.501.66-.873.864a2.526 2.526 0 01-1.251.306c-.648 0-1.161-.216-1.539-.648v2.331h-1.125v-6.552h1.071v.63c.186-.228.414-.399.684-.513.276-.114.579-.171.909-.171zm-.126 3.96c.414 0 .753-.138 1.017-.414.27-.276.405-.639.405-1.089 0-.45-.135-.813-.405-1.089-.264-.276-.603-.414-1.017-.414-.27 0-.513.063-.729.189-.216.12-.387.294-.513.522a1.61 1.61 0 00-.189.792c0 .3.063.564.189.792.126.228.297.405.513.531.216.12.459.18.729.18zm5.414-3.96c.708 0 1.248.171 1.62.513.378.336.567.846.567 1.53V67h-1.062v-.585c-.138.21-.336.372-.594.486-.252.108-.558.162-.918.162s-.675-.06-.945-.18a1.537 1.537 0 01-.63-.513 1.343 1.343 0 01-.216-.747c0-.432.159-.777.477-1.035.324-.264.831-.396 1.521-.396h1.242v-.072c0-.336-.102-.594-.306-.774-.198-.18-.495-.27-.891-.27-.27 0-.537.042-.801.126a1.963 1.963 0 00-.657.351l-.441-.819a2.73 2.73 0 01.909-.441 4.045 4.045 0 011.125-.153zm-.153 4.104c.282 0 .531-.063.747-.189.222-.132.378-.318.468-.558v-.558h-1.161c-.648 0-.972.213-.972.639 0 .204.081.366.243.486.162.12.387.18.675.18zM99.968 87.042c-.485 0-.924-.107-1.316-.322a2.398 2.398 0 01-.917-.889 2.53 2.53 0 01-.329-1.281c0-.471.11-.896.329-1.274.224-.383.532-.681.924-.896.392-.215.83-.322 1.316-.322.364 0 .7.06 1.008.182.308.121.569.299.784.532l-.329.329c-.383-.387-.866-.581-1.449-.581-.387 0-.74.089-1.057.266a1.97 1.97 0 00-.749.728 2.039 2.039 0 00-.266 1.036c0 .383.089.728.266 1.036.182.308.432.55.749.728.317.177.67.266 1.057.266.588 0 1.071-.196 1.449-.588l.329.329a2.15 2.15 0 01-.791.539 2.727 2.727 0 01-1.008.182zm5.406-3.724V87h-.497v-1.533c-.425.187-.843.28-1.253.28-.444 0-.789-.1-1.036-.301-.248-.205-.371-.511-.371-.917v-1.211h.497v1.183c0 .275.088.485.266.63.177.14.422.21.735.21.345 0 .732-.091 1.162-.273v-1.75h.497zm4.631 1.995h-3.08c.028.383.175.693.441.931.266.233.602.35 1.008.35.229 0 .439-.04.63-.119.191-.084.357-.205.497-.364l.28.322a1.572 1.572 0 01-.616.448 2.046 2.046 0 01-.805.154c-.378 0-.714-.08-1.008-.238a1.772 1.772 0 01-.679-.672 1.91 1.91 0 01-.245-.966c0-.36.077-.681.231-.966a1.73 1.73 0 01.644-.665c.275-.159.583-.238.924-.238.341 0 .646.08.917.238.271.159.483.38.637.665.154.28.231.602.231.966l-.007.154zm-1.778-1.596c-.355 0-.653.114-.896.343-.238.224-.373.518-.406.882h2.611c-.033-.364-.17-.658-.413-.882a1.242 1.242 0 00-.896-.343zm5.311.042h-1.393V87h-.497v-3.241h-1.393v-.441h3.283v.441z" fill="#373943"/><path d="M104.722 100.426c0 .702-.26 1.3-.78 1.794-.511.485-1.257.78-2.236.884v1.456h-1.066v-1.443a7.256 7.256 0 01-1.82-.351c-.572-.191-1.027-.433-1.365-.728l.585-1.313c.32.26.71.481 1.17.663.46.173.936.282 1.43.325v-2.6a10.368 10.368 0 01-1.547-.481 2.77 2.77 0 01-1.027-.78c-.277-.347-.416-.802-.416-1.365 0-.702.256-1.3.767-1.794s1.252-.789 2.223-.884V92.34h1.066v1.443c.485.026.958.108 1.417.247.468.139.875.32 1.222.546l-.533 1.313a5.414 5.414 0 00-2.106-.702v2.626c.624.147 1.14.308 1.547.481.416.173.763.433 1.04.78.286.338.429.789.429 1.352zm-5.395-4.017c0 .286.113.516.338.689.225.173.55.32.975.442v-2.314c-.442.07-.771.208-.988.416a1.022 1.022 0 00-.325.767zm2.379 5.278c.459-.069.797-.204 1.014-.403a.95.95 0 00.338-.741.828.828 0 00-.351-.702c-.234-.182-.568-.334-1.001-.455v2.301zm10.781-7.787v9.1h-1.69v-7.683h-1.924V93.9h3.614zm4.951 0v9.1h-1.69v-7.683h-1.924V93.9h3.614zm8.544 0v9.1h-1.69v-7.683h-1.924V93.9h3.614zm5.601 9.23c-.728 0-1.378-.182-1.95-.546-.572-.373-1.023-.91-1.352-1.612-.329-.711-.494-1.551-.494-2.522 0-.97.165-1.807.494-2.509.329-.71.78-1.248 1.352-1.612.572-.373 1.222-.559 1.95-.559s1.378.186 1.95.559c.581.364 1.036.901 1.365 1.612.329.702.494 1.538.494 2.509 0 .97-.165 1.811-.494 2.522-.329.702-.784 1.239-1.365 1.612-.572.364-1.222.546-1.95.546zm0-1.469c.65 0 1.161-.269 1.534-.806.381-.537.572-1.339.572-2.405 0-1.066-.191-1.868-.572-2.405-.373-.537-.884-.806-1.534-.806-.641 0-1.153.269-1.534.806-.373.537-.559 1.339-.559 2.405 0 1.066.186 1.868.559 2.405.381.537.893.806 1.534.806zm11.751-7.761v1.131L139.798 103h-1.807l3.419-7.67h-3.575v1.547h-1.573V93.9h7.072zm1.412 9.191c-.295 0-.546-.1-.754-.299a1.058 1.058 0 01-.312-.78c0-.321.1-.581.299-.78.208-.199.464-.299.767-.299s.555.1.754.299c.208.199.312.459.312.78 0 .312-.104.572-.312.78a1.051 1.051 0 01-.754.299zm10.209-2.158h-1.612V103h-1.638v-2.067h-4.992v-1.17l4.485-5.863h1.807l-4.225 5.603h2.977V97.67h1.586v1.833h1.612v1.43zm7.264.637V103h-6.708v-1.131l3.614-3.432c.407-.39.68-.728.819-1.014.147-.295.221-.585.221-.871 0-.425-.143-.75-.429-.975-.286-.225-.707-.338-1.261-.338-.928 0-1.638.316-2.132.949l-1.183-.91c.355-.477.832-.845 1.43-1.105.606-.269 1.282-.403 2.028-.403.988 0 1.776.234 2.366.702.589.468.884 1.105.884 1.911 0 .494-.104.958-.312 1.391-.208.433-.607.927-1.196 1.482l-2.431 2.314h4.29z" fill="#3E54D8"/><path d="M171.9 92.054h1.456l-4.29 12.246h-1.456l4.29-12.246zm12.239 8.372c0 .702-.26 1.3-.78 1.794-.511.485-1.257.78-2.236.884v1.456h-1.066v-1.443a7.258 7.258 0 01-1.82-.351c-.572-.191-1.027-.433-1.365-.728l.585-1.313c.321.26.711.481 1.17.663.459.173.936.282 1.43.325v-2.6a10.368 10.368 0 01-1.547-.481 2.77 2.77 0 01-1.027-.78c-.277-.347-.416-.802-.416-1.365 0-.702.256-1.3.767-1.794s1.252-.789 2.223-.884V92.34h1.066v1.443c.485.026.958.108 1.417.247.468.139.875.32 1.222.546l-.533 1.313a5.414 5.414 0 00-2.106-.702v2.626c.624.147 1.14.308 1.547.481.416.173.763.433 1.04.78.286.338.429.789.429 1.352zm-5.395-4.017c0 .286.113.516.338.689.225.173.55.32.975.442v-2.314c-.442.07-.771.208-.988.416a1.02 1.02 0 00-.325.767zm2.379 5.278c.459-.069.797-.204 1.014-.403a.95.95 0 00.338-.741.828.828 0 00-.351-.702c-.234-.182-.568-.334-1.001-.455v2.301zm10.781-7.787v9.1h-1.69v-7.683h-1.924V93.9h3.614zm4.951 0v9.1h-1.69v-7.683h-1.924V93.9h3.614zm8.245 3.523c1.282 0 2.231.251 2.847.754.615.494.923 1.17.923 2.028 0 .546-.135 1.04-.403 1.482-.269.442-.672.793-1.209 1.053-.538.26-1.201.39-1.989.39-.65 0-1.279-.091-1.885-.273-.607-.191-1.118-.451-1.534-.78l.715-1.313a3.97 3.97 0 001.209.663c.476.156.966.234 1.469.234.598 0 1.066-.121 1.404-.364.346-.251.52-.594.52-1.027 0-.468-.187-.819-.559-1.053-.364-.243-.993-.364-1.885-.364h-2.197l.468-4.953h5.343v1.417h-3.913l-.195 2.106h.871zm8.54 5.707c-.728 0-1.378-.182-1.95-.546-.572-.373-1.022-.91-1.352-1.612-.329-.711-.494-1.551-.494-2.522 0-.97.165-1.807.494-2.509.33-.71.78-1.248 1.352-1.612.572-.373 1.222-.559 1.95-.559s1.378.186 1.95.559c.581.364 1.036.901 1.365 1.612.33.702.494 1.538.494 2.509 0 .97-.164 1.811-.494 2.522-.329.702-.784 1.239-1.365 1.612-.572.364-1.222.546-1.95.546zm0-1.469c.65 0 1.162-.269 1.534-.806.382-.537.572-1.339.572-2.405 0-1.066-.19-1.868-.572-2.405-.372-.537-.884-.806-1.534-.806-.641 0-1.152.269-1.534.806-.372.537-.559 1.339-.559 2.405 0 1.066.187 1.868.559 2.405.382.537.893.806 1.534.806zm8.748 1.469c-.728 0-1.378-.182-1.95-.546-.572-.373-1.023-.91-1.352-1.612-.33-.711-.494-1.551-.494-2.522 0-.97.164-1.807.494-2.509.329-.71.78-1.248 1.352-1.612.572-.373 1.222-.559 1.95-.559s1.378.186 1.95.559c.58.364 1.035.901 1.365 1.612.329.702.494 1.538.494 2.509 0 .97-.165 1.811-.494 2.522-.33.702-.785 1.239-1.365 1.612-.572.364-1.222.546-1.95.546zm0-1.469c.65 0 1.161-.269 1.534-.806.381-.537.572-1.339.572-2.405 0-1.066-.191-1.868-.572-2.405-.373-.537-.884-.806-1.534-.806-.642 0-1.153.269-1.534.806-.373.537-.559 1.339-.559 2.405 0 1.066.186 1.868.559 2.405.381.537.892.806 1.534.806z" fill="#98AACB"/><path d="M113.836 127.866h-2.45l-.483 1.134h-.938l2.205-4.9h.896l2.212 4.9h-.952l-.49-1.134zm-.301-.714l-.924-2.142-.917 2.142h1.841zm6.586-3.052l-2.135 4.9h-.896l-2.142-4.9h.987l1.631 3.78 1.645-3.78h.91zm3.809 2.394h.861v1.953a2.725 2.725 0 01-.882.462 3.398 3.398 0 01-1.036.161c-.5 0-.95-.107-1.351-.322a2.43 2.43 0 01-.945-.903 2.473 2.473 0 01-.343-1.295c0-.481.114-.912.343-1.295.228-.383.543-.681.945-.896a2.829 2.829 0 011.365-.329c.41 0 .784.068 1.12.203a2.2 2.2 0 01.847.595l-.574.56a1.844 1.844 0 00-1.351-.56c-.346 0-.654.072-.924.217a1.617 1.617 0 00-.63.609c-.15.261-.224.56-.224.896 0 .327.074.621.224.882.154.261.364.467.63.616.27.149.576.224.917.224.382 0 .718-.084 1.008-.252v-1.526zm4.35 2.576c-.499 0-.95-.107-1.351-.322a2.443 2.443 0 01-.945-.903 2.495 2.495 0 01-.343-1.295c0-.476.114-.905.343-1.288.229-.387.544-.688.945-.903a2.774 2.774 0 011.351-.329c.499 0 .95.11 1.351.329.401.215.716.513.945.896.229.383.343.814.343 1.295s-.114.912-.343 1.295a2.443 2.443 0 01-.945.903 2.815 2.815 0 01-1.351.322zm0-.798c.327 0 .621-.072.882-.217.261-.149.467-.355.616-.616.149-.266.224-.562.224-.889 0-.327-.075-.621-.224-.882a1.566 1.566 0 00-.616-.616 1.747 1.747 0 00-.882-.224c-.327 0-.621.075-.882.224-.261.145-.467.35-.616.616a1.747 1.747 0 00-.224.882c0 .327.075.623.224.889.149.261.355.467.616.616.261.145.555.217.882.217zm61.43.28V129h-3.437v-.357l2.037-1.995c.257-.252.429-.469.518-.651.093-.187.14-.373.14-.56 0-.289-.1-.513-.301-.672-.196-.163-.478-.245-.847-.245-.574 0-1.02.182-1.337.546l-.357-.308c.191-.224.434-.397.728-.518a2.666 2.666 0 011.008-.182c.499 0 .894.119 1.183.357.294.233.441.555.441.966 0 .252-.056.495-.168.728-.112.233-.324.502-.637.805l-1.666 1.638h2.695zm7.89-3.234V129h-5.082v-3.682h.497v3.248h1.806v-3.248h.497v3.248h1.785v-3.248h.497zm4.009.441h-1.393V129h-.497v-3.241h-1.393v-.441h3.283v.441zm.439 3.276a.36.36 0 01-.266-.112.386.386 0 01-.105-.273c0-.107.035-.196.105-.266a.36.36 0 01.266-.112c.102 0 .191.037.266.112.074.07.112.159.112.266a.375.375 0 01-.112.273.364.364 0 01-.266.112zm28.481-1.323h-.98V129h-.504v-1.288h-2.765v-.364l2.597-3.248h.56l-2.506 3.164h2.128v-1.134h.49v1.134h.98v.448zm3.572-3.612v.357L232.05 129h-.546l2.016-4.452H231v.917h-.497V124.1h3.598zm1.822 2.009c.71 0 1.225.128 1.547.385.327.252.49.607.49 1.064 0 .285-.067.539-.203.763-.13.224-.329.401-.595.532-.266.126-.592.189-.98.189-.35 0-.683-.056-1.001-.168a2.099 2.099 0 01-.756-.462l.245-.399c.164.168.378.306.644.413.266.103.553.154.861.154.406 0 .719-.091.938-.273a.89.89 0 00.336-.728c0-.336-.126-.59-.378-.763-.247-.173-.667-.259-1.26-.259h-1.043l.252-2.457h2.681v.448h-2.24l-.168 1.561h.63zm3.055 2.926a.364.364 0 01-.266-.112.386.386 0 01-.105-.273c0-.107.035-.196.105-.266a.364.364 0 01.266-.112.36.36 0 01.266.112c.075.07.112.159.112.266a.371.371 0 01-.112.273.36.36 0 01-.266.112zm2.632-4.977c.648 0 1.145.215 1.491.644.345.425.518 1.027.518 1.806 0 .546-.094 1.008-.28 1.386a1.985 1.985 0 01-.784.861c-.336.191-.728.287-1.176.287-.486 0-.873-.089-1.162-.266l.203-.406c.233.154.55.231.952.231.541 0 .966-.17 1.274-.511.308-.345.462-.845.462-1.498 0-.121-.007-.254-.021-.399a1.341 1.341 0 01-.581.623 1.886 1.886 0 01-.917.217c-.322 0-.609-.061-.861-.182a1.404 1.404 0 01-.581-.511 1.435 1.435 0 01-.21-.777 1.405 1.405 0 01.812-1.316c.256-.126.543-.189.861-.189zm.056 2.548c.247 0 .464-.047.651-.14.191-.093.34-.222.448-.385a.974.974 0 00.007-1.064 1.054 1.054 0 00-.441-.385 1.551 1.551 0 00-.7-.147c-.355 0-.644.098-.868.294-.22.191-.329.448-.329.77s.109.579.329.77c.224.191.525.287.903.287zm3.971-.497c.71 0 1.225.128 1.547.385.327.252.49.607.49 1.064 0 .285-.067.539-.203.763-.13.224-.329.401-.595.532-.266.126-.592.189-.98.189-.35 0-.683-.056-1.001-.168a2.099 2.099 0 01-.756-.462l.245-.399c.164.168.378.306.644.413.266.103.553.154.861.154.406 0 .719-.091.938-.273a.89.89 0 00.336-.728c0-.336-.126-.59-.378-.763-.247-.173-.667-.259-1.26-.259h-1.043l.252-2.457h2.681v.448h-2.24l-.168 1.561h.63zm29.521 1.505c0 .378-.14.7-.42.966-.275.261-.677.42-1.204.476v.784h-.574v-.777a3.896 3.896 0 01-.98-.189c-.308-.103-.553-.233-.735-.392l.315-.707c.173.14.383.259.63.357.247.093.504.152.77.175v-1.4a5.588 5.588 0 01-.833-.259 1.492 1.492 0 01-.553-.42c-.149-.187-.224-.432-.224-.735 0-.378.138-.7.413-.966.275-.266.674-.425 1.197-.476v-.791h.574v.777c.261.014.516.058.763.133.252.075.471.173.658.294l-.287.707a2.927 2.927 0 00-1.134-.378v1.414c.336.079.614.166.833.259.224.093.411.233.56.42.154.182.231.425.231.728zm-2.905-2.163c0 .154.061.278.182.371.121.093.296.173.525.238v-1.246c-.238.037-.415.112-.532.224a.55.55 0 00-.175.413zm1.281 2.842c.247-.037.429-.11.546-.217a.512.512 0 00.182-.399.445.445 0 00-.189-.378 1.569 1.569 0 00-.539-.245v1.239zm3.76-4.263c.672 0 1.192.21 1.561.63.373.42.56 1.022.56 1.806 0 .551-.1 1.022-.301 1.414a2.109 2.109 0 01-.847.889c-.359.201-.777.301-1.253.301a3.21 3.21 0 01-.714-.077 1.993 1.993 0 01-.574-.238l.336-.686c.243.159.553.238.931.238.471 0 .84-.145 1.106-.434.266-.289.399-.707.399-1.253v-.007a1.396 1.396 0 01-.553.385 2.14 2.14 0 01-.756.126c-.322 0-.611-.061-.868-.182a1.45 1.45 0 01-.602-.532 1.445 1.445 0 01-.217-.791c0-.317.079-.595.238-.833.159-.243.373-.429.644-.56.271-.131.574-.196.91-.196zm.07 2.38c.294 0 .532-.079.714-.238a.755.755 0 00.28-.602.736.736 0 00-.273-.588c-.177-.159-.425-.238-.742-.238-.285 0-.516.077-.693.231a.747.747 0 00-.266.602c0 .257.089.46.266.609.177.149.415.224.714.224zm4.2-.413c.69 0 1.201.135 1.533.406.331.266.497.63.497 1.092 0 .294-.073.56-.217.798a1.504 1.504 0 01-.651.567c-.29.14-.647.21-1.071.21a3.51 3.51 0 01-1.015-.147 2.556 2.556 0 01-.826-.42l.385-.707c.182.149.399.268.651.357.256.084.52.126.791.126.322 0 .574-.065.756-.196a.649.649 0 00.28-.553.627.627 0 00-.301-.567c-.196-.131-.535-.196-1.015-.196h-1.183l.252-2.667h2.877v.763H281.2l-.105 1.134h.469zm4.249-1.897v4.9h-.91v-4.137h-1.036v-.763h1.946zm1.518 4.949a.566.566 0 01-.406-.161.57.57 0 01-.168-.42c0-.173.053-.313.161-.42a.574.574 0 01.413-.161c.163 0 .298.054.406.161a.554.554 0 01.168.42.57.57 0 01-.168.42.568.568 0 01-.406.161zm2.815-5.019c.672 0 1.192.21 1.561.63.373.42.56 1.022.56 1.806 0 .551-.101 1.022-.301 1.414a2.109 2.109 0 01-.847.889c-.36.201-.777.301-1.253.301a3.21 3.21 0 01-.714-.077 1.981 1.981 0 01-.574-.238l.336-.686c.242.159.553.238.931.238.471 0 .84-.145 1.106-.434.266-.289.399-.707.399-1.253v-.007a1.396 1.396 0 01-.553.385 2.14 2.14 0 01-.756.126 2.01 2.01 0 01-.868-.182 1.444 1.444 0 01-.602-.532 1.445 1.445 0 01-.217-.791c0-.317.079-.595.238-.833a1.56 1.56 0 01.644-.56 2.06 2.06 0 01.91-.196zm.07 2.38c.294 0 .532-.079.714-.238a.758.758 0 00.28-.602.736.736 0 00-.273-.588c-.178-.159-.425-.238-.742-.238-.285 0-.516.077-.693.231a.744.744 0 00-.266.602c0 .257.088.46.266.609.177.149.415.224.714.224z" fill="#373943"/><path opacity=".4" d="M112.775 134.195c.23.05.407.15.53.3.127.147.19.337.19.57 0 .3-.112.532-.335.695-.22.16-.547.24-.98.24h-1.61v-3.5h1.51c.39 0 .692.078.905.235.217.157.325.378.325.665a.834.834 0 01-.145.495.846.846 0 01-.39.3zm-1.835-1.39v1.27h1.115c.283 0 .502-.053.655-.16a.55.55 0 00.23-.475.537.537 0 00-.23-.47c-.153-.11-.372-.165-.655-.165h-1.115zm1.235 2.89c.313 0 .55-.053.71-.16.16-.107.24-.273.24-.5 0-.437-.317-.655-.95-.655h-1.235v1.315h1.235zm2.43-1.81a.857.857 0 01.37-.4c.166-.09.371-.135.615-.135v.345l-.085-.005c-.277 0-.494.085-.65.255-.157.17-.235.408-.235.715V136h-.355v-2.63h.34v.515zm2.678 2.14c-.253 0-.482-.057-.685-.17a1.286 1.286 0 01-.48-.48 1.356 1.356 0 01-.175-.69c0-.257.058-.487.175-.69.117-.203.277-.362.48-.475.203-.113.432-.17.685-.17.253 0 .482.057.685.17.203.113.362.272.475.475.117.203.175.433.175.69 0 .257-.058.487-.175.69a1.245 1.245 0 01-.475.48c-.203.113-.432.17-.685.17zm0-.315a.998.998 0 00.5-.125.899.899 0 00.35-.365c.083-.157.125-.335.125-.535s-.042-.378-.125-.535a.862.862 0 00-.35-.36.96.96 0 00-.5-.13.987.987 0 00-.505.13.906.906 0 00-.35.36 1.126 1.126 0 00-.125.535c0 .2.042.378.125.535a.946.946 0 00.35.365c.15.083.318.125.505.125zm2.965-2.36c.343 0 .607.087.79.26.183.17.275.423.275.76V136h-.34v-.41a.81.81 0 01-.355.32 1.213 1.213 0 01-.55.115c-.293 0-.527-.07-.7-.21a.68.68 0 01-.26-.555c0-.223.08-.403.24-.54.163-.137.422-.205.775-.205h.835v-.16c0-.227-.063-.398-.19-.515-.127-.12-.312-.18-.555-.18-.167 0-.327.028-.48.085a1.168 1.168 0 00-.395.225l-.16-.265c.133-.113.293-.2.48-.26.187-.063.383-.095.59-.095zm-.125 2.395c.2 0 .372-.045.515-.135a.837.837 0 00.32-.4v-.43h-.825c-.45 0-.675.157-.675.47 0 .153.058.275.175.365.117.087.28.13.49.13zm4.564-3.455V136h-.34v-.52a1.073 1.073 0 01-.425.405c-.173.093-.37.14-.59.14-.247 0-.47-.057-.67-.17a1.213 1.213 0 01-.47-.475 1.406 1.406 0 01-.17-.695c0-.26.057-.492.17-.695.113-.203.27-.36.47-.47.2-.113.423-.17.67-.17.213 0 .405.045.575.135.173.087.315.215.425.385v-1.58h.355zm-1.325 3.42a.99.99 0 00.495-.125.899.899 0 00.35-.365c.087-.157.13-.335.13-.535s-.043-.378-.13-.535a.862.862 0 00-.35-.36.953.953 0 00-.495-.13.987.987 0 00-.505.13.906.906 0 00-.35.36 1.126 1.126 0 00-.125.535c0 .2.042.378.125.535a.946.946 0 00.35.365c.15.083.318.125.505.125zm3.404.315c-.26 0-.494-.057-.7-.17a1.231 1.231 0 01-.48-.475 1.385 1.385 0 01-.175-.695c0-.257.058-.487.175-.69.116-.203.276-.362.48-.475.206-.113.44-.17.7-.17.226 0 .428.045.605.135.18.087.321.215.425.385l-.265.18a.812.812 0 00-.33-.29.959.959 0 00-.435-.1c-.19 0-.362.043-.515.13a.892.892 0 00-.355.36 1.115 1.115 0 00-.125.535c0 .203.041.383.125.54a.944.944 0 00.355.36c.153.083.325.125.515.125.156 0 .301-.032.435-.095a.812.812 0 00.33-.29l.265.18c-.104.17-.245.3-.425.39-.18.087-.382.13-.605.13zm2.758 0c-.253 0-.482-.057-.685-.17a1.286 1.286 0 01-.48-.48 1.356 1.356 0 01-.175-.69c0-.257.058-.487.175-.69.117-.203.277-.362.48-.475.203-.113.432-.17.685-.17.253 0 .482.057.685.17.203.113.362.272.475.475.117.203.175.433.175.69 0 .257-.058.487-.175.69a1.245 1.245 0 01-.475.48c-.203.113-.432.17-.685.17zm0-.315a.998.998 0 00.5-.125.899.899 0 00.35-.365c.083-.157.125-.335.125-.535s-.042-.378-.125-.535a.862.862 0 00-.35-.36.96.96 0 00-.5-.13.987.987 0 00-.505.13.906.906 0 00-.35.36 1.126 1.126 0 00-.125.535c0 .2.042.378.125.535a.946.946 0 00.35.365c.15.083.318.125.505.125zm5.34-2.36c.33 0 .588.095.775.285.19.19.285.47.285.84V136h-.355v-1.49c0-.273-.067-.482-.2-.625-.13-.143-.315-.215-.555-.215-.273 0-.488.085-.645.255-.157.167-.235.398-.235.695V136h-.355v-1.49c0-.273-.067-.482-.2-.625-.13-.143-.317-.215-.56-.215-.27 0-.485.085-.645.255-.157.167-.235.398-.235.695V136h-.355v-2.63h.34v.48a.947.947 0 01.39-.37c.167-.087.358-.13.575-.13.22 0 .41.047.57.14a.859.859 0 01.365.415c.097-.173.235-.308.415-.405.183-.1.392-.15.625-.15zm3.406-.85h.37v3.5h-.37v-3.5zm2.774.85c.33 0 .592.097.785.29.197.19.295.468.295.835V136h-.355v-1.49c0-.273-.068-.482-.205-.625-.137-.143-.332-.215-.585-.215-.283 0-.508.085-.675.255-.163.167-.245.398-.245.695V136h-.355v-2.63h.34v.485a.979.979 0 01.4-.37c.173-.09.373-.135.6-.135zm3.144 2.675c-.26 0-.494-.057-.7-.17a1.231 1.231 0 01-.48-.475 1.385 1.385 0 01-.175-.695c0-.257.058-.487.175-.69.116-.203.276-.362.48-.475.206-.113.44-.17.7-.17.226 0 .428.045.605.135.18.087.321.215.425.385l-.265.18a.812.812 0 00-.33-.29.959.959 0 00-.435-.1c-.19 0-.362.043-.515.13a.892.892 0 00-.355.36 1.115 1.115 0 00-.125.535c0 .203.041.383.125.54a.944.944 0 00.355.36c.153.083.325.125.515.125.156 0 .301-.032.435-.095a.812.812 0 00.33-.29l.265.18c-.104.17-.245.3-.425.39-.18.087-.382.13-.605.13zm1.86 0a.26.26 0 01-.19-.08.273.273 0 01-.075-.195c0-.077.025-.14.075-.19a.26.26 0 01.19-.08c.073 0 .136.027.19.08a.25.25 0 01.08.19.266.266 0 01-.08.195.262.262 0 01-.19.08z" fill="#373943"/><rect x="97" y="123" width="7" height="7" rx="1" fill="#3E54D8"/><path stroke="#EAF1FE" stroke-width=".5" d="M97 144.75h196"/><path d="M114.13 157.452c.271.089.485.238.644.448.159.205.238.462.238.77 0 .425-.163.754-.49.987-.327.229-.803.343-1.428.343h-2.436v-4.9h2.296c.579 0 1.024.114 1.337.343.313.224.469.534.469.931 0 .243-.056.457-.168.644a1.15 1.15 0 01-.462.434zm-2.562-1.638v1.351h1.288c.317 0 .56-.056.728-.168a.571.571 0 00.259-.504c0-.224-.086-.392-.259-.504-.168-.117-.411-.175-.728-.175h-1.288zm1.47 3.472c.705 0 1.057-.236 1.057-.707s-.352-.707-1.057-.707h-1.47v1.414h1.47zm5.964.714l-1.33-1.862-1.316 1.862h-1.036l1.82-2.499-1.722-2.401h1.029l1.253 1.743 1.239-1.743h.987l-1.715 2.366 1.841 2.534h-1.05zm3.618-4.9c.425 0 .794.07 1.106.21.318.14.56.341.728.602.168.261.252.572.252.931 0 .355-.084.665-.252.931a1.61 1.61 0 01-.728.602c-.312.14-.681.21-1.106.21h-1.106V160h-.91v-4.9h2.016zm-.042 2.716c.397 0 .698-.084.903-.252.206-.168.308-.408.308-.721s-.102-.553-.308-.721c-.205-.168-.506-.252-.903-.252h-1.064v1.946h1.064zm65.144-2.716v4.9h-.504v-4.452h-1.155v-.448h1.659zm3.124 4.942c-.378 0-.716-.1-1.015-.301a2.013 2.013 0 01-.693-.861c-.163-.378-.245-.821-.245-1.33 0-.509.082-.95.245-1.323.168-.378.399-.667.693-.868a1.776 1.776 0 011.015-.301c.378 0 .714.1 1.008.301.299.201.532.49.7.868.168.373.252.814.252 1.323s-.084.952-.252 1.33a1.99 1.99 0 01-.7.861c-.294.201-.63.301-1.008.301zm0-.462c.285 0 .535-.079.749-.238.22-.159.39-.39.511-.693.122-.303.182-.67.182-1.099 0-.429-.06-.796-.182-1.099-.121-.303-.291-.534-.511-.693a1.222 1.222 0 00-.749-.238c-.284 0-.536.079-.756.238-.214.159-.382.39-.504.693-.121.303-.182.67-.182 1.099 0 .429.061.796.182 1.099.122.303.29.534.504.693.22.159.472.238.756.238zm9.939-3.262V160h-5.082v-3.682h.497v3.248h1.806v-3.248h.497v3.248h1.785v-3.248h.497zm4.009.441h-1.393V160h-.497v-3.241h-1.393v-.441h3.283v.441zm.439 3.276a.364.364 0 01-.266-.112.386.386 0 01-.105-.273c0-.107.035-.196.105-.266a.364.364 0 01.266-.112.36.36 0 01.266.112c.075.07.112.159.112.266a.371.371 0 01-.112.273.36.36 0 01-.266.112zm22.489-4.935v4.9h-.504v-4.452h-1.155v-.448h1.659zm3.124 4.942c-.378 0-.716-.1-1.015-.301a2.013 2.013 0 01-.693-.861c-.163-.378-.245-.821-.245-1.33 0-.509.082-.95.245-1.323.168-.378.399-.667.693-.868a1.776 1.776 0 011.015-.301c.378 0 .714.1 1.008.301.299.201.532.49.7.868.168.373.252.814.252 1.323s-.084.952-.252 1.33a1.99 1.99 0 01-.7.861c-.294.201-.63.301-1.008.301zm0-.462c.285 0 .535-.079.749-.238.22-.159.39-.39.511-.693.122-.303.182-.67.182-1.099 0-.429-.06-.796-.182-1.099-.121-.303-.291-.534-.511-.693a1.222 1.222 0 00-.749-.238c-.284 0-.536.079-.756.238-.214.159-.382.39-.504.693-.121.303-.182.67-.182 1.099 0 .429.061.796.182 1.099.122.303.29.534.504.693.22.159.472.238.756.238zm6.847-.868h-.98V160h-.504v-1.288h-2.765v-.364l2.597-3.248h.56l-2.506 3.164h2.128v-1.134h.49v1.134h.98v.448zm.978 1.323a.36.36 0 01-.266-.112.386.386 0 01-.105-.273c0-.107.035-.196.105-.266a.36.36 0 01.266-.112c.102 0 .191.037.266.112.074.07.112.159.112.266a.375.375 0 01-.112.273.364.364 0 01-.266.112zm2.983.007c-.378 0-.716-.1-1.015-.301a2.013 2.013 0 01-.693-.861c-.163-.378-.245-.821-.245-1.33 0-.509.082-.95.245-1.323.168-.378.399-.667.693-.868a1.776 1.776 0 011.015-.301c.378 0 .714.1 1.008.301.299.201.532.49.7.868.168.373.252.814.252 1.323s-.084.952-.252 1.33a1.99 1.99 0 01-.7.861c-.294.201-.63.301-1.008.301zm0-.462c.285 0 .534-.079.749-.238.219-.159.39-.39.511-.693.121-.303.182-.67.182-1.099 0-.429-.061-.796-.182-1.099a1.53 1.53 0 00-.511-.693 1.224 1.224 0 00-.749-.238c-.285 0-.537.079-.756.238-.215.159-.383.39-.504.693-.121.303-.182.67-.182 1.099 0 .429.061.796.182 1.099.121.303.289.534.504.693.219.159.471.238.756.238zm3.97-2.471c.709 0 1.225.128 1.547.385.326.252.49.607.49 1.064 0 .285-.068.539-.203.763a1.361 1.361 0 01-.595.532c-.266.126-.593.189-.98.189-.35 0-.684-.056-1.001-.168a2.082 2.082 0 01-.756-.462l.245-.399c.163.168.378.306.644.413.266.103.553.154.861.154.406 0 .718-.091.938-.273a.89.89 0 00.336-.728c0-.336-.126-.59-.378-.763-.248-.173-.668-.259-1.26-.259h-1.043l.252-2.457h2.681v.448h-2.24l-.168 1.561h.63zm24.534 1.505c0 .378-.14.7-.42.966-.275.261-.677.42-1.204.476v.784h-.574v-.777a3.896 3.896 0 01-.98-.189c-.308-.103-.553-.233-.735-.392l.315-.707c.173.14.383.259.63.357.247.093.504.152.77.175v-1.4a5.588 5.588 0 01-.833-.259 1.492 1.492 0 01-.553-.42c-.149-.187-.224-.432-.224-.735 0-.378.138-.7.413-.966.275-.266.674-.425 1.197-.476v-.791h.574v.777c.261.014.516.058.763.133.252.075.471.173.658.294l-.287.707a2.927 2.927 0 00-1.134-.378v1.414c.336.079.614.166.833.259.224.093.411.233.56.42.154.182.231.425.231.728zm-2.905-2.163c0 .154.061.278.182.371.121.093.296.173.525.238v-1.246c-.238.037-.415.112-.532.224a.55.55 0 00-.175.413zm1.281 2.842c.247-.037.429-.11.546-.217a.512.512 0 00.182-.399.445.445 0 00-.189-.378 1.569 1.569 0 00-.539-.245v1.239zm3.802-4.193v4.9h-.91v-4.137h-1.036v-.763h1.946zm3.016 4.97c-.392 0-.742-.098-1.05-.294a2.036 2.036 0 01-.728-.868c-.177-.383-.266-.835-.266-1.358 0-.523.089-.973.266-1.351.177-.383.42-.672.728-.868a1.878 1.878 0 011.05-.301c.392 0 .742.1 1.05.301.313.196.558.485.735.868.177.378.266.828.266 1.351s-.089.975-.266 1.358a2.016 2.016 0 01-.735.868 1.914 1.914 0 01-1.05.294zm0-.791c.35 0 .625-.145.826-.434.205-.289.308-.721.308-1.295s-.103-1.006-.308-1.295a.954.954 0 00-.826-.434.964.964 0 00-.826.434c-.201.289-.301.721-.301 1.295s.1 1.006.301 1.295a.964.964 0 00.826.434zm7.034-.392h-.868V160h-.882v-1.113h-2.688v-.63l2.415-3.157h.973l-2.275 3.017h1.603v-.987h.854v.987h.868v.77zm2.427 1.183c-.392 0-.742-.098-1.05-.294a2.036 2.036 0 01-.728-.868c-.177-.383-.266-.835-.266-1.358 0-.523.089-.973.266-1.351.177-.383.42-.672.728-.868a1.878 1.878 0 011.05-.301c.392 0 .742.1 1.05.301.313.196.558.485.735.868.177.378.266.828.266 1.351s-.089.975-.266 1.358a2.016 2.016 0 01-.735.868 1.914 1.914 0 01-1.05.294zm0-.791c.35 0 .625-.145.826-.434.205-.289.308-.721.308-1.295s-.103-1.006-.308-1.295a.954.954 0 00-.826-.434.964.964 0 00-.826.434c-.201.289-.301.721-.301 1.295s.1 1.006.301 1.295a.964.964 0 00.826.434zm3.13.77a.566.566 0 01-.406-.161.57.57 0 01-.168-.42c0-.173.054-.313.161-.42a.576.576 0 01.413-.161c.163 0 .299.054.406.161a.554.554 0 01.168.42.57.57 0 01-.168.42.566.566 0 01-.406.161zm2.696-3.052c.691 0 1.202.135 1.533.406.331.266.497.63.497 1.092 0 .294-.072.56-.217.798a1.504 1.504 0 01-.651.567c-.289.14-.646.21-1.071.21-.35 0-.688-.049-1.015-.147a2.556 2.556 0 01-.826-.42l.385-.707c.182.149.399.268.651.357.257.084.52.126.791.126.322 0 .574-.065.756-.196a.646.646 0 00.28-.553c0-.252-.1-.441-.301-.567-.196-.131-.534-.196-1.015-.196h-1.183l.252-2.667h2.877v.763h-2.107l-.105 1.134h.469z" fill="#373943"/><path opacity=".4" d="M111.655 165.355l-.715.725v.92h-.37v-3.5h.37v2.115l2.055-2.115h.425l-1.515 1.585 1.62 1.915h-.44l-1.43-1.645zm2.47-1.855h.37v3.18h1.96v.32h-2.33v-3.5zm5.149 2.565h-1.95l-.42.935h-.385l1.6-3.5h.365l1.6 3.5h-.39l-.42-.935zm-.135-.3l-.84-1.88-.84 1.88h1.68zm1.181-.275h1.31v.31h-1.31v-.31zm2.698-1.67h-1.23v-.32h2.83v.32h-1.23V167h-.37v-3.18zm4.132 1.975h-2.2a.95.95 0 00.315.665c.19.167.43.25.72.25.164 0 .314-.028.45-.085a1.01 1.01 0 00.355-.26l.2.23c-.116.14-.263.247-.44.32-.173.073-.365.11-.575.11-.27 0-.51-.057-.72-.17a1.278 1.278 0 01-.485-.48 1.366 1.366 0 01-.175-.69c0-.257.055-.487.165-.69.114-.203.267-.362.46-.475.197-.113.417-.17.66-.17.244 0 .462.057.655.17.194.113.345.272.455.475.11.2.165.43.165.69l-.005.11zm-1.27-1.14a.901.901 0 00-.64.245.951.951 0 00-.29.63h1.865a.933.933 0 00-.295-.63.888.888 0 00-.64-.245zm3.338-.305c.33 0 .591.097.785.29.196.19.295.468.295.835V167h-.355v-1.49c0-.273-.069-.482-.205-.625-.137-.143-.332-.215-.585-.215-.284 0-.509.085-.675.255-.164.167-.245.398-.245.695V167h-.355v-2.63h.34v.485a.973.973 0 01.4-.37c.173-.09.373-.135.6-.135zm3.143 2.675c-.26 0-.493-.057-.7-.17a1.245 1.245 0 01-.48-.475 1.396 1.396 0 01-.175-.695c0-.257.059-.487.175-.69.117-.203.277-.362.48-.475.207-.113.44-.17.7-.17.227 0 .429.045.605.135a.99.99 0 01.425.385l-.265.18a.8.8 0 00-.33-.29.953.953 0 00-.435-.1c-.19 0-.361.043-.515.13a.898.898 0 00-.355.36 1.126 1.126 0 00-.125.535c0 .203.042.383.125.54a.951.951 0 00.355.36c.154.083.325.125.515.125.157 0 .302-.032.435-.095a.8.8 0 00.33-.29l.265.18c-.103.17-.245.3-.425.39a1.37 1.37 0 01-.605.13zm2.759 0c-.254 0-.482-.057-.685-.17a1.271 1.271 0 01-.48-.48 1.356 1.356 0 01-.175-.69c0-.257.058-.487.175-.69.116-.203.276-.362.48-.475.203-.113.431-.17.685-.17.253 0 .481.057.685.17.203.113.361.272.475.475.116.203.175.433.175.69 0 .257-.059.487-.175.69a1.252 1.252 0 01-.475.48c-.204.113-.432.17-.685.17zm0-.315a1 1 0 00.5-.125.905.905 0 00.35-.365c.083-.157.125-.335.125-.535s-.042-.378-.125-.535a.868.868 0 00-.35-.36.963.963 0 00-.5-.13.987.987 0 00-.505.13.9.9 0 00-.35.36 1.115 1.115 0 00-.125.535c0 .2.041.378.125.535a.939.939 0 00.35.365c.15.083.318.125.505.125zm2.4-1.825a.857.857 0 01.37-.4c.166-.09.371-.135.615-.135v.345l-.085-.005c-.277 0-.494.085-.65.255-.157.17-.235.408-.235.715V167h-.355v-2.63h.34v.515zm4.57 2.145c-.347 0-.66-.077-.94-.23a1.708 1.708 0 01-.655-.635 1.802 1.802 0 01-.235-.915c0-.337.078-.64.235-.91.16-.273.38-.487.66-.64.28-.153.593-.23.94-.23.26 0 .5.043.72.13.22.087.407.213.56.38l-.235.235c-.273-.277-.618-.415-1.035-.415-.277 0-.528.063-.755.19-.227.127-.405.3-.535.52-.127.22-.19.467-.19.74 0 .273.063.52.19.74.13.22.308.393.535.52.227.127.478.19.755.19.42 0 .765-.14 1.035-.42l.235.235a1.531 1.531 0 01-.565.385c-.22.087-.46.13-.72.13zm2.957-.005c-.254 0-.482-.057-.685-.17a1.271 1.271 0 01-.48-.48 1.356 1.356 0 01-.175-.69c0-.257.058-.487.175-.69.116-.203.276-.362.48-.475.203-.113.431-.17.685-.17.253 0 .481.057.685.17.203.113.361.272.475.475.116.203.175.433.175.69 0 .257-.059.487-.175.69a1.252 1.252 0 01-.475.48c-.204.113-.432.17-.685.17zm0-.315a1 1 0 00.5-.125.905.905 0 00.35-.365c.083-.157.125-.335.125-.535s-.042-.378-.125-.535a.868.868 0 00-.35-.36.963.963 0 00-.5-.13.987.987 0 00-.505.13.9.9 0 00-.35.36 1.115 1.115 0 00-.125.535c0 .2.041.378.125.535a.939.939 0 00.35.365c.15.083.318.125.505.125zm2.399-1.825a.867.867 0 01.37-.4c.167-.09.372-.135.615-.135v.345l-.085-.005c-.276 0-.493.085-.65.255-.156.17-.235.408-.235.715V167h-.355v-2.63h.34v.515zm2.983-.535c.247 0 .47.057.67.17.2.11.357.267.47.47.113.203.17.435.17.695 0 .263-.057.497-.17.7-.113.203-.27.362-.47.475a1.35 1.35 0 01-.67.165c-.213 0-.407-.043-.58-.13a1.12 1.12 0 01-.42-.39v1.465h-.355v-3.6h.34v.52c.107-.173.247-.307.42-.4.177-.093.375-.14.595-.14zm-.025 2.36c.183 0 .35-.042.5-.125a.899.899 0 00.35-.365c.087-.157.13-.335.13-.535s-.043-.377-.13-.53a.899.899 0 00-.35-.365.979.979 0 00-.5-.13.987.987 0 00-.505.13.946.946 0 00-.35.365c-.083.153-.125.33-.125.53s.042.378.125.535a.946.946 0 00.35.365c.15.083.318.125.505.125zm3.134.315c-.254 0-.482-.057-.685-.17a1.271 1.271 0 01-.48-.48 1.356 1.356 0 01-.175-.69c0-.257.058-.487.175-.69.116-.203.276-.362.48-.475.203-.113.431-.17.685-.17.253 0 .481.057.685.17.203.113.361.272.475.475.116.203.175.433.175.69 0 .257-.059.487-.175.69a1.252 1.252 0 01-.475.48c-.204.113-.432.17-.685.17zm0-.315a1 1 0 00.5-.125.905.905 0 00.35-.365c.083-.157.125-.335.125-.535s-.042-.378-.125-.535a.868.868 0 00-.35-.36.963.963 0 00-.5-.13.987.987 0 00-.505.13.9.9 0 00-.35.36 1.115 1.115 0 00-.125.535c0 .2.041.378.125.535a.939.939 0 00.35.365c.15.083.318.125.505.125zm2.4-1.825a.857.857 0 01.37-.4c.166-.09.371-.135.615-.135v.345l-.085-.005c-.277 0-.494.085-.65.255-.157.17-.235.408-.235.715V167h-.355v-2.63h.34v.515zm2.542-.535c.344 0 .607.087.79.26.184.17.275.423.275.76V167h-.34v-.41a.81.81 0 01-.355.32 1.21 1.21 0 01-.55.115c-.293 0-.526-.07-.7-.21a.68.68 0 01-.26-.555c0-.223.08-.403.24-.54.164-.137.422-.205.775-.205h.835v-.16c0-.227-.063-.398-.19-.515-.126-.12-.311-.18-.555-.18-.166 0-.326.028-.48.085a1.168 1.168 0 00-.395.225l-.16-.265c.134-.113.294-.2.48-.26.187-.063.384-.095.59-.095zm-.125 2.395c.2 0 .372-.045.515-.135a.831.831 0 00.32-.4v-.43h-.825c-.45 0-.675.157-.675.47 0 .153.059.275.175.365.117.087.28.13.49.13zm3.54.095a.696.696 0 01-.25.14c-.097.03-.199.045-.305.045-.247 0-.437-.067-.57-.2-.134-.133-.2-.322-.2-.565v-1.59h-.47v-.3h.47v-.575h.355v.575h.8v.3h-.8v1.57c0 .157.038.277.115.36.08.08.193.12.34.12a.643.643 0 00.21-.035.524.524 0 00.18-.1l.125.255zm.646-2.47h.355V167h-.355v-2.63zm.18-.575a.252.252 0 01-.185-.075.245.245 0 010-.355.252.252 0 01.185-.075c.073 0 .135.025.185.075.05.047.075.103.075.17a.252.252 0 01-.075.185.252.252 0 01-.185.075zm2.238 3.23c-.254 0-.482-.057-.685-.17a1.271 1.271 0 01-.48-.48 1.356 1.356 0 01-.175-.69c0-.257.058-.487.175-.69.116-.203.276-.362.48-.475.203-.113.431-.17.685-.17.253 0 .481.057.685.17.203.113.361.272.475.475.116.203.175.433.175.69 0 .257-.059.487-.175.69a1.252 1.252 0 01-.475.48c-.204.113-.432.17-.685.17zm0-.315a1 1 0 00.5-.125.905.905 0 00.35-.365c.083-.157.125-.335.125-.535s-.042-.378-.125-.535a.868.868 0 00-.35-.36.963.963 0 00-.5-.13.987.987 0 00-.505.13.9.9 0 00-.35.36 1.115 1.115 0 00-.125.535c0 .2.041.378.125.535a.939.939 0 00.35.365c.15.083.318.125.505.125zm3.399-2.36c.33 0 .592.097.785.29.197.19.295.468.295.835V167h-.355v-1.49c0-.273-.068-.482-.205-.625-.136-.143-.331-.215-.585-.215-.283 0-.508.085-.675.255-.163.167-.245.398-.245.695V167h-.355v-2.63h.34v.485a.979.979 0 01.4-.37c.174-.09.374-.135.6-.135z" fill="#373943"/><rect x="97" y="154" width="7" height="7" rx="1" fill="#3E54D8"/><path stroke="#EAF1FE" stroke-width=".5" d="M97 175.75h196"/><path d="M115.012 186.1v4.9h-.91v-2.1h-2.534v2.1h-.91v-4.9h.91v2.023h2.534V186.1h.91zm4.519 4.9l-1.001-1.435a1.771 1.771 0 01-.189.007h-1.106V191h-.91v-4.9h2.016c.425 0 .793.07 1.106.21.317.14.56.341.728.602.168.261.252.572.252.931 0 .369-.091.686-.273.952a1.584 1.584 0 01-.77.595l1.127 1.61h-.98zm-.021-3.157c0-.313-.103-.553-.308-.721-.205-.168-.506-.252-.903-.252h-1.064v1.953h1.064c.397 0 .698-.084.903-.252.205-.173.308-.415.308-.728zm1.935-1.743h.91v4.13h2.562v.77h-3.472v-4.9zm68.265 4.452V191h-3.437v-.357l2.037-1.995c.257-.252.429-.469.518-.651.093-.187.14-.373.14-.56 0-.289-.1-.513-.301-.672-.196-.163-.478-.245-.847-.245-.574 0-1.02.182-1.337.546l-.357-.308c.191-.224.434-.397.728-.518a2.666 2.666 0 011.008-.182c.499 0 .894.119 1.183.357.294.233.441.555.441.966 0 .252-.056.495-.168.728-.112.233-.324.502-.637.805l-1.666 1.638h2.695zm7.89-3.234V191h-5.082v-3.682h.497v3.248h1.806v-3.248h.497v3.248h1.785v-3.248h.497zm4.009.441h-1.393V191h-.497v-3.241h-1.393v-.441h3.283v.441zm.439 3.276a.36.36 0 01-.266-.112.386.386 0 01-.105-.273c0-.107.035-.196.105-.266a.36.36 0 01.266-.112c.102 0 .191.037.266.112.074.07.112.159.112.266a.375.375 0 01-.112.273.364.364 0 01-.266.112zm25.982-2.835c.513.028.903.168 1.169.42.271.247.406.572.406.973 0 .28-.068.53-.203.749a1.388 1.388 0 01-.602.511c-.266.126-.59.189-.973.189-.355 0-.691-.056-1.008-.168a2.082 2.082 0 01-.756-.462l.245-.399c.163.168.38.306.651.413.271.103.56.154.868.154.401 0 .712-.086.931-.259.219-.177.329-.42.329-.728 0-.303-.11-.541-.329-.714-.219-.173-.551-.259-.994-.259h-.35v-.371l1.358-1.701h-2.506v-.448h3.15v.357l-1.386 1.743zm6.45 1.512h-.98V191h-.504v-1.288h-2.765v-.364l2.597-3.248h.56l-2.506 3.164h2.128v-1.134h.49v1.134h.98v.448zm3.572-3.612v.357L236.001 191h-.546l2.016-4.452h-2.52v.917h-.497V186.1h3.598zm.673 4.935a.364.364 0 01-.266-.112.386.386 0 01-.105-.273c0-.107.035-.196.105-.266a.364.364 0 01.266-.112.36.36 0 01.266.112c.075.07.112.159.112.266a.371.371 0 01-.112.273.36.36 0 01-.266.112zm2.394-2.926c.709 0 1.225.128 1.547.385.326.252.49.607.49 1.064 0 .285-.068.539-.203.763a1.361 1.361 0 01-.595.532c-.266.126-.593.189-.98.189-.35 0-.684-.056-1.001-.168a2.082 2.082 0 01-.756-.462l.245-.399c.163.168.378.306.644.413.266.103.553.154.861.154.406 0 .718-.091.938-.273a.89.89 0 00.336-.728c0-.336-.126-.59-.378-.763-.248-.173-.668-.259-1.26-.259h-1.043l.252-2.457h2.681v.448h-2.24l-.168 1.561h.63zm4.035-2.009v4.9h-.504v-4.452h-1.155v-.448h1.659zm34.004 3.514c0 .378-.14.7-.42.966-.275.261-.677.42-1.204.476v.784h-.574v-.777a3.896 3.896 0 01-.98-.189c-.308-.103-.553-.233-.735-.392l.315-.707c.173.14.383.259.63.357.247.093.504.152.77.175v-1.4a5.588 5.588 0 01-.833-.259 1.492 1.492 0 01-.553-.42c-.149-.187-.224-.432-.224-.735 0-.378.138-.7.413-.966.275-.266.674-.425 1.197-.476v-.791h.574v.777c.261.014.516.058.763.133.252.075.471.173.658.294l-.287.707a2.927 2.927 0 00-1.134-.378v1.414c.336.079.614.166.833.259.224.093.411.233.56.42.154.182.231.425.231.728zm-2.905-2.163c0 .154.061.278.182.371.121.093.296.173.525.238v-1.246c-.238.037-.415.112-.532.224a.55.55 0 00-.175.413zm1.281 2.842c.247-.037.429-.11.546-.217a.512.512 0 00.182-.399.445.445 0 00-.189-.378 1.569 1.569 0 00-.539-.245v1.239zm5.725-.063v.77h-3.612v-.609l1.946-1.848c.22-.21.367-.392.441-.546.08-.159.119-.315.119-.469 0-.229-.077-.404-.231-.525-.154-.121-.38-.182-.679-.182-.499 0-.882.17-1.148.511l-.637-.49c.192-.257.448-.455.77-.595a2.665 2.665 0 011.092-.217c.532 0 .957.126 1.274.378.318.252.476.595.476 1.029 0 .266-.056.516-.168.749-.112.233-.326.499-.644.798l-1.309 1.246h2.31zm2.612-2.107c.452.056.798.21 1.036.462s.357.567.357.945c0 .285-.073.544-.217.777-.145.233-.364.42-.658.56-.29.135-.644.203-1.064.203a3.51 3.51 0 01-1.015-.147 2.652 2.652 0 01-.826-.42l.392-.707c.177.149.392.268.644.357.256.084.52.126.791.126.322 0 .574-.065.756-.196a.641.641 0 00.28-.546.615.615 0 00-.266-.532c-.173-.131-.439-.196-.798-.196h-.448v-.623l1.113-1.323h-2.226v-.763h3.339v.609l-1.19 1.414zm5.166.301c.256.117.452.275.588.476.14.196.21.427.21.693 0 .299-.084.56-.252.784a1.556 1.556 0 01-.7.518 2.931 2.931 0 01-1.057.175c-.402 0-.754-.058-1.057-.175a1.55 1.55 0 01-.693-.518 1.29 1.29 0 01-.245-.784c0-.266.067-.497.203-.693.135-.201.329-.359.581-.476a1.194 1.194 0 01-.455-.42 1.188 1.188 0 01-.154-.609c0-.275.074-.516.224-.721.154-.205.368-.364.644-.476.275-.112.592-.168.952-.168.364 0 .683.056.959.168.275.112.49.271.644.476.154.205.231.446.231.721 0 .229-.054.429-.161.602a1.25 1.25 0 01-.462.427zm-1.211-1.68c-.285 0-.511.061-.679.182a.598.598 0 00-.245.511c0 .21.081.378.245.504.168.121.394.182.679.182.289 0 .518-.061.686-.182a.599.599 0 00.252-.504.59.59 0 00-.259-.511c-.168-.121-.395-.182-.679-.182zm0 3.612c.336 0 .602-.07.798-.21a.675.675 0 00.294-.581.668.668 0 00-.294-.574c-.196-.14-.462-.21-.798-.21s-.6.07-.791.21a.671.671 0 00-.287.574c0 .247.095.441.287.581.191.14.455.21.791.21z" fill="#373943"/><path opacity=".4" d="M113.495 194.5v3.5h-.365v-1.615h-2.19V198h-.37v-3.5h.37v1.56h2.19v-1.56h.365zm2.142 3.525c-.253 0-.481-.057-.685-.17a1.286 1.286 0 01-.48-.48 1.366 1.366 0 01-.175-.69c0-.257.059-.487.175-.69.117-.203.277-.362.48-.475.204-.113.432-.17.685-.17.254 0 .482.057.685.17a1.2 1.2 0 01.475.475c.117.203.175.433.175.69 0 .257-.058.487-.175.69a1.238 1.238 0 01-.475.48c-.203.113-.431.17-.685.17zm0-.315a.995.995 0 00.5-.125.899.899 0 00.35-.365c.084-.157.125-.335.125-.535s-.041-.378-.125-.535a.862.862 0 00-.35-.36.958.958 0 00-.5-.13.99.99 0 00-.505.13.912.912 0 00-.35.36 1.126 1.126 0 00-.125.535c0 .2.042.378.125.535a.953.953 0 00.35.365c.15.083.319.125.505.125zm2.4-1.825a.862.862 0 01.37-.4c.167-.09.372-.135.615-.135v.345l-.085-.005c-.277 0-.493.085-.65.255-.157.17-.235.408-.235.715V198h-.355v-2.63h.34v.515zm4.908-.535c.33 0 .588.095.775.285.19.19.285.47.285.84V198h-.355v-1.49c0-.273-.067-.482-.2-.625-.13-.143-.315-.215-.555-.215-.273 0-.488.085-.645.255-.157.167-.235.398-.235.695V198h-.355v-1.49c0-.273-.067-.482-.2-.625-.13-.143-.317-.215-.56-.215-.27 0-.485.085-.645.255-.157.167-.235.398-.235.695V198h-.355v-2.63h.34v.48a.947.947 0 01.39-.37c.167-.087.358-.13.575-.13.22 0 .41.047.57.14a.859.859 0 01.365.415c.097-.173.235-.308.415-.405.183-.1.392-.15.625-.15zm4.322 1.445h-2.2a.95.95 0 00.315.665c.19.167.43.25.72.25.164 0 .314-.028.45-.085a1.01 1.01 0 00.355-.26l.2.23c-.116.14-.263.247-.44.32-.173.073-.365.11-.575.11-.27 0-.51-.057-.72-.17a1.278 1.278 0 01-.485-.48 1.366 1.366 0 01-.175-.69c0-.257.055-.487.165-.69.114-.203.267-.362.46-.475.197-.113.417-.17.66-.17.244 0 .462.057.655.17.194.113.345.272.455.475.11.2.165.43.165.69l-.005.11zm-1.27-1.14a.901.901 0 00-.64.245.951.951 0 00-.29.63h1.865a.933.933 0 00-.295-.63.888.888 0 00-.64-.245zm1.998-1.365h.355V198h-.355v-3.71zm3.096.53v1.375h1.81v.32h-1.81V198h-.37v-3.5h2.4v.32h-2.03zm3.707 3.205c-.254 0-.482-.057-.685-.17a1.271 1.271 0 01-.48-.48 1.356 1.356 0 01-.175-.69c0-.257.058-.487.175-.69.116-.203.276-.362.48-.475.203-.113.431-.17.685-.17.253 0 .481.057.685.17.203.113.361.272.475.475.116.203.175.433.175.69 0 .257-.059.487-.175.69a1.252 1.252 0 01-.475.48c-.204.113-.432.17-.685.17zm0-.315a1 1 0 00.5-.125.905.905 0 00.35-.365c.083-.157.125-.335.125-.535s-.042-.378-.125-.535a.868.868 0 00-.35-.36.963.963 0 00-.5-.13.987.987 0 00-.505.13.9.9 0 00-.35.36 1.115 1.115 0 00-.125.535c0 .2.041.378.125.535a.939.939 0 00.35.365c.15.083.318.125.505.125zm3.134.315c-.253 0-.481-.057-.685-.17a1.286 1.286 0 01-.48-.48 1.366 1.366 0 01-.175-.69c0-.257.059-.487.175-.69.117-.203.277-.362.48-.475.204-.113.432-.17.685-.17.254 0 .482.057.685.17a1.2 1.2 0 01.475.475c.117.203.175.433.175.69 0 .257-.058.487-.175.69a1.238 1.238 0 01-.475.48c-.203.113-.431.17-.685.17zm0-.315a.995.995 0 00.5-.125.899.899 0 00.35-.365c.084-.157.125-.335.125-.535s-.041-.378-.125-.535a.862.862 0 00-.35-.36.958.958 0 00-.5-.13.99.99 0 00-.505.13.912.912 0 00-.35.36 1.126 1.126 0 00-.125.535c0 .2.042.378.125.535a.953.953 0 00.35.365c.15.083.319.125.505.125zm4.46-3.42V198h-.34v-.52a1.073 1.073 0 01-.425.405c-.173.093-.37.14-.59.14-.247 0-.47-.057-.67-.17a1.213 1.213 0 01-.47-.475 1.406 1.406 0 01-.17-.695c0-.26.057-.492.17-.695.113-.203.27-.36.47-.47.2-.113.423-.17.67-.17.213 0 .405.045.575.135.173.087.315.215.425.385v-1.58h.355zm-1.325 3.42a.99.99 0 00.495-.125.899.899 0 00.35-.365c.087-.157.13-.335.13-.535s-.043-.378-.13-.535a.862.862 0 00-.35-.36.953.953 0 00-.495-.13.987.987 0 00-.505.13.906.906 0 00-.35.36 1.126 1.126 0 00-.125.535c0 .2.042.378.125.535a.946.946 0 00.35.365c.15.083.318.125.505.125zm3.019.315a2.09 2.09 0 01-.615-.09 1.342 1.342 0 01-.455-.235l.16-.28c.11.087.248.158.415.215.166.053.34.08.52.08.24 0 .416-.037.53-.11a.364.364 0 00.175-.32.278.278 0 00-.095-.225.597.597 0 00-.24-.125 3.1 3.1 0 00-.385-.085 4.828 4.828 0 01-.515-.12.79.79 0 01-.335-.215c-.09-.1-.135-.238-.135-.415 0-.22.091-.4.275-.54.183-.14.438-.21.765-.21.17 0 .34.023.51.07.17.043.31.102.42.175l-.155.285a1.328 1.328 0 00-.775-.225c-.227 0-.399.04-.515.12a.367.367 0 00-.17.315c0 .1.031.18.095.24a.64.64 0 00.245.135 4.4 4.4 0 00.4.085c.21.04.378.08.505.12.126.04.235.108.325.205.09.097.135.23.135.4 0 .23-.097.413-.29.55-.19.133-.455.2-.795.2zm4.645.005c-.347 0-.66-.077-.94-.23a1.708 1.708 0 01-.655-.635 1.802 1.802 0 01-.235-.915c0-.337.078-.64.235-.91.16-.273.38-.487.66-.64.28-.153.593-.23.94-.23.26 0 .5.043.72.13.22.087.406.213.56.38l-.235.235c-.274-.277-.619-.415-1.035-.415-.277 0-.529.063-.755.19-.227.127-.405.3-.535.52-.127.22-.19.467-.19.74 0 .273.063.52.19.74.13.22.308.393.535.52.226.127.478.19.755.19.42 0 .765-.14 1.035-.42l.235.235a1.54 1.54 0 01-.565.385c-.22.087-.46.13-.72.13zm2.956-.005c-.253 0-.481-.057-.685-.17a1.286 1.286 0 01-.48-.48 1.366 1.366 0 01-.175-.69c0-.257.059-.487.175-.69.117-.203.277-.362.48-.475.204-.113.432-.17.685-.17.254 0 .482.057.685.17a1.2 1.2 0 01.475.475c.117.203.175.433.175.69 0 .257-.058.487-.175.69a1.238 1.238 0 01-.475.48c-.203.113-.431.17-.685.17zm0-.315a.995.995 0 00.5-.125.899.899 0 00.35-.365c.084-.157.125-.335.125-.535s-.041-.378-.125-.535a.862.862 0 00-.35-.36.958.958 0 00-.5-.13.99.99 0 00-.505.13.912.912 0 00-.35.36 1.126 1.126 0 00-.125.535c0 .2.042.378.125.535a.953.953 0 00.35.365c.15.083.319.125.505.125zm2.4-1.825a.862.862 0 01.37-.4c.167-.09.372-.135.615-.135v.345l-.085-.005c-.277 0-.493.085-.65.255-.157.17-.235.408-.235.715V198h-.355v-2.63h.34v.515zm2.983-.535c.246 0 .47.057.67.17.2.11.356.267.47.47.113.203.17.435.17.695 0 .263-.057.497-.17.7a1.22 1.22 0 01-.47.475 1.35 1.35 0 01-.67.165c-.214 0-.407-.043-.58-.13a1.12 1.12 0 01-.42-.39v1.465h-.355v-3.6h.34v.52a1.09 1.09 0 01.42-.4c.176-.093.375-.14.595-.14zm-.025 2.36c.183 0 .35-.042.5-.125a.905.905 0 00.35-.365c.086-.157.13-.335.13-.535s-.044-.377-.13-.53a.905.905 0 00-.35-.365.979.979 0 00-.5-.13.939.939 0 00-.855.495c-.084.153-.125.33-.125.53s.041.378.125.535a.939.939 0 00.35.365c.15.083.318.125.505.125zm3.133.315c-.253 0-.481-.057-.685-.17a1.286 1.286 0 01-.48-.48 1.366 1.366 0 01-.175-.69c0-.257.059-.487.175-.69.117-.203.277-.362.48-.475.204-.113.432-.17.685-.17.254 0 .482.057.685.17a1.2 1.2 0 01.475.475c.117.203.175.433.175.69 0 .257-.058.487-.175.69a1.238 1.238 0 01-.475.48c-.203.113-.431.17-.685.17zm0-.315a.995.995 0 00.5-.125.899.899 0 00.35-.365c.084-.157.125-.335.125-.535s-.041-.378-.125-.535a.862.862 0 00-.35-.36.958.958 0 00-.5-.13.99.99 0 00-.505.13.912.912 0 00-.35.36 1.126 1.126 0 00-.125.535c0 .2.042.378.125.535a.953.953 0 00.35.365c.15.083.319.125.505.125zm2.4-1.825a.862.862 0 01.37-.4c.167-.09.372-.135.615-.135v.345l-.085-.005c-.277 0-.493.085-.65.255-.157.17-.235.408-.235.715V198h-.355v-2.63h.34v.515zm2.543-.535c.343 0 .607.087.79.26.183.17.275.423.275.76V198h-.34v-.41a.81.81 0 01-.355.32 1.213 1.213 0 01-.55.115c-.293 0-.527-.07-.7-.21a.68.68 0 01-.26-.555c0-.223.08-.403.24-.54.163-.137.422-.205.775-.205h.835v-.16c0-.227-.063-.398-.19-.515-.127-.12-.312-.18-.555-.18-.167 0-.327.028-.48.085a1.168 1.168 0 00-.395.225l-.16-.265c.133-.113.293-.2.48-.26.187-.063.383-.095.59-.095zm-.125 2.395c.2 0 .372-.045.515-.135a.837.837 0 00.32-.4v-.43h-.825c-.45 0-.675.157-.675.47 0 .153.058.275.175.365.117.087.28.13.49.13zm3.539.095a.688.688 0 01-.25.14c-.096.03-.198.045-.305.045-.246 0-.436-.067-.57-.2-.133-.133-.2-.322-.2-.565v-1.59h-.47v-.3h.47v-.575h.355v.575h.8v.3h-.8v1.57c0 .157.039.277.115.36.08.08.194.12.34.12a.634.634 0 00.39-.135l.125.255zm.647-2.47h.355V198h-.355v-2.63zm.18-.575a.25.25 0 01-.185-.075.245.245 0 010-.355.25.25 0 01.185-.075c.073 0 .135.025.185.075.05.047.075.103.075.17a.252.252 0 01-.075.185.252.252 0 01-.185.075zm2.237 3.23c-.253 0-.481-.057-.685-.17a1.286 1.286 0 01-.48-.48 1.366 1.366 0 01-.175-.69c0-.257.059-.487.175-.69.117-.203.277-.362.48-.475.204-.113.432-.17.685-.17.254 0 .482.057.685.17a1.2 1.2 0 01.475.475c.117.203.175.433.175.69 0 .257-.058.487-.175.69a1.238 1.238 0 01-.475.48c-.203.113-.431.17-.685.17zm0-.315a.995.995 0 00.5-.125.899.899 0 00.35-.365c.084-.157.125-.335.125-.535s-.041-.378-.125-.535a.862.862 0 00-.35-.36.958.958 0 00-.5-.13.99.99 0 00-.505.13.912.912 0 00-.35.36 1.126 1.126 0 00-.125.535c0 .2.042.378.125.535a.953.953 0 00.35.365c.15.083.319.125.505.125zm3.4-2.36c.33 0 .592.097.785.29.197.19.295.468.295.835V198h-.355v-1.49c0-.273-.068-.482-.205-.625-.137-.143-.332-.215-.585-.215-.283 0-.508.085-.675.255-.163.167-.245.398-.245.695V198h-.355v-2.63h.34v.485a.979.979 0 01.4-.37c.173-.09.373-.135.6-.135z" fill="#373943"/><rect x="97" y="185" width="7" height="7" rx="1" fill="#3E54D8"/><path stroke="#EAF1FE" stroke-width=".5" d="M97 206.75h196"/><path d="M111.652 217.87h-1.624v-.77h4.158v.77h-1.624V222h-.91v-4.13zm3.912 4.2a2.07 2.07 0 01-.868-.182 1.725 1.725 0 01-.644-.525l.518-.623c.27.373.595.56.973.56.508 0 .763-.301.763-.903v-2.534h-1.743v-.763h2.653v3.248c0 .574-.14 1.006-.42 1.295-.28.285-.691.427-1.232.427zm5.947-.07l-1.33-1.862-1.316 1.862h-1.036l1.82-2.499-1.722-2.401h1.029l1.253 1.743 1.239-1.743h.987l-1.715 2.366 1.841 2.534h-1.05zm66.141-2.891c.709 0 1.225.128 1.547.385.327.252.49.607.49 1.064 0 .285-.068.539-.203.763a1.361 1.361 0 01-.595.532c-.266.126-.593.189-.98.189-.35 0-.684-.056-1.001-.168a2.082 2.082 0 01-.756-.462l.245-.399c.163.168.378.306.644.413.266.103.553.154.861.154.406 0 .719-.091.938-.273a.89.89 0 00.336-.728c0-.336-.126-.59-.378-.763-.247-.173-.667-.259-1.26-.259h-1.043l.252-2.457h2.681v.448h-2.24l-.168 1.561h.63zm9.934-.791V222h-5.082v-3.682h.497v3.248h1.806v-3.248h.497v3.248h1.785v-3.248h.497zm4.009.441h-1.393V222h-.497v-3.241h-1.393v-.441h3.283v.441zm.439 3.276a.362.362 0 01-.266-.112.386.386 0 01-.105-.273c0-.107.035-.196.105-.266a.362.362 0 01.266-.112c.103 0 .191.037.266.112.075.07.112.159.112.266a.371.371 0 01-.112.273.362.362 0 01-.266.112zm28.495-1.323h-.98V222h-.504v-1.288h-2.765v-.364l2.597-3.248h.56l-2.506 3.164h2.128v-1.134h.49v1.134h.98v.448zm3.572-3.612v.357L232.05 222h-.546l2.016-4.452H231v.917h-.497V217.1h3.598zm.673 4.935a.364.364 0 01-.266-.112.386.386 0 01-.105-.273c0-.107.035-.196.105-.266a.364.364 0 01.266-.112.36.36 0 01.266.112c.075.07.112.159.112.266a.371.371 0 01-.112.273.36.36 0 01-.266.112zm3.06-2.968c.322 0 .607.061.854.182.252.121.448.294.588.518.14.219.21.476.21.77 0 .299-.072.562-.217.791a1.444 1.444 0 01-.602.532 1.947 1.947 0 01-.854.182c-.648 0-1.145-.212-1.491-.637-.345-.429-.518-1.034-.518-1.813 0-.546.094-1.008.28-1.386a1.94 1.94 0 01.784-.854c.336-.196.728-.294 1.176-.294.486 0 .873.089 1.162.266l-.203.406c-.233-.154-.55-.231-.952-.231-.541 0-.966.173-1.274.518-.308.341-.462.838-.462 1.491 0 .117.007.25.021.399.122-.266.315-.471.581-.616.266-.149.572-.224.917-.224zm-.042 2.548c.355 0 .642-.096.861-.287.224-.196.336-.455.336-.777s-.112-.579-.336-.77c-.219-.191-.518-.287-.896-.287a1.49 1.49 0 00-.658.14 1.117 1.117 0 00-.441.385.974.974 0 00-.161.546c0 .187.049.359.147.518.103.159.252.287.448.385.196.098.43.147.7.147zm4.231.427c-.378 0-.716-.1-1.015-.301a2.013 2.013 0 01-.693-.861c-.163-.378-.245-.821-.245-1.33 0-.509.082-.95.245-1.323.168-.378.399-.667.693-.868a1.776 1.776 0 011.015-.301c.378 0 .714.1 1.008.301.299.201.532.49.7.868.168.373.252.814.252 1.323s-.084.952-.252 1.33a1.99 1.99 0 01-.7.861c-.294.201-.63.301-1.008.301zm0-.462c.285 0 .534-.079.749-.238.219-.159.39-.39.511-.693.121-.303.182-.67.182-1.099 0-.429-.061-.796-.182-1.099a1.53 1.53 0 00-.511-.693 1.224 1.224 0 00-.749-.238c-.285 0-.537.079-.756.238-.215.159-.383.39-.504.693-.121.303-.182.67-.182 1.099 0 .429.061.796.182 1.099.121.303.289.534.504.693.219.159.471.238.756.238zm31.135-.966c0 .378-.14.7-.42.966-.275.261-.677.42-1.204.476v.784h-.574v-.777a3.896 3.896 0 01-.98-.189c-.308-.103-.553-.233-.735-.392l.315-.707c.173.14.383.259.63.357.247.093.504.152.77.175v-1.4a5.588 5.588 0 01-.833-.259 1.492 1.492 0 01-.553-.42c-.149-.187-.224-.432-.224-.735 0-.378.138-.7.413-.966.275-.266.674-.425 1.197-.476v-.791h.574v.777c.261.014.516.058.763.133.252.075.471.173.658.294l-.287.707a2.927 2.927 0 00-1.134-.378v1.414c.336.079.614.166.833.259.224.093.411.233.56.42.154.182.231.425.231.728zm-2.905-2.163c0 .154.061.278.182.371.121.093.296.173.525.238v-1.246c-.238.037-.415.112-.532.224a.55.55 0 00-.175.413zm1.281 2.842c.247-.037.429-.11.546-.217a.512.512 0 00.182-.399.445.445 0 00-.189-.378 1.569 1.569 0 00-.539-.245v1.239zm4.402-2.317c.322 0 .612.063.868.189a1.395 1.395 0 01.819 1.316 1.5 1.5 0 01-.238.84 1.58 1.58 0 01-.644.553 2.06 2.06 0 01-.91.196c-.672 0-1.194-.21-1.568-.63-.368-.42-.553-1.022-.553-1.806 0-.551.101-1.02.301-1.407.201-.392.481-.688.84-.889a2.524 2.524 0 011.26-.308c.252 0 .488.028.707.084.224.051.418.128.581.231l-.336.686c-.242-.159-.553-.238-.931-.238-.471 0-.84.145-1.106.434-.266.289-.399.707-.399 1.253v.007c.145-.168.329-.294.553-.378.224-.089.476-.133.756-.133zm-.154 2.38c.285 0 .516-.075.693-.224a.765.765 0 00.266-.609c0-.257-.088-.46-.266-.609-.177-.149-.415-.224-.714-.224-.294 0-.534.079-.721.238a.764.764 0 00-.273.602c0 .238.089.436.266.595.182.154.432.231.749.231zm3.85-2.359c.691 0 1.202.135 1.533.406.331.266.497.63.497 1.092 0 .294-.072.56-.217.798a1.504 1.504 0 01-.651.567c-.289.14-.646.21-1.071.21-.35 0-.688-.049-1.015-.147a2.556 2.556 0 01-.826-.42l.385-.707c.182.149.399.268.651.357.257.084.52.126.791.126.322 0 .574-.065.756-.196a.646.646 0 00.28-.553c0-.252-.1-.441-.301-.567-.196-.131-.534-.196-1.015-.196h-1.183l.252-2.667h2.877v.763h-2.107l-.105 1.134h.469zm4.207-1.967c.672 0 1.192.21 1.561.63.373.42.56 1.022.56 1.806 0 .551-.1 1.022-.301 1.414a2.109 2.109 0 01-.847.889c-.359.201-.777.301-1.253.301a3.21 3.21 0 01-.714-.077 1.993 1.993 0 01-.574-.238l.336-.686c.243.159.553.238.931.238.471 0 .84-.145 1.106-.434.266-.289.399-.707.399-1.253v-.007a1.396 1.396 0 01-.553.385 2.14 2.14 0 01-.756.126c-.322 0-.611-.061-.868-.182a1.45 1.45 0 01-.602-.532 1.445 1.445 0 01-.217-.791c0-.317.079-.595.238-.833.159-.243.373-.429.644-.56.271-.131.574-.196.91-.196zm.07 2.38c.294 0 .532-.079.714-.238a.755.755 0 00.28-.602.736.736 0 00-.273-.588c-.177-.159-.425-.238-.742-.238-.285 0-.516.077-.693.231a.747.747 0 00-.266.602c0 .257.089.46.266.609.177.149.415.224.714.224zm3.131 2.639a.566.566 0 01-.406-.161.57.57 0 01-.168-.42c0-.173.053-.313.161-.42a.574.574 0 01.413-.161c.163 0 .298.054.406.161a.554.554 0 01.168.42.57.57 0 01-.168.42.568.568 0 01-.406.161zm4.409-2.625c.257.117.453.275.588.476.14.196.21.427.21.693 0 .299-.084.56-.252.784a1.55 1.55 0 01-.7.518 2.927 2.927 0 01-1.057.175c-.401 0-.754-.058-1.057-.175a1.55 1.55 0 01-.693-.518 1.297 1.297 0 01-.245-.784c0-.266.068-.497.203-.693.135-.201.329-.359.581-.476a1.194 1.194 0 01-.455-.42 1.188 1.188 0 01-.154-.609c0-.275.075-.516.224-.721.154-.205.369-.364.644-.476.275-.112.593-.168.952-.168.364 0 .684.056.959.168.275.112.49.271.644.476.154.205.231.446.231.721 0 .229-.054.429-.161.602a1.234 1.234 0 01-.462.427zm-1.211-1.68c-.285 0-.511.061-.679.182a.6.6 0 00-.245.511c0 .21.082.378.245.504.168.121.394.182.679.182.289 0 .518-.061.686-.182a.599.599 0 00.252-.504.588.588 0 00-.259-.511c-.168-.121-.394-.182-.679-.182zm0 3.612c.336 0 .602-.07.798-.21a.675.675 0 00.294-.581.668.668 0 00-.294-.574c-.196-.14-.462-.21-.798-.21s-.6.07-.791.21a.674.674 0 00-.287.574c0 .247.096.441.287.581.191.14.455.21.791.21z" fill="#373943"/><path opacity=".4" d="M111.25 225.82h-1.23v-.32h2.83v.32h-1.23V229h-.37v-3.18zm2.517 3.21a1.2 1.2 0 01-.555-.13 1.087 1.087 0 01-.415-.37l.22-.25c.194.287.445.43.755.43.434 0 .65-.257.65-.77v-2.12h-1.28v-.32h1.645v2.425c0 .367-.086.643-.26.83-.17.183-.423.275-.76.275zm4.276-.03l-1.13-1.54-1.125 1.54h-.425l1.33-1.8-1.245-1.7h.425l1.055 1.43 1.05-1.43h.4l-1.24 1.69 1.335 1.81h-.43zm3.915.03c-.347 0-.66-.077-.94-.23a1.708 1.708 0 01-.655-.635 1.802 1.802 0 01-.235-.915c0-.337.078-.64.235-.91.16-.273.38-.487.66-.64.28-.153.593-.23.94-.23.26 0 .5.043.72.13.22.087.407.213.56.38l-.235.235c-.273-.277-.618-.415-1.035-.415-.277 0-.528.063-.755.19-.227.127-.405.3-.535.52-.127.22-.19.467-.19.74 0 .273.063.52.19.74.13.22.308.393.535.52.227.127.478.19.755.19.42 0 .765-.14 1.035-.42l.235.235a1.531 1.531 0 01-.565.385c-.22.087-.46.13-.72.13zm2.957-.005c-.254 0-.482-.057-.685-.17a1.271 1.271 0 01-.48-.48 1.356 1.356 0 01-.175-.69c0-.257.058-.487.175-.69.116-.203.276-.362.48-.475.203-.113.431-.17.685-.17.253 0 .481.057.685.17.203.113.361.272.475.475.116.203.175.433.175.69 0 .257-.059.487-.175.69a1.252 1.252 0 01-.475.48c-.204.113-.432.17-.685.17zm0-.315a1 1 0 00.5-.125.905.905 0 00.35-.365c.083-.157.125-.335.125-.535s-.042-.378-.125-.535a.868.868 0 00-.35-.36.963.963 0 00-.5-.13.987.987 0 00-.505.13.9.9 0 00-.35.36 1.115 1.115 0 00-.125.535c0 .2.041.378.125.535a.939.939 0 00.35.365c.15.083.318.125.505.125zm5.339-2.36c.33 0 .589.095.775.285.19.19.285.47.285.84V229h-.355v-1.49c0-.273-.066-.482-.2-.625-.13-.143-.315-.215-.555-.215-.273 0-.488.085-.645.255-.156.167-.235.398-.235.695V229h-.355v-1.49c0-.273-.066-.482-.2-.625-.13-.143-.316-.215-.56-.215-.27 0-.485.085-.645.255-.156.167-.235.398-.235.695V229h-.355v-2.63h.34v.48a.959.959 0 01.39-.37c.167-.087.359-.13.575-.13.22 0 .41.047.57.14a.854.854 0 01.365.415c.097-.173.235-.308.415-.405.184-.1.392-.15.625-.15zm3.378 0c.247 0 .47.057.67.17.2.11.357.267.47.47.114.203.17.435.17.695 0 .263-.056.497-.17.7-.113.203-.27.362-.47.475-.196.11-.42.165-.67.165-.213 0-.406-.043-.58-.13a1.12 1.12 0 01-.42-.39v1.465h-.355v-3.6h.34v.52c.107-.173.247-.307.42-.4.177-.093.375-.14.595-.14zm-.025 2.36c.184 0 .35-.042.5-.125a.899.899 0 00.35-.365c.087-.157.13-.335.13-.535s-.043-.377-.13-.53a.899.899 0 00-.35-.365.976.976 0 00-.5-.13.99.99 0 00-.505.13.953.953 0 00-.35.365c-.083.153-.125.33-.125.53s.042.378.125.535a.953.953 0 00.35.365c.15.083.319.125.505.125zm2.964-2.36c.344 0 .607.087.79.26.184.17.275.423.275.76V229h-.34v-.41a.81.81 0 01-.355.32 1.21 1.21 0 01-.55.115c-.293 0-.526-.07-.7-.21a.68.68 0 01-.26-.555c0-.223.08-.403.24-.54.164-.137.422-.205.775-.205h.835v-.16c0-.227-.063-.398-.19-.515-.126-.12-.311-.18-.555-.18-.166 0-.326.028-.48.085a1.168 1.168 0 00-.395.225l-.16-.265c.134-.113.294-.2.48-.26.187-.063.384-.095.59-.095zm-.125 2.395c.2 0 .372-.045.515-.135a.831.831 0 00.32-.4v-.43h-.825c-.45 0-.675.157-.675.47 0 .153.059.275.175.365.117.087.28.13.49.13zm3.494-2.395c.33 0 .592.097.785.29.197.19.295.468.295.835V229h-.355v-1.49c0-.273-.068-.482-.205-.625-.136-.143-.331-.215-.585-.215-.283 0-.508.085-.675.255-.163.167-.245.398-.245.695V229h-.355v-2.63h.34v.485a.979.979 0 01.4-.37c.174-.09.374-.135.6-.135zm2.044.02h.355V229h-.355v-2.63zm.18-.575a.252.252 0 01-.185-.075.245.245 0 010-.355.252.252 0 01.185-.075.25.25 0 01.185.075c.05.047.075.103.075.17a.252.252 0 01-.075.185.25.25 0 01-.185.075zm3.453 2h-2.2a.95.95 0 00.315.665c.19.167.43.25.72.25.163 0 .313-.028.45-.085a1.01 1.01 0 00.355-.26l.2.23a1.12 1.12 0 01-.44.32c-.173.073-.365.11-.575.11-.27 0-.51-.057-.72-.17a1.27 1.27 0 01-.485-.48 1.356 1.356 0 01-.175-.69c0-.257.055-.487.165-.69a1.236 1.236 0 011.12-.645c.243 0 .462.057.655.17.193.113.345.272.455.475.11.2.165.43.165.69l-.005.11zm-1.27-1.14a.9.9 0 00-.64.245.946.946 0 00-.29.63h1.865a.938.938 0 00-.295-.63.888.888 0 00-.64-.245zm2.703 2.37a2.09 2.09 0 01-.615-.09 1.342 1.342 0 01-.455-.235l.16-.28c.11.087.248.158.415.215.166.053.34.08.52.08.24 0 .416-.037.53-.11a.364.364 0 00.175-.32.278.278 0 00-.095-.225.597.597 0 00-.24-.125 3.1 3.1 0 00-.385-.085 4.828 4.828 0 01-.515-.12.79.79 0 01-.335-.215c-.09-.1-.135-.238-.135-.415 0-.22.091-.4.275-.54.183-.14.438-.21.765-.21.17 0 .34.023.51.07.17.043.31.102.42.175l-.155.285a1.328 1.328 0 00-.775-.225c-.227 0-.399.04-.515.12a.367.367 0 00-.17.315c0 .1.031.18.095.24a.64.64 0 00.245.135 4.4 4.4 0 00.4.085c.21.04.378.08.505.12.126.04.235.108.325.205.09.097.135.23.135.4 0 .23-.097.413-.29.55-.19.133-.455.2-.795.2zm3.124-3.525h.37v3.5h-.37v-3.5zm2.774.85c.33 0 .592.097.785.29.197.19.295.468.295.835V229h-.355v-1.49c0-.273-.068-.482-.205-.625-.136-.143-.331-.215-.585-.215-.283 0-.508.085-.675.255-.163.167-.245.398-.245.695V229h-.355v-2.63h.34v.485a.979.979 0 01.4-.37c.174-.09.374-.135.6-.135zm3.144 2.675c-.26 0-.493-.057-.7-.17a1.245 1.245 0 01-.48-.475 1.385 1.385 0 01-.175-.695c0-.257.058-.487.175-.69.117-.203.277-.362.48-.475.207-.113.44-.17.7-.17.227 0 .428.045.605.135a.99.99 0 01.425.385l-.265.18a.812.812 0 00-.33-.29.953.953 0 00-.435-.1c-.19 0-.362.043-.515.13a.898.898 0 00-.355.36 1.126 1.126 0 00-.125.535c0 .203.042.383.125.54a.951.951 0 00.355.36c.153.083.325.125.515.125.157 0 .302-.032.435-.095a.812.812 0 00.33-.29l.265.18c-.103.17-.245.3-.425.39-.18.087-.382.13-.605.13zm1.86 0a.26.26 0 01-.19-.08.273.273 0 01-.075-.195c0-.077.025-.14.075-.19a.26.26 0 01.19-.08.26.26 0 01.19.08.25.25 0 01.08.19.266.266 0 01-.08.195.26.26 0 01-.19.08z" fill="#373943"/><rect x="97" y="216" width="7" height="7" rx="1" fill="#3E54D8"/><g filter="url(#filter1_d)"><rect x="173" y="236" width="40" height="40" rx="8" fill="#3E54D8"/></g><path opacity=".9" d="M187.153 263.24c-1.16 0-2.193-.287-3.1-.86s-1.62-1.4-2.14-2.48c-.507-1.093-.76-2.393-.76-3.9 0-1.507.253-2.8.76-3.88.52-1.093 1.233-1.927 2.14-2.5s1.94-.86 3.1-.86c1.16 0 2.193.287 3.1.86s1.613 1.407 2.12 2.5c.52 1.08.78 2.373.78 3.88 0 1.507-.26 2.807-.78 3.9-.507 1.08-1.213 1.907-2.12 2.48s-1.94.86-3.1.86zm0-2.74c.853 0 1.52-.367 2-1.1.493-.733.74-1.867.74-3.4s-.247-2.667-.74-3.4c-.48-.733-1.147-1.1-2-1.1-.84 0-1.507.367-2 1.1-.48.733-.72 1.867-.72 3.4s.24 2.667.72 3.4c.493.733 1.16 1.1 2 1.1zm17.917-.14V263h-10.58v-2.1l5.4-5.1c.573-.547.96-1.013 1.16-1.4.2-.4.3-.793.3-1.18 0-.56-.193-.987-.58-1.28-.373-.307-.927-.46-1.66-.46-.613 0-1.167.12-1.66.36a3.098 3.098 0 00-1.24 1.04l-2.36-1.52c.547-.813 1.3-1.447 2.26-1.9.96-.467 2.06-.7 3.3-.7 1.04 0 1.947.173 2.72.52.787.333 1.393.813 1.82 1.44.44.613.66 1.34.66 2.18 0 .76-.16 1.473-.48 2.14-.32.667-.94 1.427-1.86 2.28l-3.22 3.04h6.02z" fill="#fff"/><defs><filter id="filter0_d" x="0" y="0" width="384" height="374" filterUnits="userSpaceOnUse" color-interpolation-filters="sRGB"><feFlood flood-opacity="0" result="BackgroundImageFix"/><feColorMatrix in="SourceAlpha" values="0 0 0 0 0 0 0 0 0 0 0 0 0 0 0 0 0 0 127 0"/><feMorphology radius="17" in="SourceAlpha" result="effect1_dropShadow"/><feOffset dy="44"/><feGaussianBlur stdDeviation="44.5"/><feColorMatrix values="0 0 0 0 0.243137 0 0 0 0 0.329412 0 0 0 0 0.847059 0 0 0 0.06 0"/><feBlend in2="BackgroundImageFix" result="effect1_dropShadow"/><feBlend in="SourceGraphic" in2="effect1_dropShadow" result="shape"/></filter><filter id="filter1_d" x="164" y="236" width="58" height="70" filterUnits="userSpaceOnUse" color-interpolation-filters="sRGB"><feFlood flood-opacity="0" result="BackgroundImageFix"/><feColorMatrix in="SourceAlpha" values="0 0 0 0 0 0 0 0 0 0 0 0 0 0 0 0 0 0 127 0"/><feMorphology radius="13" in="SourceAlpha" result="effect1_dropShadow"/><feOffset dy="21"/><feGaussianBlur stdDeviation="11"/><feColorMatrix values="0 0 0 0 0.243137 0 0 0 0 0.329412 0 0 0 0 0.847059 0 0 0 0.51 0"/><feBlend in2="BackgroundImageFix" result="effect1_dropShadow"/><feBlend in="SourceGraphic" in2="effect1_dropShadow" result="shape"/></filter></defs></svg>